
<svg xmlns="http://www.w3.org/2000/svg" version="1.1" xmlns:xlink="http://www.w3.org/1999/xlink" preserveAspectRatio="none" x="0px" y="0px" width="1122px" height="870px" viewBox="0 0 1122 870">
<defs>
<rect stroke-dashoffset="0" x="2.4px" y="2.4px" width="100px" height="100px"/>
<g id="aircraft_view_all_svg_Illustrator_Symbole_S_FUSS_0_Layer0_0_MEMBER_0_FILL">
<path fill="#B3B4B6" stroke="none" d="
M 46.4 -77.6
L 42.55 -80.8 -271.65 100.55
Q -213.65 107.75 -224.15 180.45
L 227.45 -80.45 240.95 -90.45 269.9 -117.95
Q 278.9 -169.9 243.55 -180.4
L 147.1 -125.25 46.4 -77.6 Z"/>
</g>

<g id="Layer0_1_FILL">
<path fill="#999999" stroke="none" d="
M 554.9 391.8
Q 553.1 380.55 557.95 371.95
L 557.25 371.4 547.05 376.95
Q 541.6 383.35 542.5 395.2 543.35 404.3 546.7 411.05 548.45 413.2 550.85 412.95
L 557.95 408.95
Q 559.75 407.45 559.3 404.95 556.1 399.8 554.9 391.8 Z"/>
</g>

<g id="Layer0_2_FILL">
<path fill="#999999" stroke="none" d="
M 214.75 587.85
Q 213.05 576 217.9 567.5
L 206.8 573.7
Q 201.25 580 202.45 592.05 203.35 600.75 206.85 608 207.8 609.1 208.2 609.25 208.75 609.55 210.05 609.45
L 217.8 605.2
Q 218.7 604.45 219 603.8 219.3 603 219.1 601.75 215.9 596 214.75 587.85 Z"/>
</g>

<g id="Layer0_3_FILL">
<path fill="#999999" stroke="none" d="
M 168.3 595.7
Q 162.7 602.05 163.75 613.9 164.5 623.1 167.9 629.75 169.5 631.85 172.1 631.55
L 185.3 623.6
Q 187.05 622.4 186.65 619.75 183.45 614.65 182.15 606.1 180.5 594.5 185.35 585.95
L 168.3 595.7 Z"/>
</g>

<g id="Layer0_4_FILL">
<path fill="#999999" stroke="none" d="
M 235.4 632.5
Q 232.8 619.95 226.25 609.95 223.85 607 220.45 607.45
L 206.75 615.55
Q 204.4 617.45 205 621 211.45 631.15 214 640.8 218.8 658.35 210.05 669.75
L 229.55 658.5
Q 238.95 649.85 235.4 632.5 Z"/>
</g>

<g id="Layer0_5_FILL">
<path fill="#999999" stroke="none" d="
M 601.65 388.75
Q 599.25 390.45 599.75 394.1 606.1 406.1 608.25 415.25 612.05 432.9 602.9 445
L 620 435.45
Q 629.6 424.35 626.75 407.05 624.95 396.15 618.75 384.8 616.3 381.95 612.9 382.25
L 601.65 388.75 Z"/>
</g>

<g id="Layer0_6_FILL">
<path fill="#999999" stroke="none" d="
M 662.75 372.85
Q 660.35 370 656.9 370.3
L 640.4 379.65
Q 638.1 381.55 638.5 385.1 646.2 399.45 643.55 417.05 642.8 419.15 644.75 418.9
L 663.15 408.6
Q 670.65 397.2 662.75 372.85 Z"/>
</g>

<g id="aircraft_view_all_svg_Illustrator_Symbole_S_WING_RH_0_Layer0_0_MEMBER_0_FILL">
<path fill="#E81732" stroke="none" d="
M -170.3 -83.5
L -169.9 -81 -168.95 -78.65 13.2 50.2
Q 38.9 32.35 55.7 25.8
L 74.8 14.55 -150.3 -100.4 -170.3 -83.5 Z"/>
</g>

<g id="aircraft_view_all_svg_Illustrator_Symbole_S_WING_RH_0_Layer0_0_MEMBER_1_FILL">
<path fill="#E81732" stroke="none" d="
M 92.1 95.75
L 95.6 92.95
Q 112.4 83.7 132.75 76.05 147 70.55 170.35 63.5
L 107.75 27.75
Q 90.4 30 78.4 36.6 70.7 38.95 64.15 36.4 45.65 44.55 35.1 58.05 33.3 60.65 35.4 64.1
L 89.3 100.45 92.1 95.75 Z"/>
</g>

<g id="aircraft_view_all_svg_Illustrator_Symbole_S_NOSE_0_Layer0_0_MEMBER_0_FILL">
<path fill="#00924C" stroke="none" d="
M 19.4 39.5
L 38.85 29.7 62.15 16.6
Q 71.65 -57.3 14.15 -63.1 0.1 -56.05 -14 -41.6
L -22.35 -30.9 -30.45 -18
Q -49.5 10.9 -60.05 40.4
L -62.4 47.1 -63.45 57.4
Q -63.45 62.05 -58.6 63.15
L -43.95 62.25 -23.15 56.7 -5.55 50.2 19.4 39.5 Z"/>
</g>

<g id="aircraft_view_all_svg_Illustrator_Symbole_S_NOSE_0_Layer0_0_MEMBER_1_FILL">
<path fill="#00A2DB" stroke="none" d="
M 28.55 -21.9
L 20.3 -21 -10.1 -21.3 -14.8 -34.4 -13.9 -41.6 -23.05 -29.95 -29.85 -18 -22.45 -0.9 13.8 2.5 26.7 0.05 47.2 -8.55 54 -13.65
Q 61.4 -21.5 53.05 -25.95
L 44.2 -25.65 28.55 -21.9 Z"/>
</g>

<g id="aircraft_view_all_svg_Illustrator_Symbole_S_NOSE_0_Layer0_0_MEMBER_2_FILL">
<path fill="#006600" stroke="none" d="
M 19.6 -36.85
Q 21.9 -38.2 20.8 -39.9
L 14.15 -44.35
Q 12.25 -45.15 10.5 -44.55
L 3.95 -40.45
Q 2.6 -37.8 3.9 -37.05
L 9.05 -33.35
Q 10.95 -32.35 13.4 -33.55
L 19.6 -36.85 Z"/>
</g>

<g id="aircraft_view_all_svg_Illustrator_Symbole_S_WING_LH_0_Layer0_0_MEMBER_0_FILL">
<path fill="#E81732" stroke="none" d="
M -84.85 -14.65
Q -87.7 -10.75 -84.55 -7.85
L 147.45 99.9 151.5 100.1 181 87.95 -21.1 -42.05 -29.4 -40.3 -37.75 -37.35 -43.55 -34.45
Q -49.95 -31.75 -56.5 -33.95 -74.7 -25.4 -84.85 -14.65
M -180.95 -47.45
Q -172.35 -49.6 -166.25 -47.55
L -107.4 -19.3
Q -92.5 -28.95 -85.35 -33.2 -73 -40.35 -63.7 -44.15 -59.15 -46.5 -51.05 -51.15 -42.9 -55.55 -38.4 -57.65
L -104.1 -95.65 -105.55 -97.7 -105.35 -100.05
Q -136.1 -85.65 -152.75 -74.75 -174.5 -60.7 -180.95 -47.45 Z"/>
</g>

<g id="aircraft_view_all_svg_Illustrator_Symbole_S_ENG_LH_0_Layer0_0_MEMBER_0_FILL">
<path fill="#00A2DB" stroke="none" d="
M 71.85 -55.8
L 66.95 -55.6 60.65 -56.95 55.4 -55.7
Q 42.3 -51.75 29.65 -45.6 18.7 -40.35 3.25 -31.2 -14.25 -24.2 -32.8 -11.6 -49.5 -1.35 -56.3 3.4 -69.35 12.4 -80.6 23.3 -90.95 33.1 -94.5 41.75 -96.9 47.55 -88.1 46.6
L -83.35 45.45 -82.25 49.15
Q -82.15 50.95 -78.35 53.4 -77.5 54 -70.7 57.8
L -67.7 57.7 -59.45 54.1
Q -26.65 38.3 8.6 17
L -17.45 4.95
Q -20.35 2.2 -17.95 -1.7 -7.35 -13.05 10.6 -21 16.65 -19 23.55 -21.6
L 30.45 -24.9 45.7 -29 62.2 -18.85 84.55 -35.2
Q 93.15 -43.75 94.75 -48.8 96.1 -53.5 91.65 -56.55
L 85.7 -57.75 71.85 -55.8 Z"/>
</g>

<g id="aircraft_view_all_svg_Illustrator_Symbole_S_ENG_RH_0_Layer0_0_MEMBER_0_FILL">
<path fill="#00A2DB" stroke="none" d="
M 60.95 -56.9
L 53.55 -55.95
Q 41.5 -52.1 28.8 -45.95 17.35 -40.35 2.55 -31.45 -12.6 -25.55 -32.7 -11.85 -51.4 0.1 -56.15 3.45 -69.25 12.55 -80.3 23.25 -86.45 29.1 -88.8 31.9 -92.95 36.8 -94.8 41.3 -96.05 44.35 -94.2 45.7 -92.25 47.15 -87.8 46.55
L -83.55 45.4 -82.55 49.1
Q -82.45 50.85 -78.4 53.35 -76.05 54.75 -70.4 57.75
L -67.4 57.65 -59.15 54.05
Q -38.75 43.8 -28.05 38.1 -13.65 30.35 1.95 20.9
L -18.15 6.65
Q -19.4 5.4 -19.3 3.8 -19.2 2.55 -17.95 0.5 -4.4 -13.95 11.3 -20.85 14.25 -19.5 17.9 -19.5 21.85 -19.5 25.4 -20.75
L 30.9 -23.5 42.3 -26.9 54.35 -29.2 66.75 -22.15 84.85 -35.15
Q 93.45 -43.7 95.05 -48.75 96.4 -53.5 91.95 -56.6
L 86 -57.7 72.1 -55.75 67.25 -55.55 60.95 -56.9 Z"/>
</g>

<g id="aircraft_view_all_svg_Illustrator_Symbole_S_VERT_STAB_0_Layer0_0_MEMBER_0_FILL">
<path fill="#00924C" stroke="none" d="
M 111.7 -133.75
L 106.45 -129.6
Q 95 -120.75 96.55 -112.65 98.15 -104.55 112.1 -106.55
L 77.3 -3.85 -27.9 80.65 -94.85 117.5 -186.65 169.85 -182.1 173.55 -80.1 124.5 15.4 69.6
Q 33.75 73.95 40.5 90.75 47 106.85 41.75 132.35
L 137.45 37.8 145.8 27.5 153.2 14.9 157.2 6.05
Q 160.95 -3.85 153.85 -8.8
L 155.9 -11.15 173.5 -102.45 131.35 -121.5
Q 129.8 -124.8 144.85 -134.55 158.3 -143.05 172.45 -149.3 172.85 -149.4 173.5 -148.6 174.2 -147.75 174.45 -147.95
L 186.6 -156.8 186.7 -173.5 156.2 -158.45
Q 133.8 -148.75 111.7 -133.75 Z"/>
</g>

<g id="aircraft_view_all_svg_Illustrator_Symbole_S_HOR_STAB_0_Layer0_0_MEMBER_0_FILL">
<path fill="#E81732" stroke="none" d="
M 82.35 65.5
L 93.85 59.8 112.95 47.05 17.95 -8.05
Q -17.95 9.45 -22.1 16.85 -24 18.6 -22.45 20.7
L 80.05 65.6 82.35 65.5 Z"/>
</g>

<g id="aircraft_view_all_svg_Illustrator_Symbole_S_HOR_STAB_0_Layer0_0_MEMBER_1_FILL">
<path fill="#E81732" stroke="none" d="
M -81.65 -65.55
Q -98.1 -57.55 -112.9 -46.2
L -42.7 7.6 1.8 -17.1 -81.65 -65.55 Z"/>
</g>

<g id="aircraft_view_all_svg_Illustrator_Symbole_S_FUS_WING_0_Layer0_0_MEMBER_0_FILL">
<path fill="#00A2DB" stroke="none" d="
M 59.4 -16.75
Q 68.05 -16.8 70.15 -21.4 71.3 -30.45 64.45 -37.3 58.05 -43.85 48.2 -44.6
L -10.45 -26.45
Q -33.75 -18.45 -55.45 -6.6 -62.95 -2.45 -62.35 10.4 -62.7 18.1 -70.3 22.9 -62.9 35.55 -54.3 41.1 -44.7 47.15 -36.3 42.95
L -16.5 35.55
Q -6.35 19.95 16.75 5.5 31.75 -3.95 59.4 -16.75 Z"/>
</g>

<path id="Layer0_20_MEMBER_0_MEMBER_0_1_STROKES" stroke="#2D2C2E" stroke-width="0.55" stroke-linejoin="miter" stroke-linecap="butt" stroke-miterlimit="5" fill="none" d="
M 1027.0207031249997 244.52850341796878
L 1029.1581298828123 245.79152832031255 1041.399755859375 236.85319824218746 1041.399755859375 220.14240722656248 1011.0871582031251 235.29870605468753 1006.1322143554686 237.77617797851568 1006.03505859375 237.82475585937496
Q 1003.3446789264677 239.09347348213194 1000.6914916992188 240.3993835449219 984.2949388504027 248.28418083190914 968.6300903320313 258.6160888671875 967.7401283740998 259.211547422409 966.8812866210939 259.7819580078125 956.0248892784117 267.4208297729492 952.5993896484375 274.4524780273438 949.2960937499998 281.1562255859375 953.570947265625 284.84814453125 957.7486450195312 288.4429077148437 966.4926635742187 287.0827270507813 966.9025394439697 287.02048664093013 967.3184875488283 286.9369934082031 976.546007823944 285.32329692840574 986.3124389648439 278.53302001953125
M 986.9925292968752 269.2060668945312
Q 986.0209716796877 269.78900146484375 986.0209716796877 270.9548706054687 986.0209716796877 272.5093627929688 987.478308105469 273.0922973632812
L 1010.6985351562499 283.34223022460935 1019.636865234375 287.27703857421875 1028.2837280273438 291.11469116210935 1089.6861694335935 318.1725708007813
Q 1091.0463500976562 318.46403808593743 1093.6695556640625 317.39532470703125 1095.0297363281247 316.8123901367187 1097.2643188476563 315.6465209960937 1106.6884277343747 310.49726562499995 1113.1007080078125 305.73663330078125
L 1018.9567749023437 251.23225097656248
M 1113.1007080078125 305.73663330078125
L 1121.9418823242186 299.4215087890625 1029.1581298828123 245.79152832031255
M 1011.0871582031251 235.29870605468753
L 927.7275146484377 187.01229248046874
Q 922.4173450469972 189.52771587371828 917.5747375488282 192.16154785156252
L 1000.6914916992188 240.3993835449219
M 917.5747375488282 192.16154785156252
Q 905.5228689193724 198.74688682556152 896.2490478515625 206.15197753906253
L 966.8812866210939 259.7819580078125
M 590.7913330078126 542.505224609375
L 604.5874511718749 532.3038696289062
Q 616.6347656250001 522.2968261718751 617.2177001953124 516.3703247070313 617.9949462890626 513.9414306640625 616.7319213867187 511.70684814453114 615.4916673660279 509.5124941825867 613.1371582031251 508.9864868164062 613.6426717758178 509.4123023033143 613.52578125 510.3466674804687 613.3314697265624 511.70684814453114 612.3599121093749 512.5812500000001 611.0968872070313 514.0385864257813 607.3078125000001 515.3987670898438 606.8220336914063 515.4959228515626 601.6727783203124 517.1475708007812 598.0780151367188 518.2162841796875 596.6206787109376 516.5646362304686 593.6088500976563 512.969873046875 592.7344482421876 512.3869384765625 590.9685663700103 511.2685086727141 589.5768859863282 510.58955688476556 588.6425208091736 510.12882604598997 587.8766601562501 509.86088867187493 585.8363891601563 509.1807983398438 582.5330932617188 509.083642578125 577.7724609375001 509.66657714843757 574.5663208007812 510.73529052734364 571.4573364257814 511.60969238281257 567.0853271484376 513.6499633789061 556.4452531814576 517.8842088222503 544.3994567871094 523.9484741210937
L 545.1281250000001 524.3370971679686
M 611.582666015625 581.5618408203126
L 639.8064147949218 572.5263549804687 576.99521484375 536.4815673828124 561.8389160156249 539.6877075195313 554.4550781250001 542.0194458007812 547.994219970703 545.0312744140625
Q 544.9338134765625 546.6829223632811 540.9504272460937 546.6829223632811 536.9670410156251 546.6829223632811 533.858056640625 545.2255859374999
M 613.1371582031251 508.9864868164062
Q 612.785727596283 508.73373003005975 612.1656005859376 508.69501953125007 606.7248779296875 507.72346191406257 600.5069091796876 508.79217529296864 591.5685791015625 510.3466674804687 589.5768859863282 510.58955688476556
M 544.3994567871094 523.9484741210937
Q 534.9058967113496 528.7736239433287 524.531103515625 534.732763671875
M 504.9056396484376 566.4055419921875
Q 503.6426147460937 568.2515014648437 503.6426147460937 569.708837890625 503.54545898437493 571.1661743164062 504.8570617675781 572.8178222656251
L 557.7583740234376 608.9597656249999
M 675.8997802734376 671.8195434570313
L 670.7019470214844 669.2934936523437 400.46319580078136 825.3256469726563
Q 350.91375732421886 855.6382446289061 301.6557861328125 868.4628051757812 293.9804809570313 870.3087646484374 285.6250854492188 870.3087646484374
L 283.19619140625 870.3087646484374
Q 280.96160888671875 869.9201416015625 279.4071166992188 868.2684936523436 278.227585029602 866.8529038429259 277.99835815429685 865.062353515625 277.9759667873383 864.863487815857 277.94978027343757 864.67373046875 277.3584963798522 856.2568535804747 285.0421508789062 837.6644287109374 292.8146118164062 818.7190551757811 306.12495117187507 796.8590087890624 308.50564684867857 792.9162306308746 312.342919921875 787.0462768554688 312.4765090942384 786.8455135822295 312.6343872070312 786.6576538085936 313.69513077735894 785.0181503295897 314.86896972656257 783.2572021484374 320.8831390857696 772.7321211338043 328.9565551757813 764.2146728515626 337.8759095191955 754.8023289203644 349.3106872558593 747.8439270019531
L 349.84504394531257 747.5038818359375 550.3745361328125 631.6942138671874
Q 558.1469970703125 626.0591796875 558.2441528320313 615.5663574218751 558.3413085937501 610.4171020507812 559.2157104492188 608.18251953125 560.5758911132813 604.3934448242188 565.2393676757812 601.6730834960937
M 443.0174194335938 618.3838745117188
L 443.26030883789065 618.5296081542969 451.85859375000007 623.5331298828124
Q 453.7045532226563 624.116064453125 457.5907836914063 622.4644165039061 459.72821044921886 621.5900146484374 463.0315063476563 619.9383666992188 489.3607177734376 607.0166503906249 514.1354370117189 592.7347534179688
L 523.0737670898437 587.6826538085937
M 490.2351196289063 554.0667602539062
Q 477.4105590820312 562.1306884765626 470.9982788085937 566.2112304687499 459.63105468750007 573.4007568359374 452.63583984375 579.3272583007812 448.5552978515626 582.922021484375 446.12640380859386 585.0594482421874 442.2257517814636 588.5361823558807 440.588525390625 590.5973266601562 440.57182674407966 590.6531153202058 440.53994750976574 590.694482421875 445.6406250000001 587.2940307617188 450.7898803710938 596.1352050781251 455.84197998046886 604.8792236328126 450.2069458007812 607.5995849609375 452.92730712890636 606.62802734375 456.3277587890626 608.3768310546874
M 440.15132446289056 591.1316833496093
Q 440.3592985153199 590.946480178833 440.53994750976574 590.694482421875
M 440.15132446289056 591.1316833496093
L 435.9250488281251 595.4551147460937
Q 434.37055664062507 597.2039184570311 431.45588378906257 601.0901489257811 429.9013916015625 602.8389526367188 428.73552246093743 605.4621582031249 427.375341796875 608.3768310546874 427.56965332031257 610.3199462890624 428.1525878906251 614.011865234375 438.35394287109386 611.5829711914063 446.02924804687507 609.8341674804686 450.2069458007812 607.5995849609375
M 440.588525390625 590.5973266601562
L 440.15132446289056 591.1316833496093
M 447.5837402343751 611.2915039062499
L 451.6642822265625 613.6232421875001
Q 454.19033203125 614.8862670898437 454.4817993164062 618.28671875 454.77326660156257 621.5900146484374 451.6642822265625 620.229833984375
M 439.7141235351563 613.4289306640625
Q 440.19990234375007 617.1208496093749 443.26030883789065 618.5296081542969
M 497.0360229492188 730.1130004882813
L 494.995751953125 731.2788696289061
Q 492.76116943359386 732.3475830078124 493.1497924804688 734.9707885742188
L 494.0241943359375 737.8854614257813 494.1699279785156 739.1484863281249 494.2185058593751 739.3427978515625
Q 494.4515278816224 740.4426314353942 494.8985961914062 740.8001342773438 495.1900634765626 741.0916015624999 495.4815307617188 741.0916015624999
L 495.8701538085937 740.9944458007811 495.9673095703125 740.8972900390626 496.0644653320313 740.8972900390626 496.9388671875 740.5086669921874 499.0762939453126 739.1484863281249
Q 500.82509765625 738.0797729492186 500.2421630859375 735.9423461914063
L 498.83340454101574 730.598779296875 498.7848266601562 730.5016235351562
Q 498.65389409065244 730.2906133651733 498.49335937500007 730.2101562500001
L 498.2018920898437 729.9186889648437 497.9104248046875 729.9186889648437 497.8132690429687 729.8215332031249 497.71611328124993 729.9186889648437 497.327490234375 729.9186889648437 497.2303344726562 730.0158447265625 497.0360229492188 730.1130004882813 Z
M 497.0360229492188 730.1130004882813
L 497.1331787109376 730.0158447265625 497.2303344726562 730.0158447265625
M 522.199365234375 716.8998168945312
L 522.1022094726562 716.8026611328124
M 522.199365234375 716.8998168945312
L 522.2479431152343 717.0455505371093 523.3652343750001 720.883203125 523.6567016601563 722.3405395507813
Q 524.3257860660552 724.3474132537841 522.6851440429688 725.5466796874999
L 522.6365661621095 725.5952575683594 519.6733154296875 727.2954833984376 519.5761596679687 727.3440612792969 519.1875366210937 727.4897949218749 518.7017578125 727.4897949218749 518.7017578125 727.3926391601561
Q 518.313134765625 727.5869506835937 518.0216674804689 726.8097045898438 517.9245117187501 726.6153930664062 517.6816223144532 725.5466796874999
L 516.5643310546876 721.4661376953126
Q 516.758642578125 719.7173339843749 516.8557983398438 719.4258666992188 517.5358886718751 718.2599975585937 518.4588684082031 717.7256408691406
L 518.8960693359376 717.385595703125 520.5477172851562 716.5111938476563 520.7420288085938 716.4140380859375 520.8391845703126 716.4140380859375 520.9363403320314 716.3168823242187 521.6164306640625 716.3168823242187 521.7135864257813 716.4140380859375 521.8107421875001 716.4140380859375 521.8107421875001 716.5111938476563 521.9078979492189 716.5111938476563 522.0050537109374 716.6083496093751 522.0050537109374 716.7055053710936 522.1022094726562 716.7055053710936 522.1022094726562 716.8026611328124
M 520.7420288085938 716.4140380859375
L 520.644873046875 716.5111938476563 520.5477172851562 716.5111938476563
M 509.0833374023438 723.1177856445312
L 509.27764892578136 723.1177856445312 509.37480468749993 723.0206298828124 509.9577392578125 723.0206298828124 510.0548950195313 723.1177856445312 510.15205078125007 723.1177856445312 510.15205078125007 723.21494140625 510.24920654296886 723.21494140625 510.540673828125 723.5064086914061 510.540673828125 723.6035644531249 511.8036987304687 727.5869506835937 512.0951660156251 729.044287109375
Q 512.6663356304169 731.138449192047 510.9778747558595 732.2018493652344 510.964591741562 732.2287949085236 510.929296875 732.2504272460936
L 508.1117797851563 733.9992309570313 508.0146240234375 734.0963867187501 507.9174682617187 734.0963867187501 507.7231567382813 734.0963867187501 507.6260009765625 734.1935424804686 507.04306640625 734.1935424804686 506.9459106445312 734.0963867187501 506.8487548828126 734.0963867187501 506.7515991210938 733.9992309570313
Q 506.32426557540896 733.5718974113464 506.1686645507813 732.54189453125
L 506.120086669922 732.2504272460936 505.0027954101562 728.1698852539063
Q 505.0027954101562 726.5182373046874 505.29426269531257 726.1296142578125 505.6847833156586 725.2703929901123 506.46013183593743 724.6722778320312
L 506.8973327636719 724.4293884277344 508.8890258789062 723.21494140625 509.0833374023438 723.1177856445312 Z
M 509.0833374023438 723.1177856445312
L 508.986181640625 723.21494140625 508.8890258789062 723.21494140625
M 508.1117797851563 733.9992309570313
L 507.9174682617187 734.0963867187501
M 541.7276733398438 704.2695678710937
Q 540.9572585105897 704.8384603977203 540.4646484374999 705.8240600585938 540.1731811523438 706.2126831054687 540.1731811523438 707.8643310546876
L 541.0475830078125 710.6818481445313 541.3390502929689 712.2363403320313
Q 541.3773812770843 712.7987811088561 541.5333618164062 713.1107421875
L 541.7276733398438 713.499365234375 541.8248291015626 713.499365234375 541.8248291015626 713.5965209960938 541.9219848632812 713.6936767578126 542.5049194335937 713.8879882812499 543.1850097656251 713.6936767578126 544.0594116210938 713.3050537109374 546.1482604980469 711.8962951660156
Q 547.9456420898438 710.7790039062501 547.2655517578124 708.7387329101563
L 546.9740844726563 707.281396484375 545.8082153320312 703.3465881347655 545.6139038085938 703.0065429687501 545.4195922851562 702.8122314453125 545.2252807617189 702.8122314453125 545.1281250000001 702.7150756835937 544.6423461914063 702.7150756835937
Q 544.3599872589112 702.7150756835937 544.1565673828126 702.9093872070313
L 543.2821655273439 703.2980102539062 542.019140625 704.0752563476561
Q 541.8688528060912 704.1655808448792 541.7276733398438 704.2695678710937 Z
M 531.4291625976563 720.4945800781251
L 531.3320068359375 720.4945800781251 531.2348510742187 720.5917358398436 530.9433837890625 720.5917358398436
Q 530.4576049804688 720.5917358398436 530.2632934570312 720.3974243164063
L 530.2632934570312 720.3002685546875 530.1661376953126 720.3002685546875 530.1661376953126 720.2031127929687 530.0689819335938 720.2031127929687 530.0689819335938 720.1059570312499 529.8746704101562 719.9116455078125 529.8746704101562 719.8144897460937
Q 529.7775146484374 719.1343994140624 529.6317810058594 718.7457763671874
L 529.3888916015625 717.4827514648438 528.5144897460938 714.5680786132813
Q 528.3201782226562 711.9448730468749 530.4090270996095 710.8275817871094
L 530.8462280273437 710.4875366210937 531.6234741210939 710.0017578124999 533.0808105468751 709.4188232421874 533.5665893554689 709.4188232421874 533.5665893554689 709.5159790039062 533.7609008789062 709.5159790039062 533.7609008789062 709.613134765625 533.858056640625 709.613134765625 533.858056640625 709.7102905273438 533.9552124023438 709.7102905273438 533.9552124023438 709.8074462890626 534.0523681640626 709.8074462890626 534.0523681640626 710.0017578124999 534.1495239257812 710.0989135742187 534.1495239257812 710.1960693359375 534.1981018066407 710.1960693359375 535.3153930664063 713.9851440429687 535.6068603515624 715.44248046875
Q 536.0926391601562 717.5799072265626 534.5381469726564 718.6486206054686
L 531.5263183593751 720.4945800781251 531.4291625976563 720.4945800781251 Z
M 531.4291625976563 720.4945800781251
L 531.6234741210939 720.3974243164063 531.5263183593751 720.4945800781251
M 522.2479431152343 717.0455505371093
L 522.199365234375 716.99697265625 522.199365234375 716.8998168945312
M 774.2214111328126 518.6049072265624
L 866.2279174804686 465.3635498046875 916.5060241699217 439.131494140625 916.5546020507815 439.131494140625 932.9739257812499 390.8450805664062
Q 932.9739257812499 390.0678344726563 932.4881469726562 389.8735229492187 932.334823036194 389.7968609809875 932.1966796875 389.7763671875 931.7750388622286 389.6890788078308 931.3708557128908 389.9221008300781 931.3446691989899 389.9558776378632 931.3222778320311 389.9706787109375
L 828.4343261718751 474.107568359375 745.4633056640624 519.0906860351562 669.1960327148437 563.1022460937501 639.8064147949218 572.5263549804687
M 720.8828979492188 647.8220703124999
Q 734.6744619369507 640.005206155777 746.6777526855468 634.2202636718749
L 739.2453369140625 629.7510986328124 680.9518798828125 596.2323608398436
Q 680.0774780273438 595.4551147460937 679.7860107421876 594.1920898437501 679.4945434570312 592.8319091796874 679.980322265625 591.7631958007813
M 635.7744506835937 657.4890686035156
L 634.6085815429689 653.26279296875
M 635.7744506835937 657.7319580078125
L 635.7744506835937 657.4890686035156
M 635.9687622070313 658.4120483398436
Q 635.796083021164 658.0090037345886 635.7744506835937 657.7319580078125
M 636.0659179687501 658.8978271484374
L 635.9687622070313 658.4120483398436
M 636.1630737304687 658.8978271484374
L 636.0659179687501 658.8978271484374
M 636.1630737304687 658.9949829101562
L 636.1630737304687 658.8978271484374
M 636.2602294921875 659.092138671875
L 636.1630737304687 658.9949829101562
M 636.3573852539063 659.092138671875
L 636.2602294921875 659.092138671875
M 636.3573852539063 659.1892944335938
L 636.3573852539063 659.092138671875
M 636.4545410156251 659.1892944335938
L 636.3573852539063 659.1892944335938
M 636.5516967773439 659.2864501953126
L 636.4545410156251 659.1892944335938
M 636.8431640625 659.3836059570311
L 636.5516967773439 659.2864501953126
M 637.3289428710938 659.2864501953126
L 636.8431640625 659.3836059570311
M 637.4260986328126 659.2864501953126
L 637.3289428710938 659.2864501953126
M 637.5232543945314 659.1892944335938
L 637.4260986328126 659.2864501953126
M 637.6204101562499 659.1892944335938
L 637.5232543945314 659.1892944335938
M 637.6204101562499 659.1892944335938
L 639.2720581054688 658.3148925781251 640.6322387695312 657.3433349609376
M 637.7175659179687 659.1892944335938
L 637.6204101562499 659.1892944335938
M 612.5542236328125 663.3669921874999
L 614.9831176757813 662.0068115234375 615.5660522460938 661.8124999999999 616.1489868164064 661.8124999999999 616.1489868164064 661.9096557617187 616.3432983398437 661.9096557617187 616.3432983398437 662.0068115234375 616.4404541015625 662.0068115234375
M 670.7019470214844 669.2934936523437
L 619.0636596679689 644.3244628906249
Q 611.2911987304689 641.7984130859376 604.2959838867188 644.4216186523437
M 617.1205444335939 670.9451416015626
L 615.7603637695312 671.9166992187501 614.0115600585938 672.7911010742188 613.914404296875 672.8882568359376 613.6229370117188 672.8882568359376 613.6229370117188 672.9854125976561 613.4286254882812 672.9854125976561 612.7485351562501 672.7911010742188 612.7485351562501 672.6939453125 612.6513793945313 672.6939453125 612.6513793945313 672.5967895507812 612.5542236328125 672.4996337890624 612.5542236328125 672.4024780273438 612.4570678710937 672.305322265625 612.4570678710937 672.1110107421874
Q 612.1656005859376 671.8195434570313 612.1656005859376 671.0422973632811
M 636.3573852539063 703.6866333007812
Q 636.1399233341218 703.9116855144501 635.9201843261718 704.1238342285156 630.525762462616 709.7383746147156 628.0019897460937 712.9164306640624 622.5612670898437 720.1059570312499 623.3385131835938 723.7978759765625 624.5043823242187 727.0040161132812 634.3171142578125 724.5751220703124 641.9924194335937 722.7291625976562 645.9758056640625 720.5917358398436 651.5136840820313 717.8713745117187 646.4615844726562 709.1273559570312 641.4094848632814 700.3833374023437 636.3573852539063 703.6866333007812 Z
M 636.3573852539063 703.6866333007812
Q 638.0735507011415 701.5256766319275 641.8952636718751 698.0515991210938 644.2270019531251 696.011328125 648.4046997070312 692.4165649414061 655.3999145507813 686.4900634765626 666.7671386718749 679.2033813476563 673.1794189453125 675.1228393554687 685.9068237304688 667.0589111328126
M 635.5801391601564 727.1983276367188
Q 635.9687622070313 728.4613525390624 636.8431640625 729.7243774414063 637.8204144001007 730.9684266090393 638.786279296875 731.3760253906249 638.8333391189575 731.4052480220795 638.8834350585938 731.4246032714844
L 638.9805908203126 731.4731811523437 647.6274536132813 736.5252807617188
Q 649.3762573242187 737.2053710937499 653.3596435546875 735.4565673828125 655.4970703125001 734.5821655273438 658.8489440917969 733.0276733398438 684.3720663070679 720.2892626285553 710.0014526367187 705.726904296875
L 718.9397827148438 700.6748046874999 724.8662841796876 696.8857299804687
M 700.2858764648437 676.9687988281249
Q 698.6342285156251 679.2033813476563 699.0228515625 681.1464965820313 699.5086303710938 682.7009887695311 699.8972534179687 683.2839233398437 700.4801879882813 683.8668579101562 701.8889465332032 684.35263671875
L 928.9419616699221 790.0581054687499 929.9620971679689 790.5438842773436
Q 932.6312240123749 791.9393598079681 936.4715332031252 791.6125976562499
L 966.104040527344 779.565283203125 764.2143676757813 649.9594970703125
M 645.9758056640625 720.5917358398436
Q 647.6274536132813 720.0088012695313 649.2791015624999 720.3974243164063 650.3478149414062 720.5917358398436 652.4852416992188 721.5632934570311
M 647.4331420898437 733.2219848632811
Q 650.5421264648438 734.5821655273438 650.2506591796874 731.2788696289061 649.9591918945313 727.9755737304687 647.4331420898437 726.6153930664062
L 643.5469116210937 724.3808105468751
M 916.5546020507815 439.131494140625
Q 920.6241381168367 439.9649084091186 935.4028198242187 432.91352539062495 950.1704956054688 425.8211547851562 968.4357788085937 414.3567749023438 978.9384684562684 407.70502085685723 987.7697753906251 401.3864807128906
L 1010.6985351562499 283.34223022460935
M 987.7697753906251 401.3864807128906
Q 991.201347255707 398.9655564785004 994.3763671875 396.5772705078125 997.0360061645507 394.5882339954376 999.3313110351561 392.7881958007812
L 1019.636865234375 287.27703857421875
M 999.3313110351561 392.7881958007812
Q 1007.0328027248385 386.67876825332644 1010.6985351562499 382.48968505859375
L 1028.2837280273438 291.11469116210935
M 1011.7672485351565 400.1720336914062
Q 1004.8691894531249 417.56291503906243 992.3360961914065 431.5533447265625
L 877.3036743164063 544.3511840820312
Q 877.2793853759764 544.3762320518493 877.255096435547 544.3997619628907 863.380039215088 558.8437117099762 845.9223632812501 568.1543457031249
L 821.439111328125 582.2905090332032 819.9331970214845 583.1649108886719 803.0766723632811 592.8319091796874 739.2453369140625 629.7510986328124
M 819.49599609375 577.7727661132811
Q 828.5314819335937 570.0974609374999 826.8798339843748 553.2895141601563 825.4224975585936 539.2019287109375 818.5244384765625 527.5432373046875 817.3585693359374 525.6972778320313 815.5126098632815 525.0171875 813.5592477321626 524.3067359924315 811.9178466796876 525.162921142578
L 801.2307128906251 531.2351562499999
Q 799.7733764648439 532.1095581054686 799.4819091796877 534.1498291015624
L 799.3847534179687 535.0242309570311 799.4819091796877 535.8986328125001 799.9676879882815 537.4531249999999 800.3563110351562 538.3275268554688 800.4048889160155 538.3275268554688
Q 807.2600628376009 549.8507315158844 808.6145507812499 563.7823364257812 810.2661987304688 580.6874389648436 801.1335571289061 588.3627441406251
M 864.0904907226565 548.9175048828125
Q 867.1023193359375 541.7279785156251 866.3250732421876 532.1095581054686 865.6537117481231 523.9556849002837 862.5359985351562 515.7873901367187 862.5082939624787 515.7437459468841 862.4874206542969 515.6902343749999 861.3211719989778 513.9220754146576 859.4270141601561 513.1641845703124 857.3867431640625 512.3869384765625 855.5407836914061 513.4556518554688
L 840.1901733398437 522.2968261718751
Q 838.5385253906248 523.3655395507811 838.3442138671877 525.6001220703125 838.1499023437501 527.7375488281249 839.3157714843752 529.3891967773437 842.2304443359377 535.8986328125001 843.4934692382814 544.44833984375 844.8536499023436 554.0667602539062 842.9105346679686 559.99326171875
M 808.8574401855468 622.0272155761719
Q 809.4103930950165 622.412422990799 809.2946411132813 623.3388183593751
M 808.8574401855468 622.0272155761719
L 808.8088623046875 621.9786376953124
Q 808.4566726684571 621.7236038208008 807.8373046875 621.6871704101562 802.4937377929688 620.8127685546875 796.2757690429687 621.8814819335938 787.7260620117187 623.3388183593751 785.2971679687499 623.6302856445312 786.6823966026305 624.3468093872069 788.40615234375 625.4762451171874 789.3777099609375 626.0591796875 792.2923828125 629.3624755859374 793.846875 631.2084350585936 797.3444824218751 630.1397216796876 802.007958984375 628.7795410156249 803.0766723632811 628.3909179687499 806.768591308594 627.0307373046875 808.0316162109376 625.5734008789062 809.1003295898437 624.6989990234375 809.2946411132813 623.3388183593751
M 781.9938720703126 658.8006713867188
L 800.3563110351562 645.3931762695312
Q 806.9629028320311 640.5353881835937 811.0434448242187 634.1231079101561 816.5593113899232 625.1236759662628 808.8574401855468 622.0272155761719
M 785.2971679687499 623.6302856445312
Q 784.3996157169341 623.2143375396728 783.6455200195312 622.9501953124999 781.5824781417847 622.2325330257416 778.690576171875 622.17294921875 770.6266479492189 623.3388183593751 763.4371215820312 626.7392700195313 755.5451135158538 629.9207417011261 746.6777526855468 634.2202636718749
M 778.690576171875 622.17294921875
Q 778.4507228851318 622.17294921875 778.2047973632813 622.17294921875
M 763.2428100585938 650.0566528320313
L 755.373193359375 651.7083007812499 747.98935546875 654.1371948242187 741.5284973144531 657.1004455566407
Q 735.4073048114777 659.9506009101868 729.1411376953125 657.9748474121094 728.9035614967346 657.9141250610352 728.6553588867188 657.8291137695313
M 741.5284973144531 657.1004455566407
L 741.3827636718751 657.1490234375
M 967.3184875488283 286.9369934082031
L 932.1966796875 389.7763671875
M 544.3994567871094 523.9484741210937
L 319.72675781250007 408.81889648437493 299.129736328125 426.0154663085938
Q 298.6439575195312 428.4443603515625 302.0444091796875 430.3874755859375
L 481.19963378906243 557.8558349609374
M 355.3829223632812 809.3921020507813
Q 361.8335336208344 808.9974067687989 367.8188598632813 806.9632080078126 380.5462646484376 803.4656005859375 391.5248657226563 796.4703857421874
L 393.66229248046886 795.110205078125 397.0627441406251 791.5154418945311 398.42292480468757 789.3780151367188
Q 398.9087036132813 788.4064575195313 398.9087036132813 786.94912109375 398.9087036132813 784.9088500976562 397.64567871093743 783.2572021484374 396.285498046875 781.7027099609376 394.3423828125 781.2169311523438
L 392.2049560546876 781.2169311523438
Q 384.91827392578136 781.2169311523438 377.4372802734375 783.1600463867188 369.6659578800201 785.4185383319854 361.84378051757824 786.1232971191406
L 355.3829223632812 809.3921020507813 Z
M 355.3829223632812 809.3921020507813
Q 353.75214772224433 809.4892578124999 352.0796264648437 809.4892578124999 349.1649536132812 809.4892578124999 346.05596923828136 809.1006347656249
L 318.85235595703136 806.1859619140624 311.6628295898437 789.9609497070313
Q 311.5789568424226 788.2808381557464 312.342919921875 787.0462768554688
M 311.6628295898437 789.9609497070313
L 326.8191284179687 770.7241088867187
Q 326.9804221630096 767.1790621280669 328.9565551757813 764.2146728515626
M 326.8191284179687 770.7241088867187
Q 326.8191284179687 771.014058113098 326.8191284179687 771.3070434570312
L 326.8191284179687 772.5700683593749 331.48260498046886 785.9775634765625 354.6056762695313 786.4633422851563
Q 358.23231868743903 786.4633422851563 361.84378051757824 786.1232971191406
M 277.94978027343757 864.1879516601563
Q 277.94978027343757 864.4266664028167 277.94978027343757 864.67373046875
M 331.48260498046886 785.9775634765625
L 318.85235595703136 806.1859619140624
M 485.5716430664062 736.7195922851562
L 485.3773315429688 736.816748046875
M 485.5716430664062 736.7195922851562
L 485.4744873046876 736.7195922851562 485.3773315429688 736.816748046875 482.94843750000007 738.225506591797
Q 481.2261998176574 739.3788517475128 481.4911010742188 741.6745361328125
L 482.3655029296875 744.589208984375 482.6083923339844 746.0465454101562 482.8512817382813 746.9209472656249 482.8512817382813 747.1152587890625 482.94843750000007 747.2124145507813 482.94843750000007 747.3095703124999 483.04559326171886 747.3095703124999 483.04559326171886 747.5038818359375 483.2399047851562 747.5038818359375 483.2399047851562 747.6010375976563 483.337060546875 747.6981933593751 483.5313720703126 747.6981933593751 483.5313720703126 747.7953491210936 483.8228393554688 747.7953491210936 484.4057739257813 747.6496154785156 485.28017578125 747.2124145507813 487.4661804199219 745.8036560058594
Q 489.0597626209259 744.6465157032013 488.5834716796875 742.64609375
L 488.2920043945313 741.1887573242187 487.17471313476574 737.3996826171875 486.83466796875007 736.9139038085938 486.7375122070313 736.816748046875 486.7375122070313 736.7195922851562 486.5432006835937 736.7195922851562 486.4460449218751 736.6224365234374 485.7659545898438 736.6224365234374 485.668798828125 736.7195922851562 485.5716430664062 736.7195922851562 Z
M 484.6000854492187 747.6010375976563
L 484.4057739257813 747.6496154785156
M 474.4958862304687 743.5204956054687
Q 474.8845092773437 743.7148071289063 474.8845092773437 743.8119628906251
L 475.17597656250007 744.1034301757812 476.34184570312493 748.08681640625 476.6333129882813 749.5441528320313
Q 477.1023931503297 751.5145931243895 475.564599609375 752.6531372070311
L 474.20441894531257 753.6246948242186 472.5527709960937 754.4990966796876
Q 472.2768638134004 754.6934082031249 471.8726806640626 754.6934082031249
L 471.678369140625 754.6934082031249 471.5812133789062 754.5962524414061 471.38690185546886 754.5962524414061 471.38690185546886 754.4990966796876 471.28974609375007 754.4990966796876 471.28974609375007 754.4019409179688 471.1925903320313 754.4019409179688 471.1925903320313 754.30478515625 471.0954345703125 754.30478515625 471.0954345703125 754.2076293945312 470.9982788085937 754.2076293945312 470.9982788085937 754.1104736328124 470.9011230468751 754.0133178710938 470.9011230468751 753.8190063476562
Q 470.6882153034211 753.2516318798065 470.7068115234375 752.9446044921875
L 470.7068115234375 752.8474487304687 469.54094238281243 748.5725952148438
Q 469.54094238281243 747.2124145507813 469.8324096679688 746.6294799804688 470.41534423828136 745.3664550781249 471.38690185546886 744.8806762695311
L 472.6499267578125 744.1034301757812 473.5243286132812 743.7148071289063 474.010107421875 743.5204956054687 474.4958862304687 743.5204956054687 Z
M 462.0599487304688 750.3213989257812
L 462.1571044921876 750.3213989257812 462.1571044921876 750.2242431640624 463.0315063476563 750.2242431640624 463.0315063476563 750.3213989257812 463.1286621093751 750.3213989257812 463.1286621093751 750.4185546875 463.2258178710937 750.4185546875 463.3229736328125 750.5157104492188 463.3229736328125 750.6128662109376 463.4201293945313 750.6128662109376 463.4201293945313 750.7100219726561 463.51728515625007 750.7100219726561 463.51728515625007 750.8071777343749 463.56586303710935 750.952911376953 464.68315429687493 754.7905639648437 464.9746215820313 756.247900390625
Q 465.451292037964 758.1545822143554 463.9544860839843 759.4054626464844 463.9351308345796 759.4305106163025 463.905908203125 759.4540405273436
L 462.64288330078136 760.3284423828126 460.8940795898437 761.2028442382813 460.9912353515625 761.2028442382813 460.79692382812493 761.3000000000001 460.60261230468757 761.3000000000001 460.5054565429688 761.3971557617186 460.2139892578126 761.3971557617186 460.1168334960938 761.3971557617186 460.019677734375 761.3971557617186 459.9225219726562 761.3000000000001 459.82536621093743 761.3000000000001 459.72821044921886 761.3000000000001 459.72821044921886 761.2028442382813 459.63105468750007 761.2028442382813
Q 459.2424316406251 760.8142211914063 458.99954223632824 759.4540405273436
L 458.75665283203136 758.191015625 457.88225097656243 755.2763427734375
Q 457.70274052619936 752.9427069187165 459.4367431640625 751.7787353515624 459.5726094245912 751.6732302665711 459.72821044921886 751.5844238281251
L 460.9912353515625 750.8071777343749 461.8656372070312 750.4185546875 461.96279296875 750.3699768066407 461.96279296875 750.3213989257812 462.0599487304688 750.3213989257812 Z
M 462.0599487304688 750.3213989257812
L 461.96279296875 750.3699768066407 461.96279296875 750.4185546875 461.8656372070312 750.4185546875
M 463.51728515625007 750.8071777343749
L 463.51728515625007 750.9043334960937 463.56586303710935 750.952911376953
M 448.16667480468743 758.2881713867188
Q 447.19511718749993 758.9682617187499 446.6121826171876 760.0369750976562 446.3207153320312 760.5227539062499 446.3207153320312 761.9800903320312
L 447.19511718749993 764.8947631835937 447.4380065917968 766.1577880859376 447.5837402343751 766.7407226562499 447.5837402343751 767.0321899414063 447.6808959960937 767.1293457031251
Q 447.7780517578125 767.6151245117188 447.97236328125007 767.8094360351562
L 448.2638305664062 768.0037475585938 448.6524536132812 768.1009033203126 448.749609375 768.1009033203126 448.8467651367188 768.0037475585938 449.13823242187493 768.0037475585938 449.2353881835937 767.906591796875 449.3325439453125 767.906591796875 450.10979003906243 767.51796875 452.3929504394531 766.109210205078
Q 453.0347097873688 765.6378529548646 453.3159301757813 764.7004516601563 453.7045532226563 763.7288940429688 453.4130859375001 762.9516479492187
L 453.1216186523437 761.3971557617186 451.95574951171886 757.5109252929686 451.85859375000007 757.5109252929686 451.85859375000007 757.3166137695313 451.6642822265625 757.1223022460937 451.5671264648437 757.1223022460937 451.5671264648437 757.0251464843749 451.4699707031251 757.0251464843749 451.3728149414063 756.9279907226563 451.2756591796875 756.9279907226563 451.1785034179687 756.8308349609375 450.88703613281257 756.8308349609375 449.4296997070313 757.5109252929686 448.16667480468743 758.2881713867188 Z
M 460.8940795898437 761.2028442382813
L 460.79692382812493 761.3000000000001
M 459.0481201171875 759.6483520507812
L 458.99954223632824 759.4540405273436
M 429.1241455078126 801.1338623046876
Q 437.8681640625001 793.4585571289061 435.34211425781257 776.9420776367186 433.2046875 763.1459594726563 425.72369384765636 752.361669921875 424.75213623046886 750.8071777343749 423.0033325195312 750.1270874023438 421.157373046875 749.4469970703125 419.602880859375 750.4185546875
L 406.0982299804688 758.191015625
Q 404.5437377929687 759.1625732421875 404.44658203124993 761.1056884765625 404.34942626953136 762.9516479492187 405.32098388671886 764.5061401367187 412.7048217773437 775.0961181640624 414.8422485351563 788.892236328125 417.3682983398438 805.5058715820313 408.6242797851563 812.9868652343749"/>

<path id="Layer0_20_MEMBER_0_MEMBER_1_1_STROKES" stroke="#2D2C2E" stroke-width="0.55" stroke-linejoin="miter" stroke-linecap="butt" stroke-miterlimit="5" fill="none" d="
M 555.4266357421876 706.6013061523437
L 556.3010375976563 706.2126831054687 558.4870422363282 704.9010803222656 558.5356201171875 704.8525024414063
Q 560.0806244373322 703.4623401165007 559.507177734375 701.6463623046874
L 559.2157104492188 700.1890258789061 558.0984191894532 696.3999511718749 557.8555297851564 695.9141723632812 557.7583740234376 695.9141723632812 557.7583740234376 695.8170166015624 557.6612182617188 695.8170166015624 557.5640625 695.7198608398438 557.3697509765626 695.7198608398438
Q 557.175439453125 695.5255493164062 556.8839721679689 695.622705078125
L 556.7868164062501 695.7198608398438 556.4953491210937 695.7198608398438 556.3981933593751 695.8170166015624 555.5237915039062 696.2056396484376 554.1636108398437 697.1286193847656
Q 552.2250497817994 698.1161166191101 552.4148071289063 700.7719604492187
L 553.289208984375 703.6866333007812 553.5320983886719 704.8525024414063 553.7749877929688 706.0183715820311 554.1636108398437 706.6013061523437 554.2607666015625 706.6984619140625 554.3579223632813 706.6984619140625 554.4550781250001 706.7956176757813 555.1351684570312 706.7956176757813 555.1351684570312 706.6984619140625 555.3294799804688 706.6984619140625 555.4266357421876 706.6013061523437 Z
M 555.4266357421876 706.6013061523437
L 555.5237915039062 706.6013061523437 555.3294799804688 706.6984619140625
M 708.3498046875001 610.6114135742188
Q 708.1554931640625 607.8910522460936 710.1957641601563 606.9194946289061
L 712.3331909179689 605.7536254882813 712.9161254882812 605.5593139648437
Q 713.1104370117188 605.3650024414063 713.4019042968749 605.5593139648437
L 713.7905273437501 605.8507812500001 713.9848388671875 606.1908264160155 715.1507080078126 610.125634765625 715.4421752929687 611.5829711914063
Q 715.9279541015625 613.5260864257813 714.3734619140624 614.7891113281249
M 612.1656005859376 671.2366088867187
L 611.0968872070313 666.864599609375
Q 610.8054199218751 664.3385498046874 612.9428466796875 663.1726806640626
M 617.0233886718751 671.0422973632811
Q 618.6750366210937 669.7792724609375 618.1892578124999 667.8361572265625
L 617.8977905273438 666.3788208007812 616.7319213867187 662.3954345703124
M 603.3244262695313 668.7105590820312
L 603.5187377929689 668.7105590820312 603.5187377929689 668.6134033203124 604.198828125 668.6134033203124 604.5874511718749 668.9048706054688 604.6846069335937 669.0020263671876 604.6846069335937 669.0991821289061 604.7817626953125 669.1963378906249 604.8303405761718 669.2934936523437 606.0447875976562 673.1797241210937 606.2390991210938 674.637060546875
Q 606.8038169860839 676.4249542713166 605.2675415039063 677.8432006835936
L 602.1585571289062 679.6891601562501 602.255712890625 679.5920043945313
Q 601.9642456054688 679.7863159179686 601.5756225585939 679.7863159179686
L 601.1869995117187 679.7863159179686 601.0898437500001 679.6891601562501 600.9926879882813 679.6891601562501 600.8955322265625 679.5920043945313 600.5069091796876 679.0090698242187 600.2640197753907 677.9403564453124 600.0211303710938 676.6773315429688 599.1467285156251 673.7626586914063
Q 599.1467285156251 672.305322265625 599.4381958007813 671.7223876953125 599.9197999477386 670.839636516571 600.6526428222656 670.216473388672
L 603.1301147460937 668.80771484375 603.3244262695313 668.7105590820312 Z
M 603.3244262695313 668.7105590820312
L 603.2272705078125 668.80771484375 603.1301147460937 668.80771484375
M 604.7817626953125 669.1963378906249
L 604.7817626953125 669.2934936523437 604.8303405761718 669.2934936523437
M 580.5899780273438 682.3123657226562
Q 580.3956665039062 682.1180541992188 580.1041992187501 682.2152099609374
L 580.0070434570313 682.3123657226562 579.7155761718751 682.3123657226562 579.6184204101563 682.409521484375 579.5212646484375 682.409521484375 577.4324157714844 683.6239685058594
Q 575.2464111328126 684.7412597656249 575.6350341796875 687.3644653320313
L 576.5094360351562 690.2791381835938 576.7523254394531 691.5421630859374 576.8009033203126 692.12509765625 576.99521484375 692.6108764648437
Q 577.0923706054688 692.9994995117187 577.3838378906249 693.1938110351563
L 577.3838378906249 693.2909667968751 577.5781494140625 693.2909667968751 577.5781494140625 693.3881225585936 577.9667724609375 693.3881225585936 578.7440185546876 693.1938110351563 580.2985107421874 692.4165649414061 581.6586914062501 691.4450073242186
Q 583.1964849472046 690.3034271240234 582.7274047851562 688.2388671875
L 582.4359375 686.7815307617187 581.2700683593749 682.7981445312499
M 579.5212646484375 682.409521484375
L 579.7155761718751 682.3123657226562
M 591.4714233398437 675.6086181640625
L 589.3339965820313 676.7744873046876
Q 587.1965698242187 677.8432006835936 587.5851928710937 680.46640625
L 588.65390625 684.8384155273437
Q 588.7081768512727 685.7670879840852 589.2368408203125 686.295751953125
L 589.6254638671875 686.4900634765626 589.9169311523439 686.4900634765626
Q 590.1696879386901 686.6585680007935 590.4998657226562 686.3929077148438
L 592.2486694335938 685.5185058593751 593.6088500976563 684.5469482421876
Q 595.1443665504456 683.2209239006041 594.5804077148438 681.3408081054687
L 594.3860961914062 679.8834716796874 593.1230712890625 675.9972412109374 593.1230712890625 675.9000854492186 593.0259155273437 675.8029296875001 593.0259155273437 675.7057739257813 592.9287597656249 675.7057739257813 592.8316040039064 675.6086181640625 592.8316040039064 675.5114624023437 592.7344482421876 675.5114624023437 592.7344482421876 675.4143066406249 592.54013671875 675.4143066406249 592.4429809570312 675.3171508789063 591.9572021484374 675.3171508789063 591.8600463867189 675.4143066406249 591.7628906250001 675.4143066406249 591.6657348632813 675.5114624023437 591.4714233398437 675.6086181640625 Z
M 591.4714233398437 675.6086181640625
L 591.5685791015625 675.5114624023437 591.6657348632813 675.5114624023437
M 569.5142211914064 689.4047363281251
L 569.5142211914064 689.5018920898436 569.6113769531249 689.5990478515624 570.77724609375 693.4852783203124 571.0687133789062 694.9426147460937
Q 571.6421600818634 696.8546097755433 570.0000000000001 698.1487548828126
L 569.9514221191406 698.1973327636719 568.6398193359374 699.1203125000001 567.0853271484376 699.89755859375 566.9881713867188 699.9461364746093 566.4052368164063 700.0918701171876
Q 565.9194580078125 700.2861816406249 565.7251464843749 699.89755859375 565.1919283390044 699.4531468868255 565.1422119140626 698.4402221679687
L 564.8507446289062 696.9828857421875 563.9763427734375 694.068212890625
Q 563.9763427734375 692.8051879882813 564.2678100585937 692.0279418945312 564.8219015121459 691.078016614914 565.5308349609376 690.5706054687499
L 565.8708801269532 690.3762939453126 567.9597290039063 689.1132690429687
Q 568.7369750976562 688.8218017578125 569.0284423828126 689.0161132812499
L 569.1255981445312 689.0161132812499 569.1255981445312 689.1132690429687 569.3199096679688 689.1132690429687 569.3199096679688 689.2104248046875 569.5142211914064 689.4047363281251 Z
M 1011.7672485351565 400.1720336914062
Q 1013.4188964843748 397.7431396484375 1013.4188964843748 394.24553222656243 1013.4188964843748 388.31903076171875 1008.7554199218749 385.0157348632812
M 797.3444824218751 562.1306884765626
L 796.17861328125 558.2444580078126 795.9843017578124 558.050146484375 795.9843017578124 557.9529907226562 795.8871459960939 557.9529907226562 795.8871459960939 557.8558349609374 795.789990234375 557.7586791992188 795.6928344726563 557.7586791992188 795.5956787109376 557.6615234375 795.4013671875001 557.6615234375 795.3042114257812 557.5643676757812 795.0127441406249 557.5643676757812 794.9155883789064 557.6615234375 794.7212768554688 557.6615234375 794.6241210937501 557.7586791992188 794.4298095703126 557.7586791992188 792.2923828125 559.0217041015625
Q 792.1420949935914 559.116582775116 792.0009155273439 559.2160156250001 790.4464233398437 560.3932702064513 790.4464233398437 562.7136230468749
L 791.3208251953125 565.6282958984374 791.5637145996094 566.8913208007813 791.8066040039063 567.9600341796876
Q 791.903759765625 568.3486572265625 792.0980712890624 568.3486572265625
L 792.0980712890624 568.4458129882813 792.1952270507813 568.5429687499999 792.3895385742187 568.6401245117187 792.3895385742187 568.7372802734375 792.5838500976562 568.7372802734375
Q 792.7781616210938 568.7372802734375 792.8753173828125 568.8344360351563
L 793.5554077148437 568.5429687499999 793.4582519531251 568.6401245117187 795.2070556640625 567.76572265625 796.5672363281251 566.7941650390625
Q 798.105788898468 565.4711768150329 797.6359497070313 563.6851806640624
L 797.3444824218751 562.1306884765626 Z
M 782.9654296875001 564.4624267578125
L 783.0625854492188 564.3652709960937 784.0341430664063 564.3652709960937 784.0341430664063 564.4624267578125 784.131298828125 564.4624267578125 784.131298828125 564.5595825195313 784.2284545898439 564.5595825195313 784.2284545898439 564.6567382812499 784.3256103515624 564.6567382812499 784.3256103515624 564.7538940429687 784.4227661132813 564.8510498046875 784.4227661132813 564.9482055664063 784.519921875 564.9482055664063 785.6857910156251 568.9315917968751 785.9772583007813 570.3889282226563
Q 786.6573486328126 572.3320434570313 784.8113891601562 573.595068359375
L 783.5483642578125 574.4694702148437 781.7995605468751 575.3924499511719 781.7024047851562 575.4410278320312
Q 780.1365271568299 576.0660885334015 779.9050231933594 573.595068359375
L 779.6621337890625 572.3320434570313 778.7877319335937 569.4173706054688
Q 778.5934204101563 566.6970092773437 780.63369140625 565.7254516601562
L 782.7711181640626 564.5595825195313 782.8682739257812 564.4624267578125 782.9654296875001 564.4624267578125 Z
M 782.9654296875001 564.4624267578125
L 782.7711181640626 564.5595825195313
M 769.8494018554688 582.3390869140625
L 769.9465576171875 582.1447753906249
Q 769.0721557617187 582.6305541992186 768.5863769531251 582.0476196289063 768.1005981445313 581.4646850585938 768.0520202636718 580.4931274414063
L 767.8091308593749 579.2301025390624 766.9347290039062 576.3154296874999
Q 766.8451635360717 573.9882455825806 768.4892211914063 572.8178222656251 768.6277440547943 572.7153532981873 768.7806884765624 572.6235107421875
L 770.918115234375 571.3604858398438
Q 771.6953613281249 571.0690185546874 771.8896728515625 571.263330078125 772.0839843750001 571.263330078125 772.3754516601563 571.5547973632812 772.5697631835939 571.8462646484376 772.6183410644531 572.0405761718749
L 773.7356323242188 575.8296508789061 774.0270996093751 577.2869873046874
Q 774.6100341796874 579.1329467773438 772.9583862304687 580.4931274414063
M 760.4252929687501 578.3557006835937
Q 760.6196044921875 578.3557006835937 760.9110717773439 578.6471679687501 761.1053833007812 578.9386352539062 761.1539611816407 579.1329467773438
L 762.2712524414063 582.922021484375 762.5627197265625 584.3793579101563
Q 763.2321836471557 586.2921119689942 761.4940063476562 587.5854980468749
L 761.4454284667969 587.6340759277344 758.3850219726563 589.3828796386719 757.8020874023438 589.5286132812499 757.5106201171876 589.5286132812499 757.4134643554688 589.4314575195311 757.31630859375 589.4314575195311 757.2191528320312 589.3343017578126
Q 756.7720845222474 588.8872334480285 756.5390625000001 587.7798095703125
L 756.4904846191406 587.5854980468749 756.3447509765625 586.3224731445313 755.373193359375 583.4078002929688
Q 755.373193359375 581.1591757297516 756.9276855468751 580.0073486328125
L 757.3648864746093 579.7644592285156 759.3565795898438 578.5500122070313 759.9395141601564 578.3557006835937 760.4252929687501 578.3557006835937 Z
M 768.1005981445313 580.6874389648436
L 768.0520202636718 580.4931274414063
M 769.9465576171875 582.2419311523437
L 770.8209594726563 581.8533081054687 771.5982055664064 581.367529296875 772.9583862304687 580.3959716796875
M 745.6090393066407 586.4682067871094
L 745.2689941406251 586.7110961914062
M 745.6090393066407 586.4682067871094
Q 743.5201904296874 587.5854980468749 743.714501953125 590.2087036132813
L 744.6860595703125 593.1233764648438 744.9775268554687 594.580712890625
Q 745.0424238681793 595.6926909446717 745.5604614257812 596.0380493164063 745.7547729492188 596.2323608398436 746.1433959960938 596.2323608398436
L 746.4348632812499 596.2323608398436 746.5320190429687 596.1352050781251 746.7263305664063 596.1352050781251 746.8234863281251 596.0380493164063 746.9206420898437 596.0380493164063 749.7867370605469 594.3378234863281
Q 751.486962890625 593.2205322265626 750.9040283203125 591.08310546875
L 750.6125610351563 589.6257690429687 749.1552246093751 585.3509155273438 748.9609130859375 585.1566040039062 748.7666015625001 585.1566040039062 748.6694458007813 585.0594482421874 748.1836669921876 585.0594482421874 748.1836669921876 585.1566040039062 747.8921997070312 585.1566040039062 747.7950439453126 585.253759765625 747.6978881835938 585.253759765625 746.9206420898437 585.7395385742187 746.1433959960938 586.1281616210937 745.6090393066407 586.4682067871094 Z
M 747.8921997070312 585.1566040039062
L 747.6978881835938 585.253759765625
M 746.7263305664063 596.1352050781251
L 746.9206420898437 596.0380493164063
M 736.9135986328125 591.9575073242187
L 736.3306640625 591.9575073242187 734.9704833984375 592.5404418945312 733.7560363769531 593.3662658691406
Q 731.4728759765625 594.3864013671874 731.8614990234374 597.0096069335938
L 732.9787902832032 601.1873046874999 733.1245239257813 601.7702392578125 733.1245239257813 602.1588623046874 733.2216796875001 602.2560180664062 733.2216796875001 602.353173828125 733.4159912109375 602.741796875 733.5131469726563 602.741796875 733.5131469726563 602.9361083984376 733.6103027343751 602.9361083984376 733.7074584960939 603.0332641601561 733.8046142578124 603.0332641601561 733.9017700195312 603.1304199218749 734.2903930664062 603.1304199218749
Q 734.5571918964387 603.1304199218749 734.7761718749999 603.0332641601561
L 734.8733276367187 602.9846862792969 734.9704833984375 602.9361083984376 737.88515625 601.1873046874999
Q 739.5368041992189 599.8271240234375 738.9538696289063 597.9811645507813
L 738.6624023437499 596.523828125 737.4965332031251 592.5404418945312
M 723.2146362304687 609.6884338378906
L 723.3117919921875 609.6398559570313 726.2750427246093 607.9396301269531 726.3236206054688 607.8910522460936
Q 727.8686249256135 606.5008899211883 727.2951782226563 604.684912109375
L 727.0037109374999 603.2275756835937 725.8378417968751 599.2441894531249 725.6435302734375 599.0498779296876 725.6435302734375 598.9527221679688 725.5463745117187 598.9527221679688 725.5463745117187 598.85556640625 725.4492187500001 598.85556640625 725.3520629882813 598.7584106445312 725.2549072265625 598.7584106445312
Q 724.8662841796876 598.5640991210938 724.7691284179688 598.6612548828124
L 724.67197265625 598.6612548828124 724.5748168945312 598.7584106445312 724.3805053710938 598.7584106445312 724.283349609375 598.85556640625 724.1861938476562 598.85556640625 722.5345458984376 599.7299682617187 721.9516113281251 600.1671691894531
Q 720.0130502700805 601.1546664237975 720.2028076171874 603.8105102539063
L 721.3200988769532 607.8910522460936 721.5629882812501 609.0569213867187 721.7572998046875 609.4455444335937 721.8544555664063 609.4455444335937 721.8544555664063 609.5427001953125 721.9516113281251 609.6398559570313
Q 722.6317016601562 610.125634765625 723.3117919921875 609.6398559570313
M 724.3805053710938 598.7584106445312
L 724.1861938476562 598.85556640625"/>

<path id="Layer0_20_MEMBER_0_MEMBER_2_1_STROKES" stroke="#2D2C2E" stroke-width="0.55" stroke-linejoin="miter" stroke-linecap="butt" stroke-miterlimit="5" fill="none" d="
M 844.5621826171874 561.6449096679688
Q 843.7849365234375 561.8392211914062 843.2991577148438 561.2562866210936 842.81337890625 560.7705078124999 842.9105346679686 559.99326171875"/>

<path id="Layer0_20_MEMBER_0_MEMBER_3_1_STROKES" stroke="#2D2C2E" stroke-width="0.55" stroke-linejoin="miter" stroke-linecap="butt" stroke-miterlimit="5" fill="none" d="
M 862.4388427734376 551.2492431640625
L 863.118933105469 550.5691528320311 863.7018676757813 549.7919067382812 864.0904907226565 548.9175048828125"/>

<path id="Layer0_20_MEMBER_0_MEMBER_4_1_STROKES" stroke="#2D2C2E" stroke-width="0.55" stroke-linejoin="miter" stroke-linecap="butt" stroke-miterlimit="5" fill="none" d="
M 819.49599609375 577.7727661132811
L 802.1051147460936 587.7798095703125"/>

<path id="Layer0_20_MEMBER_0_MEMBER_5_1_STROKES" stroke="#2D2C2E" stroke-width="0.55" stroke-linejoin="miter" stroke-linecap="butt" stroke-miterlimit="5" fill="none" d="
M 862.4388427734376 551.2492431640625
L 844.5621826171874 561.6449096679688"/>

<path id="Layer0_20_MEMBER_0_MEMBER_6_1_STROKES" stroke="#2D2C2E" stroke-width="0.55" stroke-linejoin="miter" stroke-linecap="butt" stroke-miterlimit="5" fill="none" d="
M 429.1241455078126 801.1338623046876
L 409.8873046875 812.3067749023438"/>

<path id="Layer0_20_MEMBER_0_MEMBER_7_1_STROKES" stroke="#2D2C2E" stroke-width="0.25" stroke-linejoin="miter" stroke-linecap="butt" stroke-miterlimit="5" fill="none" d="
M 447.5837402343751 729.4329101562499
L 457.2993164062501 723.8950317382813
M 463.3229736328125 720.3002685546875
L 473.0385498046875 714.7623901367186
M 494.995751953125 702.1321411132811
L 504.711328125 696.5942626953125
M 510.7349853515626 692.9994995117187
L 520.4505615234376 687.4616210937501
M 526.47421875 683.964013671875
L 536.189794921875 678.3289794921874
M 542.3106079101564 674.8313720703126
L 552.0261840820314 669.1963378906249
M 479.15936279296886 711.2647827148438
L 488.87493896484386 705.6297485351562
M 652.776708984375 611.0971923828125
L 662.49228515625 605.4621582031249
M 668.5159423828126 601.9645507812501
L 678.2315185546876 596.3295166015624
M 684.3523315429687 592.8319091796874
L 694.0679077148437 587.196875
M 700.0915649414063 583.7964233398437
L 709.8071411132813 578.1613891601563
M 605.3646972656251 638.3979614257813
L 615.1774291992189 632.7629272460937
M 621.2010864257812 629.2653198242186
L 630.9166625976562 623.6302856445312
M 572.720361328125 718.5514648437501
L 582.4359375 713.0135864257812
M 588.4595947265626 709.5159790039062
L 598.0780151367188 703.8809448242188
M 604.198828125 700.4804931640625
L 613.914404296875 694.8454589843749
M 619.9380615234376 691.3478515625001
L 629.5564819335938 685.8099731445312
M 573.8862304687501 656.5660888671874
L 583.6018066406251 651.0282104492188
M 589.6254638671875 647.5306030273438
L 599.3410400390625 641.8955688476561
M 651.4165283203125 673.1797241210937
L 661.0349487304687 667.6418457031249
M 667.0586059570313 664.1442382812501
L 676.7741821289063 658.5092041015624
M 682.7978393554687 655.1087524414062
L 692.5134155273437 649.4737182617188
M 698.5370727539063 645.9761108398437
L 708.2526489257813 640.4382324218749
M 635.6772949218749 682.3123657226562
L 645.2957153320314 676.6773315429688
M 637.0374755859376 620.229833984375
L 646.7530517578126 614.5947998046876
M 557.0782836914062 727.6841064453125
L 566.6967041015624 722.0490722656249
M 558.0498413085937 665.6987304687499
L 567.7654174804687 660.1608520507813
M 887.505029296875 486.8349731445313
L 884.1045776367188 481.1027832031249 880.8012817382811 476.82792968749993
M 890.9054809570313 518.79921875
L 891.6827270507812 517.2447265625 892.4599731445311 514.91298828125 892.8485961914063 513.0670288085938
M 887.3107177734374 522.5882934570312
L 890.6140136718751 519.3821533203126 886.2420043945314 516.856103515625
M 876.2349609375002 532.9839599609376
L 883.0358642578127 526.5716796875
M 893.1400634765624 505.58603515625
L 892.3628173828125 500.3396240234375 890.5168579101561 493.8301879882812
M 779.0791992187501 538.23037109375
L 788.7947753906251 532.5953369140624
M 863.3132446289061 463.8090576171875
L 862.4388427734376 463.51759033203126 860.1071044921874 463.0318115234375 857.7753662109377 462.9346557617188 856.415185546875 463.0318115234375
M 848.8370361328126 466.9180419921875
L 847.1853881835938 469.1526245117187 845.630895996094 473.0388549804687
M 846.2138305664063 490.7212036132813
L 846.3109863281248 491.4984497070312 847.3311218261721 494.461700439453 847.4768554687499 494.4131225585937 851.9460205078127 497.03632812500007
M 844.756494140625 483.0458984374999
L 845.2422729492188 486.54350585937493
M 875.6520263671874 471.29005126953126
L 875.0690917968751 470.7071166992188 870.891394042969 467.50097656249994
M 810.654821777344 519.9650878906249
L 815.5126098632815 517.1475708007812 815.5126098632815 514.8158325195312
M 815.5126098632815 509.472265625
L 815.5126098632815 511.80400390624993
M 815.5126098632815 509.472265625
L 820.4675537109375 507.14052734375
M 820.9533325195313 512.5812500000001
L 815.5126098632815 509.472265625
M 826.5883666992187 504.2258544921875
L 836.4010986328127 499.6595336914062
M 847.3311218261721 494.461700439453
L 842.5219116210939 496.7448608398437
M 866.3250732421876 505.2945678710938
L 857.3867431640625 500.2424682617187
M 856.3180297851565 533.0811157226561
L 845.4365844726564 526.7659912109374
M 863.2160888671875 536.9673461914061
L 868.5596557617188 540.173486328125 871.960107421875 536.9673461914061
M 838.6356811523439 522.8797607421874
L 827.7542358398438 516.5646362304686
M 794.8184326171875 529.0977294921876
L 804.5340087890623 523.4626953124999
M 866.9080078124999 548.9175048828125
L 867.3937866210937 548.6260375976561
M 868.073876953125 548.1402587890624
L 868.5596557617188 547.8487915039062 868.5596557617188 545.5170532226563
M 826.5883666992187 572.1377319335937
L 830.7660644531248 569.708837890625
M 836.1096313476561 566.5998535156249
L 840.3844848632813 564.1709594726561
M 730.0155395507812 627.9051391601562
L 739.6339599609374 622.2701049804688
M 745.6576171875 618.7724975585937
L 755.373193359375 613.2346191406249
M 761.3968505859376 609.7370117187501
L 771.1124267578126 604.1019775390624
M 777.1360839843751 600.7015258789062
L 786.8516601562501 595.0664916992188
M 731.6671875000001 565.5311401367188
L 741.3827636718751 559.8961059570312
M 747.5035766601562 556.3984985351561
L 757.2191528320312 550.8606201171875
M 792.8753173828125 591.5688842773437
L 797.6359497070313 588.8485229492188
M 868.5596557617188 542.505224609375
L 868.5596557617188 540.173486328125
M 880.7041259765625 513.6499633789061
L 871.8629516601565 508.5007080078125
M 763.2428100585938 547.2658569335937
L 772.9583862304687 541.7279785156251
M 714.1791503906251 636.9406250000001
L 723.8947265625001 631.3055908203124
M 715.9279541015625 574.6637817382813
L 725.6435302734375 569.0287475585936
M 368.69326171875 774.9989624023436
L 378.408837890625 769.3639282226562
M 384.4324951171876 765.8663208007812
L 394.1480712890626 760.3284423828126
M 351.3023803710938 781.2169311523438
L 345.8616577148438 778.1079467773437 341.7811157226562 781.3140869140624
M 357.71466064453136 781.3140869140624
L 362.57244873046886 778.4965698242187
M 361.50373535156257 828.3374755859376
L 352.0796264648437 830.7663696289063
M 328.1793090820312 791.8069091796875
L 336.5347045898437 785.2974731445312
M 376.3685668945312 822.9939086914063
L 368.2074829101563 826.3943603515626 367.33308105468757 826.5886718749999
M 399.0058593750001 811.9181518554686
L 399.0058593750001 808.8091674804688 395.2167846679687 811.8209960937501
M 401.33759765625007 817.4560302734375
L 399.0058593750001 818.8162109374999 399.0058593750001 815.7072265625001
M 399.0058593750001 808.8091674804688
L 393.56513671875007 805.6030273437499
M 390.3589965820312 815.5129150390625
L 381.90644531250007 820.370703125
M 386.76423339843757 801.7167968749999
L 375.8827880859375 795.4016723632811
M 369.081884765625 791.4182861328126
L 358.2004394531251 785.2003173828124
M 312.6343872070312 815.1242919921875
L 307.3879760742187 811.8209960937501 311.07989501953136 808.1290771484374
M 315.7433715820313 803.4656005859375
L 323.2243652343751 795.9846069335937
M 346.05596923828136 831.8350830078124
L 341.29533691406243 832.7094848632813 336.04892578125 829.5033447265624
M 329.53948974609386 825.5199584960936
L 319.1438232421875 819.1076782226563
M 494.1213500976563 763.9232055664062
L 503.8369262695313 758.2881713867188
M 509.8605834960937 754.8877197265625
L 519.5761596679687 749.2526855468749
M 525.5998168945313 745.7550781250001
L 535.3153930664063 740.2171997070312
M 436.1193603515625 797.4419433593749
L 440.9771484375 794.6244262695312
M 447.00080566406257 791.1268188476562
L 456.6192260742188 785.5889404296876
M 462.64288330078136 782.0913330078125
L 472.35845947265636 776.4562988281249
M 404.25227050781257 815.8043823242186
L 406.5840087890625 814.4442016601562
M 416.00811767578136 747.6981933593751
L 425.72369384765636 742.0631591796874
M 478.4792724609375 773.0558471679686
L 488.0976928710937 767.4208129882812
M 541.3390502929689 736.7195922851562
L 551.0546264648439 731.0845581054688
M 400.2688842773438 756.8308349609375
L 409.9844604492188 751.1958007812499
M 431.8445068359375 738.5655517578124
L 441.5600830078125 732.930517578125"/>

<path id="Layer0_20_MEMBER_0_MEMBER_8_1_STROKES" stroke="#2D2C2E" stroke-width="0.5" stroke-linejoin="miter" stroke-linecap="butt" stroke-miterlimit="5" fill="none" d="
M 416.3967407226563 710.6818481445313
Q 415.91096191406257 710.6818481445313 415.8138061523438 710.7790039062501
L 413.384912109375 712.2363403320313
M 415.4251831054688 714.6652343750001
L 416.3967407226563 712.3334960937499 416.88251953125007 711.8477172851561 416.97967529296886 711.2647827148438
M 406.8754760742187 715.9282592773437
L 409.7901489257812 714.2766113281249
M 405.22382812500007 717.6770629882811
L 405.0295166015625 718.2599975585937 404.6408935546875 718.8429321289062 403.5721801757812 721.0775146484374
M 413.96784667968757 719.6201782226561
L 413.6763793945312 723.9921874999999 413.77353515625 725.7409912109375
M 756.4419067382813 514.2328979492187
L 756.3447509765625 514.3300537109375 756.2475952148437 514.3300537109375 756.1504394531249 514.4272094726563 753.818701171875 515.7873901367187
M 755.6646606445312 518.6049072265624
L 756.8305297851563 515.9817016601563 757.2191528320312 515.3987670898438 757.31630859375 515.301611328125
M 754.4016357421875 523.7541625976563
L 754.0130126953126 527.3489257812499
M 745.6576171875 521.2281127929688
L 745.4633056640624 521.8110473632813 744.9775268554687 522.3939819335936 743.714501953125 525.2114990234376
M 742.7429443359375 539.4933959960937
L 743.1315673828125 541.7279785156251
M 742.4514770507814 530.5550659179688
L 742.2571655273438 534.0526733398436
M 754.4987915039063 533.0811157226561
L 754.8874145507813 535.3156982421875
M 747.2121093750001 519.4793090820311
L 750.2239379882814 517.8276611328125
M 758.1907104492187 545.8085205078124
L 759.0651123046874 547.8487915039062 759.1622680664062 548.3345703125 759.1622680664062 549.1118164062499
M 758.1907104492187 550.8606201171875
L 757.8020874023438 551.1520874023437 757.3648864746093 551.3949768066406 755.9561279296876 552.1236450195312
M 743.8116577148438 544.9341186523437
L 744.9775268554687 548.8203491210937
M 746.4348632812499 552.3179565429688
L 747.0177978515625 553.8724487304688 747.2121093750001 554.2610717773438 747.5035766601562 554.6496948242187 747.98935546875 555.1354736328125
M 752.7499877929687 554.0667602539062
L 750.6125610351563 555.3297851562501 749.7381591796876 555.5240966796874
M 755.6646606445312 538.5218383789062
L 756.9276855468751 542.6995361328126
M 374.23114013671886 734.7764770507812
L 378.6031494140626 732.2504272460936
M 382.97515869140636 733.3191406249999
L 384.04387207031243 731.0845581054688 384.4324951171876 730.5016235351562
Q 384.626806640625 730.5016235351562 384.91827392578136 730.1130004882813
M 402.2119995117188 726.0324584960937
L 401.8233764648438 730.4044677734374 401.9205322265626 732.1532714843751
M 381.8092895507813 730.4044677734374
L 384.04387207031243 729.1414428710938
M 381.6149780273437 738.371240234375
L 381.3235107421875 742.64609375 381.4206665039063 744.3948974609374
M 366.750146484375 739.6342651367187
L 366.45867919921886 740.0228881835936 366.2643676757813 740.6058227539062 365.8757446289063 741.1887573242187 364.80703125 743.4233398437499
M 367.7217041015625 738.4683959960938
L 368.1103271484375 738.1769287109374 368.69326171875 737.9826171875001 370.9278442382812 736.7195922851562
M 381.90644531250007 749.1555297851563
L 383.4609375000001 755.4706542968751
M 370.636376953125 774.2217163085937
L 371.025 774.2217163085937 373.35673828124993 772.9586914062501
M 368.40179443359386 773.4444702148438
L 368.1103271484375 773.0558471679686 366.8473022460938 770.1411743164061
M 376.17425537109386 771.3070434570312
L 379.8661743164063 769.1696166992186
M 385.01542968749993 760.0369750976562
L 386.2784545898438 762.9516479492187 386.3756103515626 763.4374267578124 386.3756103515626 763.9232055664062
M 385.4040527343751 765.9634765625
L 385.01542968749993 766.2549438476561 382.68369140625 767.51796875
M 363.44685058593757 748.3782836914062
L 363.1553833007812 752.7502929687499 363.2525390625 754.4990966796876
M 363.7383178710937 759.2597290039063
L 365.2928100585938 765.574853515625
M 417.3682983398438 741.2859130859375
L 418.4370117187501 743.9091186523436 418.6313232421875 744.2977416992188 418.7284790039063 744.7835205078126 418.7284790039063 745.4636108398437
M 409.4015258789062 751.973046875
L 409.7901489257812 751.8758911132812 412.3161987304687 750.5157104492188
M 405.612451171875 747.7953491210936
L 406.6811645507813 750.3213989257812
M 415.6194946289062 748.5725952148438
L 417.7569213867188 747.3095703124999 417.3682983398438 747.6010375976563
M 402.50346679687493 736.9139038085938
L 403.9608032226562 743.2290283203125
M 414.3564697265625 730.5016235351562
L 415.8138061523438 736.7195922851562"/>

<path id="Layer0_20_MEMBER_0_MEMBER_9_1_STROKES" stroke="#2D2C2E" stroke-width="0.5" stroke-linejoin="miter" stroke-linecap="butt" stroke-miterlimit="5" fill="none" d="
M 357.5203491210938 763.9232055664062
L 355.9658569335937 762.8544921874999 355.2857666015626 762.6601806640625
M 359.8520874023437 770.8212646484375
L 361.60089111328136 769.84970703125
M 362.66960449218743 768.5866821289063
L 362.57244873046886 768.5866821289063 362.57244873046886 768.8781494140625 362.47529296875007 768.8781494140625
M 361.9895141601563 767.1293457031251
L 360.53217773437507 765.8663208007812
M 350.3308227539063 763.8260498046874
L 351.98247070312493 762.8544921874999 352.0796264648437 762.8544921874999 352.1767822265625 762.7573364257813 352.4682495117187 762.7573364257813 352.5654052734375 762.6601806640625
M 353.6341186523438 762.5630249023437
L 354.4113647460937 762.5630249023437
M 345.764501953125 766.4492553710937
L 345.8616577148438 766.4492553710937 346.05596923828136 766.2549438476561 346.15312499999993 766.2549438476561 347.8047729492188 765.2833862304686
M 344.6957885742187 767.906591796875
L 344.7929443359375 767.906591796875 344.7929443359375 767.7122802734374 344.8901000976563 767.7122802734374 344.8901000976563 767.51796875 344.98725585937507 767.51796875 344.98725585937507 767.4208129882812 345.08441162109386 767.3236572265624
M 346.5417480468751 770.9184204101563
L 344.8901000976563 769.7525512695312
M 353.0511840820312 774.0274047851561
L 353.536962890625 774.0274047851561 353.536962890625 773.9302490234376 354.0227416992187 773.9302490234376 354.1198974609375 773.8330932617188
M 349.262109375 772.6672241210937
L 350.6222900390625 773.9302490234376 351.59384765625 774.0274047851561
M 355.5772338867188 773.347314453125
L 357.2288818359376 772.3757568359375"/>

<path id="Layer0_20_MEMBER_0_MEMBER_10_1_STROKES" stroke="#2D2C2E" stroke-width="0.5" stroke-linejoin="miter" stroke-linecap="butt" stroke-miterlimit="5" fill="none" d="
M 281.5445434570312 847.4771606445312
Q 287.66535644531257 842.3279052734375 294.9520385742188 852.6264160156251 302.1415649414063 862.8277709960938 297.47808837890636 868.948583984375"/>
</defs>

<g id="S_FUSS" transform="matrix( 0.9999847412109375, 0, 0, 0.9999847412109375, 627.75,643.7) ">
<g transform="matrix( 1, 0, 0, 1, 0,0) ">
<use xlink:href="#aircraft_view_all_svg_Illustrator_Symbole_S_FUSS_0_Layer0_0_MEMBER_0_FILL"/>
</g>
</g>

<g transform="matrix( 1, 0, 0, 1, 200,142.8) ">
<use xlink:href="#Layer0_1_FILL"/>
</g>

<g transform="matrix( 1, 0, 0, 1, 200,142.8) ">
<use xlink:href="#Layer0_2_FILL"/>
</g>

<g transform="matrix( 1, 0, 0, 1, 200,142.8) ">
<use xlink:href="#Layer0_3_FILL"/>
</g>

<g transform="matrix( 1, 0, 0, 1, 200,142.8) ">
<use xlink:href="#Layer0_4_FILL"/>
</g>

<g transform="matrix( 1, 0, 0, 1, 200,142.8) ">
<use xlink:href="#Layer0_5_FILL"/>
</g>

<g transform="matrix( 1, 0, 0, 1, 200,142.8) ">
<use xlink:href="#Layer0_6_FILL"/>
</g>

<g id="S_WING_RH" transform="matrix( 1, 0, 0, 1, 469.65,509) ">
<g transform="matrix( 1, 0, 0, 1, 0,0) ">
<use xlink:href="#aircraft_view_all_svg_Illustrator_Symbole_S_WING_RH_0_Layer0_0_MEMBER_0_FILL"/>
</g>

<g transform="matrix( 1, 0, 0, 1, 0,0) ">
<use xlink:href="#aircraft_view_all_svg_Illustrator_Symbole_S_WING_RH_0_Layer0_0_MEMBER_1_FILL"/>
</g>
</g>

<g id="S_NOSE" transform="matrix( 0.9999847412109375, 0, 0, 0.9999847412109375, 341.8,807.45) ">
<g transform="matrix( 1, 0, 0, 1, 0,0) ">
<use xlink:href="#aircraft_view_all_svg_Illustrator_Symbole_S_NOSE_0_Layer0_0_MEMBER_0_FILL"/>
</g>

<g transform="matrix( 1, 0, 0, 1, 0,0) ">
<use xlink:href="#aircraft_view_all_svg_Illustrator_Symbole_S_NOSE_0_Layer0_0_MEMBER_1_FILL"/>
</g>

<g transform="matrix( 1, 0, 0, 1, 0,0) ">
<use xlink:href="#aircraft_view_all_svg_Illustrator_Symbole_S_NOSE_0_Layer0_0_MEMBER_2_FILL"/>
</g>
</g>

<g id="S_WING_LH" transform="matrix( 0.9999847412109375, 0, 0, 0.9999847412109375, 785.4,691.95) ">
<g transform="matrix( 1, 0, 0, 1, 0,0) ">
<use xlink:href="#aircraft_view_all_svg_Illustrator_Symbole_S_WING_LH_0_Layer0_0_MEMBER_0_FILL"/>
</g>
</g>

<g id="S_ENG_LH" transform="matrix( 0.9999847412109375, 0, 0, 0.9999847412109375, 718.45,679.1) ">
<g transform="matrix( 1, 0, 0, 1, 0,0) ">
<use xlink:href="#aircraft_view_all_svg_Illustrator_Symbole_S_ENG_LH_0_Layer0_0_MEMBER_0_FILL"/>
</g>
</g>

<g id="S_ENG_RH" transform="matrix( 0.9999847412109375, 0, 0, 0.9999847412109375, 522.95,566.15) ">
<g transform="matrix( 1, 0, 0, 1, 0,0) ">
<use xlink:href="#aircraft_view_all_svg_Illustrator_Symbole_S_ENG_RH_0_Layer0_0_MEMBER_0_FILL"/>
</g>
</g>

<g id="S_VERT_STAB" transform="matrix( 1, 0, 0, 1, 855.2,393.9) ">
<g transform="matrix( 1, 0, 0, 1, 0,0) ">
<use xlink:href="#aircraft_view_all_svg_Illustrator_Symbole_S_VERT_STAB_0_Layer0_0_MEMBER_0_FILL"/>
</g>
</g>

<g id="S_HOR_STAB" transform="matrix( 0.9999847412109375, 0, 0, 0.9999847412109375, 1009.45,252.55) ">
<g transform="matrix( 1, 0, 0, 1, 0,0) ">
<use xlink:href="#aircraft_view_all_svg_Illustrator_Symbole_S_HOR_STAB_0_Layer0_0_MEMBER_0_FILL"/>
</g>

<g transform="matrix( 1, 0, 0, 1, 0,0) ">
<use xlink:href="#aircraft_view_all_svg_Illustrator_Symbole_S_HOR_STAB_0_Layer0_0_MEMBER_1_FILL"/>
</g>
</g>

<g id="S_FUS_WING" transform="matrix( 0.9999847412109375, 0, 0, 0.9999847412109375, 620.8,608.55) ">
<g transform="matrix( 1, 0, 0, 1, 0,0) ">
<use xlink:href="#aircraft_view_all_svg_Illustrator_Symbole_S_FUS_WING_0_Layer0_0_MEMBER_0_FILL"/>
</g>
</g>

<g transform="matrix( 1, 0, 0, 1, 34.8,402.75) ">
<clipPath id="Mask_Mask_1">
<rect x="-2" y="-2" width="201.9" height="114.4" fill="#FFFFFF" stroke="none"/>
</clipPath>

<text clip-path="url(#Mask_Mask_1)" writing-mode="lr">

<tspan x="0" y="12" baseline-shift="0%" font-family="Tahoma" font-size="12" fill="#000000" xml:space="preserve">Lower fuselage </tspan><tspan x="0" y="25.7" baseline-shift="0%" font-family="Tahoma" font-size="12" fill="#000000" xml:space="preserve">Upper fuselage </tspan><tspan x="0" y="39.4" baseline-shift="0%" font-family="Tahoma" font-size="12" fill="#000000" xml:space="preserve">Empennage </tspan><tspan x="0" y="53.1" baseline-shift="0%" font-family="Tahoma" font-size="12" fill="#000000" xml:space="preserve">Powerplants and nacelles </tspan><tspan x="0" y="66.8" baseline-shift="0%" font-family="Tahoma" font-size="12" fill="#000000" xml:space="preserve">Left wing</tspan><tspan x="0" y="80.5" baseline-shift="0%" font-family="Tahoma" font-size="12" fill="#000000" xml:space="preserve">Right wing </tspan><tspan x="0" y="94.2" baseline-shift="0%" font-family="Tahoma" font-size="12" fill="#000000" xml:space="preserve">Landing gear and landing gear doors </tspan><tspan x="0" y="107.9" baseline-shift="0%" font-family="Tahoma" font-size="12" fill="#000000" xml:space="preserve">Doors</tspan></text>
</g>

<g transform="matrix( 1, 0, 0, 1, 2,402.75) ">
<clipPath id="Mask_Mask_2">
<rect x="-2" y="-2" width="27.6" height="114.4" fill="#FFFFFF" stroke="none"/>
</clipPath>

<text clip-path="url(#Mask_Mask_2)" writing-mode="lr"><tspan x="0" y="12" baseline-shift="0%" font-family="Tahoma" font-size="12" fill="#000000" xml:space="preserve">100 </tspan><tspan x="0" y="25.7" baseline-shift="0%" font-family="Tahoma" font-size="12" fill="#000000" xml:space="preserve">200 </tspan><tspan x="0" y="39.4" baseline-shift="0%" font-family="Tahoma" font-size="12" fill="#000000" xml:space="preserve">300 </tspan><tspan x="0" y="53.1" baseline-shift="0%" font-family="Tahoma" font-size="12" fill="#000000" xml:space="preserve">400 </tspan><tspan x="0" y="66.8" baseline-shift="0%" font-family="Tahoma" font-size="12" fill="#000000" xml:space="preserve">500 </tspan><tspan x="0" y="80.5" baseline-shift="0%" font-family="Tahoma" font-size="12" fill="#000000" xml:space="preserve">600 </tspan><tspan x="0" y="94.2" baseline-shift="0%" font-family="Tahoma" font-size="12" fill="#000000" xml:space="preserve">700 </tspan><tspan x="0" y="107.9" baseline-shift="0%" font-family="Tahoma" font-size="12" fill="#000000" xml:space="preserve">800</tspan></text>
</g>

<g transform="matrix( 1, 0, 0, 1, 5,378.95) ">
<clipPath id="Mask_Mask_3">
<rect x="-2" y="-2" width="150.3" height="18.5" fill="#FFFFFF" stroke="none"/>
</clipPath>

<text clip-path="url(#Mask_Mask_3)" writing-mode="lr"><tspan x="0" y="12" baseline-shift="0%" font-family="Tahoma Bold" font-weight="bold" font-size="12" fill="#000000" xml:space="preserve">Major Zones Description</tspan></text>
</g>

<g transform="matrix( 1, 0, 0, 1, 2,258.55) ">
<clipPath id="Mask_Mask_4">
<rect x="-2" y="-2" width="281.7" height="101.9" fill="#FFFFFF" stroke="none"/>
</clipPath>

<text clip-path="url(#Mask_Mask_4)" writing-mode="lr"><tspan x="0" y="13" baseline-shift="0%" font-family="Tahoma Bold" font-weight="bold" font-size="13" fill="#000000" xml:space="preserve">Aircraft is divided into the following areas:</tspan><tspan x="0" y="26.9" baseline-shift="0%" font-family="Tahoma" font-size="12" fill="#000000" xml:space="preserve"></tspan><tspan x="0" y="40.6" baseline-shift="0%" font-family="Tahoma" font-size="12" fill="#000000" xml:space="preserve">(a) Fuselage </tspan><tspan x="0" y="54.3" baseline-shift="0%" font-family="Tahoma" font-size="12" fill="#000000" xml:space="preserve">(b) Empennage </tspan><tspan x="0" y="68" baseline-shift="0%" font-family="Tahoma" font-size="12" fill="#000000" xml:space="preserve">(c) Nacelle </tspan><tspan x="0" y="81.7" baseline-shift="0%" font-family="Tahoma" font-size="12" fill="#000000" xml:space="preserve">(d) Wing </tspan><tspan x="0" y="95.4" baseline-shift="0%" font-family="Tahoma" font-size="12" fill="#000000" xml:space="preserve">(e) Doors</tspan></text>
</g>

<g transform="matrix( 1, 0, 0, 1, 199.9,2) ">
<clipPath id="Mask_Mask_5">
<rect x="-2" y="-2" width="352.15" height="40.6" fill="#FFFFFF" stroke="none"/>
</clipPath>

<text clip-path="url(#Mask_Mask_5)" writing-mode="lr"><tspan x="0" y="14" baseline-shift="0%" font-family="Tahoma Bold" font-weight="bold" font-size="14" fill="#0000FF" xml:space="preserve">Component Location Index for the Aircraft Zones </tspan><tspan baseline-shift="0%" font-family="Tahoma" font-size="14" fill="#0000FF" xml:space="preserve"></tspan><tspan x="0" y="33.9" baseline-shift="0%" font-family="Tahoma" font-size="13" fill="#0000FF" xml:space="preserve">AMM TASK      06-30-00-992-801 </tspan></text>
</g>

<g transform="matrix( 1, 0, 0, 1, 8.55,81.8) ">
<clipPath id="Mask_Mask_6">
<rect x="-2" y="-2" width="278.3" height="161.3" fill="#FFFFFF" stroke="none"/>
</clipPath>

<text clip-path="url(#Mask_Mask_6)" writing-mode="lr">

<tspan x="0" y="13" baseline-shift="0%" font-family="Tahoma Bold" font-weight="bold" font-size="13" fill="#000000" xml:space="preserve">Nose Fuselage Panels</tspan>

<tspan x="0" y="30.7" baseline-shift="0%" font-family="Tahoma Bold" font-weight="bold" font-size="13" fill="#000000" xml:space="preserve">Center Fuselage Panels</tspan>
<tspan x="0" y="48.4" baseline-shift="0%" font-family="Tahoma Bold" font-weight="bold" font-size="13" fill="#000000" xml:space="preserve">Fuselage to Wing Fairing Panels</tspan>
<tspan x="0" y="66.1" baseline-shift="0%" font-family="Tahoma Bold" font-weight="bold" font-size="13" fill="#000000" xml:space="preserve">Vertical Stabilizer and Aft Fuselage Panels</tspan>
<tspan x="0" y="83.8" baseline-shift="0%" font-family="Tahoma Bold" font-weight="bold" font-size="13" fill="#000000" xml:space="preserve">Horizontal Stabilizer Panels</tspan>
<tspan x="0" y="101.5" baseline-shift="0%" font-family="Tahoma Bold" font-weight="bold" font-size="13" fill="#000000" xml:space="preserve">Left Nacelle Panels</tspan>
<tspan x="0" y="119.2" baseline-shift="0%" font-family="Tahoma Bold" font-weight="bold" font-size="13" fill="#000000" xml:space="preserve">Right Nacelle Panels</tspan>
<tspan x="0" y="136.9" baseline-shift="0%" font-family="Tahoma Bold" font-weight="bold" font-size="13" fill="#000000" xml:space="preserve">Left Wing Panels</tspan>
<tspan x="0" y="154.6" baseline-shift="0%" font-family="Tahoma Bold" font-weight="bold" font-size="13" fill="#000000" xml:space="preserve">Right Wing Panels</tspan>
</text>
</g>

<g transform="matrix( 1, 0, 0, 1, 2,526.75) ">
<clipPath id="Mask_Mask_7">
<rect x="-2" y="-2" width="294.65" height="55.5" fill="#FFFFFF" stroke="none"/>
</clipPath>

<text clip-path="url(#Mask_Mask_7)" writing-mode="lr"><tspan x="0" y="12" baseline-shift="0%" font-family="Tahoma Bold" font-weight="bold" font-size="12" fill="#000000" xml:space="preserve">Temporary Allowance </tspan><tspan baseline-shift="0%" font-family="Tahoma" font-size="12" fill="#000000" xml:space="preserve">for Continued Operation with </tspan><tspan x="0" y="30.5" baseline-shift="0%" font-family="Tahoma" font-size="12" fill="#000000" xml:space="preserve">Missing Sealant on the External Access Panels</tspan><tspan x="0" y="49" baseline-shift="0%" font-family="Tahoma" font-size="12" fill="#0000FF" xml:space="preserve">AMM TASK  51-23-00-390-807</tspan></text>
</g>

<g transform="matrix( 1.943115234375, 0, 0, 1.943115234375, -225.9,-34.6) ">
<use xlink:href="#Layer0_20_MEMBER_0_MEMBER_0_1_STROKES" transform="matrix( 0.5146331787109375, 0, 0, 0.5146331787109375, 116.25,17.8) "/>
</g>

<g transform="matrix( 1.943115234375, 0, 0, 1.943115234375, -225.9,-34.6) ">
<use xlink:href="#Layer0_20_MEMBER_0_MEMBER_1_1_STROKES" transform="matrix( 0.5146331787109375, 0, 0, 0.5146331787109375, 116.25,17.8) "/>
</g>

<g transform="matrix( 1.943115234375, 0, 0, 1.943115234375, -225.9,-34.6) ">
<use xlink:href="#Layer0_20_MEMBER_0_MEMBER_2_1_STROKES" transform="matrix( 0.5146331787109375, 0, 0, 0.5146331787109375, 116.25,17.8) "/>
</g>

<g transform="matrix( 1.943115234375, 0, 0, 1.943115234375, -225.9,-34.6) ">
<use xlink:href="#Layer0_20_MEMBER_0_MEMBER_3_1_STROKES" transform="matrix( 0.5146331787109375, 0, 0, 0.5146331787109375, 116.25,17.8) "/>
</g>

<g transform="matrix( 1.943115234375, 0, 0, 1.943115234375, -225.9,-34.6) ">
<use xlink:href="#Layer0_20_MEMBER_0_MEMBER_4_1_STROKES" transform="matrix( 0.5146331787109375, 0, 0, 0.5146331787109375, 116.25,17.8) "/>
</g>

<g transform="matrix( 1.943115234375, 0, 0, 1.943115234375, -225.9,-34.6) ">
<use xlink:href="#Layer0_20_MEMBER_0_MEMBER_5_1_STROKES" transform="matrix( 0.5146331787109375, 0, 0, 0.5146331787109375, 116.25,17.8) "/>
</g>

<g transform="matrix( 1.943115234375, 0, 0, 1.943115234375, -225.9,-34.6) ">
<use xlink:href="#Layer0_20_MEMBER_0_MEMBER_6_1_STROKES" transform="matrix( 0.5146331787109375, 0, 0, 0.5146331787109375, 116.25,17.8) "/>
</g>

<g transform="matrix( 1.943115234375, 0, 0, 1.943115234375, -225.9,-34.6) ">
<use xlink:href="#Layer0_20_MEMBER_0_MEMBER_7_1_STROKES" transform="matrix( 0.5146331787109375, 0, 0, 0.5146331787109375, 116.25,17.8) "/>
</g>

<g transform="matrix( 1.943115234375, 0, 0, 1.943115234375, -225.9,-34.6) ">
<use xlink:href="#Layer0_20_MEMBER_0_MEMBER_8_1_STROKES" transform="matrix( 0.5146331787109375, 0, 0, 0.5146331787109375, 116.25,17.8) "/>
</g>

<g transform="matrix( 1.943115234375, 0, 0, 1.943115234375, -225.9,-34.6) ">
<use xlink:href="#Layer0_20_MEMBER_0_MEMBER_9_1_STROKES" transform="matrix( 0.5146331787109375, 0, 0, 0.5146331787109375, 116.25,17.8) "/>
</g>

<g transform="matrix( 1.943115234375, 0, 0, 1.943115234375, -225.9,-34.6) ">
<use xlink:href="#Layer0_20_MEMBER_0_MEMBER_10_1_STROKES" transform="matrix( 0.5146331787109375, 0, 0, 0.5146331787109375, 116.25,17.8) "/>
</g>
</svg>
