<?xml version="1.0" encoding="utf-8"?>
<!-- Generator: Adobe Illustrator 16.2.1, SVG Export Plug-In . SVG Version: 6.00 Build 0)  -->
<!DOCTYPE svg PUBLIC "-//W3C//DTD SVG 1.1//EN" "http://www.w3.org/Graphics/SVG/1.1/DTD/svg11.dtd">
<svg version="1.1" id="plane_model" xmlns="http://www.w3.org/2000/svg" xmlns:xlink="http://www.w3.org/1999/xlink" x="0px"
	 y="0px" width="938.6px" height="728.5px" viewBox="0 0 938.6 728.5" enable-background="new 0 0 938.6 728.5"
	 xml:space="preserve">
<symbol  id="S-ENG-LH" viewBox="0.006 -115.522 190.1 115.518">
	<path fill-rule="evenodd" clip-rule="evenodd" fill="#00A2DB" d="M14.423-81.032c7.448,7.188,15.545,13.828,24.289,19.917
		c4.663,3.238,12.501,8.226,23.512,14.961c12.372,8.421,24.386,14.963,36.045,19.626c10.298,6.089,19.107,10.882,26.427,14.379
		c8.549,4.146,17.131,7.514,25.746,10.104l5.246,1.263l6.314-1.359l4.858,0.193l13.894,1.943l5.927-1.165
		c2.979-2.073,4.015-4.664,3.108-7.772c-1.037-3.368-4.438-7.902-10.201-13.602l-22.346-16.323l-16.517,10.104l-15.254-4.081
		l-6.897-3.303c-4.599-1.749-8.906-1.942-12.922-0.583C93.67-42.041,84.148-48.485,77.089-56.063
		c-1.62-2.591-1.458-4.793,0.485-6.606l26.038-12.047c-23.059-13.991-45.729-26.362-68.01-37.114l-8.258-3.595l-3.012-0.097
		c-4.729,2.655-7.286,4.113-7.676,4.372c-2.525,1.684-3.821,3.109-3.886,4.274l-1.068,3.692l-4.761-1.166
		c-5.895-0.648-8.032,0.972-6.412,4.857C2.861-93.792,7.492-87.639,14.423-81.032z"/>
</symbol>
<symbol  id="S-ENG-RH" viewBox="-0.002 -115.431 190.673 115.421">
	<path fill-rule="evenodd" clip-rule="evenodd" fill="#00A2DB" d="M156.252-0.787l6.314-1.36l4.858,0.194l13.893,1.943l5.927-1.068
		c2.979-2.073,4.016-4.697,3.109-7.87c-1.036-3.367-4.437-7.902-10.202-13.603l-18.07-13.018l-12.436,7.092l-12.048-2.332
		l-11.367-3.4l-5.538-2.721c-2.396-0.841-4.891-1.263-7.48-1.263c-2.462,0-4.664,0.454-6.607,1.36
		c-10.428-4.599-20.176-11.724-29.243-21.374c-0.842-1.36-1.295-2.462-1.36-3.304c-0.065-1.036,0.324-1.976,1.166-2.817
		l20.111-14.281c-10.169-6.154-20.176-11.886-30.021-17.197c-7.448-3.95-17.812-9.262-31.09-15.934l-8.259-3.595l-3.011-0.097
		c-3.692,1.942-6.348,3.4-7.968,4.372c-2.72,1.684-4.112,3.108-4.177,4.274l-0.972,3.692l-4.275-1.166
		c-2.979-0.39-5.117-0.097-6.412,0.875c-1.23,0.905-1.425,2.363-0.582,4.371c1.23,3.044,3.237,6.186,6.022,9.424
		c1.75,2.073,4.566,4.955,8.453,8.647c7.384,7.124,15.447,13.731,24.191,19.82c2.979,2.071,10.784,7.156,23.414,15.252
		c13.343,9.134,25.1,15.675,35.268,19.626c10.169,6.089,18.913,10.914,26.232,14.477c8.355,4.081,16.614,7.416,24.774,10.007
		L156.252-0.787z"/>
</symbol>
<symbol  id="S-FUS-WING" viewBox="0 -89.295 140.603 89.295">
	<path fill-rule="evenodd" clip-rule="evenodd" fill="#00A2DB" d="M129.7-27.85c-18.4-8.5-32.617-15.917-42.65-22.25
		c-15.5-9.733-26.583-19.75-33.25-30.05L34-87.55c-5.633-2.833-11.633-2.217-18,1.85C10.233-82,4.9-75.933,0-67.5
		c5.033,3.167,7.683,7.333,7.95,12.5c-0.4,8.567,1.9,14.233,6.9,17c14.3,7.8,29.3,14.417,45,19.85L118.5,0
		c6.5-0.5,11.917-2.933,16.25-7.3c4.533-4.567,6.433-9.867,5.7-15.9C139.05-26.267,135.467-27.817,129.7-27.85z"/>
</symbol>
<symbol  id="S-FUSS" viewBox="0 -360.85 543.376 360.85">
	<path fill-rule="evenodd" clip-rule="evenodd" fill="#B3B4B6" d="M499.1-99.95L47.5-360.85c7,48.467-8.833,75.1-47.5,79.9
		L314.2-99.6l3.85-3.2l100.7,47.65L515.2,0c23.566-7,32.35-27.817,26.35-62.45l-28.95-27.5L499.1-99.95z"/>
</symbol>
<symbol  id="S-HOR-STAB" viewBox="-0.001 -131.182 225.888 131.16">
	<path fill-rule="evenodd" clip-rule="evenodd" fill="#E81732" d="M192.95-131.182L90.451-86.296
		c-1.036,1.425-0.906,2.721,0.389,3.887c2.721,4.922,16.063,13.213,40.028,24.871l95.019-55.087l-19.14-12.728l-11.465-5.732
		L192.95-131.182z"/>
	<path fill-rule="evenodd" clip-rule="evenodd" fill="#E81732" d="M31.284-0.021l83.456-48.48L70.243-73.18L-0.001-19.355
		C9.844-11.842,20.273-5.397,31.284-0.021z"/>
</symbol>
<symbol  id="S-NOSE" viewBox="-0.003 -126.209 126.974 126.205">
	<path fill-rule="evenodd" clip-rule="evenodd" fill="#00924C" d="M77.624-0.004c38.344-3.821,54.342-30.377,47.995-79.668
		l-23.317-13.115L82.87-102.6l-24.969-10.688l-17.585-6.51l-20.792-5.538l-14.67-0.874c-3.239,0.712-4.857,2.623-4.857,5.732
		l1.068,10.298l2.332,6.704C10.393-83.913,20.27-64.45,33.029-45.084l8.064,12.922l8.354,10.688
		C58.841-11.824,68.232-4.667,77.624-0.004z"/>
	<path fill-rule="evenodd" clip-rule="evenodd" fill="#00A2DB" d="M116.486-37.117c5.57-2.979,5.895-7.093,0.971-12.339
		l-6.801-5.052l-20.499-8.647l-12.922-2.429l-36.238,3.4l-7.385,17.1l6.801,11.95l9.133,11.659l-0.875-7.19l4.664-13.115
		l30.41-0.292l8.258,0.874l15.643,3.789L116.486-37.117z"/>
	<path fill-rule="evenodd" clip-rule="evenodd" fill="#006600" d="M83.05-26.25l-6.2-3.3c-1.633-0.767-3.083-0.833-4.35-0.2
		l-5.15,3.7c-0.867,0.533-0.85,1.667,0.05,3.4l6.55,4.1c1.167,0.433,2.383,0.367,3.65-0.2l6.65-4.45
		C85.017-24.333,84.617-25.35,83.05-26.25z"/>
</symbol>
<symbol  id="S-VERT-STAB" viewBox="-0.025 -347.033 373.369 347.04">
	<path fill-rule="evenodd" clip-rule="evenodd" fill="#00924C" d="M373.247-16.704l-12.145-8.841
		c-0.194-0.13-0.518,0.097-0.972,0.681c-0.453,0.518-0.809,0.744-1.068,0.68c-9.586-4.275-18.783-9.197-27.592-14.768
		c-10.039-6.478-14.542-10.817-13.506-13.02l42.166-19.042l-17.584-91.326l-2.041-2.332c4.729-3.303,5.829-8.259,3.304-14.865
		l-3.984-8.841l-7.384-12.63l-8.354-10.299l-95.698-94.532c3.497,16.97,3.076,30.83-1.264,41.582
		c-4.469,11.205-12.824,18.266-25.066,21.18l-95.504-54.893L4.541-347.033l-4.566,3.692l91.812,52.366l66.94,36.822l105.22,84.525
		l34.781,102.694c-9.326-1.36-14.508,0.679-15.545,6.12c-1.036,5.376,2.267,11.011,9.91,16.905l5.247,4.178
		c14.573,9.909,29.405,18.136,44.497,24.678l30.506,15.059L373.247-16.704z"/>
</symbol>
<symbol  id="S-WING-LH" viewBox="0 -200.1 361.9 200.15">
	<path fill-rule="evenodd" clip-rule="evenodd" fill="#E81732" d="M328.4-199.9L96.4-92.15c-2.133,1.933-2.233,4.2-0.3,6.8
		c6.733,7.167,16.183,13.6,28.35,19.3c4.333-1.467,8.65-1.3,12.95,0.5l5.8,2.9l8.35,2.95l8.3,1.75l202.05-130l-29.5-12.15
		L328.4-199.9z M129.9-48.85c-5.433-3.1-9.65-5.433-12.65-7c-6.267-2.566-13.483-6.217-21.65-10.95c-5.1-3.067-12.45-7.7-22.05-13.9
		L14.7-52.45c-4.034,1.367-8.934,1.333-14.7-0.1c4.267,8.833,13.667,17.933,28.2,27.3c11,7.2,26.8,15.633,47.4,25.3L75.4-2.3
		l1.45-2.05l65.7-38C138.983-44.017,134.767-46.183,129.9-48.85z"/>
</symbol>
<symbol  id="S-WING-RH" viewBox="0 -200.804 340.61 200.804">
	<path fill-rule="evenodd" clip-rule="evenodd" fill="#E81732" d="M183.5-150.6L1.35-21.75L0.4-19.4L0-16.9L20,0l225.1-114.95
		L226-126.2C214.967-130.467,200.8-138.6,183.5-150.6z"/>
	<path fill-rule="evenodd" clip-rule="evenodd" fill="#E81732" d="M205.661-164.469c-1.36,2.268-1.458,4.275-0.292,6.024
		c7.061,9.067,16.744,16.29,29.05,21.665c4.405-1.684,9.165-1.748,14.282-0.194c7.967,4.405,17.747,7.353,29.341,8.842
		l62.568-35.753c-15.092-4.534-27.625-8.712-37.6-12.533c-13.602-5.117-25.973-10.752-37.113-16.906l-3.497-2.816l-2.818-4.663
		L205.661-164.469z"/>
</symbol>
<use xlink:href="#S-FUSS"  width="543.376" height="360.85" y="-360.85" transform="matrix(1 0 0 -1 156.1001 320.5)" overflow="visible"/>
<path fill-rule="evenodd" clip-rule="evenodd" fill="#999999" d="M554.9,391.8c0.833,5.434,2.316,9.8,4.449,13.101
	c0.268,1.699-0.183,3.033-1.35,4l-7.1,4c-1.601,0.166-2.983-0.45-4.15-1.851c-2.267-4.533-3.667-9.816-4.2-15.85
	c-0.633-7.9,0.884-13.983,4.55-18.25l10.2-5.55l0.7,0.55C554.767,377.616,553.733,384.233,554.9,391.8z"/>
<path fill-rule="evenodd" clip-rule="evenodd" fill="#999999" d="M206.8,573.65l11.15-6.2c-3.233,5.633-4.3,12.434-3.2,20.399
	c0.833,5.567,2.3,10.2,4.4,13.9c0.1,0.833,0.067,1.517-0.1,2.05c-0.2,0.434-0.6,0.884-1.2,1.351l-7.75,4.25
	c-0.833,0.066-1.45,0.017-1.85-0.15c-0.333-0.134-0.783-0.566-1.35-1.3c-2.333-4.733-3.8-10.033-4.4-15.9
	C201.667,584.017,203.1,577.884,206.8,573.65z"/>
<path fill-rule="evenodd" clip-rule="evenodd" fill="#999999" d="M185.4,585.9c-3.233,5.699-4.3,12.433-3.2,20.199
	c0.833,5.7,2.333,10.233,4.5,13.601c0.233,1.767-0.233,3.066-1.4,3.899l-13.2,7.95c-1.667,0.2-3.067-0.399-4.2-1.8
	c-2.267-4.5-3.65-9.783-4.15-15.85c-0.7-7.9,0.817-13.967,4.55-18.2L185.4,585.9z"/>
<path fill-rule="evenodd" clip-rule="evenodd" fill="#999999" d="M235.45,632.45c2.333,11.6,0.383,20.283-5.85,26.05l-19.5,11.25
	c5.833-7.634,7.15-17.283,3.95-28.95c-1.733-6.467-4.733-13.066-9-19.8c-0.4-2.4,0.184-4.217,1.75-5.45l13.7-8.149
	c2.267-0.267,4.2,0.566,5.8,2.5C230.633,616.566,233.683,624.083,235.45,632.45z"/>
<path fill-rule="evenodd" clip-rule="evenodd" fill="#999999" d="M601.65,388.7l11.25-6.45c2.267-0.233,4.216,0.616,5.85,2.55
	c4.134,7.5,6.816,14.917,8.05,22.25c1.867,11.533-0.399,20.983-6.8,28.351l-17.1,9.55c6.133-8.033,7.916-17.95,5.35-29.75
	c-1.366-5.967-4.184-13.017-8.45-21.15C599.4,391.65,600.017,389.866,601.65,388.7z"/>
<path fill-rule="evenodd" clip-rule="evenodd" fill="#999999" d="M640.4,379.65l16.5-9.351c2.333-0.233,4.283,0.617,5.85,2.55
	c5.3,16.2,5.434,28.117,0.4,35.75l-18.4,10.301c-1.3,0.133-1.684-0.483-1.15-1.851c1.733-11.733,0.051-22.383-5.05-31.95
	C638.283,382.7,638.9,380.884,640.4,379.65z"/>
<use xlink:href="#S-WING-RH"  width="340.61" height="200.804" y="-200.804" transform="matrix(1 0 0 -1 99.3501 265.7998)" overflow="visible"/>
<use xlink:href="#S-NOSE"  width="126.974" height="126.205" x="-0.003" y="-126.209" transform="matrix(1 0 0 -1 78.3501 601.5498)" overflow="visible"/>
<use xlink:href="#S-WING-LH"  width="361.9" height="200.15" y="-200.1" transform="matrix(1 0 0 -1 404.5 449.1504)" overflow="visible"/>
<use xlink:href="#S-ENG-LH"  width="190.1" height="115.518" x="0.006" y="-115.522" transform="matrix(1 0 0 -1 423.3999 478.5498)" overflow="visible"/>
<use xlink:href="#S-ENG-RH"  width="190.673" height="115.421" x="-0.002" y="-115.431" transform="matrix(1 0 0 -1 227.6499 365.6499)" overflow="visible"/>
<use xlink:href="#S-VERT-STAB"  width="373.369" height="347.04" x="-0.025" y="-347.033" transform="matrix(1 0 0 -1 468.5498 77.6001)" overflow="visible"/>
<use xlink:href="#S-HOR-STAB"  width="225.888" height="131.16" x="-0.001" y="-131.182" transform="matrix(1 0 0 -1 696.5498 44.1499)" overflow="visible"/>
<use xlink:href="#S-FUS-WING"  width="140.603" height="89.295" y="-89.295" transform="matrix(1 0 0 -1 350.5 421.1504)" overflow="visible"/>
<g id="Ebene_2">
	<g>
		<path fill-rule="evenodd" clip-rule="evenodd" fill="none" stroke="#2D2C2E" stroke-width="0.55" stroke-miterlimit="5" d="
			M827.32,101.979l2.139,1.263l12.241-8.938V77.593l-30.313,15.156l-4.955,2.478l-0.097,0.049c-1.793,0.845-3.575,1.704-5.344,2.574
			c-10.932,5.256-21.619,11.329-32.062,18.217c-0.594,0.397-1.176,0.786-1.749,1.166c-7.237,5.092-11.999,9.983-14.281,14.67
			c-2.203,4.47-1.879,7.935,0.972,10.396c2.785,2.397,7.093,3.142,12.922,2.234c0.273-0.041,0.549-0.09,0.826-0.145
			c6.151-1.076,12.481-3.877,18.992-8.404 M787.293,126.656c-0.649,0.388-0.972,0.972-0.972,1.749c0,1.036,0.485,1.749,1.457,2.138
			l23.221,10.25l8.938,3.935l8.647,3.838l61.401,27.057c0.907,0.195,2.235-0.064,3.983-0.777c0.907-0.388,2.106-0.972,3.596-1.749
			c6.283-3.433,11.562-6.736,15.836-9.91l-94.143-54.504 M913.4,163.187l8.842-6.315l-92.783-53.63 M800.991,97.849l-83.117-48.237
			c-8.034,4.39-15.143,9.054-21.325,13.99l70.632,53.63 M811.387,92.749l-83.359-48.287c-3.54,1.678-6.924,3.394-10.153,5.15
			 M391.091,399.955l13.796-10.201c8.031-6.671,12.242-11.982,12.63-15.934c0.518-1.619,0.356-3.174-0.486-4.664
			c-0.827-1.463-2.025-2.368-3.595-2.72c0.338,0.284,0.467,0.737,0.389,1.36c-0.13,0.906-0.518,1.651-1.166,2.234
			c-0.842,0.972-2.526,1.911-5.052,2.817c-0.324,0.065-2.202,0.647-5.635,1.749c-2.397,0.713-4.081,0.519-5.052-0.583
			c-2.008-2.396-3.303-3.789-3.886-4.178c-1.177-0.745-2.23-1.345-3.158-1.797c-0.623-0.308-1.189-0.55-1.7-0.729
			c-1.36-0.454-3.142-0.713-5.344-0.778c-3.173,0.389-5.829,0.939-7.966,1.652c-2.073,0.583-4.566,1.555-7.481,2.914
			c-7.093,2.823-14.656,6.256-22.686,10.299l0.729,0.389 M411.883,439.012l28.223-9.035l-62.811-36.045l-15.157,3.206l-7.383,2.332
			l-6.461,3.012c-2.04,1.101-4.388,1.651-7.044,1.651c-2.655,0-5.019-0.485-7.092-1.457 M413.437,366.437
			c-0.234-0.169-0.558-0.266-0.971-0.291c-3.627-0.648-7.514-0.616-11.659,0.097c-5.958,1.036-9.602,1.636-10.93,1.798
			 M344.699,381.398c-6.329,3.217-12.951,6.812-19.868,10.784 M243.317,475.834l0.243,0.146l8.598,5.004
			c1.23,0.389,3.142,0.032,5.732-1.069c1.425-0.582,3.238-1.425,5.44-2.525c17.554-8.615,34.588-17.683,51.104-27.203l8.938-5.053
			 M476.2,529.27l-5.198-2.526L200.763,682.775c-33.033,20.209-65.969,34.587-98.808,43.138c-5.117,1.231-10.46,1.846-16.031,1.846
			h-2.429c-1.49-0.26-2.752-0.938-3.79-2.039c-0.786-0.945-1.255-2.014-1.408-3.207c-0.016-0.133-0.031-0.262-0.049-0.39
			c-0.394-5.61,1.97-14.613,7.093-27.008c5.182-12.63,12.209-26.232,21.082-40.806c1.587-2.63,3.661-5.899,6.218-9.813
			c0.089-0.133,0.186-0.263,0.292-0.388c0.708-1.093,1.453-2.228,2.234-3.4c4.01-7.018,8.706-13.364,14.087-19.044
			c5.947-6.273,12.731-11.73,20.354-16.37l0.534-0.34l200.53-115.81c5.182-3.757,7.805-9.133,7.87-16.128
			c0.065-3.433,0.389-5.894,0.971-7.385c0.907-2.525,2.915-4.695,6.024-6.509 M305.206,423.855c-0.842,1.23-1.263,2.332-1.263,3.304
			c-0.065,0.972,0.34,2.008,1.214,3.109l52.901,36.142 M290.535,411.518c-8.549,5.375-14.961,9.423-19.237,12.145
			c-7.578,4.792-13.698,9.164-18.362,13.115c-2.721,2.396-4.891,4.307-6.509,5.732c-2.601,2.317-4.447,4.164-5.538,5.538
			c-0.012,0.036-0.028,0.069-0.049,0.097c3.4-2.267,6.817-0.453,10.25,5.441c3.368,5.829,3.174,9.65-0.583,11.464
			c1.813-0.648,3.853-0.389,6.121,0.777 M240.889,448.048l-0.438,0.534c0.138-0.124,0.269-0.269,0.389-0.438 M240.451,448.582
			l-4.226,4.323c-1.036,1.166-2.526,3.045-4.47,5.635c-1.036,1.166-1.943,2.623-2.72,4.372c-0.907,1.943-1.295,3.562-1.166,4.857
			c0.389,2.462,3.984,2.883,10.785,1.264c5.117-1.166,9.067-2.494,11.853-3.983 M247.884,468.741l4.081,2.332
			c1.684,0.842,2.623,2.396,2.817,4.663c0.195,2.203-0.745,2.851-2.817,1.943 M240.014,470.879c0.324,2.461,1.507,4.161,3.546,5.101
			 M295.296,588.729c-1.49,0.712-2.105,1.943-1.847,3.691l0.875,2.914l0.146,1.264l0.048,0.194c0.155,0.734,0.381,1.22,0.68,1.457
			c0.194,0.195,0.388,0.292,0.583,0.292l0.389-0.097l0.097-0.099h0.097l0.875-0.387l2.138-1.361
			c1.166-0.713,1.554-1.781,1.166-3.206l-1.409-5.344l-0.048-0.097c-0.087-0.141-0.185-0.237-0.292-0.293l-0.292-0.29h-0.291
			l-0.097-0.097l-0.098,0.097h-0.388l-0.098,0.097l-0.195,0.097L295.296,588.729z M297.53,587.466h-0.097l-0.098,0.097
			 M320.848,573.961l-1.652,0.875l-0.437,0.34c-0.616,0.356-1.15,0.924-1.604,1.7c-0.064,0.195-0.162,0.874-0.292,2.039l1.117,4.082
			c0.163,0.712,0.276,1.133,0.341,1.262c0.194,0.519,0.421,0.714,0.68,0.585v0.097h0.486l0.388-0.146l0.098-0.049l2.963-1.7
			l0.048-0.048c1.094-0.801,1.417-1.869,0.972-3.207l-0.291-1.457l-1.118-3.837l-0.049-0.05v-0.097l-0.097-0.097v-0.097h-0.098
			v-0.099l-0.097-0.097h-0.098v-0.097h-0.097l-0.097-0.097h-0.68l-0.098,0.097h-0.097l-0.097,0.097H320.848l0.194-0.097
			 M310.841,580.957v0.097l1.263,3.983l0.291,1.457c0.382,1.396,0.009,2.448-1.117,3.158c-0.009,0.017-0.025,0.034-0.048,0.049
			l-2.818,1.748l-0.097,0.097h-0.098h-0.195l-0.097,0.099h-0.583l-0.098-0.099h-0.097l-0.098-0.097
			c-0.285-0.285-0.479-0.771-0.583-1.458l-0.049-0.29l-1.117-4.082c0-1.101,0.098-1.779,0.291-2.039
			c0.261-0.573,0.649-1.06,1.166-1.458l0.438-0.242l1.991-1.215l0.195-0.097h0.194l0.097-0.097h0.583l0.097,0.097h0.097v0.097h0.098
			L310.841,580.957z M309.188,580.665h0.098l0.097-0.097 M308.412,591.449l-0.194,0.097 M342.027,561.72
			c-0.514,0.38-0.935,0.897-1.263,1.554c-0.194,0.261-0.291,0.939-0.291,2.04l0.875,2.818l0.292,1.554
			c0.025,0.376,0.09,0.668,0.194,0.875l0.194,0.389h0.098v0.097l0.097,0.097l0.583,0.196l0.679-0.196l0.875-0.387l2.089-1.41
			c1.198-0.743,1.57-1.797,1.117-3.157l-0.292-1.457l-1.166-3.934l-0.194-0.342l-0.194-0.193h-0.194l-0.098-0.097h-0.486
			c-0.188,0-0.35,0.064-0.486,0.193l-0.874,0.389l-1.263,0.778C342.219,561.585,342.122,561.649,342.027,561.72z M334.255,567.257
			h0.098v0.195l0.097,0.097v0.097h0.048l1.118,3.79l0.292,1.457c0.324,1.425-0.032,2.493-1.068,3.207l-3.013,1.845h-0.097h-0.097
			l-0.098,0.099h-0.292c-0.323,0-0.55-0.066-0.68-0.195v-0.098h-0.097v-0.097h-0.098v-0.097l-0.194-0.195v-0.097
			c-0.065-0.453-0.146-0.811-0.243-1.068l-0.243-1.264l-0.875-2.915c-0.13-1.747,0.502-2.994,1.895-3.74l0.438-0.34l0.777-0.485
			l1.457-0.582h0.486v0.097h0.194v0.097h0.097v0.097h0.097V567.257z M322.499,574.35l0.049,0.146 M331.826,577.944l0.098-0.097
			l-0.195,0.097 M521.183,505.272c9.194-5.212,17.794-9.746,25.796-13.602l-7.433-4.47l-58.294-33.519
			c-0.583-0.519-0.972-1.198-1.166-2.04c-0.194-0.907-0.13-1.717,0.194-2.429 M574.521,376.056l92.006-53.242l50.278-26.232h0.049
			l16.42-48.286c0-0.519-0.163-0.842-0.485-0.971c-0.103-0.051-0.201-0.083-0.293-0.098c-0.28-0.058-0.556-0.009-0.825,0.146
			c-0.017,0.022-0.034,0.039-0.049,0.048l-102.889,84.136l-82.97,44.984l-76.268,44.012l-29.39,9.424 M438.018,516.639h-0.098
			h-0.097l-0.098,0.098h-0.097l-0.486,0.098l-0.292-0.098l-0.098-0.098h-0.097v-0.097h-0.097l-0.098-0.097v-0.098h-0.097
			l-0.098-0.485c-0.115-0.269-0.18-0.495-0.194-0.681v-0.243l-1.166-4.226 M437.92,516.639l1.652-0.873l1.361-0.972
			 M471.002,526.743l-51.638-24.969c-5.182-1.685-10.104-1.651-14.768,0.098 M412.854,520.817l2.429-1.36l0.583-0.194h0.583v0.098
			h0.194v0.097h0.097 M417.421,528.396l-1.361,0.972l-1.749,0.874l-0.097,0.098h-0.292v0.097h-0.193l-0.68-0.194v-0.097h-0.098
			v-0.098l-0.097-0.098v-0.097l-0.097-0.098v-0.193c-0.194-0.194-0.292-0.552-0.292-1.069 M435.88,584.648
			c0.259,0.842,0.68,1.685,1.263,2.525c0.652,0.829,1.299,1.381,1.943,1.652c0.032,0.02,0.064,0.036,0.097,0.048l0.098,0.049
			l8.646,5.052c1.166,0.453,3.077,0.099,5.733-1.068c1.425-0.582,3.254-1.393,5.49-2.429c17.016-8.492,34.065-17.593,51.152-27.301
			l8.938-5.051l5.927-3.79 M434.617,582.025c5.117-1.231,9.003-2.558,11.659-3.982c3.692-1.814,3.853-5.636,0.486-11.466
			c-3.368-5.829-6.736-7.644-10.104-5.44c-0.145,0.15-0.29,0.297-0.438,0.437c-3.596,3.744-6.235,6.674-7.917,8.794
			c-3.627,4.793-5.182,8.419-4.664,10.881C424.416,583.386,428.076,583.645,434.617,582.025z M500.587,534.419
			c-1.103,1.49-1.524,2.883-1.265,4.177c0.325,1.038,0.615,1.75,0.875,2.139c0.39,0.389,1.052,0.744,1.991,1.068l227.054,105.706
			l1.02,0.486c1.779,0.93,3.95,1.286,6.51,1.068l29.633-12.048L564.514,507.409 M447.733,590.673
			c2.072,0.905,3.012,0.258,2.817-1.943c-0.194-2.203-1.133-3.757-2.817-4.664l-3.886-2.235 M486.207,524.509
			c-8.485,5.376-14.865,9.425-19.14,12.144c-7.578,4.858-13.699,9.263-18.362,13.215c-2.786,2.396-4.956,4.273-6.51,5.634
			c-2.548,2.317-4.394,4.196-5.538,5.636 M446.276,578.043c1.101-0.39,2.202-0.454,3.303-0.195c0.713,0.129,1.782,0.518,3.206,1.166
			 M812.067,257.622c-4.6,11.594-11.076,22.055-19.431,31.381L677.604,401.802c-0.017,0.016-0.032,0.032-0.049,0.048
			c-9.249,9.63-19.693,17.548-31.333,23.755l-24.482,14.137l-1.507,0.873l-16.856,9.668l-63.83,36.919 M819.937,144.727
			l-20.306,105.512c5.135-4.073,8.924-7.506,11.368-10.299l17.585-91.375 M810.999,140.792l-22.93,118.044
			c2.288-1.614,4.491-3.217,6.606-4.809c1.772-1.326,3.426-2.589,4.955-3.789 M716.854,296.581
			c2.714,0.556,8.997-1.517,18.849-6.217c9.845-4.729,20.856-10.914,33.033-18.557c7-4.434,13.446-8.757,19.333-12.97
			 M619.796,435.223c6.022-5.117,8.484-13.277,7.384-24.483c-0.972-9.392-3.758-17.974-8.355-25.746
			c-0.777-1.23-1.781-2.072-3.012-2.526c-1.302-0.473-2.501-0.425-3.596,0.146l-10.687,6.072c-0.972,0.583-1.555,1.555-1.748,2.915
			l-0.097,0.874l0.097,0.874l0.485,1.555l0.39,0.874h0.047c4.571,7.683,7.308,16.167,8.211,25.455
			c1.101,11.271-1.393,19.464-7.481,24.581 M664.391,406.367c2.008-4.792,2.752-10.395,2.233-16.808
			c-0.445-5.436-1.71-10.877-3.787-16.322c-0.02-0.029-0.036-0.062-0.05-0.097c-0.777-1.18-1.797-2.021-3.061-2.526
			c-1.36-0.519-2.654-0.422-3.887,0.291l-15.349,8.842c-1.103,0.713-1.718,1.813-1.847,3.303c-0.129,1.425,0.193,2.688,0.972,3.789
			c1.943,4.34,3.336,9.36,4.177,15.06c0.906,6.412,0.713,11.594-0.583,15.545 M582.294,516.251l18.363-13.407
			c4.404-3.239,7.966-6.995,10.687-11.271c3.676-5.999,2.947-10.032-2.186-12.097c0.368,0.258,0.514,0.695,0.437,1.312
			c-0.129,0.907-0.551,1.652-1.264,2.234c-0.841,0.972-2.493,1.911-4.955,2.818c-0.712,0.259-2.622,0.841-5.732,1.748
			c-2.33,0.713-4.016,0.454-5.052-0.777c-1.942-2.201-3.238-3.498-3.886-3.886c-1.149-0.753-2.187-1.369-3.108-1.847
			c-0.6-0.276-1.149-0.504-1.652-0.68c-1.376-0.479-3.027-0.737-4.955-0.777c-5.376,0.777-10.461,2.299-15.252,4.566
			c-5.263,2.121-10.849,4.614-16.76,7.481 M609.158,479.477l-0.05-0.048c-0.235-0.17-0.558-0.267-0.972-0.291
			c-3.562-0.583-7.415-0.519-11.562,0.194c-5.7,0.972-9.358,1.554-10.978,1.748 M578.99,479.623c-0.159,0-0.322,0-0.485,0
			 M528.955,515.279c0.165,0.057,0.328,0.105,0.486,0.146c4.176,1.317,8.306,1.026,12.387-0.874l-0.146,0.049 M563.542,507.507
			l-7.869,1.652l-7.383,2.429l-6.462,2.963 M767.619,144.387l-35.123,102.839 M344.699,381.398L120.026,266.27L99.43,283.465
			c-0.325,1.62,0.647,3.077,2.915,4.372L281.5,415.306 M192.505,638.666c-4.857,0-9.78,0.649-14.768,1.943
			c-5.181,1.507-10.379,2.493-15.593,2.964l-6.461,23.269c4.301-0.262,8.446-1.072,12.436-2.43
			c8.485-2.33,16.388-5.829,23.707-10.491l2.138-1.36l3.4-3.594l1.36-2.139c0.324-0.647,0.485-1.458,0.485-2.43
			c0-1.36-0.42-2.59-1.263-3.69c-0.907-1.038-2.008-1.717-3.303-2.042H192.505z M129.256,621.664
			c-1.317,1.978-2.029,4.146-2.137,6.511c0,0.193,0,0.387,0,0.582v1.264l4.664,13.407l23.123,0.485c2.417,0,4.83-0.114,7.238-0.34
			 M131.783,643.428l-12.63,20.209l27.204,2.914c2.072,0.259,4.081,0.39,6.024,0.39c1.115,0,2.215-0.032,3.303-0.099
			 M119.152,663.637l-7.19-16.227c-0.056-1.119,0.171-2.091,0.68-2.914 M78.25,721.638c0,0.159,0,0.32,0,0.485 M111.962,647.41
			l15.157-19.235 M285.871,594.17l-0.194,0.097l-2.429,1.408c-1.148,0.771-1.634,1.919-1.458,3.45l0.875,2.914l0.243,1.458
			l0.243,0.874v0.194l0.097,0.097v0.099h0.098v0.193h0.194v0.097l0.097,0.097h0.195v0.099h0.291l0.583-0.146l0.875-0.438
			l2.186-1.408c1.062-0.772,1.435-1.824,1.118-3.158l-0.292-1.457l-1.117-3.789l-0.34-0.486l-0.097-0.097v-0.097h-0.195
			l-0.097-0.097h-0.68l-0.097,0.097H285.871h-0.097l-0.098,0.097 M284.9,605.051l-0.195,0.049 M274.796,600.971
			c0.259,0.129,0.388,0.227,0.388,0.291l0.292,0.292l1.166,3.982l0.291,1.458c0.313,1.312-0.042,2.351-1.068,3.109l-1.36,0.972
			l-1.651,0.873c-0.184,0.131-0.411,0.195-0.68,0.195h-0.194l-0.097-0.097h-0.194v-0.099h-0.098v-0.097h-0.097v-0.097h-0.097v-0.097
			h-0.098v-0.097l-0.097-0.099v-0.193c-0.142-0.378-0.207-0.67-0.194-0.875v-0.097l-1.166-4.275c0-0.907,0.098-1.555,0.291-1.943
			c0.389-0.843,0.907-1.425,1.555-1.747l1.263-0.778l0.875-0.39l0.486-0.193H274.796z M263.623,608.062h0.097v0.099h0.097v0.097
			l0.049,0.146l1.117,3.837l0.292,1.458c0.317,1.271-0.022,2.324-1.02,3.157c-0.013,0.018-0.029,0.032-0.048,0.05l-1.263,0.872
			l-1.749,0.875h0.097l-0.194,0.097h-0.194l-0.097,0.099h-0.291h-0.098h-0.097l-0.097-0.099h-0.098h-0.097v-0.097h-0.098
			c-0.259-0.258-0.47-0.842-0.631-1.747l-0.243-1.265l-0.875-2.914c-0.12-1.557,0.398-2.722,1.555-3.497
			c0.09-0.07,0.187-0.135,0.292-0.195l1.263-0.776l0.875-0.389l0.097-0.05v-0.048h0.097h0.098v-0.097h0.874v0.097h0.098v0.098h0.097
			l0.098,0.097V608.062z M263.817,608.258v0.097l0.049,0.049 M248.466,615.738c-0.647,0.453-1.166,1.036-1.554,1.749
			c-0.194,0.323-0.291,0.972-0.291,1.943l0.874,2.915l0.243,1.262l0.146,0.584v0.291l0.097,0.097
			c0.064,0.324,0.162,0.552,0.292,0.681l0.292,0.193l0.388,0.097h0.098l0.097-0.097h0.292l0.098-0.097h0.097l0.777-0.389
			l2.284-1.408c0.427-0.314,0.735-0.783,0.922-1.41c0.259-0.646,0.292-1.229,0.098-1.747l-0.292-1.555l-1.166-3.886h-0.098v-0.195
			l-0.194-0.194h-0.098v-0.097h-0.097l-0.098-0.099h-0.097l-0.097-0.097h-0.292l-1.457,0.682L248.466,615.738z M262.263,607.819
			l0.097-0.048 M262.166,607.869h0.097v-0.05 M261.194,618.652l-0.098,0.097 M259.348,617.099l-0.048-0.193 M229.424,658.583
			c5.829-5.115,7.901-13.181,6.217-24.19c-1.424-9.197-4.631-17.391-9.618-24.581c-0.648-1.036-1.555-1.781-2.72-2.235
			c-1.23-0.453-2.364-0.354-3.4,0.293l-13.505,7.771c-1.036,0.647-1.587,1.619-1.652,2.915c-0.064,1.231,0.227,2.364,0.875,3.4
			c4.922,7.062,8.096,15.188,9.521,24.386c1.684,11.076-0.389,19.108-6.218,24.096"/>
		<path fill-rule="evenodd" clip-rule="evenodd" fill="none" stroke="#2D2C2E" stroke-width="0.55" stroke-miterlimit="5" d="
			M354.464,554.579c-1.293,0.658-1.876,1.873-1.75,3.644l0.875,2.914l0.243,1.166l0.243,1.166l0.389,0.583l0.097,0.097h0.097
			l0.098,0.097h0.68v-0.097h0.193l0.098-0.097l0.874-0.389l2.186-1.312l0.049-0.049c1.029-0.927,1.354-1.995,0.972-3.205
			l-0.292-1.458l-1.117-3.789l-0.243-0.486h-0.098v-0.097h-0.097l-0.097-0.099h-0.194c-0.13-0.129-0.292-0.161-0.486-0.097
			l-0.098,0.097h-0.292l-0.097,0.099l-0.875,0.388L354.464,554.579z M355.629,564.148l0.194-0.097h-0.097 M508.649,468.062
			c-0.129-1.813,0.485-3.044,1.847-3.692l2.137-1.166l0.584-0.193c0.129-0.13,0.29-0.13,0.485,0l0.388,0.291l0.195,0.34l1.165,3.935
			l0.292,1.458c0.323,1.296-0.032,2.364-1.068,3.206 M412.465,528.687l-1.068-4.372c-0.195-1.684,0.421-2.914,1.846-3.691
			 M417.323,528.492c1.102-0.842,1.491-1.911,1.166-3.206l-0.291-1.457l-1.166-3.983 M403.819,526.161v-0.098h0.68l0.388,0.291
			l0.098,0.098v0.097l0.097,0.098l0.048,0.097l1.215,3.887l0.194,1.457c0.376,1.192,0.052,2.261-0.972,3.207l-3.109,1.845
			l0.098-0.097c-0.195,0.129-0.421,0.195-0.68,0.195h-0.389l-0.097-0.099h-0.098l-0.097-0.097l-0.389-0.583l-0.243-1.068
			l-0.243-1.264l-0.874-2.914c0-0.972,0.097-1.651,0.292-2.04c0.32-0.589,0.726-1.091,1.214-1.506l2.477-1.409l0.195-0.097H403.819z
			 M403.43,526.258h0.098l0.097-0.097 M405.082,526.646v0.097h0.048 M381.57,540.249l1.166,3.982l0.292,1.458
			c0.313,1.375-0.044,2.445-1.068,3.206l-1.361,0.972l-1.554,0.776l-0.777,0.195h-0.389v-0.099h-0.194v-0.097
			c-0.194-0.129-0.324-0.322-0.388-0.583l-0.194-0.485l-0.048-0.583l-0.243-1.264l-0.875-2.914c-0.259-1.748,0.339-2.994,1.797-3.74
			l2.089-1.215l0.194-0.097h0.292l0.097-0.097c0.194-0.066,0.356-0.032,0.486,0.097 M380.016,539.763l-0.098,0.097h-0.097
			 M387.885,537.916l1.069,4.372c0.036,0.619,0.23,1.104,0.583,1.458l0.389,0.193h0.291c0.168,0.114,0.363,0.082,0.583-0.097
			l1.749-0.875l1.36-0.972c1.024-0.882,1.347-1.952,0.972-3.205l-0.195-1.457l-1.263-3.887v-0.098l-0.097-0.097v-0.098h-0.098
			l-0.097-0.097v-0.097h-0.098v-0.098h-0.194l-0.098-0.097h-0.486l-0.097,0.097h-0.098l-0.097,0.098l-0.195,0.097l-2.137,1.165
			C388.209,534.938,387.626,536.167,387.885,537.916z M391.966,532.962h-0.097l-0.098,0.097 M369.814,546.854v0.099l0.097,0.097
			l1.166,3.886l0.291,1.457c0.383,1.275,0.027,2.344-1.068,3.205l-0.048,0.05l-1.312,0.922l-1.554,0.778l-0.098,0.049l-0.583,0.145
			c-0.323,0.131-0.55,0.066-0.68-0.193c-0.355-0.296-0.549-0.782-0.583-1.457l-0.292-1.458l-0.875-2.914
			c0-0.843,0.097-1.522,0.291-2.04c0.37-0.634,0.791-1.12,1.263-1.457l0.34-0.196l2.088-1.262c0.519-0.195,0.875-0.228,1.069-0.097
			h0.097v0.097h0.194v0.097L369.814,546.854z M812.067,257.622c1.101-1.62,1.651-3.595,1.651-5.926c0-3.952-1.555-7.027-4.663-9.229
			 M597.644,419.581l-1.165-3.887l-0.193-0.194v-0.097h-0.099v-0.098l-0.097-0.097h-0.097l-0.098-0.098H595.7l-0.097-0.097h-0.29
			l-0.099,0.097h-0.193l-0.097,0.098h-0.196l-2.137,1.263c-0.1,0.063-0.197,0.128-0.292,0.194c-1.036,0.785-1.554,1.951-1.554,3.497
			l0.875,2.915l0.242,1.263l0.243,1.069c0.064,0.259,0.161,0.389,0.292,0.389v0.098l0.097,0.097l0.194,0.098v0.097h0.195
			c0.129,0,0.226,0.032,0.29,0.097l0.682-0.291l-0.099,0.098l1.749-0.875l1.36-0.972c1.025-0.882,1.382-1.918,1.068-3.109
			L597.644,419.581z M584.334,421.912h0.097v0.098h0.097v0.097h0.099v0.098l0.097,0.097v0.098h0.098l1.165,3.983l0.292,1.457
			c0.453,1.296,0.064,2.364-1.165,3.206l-1.264,0.875l-1.75,0.922l-0.097,0.05c-1.044,0.416-1.644-0.199-1.797-1.847l-0.243-1.263
			l-0.875-2.915c-0.129-1.813,0.486-3.044,1.847-3.691l2.137-1.166l0.099-0.098h0.097l0.097-0.097h0.972V421.912z M583.07,422.01
			l0.195-0.098 M570.149,439.789l0.097-0.194c-0.582,0.324-1.036,0.291-1.36-0.097c-0.322-0.389-0.501-0.907-0.533-1.555
			l-0.243-1.264l-0.874-2.914c-0.062-1.552,0.457-2.718,1.554-3.497c0.093-0.068,0.189-0.134,0.292-0.195l2.137-1.263
			c0.519-0.194,0.843-0.227,0.972-0.098c0.129,0,0.292,0.098,0.486,0.292c0.129,0.194,0.21,0.356,0.242,0.486l1.118,3.788
			l0.29,1.458c0.389,1.23,0.032,2.3-1.068,3.206 M560.725,435.807c0.131,0,0.292,0.097,0.485,0.291
			c0.131,0.194,0.211,0.355,0.243,0.485l1.117,3.789l0.293,1.457c0.445,1.275,0.089,2.345-1.068,3.207l-0.05,0.048l-3.061,1.749
			l-0.583,0.146h-0.292l-0.097-0.099h-0.097l-0.097-0.097c-0.298-0.298-0.525-0.816-0.682-1.555l-0.047-0.193l-0.146-1.264
			l-0.972-2.915c0-1.499,0.519-2.632,1.555-3.4l0.438-0.243l1.99-1.214l0.582-0.193H560.725z M570.246,439.692l0.875-0.389
			l0.776-0.486l1.36-0.972 M568.4,438.138l-0.048-0.194 M547.997,442.704h0.097l0.1-0.097L547.997,442.704l-0.775,0.485
			l-0.778,0.389l-0.535,0.34l-0.34,0.243 M545.908,443.918c-1.391,0.745-2.022,1.992-1.894,3.74l0.972,2.915l0.292,1.457
			c0.042,0.742,0.237,1.228,0.582,1.458c0.13,0.13,0.323,0.194,0.583,0.194h0.292l0.097-0.097h0.193l0.098-0.098h0.099l2.865-1.701
			c1.133-0.744,1.507-1.829,1.117-3.254l-0.292-1.457l-1.457-4.275l-0.194-0.193h-0.195l-0.097-0.098h-0.485v0.098h-0.29
			 M547.025,453.586l0.196-0.098 M537.214,449.408h-0.583l-1.36,0.582l-1.215,0.826c-1.521,0.68-2.153,1.895-1.894,3.643
			l1.116,4.179l0.146,0.583v0.389l0.097,0.097v0.097l0.195,0.389h0.098v0.195h0.097l0.097,0.097h0.099l0.097,0.098h0.389
			c0.177,0,0.34-0.033,0.486-0.098l0.097-0.049l0.097-0.048l2.915-1.749c1.1-0.907,1.457-1.977,1.068-3.207l-0.291-1.457
			l-1.167-3.983 M523.515,467.139l0.097-0.049l2.965-1.7l0.047-0.049c1.03-0.927,1.355-1.995,0.972-3.206l-0.29-1.457l-1.167-3.983
			l-0.194-0.194v-0.098h-0.097v-0.097h-0.099l-0.097-0.097h-0.097c-0.26-0.13-0.421-0.162-0.485-0.098h-0.097l-0.098,0.098h-0.195
			l-0.097,0.097h-0.097l-1.652,0.875l-0.583,0.437c-1.292,0.658-1.875,1.873-1.747,3.643l1.115,4.081l0.243,1.166l0.195,0.39h0.097
			v0.097l0.097,0.097c0.454,0.324,0.907,0.324,1.36,0 M524.68,456.209l-0.193,0.097"/>
		<path fill-rule="evenodd" clip-rule="evenodd" fill="none" stroke="#2D2C2E" stroke-width="0.55" stroke-miterlimit="5" d="
			M644.863,419.096c-0.519,0.129-0.939,0-1.264-0.39c-0.325-0.323-0.454-0.745-0.39-1.263"/>
		
			<polyline fill-rule="evenodd" clip-rule="evenodd" fill="none" stroke="#2D2C2E" stroke-width="0.55" stroke-miterlimit="5" points="
			662.738,408.699 663.419,408.02 664.002,407.242 664.391,406.367 		"/>
		
			<line fill-rule="evenodd" clip-rule="evenodd" fill="none" stroke="#2D2C2E" stroke-width="0.55" stroke-miterlimit="5" x1="619.796" y1="435.223" x2="602.404" y2="445.229"/>
		
			<line fill-rule="evenodd" clip-rule="evenodd" fill="none" stroke="#2D2C2E" stroke-width="0.55" stroke-miterlimit="5" x1="662.738" y1="408.699" x2="644.863" y2="419.096"/>
		
			<line fill-rule="evenodd" clip-rule="evenodd" fill="none" stroke="#2D2C2E" stroke-width="0.55" stroke-miterlimit="5" x1="229.424" y1="658.583" x2="210.188" y2="669.756"/>
		<path fill-rule="evenodd" clip-rule="evenodd" fill="none" stroke="#2D2C2E" stroke-width="0.25" stroke-miterlimit="5" d="
			M263.623,577.75l9.716-5.537 M247.884,586.884l9.716-5.539 M342.611,532.281l9.715-5.635 M326.774,541.414l9.716-5.634
			 M311.035,550.45l9.715-5.539 M295.296,559.583l9.715-5.539 M279.459,568.714l9.715-5.634 M500.391,441.246l9.716-5.635
			 M484.652,450.282l9.716-5.636 M468.815,459.415l9.716-5.635 M453.077,468.547l9.715-5.635 M421.501,486.715l9.715-5.635
			 M405.664,495.849l9.813-5.636 M389.926,504.98l9.715-5.635 M374.187,514.017l9.715-5.538 M420.238,548.797l9.619-5.537
			 M404.499,557.931l9.716-5.635 M388.76,566.967l9.618-5.636 M373.021,576.001l9.715-5.537 M498.837,503.426l9.716-5.538
			 M483.098,512.56l9.717-5.636 M467.358,521.595l9.716-5.635 M451.716,530.63l9.619-5.538 M437.337,477.68l9.716-5.635
			 M435.977,539.763l9.619-5.636 M358.35,523.148l9.715-5.538 M357.378,585.134l9.618-5.634 M687.805,344.285l-3.4-5.732
			l-3.304-4.274 M691.205,376.249l0.778-1.554l0.776-2.333l0.389-1.845 M687.611,380.038l3.302-3.206l-4.372-2.526 M676.535,390.435
			l6.801-6.413 M693.44,363.036l-0.777-5.247l-1.847-6.509 M579.38,395.68l9.715-5.635 M663.613,321.259l-0.875-0.292l-2.33-0.486
			l-2.332-0.098l-1.361,0.098 M649.137,324.368l-1.651,2.234l-1.554,3.886 M646.514,348.171l0.097,0.777l1.021,2.963l0.146-0.048
			l4.469,2.624 M645.057,340.496l0.485,3.499 M675.953,328.74l-0.585-0.583l-4.177-3.206 M626.889,361.676l9.812-4.566
			 M621.253,370.031l-5.44-3.109v2.333 M615.812,366.922l4.955-2.332 M610.955,377.415l4.857-2.817v-2.332 M663.516,394.417
			l5.344,3.206l3.4-3.206 M656.618,390.531l-10.883-6.315 M666.624,362.745l-8.938-5.053 M647.631,351.912l-4.81,2.284
			 M638.935,380.33l-10.88-6.315 M595.118,386.548l9.716-5.635 M636.409,424.05l4.275-2.429 M626.889,429.588l4.177-2.429
			 M668.374,405.59l0.485-0.291v-2.332 M667.209,406.367l0.485-0.291 M547.804,413.849l9.716-5.538 M531.967,422.981l9.716-5.635
			 M577.437,458.152l9.716-5.636 M561.696,467.188l9.715-5.635 M545.957,476.223l9.716-5.538 M530.315,485.355l9.619-5.636
			 M593.175,449.019l4.761-2.72 M563.542,404.717l9.716-5.538 M681.004,371.1l-8.841-5.149 M668.859,399.955v-2.332
			 M516.229,432.113l9.715-5.635 M514.479,494.391l9.716-5.635 M168.993,632.45l9.716-5.636 M184.732,623.316l9.716-5.539
			 M151.602,638.666l-5.44-3.108l-4.081,3.207 M158.015,638.765l4.858-2.817 M161.803,685.787l-9.423,2.429 M128.479,649.257
			l8.356-6.509 M176.669,680.443l-8.162,3.4l-0.875,0.195 M199.306,669.369v-3.11l-3.79,3.012 M201.637,674.906l-2.331,1.36v-3.11
			 M199.306,666.259l-5.441-3.205 M190.659,672.963l-8.453,4.857 M187.064,659.168l-10.881-6.315 M169.382,648.867l-10.882-6.216
			 M116.043,660.915l7.481-7.479 M112.934,672.574l-5.246-3.304l3.691-3.691 M146.356,689.286l-4.761,0.873l-5.246-3.205
			 M129.84,682.971l-10.396-6.414 M325.9,603.204l9.715-5.537 M310.16,612.338l9.716-5.635 M294.421,621.374l9.716-5.636
			 M216.308,605.147l9.716-5.634 M204.552,673.255l2.332-1.36 M262.943,639.541l9.716-5.634 M247.3,648.577l9.619-5.539
			 M236.419,654.893l4.858-2.818 M278.779,630.507l9.619-5.636 M232.145,596.017l9.715-5.636 M200.569,614.28l9.715-5.634
			 M341.639,594.17l9.715-5.636"/>
		<path fill-rule="evenodd" clip-rule="evenodd" fill="none" stroke="#2D2C2E" stroke-width="0.5" stroke-miterlimit="5" d="
			M216.696,568.132c-0.324,0-0.518,0.032-0.583,0.097l-2.429,1.457 M214.268,577.071l-0.292,4.372l0.098,1.747 M205.523,575.128
			l-0.194,0.583l-0.389,0.582l-1.068,2.235 M207.175,573.378l2.915-1.65 M215.725,572.114l0.972-2.33l0.486-0.485l0.098-0.585
			 M555.965,376.056l1.166-2.624l0.389-0.583l0.097-0.097 M556.741,371.684l-0.097,0.097h-0.097l-0.097,0.097l-2.332,1.36
			 M554.799,390.531l0.389,2.234 M542.751,388.006l-0.194,3.497 M543.043,396.943l0.389,2.235 M545.957,378.678l-0.193,0.584
			l-0.485,0.582l-1.264,2.818 M554.701,381.204l-0.389,3.596 M547.512,376.93l3.012-1.652 M558.491,403.259l0.875,2.04l0.097,0.486
			v0.776 M558.491,408.311l-0.39,0.292l-0.436,0.243l-1.41,0.729 M553.051,411.518l-2.139,1.263l-0.875,0.194 M546.735,409.768
			l0.583,1.555l0.193,0.389l0.292,0.389l0.486,0.486 M544.111,402.384l1.167,3.887 M555.965,395.973l1.263,4.177 M182.109,587.854
			l2.234-1.264 M202.512,583.482l-0.389,4.372l0.098,1.748 M183.275,590.77l1.068-2.235l0.389-0.582c0.129,0,0.292-0.13,0.486-0.39
			 M174.531,592.227l4.372-2.525 M181.915,595.821l-0.291,4.274l0.097,1.75 M167.05,597.085l-0.291,0.389l-0.194,0.583l-0.389,0.582
			l-1.068,2.235 M168.021,595.918l0.389-0.291l0.583-0.195l2.234-1.262 M182.206,606.604l1.555,6.315 M176.475,628.757l3.691-2.137
			 M168.702,630.894l-0.292-0.387l-1.264-2.915 M170.937,631.672h0.389l2.331-1.264 M185.704,623.414l-0.389,0.292l-2.331,1.262
			 M185.315,617.487l1.263,2.915l0.098,0.485v0.486 M163.747,605.829l-0.292,4.372l0.098,1.747 M164.039,616.709l1.554,6.315
			 M217.668,598.735l1.069,2.625l0.194,0.387l0.097,0.485v0.682 M209.702,609.423l0.388-0.097l2.526-1.36 M205.912,605.246
			l1.068,2.525 M215.919,606.022l2.138-1.262l-0.389,0.29 M214.656,587.952l1.458,6.218 M202.803,594.363l1.458,6.315"/>
		<path fill-rule="evenodd" clip-rule="evenodd" fill="none" stroke="#2D2C2E" stroke-width="0.5" stroke-miterlimit="5" d="
			M157.82,621.374l-1.554-1.068l-0.68-0.195 M160.152,628.271l1.749-0.972 M162.969,626.036h-0.097v0.292h-0.098 M162.289,624.579
			l-1.458-1.263 M150.63,621.277l1.652-0.972h0.098l0.097-0.099h0.292l0.098-0.097 M153.934,620.013h0.777 M146.065,623.899h0.097
			l0.194-0.193h0.097l1.652-0.972 M144.996,625.356h0.098v-0.193h0.097v-0.195h0.097v-0.097l0.098-0.097 M146.842,628.368
			l-1.652-1.165 M149.562,630.117l1.36,1.263l0.972,0.099 M153.352,631.479h0.486v-0.099h0.486l0.097-0.097 M155.877,630.797
			l1.652-0.972"/>
		<path fill-rule="evenodd" clip-rule="evenodd" fill="none" stroke="#2D2C2E" stroke-width="0.5" stroke-miterlimit="5" d="
			M81.844,704.928c4.081-3.433,8.549-1.718,13.407,5.148c4.793,6.801,5.636,12.243,2.527,16.322"/>
	</g>
</g>
</svg>
