<?xml version="1.0" encoding="utf-8"?>
<!-- Generator: Adobe Illustrator 16.2.1, SVG Export Plug-In . SVG Version: 6.00 Build 0)  -->
<!DOCTYPE svg PUBLIC "-//W3C//DTD SVG 1.1//EN" "http://www.w3.org/Graphics/SVG/1.1/DTD/svg11.dtd">
<svg version="1.1" id="Selected_Items" xmlns="http://www.w3.org/2000/svg" xmlns:xlink="http://www.w3.org/1999/xlink" x="0px"
	 y="0px" width="868.65px" height="487.15px" viewBox="0 0 868.65 487.15" enable-background="new 0 0 868.65 487.15"
	 xml:space="preserve">
<g id="right_wing" class="border">
	<g>
		<path fill-rule="evenodd" clip-rule="evenodd" fill="#B1B1B1" d="M411.4,41.65V67.7c0,6.5-3.25,9.75-9.75,9.75H375.6
			c-6.5,0-9.75-3.25-9.75-9.75V41.65c0-6.5,3.25-9.75,9.75-9.75h26.05C408.15,31.9,411.4,35.15,411.4,41.65z M381.35,72.55h13.95
			V58.3h10.45l-17.4-24.4L370.9,58.3h10.45V72.55z"/>
		<polygon fill-rule="evenodd" clip-rule="evenodd" fill="#0099FF" points="381.35,72.55 381.35,58.3 370.9,58.3 388.35,33.9 
			405.75,58.3 395.3,58.3 395.3,72.55 		"/>
		<path fill-rule="evenodd" clip-rule="evenodd" fill="none" stroke="#999999" stroke-width="1.5" stroke-miterlimit="5" d="
			M411.4,41.65c0-6.5-3.25-9.75-9.75-9.75H375.6c-6.5,0-9.75,3.25-9.75,9.75V67.7c0,6.5,3.25,9.75,9.75,9.75h26.05
			c6.5,0,9.75-3.25,9.75-9.75V41.65z"/>
	</g>
	<text transform="matrix(1 0 0 1 369.3599 91.2051)"><tspan x="0" y="0" font-family="'Tahoma-Bold'" font-size="14">Right</tspan><tspan x="0.796" y="17" font-family="'Tahoma-Bold'" font-size="14">Wing</tspan></text>
</g>
<g id="vert_stab" class="border">
	<g>
		<path fill-rule="evenodd" clip-rule="evenodd" fill="#B1B1B1" d="M814.7,263.3v13.95h14.25v10.45l24.399-17.4l-24.399-17.45v10.45
			H814.7z M809.8,257.55c0-6.5,3.25-9.75,9.75-9.75h26.05c6.5,0,9.75,3.25,9.75,9.75v26.05c0,6.5-3.25,9.75-9.75,9.75h-26.05
			c-6.5,0-9.75-3.25-9.75-9.75V257.55z"/>
		<polygon fill-rule="evenodd" clip-rule="evenodd" fill="#0099FF" points="814.7,263.3 828.95,263.3 828.95,252.85 853.35,270.3 
			828.95,287.7 828.95,277.25 814.7,277.25 		"/>
		<path fill-rule="evenodd" clip-rule="evenodd" fill="none" stroke="#999999" stroke-width="1.5" stroke-miterlimit="5" d="
			M809.8,257.55v26.05c0,6.5,3.25,9.75,9.75,9.75h26.05c6.5,0,9.75-3.25,9.75-9.75v-26.05c0-6.5-3.25-9.75-9.75-9.75h-26.05
			C813.05,247.8,809.8,251.05,809.8,257.55z"/>
	</g>
	<text transform="matrix(1 0 0 1 816.6855 306.7549)"><tspan x="0" y="0" font-family="'Tahoma-Bold'" font-size="14">Rear</tspan><tspan x="-16.758" y="17" font-family="'Tahoma-Bold'" font-size="14">Fuselage </tspan></text>
</g>
<g id="left_wing" class="border">
	<g>
		<path fill-rule="evenodd" clip-rule="evenodd" fill="#B1B1B1" d="M409.35,450.6v26.051c0,6.5-3.25,9.75-9.75,9.75h-26.05
			c-6.5,0-9.75-3.25-9.75-9.75V450.6c0-6.5,3.25-9.75,9.75-9.75h26.05C406.1,440.85,409.35,444.1,409.35,450.6z M393.85,445.75
			H379.9V460h-10.45l17.4,24.4L404.3,460h-10.45V445.75z"/>
		<polygon fill-rule="evenodd" clip-rule="evenodd" fill="#0099FF" points="393.85,445.75 393.85,460 404.3,460 386.85,484.4 
			369.45,460 379.9,460 379.9,445.75 		"/>
		<path fill-rule="evenodd" clip-rule="evenodd" fill="none" stroke="#999999" stroke-width="1.5" stroke-miterlimit="5" d="
			M409.35,450.6c0-6.5-3.25-9.75-9.75-9.75h-26.05c-6.5,0-9.75,3.25-9.75,9.75v26.051c0,6.5,3.25,9.75,9.75,9.75h26.05
			c6.5,0,9.75-3.25,9.75-9.75V450.6z"/>
	</g>
	<text transform="matrix(1 0 0 1 373.603 418.2051)"><tspan x="0" y="0" font-family="'Tahoma-Bold'" font-size="14">Left</tspan><tspan x="-4.447" y="17" font-family="'Tahoma-Bold'" font-size="14">Wing</tspan></text>
</g>
<g id="nose" class="border">
	<g>
		<path fill-rule="evenodd" clip-rule="evenodd" fill="#B1B1B1" d="M31.15,274.8H45.4v-13.95H31.15V250.4L6.75,267.8l24.4,17.45
			V274.8z M14.5,290.3c-6.5,0-9.75-3.25-9.75-9.75V254.5c0-6.5,3.25-9.75,9.75-9.75h26.05c6.5,0,9.75,3.25,9.75,9.75v26.05
			c0,6.5-3.25,9.75-9.75,9.75H14.5z"/>
		<polygon fill-rule="evenodd" clip-rule="evenodd" fill="#0099FF" points="31.15,274.8 31.15,285.25 6.75,267.8 31.15,250.4 
			31.15,260.85 45.4,260.85 45.4,274.8 		"/>
		<path fill-rule="evenodd" clip-rule="evenodd" fill="none" stroke="#999999" stroke-width="1.5" stroke-miterlimit="5" d="
			M14.5,290.3h26.05c6.5,0,9.75-3.25,9.75-9.75V254.5c0-6.5-3.25-9.75-9.75-9.75H14.5c-6.5,0-9.75,3.25-9.75,9.75v26.05
			C4.75,287.05,8,290.3,14.5,290.3z"/>
	</g>
	<text transform="matrix(1 0 0 1 6.5264 304.0547)" font-family="'Tahoma-Bold'" font-size="14">Nose </text>
</g>
<g>
	<g>
		<path fill-rule="evenodd" clip-rule="evenodd" fill="#CCCCCC" d="M653.2,182.6c0-2.934,1.05-5.417,3.149-7.45
			c2.034-2.1,4.517-3.15,7.45-3.15c2.505,0,4.696,0.767,6.575,2.3c0.314,0.26,0.623,0.543,0.925,0.85
			c2.101,2.033,3.15,4.517,3.15,7.45c0,2.967-1.05,5.467-3.15,7.5c-2.066,2.1-4.566,3.15-7.5,3.15s-5.416-1.05-7.45-3.15
			C654.25,188,653.2,185.5,653.2,182.6z"/>
		
			<line fill-rule="evenodd" clip-rule="evenodd" fill="none" stroke="#000000" stroke-width="0.2" stroke-linecap="round" stroke-linejoin="round" stroke-miterlimit="3" x1="670.375" y1="174.3" x2="691.95" y2="140.75"/>
	</g>
	<text transform="matrix(1.0009 0 0 1 672.6836 136.4297)" font-family="'Tahoma'" font-size="14.3784">262LT</text>
</g>
<g>
	<g>
		<path fill-rule="evenodd" clip-rule="evenodd" fill="#CCCCCC" d="M706.6,190.1c-2.1-2.1-3.149-4.6-3.149-7.5
			c0-2.934,1.05-5.417,3.149-7.45c2.034-2.1,4.517-3.15,7.45-3.15s5.434,1.05,7.5,3.15c1.725,1.669,2.741,3.645,3.05,5.925
			c0.067,0.491,0.101,1,0.101,1.525c0,2.967-1.05,5.467-3.15,7.5c-2.066,2.1-4.566,3.15-7.5,3.15S708.634,192.2,706.6,190.1z"/>
		
			<line fill-rule="evenodd" clip-rule="evenodd" fill="none" stroke="#000000" stroke-width="0.2" stroke-linecap="round" stroke-linejoin="round" stroke-miterlimit="3" x1="724.6" y1="181.075" x2="788.2" y2="188.6"/>
	</g>
	<text transform="matrix(1.002 0 0 1 788.8301 193.4297)" font-family="'Tahoma'" font-size="14.3784">262MT</text>
</g>
<g>
	<g>
		<polygon fill-rule="evenodd" clip-rule="evenodd" fill="#CCCCCC" points="587.6,279.6 537.1,288.35 537.1,249.55 587.6,258.35 		
			"/>
		
			<line fill-rule="evenodd" clip-rule="evenodd" fill="none" stroke="#000000" stroke-width="0.2" stroke-linecap="round" stroke-linejoin="round" stroke-miterlimit="3" x1="588.3" y1="268.95" x2="716.85" y2="268.55"/>
	</g>
	<text transform="matrix(1.0017 0 0 1 719.1309 272.6299)" font-family="'Tahoma'" font-size="14.3784">262GT</text>
</g>
<g>
	<g>
		<polygon fill-rule="evenodd" clip-rule="evenodd" fill="#CCCCCC" points="590.7,194.5 630.8,197.5 630.8,222.1 590.7,222.1 		"/>
		
			<line fill-rule="evenodd" clip-rule="evenodd" fill="none" stroke="#000000" stroke-width="0.2" stroke-linecap="round" stroke-linejoin="round" stroke-miterlimit="3" x1="612.75" y1="195.6" x2="638.05" y2="144.2"/>
	</g>
	<text transform="matrix(1.0013 0 0 1 618.1318 140.5796)" font-family="'Tahoma'" font-size="14.3784">262KT</text>
</g>
<g>
	<g>
		<path fill-rule="evenodd" clip-rule="evenodd" fill="#CCCCCC" d="M721.3,347.95c1.724,1.668,2.74,3.644,3.05,5.925
			c0.067,0.49,0.101,0.998,0.101,1.525c0,2.966-1.05,5.466-3.15,7.5c-2.066,2.1-4.566,3.149-7.5,3.149s-5.416-1.05-7.45-3.149
			c-2.1-2.101-3.149-4.601-3.149-7.5c0-2.934,1.05-5.417,3.149-7.45c2.034-2.101,4.517-3.15,7.45-3.15S719.233,345.85,721.3,347.95z
			"/>
		
			<line fill-rule="evenodd" clip-rule="evenodd" fill="none" stroke="#000000" stroke-width="0.2" stroke-linecap="round" stroke-linejoin="round" stroke-miterlimit="3" x1="724.35" y1="353.875" x2="787" y2="375.95"/>
	</g>
	<text transform="matrix(1.0013 0 0 1 788.6816 381.8789)" font-family="'Tahoma'" font-size="14.3784">262ET</text>
</g>
<g>
	<g>
		<path fill-rule="evenodd" clip-rule="evenodd" fill="#CCCCCC" d="M674.7,355.65c0,2.773-0.917,5.14-2.75,7.1
			c-0.13,0.134-0.264,0.268-0.4,0.4c-2.066,2.1-4.566,3.149-7.5,3.149s-5.416-1.05-7.45-3.149c-2.1-2.101-3.149-4.601-3.149-7.5
			c0-2.934,1.05-5.417,3.149-7.45c2.034-2.101,4.517-3.15,7.45-3.15s5.434,1.05,7.5,3.15C673.65,350.233,674.7,352.717,674.7,355.65
			z"/>
		
			<line fill-rule="evenodd" clip-rule="evenodd" fill="none" stroke="#000000" stroke-width="0.2" stroke-linecap="round" stroke-linejoin="round" stroke-miterlimit="3" x1="671.95" y1="362.75" x2="713.25" y2="388.2"/>
	</g>
	<text transform="matrix(1.0016 0 0 1 698.6816 402.2793)" font-family="'Tahoma'" font-size="14.3784">262DT</text>
</g>
<g>
	<g>
		<polygon fill-rule="evenodd" clip-rule="evenodd" fill="#CCCCCC" points="630.6,340.4 590.7,343.4 590.7,315.8 630.6,315.8 		"/>
		
			<line fill-rule="evenodd" clip-rule="evenodd" fill="none" stroke="#000000" stroke-width="0.2" stroke-linecap="round" stroke-linejoin="round" stroke-miterlimit="3" x1="609.8" y1="342.55" x2="636.9" y2="399.55"/>
	</g>
	<text transform="matrix(1.0016 0 0 1 617.7812 413.7793)" font-family="'Tahoma'" font-size="14.3784">262CT</text>
</g>
<g>
	<g>
		<polygon fill-rule="evenodd" clip-rule="evenodd" fill="#CCCCCC" points="587.6,161.5 587.6,254.45 536.75,245.4 536.75,161.5 		
			"/>
		
			<line fill-rule="evenodd" clip-rule="evenodd" fill="none" stroke="#000000" stroke-width="0.2" stroke-linecap="round" stroke-linejoin="round" stroke-miterlimit="3" x1="555.7" y1="161.05" x2="573.9" y2="117.35"/>
	</g>
	<text transform="matrix(1.0009 0 0 1 555.5332 112.9805)" font-family="'Tahoma'" font-size="14.3784">262JT</text>
</g>
<g>
	<g>
		<polygon fill-rule="evenodd" clip-rule="evenodd" fill="#CCCCCC" points="556.25,376.2 536.75,376.2 536.75,292.3 587.6,283.25 
			587.6,376.2 		"/>
		
			<line fill-rule="evenodd" clip-rule="evenodd" fill="none" stroke="#000000" stroke-width="0.2" stroke-linecap="round" stroke-linejoin="round" stroke-miterlimit="3" x1="556.25" y1="376.2" x2="560.05" y2="402"/>
	</g>
	<text transform="matrix(1.0013 0 0 1 539.7314 414.7793)" font-family="'Tahoma'" font-size="14.3784">262BT</text>
</g>
<g>
	<g>
		<rect x="490.55" y="292.15" fill-rule="evenodd" clip-rule="evenodd" fill="#CCCCCC" width="43.45" height="84.25"/>
		
			<line fill-rule="evenodd" clip-rule="evenodd" fill="none" stroke="#000000" stroke-width="0.2" stroke-linecap="round" stroke-linejoin="round" stroke-miterlimit="3" x1="490.55" y1="376.4" x2="473.45" y2="396"/>
	</g>
	<text transform="matrix(1.0013 0 0 1 453.4316 409.7793)" font-family="'Tahoma'" font-size="14.3784">262AT</text>
</g>
<g>
	<g>
		<polygon fill-rule="evenodd" clip-rule="evenodd" fill="#CCCCCC" points="490.7,288.35 490.7,269.85 490.7,249.55 534,249.55 
			534,288.35 		"/>
		
			<line fill-rule="evenodd" clip-rule="evenodd" fill="none" stroke="#000000" stroke-width="0.2" stroke-linecap="round" stroke-linejoin="round" stroke-miterlimit="3" x1="463.15" y1="269.85" x2="490.7" y2="269.85"/>
	</g>
	<text transform="matrix(1.0013 0 0 1 422.1812 274.3789)" font-family="'Tahoma'" font-size="14.3784">262FT</text>
</g>
<g>
	<g>
		<polygon fill-rule="evenodd" clip-rule="evenodd" fill="#CCCCCC" points="490.55,161.45 490.55,161.1 534,161.1 534,245.35 
			490.55,245.35 		"/>
		
			<line fill-rule="evenodd" clip-rule="evenodd" fill="none" stroke="#000000" stroke-width="0.2" stroke-linecap="round" stroke-linejoin="round" stroke-miterlimit="3" x1="458.25" y1="136.9" x2="490.55" y2="161.45"/>
	</g>
	<text transform="matrix(1.0016 0 0 1 436.6318 132.9805)" font-family="'Tahoma'" font-size="14.3784">262HT</text>
</g>
<g>
	<g>
		<rect x="251.5" y="124.85" fill-rule="evenodd" clip-rule="evenodd" fill="#CCCCCC" width="32.7" height="76"/>
		
			<line fill-rule="evenodd" clip-rule="evenodd" fill="none" stroke="#000000" stroke-width="0.2" stroke-linecap="round" stroke-linejoin="round" stroke-miterlimit="3" x1="265.85" y1="124.4" x2="261.6" y2="112.7"/>
	</g>
	<text transform="matrix(1.0009 0 0 1 241.9834 108.8799)" font-family="'Tahoma'" font-size="14.3784">261LT</text>
</g>
<g>
	<g>
		<polygon fill-rule="evenodd" clip-rule="evenodd" fill="#CCCCCC" points="284.2,310 283.4,310.4 284.2,310 284.2,334.3 
			251.5,334.3 251.5,271.1 284.2,271.1 		"/>
		
			<path fill-rule="evenodd" clip-rule="evenodd" fill="none" stroke="#000000" stroke-width="0.2" stroke-linecap="round" stroke-linejoin="round" stroke-miterlimit="3" d="
			M284.2,310l30.75-14.9 M284.2,310l-0.8,0.4"/>
	</g>
	<text transform="matrix(1.0013 0 0 1 316.3311 300.3301)" font-family="'Tahoma'" font-size="14.3784">261FT</text>
</g>
<g>
	<g>
		<polygon fill-rule="evenodd" clip-rule="evenodd" fill="#CCCCCC" points="284.2,230.725 284.2,266.7 251.5,266.7 251.5,203.5 
			284.2,203.5 284.2,230.725 283.95,230.6 		"/>
		
			<path fill-rule="evenodd" clip-rule="evenodd" fill="none" stroke="#000000" stroke-width="0.2" stroke-linecap="round" stroke-linejoin="round" stroke-miterlimit="3" d="
			M284.2,230.725l-0.25-0.125 M314.45,245.9l-30.25-15.175"/>
	</g>
	<text transform="matrix(1.0016 0 0 1 316.4316 251.2793)" font-family="'Tahoma'" font-size="14.3784">261HT</text>
</g>
<g>
	<g>
		<rect x="251.5" y="337" fill-rule="evenodd" clip-rule="evenodd" fill="#CCCCCC" width="32.7" height="76"/>
		
			<line fill-rule="evenodd" clip-rule="evenodd" fill="none" stroke="#000000" stroke-width="0.2" stroke-linecap="round" stroke-linejoin="round" stroke-miterlimit="3" x1="263.8" y1="413.5" x2="257.25" y2="433.85"/>
	</g>
	<text transform="matrix(1.0016 0 0 1 235.8818 447.6797)" font-family="'Tahoma'" font-size="14.3784">261CT</text>
</g>
<g>
	<g>
		<rect x="211.45" y="337" fill-rule="evenodd" clip-rule="evenodd" fill="#CCCCCC" width="37.6" height="20.1"/>
		
			<line fill-rule="evenodd" clip-rule="evenodd" fill="none" stroke="#000000" stroke-width="0.2" stroke-linecap="round" stroke-linejoin="round" stroke-miterlimit="3" x1="230.2" y1="357.5" x2="150.5" y2="440.65"/>
	</g>
	<text transform="matrix(1.0013 0 0 1 130.7812 453.9297)" font-family="'Tahoma'" font-size="14.3784">261BT</text>
</g>
<g>
	<g>
		<path fill-rule="evenodd" clip-rule="evenodd" fill="#CCCCCC" d="M181.45,362.65c0-2.934,1.05-5.417,3.15-7.45
			c2.033-2.101,4.517-3.15,7.45-3.15c2.934,0,5.434,1.05,7.5,3.15c2.1,2.033,3.15,4.517,3.15,7.45c0,2.966-1.05,5.466-3.15,7.5
			c-2.066,2.1-4.566,3.149-7.5,3.149c-2.933,0-5.417-1.05-7.45-3.149C182.5,368.05,181.45,365.55,181.45,362.65z"/>
		
			<line fill-rule="evenodd" clip-rule="evenodd" fill="none" stroke="#000000" stroke-width="0.2" stroke-linecap="round" stroke-linejoin="round" stroke-miterlimit="3" x1="185.45" y1="371.7" x2="138.5" y2="399.9"/>
	</g>
	<text transform="matrix(1.0013 0 0 1 97.1318 404.6797)" font-family="'Tahoma'" font-size="14.3784">261AT</text>
</g>
<g>
	<g>
		<path fill-rule="evenodd" clip-rule="evenodd" fill="#CCCCCC" d="M181.75,304.825l1.85-0.476L181.75,304.825
			c-0.033-0.301-0.05-0.608-0.05-0.925c0-2.934,1.05-5.417,3.15-7.45c2.033-2.101,4.517-3.15,7.45-3.15c2.934,0,5.434,1.05,7.5,3.15
			c2.1,2.033,3.15,4.517,3.15,7.45c0,2.966-1.05,5.466-3.15,7.5c-2.066,2.1-4.566,3.149-7.5,3.149c-2.933,0-5.417-1.05-7.45-3.149
			C182.979,309.529,181.946,307.338,181.75,304.825z"/>
		
			<path fill-rule="evenodd" clip-rule="evenodd" fill="none" stroke="#000000" stroke-width="0.2" stroke-linecap="round" stroke-linejoin="round" stroke-miterlimit="3" d="
			M181.75,304.825l1.85-0.476 M127.5,318.7l53.25-13.851"/>
	</g>
	<text transform="matrix(1.0016 0 0 1 84.7314 324.2793)" font-family="'Tahoma'" font-size="14.3784">261DT</text>
</g>
<g>
	<g>
		<polygon fill-rule="evenodd" clip-rule="evenodd" fill="#CCCCCC" points="211.2,266.6 211.2,204.2 248.5,204.2 248.5,333.8 
			211.2,333.8 		"/>
		
			<line fill-rule="evenodd" clip-rule="evenodd" fill="none" stroke="#000000" stroke-width="0.2" stroke-linecap="round" stroke-linejoin="round" stroke-miterlimit="3" x1="211.2" y1="266.6" x2="116.15" y2="266.8"/>
	</g>
	<text transform="matrix(1.0013 0 0 1 74.8311 272.0293)" font-family="'Tahoma'" font-size="14.3784">261ET</text>
</g>
<g>
	<g>
		<path fill-rule="evenodd" clip-rule="evenodd" fill="#CCCCCC" d="M181.65,233.9c0-2.933,1.05-5.417,3.15-7.45
			c2.034-2.1,4.517-3.15,7.45-3.15s5.433,1.05,7.5,3.15c2.1,2.033,3.15,4.517,3.15,7.45c0,2.967-1.05,5.467-3.15,7.5
			c-2.067,2.1-4.567,3.15-7.5,3.15s-5.417-1.05-7.45-3.15C182.7,239.3,181.65,236.8,181.65,233.9z"/>
		
			<line fill-rule="evenodd" clip-rule="evenodd" fill="none" stroke="#000000" stroke-width="0.2" stroke-linecap="round" stroke-linejoin="round" stroke-miterlimit="3" x1="127.55" y1="220.4" x2="180.75" y2="234.25"/>
	</g>
	<text transform="matrix(1.0017 0 0 1 84.6816 224.9805)" font-family="'Tahoma'" font-size="14.3784">261GT</text>
</g>
<g>
	<text transform="matrix(1.0009 0 0 1 101.584 141.6797)" font-family="'Tahoma'" font-size="14.3784">261JT</text>
	<g>
		<g>
			<path fill-rule="evenodd" clip-rule="evenodd" fill="#CCCCCC" d="M184.85,182.4c-2.1-2.1-3.15-4.6-3.15-7.5
				c0-2.933,1.05-5.417,3.15-7.45c2.033-2.1,4.517-3.15,7.45-3.15c2.934,0,5.434,1.05,7.5,3.15c2.1,2.033,3.15,4.517,3.15,7.45
				c0,2.967-1.05,5.467-3.15,7.5c-2.066,2.1-4.566,3.15-7.5,3.15C189.367,185.55,186.883,184.5,184.85,182.4z"/>
		</g>
		
			<line fill-rule="evenodd" clip-rule="evenodd" fill="none" stroke="#000000" stroke-width="0.2" stroke-linecap="round" stroke-linejoin="round" stroke-miterlimit="3" x1="182.827" y1="170.388" x2="140.411" y2="136.794"/>
	</g>
</g>
<g>
	<g>
		<rect x="210.95" y="180.7" fill-rule="evenodd" clip-rule="evenodd" fill="#CCCCCC" width="37.55" height="20.15"/>
		
			<line fill-rule="evenodd" clip-rule="evenodd" fill="none" stroke="#000000" stroke-width="0.2" stroke-linecap="round" stroke-linejoin="round" stroke-miterlimit="3" x1="227.15" y1="180.4" x2="182.85" y2="104.55"/>
	</g>
	<text transform="matrix(1.0013 0 0 1 161.8311 100.48)" font-family="'Tahoma'" font-size="14.3784">261KT</text>
</g>
<text id="border" class="svg_name_heading cp" transform="matrix(1 0 0 1 79.6001 14.7051)"><tspan x="0" y="0" fill="#0000FF" font-family="'Tahoma-Bold'" font-size="14">Fuselage To Wing Fairing</tspan>
<tspan x="0" y="20" fill="#0000FF" font-family="'Tahoma'" font-size="13" class="downloadpdf" data-id="06-41-00-992-803" >AMM TASK 06-41-00-992-803</tspan></text>
<g id="border">
	<g>
		<path fill-rule="evenodd" clip-rule="evenodd" fill="none" stroke="#1A171B" stroke-width="0.5" stroke-miterlimit="6.92" d="
			M653.25,182.9c0,2.133,0.566,4.05,1.7,5.75l1.3,1.6c0.033,0.067,0.083,0.117,0.15,0.15l1.6,1.35c1.667,1.1,3.566,1.65,5.7,1.65
			c2.934,0,5.434-1.05,7.5-3.15c2.1-2.033,3.149-4.533,3.149-7.5c0-2.133-0.55-4.033-1.649-5.7l-1.351-1.6
			c-0.033-0.067-0.083-0.117-0.149-0.15L669.6,174c-1.699-1.133-3.616-1.7-5.75-1.7c-2.933,0-5.416,1.05-7.449,3.15
			C654.3,177.483,653.25,179.967,653.25,182.9z M669.6,174c-1.699-1.233-3.666-1.85-5.899-1.85c-2.934,0-5.417,1.05-7.45,3.15
			c-2.1,2.034-3.15,4.517-3.15,7.45c0,2.2,0.617,4.167,1.851,5.9 M658,191.75c1.667,1.2,3.616,1.8,5.85,1.8
			c2.934,0,5.434-1.05,7.5-3.15c2.101-2.033,3.15-4.533,3.15-7.5c0-2.233-0.6-4.183-1.8-5.85 M705.25,188.5l1.3,1.6
			c0.033,0.066,0.084,0.117,0.15,0.15l1.6,1.35c1.667,1.1,3.566,1.65,5.7,1.65c2.934,0,5.434-1.05,7.5-3.15
			c2.1-2.033,3.15-4.533,3.15-7.5c0-2.133-0.551-4.033-1.65-5.7l-1.35-1.6c-0.034-0.066-0.084-0.117-0.15-0.15l-1.6-1.3
			c-1.7-1.133-3.617-1.7-5.75-1.7c-2.934,0-5.417,1.05-7.45,3.15c-2.101,2.034-3.15,4.517-3.15,7.45
			C703.55,184.883,704.116,186.8,705.25,188.5z M719.9,173.85c-1.7-1.233-3.667-1.85-5.9-1.85c-2.934,0-5.417,1.05-7.45,3.15
			c-2.1,2.033-3.149,4.517-3.149,7.45c0,2.2,0.616,4.167,1.85,5.9 M708.3,191.6c1.667,1.2,3.617,1.8,5.851,1.8
			c2.933,0,5.433-1.05,7.5-3.15c2.1-2.033,3.149-4.533,3.149-7.5c0-2.233-0.6-4.183-1.8-5.85 M672.85,349.85l-1.35-1.6
			c-0.033-0.066-0.083-0.116-0.15-0.15l-1.6-1.3c-1.7-1.133-3.616-1.7-5.75-1.7c-2.934,0-5.417,1.051-7.45,3.15
			c-2.1,2.033-3.149,4.517-3.149,7.45c0,2.133,0.566,4.05,1.699,5.75l1.301,1.6c0.033,0.066,0.083,0.117,0.149,0.15l1.601,1.35
			c1.666,1.101,3.566,1.65,5.699,1.65c2.934,0,5.434-1.05,7.5-3.15c2.101-2.033,3.15-4.533,3.15-7.5
			C674.5,353.417,673.95,351.517,672.85,349.85z M658.15,364.55c1.666,1.2,3.616,1.8,5.85,1.8c2.934,0,5.434-1.05,7.5-3.149
			c2.1-2.033,3.15-4.533,3.15-7.5c0-2.233-0.601-4.184-1.801-5.851 M669.75,346.8c-1.7-1.233-3.667-1.85-5.9-1.85
			c-2.933,0-5.416,1.05-7.449,3.149c-2.101,2.034-3.15,4.517-3.15,7.45c0,2.2,0.616,4.167,1.85,5.9 M722.85,349.7l-1.35-1.601
			c-0.033-0.066-0.083-0.116-0.15-0.149l-1.6-1.3c-1.7-1.134-3.616-1.7-5.75-1.7c-2.934,0-5.417,1.05-7.45,3.149
			c-2.1,2.034-3.149,4.517-3.149,7.45c0,2.134,0.566,4.05,1.699,5.75l1.301,1.601c0.033,0.066,0.083,0.116,0.149,0.149l1.601,1.351
			c1.666,1.1,3.566,1.649,5.699,1.649c2.934,0,5.434-1.05,7.5-3.149c2.101-2.034,3.15-4.534,3.15-7.5
			C724.5,353.267,723.95,351.366,722.85,349.7z M708.15,364.4c1.666,1.199,3.616,1.8,5.85,1.8c2.934,0,5.434-1.05,7.5-3.15
			c2.1-2.033,3.15-4.533,3.15-7.5c0-2.233-0.601-4.184-1.801-5.85 M719.75,346.65c-1.7-1.233-3.667-1.851-5.9-1.851
			c-2.933,0-5.416,1.05-7.449,3.15c-2.101,2.033-3.15,4.517-3.15,7.45c0,2.199,0.616,4.166,1.85,5.899 M490.55,161.1v84.25H534
			V161.1H490.55z M590.7,194.5v27.6h40.1v-24.6L590.7,194.5z M587.6,161.5v92.95l-50.85-9.05v-83.9H587.6z M587.6,279.6l-50.5,8.75
			v-38.8l50.5,8.8V279.6z M490.7,288.35H534v-38.8h-43.3V288.35z M490.55,292.15v84.25H534v-84.25H490.55z M630.6,340.4l-39.899,3
			V315.8H630.6V340.4z M587.6,283.25l-50.85,9.05v83.9h50.85V283.25z M192.05,164.2c-2.933,0-5.417,1.05-7.45,3.15
			c-2.1,2.033-3.15,4.517-3.15,7.45c0,2.2,0.617,4.167,1.85,5.9c-1.133-1.7-1.7-3.617-1.7-5.75c0-2.934,1.05-5.417,3.15-7.45
			c2.033-2.1,4.517-3.15,7.45-3.15c2.133,0,4.05,0.566,5.75,1.7C196.25,164.817,194.283,164.2,192.05,164.2z M183.3,180.7l1.3,1.6
			c0.033,0.067,0.083,0.117,0.15,0.15l1.6,1.35c1.667,1.1,3.566,1.65,5.7,1.65c2.934,0,5.434-1.05,7.5-3.15
			c2.1-2.033,3.15-4.533,3.15-7.5c0-2.133-0.55-4.033-1.65-5.7l-1.35-1.6c-0.034-0.067-0.083-0.117-0.15-0.15l-1.6-1.3
			 M186.35,183.8c1.667,1.2,3.617,1.8,5.85,1.8c2.933,0,5.433-1.05,7.5-3.15c2.1-2.034,3.15-4.534,3.15-7.5
			c0-2.233-0.6-4.184-1.8-5.85 M192.4,223.35c-2.933,0-5.417,1.05-7.45,3.15c-2.1,2.033-3.15,4.517-3.15,7.45
			c0,2.133,0.567,4.05,1.7,5.75l1.3,1.6c0.034,0.067,0.083,0.117,0.15,0.15l1.6,1.35c1.667,1.1,3.567,1.65,5.7,1.65
			c2.933,0,5.433-1.05,7.5-3.15c2.1-2.033,3.15-4.533,3.15-7.5c0-2.133-0.55-4.033-1.65-5.7l-1.35-1.6
			c-0.033-0.067-0.083-0.117-0.15-0.15l-1.6-1.3C196.45,223.917,194.533,223.35,192.4,223.35z M198.15,225.05
			c-1.7-1.233-3.667-1.85-5.9-1.85c-2.933,0-5.417,1.05-7.45,3.15c-2.1,2.033-3.15,4.517-3.15,7.45c0,2.2,0.617,4.167,1.85,5.9
			 M186.55,242.8c1.667,1.2,3.617,1.8,5.85,1.8c2.934,0,5.434-1.05,7.5-3.15c2.1-2.034,3.15-4.534,3.15-7.5
			c0-2.233-0.6-4.184-1.8-5.85 M199.75,296.35l-1.6-1.3c-1.7-1.133-3.617-1.7-5.75-1.7c-2.933,0-5.417,1.051-7.45,3.15
			c-2.1,2.033-3.15,4.517-3.15,7.45c0,2.133,0.567,4.05,1.7,5.75l1.3,1.6c0.034,0.066,0.083,0.117,0.15,0.15l1.6,1.35
			c1.667,1.101,3.567,1.65,5.7,1.65c2.933,0,5.433-1.05,7.5-3.15c2.1-2.033,3.15-4.533,3.15-7.5c0-2.133-0.55-4.033-1.65-5.7
			l-1.35-1.6C199.867,296.434,199.817,296.384,199.75,296.35z M198.15,295.05c-1.7-1.233-3.667-1.85-5.9-1.85
			c-2.933,0-5.417,1.05-7.45,3.149c-2.1,2.034-3.15,4.517-3.15,7.45c0,2.2,0.617,4.167,1.85,5.9 M186.55,312.8
			c1.667,1.2,3.617,1.8,5.85,1.8c2.934,0,5.434-1.05,7.5-3.149c2.1-2.033,3.15-4.533,3.15-7.5c0-2.233-0.6-4.184-1.8-5.851
			 M199.65,355.5c-0.033-0.066-0.083-0.116-0.15-0.15l-1.6-1.3c-1.7-1.133-3.617-1.7-5.75-1.7c-2.933,0-5.417,1.051-7.45,3.15
			c-2.1,2.033-3.15,4.517-3.15,7.45c0,2.133,0.567,4.05,1.7,5.75l1.3,1.6c0.034,0.066,0.083,0.117,0.15,0.15l1.6,1.35
			c1.667,1.101,3.567,1.65,5.7,1.65c2.933,0,5.433-1.05,7.5-3.15c2.1-2.033,3.15-4.533,3.15-7.5c0-2.133-0.55-4.033-1.65-5.7
			L199.65,355.5z M197.9,354.05c-1.7-1.233-3.667-1.85-5.9-1.85c-2.933,0-5.417,1.05-7.45,3.149c-2.1,2.034-3.15,4.517-3.15,7.45
			c0,2.2,0.617,4.167,1.85,5.9 M186.3,371.8c1.667,1.2,3.617,1.8,5.85,1.8c2.934,0,5.434-1.05,7.5-3.149
			c2.1-2.033,3.15-4.533,3.15-7.5c0-2.233-0.6-4.184-1.8-5.851"/>
		
			<path fill-rule="evenodd" clip-rule="evenodd" fill="none" stroke="#000000" stroke-width="0.5" stroke-linecap="round" stroke-linejoin="round" stroke-miterlimit="3" d="
			M284.2,124.85v76h-32.7v-76H284.2z M248.5,180.7v20.15h-37.55V180.7H248.5z M284.2,266.7h-32.7v-63.2h32.7V266.7z M284.2,271.1
			v63.2h-32.7v-63.2H284.2z M211.45,337h37.6v20.1h-37.6V337z M284.2,337v76h-32.7v-76H284.2z M248.5,204.2v129.6h-37.3V204.2H248.5
			z"/>
	</g>
	
		<polyline fill-rule="evenodd" clip-rule="evenodd" fill="none" stroke="#000000" stroke-width="0.2" stroke-linecap="round" stroke-linejoin="round" stroke-miterlimit="3" points="
		248.315,124.638 247.792,133.526 247.203,136.337 246.093,139.409 244.262,142.611 241.91,145.683 236.681,150.716 
		232.368,153.591 230.864,154.245 225.179,155.16 200.605,154.964 187.794,156.075 173.677,158.95 155.574,165.944 152.306,167.97 
		149.757,170.126 146.751,174.178 145.639,178.23 145.117,185.289 146.097,190.125 148.842,198.164 160.214,221.627 
		171.128,246.463 172.108,249.404 173.874,259.795 173.482,268.945 	"/>
	
		<polyline fill-rule="evenodd" clip-rule="evenodd" fill="none" stroke="#000000" stroke-width="0.2" stroke-linecap="round" stroke-linejoin="round" stroke-miterlimit="3" points="
		235.75,150.65 195.7,150.3 168.9,152.6 153.4,156.15 142.2,160.45 134.05,165.1 131.25,167.45 128.1,172 126.35,178.05 
		125.95,180.7 126.35,189.85 127.6,194.95 129.15,198.45 145.1,226.6 154.7,246.45 156.1,250.25 157.95,258.6 157.75,268.95 	"/>
	
		<polyline fill-rule="evenodd" clip-rule="evenodd" fill="none" stroke="#000000" stroke-width="0.2" stroke-linecap="round" stroke-linejoin="round" stroke-miterlimit="3" points="
		248.315,413.252 247.792,404.364 247.203,401.488 246.093,398.417 244.262,395.214 241.91,392.208 236.681,387.175 232.368,384.3 
		230.864,383.646 229.427,383.254 221.061,382.534 200.605,382.861 187.794,381.751 173.677,378.875 159.561,373.777 
		152.306,369.921 149.757,367.699 147.993,365.607 146.751,363.646 146.097,361.751 145.117,354.693 145.117,352.536 
		147.078,344.367 152.109,332.733 163.874,308.747 171.128,291.362 173.416,282.539 173.874,278.095 173.482,268.945 	"/>
	
		<polyline fill-rule="evenodd" clip-rule="evenodd" fill="none" stroke="#000000" stroke-width="0.2" stroke-linecap="round" stroke-linejoin="round" stroke-miterlimit="3" points="
		235.766,387.175 195.703,387.567 163.612,384.365 153.417,381.751 142.176,377.437 134.071,372.797 131.261,370.379 
		129.431,368.026 128.124,365.804 127.339,363.712 126.099,358.353 125.967,356.131 126.359,348.026 127.601,342.929 
		129.17,339.465 142.044,316.786 154.724,291.362 157.011,284.304 157.927,279.206 157.796,269.338 157.73,268.945 	"/>
	<g>
		
			<polyline fill-rule="evenodd" clip-rule="evenodd" fill="none" stroke="#000000" stroke-width="0.2" stroke-linecap="round" stroke-linejoin="round" stroke-miterlimit="3" points="
			490.853,151.304 507.584,150.454 608.103,150.323 698.686,157.578 		"/>
		
			<polyline fill-rule="evenodd" clip-rule="evenodd" fill="none" stroke="#000000" stroke-width="0.2" stroke-linecap="round" stroke-linejoin="round" stroke-miterlimit="3" points="
			698.686,157.578 720.123,161.892 732.672,166.075 743.193,171.106 		"/>
		
			<polyline fill-rule="evenodd" clip-rule="evenodd" fill="none" stroke="#000000" stroke-width="0.2" stroke-linecap="round" stroke-linejoin="round" stroke-miterlimit="3" points="
			672.543,154.768 679.209,155.029 718.097,158.95 742.54,163.525 754.108,166.335 		"/>
		
			<polyline fill-rule="evenodd" clip-rule="evenodd" fill="none" stroke="#000000" stroke-width="0.2" stroke-linecap="round" stroke-linejoin="round" stroke-miterlimit="3" points="
			760.45,189.65 760.75,189.15 761.45,187 762,182.2 761.7,177.4 761.1,175.1 759.45,171.05 758.3,169.4 757,168.05 755.6,167 
			754.1,166.35 		"/>
		
			<polyline fill-rule="evenodd" clip-rule="evenodd" fill="none" stroke="#000000" stroke-width="0.2" stroke-linecap="round" stroke-linejoin="round" stroke-miterlimit="3" points="
			745.938,184.504 746.461,183.524 747.18,181.172 747.311,178.688 747.246,177.381 746.657,175.028 746.266,173.982 
			744.958,172.218 744.239,171.63 743.521,171.172 742.998,171.042 		"/>
		
			<polyline fill-rule="evenodd" clip-rule="evenodd" fill="none" stroke="#000000" stroke-width="0.2" stroke-linecap="round" stroke-linejoin="round" stroke-miterlimit="3" points="
			760.513,189.733 746.004,213.719 737.508,224.438 718.62,243.129 700.32,259.076 699.273,260.253 698.947,260.842 
			698.489,262.148 698.229,262.671 697.706,263.129 697.117,263.39 696.398,263.586 695.68,263.651 694.895,263.456 
			694.111,263.129 693.392,262.278 692.738,261.103 691.758,258.75 691.627,258.357 		"/>
		
			<polyline fill-rule="evenodd" clip-rule="evenodd" fill="none" stroke="#000000" stroke-width="0.2" stroke-linecap="round" stroke-linejoin="round" stroke-miterlimit="3" points="
			745.938,184.504 734.762,204.308 723.391,219.078 703.588,239.339 691.431,250.058 689.732,251.888 688.163,254.109 
			686.202,258.357 		"/>
		
			<line fill-rule="evenodd" clip-rule="evenodd" fill="none" stroke="#000000" stroke-width="0.2" stroke-linecap="round" stroke-linejoin="round" stroke-miterlimit="3" x1="691.627" y1="258.357" x2="587.58" y2="258.357"/>
		
			<line fill-rule="evenodd" clip-rule="evenodd" fill="none" stroke="#000000" stroke-width="0.2" stroke-linecap="round" stroke-linejoin="round" stroke-miterlimit="3" x1="590.717" y1="258.357" x2="590.717" y2="268.945"/>
		
			<polyline fill-rule="evenodd" clip-rule="evenodd" fill="none" stroke="#000000" stroke-width="0.2" stroke-linecap="round" stroke-linejoin="round" stroke-miterlimit="3" points="
			490.853,386.521 507.584,387.371 608.103,387.502 698.686,380.247 		"/>
		
			<polyline fill-rule="evenodd" clip-rule="evenodd" fill="none" stroke="#000000" stroke-width="0.2" stroke-linecap="round" stroke-linejoin="round" stroke-miterlimit="3" points="
			698.686,380.247 720.123,375.934 732.672,371.751 743.193,366.784 		"/>
		
			<polyline fill-rule="evenodd" clip-rule="evenodd" fill="none" stroke="#000000" stroke-width="0.2" stroke-linecap="round" stroke-linejoin="round" stroke-miterlimit="3" points="
			672.543,383.058 679.209,382.796 718.097,378.875 742.54,374.3 754.108,371.555 		"/>
		
			<polyline fill-rule="evenodd" clip-rule="evenodd" fill="none" stroke="#000000" stroke-width="0.2" stroke-linecap="round" stroke-linejoin="round" stroke-miterlimit="3" points="
			760.448,348.223 760.774,348.68 761.428,350.902 762.016,355.608 761.689,360.444 760.382,364.889 759.468,366.784 
			758.291,368.418 756.983,369.79 755.611,370.836 754.108,371.555 		"/>
		
			<polyline fill-rule="evenodd" clip-rule="evenodd" fill="none" stroke="#000000" stroke-width="0.2" stroke-linecap="round" stroke-linejoin="round" stroke-miterlimit="3" points="
			745.938,353.32 746.461,354.366 747.18,356.653 747.311,357.896 747.246,360.444 746.984,361.687 746.266,363.908 
			744.958,365.607 744.239,366.261 743.521,366.719 742.998,366.784 		"/>
		
			<polyline fill-rule="evenodd" clip-rule="evenodd" fill="none" stroke="#000000" stroke-width="0.2" stroke-linecap="round" stroke-linejoin="round" stroke-miterlimit="3" points="
			760.513,348.157 751.886,333.321 742.082,318.812 727.704,303.258 700.777,279.142 700.32,278.814 699.273,277.572 
			698.947,276.984 698.229,275.154 697.706,274.762 697.117,274.436 696.398,274.239 695.68,274.239 694.895,274.37 
			694.111,274.762 693.392,275.547 692.15,278.03 691.627,279.468 		"/>
		
			<polyline fill-rule="evenodd" clip-rule="evenodd" fill="none" stroke="#000000" stroke-width="0.2" stroke-linecap="round" stroke-linejoin="round" stroke-miterlimit="3" points="
			745.938,353.32 734.762,333.583 723.391,318.747 711.561,306.329 691.431,287.768 689.732,285.938 688.163,283.716 
			686.398,279.99 686.202,279.468 		"/>
		
			<line fill-rule="evenodd" clip-rule="evenodd" fill="none" stroke="#000000" stroke-width="0.2" stroke-linecap="round" stroke-linejoin="round" stroke-miterlimit="3" x1="691.627" y1="279.468" x2="587.58" y2="279.468"/>
		
			<line fill-rule="evenodd" clip-rule="evenodd" fill="none" stroke="#000000" stroke-width="0.2" stroke-linecap="round" stroke-linejoin="round" stroke-miterlimit="3" x1="590.717" y1="279.468" x2="590.717" y2="268.945"/>
		
			<line fill-rule="evenodd" clip-rule="evenodd" fill="none" stroke="#000000" stroke-width="0.2" stroke-linecap="round" stroke-linejoin="round" stroke-miterlimit="3" x1="706.268" y1="189.799" x2="706.725" y2="190.191"/>
	</g>
</g>
</svg>
