<?xml version="1.0" encoding="utf-8"?>
<!-- Generator: Adobe Illustrator 16.2.1, SVG Export Plug-In . SVG Version: 6.00 Build 0)  -->
<!DOCTYPE svg PUBLIC "-//W3C//DTD SVG 1.1//EN" "http://www.w3.org/Graphics/SVG/1.1/DTD/svg11.dtd">
<svg version="1.1" id="Selected_Items" xmlns="http://www.w3.org/2000/svg" xmlns:xlink="http://www.w3.org/1999/xlink" x="0px"
	 y="0px" width="900.45px" height="833.2px" viewBox="0 0 900.45 833.2" enable-background="new 0 0 900.45 833.2"
	 xml:space="preserve">
<g>
	<g>
		<polygon fill-rule="evenodd" clip-rule="evenodd" fill="#CCCCCC" points="285.025,262.65 277.6,240.95 285.025,262.65 
			258.05,262.65 258.05,177.55 310.05,177.55 310.05,262.65 		"/>
		
			<path fill-rule="evenodd" clip-rule="evenodd" fill="none" stroke="#000000" stroke-width="0.25" stroke-linecap="round" stroke-linejoin="round" stroke-miterlimit="3" d="
			M285.025,262.65l-7.425-21.7 M285.025,262.65L294.05,289"/>
	</g>
	<text transform="matrix(1.2831 0 0 1 266.8408 303.667)" font-family="'Tahoma'" font-size="14.1849">231ISL</text>
</g>
<g>
	<g>
		<path fill-rule="evenodd" clip-rule="evenodd" fill="#CCCCCC" d="M107.8,187.1h14.8c1.467,0.133,2.717,0.717,3.75,1.75
			s1.6,2.25,1.7,3.65v50.35c-0.133,1.433-0.716,2.667-1.75,3.7c-1.033,1-2.267,1.55-3.7,1.65h-14.8
			c-1.466-0.167-2.716-0.767-3.75-1.8c-1.033-1.033-1.6-2.25-1.7-3.65v-50.3c0.133-1.467,0.717-2.7,1.75-3.7
			C105.133,187.717,106.367,187.167,107.8,187.1z"/>
		
			<line fill-rule="evenodd" clip-rule="evenodd" fill="none" stroke="#000000" stroke-width="0.25" stroke-linecap="round" stroke-linejoin="round" stroke-miterlimit="3" x1="111.8" y1="249.2" x2="82.55" y2="276.9"/>
	</g>
	<text transform="matrix(1.2831 0 0 1 50.6904 288.3174)" font-family="'Tahoma'" font-size="14.1849">823ASS</text>
</g>
<g>
	<g>
		<polygon fill-rule="evenodd" clip-rule="evenodd" fill="#CCCCCC" points="351.05,188.6 359.1,188.6 369.8,188.6 369.8,206.1 
			351.05,206.1 		"/>
		
			<line fill-rule="evenodd" clip-rule="evenodd" fill="none" stroke="#000000" stroke-width="0.25" stroke-linecap="round" stroke-linejoin="round" stroke-miterlimit="3" x1="363.1" y1="137" x2="359.1" y2="188.6"/>
	</g>
	<text transform="matrix(1.2831 0 0 1 337.3408 131.7676)" font-family="'Tahoma'" font-size="14.1849">261ML</text>
</g>
<g>
	<g>
		<path fill-rule="evenodd" clip-rule="evenodd" fill="#CCCCCC" d="M503.15,173.05l-0.726-0.775L503.15,173.05z M502.425,172.275
			c0.095,0.009,0.187,0.018,0.275,0.025c5.633,0.567,12.116,1.267,19.45,2.1l0.05,3l-7.15-1.35v0.05l-0.2-0.05v7.25l-1.699-0.35
			h1.449l-7.199-2.1l-51.051-10.7c1.434-0.1,2.983-0.167,4.65-0.2l30.2,1.25l10.3,1C501.812,172.226,502.12,172.251,502.425,172.275
			z"/>
		
			<polyline fill-rule="evenodd" clip-rule="evenodd" fill="none" stroke="#000000" stroke-width="0.3" stroke-linecap="round" stroke-linejoin="round" stroke-miterlimit="3" points="
			503.15,173.05 502.425,172.275 478.2,146.15 		"/>
	</g>
	<text transform="matrix(1.2839 0 0 1 449.6885 139.917)" font-family="'Tahoma'" font-size="14.1849">265AL</text>
</g>
<g>
	<g>
		<polygon fill-rule="evenodd" clip-rule="evenodd" fill="#CCCCCC" points="538,186.325 537.3,187.4 538,186.325 538,197.5 
			514.65,197.4 514.5,175.85 521.65,177.25 521.65,177.15 538,180.25 		"/>
		
			<path fill-rule="evenodd" clip-rule="evenodd" fill="none" stroke="#000000" stroke-width="0.25" stroke-linecap="round" stroke-linejoin="round" stroke-miterlimit="3" d="
			M538,186.325l-0.7,1.075 M564.3,146.3L538,186.325"/>
	</g>
	<text transform="matrix(1.2848 0 0 1 540.2363 139.917)" font-family="'Tahoma'" font-size="14.1849">262NL</text>
</g>
<g>
	<g>
		<polygon fill-rule="evenodd" clip-rule="evenodd" fill="#CCCCCC" points="656.6,258.4 527.4,259.45 504,246.3 659.4,246.3 
			659.4,254.8 659.2,255.8 658.6,257.15 657.75,257.95 		"/>
		
			<line fill-rule="evenodd" clip-rule="evenodd" fill="none" stroke="#1A181B" stroke-width="0.55" stroke-miterlimit="5" x1="558.85" y1="245.7" x2="571.95" y2="230.2"/>
	</g>
	<text transform="matrix(1.2848 0 0 1 574.2354 230.1182)" font-family="'Tahoma'" font-size="14.1849">Strake LH</text>
</g>
<g>
	<g>
		<path fill-rule="evenodd" clip-rule="evenodd" fill="#CCCCCC" d="M724.8,195.65c0.134-1.433,0.717-2.65,1.75-3.65
			c1.033-1.033,2.267-1.6,3.7-1.7h34.5c1.4,0.133,2.6,0.717,3.6,1.75c1.034,1.034,1.617,2.267,1.75,3.7v46.2
			c-0.133,1.433-0.733,2.667-1.8,3.7c-1.033,0.967-2.267,1.517-3.7,1.65h-15.074H730.2c-1.467-0.133-2.7-0.7-3.7-1.7
			c-1.033-1.1-1.6-2.35-1.7-3.75V195.65z"/>
		
			<line fill-rule="evenodd" clip-rule="evenodd" fill="none" stroke="#000000" stroke-width="0.25" stroke-linecap="round" stroke-linejoin="round" stroke-miterlimit="3" x1="756.2" y1="278.95" x2="749.525" y2="247.3"/>
	</g>
	<text transform="matrix(1.2831 0 0 1 723.3906 293.8682)" font-family="'Tahoma'" font-size="14.1849">827BGD</text>
</g>
<g>
	<g>
		<path fill-rule="evenodd" clip-rule="evenodd" fill="#CCCCCC" d="M691.95,248.2h-8.9c-1.5-0.167-2.767-0.767-3.8-1.8
			c-1-1.033-1.55-2.25-1.65-3.65v-50.3c0.101-1.467,0.667-2.7,1.7-3.7c1.101-1.033,2.351-1.583,3.75-1.65h14.75
			c1.533,0.133,2.783,0.717,3.75,1.75c1.033,1.033,1.617,2.25,1.75,3.65v50.35c-0.166,1.433-0.767,2.667-1.8,3.7
			c-1.033,1-2.267,1.55-3.7,1.65H691.95z"/>
		
			<line fill-rule="evenodd" clip-rule="evenodd" fill="none" stroke="#000000" stroke-width="0.25" stroke-linecap="round" stroke-linejoin="round" stroke-miterlimit="3" x1="691.95" y1="248.2" x2="670.8" y2="314.9"/>
	</g>
	<text transform="matrix(1.2831 0 0 1 638.4912 328.8682)" font-family="'Tahoma'" font-size="14.1849">825AED</text>
</g>
<g>
	<g>
		<polygon fill-rule="evenodd" clip-rule="evenodd" fill="#CCCCCC" points="493.475,213.9 479.65,213.9 479.65,191.85 
			507.55,191.85 507.55,213.9 493.475,213.9 493.15,213.6 		"/>
		
			<path fill-rule="evenodd" clip-rule="evenodd" fill="none" stroke="#000000" stroke-width="0.25" stroke-linecap="round" stroke-linejoin="round" stroke-miterlimit="3" d="
			M493.475,213.9l-0.324-0.3 M575.95,292.55l-82.476-78.65"/>
	</g>
	<text transform="matrix(1.2848 0 0 1 578.2363 298.167)" font-family="'Tahoma'" font-size="14.1849">263DL</text>
</g>
<g>
	<g>
		<polygon fill-rule="evenodd" clip-rule="evenodd" fill="#CCCCCC" points="468.4,213.9 468.25,213.6 468.4,213.9 451.6,213.9 
			451.6,191.85 479.5,191.85 479.5,213.9 		"/>
		
			<path fill-rule="evenodd" clip-rule="evenodd" fill="none" stroke="#000000" stroke-width="0.25" stroke-linecap="round" stroke-linejoin="round" stroke-miterlimit="3" d="
			M468.4,213.9l-0.15-0.3 M510.8,298.3L468.4,213.9"/>
	</g>
	<text transform="matrix(1.2848 0 0 1 487.0859 312.917)" font-family="'Tahoma'" font-size="14.1849">263CL</text>
</g>
<g>
	<g>
		<polygon fill-rule="evenodd" clip-rule="evenodd" fill="#CCCCCC" points="437.55,213.9 437.5,213.6 437.55,213.9 423.35,213.9 
			423.35,191.85 451.25,191.85 451.25,213.9 		"/>
		
			<path fill-rule="evenodd" clip-rule="evenodd" fill="none" stroke="#000000" stroke-width="0.25" stroke-linecap="round" stroke-linejoin="round" stroke-miterlimit="3" d="
			M437.55,213.9l-0.05-0.3 M453.05,330.95l-15.5-117.05"/>
	</g>
	<text transform="matrix(1.2839 0 0 1 429.1382 345.7676)" font-family="'Tahoma'" font-size="14.1849">263BL</text>
</g>
<g>
	<g>
		<polygon fill-rule="evenodd" clip-rule="evenodd" fill="#CCCCCC" points="395.35,191.85 423.25,191.85 423.25,213.9 406.25,213.9 
			395.35,213.9 		"/>
		
			<line fill-rule="evenodd" clip-rule="evenodd" fill="none" stroke="#000000" stroke-width="0.25" stroke-linecap="round" stroke-linejoin="round" stroke-miterlimit="3" x1="402.8" y1="286.75" x2="406.25" y2="213.9"/>
	</g>
	<text transform="matrix(1.2839 0 0 1 378.2881 300.3682)" font-family="'Tahoma'" font-size="14.1849">263AL</text>
</g>
<g id="vert_stab" class="border">
	<g>
		<path fill-rule="evenodd" clip-rule="evenodd" fill="#B1B1B1" d="M853.2,191.85h26.05c6.5,0,9.75,3.25,9.75,9.75v26.05
			c0,6.5-3.25,9.75-9.75,9.75H853.2c-6.5,0-9.75-3.25-9.75-9.75V201.6C843.45,195.1,846.7,191.85,853.2,191.85z M862.6,231.75
			l24.4-17.4l-24.4-17.45v10.45h-14.25v13.95h14.25V231.75z"/>
		<polygon fill-rule="evenodd" clip-rule="evenodd" fill="#0099FF" points="862.6,231.75 862.6,221.3 848.35,221.3 848.35,207.35 
			862.6,207.35 862.6,196.9 887,214.35 		"/>
		<path fill-rule="evenodd" clip-rule="evenodd" fill="none" stroke="#999999" stroke-width="1.5" stroke-miterlimit="5" d="
			M853.2,191.85c-6.5,0-9.75,3.25-9.75,9.75v26.05c0,6.5,3.25,9.75,9.75,9.75h26.05c6.5,0,9.75-3.25,9.75-9.75V201.6
			c0-6.5-3.25-9.75-9.75-9.75H853.2z"/>
	</g>
	<text transform="matrix(1 0 0 1 850.4863 250.105)"><tspan x="0" y="0" font-family="'Tahoma-Bold'" font-size="14">Rear</tspan><tspan x="-16.759" y="17" font-family="'Tahoma-Bold'" font-size="14">Fuselage </tspan></text>
</g>
<g id="nose" class="border">
	<g>
		<path fill-rule="evenodd" clip-rule="evenodd" fill="#B1B1B1" d="M35.15,191.85H61.2c6.5,0,9.75,3.25,9.75,9.75v26.05
			c0,6.5-3.25,9.75-9.75,9.75H35.15c-6.5,0-9.75-3.25-9.75-9.75V201.6C25.4,195.1,28.65,191.85,35.15,191.85z M66.05,221.9v-13.95
			H51.8V197.5l-24.4,17.4l24.4,17.45V221.9H66.05z"/>
		<polygon fill-rule="evenodd" clip-rule="evenodd" fill="#0099FF" points="66.05,221.9 51.8,221.9 51.8,232.35 27.4,214.9 
			51.8,197.5 51.8,207.95 66.05,207.95 		"/>
		<path fill-rule="evenodd" clip-rule="evenodd" fill="none" stroke="#999999" stroke-width="1.5" stroke-miterlimit="5" d="
			M35.15,191.85c-6.5,0-9.75,3.25-9.75,9.75v26.05c0,6.5,3.25,9.75,9.75,9.75H61.2c6.5,0,9.75-3.25,9.75-9.75V201.6
			c0-6.5-3.25-9.75-9.75-9.75H35.15z"/>
	</g>
	<text transform="matrix(1 0 0 1 28.6265 250.2051)" font-family="'Tahoma-Bold'" font-size="14">Nose </text>
</g>
<g>
	<path fill-rule="evenodd" clip-rule="evenodd" fill="#CCCCCC" d="M174.75,204.1h4.6c1.767,0,2.65,0.883,2.65,2.65v9.3
		c0,1.767-0.883,2.65-2.65,2.65h-4.6c-1.767,0-2.65-0.883-2.65-2.65v-9.3C172.1,204.983,172.983,204.1,174.75,204.1z M192.15,204.1
		h4.6c1.767,0,2.65,0.883,2.65,2.65v9.3c0,1.767-0.883,2.65-2.65,2.65h-4.6c-1.767,0-2.65-0.883-2.65-2.65v-9.3
		C189.5,204.983,190.383,204.1,192.15,204.1z M156.65,218.9c-1.767,0-2.65-0.883-2.65-2.65v-9.3c0-1.767,0.883-2.65,2.65-2.65h4.6
		c1.767,0,2.65,0.883,2.65,2.65v9.3c0,1.767-0.883,2.65-2.65,2.65H156.65z M144.4,204.3c1.767,0,2.65,0.883,2.65,2.65v9.3
		c0,1.767-0.883,2.65-2.65,2.65h-4.6c-1.767,0-2.65-0.883-2.65-2.65v-9.3c0-1.767,0.883-2.65,2.65-2.65H144.4z"/>
</g>
<g>
	<g>
		<polygon fill-rule="evenodd" clip-rule="evenodd" fill="#CCCCCC" points="624.175,629 647.4,629 647.4,713.9 595.45,713.9 
			595.45,629 624.175,629 624.45,629.85 		"/>
		
			<path fill-rule="evenodd" clip-rule="evenodd" fill="none" stroke="#000000" stroke-width="0.25" stroke-linecap="round" stroke-linejoin="round" stroke-miterlimit="3" d="
			M624.175,629l0.275,0.85 M624.175,629l-16.125-52.15"/>
	</g>
	<text transform="matrix(1.2831 0 0 1 578.2412 571.2178)" font-family="'Tahoma'" font-size="14.1849">232ISR</text>
</g>
<g>
	<g>
		<rect x="535.7" y="640.05" fill-rule="evenodd" clip-rule="evenodd" fill="#CCCCCC" width="18.8" height="17.5"/>
		
			<line fill-rule="evenodd" clip-rule="evenodd" fill="none" stroke="#000000" stroke-width="0.25" stroke-linecap="round" stroke-linejoin="round" stroke-miterlimit="3" x1="535.75" y1="586.65" x2="545.3" y2="639.7"/>
	</g>
	<text transform="matrix(1.2824 0 0 1 504.0938 581.917)" font-family="'Tahoma'" font-size="14.1849">261MR</text>
</g>
<g>
	<g>
		<path fill-rule="evenodd" clip-rule="evenodd" fill="#CCCCCC" d="M730.4,644.55c1.533,0.167,2.783,0.767,3.75,1.8
			c0.966,0.967,1.55,2.084,1.75,3.351c0,0.1,0,0.2,0,0.3v43.4c-0.167,1.433-0.767,2.666-1.801,3.699
			c-1.033,0.967-2.267,1.517-3.699,1.65h-10.2c-1.267-0.233-2.367-0.816-3.3-1.75c-1-1.033-1.567-2.25-1.7-3.65V649.95
			c0-0.066,0.017-0.15,0.05-0.25c0.167-1.334,0.733-2.45,1.7-3.351c1.066-1.033,2.316-1.633,3.75-1.8H730.4z"/>
		
			<line fill-rule="evenodd" clip-rule="evenodd" fill="none" stroke="#000000" stroke-width="0.25" stroke-linecap="round" stroke-linejoin="round" stroke-miterlimit="3" x1="725.6" y1="644.3" x2="737.1" y2="574.6"/>
	</g>
	<text transform="matrix(1.2824 0 0 1 707.2422 566.2178)" font-family="'Tahoma'" font-size="14.1849">824FUE</text>
</g>
<g>
	<g>
		<path fill-rule="evenodd" clip-rule="evenodd" fill="#CCCCCC" d="M773.675,644.85l-0.175,0.5L773.675,644.85h7.726
			c1.533,0.134,2.783,0.733,3.75,1.801c0.933,0.933,1.5,2.05,1.699,3.35c0.034,0.134,0.051,0.25,0.051,0.35v43.301
			c-0.167,1.433-0.767,2.666-1.801,3.699c-1.033,1.034-2.267,1.617-3.699,1.75h-14.75c-1.5-0.199-2.767-0.816-3.801-1.85
			c-1-1-1.566-2.217-1.699-3.65V650.2c0-0.101,0.017-0.2,0.05-0.3c0.166-1.267,0.733-2.367,1.7-3.301
			c1.1-1.033,2.35-1.616,3.75-1.75H773.675z"/>
		
			<path fill-rule="evenodd" clip-rule="evenodd" fill="none" stroke="#000000" stroke-width="0.25" stroke-linecap="round" stroke-linejoin="round" stroke-miterlimit="3" d="
			M773.675,644.85l-0.175,0.5 M787.3,605.3l-13.625,39.55"/>
	</g>
	<text transform="matrix(1.2824 0 0 1 759.3428 597.7178)" font-family="'Tahoma'" font-size="14.1849">824FLE</text>
</g>
<g id="nose" class="border">
	<g>
		<path fill-rule="evenodd" clip-rule="evenodd" fill="#B1B1B1" d="M853.2,636.2h26.05c6.5,0,9.75,3.25,9.75,9.75V672
			c0,6.5-3.25,9.75-9.75,9.75H853.2c-6.5,0-9.75-3.25-9.75-9.75v-26.05C843.45,639.45,846.7,636.2,853.2,636.2z M848.35,665.65
			h14.25V676.1L887,658.7l-24.4-17.45v10.45h-14.25V665.65z"/>
		<polygon fill-rule="evenodd" clip-rule="evenodd" fill="#0099FF" points="848.35,665.65 848.35,651.7 862.6,651.7 862.6,641.25 
			887,658.7 862.6,676.1 862.6,665.65 		"/>
		<path fill-rule="evenodd" clip-rule="evenodd" fill="none" stroke="#999999" stroke-width="1.5" stroke-miterlimit="5" d="
			M853.2,636.2c-6.5,0-9.75,3.25-9.75,9.75V672c0,6.5,3.25,9.75,9.75,9.75h26.05c6.5,0,9.75-3.25,9.75-9.75v-26.05
			c0-6.5-3.25-9.75-9.75-9.75H853.2z"/>
	</g>
	<text transform="matrix(1 0 0 1 847.6768 694.4551)" font-family="'Tahoma-Bold'" font-size="14">Nose </text>
</g>
<g>
	<g>
		<polygon fill-rule="evenodd" clip-rule="evenodd" fill="#CCCCCC" points="833.6,709.6 828.375,709.6 821.85,709.6 821.85,700.85 
			833.6,700.85 		"/>
		
			<line fill-rule="evenodd" clip-rule="evenodd" fill="none" stroke="#000000" stroke-width="0.25" stroke-linecap="round" stroke-linejoin="round" stroke-miterlimit="3" x1="828.375" y1="709.6" x2="856" y2="732.6"/>
	</g>
	<text transform="matrix(1.2831 0 0 1 831.0918 747.0176)" font-family="'Tahoma'" font-size="14.1849">134BR</text>
</g>
<g>
	<g>
		<polygon fill-rule="evenodd" clip-rule="evenodd" fill="#CCCCCC" points="802.025,709.7 798.5,709.7 798.5,700.95 810.25,700.95 
			810.25,709.7 		"/>
		
			<line fill-rule="evenodd" clip-rule="evenodd" fill="none" stroke="#000000" stroke-width="0.25" stroke-linecap="round" stroke-linejoin="round" stroke-miterlimit="3" x1="802.025" y1="709.7" x2="792.15" y2="737.7"/>
	</g>
	<text transform="matrix(1.2831 0 0 1 765.5908 753.667)" font-family="'Tahoma'" font-size="14.1849">134AR</text>
</g>
<g>
	<g>
		<polygon fill-rule="evenodd" clip-rule="evenodd" fill="#CCCCCC" points="478.9,662.25 478.9,640.1 506.9,640.1 506.9,662.25 
			501.625,662.25 		"/>
		
			<line fill-rule="evenodd" clip-rule="evenodd" fill="none" stroke="#000000" stroke-width="0.25" stroke-linecap="round" stroke-linejoin="round" stroke-miterlimit="3" x1="527.95" y1="732.95" x2="501.625" y2="662.25"/>
	</g>
	<text transform="matrix(1.2831 0 0 1 502.8418 747.4678)" font-family="'Tahoma'" font-size="14.1849">264AR</text>
</g>
<g>
	<g>
		<polygon fill-rule="evenodd" clip-rule="evenodd" fill="#CCCCCC" points="467.275,662.25 467.25,661.85 467.275,662.25 
			450.85,662.25 450.85,640.1 478.85,640.1 478.85,662.25 		"/>
		
			<path fill-rule="evenodd" clip-rule="evenodd" fill="none" stroke="#000000" stroke-width="0.25" stroke-linecap="round" stroke-linejoin="round" stroke-miterlimit="3" d="
			M467.275,662.25l-0.025-0.4 M472.4,759.2l-5.125-96.95"/>
	</g>
	<text transform="matrix(1.2831 0 0 1 446.1406 773.7676)" font-family="'Tahoma'" font-size="14.1849">264BR</text>
</g>
<g>
	<g>
		<path fill-rule="evenodd" clip-rule="evenodd" fill="#CCCCCC" d="M433.15,661.75l-0.2,0.5L433.15,661.75z M432.95,662.25H422.6
			V640.1h28v22.15H432.95z"/>
		
			<polyline fill-rule="evenodd" clip-rule="evenodd" fill="none" stroke="#000000" stroke-width="0.25" stroke-linecap="round" stroke-linejoin="round" stroke-miterlimit="3" points="
			433.15,661.75 432.95,662.25 399.25,750.85 		"/>
	</g>
	<text transform="matrix(1.2824 0 0 1 371.6426 765.7676)" font-family="'Tahoma'" font-size="14.1849">264CR</text>
</g>
<g>
	<g>
		<polygon fill-rule="evenodd" clip-rule="evenodd" fill="#CCCCCC" points="408.3,662.25 408.85,661.8 408.3,662.25 394.6,662.25 
			394.6,640.1 422.6,640.1 422.6,662.25 		"/>
		
			<path fill-rule="evenodd" clip-rule="evenodd" fill="none" stroke="#000000" stroke-width="0.25" stroke-linecap="round" stroke-linejoin="round" stroke-miterlimit="3" d="
			M408.3,662.25l0.55-0.45 M408.3,662.25l-82.2,66.55"/>
	</g>
	<text transform="matrix(1.2824 0 0 1 298.5928 743.5674)" font-family="'Tahoma'" font-size="14.1849">264DR</text>
</g>
<g>
	<g>
		<path fill-rule="evenodd" clip-rule="evenodd" fill="#CCCCCC" d="M398.125,620.575l-4.675,5.675L398.125,620.575
			c0.124-0.006,0.249-0.015,0.375-0.025c1.333-0.133,2.683-0.25,4.05-0.35l42.4-2.351c1.267,0.034,2.15,0.117,2.65,0.25
			c-9.1,1.733-18.067,3.567-26.9,5.5l-24.15,5.2l-7.15,2.15h0.95c-0.833,0.2-1.65,0.416-2.45,0.649v-5.35l-0.1,0.05v-0.05l-6.6,1.25
			l0.05-4.9l15.05-1.85C396.885,620.694,397.493,620.636,398.125,620.575z"/>
		
			<path fill-rule="evenodd" clip-rule="evenodd" fill="none" stroke="#000000" stroke-width="0.3" stroke-linecap="round" stroke-linejoin="round" stroke-miterlimit="3" d="
			M398.125,620.575l-4.675,5.675 M415.1,600l-16.975,20.575"/>
	</g>
	<text transform="matrix(1.2831 0 0 1 391.1904 593.7178)" font-family="'Tahoma'" font-size="14.1849">266AR</text>
</g>
<g>
	<g>
		<path fill-rule="evenodd" clip-rule="evenodd" fill="#CCCCCC" d="M366.45,632.25l-2-1.05V630.6l16.75-3.1v0.05l6.6-1.25v5.3
			c0.034,0,0.067,0,0.1,0l-0.1,16.15l-23.35,0.15v-16.7L366.45,632.25z"/>
		
			<path fill-rule="evenodd" clip-rule="evenodd" fill="none" stroke="#000000" stroke-width="0.25" stroke-linecap="round" stroke-linejoin="round" stroke-miterlimit="3" d="
			M364.45,631.2l-45-23.7 M366.45,632.25l-2-1.05"/>
	</g>
	<text transform="matrix(1.2824 0 0 1 292.6924 601.3682)" font-family="'Tahoma'" font-size="14.1849">262NR</text>
</g>
<g>
	<g>
		<path fill-rule="evenodd" clip-rule="evenodd" fill="#CCCCCC" d="M258.8,694.4h155.4L395,705.2c-2.5,1.434-5.45,2.2-8.85,2.3
			l-123.4-0.85c-1.033,0.033-1.967-0.301-2.8-1c-0.733-0.801-1.117-1.717-1.15-2.75V694.4z"/>
		
			<line fill-rule="evenodd" clip-rule="evenodd" fill="none" stroke="#1A181B" stroke-width="0.55" stroke-miterlimit="5" x1="271.95" y1="680.65" x2="296.9" y2="694.05"/>
	</g>
	<text transform="matrix(1.2848 0 0 1 232.7358 675.7676)" font-family="'Tahoma'" font-size="14.1849">Strake LH</text>
</g>
<g>
	<g>
		<path fill-rule="evenodd" clip-rule="evenodd" fill="#CCCCCC" d="M245.3,703.25l-0.1,0.25L245.3,703.25z M245.2,703.5h-1.5v-8.75
			h11.75v8.75H245.2z"/>
		
			<polyline fill-rule="evenodd" clip-rule="evenodd" fill="none" stroke="#000000" stroke-width="0.25" stroke-linecap="round" stroke-linejoin="round" stroke-miterlimit="3" points="
			245.3,703.25 245.2,703.5 235.4,731.35 		"/>
	</g>
	<text transform="matrix(1.2831 0 0 1 205.8408 744.3174)" font-family="'Tahoma'" font-size="14.1849">142AR</text>
</g>
<g>
	<g>
		<path fill-rule="evenodd" clip-rule="evenodd" fill="#CCCCCC" d="M182.8,701.65l0.1-0.351L182.8,701.65h-0.1
			c-0.034,0-0.067,0-0.1,0c-1.367-0.167-2.55-0.75-3.55-1.75c-1.033-1.034-1.6-2.25-1.7-3.65v-44.7c0.133-1.399,0.717-2.6,1.75-3.6
			c1.033-1.033,2.267-1.617,3.7-1.75h12.25c1.4,0.166,2.617,0.767,3.65,1.8c1.033,1.033,1.6,2.267,1.7,3.7v44.6
			c-0.133,1.434-0.717,2.667-1.75,3.7s-2.267,1.583-3.7,1.65H182.8z"/>
		
			<path fill-rule="evenodd" clip-rule="evenodd" fill="none" stroke="#000000" stroke-width="0.25" stroke-linecap="round" stroke-linejoin="round" stroke-miterlimit="3" d="
			M182.8,701.65l0.1-0.351 M182.8,701.65l-14,54.699"/>
	</g>
	<text transform="matrix(1.2824 0 0 1 136.1426 770.2178)" font-family="'Tahoma'" font-size="14.1849">826SVD</text>
</g>
<g id="vert_stab" class="border">
	<g>
		<path fill-rule="evenodd" clip-rule="evenodd" fill="#B1B1B1" d="M39.8,666.25h14.25V652.3H39.8v-10.45l-24.4,17.4l24.4,17.45
			V666.25z M23.15,681.75c-6.5,0-9.75-3.25-9.75-9.75v-26.05c0-6.5,3.25-9.75,9.75-9.75H49.2c6.5,0,9.75,3.25,9.75,9.75V672
			c0,6.5-3.25,9.75-9.75,9.75H23.15z"/>
		<polygon fill-rule="evenodd" clip-rule="evenodd" fill="#0099FF" points="39.8,666.25 39.8,676.7 15.4,659.25 39.8,641.85 
			39.8,652.3 54.05,652.3 54.05,666.25 		"/>
		<path fill-rule="evenodd" clip-rule="evenodd" fill="none" stroke="#999999" stroke-width="1.5" stroke-miterlimit="5" d="
			M23.15,681.75H49.2c6.5,0,9.75-3.25,9.75-9.75v-26.05c0-6.5-3.25-9.75-9.75-9.75H23.15c-6.5,0-9.75,3.25-9.75,9.75V672
			C13.4,678.5,16.65,681.75,23.15,681.75z"/>
	</g>
	<text transform="matrix(1 0 0 1 20.5356 694.4551)"><tspan x="0" y="0" font-family="'Tahoma-Bold'" font-size="14">Rear</tspan><tspan x="-16.758" y="17" font-family="'Tahoma-Bold'" font-size="14">Fuselage </tspan></text>
</g>
<g>
	<g>
		<path fill-rule="evenodd" clip-rule="evenodd" fill="#B3E1FF" d="M564.475,723.85c-0.357,0.447-0.749,0.881-1.175,1.301
			c-2.533,2.566-5.55,3.85-9.05,3.85c-3.533,0-6.583-1.283-9.15-3.85c-2.5-2.5-3.75-5.517-3.75-9.051c0-3.566,1.25-6.616,3.75-9.149
			c2.534-2.467,5.517-3.717,8.95-3.75c0.066,0,0.117,0,0.15,0h0.05c3.5,0,6.517,1.25,9.05,3.75c2.533,2.533,3.8,5.583,3.8,9.149
			C567.1,719.04,566.225,721.623,564.475,723.85z"/>
		
			<path fill-rule="evenodd" clip-rule="evenodd" fill="none" stroke="#000000" stroke-width="0.25" stroke-linecap="round" stroke-linejoin="round" stroke-miterlimit="3" d="
			M564.475,723.85c-0.357,0.447-0.749,0.881-1.175,1.301c-2.533,2.566-5.55,3.85-9.05,3.85c-3.533,0-6.583-1.283-9.15-3.85
			c-2.5-2.5-3.75-5.517-3.75-9.051c0-3.566,1.25-6.616,3.75-9.149c2.534-2.467,5.517-3.717,8.95-3.75c0.066,0,0.117,0,0.15,0h0.05
			c3.5,0,6.517,1.25,9.05,3.75c2.533,2.533,3.8,5.583,3.8,9.149C567.1,719.04,566.225,721.623,564.475,723.85z"/>
		
			<line fill-rule="evenodd" clip-rule="evenodd" fill="none" stroke="#000000" stroke-width="0.2" stroke-miterlimit="6.92" x1="564.475" y1="723.85" x2="590.5" y2="737.65"/>
	</g>
	<text transform="matrix(1 0 0 1 613.0156 729.9609)"><tspan x="0" y="0" font-family="'Tahoma'" font-size="11">ANTI−</tspan><tspan x="-11.164" y="11.5" font-family="'Tahoma'" font-size="11">COLLISION</tspan><tspan x="-20.777" y="23" font-family="'Tahoma'" font-size="11">STROBE LIGHT</tspan></text>
</g>
<g>
	<g>
		<path fill-rule="evenodd" clip-rule="evenodd" fill="#B3E1FF" d="M656.6,612.55h0.051c3.5,0,6.517,1.25,9.05,3.75
			c2.533,2.533,3.8,5.584,3.8,9.15c0,3.533-1.267,6.55-3.8,9.05c-2.533,2.566-5.55,3.85-9.05,3.85c-3.534,0-6.584-1.283-9.15-3.85
			c-2.5-2.5-3.75-5.517-3.75-9.05c0-3.566,1.25-6.617,3.75-9.15c2.533-2.467,5.517-3.717,8.95-3.75
			C656.517,612.55,656.566,612.55,656.6,612.55z"/>
		
			<path fill-rule="evenodd" clip-rule="evenodd" fill="none" stroke="#000000" stroke-width="0.25" stroke-linecap="round" stroke-linejoin="round" stroke-miterlimit="3" d="
			M656.6,612.55h0.051c3.5,0,6.517,1.25,9.05,3.75c2.533,2.533,3.8,5.584,3.8,9.15c0,3.533-1.267,6.55-3.8,9.05
			c-2.533,2.566-5.55,3.85-9.05,3.85c-3.534,0-6.584-1.283-9.15-3.85c-2.5-2.5-3.75-5.517-3.75-9.05c0-3.566,1.25-6.617,3.75-9.15
			c2.533-2.467,5.517-3.717,8.95-3.75C656.517,612.55,656.566,612.55,656.6,612.55z"/>
		<polyline fill-rule="evenodd" clip-rule="evenodd" fill="none" stroke="#000000" stroke-miterlimit="6.92" points="656.6,612.55 
			656.6,527.35 644.85,527.35 		"/>
	</g>
	<text transform="matrix(1 0 0 1 576.667 523.7256)"><tspan x="0" y="0" font-family="'Tahoma'" font-size="12">Ground</tspan><tspan x="-26.391" y="16" font-family="'Tahoma'" font-size="12">Recognition Light</tspan></text>
</g>
<g>
	<g>
		<path fill-rule="evenodd" clip-rule="evenodd" fill="#B3E1FF" d="M685.25,621.7h0.05c3.5,0,6.517,1.25,9.05,3.75
			c2.534,2.533,3.801,5.583,3.801,9.149c0,3.534-1.267,6.551-3.801,9.051c-2.533,2.566-5.55,3.85-9.05,3.85
			c-3.533,0-6.583-1.283-9.149-3.85c-2.5-2.5-3.75-5.517-3.75-9.051c0-3.566,1.25-6.616,3.75-9.149
			c2.533-2.467,5.517-3.717,8.949-3.75C685.167,621.7,685.217,621.7,685.25,621.7z"/>
		<polyline fill-rule="evenodd" clip-rule="evenodd" fill="none" stroke="#000000" stroke-miterlimit="6.92" points="685.25,621.7 
			685.25,482.35 653.85,482.35 		"/>
		
			<path fill-rule="evenodd" clip-rule="evenodd" fill="none" stroke="#000000" stroke-width="0.25" stroke-linecap="round" stroke-linejoin="round" stroke-miterlimit="3" d="
			M685.25,621.7h0.05c3.5,0,6.517,1.25,9.05,3.75c2.534,2.533,3.801,5.583,3.801,9.149c0,3.534-1.267,6.551-3.801,9.051
			c-2.533,2.566-5.55,3.85-9.05,3.85c-3.533,0-6.583-1.283-9.149-3.85c-2.5-2.5-3.75-5.517-3.75-9.051
			c0-3.566,1.25-6.616,3.75-9.149c2.533-2.467,5.517-3.717,8.949-3.75C685.167,621.7,685.217,621.7,685.25,621.7z"/>
	</g>
	<text transform="matrix(1 0 0 1 588.4971 478.8262)"><tspan x="0" y="0" font-family="'Tahoma'" font-size="12">Engine</tspan><tspan x="-27.161" y="16" font-family="'Tahoma'" font-size="12">Inspection Lights</tspan></text>
</g>
<g>
	<g>
		<path fill-rule="evenodd" clip-rule="evenodd" fill="#B3E1FF" d="M701.75,705.15c-3.512-0.013-6.545-1.296-9.1-3.851
			c-2.5-2.5-3.75-5.517-3.75-9.05c0-3.566,1.25-6.616,3.75-9.15c2.533-2.466,5.517-3.716,8.949-3.75c0.067,0,0.117,0,0.15,0h0.05
			c3.5,0,6.517,1.25,9.05,3.75c2.534,2.534,3.801,5.584,3.801,9.15c0,3.533-1.267,6.55-3.801,9.05
			c-2.533,2.566-5.55,3.851-9.05,3.851H701.75z"/>
		
			<path fill-rule="evenodd" clip-rule="evenodd" fill="none" stroke="#000000" stroke-width="0.25" stroke-linecap="round" stroke-linejoin="round" stroke-miterlimit="3" d="
			M701.75,705.15c-3.512-0.013-6.545-1.296-9.1-3.851c-2.5-2.5-3.75-5.517-3.75-9.05c0-3.566,1.25-6.616,3.75-9.15
			c2.533-2.466,5.517-3.716,8.949-3.75c0.067,0,0.117,0,0.15,0h0.05c3.5,0,6.517,1.25,9.05,3.75c2.534,2.534,3.801,5.584,3.801,9.15
			c0,3.533-1.267,6.55-3.801,9.05c-2.533,2.566-5.55,3.851-9.05,3.851H701.75z"/>
		<polyline fill-rule="evenodd" clip-rule="evenodd" fill="none" stroke="#000000" stroke-miterlimit="6.92" points="701.75,705.15 
			701.75,789.1 727.35,789.1 		"/>
	</g>
	<text transform="matrix(1 0 0 1 730.627 787.4609)"><tspan x="0" y="0" font-family="'Tahoma'" font-size="11">EMERGENCY</tspan><tspan x="15.337" y="11.5" font-family="'Tahoma'" font-size="11">LIGHT</tspan></text>
</g>
<g>
	<g>
		<path fill-rule="evenodd" clip-rule="evenodd" fill="#B3E1FF" d="M158.375,699.425c-1.85-1.97-2.775-4.345-2.775-7.125
			c0-2.934,1.033-5.434,3.1-7.5c2.1-2.033,4.55-3.066,7.35-3.1c0.067,0,0.117,0,0.15,0h0.05c2.867,0,5.35,1.033,7.45,3.1
			c2.1,2.066,3.15,4.566,3.15,7.5s-1.05,5.417-3.15,7.45c-2.1,2.134-4.583,3.2-7.45,3.2c-2.933,0-5.45-1.066-7.55-3.2
			C158.592,699.644,158.483,699.535,158.375,699.425z"/>
		
			<path fill-rule="evenodd" clip-rule="evenodd" fill="none" stroke="#000000" stroke-width="0.25" stroke-linecap="round" stroke-linejoin="round" stroke-miterlimit="3" d="
			M158.375,699.425c-1.85-1.97-2.775-4.345-2.775-7.125c0-2.934,1.033-5.434,3.1-7.5c2.1-2.033,4.55-3.066,7.35-3.1
			c0.067,0,0.117,0,0.15,0h0.05c2.867,0,5.35,1.033,7.45,3.1c2.1,2.066,3.15,4.566,3.15,7.5s-1.05,5.417-3.15,7.45
			c-2.1,2.134-4.583,3.2-7.45,3.2c-2.933,0-5.45-1.066-7.55-3.2C158.592,699.644,158.483,699.535,158.375,699.425z"/>
		
			<line fill-rule="evenodd" clip-rule="evenodd" fill="none" stroke="#000000" stroke-width="0.2" stroke-miterlimit="6.92" x1="158.375" y1="699.425" x2="127.7" y2="725.75"/>
	</g>
	<text transform="matrix(1 0 0 1 64.9775 736.6611)"><tspan x="0" y="0" font-family="'Tahoma'" font-size="11">EMERGENCY</tspan><tspan x="15.337" y="11.5" font-family="'Tahoma'" font-size="11">LIGHT</tspan></text>
</g>
<g>
	<g>
		<path fill-rule="evenodd" clip-rule="evenodd" fill="#B3E1FF" d="M710.35,233.45h0.051c0.033,0,0.066,0,0.1,0
			c2,0,3.717,0.716,5.15,2.15c1.433,1.433,2.149,3.15,2.149,5.15s-0.717,3.717-2.149,5.15c-1.434,1.434-3.15,2.15-5.15,2.15
			s-3.717-0.716-5.15-2.15c-1.433-1.433-2.149-3.15-2.149-5.15s0.717-3.717,2.149-5.15
			C706.771,234.212,708.438,233.496,710.35,233.45z"/>
		
			<polyline fill-rule="evenodd" clip-rule="evenodd" fill="none" stroke="#000000" stroke-width="0.2" stroke-miterlimit="6.92" points="
			710.35,233.45 710.35,120.95 741.8,120.95 		"/>
		
			<path fill-rule="evenodd" clip-rule="evenodd" fill="none" stroke="#000000" stroke-width="0.25" stroke-linecap="round" stroke-linejoin="round" stroke-miterlimit="3" d="
			M710.35,233.45h0.051c0.033,0,0.066,0,0.1,0c2,0,3.717,0.716,5.15,2.15c1.433,1.433,2.149,3.15,2.149,5.15
			s-0.717,3.717-2.149,5.15c-1.434,1.434-3.15,2.15-5.15,2.15s-3.717-0.716-5.15-2.15c-1.433-1.433-2.149-3.15-2.149-5.15
			s0.717-3.717,2.149-5.15C706.771,234.212,708.438,233.496,710.35,233.45z"/>
	</g>
	<text transform="matrix(1 0 0 1 742.2842 118.2256)"><tspan x="0" y="0" font-family="'Tahoma'" font-size="12">EMERGENCY</tspan><tspan x="16.731" y="12.5" font-family="'Tahoma'" font-size="12">LIGHT</tspan></text>
</g>
<g>
	<g>
		<path fill-rule="evenodd" clip-rule="evenodd" fill="#B3E1FF" d="M352.85,280.15c-3.5,0-6.533-1.283-9.1-3.85
			c-2.5-2.5-3.75-5.517-3.75-9.05c0-3.567,1.25-6.617,3.75-9.15c2.533-2.467,5.517-3.717,8.95-3.75c0.066,0,0.117,0,0.15,0h0.05
			c3.5,0,6.517,1.25,9.05,3.75c2.533,2.533,3.8,5.583,3.8,9.15c0,3.533-1.267,6.55-3.8,9.05c-2.534,2.567-5.55,3.85-9.05,3.85
			H352.85z"/>
		
			<polyline fill-rule="evenodd" clip-rule="evenodd" fill="none" stroke="#000000" stroke-width="0.2" stroke-miterlimit="6.92" points="
			352.85,280.15 352.85,356.45 335.3,356.45 		"/>
		
			<path fill-rule="evenodd" clip-rule="evenodd" fill="none" stroke="#000000" stroke-width="0.25" stroke-linecap="round" stroke-linejoin="round" stroke-miterlimit="3" d="
			M352.85,280.15c-3.5,0-6.533-1.283-9.1-3.85c-2.5-2.5-3.75-5.517-3.75-9.05c0-3.567,1.25-6.617,3.75-9.15
			c2.533-2.467,5.517-3.717,8.95-3.75c0.066,0,0.117,0,0.15,0h0.05c3.5,0,6.517,1.25,9.05,3.75c2.533,2.533,3.8,5.583,3.8,9.15
			c0,3.533-1.267,6.55-3.8,9.05c-2.534,2.567-5.55,3.85-9.05,3.85H352.85z"/>
	</g>
	<text transform="matrix(1 0 0 1 276.29 346.876)"><tspan x="0" y="0" font-family="'Tahoma'" font-size="12">ANTI−</tspan><tspan x="-12.179" y="12.5" font-family="'Tahoma'" font-size="12">COLLISION</tspan><tspan x="-22.667" y="25" font-family="'Tahoma'" font-size="12">STROBE LIGHT</tspan></text>
</g>
<g>
	<g>
		<path fill-rule="evenodd" clip-rule="evenodd" fill="#B3E1FF" d="M247.7,161.45h0.05c3.5,0,6.517,1.25,9.05,3.75
			c2.534,2.533,3.8,5.583,3.8,9.15c0,3.533-1.267,6.55-3.8,9.05c-2.533,2.567-5.55,3.85-9.05,3.85h-0.05
			c-3.5,0-6.534-1.283-9.1-3.85c-2.5-2.5-3.75-5.517-3.75-9.05c0-3.567,1.25-6.617,3.75-9.15c2.533-2.467,5.517-3.717,8.95-3.75
			C247.617,161.45,247.667,161.45,247.7,161.45z"/>
		
			<polyline fill-rule="evenodd" clip-rule="evenodd" fill="none" stroke="#000000" stroke-width="0.2" stroke-miterlimit="6.92" points="
			247.7,161.45 247.7,83.45 258.8,83.45 		"/>
		
			<path fill-rule="evenodd" clip-rule="evenodd" fill="none" stroke="#000000" stroke-width="0.25" stroke-linecap="round" stroke-linejoin="round" stroke-miterlimit="3" d="
			M247.7,161.45h0.05c3.5,0,6.517,1.25,9.05,3.75c2.534,2.533,3.8,5.583,3.8,9.15c0,3.533-1.267,6.55-3.8,9.05
			c-2.533,2.567-5.55,3.85-9.05,3.85h-0.05c-3.5,0-6.534-1.283-9.1-3.85c-2.5-2.5-3.75-5.517-3.75-9.05
			c0-3.567,1.25-6.617,3.75-9.15c2.533-2.467,5.517-3.717,8.95-3.75C247.617,161.45,247.667,161.45,247.7,161.45z"/>
	</g>
	<text transform="matrix(1 0 0 1 287.3174 80.4756)"><tspan x="0" y="0" font-family="'Tahoma'" font-size="12">Ground</tspan><tspan x="-26.391" y="16" font-family="'Tahoma'" font-size="12">Recognition Light</tspan></text>
</g>
<g>
	<g>
		<path fill-rule="evenodd" clip-rule="evenodd" fill="#B3E1FF" d="M210.8,197.1c-3.5,0-6.533-1.283-9.1-3.85
			c-2.5-2.5-3.75-5.517-3.75-9.05c0-3.567,1.25-6.617,3.75-9.15c2.533-2.466,5.517-3.716,8.95-3.75c0.067,0,0.117,0,0.15,0h0.05
			c3.5,0,6.517,1.25,9.05,3.75c2.533,2.534,3.8,5.583,3.8,9.15c0,3.533-1.267,6.55-3.8,9.05c-2.533,2.567-5.55,3.85-9.05,3.85H210.8
			z"/>
		
			<path fill-rule="evenodd" clip-rule="evenodd" fill="none" stroke="#000000" stroke-width="0.25" stroke-linecap="round" stroke-linejoin="round" stroke-miterlimit="3" d="
			M210.8,197.1c-3.5,0-6.533-1.283-9.1-3.85c-2.5-2.5-3.75-5.517-3.75-9.05c0-3.567,1.25-6.617,3.75-9.15
			c2.533-2.466,5.517-3.716,8.95-3.75c0.067,0,0.117,0,0.15,0h0.05c3.5,0,6.517,1.25,9.05,3.75c2.533,2.534,3.8,5.583,3.8,9.15
			c0,3.533-1.267,6.55-3.8,9.05c-2.533,2.567-5.55,3.85-9.05,3.85H210.8z"/>
		<polyline fill-rule="evenodd" clip-rule="evenodd" fill="none" stroke="#000000" stroke-miterlimit="6.92" points="210.8,197.1 
			210.8,370.7 191.3,370.7 		"/>
	</g>
	<text transform="matrix(1 0 0 1 127.2466 365.9756)"><tspan x="0" y="0" font-family="'Tahoma'" font-size="12">Engine</tspan><tspan x="-27.161" y="16" font-family="'Tahoma'" font-size="12">Inspection Lights</tspan></text>
</g>
<g>
	<g>
		<path fill-rule="evenodd" clip-rule="evenodd" fill="#B3E1FF" d="M139.55,253.8c-3.5,0-6.533-1.283-9.1-3.85
			c-2.5-2.5-3.75-5.517-3.75-9.05c0-3.566,1.25-6.617,3.75-9.15c2.533-2.467,5.517-3.717,8.95-3.75c0.067,0,0.117,0,0.15,0h0.05
			c3.5,0,6.517,1.25,9.05,3.75c2.533,2.533,3.8,5.583,3.8,9.15c0,3.533-1.267,6.55-3.8,9.05c-2.533,2.566-5.55,3.85-9.05,3.85
			H139.55z"/>
		
			<path fill-rule="evenodd" clip-rule="evenodd" fill="none" stroke="#000000" stroke-width="0.25" stroke-linecap="round" stroke-linejoin="round" stroke-miterlimit="3" d="
			M139.55,253.8c-3.5,0-6.533-1.283-9.1-3.85c-2.5-2.5-3.75-5.517-3.75-9.05c0-3.566,1.25-6.617,3.75-9.15
			c2.533-2.467,5.517-3.717,8.95-3.75c0.067,0,0.117,0,0.15,0h0.05c3.5,0,6.517,1.25,9.05,3.75c2.533,2.533,3.8,5.583,3.8,9.15
			c0,3.533-1.267,6.55-3.8,9.05c-2.533,2.566-5.55,3.85-9.05,3.85H139.55z"/>
		
			<polyline fill-rule="evenodd" clip-rule="evenodd" fill="none" stroke="#000000" stroke-width="0.2" stroke-miterlimit="6.92" points="
			139.55,253.8 139.55,324.95 128.3,324.95 		"/>
	</g>
	<text transform="matrix(1 0 0 1 60.6846 321.7256)"><tspan x="0" y="0" font-family="'Tahoma'" font-size="12">EMERGENCY</tspan><tspan x="16.731" y="12.5" font-family="'Tahoma'" font-size="12">LIGHT</tspan></text>
</g>
<text id="border" class="svg_name_heading" transform="matrix(1 0 0 1 326.2998 18.7051)"><tspan x="0" y="0" fill="#0000FF" font-family="'Tahoma-Bold'" font-size="14">Center Fuselage and Fuselage to Wing Fairing</tspan><tspan x="0" y="20" fill="#0000FF" font-family="'Tahoma'" font-size="13">AMM TASK 06-41-00-992-802</tspan></text>
<g id="border">
	
		<rect x="821.8" y="700.75" fill-rule="evenodd" clip-rule="evenodd" fill="none" stroke="#1A171B" stroke-width="0.5" stroke-miterlimit="6.92" width="11.75" height="8.75"/>
	
		<line fill-rule="evenodd" clip-rule="evenodd" fill="none" stroke="#000000" stroke-width="0.55" stroke-linecap="round" stroke-linejoin="round" stroke-miterlimit="3" x1="164.442" y1="620.066" x2="70.177" y2="605.044"/>
	
		<line fill-rule="evenodd" clip-rule="evenodd" fill="none" stroke="#000000" stroke-width="0.55" stroke-linecap="round" stroke-linejoin="round" stroke-miterlimit="3" x1="85.006" y1="701.308" x2="138.007" y2="711.302"/>
	
		<line fill-rule="evenodd" clip-rule="evenodd" fill="none" stroke="#000000" stroke-width="0.55" stroke-linecap="round" stroke-linejoin="round" stroke-miterlimit="3" x1="781.72" y1="644.504" x2="766.954" y2="644.504"/>
	
		<path fill-rule="evenodd" clip-rule="evenodd" fill="none" stroke="#000000" stroke-width="0.55" stroke-linecap="round" stroke-linejoin="round" stroke-miterlimit="3" d="
		M787.2,649.984c-0.129-1.419-0.709-2.644-1.741-3.676c-0.988-1.074-2.191-1.676-3.61-1.805"/>
	
		<path fill-rule="evenodd" clip-rule="evenodd" fill="none" stroke="#000000" stroke-width="0.55" stroke-linecap="round" stroke-linejoin="round" stroke-miterlimit="3" d="
		M766.954,644.504c-1.418,0.129-2.664,0.709-3.739,1.741c-1.031,0.988-1.612,2.191-1.741,3.61"/>
	
		<line fill-rule="evenodd" clip-rule="evenodd" fill="none" stroke="#000000" stroke-width="0.55" stroke-linecap="round" stroke-linejoin="round" stroke-miterlimit="3" x1="781.72" y1="698.729" x2="766.954" y2="698.729"/>
	
		<path fill-rule="evenodd" clip-rule="evenodd" fill="none" stroke="#000000" stroke-width="0.55" stroke-linecap="round" stroke-linejoin="round" stroke-miterlimit="3" d="
		M781.72,698.664c1.419-0.086,2.644-0.645,3.676-1.677c1.031-1.031,1.633-2.257,1.805-3.675"/>
	
		<path fill-rule="evenodd" clip-rule="evenodd" fill="none" stroke="#000000" stroke-width="0.55" stroke-linecap="round" stroke-linejoin="round" stroke-miterlimit="3" d="
		M761.474,693.248c0.129,1.419,0.688,2.644,1.677,3.676c1.031,1.031,2.257,1.611,3.676,1.74"/>
	
		<line fill-rule="evenodd" clip-rule="evenodd" fill="none" stroke="#000000" stroke-width="0.55" stroke-linecap="round" stroke-linejoin="round" stroke-miterlimit="3" x1="787.2" y1="693.248" x2="787.2" y2="649.662"/>
	
		<line fill-rule="evenodd" clip-rule="evenodd" fill="none" stroke="#000000" stroke-width="0.55" stroke-linecap="round" stroke-linejoin="round" stroke-miterlimit="3" x1="761.474" y1="693.248" x2="761.474" y2="649.533"/>
	
		<path fill-rule="evenodd" clip-rule="evenodd" fill="none" stroke="#000000" stroke-width="0.55" stroke-linecap="round" stroke-linejoin="round" stroke-miterlimit="3" d="
		M200.678,651.338c-0.085-1.418-0.645-2.643-1.676-3.675c-1.031-1.031-2.257-1.634-3.675-1.806"/>
	
		<path fill-rule="evenodd" clip-rule="evenodd" fill="none" stroke="#000000" stroke-width="0.55" stroke-linecap="round" stroke-linejoin="round" stroke-miterlimit="3" d="
		M183.141,645.857c-1.462,0.129-2.708,0.71-3.74,1.741c-1.031,0.988-1.612,2.192-1.74,3.61"/>
	
		<line fill-rule="evenodd" clip-rule="evenodd" fill="none" stroke="#000000" stroke-width="0.55" stroke-linecap="round" stroke-linejoin="round" stroke-miterlimit="3" x1="195.262" y1="645.923" x2="183.077" y2="645.923"/>
	
		<path fill-rule="evenodd" clip-rule="evenodd" fill="none" stroke="#000000" stroke-width="0.55" stroke-linecap="round" stroke-linejoin="round" stroke-miterlimit="3" d="
		M195.262,701.308c1.419-0.086,2.645-0.645,3.676-1.676c1.031-1.032,1.612-2.257,1.74-3.676"/>
	
		<path fill-rule="evenodd" clip-rule="evenodd" fill="none" stroke="#000000" stroke-width="0.55" stroke-linecap="round" stroke-linejoin="round" stroke-miterlimit="3" d="
		M177.66,695.892c0.086,1.418,0.645,2.644,1.676,3.675c1.031,1.032,2.257,1.612,3.675,1.741"/>
	
		<line fill-rule="evenodd" clip-rule="evenodd" fill="none" stroke="#000000" stroke-width="0.55" stroke-linecap="round" stroke-linejoin="round" stroke-miterlimit="3" x1="162.122" y1="713.559" x2="822.814" y2="713.559"/>
	
		<line fill-rule="evenodd" clip-rule="evenodd" fill="none" stroke="#000000" stroke-width="0.55" stroke-linecap="round" stroke-linejoin="round" stroke-miterlimit="3" x1="164.442" y1="620.066" x2="371.091" y2="620.066"/>
	
		<line fill-rule="evenodd" clip-rule="evenodd" fill="none" stroke="#000000" stroke-width="0.55" stroke-linecap="round" stroke-linejoin="round" stroke-miterlimit="3" x1="325.183" y1="627.353" x2="70.177" y2="627.353"/>
	
		<line fill-rule="evenodd" clip-rule="evenodd" fill="none" stroke="#000000" stroke-width="0.55" stroke-linecap="round" stroke-linejoin="round" stroke-miterlimit="3" x1="70.177" y1="605.044" x2="70.177" y2="627.353"/>
	
		<line fill-rule="evenodd" clip-rule="evenodd" fill="none" stroke="#000000" stroke-width="0.55" stroke-linecap="round" stroke-linejoin="round" stroke-miterlimit="3" x1="195.262" y1="701.308" x2="183.077" y2="701.308"/>
	
		<line fill-rule="evenodd" clip-rule="evenodd" fill="none" stroke="#000000" stroke-width="0.55" stroke-linecap="round" stroke-linejoin="round" stroke-miterlimit="3" x1="85.006" y1="701.308" x2="92.035" y2="627.353"/>
	
		<line fill-rule="evenodd" clip-rule="evenodd" fill="none" stroke="#000000" stroke-width="0.55" stroke-linecap="round" stroke-linejoin="round" stroke-miterlimit="3" x1="177.596" y1="695.827" x2="177.596" y2="651.338"/>
	
		<line fill-rule="evenodd" clip-rule="evenodd" fill="none" stroke="#000000" stroke-width="0.55" stroke-linecap="round" stroke-linejoin="round" stroke-miterlimit="3" x1="200.742" y1="695.827" x2="200.742" y2="651.338"/>
	
		<line fill-rule="evenodd" clip-rule="evenodd" fill="none" stroke="#000000" stroke-width="0.55" stroke-linecap="round" stroke-linejoin="round" stroke-miterlimit="3" x1="579.415" y1="628.643" x2="822.814" y2="628.643"/>
	
		<polyline fill-rule="evenodd" clip-rule="evenodd" fill="none" stroke="#000000" stroke-width="0.55" stroke-linecap="round" stroke-linejoin="round" stroke-miterlimit="3" points="
		338.7,663.2 330,662.1 320.15,659.15 312.15,655.2 307.7,652.3 304.85,649.65 303.85,648.45 303.15,647.35 302.25,645.4 
		302.05,644.7 302.05,643.55 302.25,642.2 302.75,640.45 303.15,639.6 304.85,636.9 306.3,635.55 308.4,634.05 312.65,632.05 
		314.65,631.4 320.5,630.15 400.75,620.3 446.9,617.85 	"/>
	
		<line fill-rule="evenodd" clip-rule="evenodd" fill="none" stroke="#000000" stroke-width="0.55" stroke-linecap="round" stroke-linejoin="round" stroke-miterlimit="3" x1="338.723" y1="663.202" x2="347.621" y2="664.104"/>
	
		<polyline fill-rule="evenodd" clip-rule="evenodd" fill="none" stroke="#000000" stroke-width="0.55" stroke-linecap="round" stroke-linejoin="round" stroke-miterlimit="3" points="
		347.621,664.104 522.482,664.104 546.661,662.88 571.097,659.979 579.415,658.302 585.476,655.916 588.119,654.176 589.15,653.144 
		590.763,650.951 591.149,649.984 591.536,647.663 591.536,646.502 591.407,645.6 591.085,644.697 589.925,642.569 589.022,641.344 
		576.191,630.576 575.868,630.189 575.417,629.352 575.288,629.029 575.224,628.707 575.224,628.385 575.288,628.191 
		575.288,628.127 574.708,627.997 523.578,620.26 522.482,620.003 	"/>
	
		<polygon fill-rule="evenodd" clip-rule="evenodd" fill="none" stroke="#000000" stroke-width="0.55" stroke-linecap="round" stroke-linejoin="round" stroke-miterlimit="3" points="
		529.188,628.127 529.059,628.836 528.801,629.609 528.414,630.319 527.124,631.737 526.286,632.317 520.87,633.801 
		497.658,636.896 489.728,637.476 453.169,637.089 411.389,631.608 396.172,630.898 388.95,631.093 396.107,628.965 
		413.193,625.096 457.359,616.649 482.313,615.296 507.975,616.456 519.129,618.455 522.289,619.81 525.384,622.001 
		527.575,624.258 528.994,626.386 529.188,626.902 	"/>
	
		<line fill-rule="evenodd" clip-rule="evenodd" fill="none" stroke="#000000" stroke-width="0.55" stroke-linecap="round" stroke-linejoin="round" stroke-miterlimit="3" x1="730.719" y1="644.182" x2="720.789" y2="644.182"/>
	
		<path fill-rule="evenodd" clip-rule="evenodd" fill="none" stroke="#000000" stroke-width="0.55" stroke-linecap="round" stroke-linejoin="round" stroke-miterlimit="3" d="
		M736.199,649.662c-0.129-1.419-0.709-2.645-1.74-3.676c-0.989-1.031-2.193-1.633-3.611-1.805"/>
	
		<path fill-rule="evenodd" clip-rule="evenodd" fill="none" stroke="#000000" stroke-width="0.55" stroke-linecap="round" stroke-linejoin="round" stroke-miterlimit="3" d="
		M720.982,644.246c-1.418,0.129-2.664,0.709-3.739,1.74c-1.031,0.989-1.612,2.192-1.741,3.611"/>
	
		<line fill-rule="evenodd" clip-rule="evenodd" fill="none" stroke="#000000" stroke-width="0.55" stroke-linecap="round" stroke-linejoin="round" stroke-miterlimit="3" x1="730.719" y1="698.406" x2="720.467" y2="698.406"/>
	
		<path fill-rule="evenodd" clip-rule="evenodd" fill="none" stroke="#000000" stroke-width="0.55" stroke-linecap="round" stroke-linejoin="round" stroke-miterlimit="3" d="
		M730.7,698.4c1.433-0.134,2.666-0.684,3.7-1.65c1.033-1.033,1.633-2.267,1.8-3.7"/>
	
		<path fill-rule="evenodd" clip-rule="evenodd" fill="none" stroke="#000000" stroke-width="0.55" stroke-linecap="round" stroke-linejoin="round" stroke-miterlimit="3" d="
		M715.502,692.99c0.129,1.418,0.688,2.644,1.677,3.675c1.031,1.032,2.257,1.634,3.675,1.806"/>
	
		<line fill-rule="evenodd" clip-rule="evenodd" fill="none" stroke="#000000" stroke-width="0.55" stroke-linecap="round" stroke-linejoin="round" stroke-miterlimit="3" x1="736.199" y1="692.926" x2="736.199" y2="649.34"/>
	
		<line fill-rule="evenodd" clip-rule="evenodd" fill="none" stroke="#000000" stroke-width="0.55" stroke-linecap="round" stroke-linejoin="round" stroke-miterlimit="3" x1="715.502" y1="692.99" x2="715.502" y2="649.34"/>
	
		<line fill-rule="evenodd" clip-rule="evenodd" fill="none" stroke="#1A171B" stroke-width="0.55" stroke-miterlimit="6.92" x1="162.122" y1="713.559" x2="138.007" y2="711.302"/>
	<text transform="matrix(1 0 0 1 378.4839 821.6992)" font-family="'Tahoma-Bold'" font-size="17">RH SIDE</text>
	<path fill-rule="evenodd" clip-rule="evenodd" fill="none" stroke="#1A181B" stroke-width="0.55" stroke-miterlimit="5" d="
		M259.1,694.051h155.4l-19.2,10.799c-2.5,1.434-5.45,2.201-8.85,2.301l-123.4-0.85c-1.033,0.033-1.967-0.301-2.8-1
		c-0.733-0.801-1.116-1.717-1.15-2.75V694.051z"/>
	<g>
		
			<rect x="394.9" y="639.75" fill-rule="evenodd" clip-rule="evenodd" fill="none" stroke="#1A171B" stroke-width="0.5" stroke-miterlimit="6.92" width="28" height="22.15"/>
	</g>
	<g>
		
			<rect x="422.9" y="639.75" fill-rule="evenodd" clip-rule="evenodd" fill="none" stroke="#1A171B" stroke-width="0.5" stroke-miterlimit="6.92" width="28" height="22.15"/>
	</g>
	<g>
		
			<rect x="451.15" y="639.75" fill-rule="evenodd" clip-rule="evenodd" fill="none" stroke="#1A171B" stroke-width="0.5" stroke-miterlimit="6.92" width="28" height="22.15"/>
	</g>
	<g>
		
			<rect x="479.2" y="639.75" fill-rule="evenodd" clip-rule="evenodd" fill="none" stroke="#1A171B" stroke-width="0.5" stroke-miterlimit="6.92" width="28" height="22.15"/>
	</g>
	<g>
		
			<polygon fill-rule="evenodd" clip-rule="evenodd" fill="none" stroke="#1A171B" stroke-width="0.5" stroke-miterlimit="6.92" points="
			364,648.05 364,630.75 387.45,626.4 387.35,647.9 		"/>
	</g>
	<g>
		<path fill-rule="evenodd" clip-rule="evenodd" fill="none" stroke="#1A171B" stroke-width="0.5" stroke-miterlimit="6.92" d="
			M421.1,618.95c-14.8,0.934-28.233,2.116-40.3,3.55l-0.05,5.2l6.6-1.3v5.35c19.167-5.1,39.1-9.6,59.8-13.5
			C445.083,617.684,436.4,617.917,421.1,618.95z"/>
	</g>
	<g>
		
			<rect x="536" y="639.7" fill-rule="evenodd" clip-rule="evenodd" fill="none" stroke="#1A171B" stroke-width="0.5" stroke-miterlimit="6.92" width="18.8" height="17.5"/>
	</g>
	<g>
		
			<rect x="595.75" y="628.5" fill-rule="evenodd" clip-rule="evenodd" fill="none" stroke="#1A171B" stroke-width="0.5" stroke-miterlimit="6.92" width="51.95" height="85.1"/>
	</g>
	<g>
		
			<rect x="798.8" y="700.6" fill-rule="evenodd" clip-rule="evenodd" fill="none" stroke="#1A171B" stroke-width="0.5" stroke-miterlimit="6.92" width="11.75" height="8.75"/>
	</g>
	<g>
		
			<rect x="244" y="694.4" fill-rule="evenodd" clip-rule="evenodd" fill="none" stroke="#1A171B" stroke-width="0.5" stroke-miterlimit="6.92" width="11.75" height="8.75"/>
	</g>
</g>
<g id="border">
	<g>
		
			<rect x="479.55" y="191.8" fill-rule="evenodd" clip-rule="evenodd" fill="none" stroke="#1A171B" stroke-width="0.5" stroke-miterlimit="6.92" width="28" height="22.15"/>
		<path fill-rule="evenodd" clip-rule="evenodd" fill="none" stroke="#2B2B2A" stroke-width="0.55" stroke-miterlimit="5" d="
			M154.15,206.9v9.3c0,1.767,0.883,2.65,2.65,2.65h4.6c1.767,0,2.65-0.883,2.65-2.65v-9.3c0-1.767-0.883-2.65-2.65-2.65h-4.6
			C155.033,204.25,154.15,205.133,154.15,206.9z M189.6,206.9v9.3c0,1.767,0.883,2.65,2.65,2.65h4.6c1.767,0,2.65-0.883,2.65-2.65
			v-9.3c0-1.767-0.883-2.65-2.65-2.65h-4.6C190.483,204.25,189.6,205.133,189.6,206.9z M179.35,204.25h-4.6
			c-1.767,0-2.65,0.883-2.65,2.65v9.3c0,1.767,0.883,2.65,2.65,2.65h4.6c1.767,0,2.65-0.883,2.65-2.65v-9.3
			C182,205.133,181.117,204.25,179.35,204.25z"/>
	</g>
	
		<line fill-rule="evenodd" clip-rule="evenodd" fill="none" stroke="#000000" stroke-width="0.55" stroke-linecap="round" stroke-linejoin="round" stroke-miterlimit="3" x1="75.85" y1="177.2" x2="353.8" y2="177.25"/>
	
		<line fill-rule="evenodd" clip-rule="evenodd" fill="none" stroke="#000000" stroke-width="0.55" stroke-linecap="round" stroke-linejoin="round" stroke-miterlimit="3" x1="710.181" y1="169.571" x2="804.381" y2="154.419"/>
	
		<line fill-rule="evenodd" clip-rule="evenodd" fill="none" stroke="#000000" stroke-width="0.55" stroke-linecap="round" stroke-linejoin="round" stroke-miterlimit="3" x1="789.551" y1="250.748" x2="736.552" y2="260.742"/>
	
		<line fill-rule="evenodd" clip-rule="evenodd" fill="none" stroke="#000000" stroke-width="0.55" stroke-linecap="round" stroke-linejoin="round" stroke-miterlimit="3" x1="736.552" y1="260.742" x2="712.438" y2="262.999"/>
	
		<line fill-rule="evenodd" clip-rule="evenodd" fill="none" stroke="#000000" stroke-width="0.55" stroke-linecap="round" stroke-linejoin="round" stroke-miterlimit="3" x1="107.839" y1="187.045" x2="122.668" y2="187.045"/>
	
		<path fill-rule="evenodd" clip-rule="evenodd" fill="none" stroke="#000000" stroke-width="0.55" stroke-linecap="round" stroke-linejoin="round" stroke-miterlimit="3" d="
		M107.839,187.045c-1.419,0.086-2.645,0.645-3.676,1.676c-1.031,0.989-1.612,2.214-1.74,3.675"/>
	
		<path fill-rule="evenodd" clip-rule="evenodd" fill="none" stroke="#000000" stroke-width="0.55" stroke-linecap="round" stroke-linejoin="round" stroke-miterlimit="3" d="
		M128.083,192.461c-0.085-1.419-0.645-2.644-1.676-3.675c-1.031-1.032-2.256-1.612-3.674-1.741"/>
	
		<line fill-rule="evenodd" clip-rule="evenodd" fill="none" stroke="#000000" stroke-width="0.55" stroke-linecap="round" stroke-linejoin="round" stroke-miterlimit="3" x1="107.839" y1="248.169" x2="122.668" y2="248.169"/>
	
		<path fill-rule="evenodd" clip-rule="evenodd" fill="none" stroke="#000000" stroke-width="0.55" stroke-linecap="round" stroke-linejoin="round" stroke-miterlimit="3" d="
		M102.423,242.688c0.085,1.418,0.645,2.643,1.676,3.675c1.031,1.031,2.257,1.633,3.675,1.805"/>
	
		<path fill-rule="evenodd" clip-rule="evenodd" fill="none" stroke="#000000" stroke-width="0.55" stroke-linecap="round" stroke-linejoin="round" stroke-miterlimit="3" d="
		M122.603,248.169c1.462-0.129,2.709-0.688,3.74-1.677c1.031-1.031,1.612-2.257,1.74-3.675"/>
	
		<line fill-rule="evenodd" clip-rule="evenodd" fill="none" stroke="#000000" stroke-width="0.55" stroke-linecap="round" stroke-linejoin="round" stroke-miterlimit="3" x1="102.358" y1="242.688" x2="102.358" y2="192.525"/>
	
		<line fill-rule="evenodd" clip-rule="evenodd" fill="none" stroke="#000000" stroke-width="0.55" stroke-linecap="round" stroke-linejoin="round" stroke-miterlimit="3" x1="128.149" y1="242.688" x2="128.149" y2="192.525"/>
	
		<path fill-rule="evenodd" clip-rule="evenodd" fill="none" stroke="#000000" stroke-width="0.55" stroke-linecap="round" stroke-linejoin="round" stroke-miterlimit="3" d="
		M730.039,190.269c-1.418,0.085-2.644,0.645-3.675,1.676c-1.032,0.989-1.612,2.214-1.741,3.675"/>
	
		<path fill-rule="evenodd" clip-rule="evenodd" fill="none" stroke="#000000" stroke-width="0.55" stroke-linecap="round" stroke-linejoin="round" stroke-miterlimit="3" d="
		M769.886,195.685c-0.129-1.418-0.709-2.643-1.74-3.675c-0.989-1.031-2.192-1.612-3.611-1.74"/>
	
		<line fill-rule="evenodd" clip-rule="evenodd" fill="none" stroke="#000000" stroke-width="0.55" stroke-linecap="round" stroke-linejoin="round" stroke-miterlimit="3" x1="730.039" y1="190.204" x2="764.47" y2="190.204"/>
	
		<path fill-rule="evenodd" clip-rule="evenodd" fill="none" stroke="#000000" stroke-width="0.55" stroke-linecap="round" stroke-linejoin="round" stroke-miterlimit="3" d="
		M724.623,241.786c0.086,1.418,0.646,2.665,1.677,3.739c0.988,1.032,2.214,1.612,3.675,1.741"/>
	
		<path fill-rule="evenodd" clip-rule="evenodd" fill="none" stroke="#000000" stroke-width="0.55" stroke-linecap="round" stroke-linejoin="round" stroke-miterlimit="3" d="
		M764.405,247.266c1.419-0.129,2.644-0.688,3.675-1.676c1.075-1.032,1.677-2.257,1.806-3.675"/>
	
		<line fill-rule="evenodd" clip-rule="evenodd" fill="none" stroke="#000000" stroke-width="0.55" stroke-linecap="round" stroke-linejoin="round" stroke-miterlimit="3" x1="730.039" y1="247.266" x2="764.47" y2="247.266"/>
	
		<line fill-rule="evenodd" clip-rule="evenodd" fill="none" stroke="#000000" stroke-width="0.55" stroke-linecap="round" stroke-linejoin="round" stroke-miterlimit="3" x1="724.559" y1="241.786" x2="724.559" y2="195.685"/>
	<g>
		
			<line fill-rule="evenodd" clip-rule="evenodd" fill="none" stroke="#000000" stroke-width="0.55" stroke-linecap="round" stroke-linejoin="round" stroke-miterlimit="3" x1="712.45" y1="263" x2="75.85" y2="263"/>
		<path fill-rule="evenodd" clip-rule="evenodd" fill="none" stroke="#1A181B" stroke-width="0.55" stroke-miterlimit="5" d="
			M659.45,246.15h-155.4l19.2,10.8c2.5,1.433,5.45,2.2,8.85,2.3l123.4-0.85c1.033,0.034,1.967-0.3,2.8-1
			c0.733-0.8,1.117-1.717,1.15-2.75V246.15z"/>
	</g>
	
		<line fill-rule="evenodd" clip-rule="evenodd" fill="none" stroke="#000000" stroke-width="0.55" stroke-linecap="round" stroke-linejoin="round" stroke-miterlimit="3" x1="710.181" y1="169.571" x2="509.722" y2="169.571"/>
	
		<line fill-rule="evenodd" clip-rule="evenodd" fill="none" stroke="#000000" stroke-width="0.55" stroke-linecap="round" stroke-linejoin="round" stroke-miterlimit="3" x1="549.375" y1="176.793" x2="804.381" y2="176.793"/>
	
		<line fill-rule="evenodd" clip-rule="evenodd" fill="none" stroke="#000000" stroke-width="0.55" stroke-linecap="round" stroke-linejoin="round" stroke-miterlimit="3" x1="804.381" y1="154.419" x2="804.381" y2="176.793"/>
	
		<line fill-rule="evenodd" clip-rule="evenodd" fill="none" stroke="#000000" stroke-width="0.55" stroke-linecap="round" stroke-linejoin="round" stroke-miterlimit="3" x1="769.886" y1="241.786" x2="769.886" y2="195.685"/>
	
		<line fill-rule="evenodd" clip-rule="evenodd" fill="none" stroke="#000000" stroke-width="0.55" stroke-linecap="round" stroke-linejoin="round" stroke-miterlimit="3" x1="789.551" y1="250.748" x2="782.588" y2="176.793"/>
	
		<line fill-rule="evenodd" clip-rule="evenodd" fill="none" stroke="#000000" stroke-width="0.55" stroke-linecap="round" stroke-linejoin="round" stroke-miterlimit="3" x1="683.358" y1="187.045" x2="698.123" y2="187.045"/>
	
		<path fill-rule="evenodd" clip-rule="evenodd" fill="none" stroke="#000000" stroke-width="0.55" stroke-linecap="round" stroke-linejoin="round" stroke-miterlimit="3" d="
		M683.358,187.045c-1.419,0.086-2.665,0.645-3.74,1.676c-1.031,0.989-1.612,2.214-1.74,3.675"/>
	
		<path fill-rule="evenodd" clip-rule="evenodd" fill="none" stroke="#000000" stroke-width="0.55" stroke-linecap="round" stroke-linejoin="round" stroke-miterlimit="3" d="
		M703.604,192.461c-0.129-1.419-0.709-2.644-1.741-3.675c-0.988-1.032-2.191-1.612-3.61-1.741"/>
	
		<line fill-rule="evenodd" clip-rule="evenodd" fill="none" stroke="#000000" stroke-width="0.55" stroke-linecap="round" stroke-linejoin="round" stroke-miterlimit="3" x1="683.358" y1="248.169" x2="698.123" y2="248.169"/>
	
		<path fill-rule="evenodd" clip-rule="evenodd" fill="none" stroke="#000000" stroke-width="0.55" stroke-linecap="round" stroke-linejoin="round" stroke-miterlimit="3" d="
		M677.878,242.688c0.128,1.418,0.688,2.643,1.676,3.675c1.031,1.031,2.257,1.633,3.676,1.805"/>
	
		<path fill-rule="evenodd" clip-rule="evenodd" fill="none" stroke="#000000" stroke-width="0.55" stroke-linecap="round" stroke-linejoin="round" stroke-miterlimit="3" d="
		M698.123,248.169c1.419-0.129,2.645-0.688,3.676-1.677c1.031-1.031,1.633-2.257,1.805-3.675"/>
	
		<line fill-rule="evenodd" clip-rule="evenodd" fill="none" stroke="#000000" stroke-width="0.55" stroke-linecap="round" stroke-linejoin="round" stroke-miterlimit="3" x1="677.878" y1="242.688" x2="677.878" y2="192.525"/>
	
		<line fill-rule="evenodd" clip-rule="evenodd" fill="none" stroke="#000000" stroke-width="0.55" stroke-linecap="round" stroke-linejoin="round" stroke-miterlimit="3" x1="703.604" y1="242.688" x2="703.604" y2="192.525"/>
	
		<polyline fill-rule="evenodd" clip-rule="evenodd" fill="none" stroke="#000000" stroke-width="0.55" stroke-linecap="round" stroke-linejoin="round" stroke-miterlimit="3" points="
		564.334,214.77 570.975,214.061 580.26,211.675 588.319,208.193 595.283,203.873 596.959,202.52 599.151,200.005 600.441,197.877 
		600.957,196.2 601.021,195.104 600.57,192.912 599.409,190.269 598.829,189.366 597.41,187.754 595.799,186.4 593.349,184.917 
		588.319,182.982 585.74,182.273 513.72,173.054 489.348,170.797 456.142,169.442 	"/>
	
		<line fill-rule="evenodd" clip-rule="evenodd" fill="none" stroke="#000000" stroke-width="0.55" stroke-linecap="round" stroke-linejoin="round" stroke-miterlimit="3" x1="564.334" y1="214.77" x2="555.437" y2="215.672"/>
	
		<polyline fill-rule="evenodd" clip-rule="evenodd" fill="none" stroke="#000000" stroke-width="0.55" stroke-linecap="round" stroke-linejoin="round" stroke-miterlimit="3" points="
		555.437,215.672 427.256,215.801 348.853,213.803 326.157,210.514 321.321,209.096 316.163,206.646 313.842,204.711 
		312.939,203.615 312.359,202.583 311.585,200.456 311.52,198.135 311.65,197.167 312.423,195.233 313.971,192.912 316.485,190.526 
		325.705,183.241 327.188,181.693 327.639,180.984 327.769,180.597 327.769,179.694 350.658,177.051 380.51,171.571 	"/>
	
		<polygon fill-rule="evenodd" clip-rule="evenodd" fill="none" stroke="#000000" stroke-width="0.55" stroke-linecap="round" stroke-linejoin="round" stroke-miterlimit="3" points="
		514.106,182.66 506.886,180.533 453.176,169.314 445.697,168.218 409.01,166.928 392.31,168.475 383.928,170.023 380.769,171.377 
		379.092,172.409 376.449,174.729 374.837,176.664 374.062,177.954 373.87,178.469 373.87,179.63 373.998,180.468 374.256,181.177 
		374.643,181.887 375.159,182.596 375.868,183.305 376.771,183.885 380.317,184.917 387.732,186.335 413.265,188.979 
		458.205,187.947 491.668,183.112 513.397,182.596 	"/>
	<g>
		<g>
			<path fill-rule="evenodd" clip-rule="evenodd" fill="#FFFF00" d="M708.3,242.85c-0.566-0.533-0.85-1.2-0.85-2
				c0-0.8,0.283-1.483,0.85-2.05c0.566-0.566,1.25-0.85,2.05-0.85c0.767,0,1.434,0.283,2,0.85c0.567,0.567,0.851,1.25,0.851,2.05
				c0,0.8-0.283,1.467-0.851,2c-0.566,0.6-1.233,0.9-2,0.9C709.55,243.75,708.866,243.45,708.3,242.85z"/>
			<path fill-rule="evenodd" clip-rule="evenodd" fill="none" stroke="#2D2C2E" stroke-miterlimit="5" d="M708.3,242.85
				c-0.566-0.533-0.85-1.2-0.85-2c0-0.8,0.283-1.483,0.85-2.05c0.566-0.566,1.25-0.85,2.05-0.85c0.767,0,1.434,0.283,2,0.85
				c0.567,0.567,0.851,1.25,0.851,2.05c0,0.8-0.283,1.467-0.851,2c-0.566,0.6-1.233,0.9-2,0.9
				C709.55,243.75,708.866,243.45,708.3,242.85z"/>
		</g>
	</g>
	<g>
		<path fill-rule="evenodd" clip-rule="evenodd" fill="none" stroke="#1A171B" stroke-width="0.5" stroke-miterlimit="6.92" d="
			M521.65,174.1l0.05,3.1l-7.351-1.45V183l-59.05-13.1c7.533-0.6,17.8-0.4,30.8,0.6C494.1,171.133,505.95,172.333,521.65,174.1z"/>
	</g>
	<g>
		
			<polygon fill-rule="evenodd" clip-rule="evenodd" fill="none" stroke="#1A171B" stroke-width="0.5" stroke-miterlimit="6.92" points="
			514.7,197.35 538.05,197.45 538.05,180.2 514.55,175.75 		"/>
	</g>
	<g>
		
			<rect x="395.3" y="191.7" fill-rule="evenodd" clip-rule="evenodd" fill="none" stroke="#1A171B" stroke-width="0.5" stroke-miterlimit="6.92" width="28" height="22.15"/>
	</g>
	<g>
		
			<rect x="423.3" y="191.7" fill-rule="evenodd" clip-rule="evenodd" fill="none" stroke="#1A171B" stroke-width="0.5" stroke-miterlimit="6.92" width="28" height="22.15"/>
	</g>
	<g>
		
			<rect x="451.55" y="191.7" fill-rule="evenodd" clip-rule="evenodd" fill="none" stroke="#1A171B" stroke-width="0.5" stroke-miterlimit="6.92" width="28" height="22.15"/>
	</g>
	<g>
		
			<rect x="479.6" y="191.7" fill-rule="evenodd" clip-rule="evenodd" fill="none" stroke="#1A171B" stroke-width="0.5" stroke-miterlimit="6.92" width="28" height="22.15"/>
	</g>
	<g>
		
			<rect x="351.1" y="188.55" fill-rule="evenodd" clip-rule="evenodd" fill="none" stroke="#1A171B" stroke-width="0.5" stroke-miterlimit="6.92" width="18.75" height="17.5"/>
	</g>
	<g>
		
			<rect x="257.6" y="177.9" fill-rule="evenodd" clip-rule="evenodd" fill="none" stroke="#1A171B" stroke-width="0.5" stroke-miterlimit="6.92" width="52" height="85.1"/>
	</g>
	<g>
		<path fill-rule="evenodd" clip-rule="evenodd" fill="none" stroke="#2B2B2A" stroke-width="0.55" stroke-miterlimit="5" d="
			M144.45,218.85c1.767,0,2.65-0.883,2.65-2.65v-9.3c0-1.767-0.883-2.65-2.65-2.65h-4.6c-1.767,0-2.65,0.883-2.65,2.65v9.3
			c0,1.767,0.883,2.65,2.65,2.65H144.45z"/>
	</g>
	<g>
		
			<rect x="395.4" y="191.8" fill-rule="evenodd" clip-rule="evenodd" fill="none" stroke="#1A171B" stroke-width="0.5" stroke-miterlimit="6.92" width="28" height="22.15"/>
	</g>
	<g>
		
			<rect x="423.4" y="191.8" fill-rule="evenodd" clip-rule="evenodd" fill="none" stroke="#1A171B" stroke-width="0.5" stroke-miterlimit="6.92" width="28" height="22.15"/>
	</g>
	<g>
		
			<rect x="451.65" y="191.8" fill-rule="evenodd" clip-rule="evenodd" fill="none" stroke="#1A171B" stroke-width="0.5" stroke-miterlimit="6.92" width="28" height="22.15"/>
	</g>
	<g>
		
			<rect x="479.7" y="191.8" fill-rule="evenodd" clip-rule="evenodd" fill="none" stroke="#1A171B" stroke-width="0.5" stroke-miterlimit="6.92" width="28" height="22.15"/>
	</g>
</g>
<g>
	<g>
		<path fill-rule="evenodd" clip-rule="evenodd" fill="#FFFF00" d="M166.75,689.3c0.767,0,1.433,0.283,2,0.851
			c0.567,0.566,0.85,1.25,0.85,2.05s-0.283,1.467-0.85,2c-0.567,0.6-1.233,0.899-2,0.899c-0.8,0-1.483-0.3-2.05-0.899
			c-0.567-0.533-0.85-1.2-0.85-2s0.283-1.483,0.85-2.05C165.267,689.583,165.95,689.3,166.75,689.3z"/>
		<path fill-rule="evenodd" clip-rule="evenodd" fill="none" stroke="#2D2C2E" stroke-miterlimit="5" d="M166.75,689.3
			c0.767,0,1.433,0.283,2,0.851c0.567,0.566,0.85,1.25,0.85,2.05s-0.283,1.467-0.85,2c-0.567,0.6-1.233,0.899-2,0.899
			c-0.8,0-1.483-0.3-2.05-0.899c-0.567-0.533-0.85-1.2-0.85-2s0.283-1.483,0.85-2.05C165.267,689.583,165.95,689.3,166.75,689.3z"/>
	</g>
</g>
<g>
	<g>
		<polygon fill-rule="evenodd" clip-rule="evenodd" fill="#CCCCCC" points="547.85,714.4 547.05,714.45 547.05,713.4 561.25,713.4 
			561.25,714.45 559.95,714.45 		"/>
		<path fill-rule="evenodd" clip-rule="evenodd" fill="#FFFF00" d="M559.95,714.45c-0.334,0.7-0.733,1.399-1.2,2.1
			c-0.9,1.434-1.667,2.167-2.3,2.2c-0.667,0.033-1.5,0.05-2.5,0.05c-0.634,0-1.834-0.717-3.601-2.149
			c-0.899-0.767-1.733-1.517-2.5-2.25L559.95,714.45z"/>
		<path fill-rule="evenodd" clip-rule="evenodd" fill="none" stroke="#2D2C2E" stroke-miterlimit="5" d="M547.85,714.4l12.101,0.05
			h1.3v-1.05h-14.2v1.05L547.85,714.4z M559.95,714.45c-0.334,0.7-0.733,1.399-1.2,2.1c-0.9,1.434-1.667,2.167-2.3,2.2
			c-0.667,0.033-1.5,0.05-2.5,0.05c-0.634,0-1.834-0.717-3.601-2.149c-0.899-0.767-1.733-1.517-2.5-2.25"/>
	</g>
</g>
<g>
	<g>
		<path fill-rule="evenodd" clip-rule="evenodd" fill="#FFFF00" d="M701.75,689.3c0.767,0,1.434,0.283,2,0.851
			c0.566,0.566,0.85,1.25,0.85,2.05s-0.283,1.467-0.85,2c-0.566,0.6-1.233,0.899-2,0.899c-0.8,0-1.483-0.3-2.05-0.899
			c-0.566-0.533-0.851-1.2-0.851-2s0.284-1.483,0.851-2.05C700.267,689.583,700.95,689.3,701.75,689.3z"/>
		<path fill-rule="evenodd" clip-rule="evenodd" fill="none" stroke="#2D2C2E" stroke-miterlimit="5" d="M701.75,689.3
			c0.767,0,1.434,0.283,2,0.851c0.566,0.566,0.85,1.25,0.85,2.05s-0.283,1.467-0.85,2c-0.566,0.6-1.233,0.899-2,0.899
			c-0.8,0-1.483-0.3-2.05-0.899c-0.566-0.533-0.851-1.2-0.851-2s0.284-1.483,0.851-2.05C700.267,689.583,700.95,689.3,701.75,689.3z
			"/>
	</g>
</g>
<g>
	<g>
		<polygon fill-rule="evenodd" clip-rule="evenodd" fill="#CCCCCC" points="662.35,627.1 663.65,627.1 663.65,628.15 649.4,628.15 
			649.4,627.1 650.2,627.15 		"/>
		<path fill-rule="evenodd" clip-rule="evenodd" fill="#FFFF00" d="M662.35,627.1L650.2,627.15c0.8-0.733,1.649-1.467,2.55-2.2
			c1.767-1.467,2.95-2.2,3.55-2.2c1,0,1.851,0.017,2.55,0.05c0.634,0.033,1.4,0.767,2.301,2.2
			C661.616,625.7,662.017,626.4,662.35,627.1z"/>
		<path fill-rule="evenodd" clip-rule="evenodd" fill="none" stroke="#2D2C2E" stroke-miterlimit="5" d="M662.35,627.1
			c-0.333-0.699-0.733-1.399-1.199-2.1c-0.9-1.434-1.667-2.167-2.301-2.2c-0.699-0.033-1.55-0.05-2.55-0.05
			c-0.6,0-1.783,0.733-3.55,2.2c-0.9,0.733-1.75,1.467-2.55,2.2L662.35,627.1z M650.2,627.15l-0.8-0.051v1.051h14.25V627.1h-1.301"
			/>
	</g>
</g>
<g>
	<g>
		<path fill-rule="evenodd" clip-rule="evenodd" fill="#FFFF00" d="M685.25,631.65c0.767,0,1.434,0.283,2,0.85s0.85,1.25,0.85,2.05
			s-0.283,1.467-0.85,2c-0.566,0.601-1.233,0.9-2,0.9c-0.8,0-1.483-0.3-2.05-0.9c-0.566-0.533-0.851-1.2-0.851-2
			s0.284-1.483,0.851-2.05S684.45,631.65,685.25,631.65z"/>
		<path fill-rule="evenodd" clip-rule="evenodd" fill="none" stroke="#2D2C2E" stroke-miterlimit="5" d="M685.25,631.65
			c0.767,0,1.434,0.283,2,0.85s0.85,1.25,0.85,2.05s-0.283,1.467-0.85,2c-0.566,0.601-1.233,0.9-2,0.9c-0.8,0-1.483-0.3-2.05-0.9
			c-0.566-0.533-0.851-1.2-0.851-2s0.284-1.483,0.851-2.05S684.45,631.65,685.25,631.65z"/>
	</g>
</g>
<g>
	<g>
		<path fill-rule="evenodd" clip-rule="evenodd" fill="#FFFF00" d="M137.5,242.85c-0.567-0.533-0.85-1.2-0.85-2
			c0-0.8,0.283-1.483,0.85-2.05c0.567-0.566,1.25-0.85,2.05-0.85c0.767,0,1.434,0.283,2,0.85c0.567,0.567,0.85,1.25,0.85,2.05
			c0,0.8-0.283,1.467-0.85,2c-0.566,0.6-1.233,0.9-2,0.9C138.75,243.75,138.067,243.45,137.5,242.85z"/>
		<path fill-rule="evenodd" clip-rule="evenodd" fill="none" stroke="#2D2C2E" stroke-miterlimit="5" d="M137.5,242.85
			c-0.567-0.533-0.85-1.2-0.85-2c0-0.8,0.283-1.483,0.85-2.05c0.567-0.566,1.25-0.85,2.05-0.85c0.767,0,1.434,0.283,2,0.85
			c0.567,0.567,0.85,1.25,0.85,2.05c0,0.8-0.283,1.467-0.85,2c-0.566,0.6-1.233,0.9-2,0.9
			C138.75,243.75,138.067,243.45,137.5,242.85z"/>
	</g>
</g>
<g>
	<g>
		<path fill-rule="evenodd" clip-rule="evenodd" fill="#FFFF00" d="M212.8,182.1c0.567,0.566,0.85,1.25,0.85,2.05
			c0,0.8-0.283,1.467-0.85,2c-0.566,0.6-1.233,0.9-2,0.9c-0.8,0-1.483-0.3-2.05-0.9c-0.567-0.533-0.85-1.2-0.85-2
			c0-0.8,0.283-1.483,0.85-2.05c0.567-0.567,1.25-0.85,2.05-0.85C211.567,181.25,212.233,181.533,212.8,182.1z"/>
		<path fill-rule="evenodd" clip-rule="evenodd" fill="none" stroke="#2D2C2E" stroke-miterlimit="5" d="M212.8,182.1
			c0.567,0.566,0.85,1.25,0.85,2.05c0,0.8-0.283,1.467-0.85,2c-0.566,0.6-1.233,0.9-2,0.9c-0.8,0-1.483-0.3-2.05-0.9
			c-0.567-0.533-0.85-1.2-0.85-2c0-0.8,0.283-1.483,0.85-2.05c0.567-0.567,1.25-0.85,2.05-0.85
			C211.567,181.25,212.233,181.533,212.8,182.1z"/>
	</g>
</g>
<g>
	<g>
		<polygon fill-rule="evenodd" clip-rule="evenodd" fill="#CCCCCC" points="241.95,176 254.1,176.05 254.9,176 254.9,177.05 
			240.65,177.05 240.65,176 		"/>
		<path fill-rule="evenodd" clip-rule="evenodd" fill="#FFFF00" d="M254.1,176.05L241.95,176c0.333-0.7,0.733-1.4,1.2-2.1
			c0.9-1.433,1.667-2.167,2.3-2.2c0.7-0.034,1.55-0.05,2.55-0.05c0.6,0,1.783,0.733,3.55,2.2
			C252.45,174.583,253.3,175.317,254.1,176.05z"/>
		<path fill-rule="evenodd" clip-rule="evenodd" fill="none" stroke="#2D2C2E" stroke-miterlimit="5" d="M254.1,176.05l0.8-0.05
			v1.05h-14.25V176h1.3c0.333-0.7,0.733-1.4,1.2-2.1c0.9-1.433,1.667-2.167,2.3-2.2c0.7-0.034,1.55-0.05,2.55-0.05
			c0.6,0,1.783,0.733,3.55,2.2C252.45,174.583,253.3,175.317,254.1,176.05L241.95,176"/>
	</g>
</g>
<g>
	<g>
		<polygon fill-rule="evenodd" clip-rule="evenodd" fill="#CCCCCC" points="347.1,264.1 345.8,264.1 345.8,263.05 360,263.05 
			360,264.1 359.2,264.05 		"/>
		<path fill-rule="evenodd" clip-rule="evenodd" fill="#FFFF00" d="M347.1,264.1l12.1-0.05c-0.767,0.733-1.6,1.483-2.5,2.25
			c-1.767,1.434-2.967,2.15-3.6,2.15c-1,0-1.833-0.017-2.5-0.05c-0.633-0.033-1.4-0.767-2.3-2.2
			C347.833,265.5,347.433,264.8,347.1,264.1z"/>
		<path fill-rule="evenodd" clip-rule="evenodd" fill="none" stroke="#2D2C2E" stroke-miterlimit="5" d="M347.1,264.1
			c0.333,0.7,0.733,1.4,1.2,2.1c0.9,1.433,1.667,2.167,2.3,2.2c0.667,0.033,1.5,0.05,2.5,0.05c0.633,0,1.833-0.717,3.6-2.15
			c0.9-0.767,1.733-1.517,2.5-2.25L347.1,264.1z M359.2,264.05l0.8,0.05v-1.05h-14.2v1.05h1.3"/>
	</g>
</g>
</svg>
