<?xml version="1.0" encoding="utf-8"?>
<!-- Generator: Adobe Illustrator 16.2.1, SVG Export Plug-In . SVG Version: 6.00 Build 0)  -->
<!DOCTYPE svg PUBLIC "-//W3C//DTD SVG 1.1//EN" "http://www.w3.org/Graphics/SVG/1.1/DTD/svg11.dtd">
<svg version="1.1" id="Selected_Items" xmlns="http://www.w3.org/2000/svg" xmlns:xlink="http://www.w3.org/1999/xlink" x="0px"
	 y="0px" width="835.4px" height="887.1px" viewBox="0 0 835.4 887.1" enable-background="new 0 0 835.4 887.1"
	 xml:space="preserve">
<g>
	<polygon fill-rule="evenodd" clip-rule="evenodd" fill="#CCCCCC" points="337.95,214.1 337.95,227.8 220,241.3 220,230.55 	"/>
</g>
<g>
	<polygon fill-rule="evenodd" clip-rule="evenodd" fill="#CCCCCC" points="460.1,216.6 434.5,216.75 337.95,227.8 338,214.1 
		460.1,197.05 	"/>
</g>
<g>
	<polygon fill-rule="evenodd" clip-rule="evenodd" fill="#CCCCCC" points="621.45,227.85 524.95,216.8 499.35,216.55 499.35,197 
		621.45,214.15 	"/>
</g>
<g>
	<path fill-rule="evenodd" clip-rule="evenodd" fill="#CCCCCC" d="M217.5,231c0.367-0.3,1.15-0.45,2.35-0.45V287L216,275.8
		c-1.933-10.566-2.733-19.6-2.4-27.1C213.967,238.8,215.267,232.9,217.5,231z"/>
</g>
<g>
	<path fill-rule="evenodd" clip-rule="evenodd" fill="#CCCCCC" d="M744.65,235.5c0.733,2.5,1.233,5.733,1.5,9.7
		c0.233,5.167,0.066,11.2-0.5,18.1c-0.5,6.567-1.117,10.733-1.851,12.5L740,287v-56.5c1.134,0,1.917,0.183,2.35,0.55
		C743.217,231.617,743.983,233.1,744.65,235.5z"/>
</g>
<g>
	<polygon fill-rule="evenodd" clip-rule="evenodd" fill="#CCCCCC" points="739.4,241.4 621.5,227.85 621.45,227.85 621.45,214.15 
		739.4,230.55 	"/>
</g>
<g>
	<g>
		<path fill-rule="evenodd" clip-rule="evenodd" fill="#CCCCCC" d="M745.7,702.45c-0.06,0.818-0.126,1.651-0.2,2.5
			c-0.533,6.6-1.134,10.816-1.8,12.649l-3.851,11.2v-56.75c1.167,0,1.934,0.167,2.301,0.5c1.267,1.033,2.199,2.667,2.8,4.9
			c0.566,2.133,0.916,5.25,1.05,9.35C746.233,691.36,746.134,696.577,745.7,702.45z"/>
		
			<line fill-rule="evenodd" clip-rule="evenodd" fill="none" stroke="#000000" stroke-width="0.25" stroke-linecap="round" stroke-linejoin="round" stroke-miterlimit="3" x1="745.7" y1="702.45" x2="763.2" y2="777.75"/>
	</g>
	<text transform="matrix(1.2825 0 0 1 741.4932 790.1367)" font-family="'Tahoma'" font-size="13.1033">344AR</text>
</g>
<g>
	<g>
		<polygon fill-rule="evenodd" clip-rule="evenodd" fill="#CCCCCC" points="739.85,672.05 739.85,682.9 621.25,669.3 621.25,655.55 
			679.55,663.65 		"/>
		
			<line fill-rule="evenodd" clip-rule="evenodd" fill="none" stroke="#000000" stroke-width="0.25" stroke-linecap="round" stroke-linejoin="round" stroke-miterlimit="3" x1="679.55" y1="663.65" x2="693.5" y2="645.15"/>
	</g>
	<text transform="matrix(1.2825 0 0 1 668.5938 636.5371)" font-family="'Tahoma'" font-size="13.1033">341BR</text>
</g>
<g>
	<g>
		<polygon fill-rule="evenodd" clip-rule="evenodd" fill="#CCCCCC" points="563.25,647.5 621.25,655.55 621.25,669.3 524.2,658.15 
			495.7,658.15 495.7,638.1 		"/>
		
			<line fill-rule="evenodd" clip-rule="evenodd" fill="none" stroke="#000000" stroke-width="0.25" stroke-linecap="round" stroke-linejoin="round" stroke-miterlimit="3" x1="563.25" y1="647.5" x2="536.05" y2="590.2"/>
	</g>
	<text transform="matrix(1.2825 0 0 1 505.0938 580.3867)" font-family="'Tahoma'" font-size="13.1033">341AR</text>
</g>
<g>
	<g>
		<polygon fill-rule="evenodd" clip-rule="evenodd" fill="#CCCCCC" points="464.8,637.95 464.8,658.1 436.25,658.1 339.25,669.2 
			339.25,655.5 402.95,646.6 		"/>
		
			<line fill-rule="evenodd" clip-rule="evenodd" fill="none" stroke="#000000" stroke-width="0.25" stroke-linecap="round" stroke-linejoin="round" stroke-miterlimit="3" x1="402.95" y1="646.6" x2="357.05" y2="589.65"/>
	</g>
	<text transform="matrix(1.2814 0 0 1 331.8975 580.3867)" font-family="'Tahoma'" font-size="13.1033">331AL</text>
</g>
<g>
	<g>
		<polygon fill-rule="evenodd" clip-rule="evenodd" fill="#CCCCCC" points="220.65,682.75 220.65,671.9 297.275,661.25 
			339.25,655.4 339.25,669.2 		"/>
		
			<line fill-rule="evenodd" clip-rule="evenodd" fill="none" stroke="#000000" stroke-width="0.25" stroke-linecap="round" stroke-linejoin="round" stroke-miterlimit="3" x1="297.275" y1="661.25" x2="286.55" y2="642.25"/>
	</g>
	<text transform="matrix(1.2814 0 0 1 257.7471 633.7871)" font-family="'Tahoma'" font-size="13.1033">331BL</text>
</g>
<g>
	<g>
		<path fill-rule="evenodd" clip-rule="evenodd" fill="#CCCCCC" d="M353.1,725.5h3.05c0.5,0,0.934,0.184,1.3,0.55
			c0.367,0.334,0.55,0.75,0.55,1.25v5.95c0,0.533-0.183,0.967-0.55,1.3c-0.367,0.367-0.8,0.55-1.3,0.55h-5.95
			c-0.534,0-0.983-0.183-1.35-0.55c-0.333-0.333-0.5-0.767-0.5-1.3v-5.95c0-0.5,0.167-0.916,0.5-1.25
			c0.367-0.366,0.816-0.55,1.35-0.55H353.1z"/>
		
			<line fill-rule="evenodd" clip-rule="evenodd" fill="none" stroke="#000000" stroke-width="0.25" stroke-linecap="round" stroke-linejoin="round" stroke-miterlimit="3" x1="353.1" y1="725.5" x2="336.7" y2="704"/>
	</g>
	<text transform="matrix(1.2801 0 0 1 309.8516 693.7871)" font-family="'Tahoma'" font-size="13.1033">332CT</text>
</g>
<g>
	<g>
		<path fill-rule="evenodd" clip-rule="evenodd" fill="#CCCCCC" d="M376.775,725.5h2.575c0.5,0,0.917,0.184,1.25,0.55
			c0.367,0.334,0.55,0.75,0.55,1.25v5.95c0,0.533-0.183,0.967-0.55,1.3c-0.333,0.367-0.75,0.55-1.25,0.55h-6
			c-0.5,0-0.917-0.183-1.25-0.55c-0.367-0.333-0.55-0.767-0.55-1.3v-5.95c0-0.5,0.184-0.916,0.55-1.25
			c0.333-0.366,0.75-0.55,1.25-0.55H376.775z"/>
		
			<line fill-rule="evenodd" clip-rule="evenodd" fill="none" stroke="#000000" stroke-width="0.25" stroke-linecap="round" stroke-linejoin="round" stroke-miterlimit="3" x1="376.775" y1="725.5" x2="392.4" y2="704"/>
	</g>
	<text transform="matrix(1.2801 0 0 1 371.0508 693.2871)" font-family="'Tahoma'" font-size="13.1033">332AT</text>
</g>
<g>
	<g>
		<path fill-rule="evenodd" clip-rule="evenodd" fill="#CCCCCC" d="M363.725,735.1h-2.175c-0.5,0-0.917-0.183-1.25-0.55
			c-0.367-0.333-0.55-0.767-0.55-1.3v-5.95c0-0.5,0.183-0.916,0.55-1.25c0.333-0.366,0.75-0.55,1.25-0.55h6.05
			c0.467,0,0.883,0.184,1.25,0.55c0.333,0.334,0.5,0.75,0.5,1.25v5.95c0,0.533-0.167,0.967-0.5,1.3
			c-0.367,0.367-0.783,0.55-1.25,0.55H363.725z"/>
		
			<line fill-rule="evenodd" clip-rule="evenodd" fill="none" stroke="#000000" stroke-width="0.25" stroke-linecap="round" stroke-linejoin="round" stroke-miterlimit="3" x1="363.725" y1="735.1" x2="349.55" y2="786.75"/>
	</g>
	<text transform="matrix(1.2801 0 0 1 320.9014 799.5869)" font-family="'Tahoma'" font-size="13.1033">332BT</text>
</g>
<g>
	<g>
		<rect x="389.45" y="730.3" fill-rule="evenodd" clip-rule="evenodd" fill="#CCCCCC" width="11.8" height="5.4"/>
		
			<line fill-rule="evenodd" clip-rule="evenodd" fill="none" stroke="#000000" stroke-width="0.25" stroke-linecap="round" stroke-linejoin="round" stroke-miterlimit="3" x1="418.9" y1="787.75" x2="394.45" y2="736.05"/>
	</g>
	<text transform="matrix(1.2801 0 0 1 395.6011 799.8369)" font-family="'Tahoma'" font-size="13.1033">333AT</text>
</g>
<g>
	<g>
		<polygon fill-rule="evenodd" clip-rule="evenodd" fill="#CCCCCC" points="561.2,735.7 561.2,730.3 573,730.3 573,735.7 
			567.3,735.7 		"/>
		
			<line fill-rule="evenodd" clip-rule="evenodd" fill="none" stroke="#000000" stroke-width="0.25" stroke-linecap="round" stroke-linejoin="round" stroke-miterlimit="3" x1="567.3" y1="735.7" x2="542.85" y2="787.4"/>
	</g>
	<text transform="matrix(1.2801 0 0 1 511.8018 799.8369)" font-family="'Tahoma'" font-size="13.1033">343AT</text>
</g>
<g>
	<g>
		<path fill-rule="evenodd" clip-rule="evenodd" fill="#CCCCCC" d="M589.75,725.5h3.1c0.5,0,0.917,0.184,1.25,0.55
			c0.334,0.334,0.5,0.75,0.5,1.25v5.95c0,0.533-0.166,0.967-0.5,1.3c-0.333,0.367-0.75,0.55-1.25,0.55h-6.05
			c-0.467,0-0.883-0.183-1.25-0.55c-0.333-0.333-0.5-0.767-0.5-1.3v-5.95c0-0.5,0.167-0.916,0.5-1.25
			c0.367-0.366,0.783-0.55,1.25-0.55H589.75z"/>
		
			<line fill-rule="evenodd" clip-rule="evenodd" fill="none" stroke="#000000" stroke-width="0.25" stroke-linecap="round" stroke-linejoin="round" stroke-miterlimit="3" x1="589.75" y1="725.5" x2="573.1" y2="703.65"/>
	</g>
	<text transform="matrix(1.2801 0 0 1 542.8516 692.7871)" font-family="'Tahoma'" font-size="13.1033">342AT</text>
</g>
<g>
	<g>
		<path fill-rule="evenodd" clip-rule="evenodd" fill="#CCCCCC" d="M601.55,735.1h-3.3c-0.5,0-0.917-0.183-1.25-0.55
			c-0.366-0.333-0.55-0.767-0.55-1.3v-5.95c0-0.5,0.184-0.916,0.55-1.25c0.333-0.366,0.75-0.55,1.25-0.55h5.95
			c0.533,0,0.967,0.184,1.3,0.55c0.366,0.334,0.55,0.75,0.55,1.25v5.95c0,0.533-0.184,0.967-0.55,1.3
			c-0.333,0.367-0.767,0.55-1.3,0.55H601.55z"/>
		
			<line fill-rule="evenodd" clip-rule="evenodd" fill="none" stroke="#000000" stroke-width="0.25" stroke-linecap="round" stroke-linejoin="round" stroke-miterlimit="3" x1="601.55" y1="735.1" x2="615.65" y2="786.4"/>
	</g>
	<text transform="matrix(1.2801 0 0 1 588.8018 799.8369)" font-family="'Tahoma'" font-size="13.1033">342BT</text>
</g>
<g>
	<g>
		<path fill-rule="evenodd" clip-rule="evenodd" fill="#CCCCCC" d="M612.95,725.5H616c0.533,0,0.967,0.184,1.3,0.55
			c0.367,0.334,0.55,0.75,0.55,1.25v5.95c0,0.533-0.183,0.967-0.55,1.3c-0.333,0.367-0.767,0.55-1.3,0.55h-5.95
			c-0.533,0-0.95-0.183-1.25-0.55c-0.366-0.333-0.55-0.767-0.55-1.3v-5.95c0-0.5,0.184-0.916,0.55-1.25
			c0.3-0.366,0.717-0.55,1.25-0.55H612.95z"/>
		
			<line fill-rule="evenodd" clip-rule="evenodd" fill="none" stroke="#000000" stroke-width="0.25" stroke-linecap="round" stroke-linejoin="round" stroke-miterlimit="3" x1="612.95" y1="725.5" x2="628.8" y2="703.65"/>
	</g>
	<text transform="matrix(1.2801 0 0 1 607.25 692.7871)" font-family="'Tahoma'" font-size="13.1033">342CT</text>
</g>
<g>
	<g>
		<path fill-rule="evenodd" clip-rule="evenodd" fill="#CCCCCC" d="M218.2,672.4c0.4-0.367,1.167-0.551,2.3-0.551V728.7l-3.85-11.3
			c-0.667-1.801-1.267-6-1.8-12.601c-0.07-0.8-0.136-1.591-0.2-2.375c-0.436-5.919-0.536-11.178-0.3-15.774
			c0.133-4.101,0.483-7.217,1.05-9.351C216,675.1,216.933,673.467,218.2,672.4z"/>
		
			<line fill-rule="evenodd" clip-rule="evenodd" fill="none" stroke="#000000" stroke-width="0.25" stroke-linecap="round" stroke-linejoin="round" stroke-miterlimit="3" x1="214.65" y1="702.425" x2="169.25" y2="777.75"/>
	</g>
	<text transform="matrix(1.2814 0 0 1 147.5479 790.1367)" font-family="'Tahoma'" font-size="13.1033">334AL</text>
</g>
<g>
	<g>
		<path fill-rule="evenodd" clip-rule="evenodd" fill="#CCCCCC" d="M708.875,269.025c0.025,0.024,0.05,0.05,0.075,0.075
			c1.2,1.167,1.8,2.566,1.8,4.2c0,1.667-0.6,3.1-1.8,4.3c-1.167,1.133-2.584,1.7-4.25,1.7c-1.601,0-3-0.566-4.2-1.7
			c-1.2-1.2-1.8-2.633-1.8-4.3c0-1.633,0.6-3.033,1.8-4.2c0.74-0.741,1.558-1.249,2.45-1.525c0.554-0.184,1.137-0.275,1.75-0.275
			C706.331,267.3,707.723,267.875,708.875,269.025z"/>
		
			<line fill-rule="evenodd" clip-rule="evenodd" fill="none" stroke="#000000" stroke-width="0.25" stroke-linecap="round" stroke-linejoin="round" stroke-miterlimit="3" x1="708.875" y1="269.025" x2="767.55" y2="206.2"/>
	</g>
	<text transform="matrix(1.2814 0 0 1 766.8477 206.2871)" font-family="'Tahoma'" font-size="13.1033">332LB</text>
</g>
<g>
	<g>
		<path fill-rule="evenodd" clip-rule="evenodd" fill="#CCCCCC" d="M734.1,273.3c0,1.667-0.583,3.1-1.75,4.3
			c-1.199,1.133-2.6,1.7-4.199,1.7c-1.667,0-3.101-0.566-4.301-1.7c-1.166-1.2-1.75-2.633-1.75-4.3c0-1.633,0.584-3.033,1.75-4.2
			c1.2-1.2,2.634-1.8,4.301-1.8c1.516,0,2.849,0.542,4,1.625c0.069,0.054,0.137,0.112,0.199,0.175
			C733.517,270.267,734.1,271.667,734.1,273.3z"/>
		
			<line fill-rule="evenodd" clip-rule="evenodd" fill="none" stroke="#000000" stroke-width="0.25" stroke-linecap="round" stroke-linejoin="round" stroke-miterlimit="3" x1="732.15" y1="268.925" x2="764.95" y2="243.35"/>
	</g>
	<text transform="matrix(1.2836 0 0 1 765.1934 240.8867)" font-family="'Tahoma'" font-size="13.1033">332MB</text>
</g>
<g>
	<g>
		<path fill-rule="evenodd" clip-rule="evenodd" fill="#CCCCCC" d="M727.3,283.3l0.3-0.075L727.3,283.3z M727.6,283.225v3.925H703.7
			v-6.35H727.6V283.225z"/>
		
			<polyline fill-rule="evenodd" clip-rule="evenodd" fill="none" stroke="#000000" stroke-width="0.25" stroke-linecap="round" stroke-linejoin="round" stroke-miterlimit="3" points="
			727.3,283.3 727.6,283.225 763.35,274.1 		"/>
	</g>
	<text transform="matrix(1.2825 0 0 1 765.8438 272.2871)" font-family="'Tahoma'" font-size="13.1033">332NB</text>
</g>
<g>
	<g>
		<polygon fill-rule="evenodd" clip-rule="evenodd" fill="#CCCCCC" points="717.05,291.3 703.7,291.3 703.7,287.3 727.6,287.3 
			727.6,291.3 717.325,291.3 		"/>
		
			<polyline fill-rule="evenodd" clip-rule="evenodd" fill="none" stroke="#000000" stroke-width="0.25" stroke-linecap="round" stroke-linejoin="round" stroke-miterlimit="3" points="
			717.05,291.3 717.325,291.3 767.55,300.35 		"/>
	</g>
	<text transform="matrix(1.2825 0 0 1 765.8438 303.5869)" font-family="'Tahoma'" font-size="13.1033">333DB</text>
</g>
<g>
	<g>
		<path fill-rule="evenodd" clip-rule="evenodd" fill="#CCCCCC" d="M649.9,251.75l0.324-0.275L649.9,251.75z M650.225,251.475
			c1.15,1.188,1.726,2.563,1.726,4.125c0,1.633-0.601,3.05-1.8,4.25c-1.134,1.2-2.534,1.8-4.2,1.8c-1.634,0-3.05-0.6-4.25-1.8
			c-1.134-1.2-1.7-2.617-1.7-4.25c0-1.6,0.566-3,1.7-4.2c1.2-1.2,2.616-1.8,4.25-1.8c1.666,0,3.066,0.6,4.2,1.8
			C650.179,251.429,650.204,251.454,650.225,251.475z"/>
		
			<polyline fill-rule="evenodd" clip-rule="evenodd" fill="none" stroke="#000000" stroke-width="0.25" stroke-linecap="round" stroke-linejoin="round" stroke-miterlimit="3" points="
			649.9,251.75 650.225,251.475 719.85,196.75 		"/>
	</g>
	<text transform="matrix(1.2825 0 0 1 671.749 156.6875)"><tspan x="0" y="0" font-family="'Tahoma'" font-size="13.1033">332PB</tspan><tspan x="1.299" y="15.069" font-family="'Tahoma'" font-size="13.1033">LOGO</tspan><tspan x="-0.125" y="30.138" font-family="'Tahoma'" font-size="13.1033">LIGHT</tspan></text>
</g>
<g>
	<g>
		<path fill-rule="evenodd" clip-rule="evenodd" fill="#CCCCCC" d="M633.975,267.375l-0.024,0.375L633.975,267.375
			c1.23,0.204,2.306,0.779,3.226,1.725c1.166,1.167,1.75,2.566,1.75,4.2c0,1.667-0.584,3.1-1.75,4.3
			c-1.167,1.133-2.584,1.7-4.25,1.7c-1.634,0-3.05-0.566-4.25-1.7c-1.134-1.2-1.7-2.633-1.7-4.3c0-1.633,0.566-3.033,1.7-4.2
			c1.2-1.2,2.616-1.8,4.25-1.8C633.302,267.3,633.644,267.325,633.975,267.375z"/>
		
			<path fill-rule="evenodd" clip-rule="evenodd" fill="none" stroke="#000000" stroke-width="0.25" stroke-linecap="round" stroke-linejoin="round" stroke-miterlimit="3" d="
			M633.975,267.375l-0.024,0.375 M633.975,267.375l5.476-87.625"/>
	</g>
	<text transform="matrix(1.2825 0 0 1 617.6445 173.9375)" font-family="'Tahoma'" font-size="13.1033">332HB</text>
</g>
<g>
	<g>
		<polygon fill-rule="evenodd" clip-rule="evenodd" fill="#CCCCCC" points="594,279.4 594,265.25 608,265.25 619.85,265.25 
			619.85,279.4 		"/>
		
			<line fill-rule="evenodd" clip-rule="evenodd" fill="none" stroke="#000000" stroke-width="0.25" stroke-linecap="round" stroke-linejoin="round" stroke-miterlimit="3" x1="608" y1="265.25" x2="618.3" y2="150.6"/>
	</g>
	<text transform="matrix(1.2825 0 0 1 604.4434 142.8867)" font-family="'Tahoma'" font-size="13.1033">332EB</text>
</g>
<g>
	<g>
		<path fill-rule="evenodd" clip-rule="evenodd" fill="#CCCCCC" d="M583.35,241.7h3.301c0.833,0,1.55,0.283,2.149,0.85
			c0.601,0.6,0.9,1.317,0.9,2.15c0,0.9-0.3,1.633-0.9,2.2c-0.6,0.6-1.316,0.9-2.149,0.9h-5c-0.867,0-1.601-0.3-2.2-0.9
			c-0.601-0.566-0.9-1.3-0.9-2.2c0-0.833,0.3-1.55,0.9-2.15c0.6-0.566,1.333-0.85,2.2-0.85H583.35z"/>
		
			<line fill-rule="evenodd" clip-rule="evenodd" fill="none" stroke="#000000" stroke-width="0.25" stroke-linecap="round" stroke-linejoin="round" stroke-miterlimit="3" x1="583.35" y1="241.7" x2="591.8" y2="121.55"/>
	</g>
	<text transform="matrix(1.2825 0 0 1 567.0938 109.7871)" font-family="'Tahoma'" font-size="13.1033">332AB</text>
</g>
<g>
	<g>
		<polygon fill-rule="evenodd" clip-rule="evenodd" fill="#CCCCCC" points="569.95,279.55 569.95,265.4 571.4,265.4 593.15,265.4 
			593.15,279.55 		"/>
		
			<line fill-rule="evenodd" clip-rule="evenodd" fill="none" stroke="#000000" stroke-width="0.25" stroke-linecap="round" stroke-linejoin="round" stroke-miterlimit="3" x1="571.4" y1="265.4" x2="553.75" y2="160.2"/>
	</g>
	<text transform="matrix(1.2825 0 0 1 523.3438 147.4873)" font-family="'Tahoma'" font-size="13.1033">332DB</text>
</g>
<g>
	<g>
		<polygon fill-rule="evenodd" clip-rule="evenodd" fill="#CCCCCC" points="493.75,265.25 566.2,265.25 566.2,279.4 491.65,279.4 		
			"/>
		
			<line fill-rule="evenodd" clip-rule="evenodd" fill="none" stroke="#000000" stroke-width="0.25" stroke-linecap="round" stroke-linejoin="round" stroke-miterlimit="3" x1="531.1" y1="264.55" x2="510.5" y2="127.4"/>
	</g>
	<text transform="matrix(1.2825 0 0 1 487.0938 116.8867)" font-family="'Tahoma'" font-size="13.1033">332BB</text>
</g>
<g>
	<g>
		<path fill-rule="evenodd" clip-rule="evenodd" fill="#CCCCCC" d="M423.55,265.5l0.05-0.25L423.55,265.5z M423.6,265.25h42.15
			l2.1,14.15h-74.5v-14.15H423.6z"/>
		
			<polyline fill-rule="evenodd" clip-rule="evenodd" fill="none" stroke="#000000" stroke-width="0.25" stroke-linecap="round" stroke-linejoin="round" stroke-miterlimit="3" points="
			423.55,265.5 423.6,265.25 447.4,130.05 		"/>
	</g>
	<text transform="matrix(1.2825 0 0 1 423.7939 115.7871)" font-family="'Tahoma'" font-size="13.1033">342BB</text>
</g>
<g>
	<g>
		<polygon fill-rule="evenodd" clip-rule="evenodd" fill="#CCCCCC" points="368.15,279.4 368.15,265.25 388,265.25 391.3,265.25 
			391.3,279.4 		"/>
		
			<line fill-rule="evenodd" clip-rule="evenodd" fill="none" stroke="#000000" stroke-width="0.25" stroke-linecap="round" stroke-linejoin="round" stroke-miterlimit="3" x1="388" y1="265.25" x2="389.65" y2="157.5"/>
	</g>
	<text transform="matrix(1.2825 0 0 1 364.0439 145.9375)" font-family="'Tahoma'" font-size="13.1033">342DB</text>
</g>
<g>
	<g>
		<path fill-rule="evenodd" clip-rule="evenodd" fill="#CCCCCC" d="M376.025,241.55h1.875c0.867,0,1.6,0.3,2.2,0.9
			c0.6,0.6,0.9,1.316,0.9,2.15c0,0.867-0.3,1.6-0.9,2.2c-0.6,0.6-1.333,0.9-2.2,0.9h-5c-0.833,0-1.55-0.3-2.15-0.9
			c-0.6-0.6-0.9-1.333-0.9-2.2c0-0.833,0.3-1.55,0.9-2.15c0.6-0.6,1.317-0.9,2.15-0.9H376.025z"/>
		
			<polyline fill-rule="evenodd" clip-rule="evenodd" fill="none" stroke="#000000" stroke-width="0.25" stroke-linecap="round" stroke-linejoin="round" stroke-miterlimit="3" points="
			376.025,241.55 344.85,115.75 357.6,115.75 		"/>
	</g>
	<text transform="matrix(1.2825 0 0 1 355.9932 115.2871)" font-family="'Tahoma'" font-size="13.1033">342AB</text>
</g>
<g>
	<g>
		<polygon fill-rule="evenodd" clip-rule="evenodd" fill="#CCCCCC" points="339.75,279.4 339.75,265.25 351.4,265.25 365.5,265.25 
			365.5,279.4 		"/>
		
			<polyline fill-rule="evenodd" clip-rule="evenodd" fill="none" stroke="#000000" stroke-width="0.25" stroke-linecap="round" stroke-linejoin="round" stroke-miterlimit="3" points="
			351.4,265.25 313.35,91.75 323.05,91.75 		"/>
	</g>
	<text transform="matrix(1.2825 0 0 1 324.0947 90.3867)" font-family="'Tahoma'" font-size="13.1033">342EB</text>
</g>
<g>
	<g>
		<path fill-rule="evenodd" clip-rule="evenodd" fill="#CCCCCC" d="M330.6,277.8c-1.133,1.133-2.533,1.7-4.2,1.7
			c-1.633,0-3.05-0.567-4.25-1.7c-1.133-1.2-1.7-2.633-1.7-4.3c0-1.633,0.566-3.05,1.7-4.25c1.084-1.024,2.342-1.582,3.775-1.675
			c0.159-0.017,0.317-0.025,0.475-0.025c1.667,0,3.067,0.567,4.2,1.7c1.2,1.2,1.8,2.617,1.8,4.25
			C332.4,275.167,331.8,276.6,330.6,277.8z"/>
		
			<polyline fill-rule="evenodd" clip-rule="evenodd" fill="none" stroke="#000000" stroke-width="0.25" stroke-linecap="round" stroke-linejoin="round" stroke-miterlimit="3" points="
			325.925,267.575 311.8,120.25 302.05,120.25 		"/>
	</g>
	<text transform="matrix(1.2825 0 0 1 244.3936 119.7373)" font-family="'Tahoma'" font-size="13.1033">342HB</text>
</g>
<g>
	<g>
		<path fill-rule="evenodd" clip-rule="evenodd" fill="#CCCCCC" d="M309.2,260.1c-1.167-1.2-1.75-2.633-1.75-4.3
			c0-1.633,0.583-3.05,1.75-4.25c1.167-1.133,2.566-1.7,4.2-1.7c1.667,0,3.083,0.566,4.25,1.7c1.167,1.2,1.75,2.617,1.75,4.25
			c0,1.667-0.583,3.1-1.75,4.3c-1.167,1.133-2.583,1.7-4.25,1.7C311.767,261.8,310.367,261.233,309.2,260.1z"/>
		
			<line fill-rule="evenodd" clip-rule="evenodd" fill="none" stroke="#000000" stroke-width="0.25" stroke-linecap="round" stroke-linejoin="round" stroke-miterlimit="3" x1="307.5" y1="252.45" x2="251.15" y2="200.75"/>
	</g>
	<text transform="matrix(1.2825 0 0 1 204.9497 160.8369)"><tspan x="0" y="0" font-family="'Tahoma'" font-size="13.1033">342PB</tspan><tspan x="1.299" y="15.069" font-family="'Tahoma'" font-size="13.1033">LOGO</tspan><tspan x="-0.124" y="30.138" font-family="'Tahoma'" font-size="13.1033">LIGHT</tspan></text>
</g>
<g>
	<g>
		<path fill-rule="evenodd" clip-rule="evenodd" fill="#CCCCCC" d="M253.375,267.675l0.525,0.175L253.375,267.675
			c0.393-0.083,0.801-0.125,1.225-0.125c1.667,0,3.083,0.567,4.25,1.7c1.2,1.2,1.8,2.617,1.8,4.25c0,1.667-0.6,3.1-1.8,4.3
			c-1.167,1.133-2.583,1.7-4.25,1.7c-1.6,0-3-0.567-4.2-1.7c-1.167-1.2-1.75-2.633-1.75-4.3c0-1.633,0.583-3.05,1.75-4.25
			C251.282,268.417,252.274,267.892,253.375,267.675z"/>
		
			<path fill-rule="evenodd" clip-rule="evenodd" fill="none" stroke="#000000" stroke-width="0.25" stroke-linecap="round" stroke-linejoin="round" stroke-miterlimit="3" d="
			M253.375,267.675l0.525,0.175 M253.375,267.675L177.6,241.75"/>
	</g>
	<text transform="matrix(1.2814 0 0 1 120.4473 239.3369)" font-family="'Tahoma'" font-size="13.1033">342LB</text>
</g>
<g>
	<g>
		<path fill-rule="evenodd" clip-rule="evenodd" fill="#CCCCCC" d="M231.25,267.55c1.633,0,3.05,0.567,4.25,1.7
			c1.167,1.2,1.75,2.617,1.75,4.25c0,1.667-0.583,3.1-1.75,4.3c-1.2,1.133-2.617,1.7-4.25,1.7c-1.667,0-3.083-0.567-4.25-1.7
			c-1.167-1.2-1.75-2.633-1.75-4.3c0-1.107,0.267-2.115,0.8-3.025c0.257-0.43,0.574-0.838,0.95-1.225
			C228.167,268.117,229.583,267.55,231.25,267.55z"/>
		
			<line fill-rule="evenodd" clip-rule="evenodd" fill="none" stroke="#000000" stroke-width="0.25" stroke-linecap="round" stroke-linejoin="round" stroke-miterlimit="3" x1="226.05" y1="270.475" x2="179.1" y2="263.5"/>
	</g>
	<text transform="matrix(1.2836 0 0 1 118.793 263.7373)" font-family="'Tahoma'" font-size="13.1033">342MB</text>
</g>
<g>
	<g>
		<polygon fill-rule="evenodd" clip-rule="evenodd" fill="#CCCCCC" points="255.95,280.85 255.95,287.15 232.1,287.15 232.1,284.05 
			232.1,280.85 		"/>
		
			<line fill-rule="evenodd" clip-rule="evenodd" fill="none" stroke="#000000" stroke-width="0.25" stroke-linecap="round" stroke-linejoin="round" stroke-miterlimit="3" x1="232.1" y1="284.05" x2="175.35" y2="288.25"/>
	</g>
	<text transform="matrix(1.2825 0 0 1 119.3936 288.1875)" font-family="'Tahoma'" font-size="13.1033">342NB</text>
</g>
<g>
	<g>
		<polygon fill-rule="evenodd" clip-rule="evenodd" fill="#CCCCCC" points="255.95,287.35 255.95,291.35 242.125,291.35 
			232.1,291.35 232.1,287.35 		"/>
		
			<line fill-rule="evenodd" clip-rule="evenodd" fill="none" stroke="#000000" stroke-width="0.25" stroke-linecap="round" stroke-linejoin="round" stroke-miterlimit="3" x1="242.125" y1="291.35" x2="176.85" y2="319.75"/>
	</g>
	<text transform="matrix(1.2825 0 0 1 119.3936 320.1367)" font-family="'Tahoma'" font-size="13.1033">343DB</text>
</g>
<g>
	<g>
		<path fill-rule="evenodd" clip-rule="evenodd" fill="#CCCCCC" d="M276.425,279.425l0.225-0.575L276.425,279.425
			c-1.208-0.194-2.284-0.736-3.225-1.625c-1.2-1.2-1.8-2.633-1.8-4.3c0-1.633,0.6-3.05,1.8-4.25c1.2-1.133,2.617-1.7,4.25-1.7
			c1.667,0,3.066,0.567,4.2,1.7c1.2,1.2,1.8,2.617,1.8,4.25c0,1.667-0.6,3.1-1.8,4.3c-1.133,1.133-2.533,1.7-4.2,1.7
			C277.098,279.5,276.756,279.475,276.425,279.425z"/>
		
			<path fill-rule="evenodd" clip-rule="evenodd" fill="none" stroke="#000000" stroke-width="0.25" stroke-linecap="round" stroke-linejoin="round" stroke-miterlimit="3" d="
			M276.425,279.425l0.225-0.575 M276.425,279.425L234.25,385.8h-30.8"/>
	</g>
	<text transform="matrix(1.2825 0 0 1 143.7939 383.9873)" font-family="'Tahoma'" font-size="13.1033">342KB</text>
</g>
<g>
	<g>
		<path fill-rule="evenodd" clip-rule="evenodd" fill="#CCCCCC" d="M302.7,279.5l0.15-0.3L302.7,279.5
			c-1.59-0.022-2.957-0.589-4.1-1.7c-1.167-1.2-1.75-2.633-1.75-4.3c0-1.633,0.583-3.05,1.75-4.25c1.167-1.133,2.566-1.7,4.2-1.7
			c1.667,0,3.083,0.567,4.25,1.7c1.167,1.2,1.75,2.617,1.75,4.25c0,1.667-0.583,3.1-1.75,4.3c-1.167,1.133-2.583,1.7-4.25,1.7
			C302.768,279.5,302.734,279.5,302.7,279.5z"/>
		
			<path fill-rule="evenodd" clip-rule="evenodd" fill="none" stroke="#000000" stroke-width="0.25" stroke-linecap="round" stroke-linejoin="round" stroke-miterlimit="3" d="
			M302.7,279.5l0.15-0.3 M302.7,279.5l-66.95,136.3H225.2"/>
	</g>
	<text transform="matrix(1.2833 0 0 1 172.7432 415.9375)" font-family="'Tahoma'" font-size="13.1033">342JB</text>
</g>
<g>
	<g>
		<polygon fill-rule="evenodd" clip-rule="evenodd" fill="#CCCCCC" points="340.05,283.625 340.05,280.95 366.4,280.95 
			366.4,287.25 340.05,287.25 		"/>
		
			<polyline fill-rule="evenodd" clip-rule="evenodd" fill="none" stroke="#000000" stroke-width="0.25" stroke-linecap="round" stroke-linejoin="round" stroke-miterlimit="3" points="
			340.05,283.625 324.85,291.55 271.3,405.65 		"/>
	</g>
	<text transform="matrix(1.2836 0 0 1 247.293 419.2373)" font-family="'Tahoma'" font-size="13.1033">342GB</text>
</g>
<g>
	<g>
		<polygon fill-rule="evenodd" clip-rule="evenodd" fill="#CCCCCC" points="340.05,291.4 340.05,287.4 366.4,287.4 366.4,291.4 
			350.7,291.4 		"/>
		
			<line fill-rule="evenodd" clip-rule="evenodd" fill="none" stroke="#000000" stroke-width="0.25" stroke-linecap="round" stroke-linejoin="round" stroke-miterlimit="3" x1="350.7" y1="291.4" x2="313.35" y2="381.65"/>
	</g>
	<text transform="matrix(1.2825 0 0 1 291.8936 393.4375)" font-family="'Tahoma'" font-size="13.1033">343CB</text>
</g>
<g>
	<g>
		<polygon fill-rule="evenodd" clip-rule="evenodd" fill="#CCCCCC" points="392.9,287.4 392.9,291.4 376.625,291.4 366.5,291.4 
			366.5,287.4 		"/>
		
			<polyline fill-rule="evenodd" clip-rule="evenodd" fill="none" stroke="#000000" stroke-width="0.25" stroke-linecap="round" stroke-linejoin="round" stroke-miterlimit="3" points="
			376.625,291.4 357.25,409.05 368.1,409.05 		"/>
	</g>
	<text transform="matrix(1.2825 0 0 1 368.2939 410.4375)" font-family="'Tahoma'" font-size="13.1033">343BB</text>
</g>
<g>
	<g>
		<path fill-rule="evenodd" clip-rule="evenodd" fill="#CCCCCC" d="M392.4,283.6l0.5,0.4L392.4,283.6z M392.9,284v3.25h-26.4v-6.3
			h26.4V284z"/>
		
			<path fill-rule="evenodd" clip-rule="evenodd" fill="none" stroke="#000000" stroke-width="0.25" stroke-linecap="round" stroke-linejoin="round" stroke-miterlimit="3" d="
			M392.9,284l9.75,7.55L391.3,384.2 M392.4,283.6l0.5,0.4"/>
	</g>
	<text transform="matrix(1.2815 0 0 1 370.5469 392.9375)" font-family="'Tahoma'" font-size="13.1033">342FB</text>
</g>
<g>
	<g>
		<polygon fill-rule="evenodd" clip-rule="evenodd" fill="#CCCCCC" points="443.8,283.175 443.8,280.95 467.9,280.95 469,287.3 
			443.8,287.2 		"/>
		
			<polyline fill-rule="evenodd" clip-rule="evenodd" fill="none" stroke="#000000" stroke-width="0.25" stroke-linecap="round" stroke-linejoin="round" stroke-miterlimit="3" points="
			443.8,283.175 432.9,291.3 440.15,441.45 		"/>
	</g>
	<text transform="matrix(1.2825 0 0 1 402.9932 454.6875)" font-family="'Tahoma'" font-size="13.1033">342CB</text>
</g>
<g>
	<g>
		<polygon fill-rule="evenodd" clip-rule="evenodd" fill="#CCCCCC" points="443.8,291.7 443.8,287.4 469,287.3 469,291.7 
			455.825,291.7 		"/>
		
			<polyline fill-rule="evenodd" clip-rule="evenodd" fill="none" stroke="#000000" stroke-width="0.25" stroke-linecap="round" stroke-linejoin="round" stroke-miterlimit="3" points="
			455.825,291.7 470.1,334.9 470.15,475.75 458.3,475.7 		"/>
	</g>
	<text transform="matrix(1.2825 0 0 1 403.6436 475.5371)" font-family="'Tahoma'" font-size="13.1033">343AB</text>
</g>
<g>
	<g>
		<polygon fill-rule="evenodd" clip-rule="evenodd" fill="#CCCCCC" points="566.65,283.875 567,283.6 566.65,283.875 566.65,280.8 
			593.1,280.8 593.1,287.15 566.65,287.15 		"/>
		
			<path fill-rule="evenodd" clip-rule="evenodd" fill="none" stroke="#000000" stroke-width="0.25" stroke-linecap="round" stroke-linejoin="round" stroke-miterlimit="3" d="
			M566.65,283.875L567,283.6 M566.65,283.875l-9.9,7.675l-4.05,72.95"/>
	</g>
	<text transform="matrix(1.2815 0 0 1 528.4473 373.1875)" font-family="'Tahoma'" font-size="13.1033">332FB</text>
</g>
<g>
	<g>
		<polygon fill-rule="evenodd" clip-rule="evenodd" fill="#CCCCCC" points="593.1,287.3 593.1,291.3 582.7,291.3 566.65,291.3 
			566.65,287.3 		"/>
		
			<polyline fill-rule="evenodd" clip-rule="evenodd" fill="none" stroke="#000000" stroke-width="0.25" stroke-linecap="round" stroke-linejoin="round" stroke-miterlimit="3" points="
			582.7,291.3 596.5,395.15 583.75,395.15 		"/>
	</g>
	<text transform="matrix(1.2825 0 0 1 528.3936 395.4873)" font-family="'Tahoma'" font-size="13.1033">333BB</text>
</g>
<g>
	<g>
		<polygon fill-rule="evenodd" clip-rule="evenodd" fill="#CCCCCC" points="593.15,291.3 593.15,287.3 619.6,287.3 619.6,291.3 
			608.65,291.3 		"/>
		
			<polyline fill-rule="evenodd" clip-rule="evenodd" fill="none" stroke="#000000" stroke-width="0.25" stroke-linecap="round" stroke-linejoin="round" stroke-miterlimit="3" points="
			608.65,291.3 616.75,395.9 632.45,395.9 		"/>
	</g>
	<text transform="matrix(1.2825 0 0 1 632.1934 394.6875)" font-family="'Tahoma'" font-size="13.1033">333CB</text>
</g>
<g>
	<g>
		<polygon fill-rule="evenodd" clip-rule="evenodd" fill="#CCCCCC" points="619.6,284.025 619.3,283.6 619.6,284.025 619.6,287.15 
			593.15,287.15 593.15,280.8 619.6,280.8 		"/>
		
			<path fill-rule="evenodd" clip-rule="evenodd" fill="none" stroke="#000000" stroke-width="0.25" stroke-linecap="round" stroke-linejoin="round" stroke-miterlimit="3" d="
			M619.6,284.025l38.7,55.525v21.6 M619.6,284.025l-0.3-0.425"/>
	</g>
	<text transform="matrix(1.2836 0 0 1 632.293 373.4375)" font-family="'Tahoma'" font-size="13.1033">332GB</text>
</g>
<g>
	<g>
		<path fill-rule="evenodd" clip-rule="evenodd" fill="#CCCCCC" d="M652.3,269.1c1.2-1.2,2.617-1.8,4.25-1.8
			c1.667,0,3.066,0.6,4.2,1.8c1.2,1.167,1.8,2.566,1.8,4.2c0,1.667-0.6,3.1-1.8,4.3c-1.119,1.12-2.503,1.686-4.15,1.7h-0.05
			c-1.633,0-3.05-0.566-4.25-1.7c-1.133-1.2-1.7-2.633-1.7-4.3C650.6,271.667,651.167,270.267,652.3,269.1z"/>
		
			<line fill-rule="evenodd" clip-rule="evenodd" fill="none" stroke="#000000" stroke-width="0.25" stroke-linecap="round" stroke-linejoin="round" stroke-miterlimit="3" x1="656.6" y1="279.3" x2="718.7" y2="380.95"/>
	</g>
	<text transform="matrix(1.2833 0 0 1 699.1426 394.3867)" font-family="'Tahoma'" font-size="13.1033">332JB</text>
</g>
<g>
	<g>
		<path fill-rule="evenodd" clip-rule="evenodd" fill="#CCCCCC" d="M682.625,279.275l-0.175-0.425L682.625,279.275
			c-0.219,0.017-0.444,0.025-0.675,0.025c-1.667,0-3.084-0.566-4.25-1.7c-1.167-1.2-1.75-2.633-1.75-4.3
			c0-1.633,0.583-3.033,1.75-4.2c1.166-1.2,2.583-1.8,4.25-1.8c1.633,0,3.05,0.6,4.25,1.8c1.133,1.167,1.7,2.566,1.7,4.2
			c0,1.667-0.567,3.1-1.7,4.3C685.17,278.573,683.979,279.131,682.625,279.275z"/>
		
			<path fill-rule="evenodd" clip-rule="evenodd" fill="none" stroke="#000000" stroke-width="0.25" stroke-linecap="round" stroke-linejoin="round" stroke-miterlimit="3" d="
			M682.625,279.275l-0.175-0.425 M682.625,279.275L708.6,339.3l58.5,44.25"/>
	</g>
	<text transform="matrix(1.2825 0 0 1 766.1934 383.7871)" font-family="'Tahoma'" font-size="13.1033">332KB</text>
</g>
<g>
	<g>
		<polygon fill-rule="evenodd" clip-rule="evenodd" fill="#CCCCCC" points="503.575,291.7 490.15,291.7 490.15,287.3 515.35,287.4 
			515.35,291.7 		"/>
		
			<polyline fill-rule="evenodd" clip-rule="evenodd" fill="none" stroke="#000000" stroke-width="0.25" stroke-linecap="round" stroke-linejoin="round" stroke-miterlimit="3" points="
			503.575,291.7 482.6,332.45 482.5,475.55 492.2,475.5 		"/>
	</g>
	<text transform="matrix(1.2825 0 0 1 491.1934 475.6367)" font-family="'Tahoma'" font-size="13.1033">333AB</text>
</g>
<g>
	<g>
		<polygon fill-rule="evenodd" clip-rule="evenodd" fill="#CCCCCC" points="515.35,280.95 515.35,287.2 490.15,287.3 491.25,280.95 
					"/>
		
			<polyline fill-rule="evenodd" clip-rule="evenodd" fill="none" stroke="#000000" stroke-width="0.25" stroke-linecap="round" stroke-linejoin="round" stroke-miterlimit="3" points="
			515.6,283.15 526.5,291.3 514.95,442.2 		"/>
	</g>
	<text transform="matrix(1.2825 0 0 1 490.4932 454.6875)" font-family="'Tahoma'" font-size="13.1033">332CB</text>
</g>
<g>
	<g>
		<path fill-rule="evenodd" clip-rule="evenodd" fill="#B3E1FF" d="M223.15,331.675c-2.3-2.734-3.45-5.943-3.45-9.625
			c0-4.267,1.5-7.917,4.5-10.95c3-2.934,6.55-4.417,10.65-4.45c0.1,0,0.167,0,0.2,0h0.05c4.167,0,7.767,1.483,10.8,4.45
			c3,3.033,4.5,6.683,4.5,10.95c0,4.2-1.5,7.784-4.5,10.75c-3.033,3.067-6.633,4.6-10.8,4.6h-0.05c-4.167,0-7.783-1.533-10.85-4.6
			C223.83,332.434,223.48,332.059,223.15,331.675z"/>
		
			<path fill-rule="evenodd" clip-rule="evenodd" fill="none" stroke="#000000" stroke-width="0.25" stroke-linecap="round" stroke-linejoin="round" stroke-miterlimit="3" d="
			M223.15,331.675c-2.3-2.734-3.45-5.943-3.45-9.625c0-4.267,1.5-7.917,4.5-10.95c3-2.934,6.55-4.417,10.65-4.45
			c0.1,0,0.167,0,0.2,0h0.05c4.167,0,7.767,1.483,10.8,4.45c3,3.033,4.5,6.683,4.5,10.95c0,4.2-1.5,7.784-4.5,10.75
			c-3.033,3.067-6.633,4.6-10.8,4.6h-0.05c-4.167,0-7.783-1.533-10.85-4.6C223.83,332.434,223.48,332.059,223.15,331.675z"/>
		
			<line fill-rule="evenodd" clip-rule="evenodd" fill="none" stroke="#000000" stroke-width="0.25" stroke-miterlimit="5" x1="223.15" y1="331.675" x2="190.3" y2="348.3"/>
	</g>
	<text transform="matrix(1 0 0 1 104.5088 344.8613)"><tspan x="0" y="0" font-family="'Tahoma'" font-size="11">STATIC</tspan><tspan x="-14.604" y="12.65" font-family="'Tahoma'" font-size="11">DISCHARGER</tspan></text>
</g>
<g>
	<g>
		<path fill-rule="evenodd" clip-rule="evenodd" fill="#B3E1FF" d="M736.775,334.2c-0.43,0.552-0.905,1.085-1.426,1.6
			c-3.033,3.067-6.633,4.6-10.8,4.6h-0.05c-4.167,0-7.783-1.533-10.85-4.6c-3-2.966-4.5-6.55-4.5-10.75c0-4.267,1.5-7.917,4.5-10.95
			c3-2.934,6.55-4.417,10.649-4.45c0.101,0,0.167,0,0.2,0h0.05c4.167,0,7.767,1.483,10.8,4.45c3,3.033,4.5,6.683,4.5,10.95
			C739.85,328.521,738.825,331.572,736.775,334.2z"/>
		
			<path fill-rule="evenodd" clip-rule="evenodd" fill="none" stroke="#000000" stroke-width="0.25" stroke-linecap="round" stroke-linejoin="round" stroke-miterlimit="3" d="
			M736.775,334.2c-0.43,0.552-0.905,1.085-1.426,1.6c-3.033,3.067-6.633,4.6-10.8,4.6h-0.05c-4.167,0-7.783-1.533-10.85-4.6
			c-3-2.966-4.5-6.55-4.5-10.75c0-4.267,1.5-7.917,4.5-10.95c3-2.934,6.55-4.417,10.649-4.45c0.101,0,0.167,0,0.2,0h0.05
			c4.167,0,7.767,1.483,10.8,4.45c3,3.033,4.5,6.683,4.5,10.95C739.85,328.521,738.825,331.572,736.775,334.2z"/>
		
			<line fill-rule="evenodd" clip-rule="evenodd" fill="none" stroke="#000000" stroke-width="0.25" stroke-miterlimit="5" x1="736.775" y1="334.2" x2="762.95" y2="340.4"/>
	</g>
	<text transform="matrix(1 0 0 1 747.5596 332.5112)"><tspan x="0" y="0" font-family="'Tahoma'" font-size="11">STATIC</tspan><tspan x="-14.604" y="12.65" font-family="'Tahoma'" font-size="11">DISCHARGER</tspan></text>
</g>
<g>
	<g>
		<path fill-rule="evenodd" clip-rule="evenodd" fill="#B3E1FF" d="M235.3,773.2c-3.936-0.136-7.369-1.669-10.3-4.601
			c-3-2.966-4.5-6.55-4.5-10.75c0-4.267,1.5-7.916,4.5-10.949c3-2.934,6.55-4.417,10.65-4.45c0.1,0,0.167,0,0.2,0h0.05
			c4.167,0,7.767,1.483,10.8,4.45c3,3.033,4.5,6.683,4.5,10.949c0,3.467-1.017,6.517-3.05,9.15c-0.433,0.566-0.917,1.1-1.45,1.6
			c-3.034,3.067-6.633,4.601-10.8,4.601h-0.05C235.666,773.2,235.482,773.2,235.3,773.2z"/>
		
			<path fill-rule="evenodd" clip-rule="evenodd" fill="none" stroke="#000000" stroke-width="0.25" stroke-linecap="round" stroke-linejoin="round" stroke-miterlimit="3" d="
			M235.3,773.2c-3.936-0.136-7.369-1.669-10.3-4.601c-3-2.966-4.5-6.55-4.5-10.75c0-4.267,1.5-7.916,4.5-10.949
			c3-2.934,6.55-4.417,10.65-4.45c0.1,0,0.167,0,0.2,0h0.05c4.167,0,7.767,1.483,10.8,4.45c3,3.033,4.5,6.683,4.5,10.949
			c0,3.467-1.017,6.517-3.05,9.15c-0.433,0.566-0.917,1.1-1.45,1.6c-3.034,3.067-6.633,4.601-10.8,4.601h-0.05
			C235.666,773.2,235.482,773.2,235.3,773.2z"/>
		
			<line fill-rule="evenodd" clip-rule="evenodd" fill="none" stroke="#000000" stroke-width="0.25" stroke-miterlimit="5" x1="235.3" y1="773.2" x2="235.3" y2="801.15"/>
	</g>
	<text transform="matrix(1 0 0 1 182.1592 811.0615)"><tspan x="0" y="0" font-family="'Tahoma'" font-size="11">STATIC</tspan><tspan x="-14.604" y="12.65" font-family="'Tahoma'" font-size="11">DISCHARGER</tspan></text>
</g>
<g>
	<g>
		<path fill-rule="evenodd" clip-rule="evenodd" fill="#B3E1FF" d="M724.15,773.2h-0.101c-4.166,0-7.783-1.533-10.85-4.601
			c-3-2.966-4.5-6.55-4.5-10.75c0-4.267,1.5-7.916,4.5-10.949c3-2.934,6.55-4.417,10.649-4.45c0.101,0,0.167,0,0.2,0h0.05
			c4.167,0,7.767,1.483,10.801,4.45c3,3.033,4.5,6.683,4.5,10.949c0,3.467-1.017,6.517-3.051,9.15c-0.433,0.566-0.916,1.1-1.449,1.6
			C731.879,771.654,728.295,773.188,724.15,773.2z"/>
		
			<path fill-rule="evenodd" clip-rule="evenodd" fill="none" stroke="#000000" stroke-width="0.25" stroke-linecap="round" stroke-linejoin="round" stroke-miterlimit="3" d="
			M724.15,773.2h-0.101c-4.166,0-7.783-1.533-10.85-4.601c-3-2.966-4.5-6.55-4.5-10.75c0-4.267,1.5-7.916,4.5-10.949
			c3-2.934,6.55-4.417,10.649-4.45c0.101,0,0.167,0,0.2,0h0.05c4.167,0,7.767,1.483,10.801,4.45c3,3.033,4.5,6.683,4.5,10.949
			c0,3.467-1.017,6.517-3.051,9.15c-0.433,0.566-0.916,1.1-1.449,1.6C731.879,771.654,728.295,773.188,724.15,773.2z"/>
		
			<line fill-rule="evenodd" clip-rule="evenodd" fill="none" stroke="#000000" stroke-width="0.25" stroke-miterlimit="5" x1="724.15" y1="773.2" x2="724.15" y2="801.35"/>
	</g>
	<text transform="matrix(1 0 0 1 671.0098 811.0615)"><tspan x="0" y="0" font-family="'Tahoma'" font-size="11">STATIC</tspan><tspan x="-14.604" y="12.65" font-family="'Tahoma'" font-size="11">DISCHARGER</tspan></text>
</g>
<text transform="matrix(1 0 0 1 414.3999 876.9053)" fill="#1A171B" font-family="'Tahoma-Bold'" font-size="14">Horizontal Stabilizer</text>
<text transform="matrix(1 0 0 1 26.1001 715.2637)" fill="#1A171B" font-family="'Tahoma-Bold'" font-size="18">TOP</text>
<text transform="matrix(1 0 0 1 0 271.0137)" fill="#1A171B" font-family="'Tahoma-Bold'" font-size="18">BOTTOM</text>
<text transform="matrix(1 0 0 1 20.4502 11.4551)"><tspan x="0" y="0" fill="#0000FF" font-family="'Tahoma-Bold'" font-size="14">Horizontal Stabilizer</tspan><tspan x="0" y="20" fill="#0000FF" font-family="'Tahoma'" font-size="13">AMM TASK 06-41-00-992-805</tspan></text>
<text transform="matrix(1.2835 0 0 1 457.1426 618.2861)" font-family="'Tahoma'" font-size="13.1033">FWD</text>
<g>
	<g>
		<path fill-rule="evenodd" clip-rule="evenodd" fill="#B1B1B1" d="M487.25,27.15h10.45l-17.4-24.4l-17.45,24.4h10.45V41.4h13.95
			V27.15z M493.6,0.75c6.5,0,9.75,3.25,9.75,9.75v26.05c0,6.5-3.25,9.75-9.75,9.75h-26.05c-6.5,0-9.75-3.25-9.75-9.75V10.5
			c0-6.5,3.25-9.75,9.75-9.75H493.6z"/>
		<polygon fill-rule="evenodd" clip-rule="evenodd" fill="#0099FF" points="487.25,27.15 487.25,41.4 473.3,41.4 473.3,27.15 
			462.85,27.15 480.3,2.75 497.7,27.15 		"/>
		<path fill-rule="evenodd" clip-rule="evenodd" fill="none" stroke="#999999" stroke-width="1.5" stroke-miterlimit="5" d="
			M493.6,0.75h-26.05c-6.5,0-9.75,3.25-9.75,9.75v26.05c0,6.5,3.25,9.75,9.75,9.75h26.05c6.5,0,9.75-3.25,9.75-9.75V10.5
			C503.35,4,500.1,0.75,493.6,0.75z"/>
	</g>
	<text transform="matrix(1 0 0 1 427.8359 57.0552)"><tspan x="0" y="0" font-family="'Tahoma-Bold'" font-size="14">Rear</tspan><tspan x="-16.759" y="17" font-family="'Tahoma-Bold'" font-size="14">Fuselage </tspan></text>
</g>
<g id="border">
	<g>
		<path fill-rule="evenodd" clip-rule="evenodd" fill="none" stroke="#1A171B" stroke-width="0.5" stroke-miterlimit="6.92" d="
			M741.675,672.275c0.202,0.078,0.36,0.17,0.476,0.274c0.537,0.438,1.012,0.988,1.425,1.65c0.571,0.881,1.029,1.964,1.375,3.25
			c0.545,2.053,0.887,5.02,1.024,8.899 M495.7,638.1l125.55,17.45l118.6,16.5c0.802,0,1.409,0.075,1.825,0.226 M745.975,686.4
			c0.013,0.132,0.021,0.265,0.025,0.399c0.267,5.2,0.1,11.25-0.5,18.15c-0.107,1.334-0.216,2.567-0.325,3.7
			c-0.451,4.504-0.943,7.487-1.475,8.949l-0.375,1.051L739.85,728.8 M220.475,725.9l0.025-54.051c-1.133,0-1.9,0.184-2.3,0.551
			c-1.267,1.066-2.2,2.699-2.8,4.899c-0.566,2.134-0.917,5.25-1.05,9.351c-0.267,5.199-0.1,11.25,0.5,18.149
			c0.533,6.601,1.133,10.8,1.8,12.601l3.8,11.149l0.05,0.15L220.475,725.9z M220.65,682.75l118.6-13.55v-13.7v-0.1l-118.6,16.5
			V682.75z M348.35,730.3v-3c0-0.5,0.167-0.916,0.5-1.25c0.367-0.366,0.816-0.55,1.35-0.55h5.95c0.5,0,0.934,0.184,1.3,0.55
			c0.367,0.334,0.55,0.75,0.55,1.25v3v2.95c0,0.533-0.183,0.967-0.55,1.3c-0.367,0.367-0.8,0.55-1.3,0.55h-5.95
			c-0.534,0-0.983-0.183-1.35-0.55c-0.333-0.333-0.5-0.767-0.5-1.3V730.3z M359.75,730.3v-3c0-0.5,0.183-0.916,0.55-1.25
			c0.333-0.366,0.75-0.55,1.25-0.55h6.05c0.467,0,0.883,0.184,1.25,0.55c0.333,0.334,0.5,0.75,0.5,1.25v3v2.95
			c0,0.533-0.167,0.967-0.5,1.3c-0.367,0.367-0.783,0.55-1.25,0.55h-6.05c-0.5,0-0.917-0.183-1.25-0.55
			c-0.367-0.333-0.55-0.767-0.55-1.3V730.3z M371.55,730.3v-3c0-0.5,0.184-0.916,0.55-1.25c0.333-0.366,0.75-0.55,1.25-0.55h6
			c0.5,0,0.917,0.184,1.25,0.55c0.367,0.334,0.55,0.75,0.55,1.25v3v2.95c0,0.533-0.183,0.967-0.55,1.3
			c-0.333,0.367-0.75,0.55-1.25,0.55h-6c-0.5,0-0.917-0.183-1.25-0.55c-0.367-0.333-0.55-0.767-0.55-1.3V730.3z M585.05,730.3v-3
			c0-0.5,0.167-0.916,0.5-1.25c0.367-0.366,0.783-0.55,1.25-0.55h6.05c0.5,0,0.917,0.184,1.25,0.55c0.334,0.334,0.5,0.75,0.5,1.25v3
			v2.95c0,0.533-0.166,0.967-0.5,1.3c-0.333,0.367-0.75,0.55-1.25,0.55h-6.05c-0.467,0-0.883-0.183-1.25-0.55
			c-0.333-0.333-0.5-0.767-0.5-1.3V730.3z M596.45,730.3v-3c0-0.5,0.184-0.916,0.55-1.25c0.333-0.366,0.75-0.55,1.25-0.55h5.95
			c0.533,0,0.967,0.184,1.3,0.55c0.366,0.334,0.55,0.75,0.55,1.25v3v2.95c0,0.533-0.184,0.967-0.55,1.3
			c-0.333,0.367-0.767,0.55-1.3,0.55h-5.95c-0.5,0-0.917-0.183-1.25-0.55c-0.366-0.333-0.55-0.767-0.55-1.3V730.3z M608.25,730.3v-3
			c0-0.5,0.184-0.916,0.55-1.25c0.3-0.366,0.717-0.55,1.25-0.55H616c0.533,0,0.967,0.184,1.3,0.55c0.367,0.334,0.55,0.75,0.55,1.25
			v3v2.95c0,0.533-0.183,0.967-0.55,1.3c-0.333,0.367-0.767,0.55-1.3,0.55h-5.95c-0.533,0-0.95-0.183-1.25-0.55
			c-0.366-0.333-0.55-0.767-0.55-1.3V730.3z M464.65,658.1h0.149V637.95l-0.175,0.024L339.25,655.5 M339.25,669.2L436,658.125
			l0.25-0.025h28.4 M389.45,730.3v5.4h11.8v-5.4 M561.2,730.3v5.4H573v-5.4"/>
		
			<path fill-rule="evenodd" clip-rule="evenodd" fill="none" stroke="#000000" stroke-width="0.5" stroke-linecap="round" stroke-linejoin="round" stroke-miterlimit="3" d="
			M743.575,674.2c-0.546-1.097-1.179-1.738-1.9-1.925 M745.975,686.35v0.051 M746,686.8c0.328,4.676,0.262,9.893-0.2,15.65
			c-0.168,2.133-0.376,4.199-0.625,6.2 M739.85,728.8v1.5v25.65h-9.5 M745.975,686.35c-0.11-1.581-0.269-3.098-0.475-4.55
			c-0.475-3.482-1.116-6.016-1.925-7.6 M739.85,672.05V682.9V728.8 M725.45,755.95h4.899 M725.45,755.95h-4.9h-4.899h-226.7V730.3
			H471.35v25.65h-226.3 M743.325,718.65l0.35-1.051c0.602-2.827,1.102-5.811,1.5-8.949 M220.45,728.55l0.025-2.649 M220.45,728.55
			v1.75h127.9 M358,730.3h1.75 M369.35,730.3h2.2 M381.15,730.3h8.3h11.8h70.1v-0.5l-3.55-21.85h24.65l-3.5,21.85v0.5h72.25H573
			h12.05h9.55h1.851h9.6h2.2h9.6h122 M240.15,755.95h4.9 M235.25,755.95h4.9 M230.35,755.95h4.9 M220.45,730.3v16.9v8.75h9.9
			 M464.625,637.975l0.025,20.125v0.051h31.05V638.1 M464.65,658.15L436,658.125 M381.15,730.3h-9.6 M358,730.3h-9.65 M369.35,730.3
			h-9.6 M621.25,655.55v13.75l118.6,13.601 M621.25,669.3L524.2,658.15h-28.5"/>
		<path fill-rule="evenodd" clip-rule="evenodd" fill="none" stroke="#FF0000" stroke-miterlimit="6.92" d="M730.35,755.95v12.75
			 M725.45,755.95v12.75 M725.45,751.25v4.7 M730.35,755.95v-4.7 M720.55,755.95v12.75 M720.55,750.9v5.05 M715.65,755.95v12.75
			 M715.65,751.1v4.851 M740.4,747.2l4.5,16.85 M240.15,750.9v5.05v12.75 M245.05,755.95V751.1 M235.25,751.25v4.7v12.75
			 M230.35,751.25v4.7v12.75 M220.45,747.2l-4.65,16.85 M245.05,755.95v12.75"/>
		
			<polygon fill-rule="evenodd" clip-rule="evenodd" fill="none" stroke="#000000" stroke-width="0.45" stroke-linecap="round" stroke-linejoin="round" stroke-miterlimit="3" points="
			465.25,609.45 491.7,609.45 491.7,599 504.9,599 478.45,585.75 452,599 465.25,599 		"/>
	</g>
</g>
<g id="border">
	<g>
		<path fill-rule="evenodd" clip-rule="evenodd" fill="#CCCCCC" d="M740,230.55v55.2l-0.45,1.3v-56.5
			C739.717,230.55,739.866,230.55,740,230.55z"/>
		<path fill-rule="evenodd" clip-rule="evenodd" fill="none" stroke="#1A171B" stroke-width="0.5" stroke-miterlimit="6.92" d="
			M739.4,241.4l-117.9-13.55h-0.05l-96.5-11.05l-25.601-0.25V197l122.101,17.15l117.95,16.4V241.4z M739.55,287.05v-56.5
			c0.167,0,0.316,0,0.45,0v-0.05c1.134,0,1.917,0.183,2.35,0.55c0.867,0.567,1.634,2.05,2.301,4.45c0.733,2.5,1.233,5.733,1.5,9.7
			c0.233,5.167,0.066,11.2-0.5,18.1c-0.5,6.567-1.117,10.733-1.851,12.5L740,287v-1.25L739.55,287.05v27.3 M734.1,273.3
			c0-1.633-0.583-3.033-1.75-4.2c-1.199-1.2-2.6-1.8-4.199-1.8c-1.667,0-3.101,0.6-4.301,1.8c-1.166,1.167-1.75,2.566-1.75,4.2
			c0,1.667,0.584,3.1,1.75,4.3c1.2,1.133,2.634,1.7,4.301,1.7c1.6,0,3-0.566,4.199-1.7C733.517,276.4,734.1,274.967,734.1,273.3z
			 M677.7,269.1c-1.167,1.167-1.75,2.566-1.75,4.2c0,1.667,0.583,3.1,1.75,4.3c1.166,1.133,2.583,1.7,4.25,1.7
			c1.633,0,3.05-0.566,4.25-1.7c1.133-1.2,1.7-2.633,1.7-4.3c0-1.633-0.567-3.033-1.7-4.2c-1.2-1.2-2.617-1.8-4.25-1.8
			C680.283,267.3,678.866,267.9,677.7,269.1z M652.3,269.1c-1.133,1.167-1.7,2.566-1.7,4.2c0,1.667,0.567,3.1,1.7,4.3
			c1.2,1.133,2.617,1.7,4.25,1.7c1.667,0,3.066-0.566,4.2-1.7c1.2-1.2,1.8-2.633,1.8-4.3c0-1.633-0.6-3.033-1.8-4.2
			c-1.134-1.2-2.533-1.8-4.2-1.8C654.917,267.3,653.5,267.9,652.3,269.1z M650.15,251.4c-1.134-1.2-2.534-1.8-4.2-1.8
			c-1.634,0-3.05,0.6-4.25,1.8c-1.134,1.2-1.7,2.6-1.7,4.2c0,1.633,0.566,3.05,1.7,4.25c1.2,1.2,2.616,1.8,4.25,1.8
			c1.666,0,3.066-0.6,4.2-1.8c1.199-1.2,1.8-2.617,1.8-4.25C651.95,254,651.35,252.6,650.15,251.4z M700.5,269.1
			c-1.2,1.167-1.8,2.566-1.8,4.2c0,1.667,0.6,3.1,1.8,4.3c1.2,1.133,2.6,1.7,4.2,1.7c1.666,0,3.083-0.566,4.25-1.7
			c1.2-1.2,1.8-2.633,1.8-4.3c0-1.633-0.6-3.033-1.8-4.2c-1.167-1.2-2.584-1.8-4.25-1.8C703.1,267.3,701.7,267.9,700.5,269.1z
			 M703.7,287.15H727.6v-6.35H703.7V287.15z M703.7,291.3H727.6v-4H703.7V291.3z M443.8,287.2l9.45,0.1H469l-1.1-6.35H443.8V287.2z
			 M453.25,287.3l-9.45,0.1v4.3H469v-4.4 M465.75,265.25h-72.4v14.15h74.5L465.75,265.25z M460.1,216.6v-19.55L338,214.1v2.6
			l-0.05,11.1l96.55-11.05L460.1,216.6z M377.9,241.55c0.867,0,1.6,0.3,2.2,0.9c0.6,0.6,0.9,1.316,0.9,2.15c0,0.867-0.3,1.6-0.9,2.2
			c-0.6,0.6-1.333,0.9-2.2,0.9h-5c-0.833,0-1.55-0.3-2.15-0.9c-0.6-0.6-0.9-1.333-0.9-2.2c0-0.833,0.3-1.55,0.9-2.15
			c0.6-0.6,1.317-0.9,2.15-0.9H377.9z M338,216.7l-0.05-2.6L220,230.55v10.75l117.95-13.5 M340.05,287.25h26.35v-6.3h-26.35V287.25z
			 M340.05,291.4h26.35v-4h-26.35V291.4z M339.75,279.4h25.75v-14.15h-25.75V279.4z M330.6,277.8c1.2-1.2,1.8-2.633,1.8-4.3
			c0-1.633-0.6-3.05-1.8-4.25c-1.133-1.133-2.533-1.7-4.2-1.7c-1.633,0-3.05,0.567-4.25,1.7c-1.133,1.2-1.7,2.617-1.7,4.25
			c0,1.667,0.566,3.1,1.7,4.3c1.2,1.133,2.617,1.7,4.25,1.7C328.067,279.5,329.467,278.933,330.6,277.8z M366.5,287.25h26.4v-6.3
			h-26.4V287.25z M366.5,291.4h26.4v-4h-26.4V291.4z M368.15,265.25v14.15h23.15v-14.15H368.15z M621.45,227.85v-13.7
			 M579.45,242.55c0.6-0.566,1.333-0.85,2.2-0.85h5c0.833,0,1.55,0.283,2.149,0.85c0.601,0.6,0.9,1.317,0.9,2.15
			c0,0.9-0.3,1.633-0.9,2.2c-0.6,0.6-1.316,0.9-2.149,0.9h-5c-0.867,0-1.601-0.3-2.2-0.9c-0.601-0.566-0.9-1.3-0.9-2.2
			C578.55,243.867,578.85,243.15,579.45,242.55z M593.15,291.3H619.6v-4H593.15V291.3z M593.1,287.3H566.65v4H593.1V287.3z
			 M593.15,287.15H619.6v-6.35H593.15V287.15z M593.1,280.8H566.65v6.35H593.1V280.8z M593.15,279.55V265.4h-23.2v14.15H593.15z
			 M594,279.4h25.85v-14.15H594V279.4z M628.7,269.1c-1.134,1.167-1.7,2.566-1.7,4.2c0,1.667,0.566,3.1,1.7,4.3
			c1.2,1.133,2.616,1.7,4.25,1.7c1.666,0,3.083-0.566,4.25-1.7c1.166-1.2,1.75-2.633,1.75-4.3c0-1.633-0.584-3.033-1.75-4.2
			c-1.167-1.2-2.584-1.8-4.25-1.8C631.316,267.3,629.9,267.9,628.7,269.1z M491.25,280.95h24.1v6.25l-9.449,0.1l9.449,0.1v4.3
			H490.15v-4.4L491.25,280.95z M490.15,287.3h15.75 M493.75,265.25h72.45v14.15h-74.55L493.75,265.25z M273.2,269.25
			c-1.2,1.2-1.8,2.617-1.8,4.25c0,1.667,0.6,3.1,1.8,4.3c1.2,1.133,2.617,1.7,4.25,1.7c1.667,0,3.066-0.567,4.2-1.7
			c1.2-1.2,1.8-2.633,1.8-4.3c0-1.633-0.6-3.05-1.8-4.25c-1.133-1.133-2.533-1.7-4.2-1.7C275.817,267.55,274.4,268.117,273.2,269.25
			z M254.6,267.55c-1.6,0-3,0.567-4.2,1.7c-1.167,1.2-1.75,2.617-1.75,4.25c0,1.667,0.583,3.1,1.75,4.3c1.2,1.133,2.6,1.7,4.2,1.7
			c1.667,0,3.083-0.567,4.25-1.7c1.2-1.2,1.8-2.633,1.8-4.3c0-1.633-0.6-3.05-1.8-4.25C257.683,268.117,256.267,267.55,254.6,267.55
			z M255.95,280.85H232.1v6.3h23.85V280.85z M255.95,287.35H232.1v4h23.85V287.35z M307.45,255.8c0,1.667,0.583,3.1,1.75,4.3
			c1.167,1.133,2.566,1.7,4.2,1.7c1.667,0,3.083-0.566,4.25-1.7c1.167-1.2,1.75-2.633,1.75-4.3c0-1.633-0.583-3.05-1.75-4.25
			c-1.167-1.133-2.583-1.7-4.25-1.7c-1.633,0-3.033,0.566-4.2,1.7C308.033,252.75,307.45,254.167,307.45,255.8z M298.6,269.25
			c-1.167,1.2-1.75,2.617-1.75,4.25c0,1.667,0.583,3.1,1.75,4.3c1.167,1.133,2.566,1.7,4.2,1.7c1.667,0,3.083-0.567,4.25-1.7
			c1.167-1.2,1.75-2.633,1.75-4.3c0-1.633-0.583-3.05-1.75-4.25c-1.167-1.133-2.583-1.7-4.25-1.7
			C301.167,267.55,299.767,268.117,298.6,269.25z M217.5,231c-2.233,1.9-3.533,7.8-3.9,17.7c-0.333,7.5,0.467,16.533,2.4,27.1
			l3.85,11.2v-56.45C218.636,230.562,217.853,230.712,217.5,231z M220,230.55c-0.051,0-0.101,0-0.15,0 M227,269.25
			c-1.167,1.2-1.75,2.617-1.75,4.25c0,1.667,0.583,3.1,1.75,4.3c1.167,1.133,2.583,1.7,4.25,1.7c1.633,0,3.05-0.567,4.25-1.7
			c1.167-1.2,1.75-2.633,1.75-4.3c0-1.633-0.583-3.05-1.75-4.25c-1.2-1.133-2.617-1.7-4.25-1.7
			C229.583,267.55,228.167,268.117,227,269.25z M219.85,314.35V287"/>
	</g>
	
		<line fill-rule="evenodd" clip-rule="evenodd" fill="none" stroke="#000000" stroke-width="0.5" stroke-linecap="round" stroke-linejoin="round" stroke-miterlimit="3" x1="516.979" y1="216.606" x2="435.821" y2="216.606"/>
	
		<line fill-rule="evenodd" clip-rule="evenodd" fill="none" stroke="#000000" stroke-width="0.5" stroke-linecap="round" stroke-linejoin="round" stroke-miterlimit="3" x1="220.017" y1="314.345" x2="470.886" y2="314.345"/>
	
		<line fill-rule="evenodd" clip-rule="evenodd" fill="none" stroke="#000000" stroke-width="0.5" stroke-linecap="round" stroke-linejoin="round" stroke-miterlimit="3" x1="467.133" y1="265.208" x2="470.886" y2="288.258"/>
	
		<line fill-rule="evenodd" clip-rule="evenodd" fill="none" stroke="#000000" stroke-width="0.5" stroke-linecap="round" stroke-linejoin="round" stroke-miterlimit="3" x1="470.886" y1="288.258" x2="470.886" y2="314.345"/>
	
		<line fill-rule="evenodd" clip-rule="evenodd" fill="none" stroke="#000000" stroke-width="0.5" stroke-linecap="round" stroke-linejoin="round" stroke-miterlimit="3" x1="469.039" y1="287.245" x2="220.017" y2="287.245"/>
	
		<line fill-rule="evenodd" clip-rule="evenodd" fill="none" stroke="#000000" stroke-width="0.5" stroke-linecap="round" stroke-linejoin="round" stroke-miterlimit="3" x1="488.516" y1="288.674" x2="470.886" y2="288.674"/>
	
		<path fill-rule="evenodd" clip-rule="evenodd" fill="none" stroke="#000000" stroke-width="0.5" stroke-linecap="round" stroke-linejoin="round" stroke-miterlimit="3" d="
		M218.291,230.722c-1.828,0.357-3.157,3.495-3.992,9.41c-0.834,5.877-0.933,12.806-0.297,20.787
		c0.357,4.884,1.033,9.808,2.025,14.771"/>
	
		<line fill-rule="evenodd" clip-rule="evenodd" fill="none" stroke="#000000" stroke-width="0.5" stroke-linecap="round" stroke-linejoin="round" stroke-miterlimit="3" x1="216.145" y1="275.929" x2="220.017" y2="287.245"/>
	
		<line fill-rule="evenodd" clip-rule="evenodd" fill="none" stroke="#000000" stroke-width="0.5" stroke-linecap="round" stroke-linejoin="round" stroke-miterlimit="3" x1="467.133" y1="265.208" x2="479.7" y2="265.208"/>
	
		<line fill-rule="evenodd" clip-rule="evenodd" fill="none" stroke="#000000" stroke-width="0.5" stroke-linecap="round" stroke-linejoin="round" stroke-miterlimit="3" x1="460.104" y1="216.606" x2="460.104" y2="197.13"/>
	
		<line fill-rule="evenodd" clip-rule="evenodd" fill="none" stroke="#000000" stroke-width="0.5" stroke-linecap="round" stroke-linejoin="round" stroke-miterlimit="3" x1="739.384" y1="314.345" x2="488.516" y2="314.345"/>
	
		<line fill-rule="evenodd" clip-rule="evenodd" fill="none" stroke="#000000" stroke-width="0.5" stroke-linecap="round" stroke-linejoin="round" stroke-miterlimit="3" x1="492.208" y1="265.208" x2="488.516" y2="288.258"/>
	
		<line fill-rule="evenodd" clip-rule="evenodd" fill="none" stroke="#000000" stroke-width="0.5" stroke-linecap="round" stroke-linejoin="round" stroke-miterlimit="3" x1="488.516" y1="288.258" x2="488.516" y2="314.345"/>
	
		<line fill-rule="evenodd" clip-rule="evenodd" fill="none" stroke="#000000" stroke-width="0.5" stroke-linecap="round" stroke-linejoin="round" stroke-miterlimit="3" x1="490.541" y1="287.245" x2="739.384" y2="287.245"/>
	
		<line fill-rule="evenodd" clip-rule="evenodd" fill="none" stroke="#000000" stroke-width="0.5" stroke-linecap="round" stroke-linejoin="round" stroke-miterlimit="3" x1="492.208" y1="265.208" x2="479.7" y2="265.208"/>
	
		<line fill-rule="evenodd" clip-rule="evenodd" fill="none" stroke="#000000" stroke-width="0.5" stroke-linecap="round" stroke-linejoin="round" stroke-miterlimit="3" x1="499.355" y1="216.606" x2="499.355" y2="197.13"/>
	
		<line fill-rule="evenodd" clip-rule="evenodd" fill="none" stroke="#000000" stroke-width="0.2" stroke-linecap="round" stroke-linejoin="round" stroke-miterlimit="3" x1="460.104" y1="197.785" x2="459.45" y2="197.189"/>
	<g>
		
			<line fill-rule="evenodd" clip-rule="evenodd" fill="none" stroke="#FF0000" stroke-miterlimit="6.92" x1="229.75" y1="314.55" x2="229.75" y2="332"/>
	</g>
	<g>
		
			<line fill-rule="evenodd" clip-rule="evenodd" fill="none" stroke="#FF0000" stroke-miterlimit="6.92" x1="234.65" y1="314.55" x2="234.65" y2="332"/>
	</g>
	<g>
		
			<line fill-rule="evenodd" clip-rule="evenodd" fill="none" stroke="#FF0000" stroke-miterlimit="6.92" x1="239.55" y1="314.2" x2="239.55" y2="332"/>
	</g>
	<g>
		
			<line fill-rule="evenodd" clip-rule="evenodd" fill="none" stroke="#FF0000" stroke-miterlimit="6.92" x1="244.45" y1="314.4" x2="244.45" y2="332"/>
	</g>
	<g>
		
			<line fill-rule="evenodd" clip-rule="evenodd" fill="none" stroke="#FF0000" stroke-miterlimit="6.92" x1="219.7" y1="310.5" x2="215.2" y2="327.35"/>
	</g>
	<g>
		
			<line fill-rule="evenodd" clip-rule="evenodd" fill="none" stroke="#FF0000" stroke-miterlimit="6.92" x1="729.75" y1="314.55" x2="729.75" y2="332"/>
	</g>
	<g>
		
			<line fill-rule="evenodd" clip-rule="evenodd" fill="none" stroke="#FF0000" stroke-miterlimit="6.92" x1="724.85" y1="314.55" x2="724.85" y2="332"/>
	</g>
	<g>
		
			<line fill-rule="evenodd" clip-rule="evenodd" fill="none" stroke="#FF0000" stroke-miterlimit="6.92" x1="719.95" y1="314.2" x2="719.95" y2="332"/>
	</g>
	<g>
		
			<line fill-rule="evenodd" clip-rule="evenodd" fill="none" stroke="#FF0000" stroke-miterlimit="6.92" x1="715.05" y1="314.4" x2="715.05" y2="332"/>
	</g>
	<g>
		
			<line fill-rule="evenodd" clip-rule="evenodd" fill="none" stroke="#FF0000" stroke-miterlimit="6.92" x1="739.8" y1="310.5" x2="744.3" y2="327.35"/>
	</g>
</g>
</svg>
