<?xml version="1.0" encoding="utf-8"?>
<!-- Generator: Adobe Illustrator 16.2.1, SVG Export Plug-In . SVG Version: 6.00 Build 0)  -->
<!DOCTYPE svg PUBLIC "-//W3C//DTD SVG 1.1//EN" "http://www.w3.org/Graphics/SVG/1.1/DTD/svg11.dtd">
<svg version="1.1" id="Selected_Items" xmlns="http://www.w3.org/2000/svg" xmlns:xlink="http://www.w3.org/1999/xlink" x="0px"
	 y="0px" width="942.4px" height="784.8px" viewBox="0 0 942.4 784.8" enable-background="new 0 0 942.4 784.8"
	 xml:space="preserve">
<g>
	<path fill-rule="evenodd" clip-rule="evenodd" fill="#CCCCCC" d="M350.75,193.6c1.067-1.2,2.417-1.85,4.05-1.95l25.65-1.35
		c1.633-0.1,3.05,0.4,4.25,1.5c1.2,1.067,1.85,2.4,1.95,4c0.067,1.633-0.433,3.05-1.5,4.25c-1.066,1.233-2.417,1.883-4.05,1.95
		l-25.7,1.4c-1.6,0.067-3-0.433-4.2-1.5c-1.233-1.1-1.883-2.45-1.95-4.05C349.15,196.217,349.65,194.8,350.75,193.6z"/>
	<text transform="matrix(0.9983 -0.0577 0.0577 0.9983 353.2227 201.7642)" font-family="'Tahoma'" font-size="10.9978">524FT</text>
</g>
<g>
	<path fill-rule="evenodd" clip-rule="evenodd" fill="#CCCCCC" d="M388.85,191.25c1.066-1.2,2.417-1.85,4.05-1.95l25.65-1.35
		c1.633-0.1,3.05,0.4,4.25,1.5c1.2,1.066,1.85,2.4,1.95,4c0.067,1.633-0.433,3.05-1.5,4.25c-1.1,1.233-2.45,1.883-4.05,1.95
		l-25.7,1.4c-1.6,0.067-3-0.433-4.2-1.5c-1.233-1.1-1.883-2.45-1.95-4.05C387.25,193.867,387.75,192.45,388.85,191.25z"/>
	<text transform="matrix(0.9983 -0.0577 0.0577 0.9983 391.0732 198.9146)" font-family="'Tahoma'" font-size="10.9978">524ET</text>
</g>
<g>
	<path fill-rule="evenodd" clip-rule="evenodd" fill="#CCCCCC" d="M425.35,193.15c-0.067-1.633,0.433-3.05,1.5-4.25
		c1.1-1.2,2.45-1.85,4.05-1.95l25.7-1.35c1.6-0.1,3,0.4,4.2,1.5c1.233,1.066,1.883,2.4,1.95,4c0.1,1.633-0.4,3.05-1.5,4.25
		c-1.067,1.233-2.4,1.883-4,1.95l-25.7,1.4c-1.633,0.066-3.05-0.434-4.25-1.5C426.1,196.1,425.45,194.75,425.35,193.15z"/>
	<text transform="matrix(0.9983 -0.0577 0.0577 0.9983 429.0732 197.0645)" font-family="'Tahoma'" font-size="10.9978">524DT</text>
</g>
<g>
	<path fill-rule="evenodd" clip-rule="evenodd" fill="#CCCCCC" d="M499.3,193.05c-1.066,1.233-2.399,1.883-4,1.95l-25.7,1.4
		c-1.633,0.1-3.05-0.4-4.25-1.5c-1.2-1.066-1.85-2.417-1.95-4.05c-0.066-1.6,0.434-3,1.5-4.2c1.1-1.233,2.45-1.883,4.05-1.95
		l25.7-1.4c1.6-0.1,3,0.4,4.199,1.5c1.233,1.067,1.884,2.417,1.95,4.05C500.9,190.45,500.4,191.85,499.3,193.05z"/>
	<text transform="matrix(0.9983 -0.0577 0.0577 0.9983 466.6729 194.9644)" font-family="'Tahoma'" font-size="10.9978">524CT</text>
</g>
<g>
	<path fill-rule="evenodd" clip-rule="evenodd" fill="#CCCCCC" d="M504.2,192.4c-1.233-1.066-1.884-2.417-1.95-4.05
		c-0.1-1.6,0.4-3,1.5-4.2c1.066-1.233,2.417-1.883,4.05-1.95l25.65-1.4c1.633-0.1,3.05,0.4,4.25,1.5c1.2,1.067,1.85,2.417,1.95,4.05
		c0.066,1.6-0.434,3-1.5,4.2c-1.101,1.233-2.45,1.883-4.051,1.95l-25.699,1.4C506.8,194,505.4,193.5,504.2,192.4z"/>
	<text transform="matrix(0.9983 -0.0577 0.0577 0.9983 505.373 192.2646)" font-family="'Tahoma'" font-size="10.9978">524BT</text>
</g>
<g>
	<path fill-rule="evenodd" clip-rule="evenodd" fill="#CCCCCC" d="M543.6,190c-1.199-1.067-1.85-2.417-1.949-4.05
		c-0.067-1.6,0.433-3,1.5-4.2c1.066-1.233,2.416-1.883,4.05-1.95l38.6-2.1c1.601-0.1,3,0.4,4.2,1.5
		c1.233,1.066,1.884,2.417,1.95,4.05c0.1,1.6-0.4,3-1.5,4.2c-1.066,1.233-2.417,1.883-4.05,1.95l-38.551,2.1
		C546.217,191.6,544.8,191.1,543.6,190z"/>
	<text transform="matrix(0.9983 -0.0577 0.0577 0.9983 551.2236 190.1147)" font-family="'Tahoma'" font-size="10.9978">524AT</text>
</g>
<g>
	<path fill-rule="evenodd" clip-rule="evenodd" fill="#CCCCCC" d="M598.35,188.3c-1.166-1.167-1.75-2.566-1.75-4.2
		s0.584-3.033,1.75-4.2c1.134-1.167,2.534-1.75,4.2-1.75h21.8c1.634,0,3.034,0.583,4.2,1.75c1.167,1.167,1.75,2.567,1.75,4.2
		s-0.583,3.033-1.75,4.2c-1.166,1.167-2.566,1.75-4.2,1.75h-21.8C600.917,190.05,599.517,189.467,598.35,188.3z"/>
	<text transform="matrix(1 0 0 1 598.0996 189.061)" font-family="'Tahoma'" font-size="11">523AT</text>
</g>
<g>
	<path fill-rule="evenodd" clip-rule="evenodd" fill="#CCCCCC" d="M669.65,179.95c1.233,1.133,1.85,2.517,1.85,4.15
		c0,1.6-0.616,2.983-1.85,4.15c-1.2,1.133-2.667,1.7-4.4,1.7H637.9c-1.7,0-3.167-0.567-4.4-1.7c-1.233-1.167-1.85-2.55-1.85-4.15
		c0-1.633,0.616-3.017,1.85-4.15c1.233-1.167,2.7-1.75,4.4-1.75h27.35C666.983,178.2,668.45,178.783,669.65,179.95z"/>
	<text transform="matrix(1 0 0 1 635.4502 188.1113)" font-family="'Tahoma'" font-size="11">522CT</text>
</g>
<g>
	<path fill-rule="evenodd" clip-rule="evenodd" fill="#CCCCCC" d="M675.65,188c-1.134-1.167-1.7-2.55-1.7-4.15
		c0-1.633,0.566-3.017,1.7-4.15c1.133-1.167,2.483-1.75,4.05-1.75h25.25c1.566,0,2.916,0.583,4.05,1.75
		c1.134,1.133,1.7,2.517,1.7,4.15c0,1.6-0.566,2.983-1.7,4.15c-1.134,1.133-2.483,1.7-4.05,1.7H679.7
		C678.134,189.7,676.783,189.133,675.65,188z"/>
	<text transform="matrix(1 0 0 1 677.4502 187.8613)" font-family="'Tahoma'" font-size="11">522BT</text>
</g>
<g>
	<path fill-rule="evenodd" clip-rule="evenodd" fill="#CCCCCC" d="M715.85,188.25c-1.133-1.167-1.699-2.55-1.699-4.15
		c0-1.633,0.566-3.017,1.699-4.15c1.134-1.167,2.483-1.75,4.051-1.75h25.25c1.566,0,2.916,0.583,4.05,1.75
		c1.133,1.133,1.7,2.517,1.7,4.15c0,1.6-0.567,2.983-1.7,4.15c-1.134,1.133-2.483,1.7-4.05,1.7H719.9
		C718.333,189.95,716.983,189.383,715.85,188.25z"/>
	<text transform="matrix(1 0 0 1 716.6504 188.3613)" font-family="'Tahoma'" font-size="11">522AT</text>
</g>
<g>
	<path fill-rule="evenodd" clip-rule="evenodd" fill="#CCCCCC" d="M756.55,188.1c-1.2-1.133-1.8-2.5-1.8-4.1s0.6-2.967,1.8-4.1
		c1.233-1.133,2.7-1.7,4.4-1.7h16.6c1.667,0,3.117,0.566,4.351,1.7c1.199,1.133,1.8,2.5,1.8,4.1s-0.601,2.967-1.8,4.1
		c-1.233,1.133-2.684,1.7-4.351,1.7h-16.6C759.25,189.8,757.783,189.233,756.55,188.1z"/>
	<text transform="matrix(1 0 0 1 756.75 186.582)" font-family="'Tahoma'" font-size="9">521BT</text>
</g>
<g>
	<g>
		<path fill-rule="evenodd" clip-rule="evenodd" fill="#CCCCCC" d="M796.35,178.05h1.95c1.634,0,3.033,0.583,4.2,1.75
			c1.167,1.167,1.75,2.567,1.75,4.2c0,1.667-0.583,3.067-1.75,4.2c-1.167,1.167-2.566,1.75-4.2,1.75h-4.85
			c-1.667,0-3.066-0.583-4.2-1.75c-1.167-1.133-1.75-2.534-1.75-4.2c0-1.633,0.583-3.033,1.75-4.2c1.134-1.167,2.533-1.75,4.2-1.75
			H796.35z"/>
		
			<line fill-rule="evenodd" clip-rule="evenodd" fill="none" stroke="#000000" stroke-linecap="round" stroke-linejoin="round" stroke-miterlimit="3" x1="796.35" y1="178.05" x2="803.3" y2="147.2"/>
	</g>
	<text transform="matrix(1 0 0 1 785.5 138.7256)" font-family="'Tahoma'" font-size="12">521AT</text>
</g>
<g>
	<g>
		<polygon fill-rule="evenodd" clip-rule="evenodd" fill="#CCCCCC" points="329.2,213.65 329.2,210.6 333.9,210.55 333.8,216.2 
			329.2,216.3 		"/>
		
			<line fill-rule="evenodd" clip-rule="evenodd" fill="none" stroke="#000000" stroke-linecap="round" stroke-linejoin="round" stroke-miterlimit="3" x1="329.2" y1="213.65" x2="318.1" y2="204"/>
	</g>
	<text transform="matrix(1 0 0 1 284.7002 206.6113)" font-family="'Tahoma'" font-size="11">532QT</text>
</g>
<g>
	<g>
		<polygon fill-rule="evenodd" clip-rule="evenodd" fill="#CCCCCC" points="343.8,213.2 343.75,216.2 339.15,216.3 339.15,210.6 
			343.85,210.55 		"/>
		
			<line fill-rule="evenodd" clip-rule="evenodd" fill="none" stroke="#000000" stroke-linecap="round" stroke-linejoin="round" stroke-miterlimit="3" x1="343.8" y1="213.2" x2="349.35" y2="213.2"/>
	</g>
	<text transform="matrix(1 0 0 1 350.1499 216.9609)" font-family="'Tahoma'" font-size="11">532RT</text>
</g>
<g>
	<g>
		<polygon fill-rule="evenodd" clip-rule="evenodd" fill="#CCCCCC" points="253.85,229 252.4,228.95 252.7,224.1 257.15,224.2 
			256.85,229.1 		"/>
		
			<line fill-rule="evenodd" clip-rule="evenodd" fill="none" stroke="#000000" stroke-linecap="round" stroke-linejoin="round" stroke-miterlimit="3" x1="253.85" y1="229" x2="231.35" y2="310.7"/>
	</g>
	<text transform="matrix(1 0 0 1 213.3501 323.876)" font-family="'Tahoma'" font-size="12">543EL</text>
</g>
<g>
	<g>
		<polygon fill-rule="evenodd" clip-rule="evenodd" fill="#CCCCCC" points="306.35,230.15 304.2,230.05 304.4,225.25 308.9,225.45 
			308.7,230.25 		"/>
		
			<line fill-rule="evenodd" clip-rule="evenodd" fill="none" stroke="#000000" stroke-linecap="round" stroke-linejoin="round" stroke-miterlimit="3" x1="306.35" y1="230.15" x2="273.95" y2="266.5"/>
	</g>
	<text transform="matrix(1 0 0 1 256.4502 279.6758)" font-family="'Tahoma'" font-size="12">543FL</text>
</g>
<g>
	<g>
		<polygon fill-rule="evenodd" clip-rule="evenodd" fill="#CCCCCC" points="314.3,230.325 312.4,230.25 312.65,225.45 317.1,225.6 
			316.9,230.45 		"/>
		
			<line fill-rule="evenodd" clip-rule="evenodd" fill="none" stroke="#000000" stroke-linecap="round" stroke-linejoin="round" stroke-miterlimit="3" x1="314.3" y1="230.325" x2="282.4" y2="297.95"/>
	</g>
	<text transform="matrix(1 0 0 1 263.7002 310.376)" font-family="'Tahoma'" font-size="12">543GL</text>
</g>
<g>
	<g>
		<polygon fill-rule="evenodd" clip-rule="evenodd" fill="#CCCCCC" points="326.85,230.825 324.85,230.75 325.05,225.95 
			330.9,226.05 330.6,230.95 		"/>
		
			<line fill-rule="evenodd" clip-rule="evenodd" fill="none" stroke="#000000" stroke-linecap="round" stroke-linejoin="round" stroke-miterlimit="3" x1="326.85" y1="230.825" x2="293.35" y2="339.45"/>
	</g>
	<text transform="matrix(1 0 0 1 274.3501 352.626)" font-family="'Tahoma'" font-size="12">543HL</text>
</g>
<g>
	<g>
		<polygon fill-rule="evenodd" clip-rule="evenodd" fill="#CCCCCC" points="333.8,226.1 333.5,231 331.85,230.975 330.6,230.95 
			330.9,226.05 		"/>
		
			<line fill-rule="evenodd" clip-rule="evenodd" fill="none" stroke="#000000" stroke-linecap="round" stroke-linejoin="round" stroke-miterlimit="3" x1="331.85" y1="230.975" x2="319.1" y2="370.05"/>
	</g>
	<text transform="matrix(1 0 0 1 303 382.7256)" font-family="'Tahoma'" font-size="12">543JL</text>
</g>
<g>
	<g>
		<polygon fill-rule="evenodd" clip-rule="evenodd" fill="#CCCCCC" points="339.35,231.175 336.4,231.05 336.6,226.25 341.1,226.4 
			340.9,231.25 		"/>
		
			<line fill-rule="evenodd" clip-rule="evenodd" fill="none" stroke="#000000" stroke-linecap="round" stroke-linejoin="round" stroke-miterlimit="3" x1="339.35" y1="231.175" x2="346.9" y2="338.75"/>
	</g>
	<text transform="matrix(1 0 0 1 331.3999 352.4258)" font-family="'Tahoma'" font-size="12">543KL</text>
</g>
<g>
	<g>
		<polygon fill-rule="evenodd" clip-rule="evenodd" fill="#CCCCCC" points="392.3,224.575 387.25,224.55 387.3,219.5 401.4,219.55 
			401.35,224.6 		"/>
		
			<line fill-rule="evenodd" clip-rule="evenodd" fill="none" stroke="#000000" stroke-linecap="round" stroke-linejoin="round" stroke-miterlimit="3" x1="392.3" y1="224.575" x2="378.15" y2="265"/>
	</g>
	<text transform="matrix(1 0 0 1 359.25 276.561)" font-family="'Tahoma'" font-size="11">542AL*</text>
</g>
<g>
	<g>
		<polygon fill-rule="evenodd" clip-rule="evenodd" fill="#CCCCCC" points="401.65,216.95 397.6,217 397.65,213 401.65,213 		"/>
		
			<line fill-rule="evenodd" clip-rule="evenodd" fill="none" stroke="#000000" stroke-linecap="round" stroke-linejoin="round" stroke-miterlimit="3" x1="400" y1="217.5" x2="401.55" y2="311"/>
	</g>
	<text transform="matrix(1 0 0 1 384.6001 323.876)" font-family="'Tahoma'" font-size="12">532ST</text>
</g>
<g>
	<g>
		<polygon fill-rule="evenodd" clip-rule="evenodd" fill="#CCCCCC" points="415.35,224.575 408.3,224.55 408.3,219.5 422.4,219.55 
			422.4,224.6 		"/>
		
			<line fill-rule="evenodd" clip-rule="evenodd" fill="none" stroke="#000000" stroke-linecap="round" stroke-linejoin="round" stroke-miterlimit="3" x1="415.35" y1="224.575" x2="440.3" y2="318.2"/>
	</g>
	<text transform="matrix(1 0 0 1 429.1001 329.8818)"><tspan x="0" y="0" font-family="'Tahoma'" font-size="9">542BL*</tspan><tspan x="0" y="8" font-family="'Tahoma'" font-size="9">542EB*</tspan></text>
</g>
<g>
	<g>
		<polygon fill-rule="evenodd" clip-rule="evenodd" fill="#CCCCCC" points="427,216.975 425.55,217 425.6,213 429.6,213 
			429.6,216.95 		"/>
		
			<line fill-rule="evenodd" clip-rule="evenodd" fill="none" stroke="#000000" stroke-linecap="round" stroke-linejoin="round" stroke-miterlimit="3" x1="427" y1="216.975" x2="443.55" y2="252"/>
	</g>
	<text transform="matrix(1 0 0 1 428.5498 264.1758)" font-family="'Tahoma'" font-size="12">532TT</text>
</g>
<g>
	<g>
		<polygon fill-rule="evenodd" clip-rule="evenodd" fill="#CCCCCC" points="466.35,216.975 464.65,217 464.7,213 468.7,213 
			468.7,216.95 		"/>
		
			<line fill-rule="evenodd" clip-rule="evenodd" fill="none" stroke="#000000" stroke-linecap="round" stroke-linejoin="round" stroke-miterlimit="3" x1="466.35" y1="216.975" x2="483.65" y2="269.5"/>
	</g>
	<text transform="matrix(1 0 0 1 468.0498 283.6758)" font-family="'Tahoma'" font-size="12">532UT</text>
</g>
<g>
	<g>
		<polygon fill-rule="evenodd" clip-rule="evenodd" fill="#CCCCCC" points="514.45,219.6 514.45,224.6 507.4,224.6 500.35,224.6 
			500.35,219.6 		"/>
		
			<line fill-rule="evenodd" clip-rule="evenodd" fill="none" stroke="#000000" stroke-linecap="round" stroke-linejoin="round" stroke-miterlimit="3" x1="507.4" y1="224.6" x2="527.8" y2="268.2"/>
	</g>
	<text transform="matrix(1 0 0 1 512.2998 280.4111)" font-family="'Tahoma'" font-size="11">542CL*</text>
</g>
<g>
	<g>
		<polygon fill-rule="evenodd" clip-rule="evenodd" fill="#CCCCCC" points="583.75,220.1 583.75,225.1 576.7,225.1 569.65,225.1 
			569.65,220.1 		"/>
		
			<line fill-rule="evenodd" clip-rule="evenodd" fill="none" stroke="#000000" stroke-linecap="round" stroke-linejoin="round" stroke-miterlimit="3" x1="576.7" y1="225.1" x2="569.8" y2="303.2"/>
	</g>
	<text transform="matrix(1 0 0 1 554.7002 313.082)"><tspan x="0" y="0" font-family="'Tahoma'" font-size="9">542DL*</tspan><tspan x="0" y="8" font-family="'Tahoma'" font-size="9">542FB*</tspan></text>
</g>
<g>
	<g>
		<polygon fill-rule="evenodd" clip-rule="evenodd" fill="#CCCCCC" points="647.5,221.95 647.5,224.95 643.5,224.95 643.5,219.9 
			655.55,219.9 655.55,224.95 651.1,224.95 651.1,221.75 647.5,221.75 		"/>
		
			<line fill-rule="evenodd" clip-rule="evenodd" fill="none" stroke="#000000" stroke-linecap="round" stroke-linejoin="round" stroke-miterlimit="3" x1="647.5" y1="221.95" x2="666.3" y2="293.7"/>
	</g>
	<text transform="matrix(1 0 0 1 652.1504 304.582)"><tspan x="0" y="0" font-family="'Tahoma'" font-size="9">541AL*</tspan><tspan x="0" y="8" font-family="'Tahoma'" font-size="9">541BB*</tspan></text>
</g>
<g>
	<g>
		<polygon fill-rule="evenodd" clip-rule="evenodd" fill="#CCCCCC" points="720.9,221.75 717.35,221.75 717.35,224.95 713.3,224.95 
			713.3,219.9 725.4,219.9 725.4,224.95 720.9,224.95 		"/>
		
			<line fill-rule="evenodd" clip-rule="evenodd" fill="none" stroke="#000000" stroke-linecap="round" stroke-linejoin="round" stroke-miterlimit="3" x1="720.9" y1="221.75" x2="714.3" y2="293.2"/>
	</g>
	<text transform="matrix(1 0 0 1 699.25 303.582)"><tspan x="0" y="0" font-family="'Tahoma'" font-size="9">541CL*</tspan><tspan x="0" y="8" font-family="'Tahoma'" font-size="9">541DB*</tspan></text>
</g>
<g>
	<g>
		<rect x="215.65" y="210.55" fill-rule="evenodd" clip-rule="evenodd" fill="#CCCCCC" width="15.55" height="5.8"/>
		
			<line fill-rule="evenodd" clip-rule="evenodd" fill="none" stroke="#000000" stroke-linecap="round" stroke-linejoin="round" stroke-miterlimit="3" x1="208.15" y1="215.15" x2="190.35" y2="218.7"/>
	</g>
	<text transform="matrix(1 0 0 1 154.6499 223.7256)" font-family="'Tahoma'" font-size="12">543AL</text>
</g>
<g>
	<g>
		<polygon fill-rule="evenodd" clip-rule="evenodd" fill="#CCCCCC" points="552.3,573.1 591.2,571.95 591.1,583.6 512.3,583.75 
			512.3,574.3 		"/>
		
			<line fill-rule="evenodd" clip-rule="evenodd" fill="none" stroke="#1A171B" stroke-linecap="round" stroke-linejoin="round" stroke-miterlimit="3" x1="552.3" y1="573.1" x2="549.35" y2="551.9"/>
	</g>
	<text transform="matrix(1 0 0 1 530.2998 547.8613)" font-family="'Tahoma'" font-size="11">532AB*</text>
</g>
<g>
	<g>
		<path fill-rule="evenodd" clip-rule="evenodd" fill="#CCCCCC" d="M483.35,574.975l10.25-0.225c-0.199,1-0.517,3.9-0.949,8.7
			l-20.851,0.1v-8.3L483.35,574.975z"/>
		
			<line fill-rule="evenodd" clip-rule="evenodd" fill="none" stroke="#000000" stroke-linecap="round" stroke-linejoin="round" stroke-miterlimit="3" x1="483.35" y1="574.975" x2="477.35" y2="547.65"/>
	</g>
	<text transform="matrix(1 0 0 1 458.7998 542.6611)" font-family="'Tahoma'" font-size="11">532BB*</text>
</g>
<g>
	<g>
		<polygon fill-rule="evenodd" clip-rule="evenodd" fill="#CCCCCC" points="465.8,580.25 460,580.3 459.95,575.55 471.75,575.25 
			471.7,580.2 		"/>
		
			<line fill-rule="evenodd" clip-rule="evenodd" fill="none" stroke="#000000" stroke-linecap="round" stroke-linejoin="round" stroke-miterlimit="3" x1="465.8" y1="580.25" x2="460.35" y2="603.45"/>
	</g>
	<text transform="matrix(1 0 0 1 440.9502 615.1611)" font-family="'Tahoma'" font-size="11">532CB*</text>
</g>
<g>
	<g>
		<polygon fill-rule="evenodd" clip-rule="evenodd" fill="#CCCCCC" points="432.8,576.325 459.9,575.55 459.9,584.3 404.4,584.35 
			404.45,582.1 404.5,582.1 404.55,577.15 		"/>
		
			<line fill-rule="evenodd" clip-rule="evenodd" fill="none" stroke="#000000" stroke-linecap="round" stroke-linejoin="round" stroke-miterlimit="3" x1="432.8" y1="576.325" x2="432.8" y2="558.65"/>
	</g>
	<text transform="matrix(1 0 0 1 413.8999 555.0615)" font-family="'Tahoma'" font-size="11">532DB*</text>
</g>
<g>
	<g>
		<polygon fill-rule="evenodd" clip-rule="evenodd" fill="#CCCCCC" points="399.8,577.225 404.55,577.1 404.5,582.1 394.35,582.15 
			393.55,577.4 		"/>
		
			<line fill-rule="evenodd" clip-rule="evenodd" fill="none" stroke="#000000" stroke-linecap="round" stroke-linejoin="round" stroke-miterlimit="3" x1="399.8" y1="577.225" x2="411.3" y2="542.65"/>
	</g>
	<text transform="matrix(1 0 0 1 393.0498 538.0107)" font-family="'Tahoma'" font-size="11">532EB*</text>
</g>
<g>
	<g>
		<polygon fill-rule="evenodd" clip-rule="evenodd" fill="#CCCCCC" points="364.3,578.3 380.15,577.85 379.45,584.5 348.15,584.65 
			347.85,578.75 		"/>
		
			<line fill-rule="evenodd" clip-rule="evenodd" fill="none" stroke="#000000" stroke-linecap="round" stroke-linejoin="round" stroke-miterlimit="3" x1="364.3" y1="578.3" x2="358.3" y2="549.65"/>
	</g>
	<text transform="matrix(1 0 0 1 343.2832 545.6611)" font-family="'Tahoma'" font-size="11">532FB*</text>
</g>
<g>
	<g>
		<path fill-rule="evenodd" clip-rule="evenodd" fill="#CCCCCC" d="M380.85,577.45c1.333-8.533,3.533-16.617,6.6-24.25
			c2.733,8.166,4.716,15.55,5.95,22.149c1.6,8.801,2.184,17.567,1.75,26.301c-0.133,2.466-0.883,4.433-2.25,5.899
			c-1.367,1.434-3.15,2.15-5.35,2.15c-2.267,0-4.117-0.617-5.55-1.851c-1.5-1.333-2.317-3.25-2.45-5.75
			C379.117,593.866,379.55,585.65,380.85,577.45z"/>
		
			<line fill-rule="evenodd" clip-rule="evenodd" fill="none" stroke="#000000" stroke-linecap="round" stroke-linejoin="round" stroke-miterlimit="3" x1="386.7" y1="554.3" x2="379.45" y2="458"/>
	</g>
	<text transform="matrix(0.9887 0 0 1 362.0303 453.2979)" font-family="'Tahoma'" font-size="12.3488">527AB</text>
</g>
<g>
	<g>
		<path fill-rule="evenodd" clip-rule="evenodd" fill="#CCCCCC" d="M332.9,579.7h6.25v12.45c0,0.966-0.25,1.816-0.75,2.55
			c-0.5,0.7-1.1,1.05-1.8,1.05h-1.3c-0.667,0-1.267-0.35-1.8-1.05c-0.5-0.733-0.75-1.584-0.75-2.55L332.9,579.7z"/>
		
			<line fill-rule="evenodd" clip-rule="evenodd" fill="none" stroke="#000000" stroke-linecap="round" stroke-linejoin="round" stroke-miterlimit="3" x1="332.35" y1="585.15" x2="297.35" y2="498.15"/>
	</g>
	<text transform="matrix(1 0 0 1 281.75 493.5615)" font-family="'Tahoma'" font-size="11">532GB</text>
</g>
<g>
	<g>
		<polygon fill-rule="evenodd" clip-rule="evenodd" fill="#CCCCCC" points="333.55,579.65 333.55,571.95 335.9,571.95 338,571.95 
			338,579.65 		"/>
		
			<line fill-rule="evenodd" clip-rule="evenodd" fill="none" stroke="#000000" stroke-linecap="round" stroke-linejoin="round" stroke-miterlimit="3" x1="335.9" y1="571.95" x2="340.85" y2="513.15"/>
	</g>
	<text transform="matrix(1 0 0 1 325.5498 508.3613)" font-family="'Tahoma'" font-size="11">543LB</text>
</g>
<g>
	<g>
		<path fill-rule="evenodd" clip-rule="evenodd" fill="#CCCCCC" d="M325.4,588.75c0.233-0.1,0.483-0.15,0.75-0.15
			c0.533,0,1,0.2,1.4,0.601c0.367,0.366,0.55,0.833,0.55,1.399v2.551c0,0.533-0.184,1-0.55,1.399c-0.4,0.4-0.867,0.601-1.4,0.601
			c-0.566,0-1.033-0.2-1.4-0.601c-0.367-0.399-0.55-0.866-0.55-1.399V590.6c0-0.566,0.183-1.033,0.55-1.399
			C324.95,589,325.167,588.85,325.4,588.75z"/>
		
			<line fill-rule="evenodd" clip-rule="evenodd" fill="none" stroke="#000000" stroke-linecap="round" stroke-linejoin="round" stroke-miterlimit="3" x1="325.4" y1="588.75" x2="292.85" y2="539.15"/>
	</g>
	<text transform="matrix(1 0 0 1 272.7002 535.5107)" font-family="'Tahoma'" font-size="11">532HB</text>
</g>
<g>
	<g>
		<path fill-rule="evenodd" clip-rule="evenodd" fill="#CCCCCC" d="M261.35,588.65c0.1-0.034,0.217-0.051,0.35-0.051
			c0.533,0,1,0.2,1.4,0.601c0.367,0.366,0.55,0.833,0.55,1.399v2.551c0,0.533-0.183,1-0.55,1.399c-0.4,0.4-0.867,0.601-1.4,0.601
			c-0.534,0-1-0.2-1.4-0.601c-0.367-0.399-0.55-0.866-0.55-1.399V590.6c0-0.566,0.183-1.033,0.55-1.399
			C260.6,588.9,260.95,588.717,261.35,588.65z"/>
		
			<line fill-rule="evenodd" clip-rule="evenodd" fill="none" stroke="#000000" stroke-linecap="round" stroke-linejoin="round" stroke-miterlimit="3" x1="261.35" y1="588.65" x2="251.85" y2="522.15"/>
	</g>
	<text transform="matrix(1 0 0 1 236.25 518.0107)" font-family="'Tahoma'" font-size="11">532LB</text>
</g>
<g>
	<g>
		<path fill-rule="evenodd" clip-rule="evenodd" fill="#CCCCCC" d="M253.85,589.1c0.333-0.333,0.75-0.5,1.25-0.5
			c0.566,0,1.033,0.2,1.4,0.601c0.367,0.366,0.55,0.833,0.55,1.399v2.551c0,0.533-0.183,1-0.55,1.399
			c-0.367,0.4-0.833,0.601-1.4,0.601c-0.533,0-1-0.2-1.4-0.601c-0.4-0.399-0.6-0.866-0.6-1.399V590.6c0-0.566,0.2-1.033,0.6-1.399
			C253.733,589.167,253.783,589.134,253.85,589.1z"/>
		
			<line fill-rule="evenodd" clip-rule="evenodd" fill="none" stroke="#000000" stroke-linecap="round" stroke-linejoin="round" stroke-miterlimit="3" x1="253.85" y1="589.1" x2="218.45" y2="536.7"/>
	</g>
	<text transform="matrix(1 0 0 1 201.6001 533.1113)" font-family="'Tahoma'" font-size="11">532MB</text>
</g>
<g>
	<g>
		<path fill-rule="evenodd" clip-rule="evenodd" fill="#CCCCCC" d="M239.25,593.15c0,0.533-0.183,1-0.55,1.399
			c-0.4,0.4-0.867,0.601-1.4,0.601c-0.533,0-1-0.2-1.4-0.601c-0.367-0.399-0.55-0.866-0.55-1.399V590.6
			c0-0.566,0.183-1.033,0.55-1.399c0.4-0.4,0.867-0.601,1.4-0.601c0.534,0,1,0.2,1.4,0.601c0.367,0.366,0.55,0.833,0.55,1.399
			V593.15z"/>
		
			<line fill-rule="evenodd" clip-rule="evenodd" fill="none" stroke="#000000" stroke-linecap="round" stroke-linejoin="round" stroke-miterlimit="3" x1="235.3" y1="589.05" x2="175.95" y2="577.75"/>
	</g>
	<text transform="matrix(1 0 0 1 139.8501 581.2607)" font-family="'Tahoma'" font-size="11">532NB</text>
</g>
<g>
	<g>
		<path fill-rule="evenodd" clip-rule="evenodd" fill="#CCCCCC" d="M210.1,202.75l1.05-6.65c0.033,0,0.067,0,0.1,0
			c3.467-0.434,6.133-1.6,8-3.5l3.15-8.2v-0.05l8.8-1v27.15h-14.6c-4.667-0.2-7.483,1.35-8.45,4.65L210.1,202.75z M229.1,602.1
			c0-1.1-0.55-1.649-1.65-1.649h-7.85c-1.1,0-1.65,0.55-1.65,1.649v5.95c0,1.101,0.55,1.65,1.65,1.65h7.85
			c1.1,0,1.65-0.55,1.65-1.65V602.1z M207.85,589.6c0.667,1.967,1.417,3.267,2.25,3.9c1.066,0.8,2.867,1.184,5.4,1.15h16.2v30.85
			l-8.3-0.9c-0.1-5.166-0.833-8.5-2.2-10c-0.7-0.833-1.8-1.449-3.3-1.85l-3.25-0.6c-0.967-0.101-2.033-0.15-3.2-0.15L207.85,589.6z"
			/>
		
			<path fill-rule="evenodd" clip-rule="evenodd" fill="none" stroke="#000000" stroke-linecap="round" stroke-linejoin="round" stroke-miterlimit="3" d="
			M210.1,202.75l-29.75-14.55 M210.55,608.55L167.3,619.9"/>
	</g>
	<text transform="matrix(1 0 0 1 130.9502 624.2754)" font-family="'Tahoma'" font-size="12">528BL</text>
	<text transform="matrix(1 0 0 1 145.0498 192.0259)" font-family="'Tahoma'" font-size="12">528BL</text>
</g>
<g>
	<g>
		<path fill-rule="evenodd" clip-rule="evenodd" fill="#CCCCCC" d="M215.15,186.7c1.6-1.4,4.017-2.167,7.25-2.3l-3.15,8.2
			c-1.867,1.9-4.533,3.066-8,3.5c0.433-3.833,1.45-6.667,3.05-8.5C214.567,187.267,214.85,186.967,215.15,186.7z M218.8,613
			c1,0.4,1.767,0.917,2.3,1.55c1.367,1.533,2.1,4.867,2.2,10c-3.767-0.267-6.6-1.35-8.5-3.25c-1.9-2-3.033-5.1-3.4-9.3
			c0.067,0,0.133,0,0.2,0c1.167,0,2.233,0.05,3.2,0.15c0.9,0.1,1.983,0.3,3.25,0.6C218.283,612.816,218.533,612.9,218.8,613z"/>
		
			<path fill-rule="evenodd" clip-rule="evenodd" fill="none" stroke="#000000" stroke-linecap="round" stroke-linejoin="round" stroke-miterlimit="3" d="
			M214.3,187.6l-19.8-19L182.4,157 M212.95,620.4l-20.9,14.949"/>
	</g>
	<text transform="matrix(1 0 0 1 176.75 645.8457)" font-family="'Tahoma'" font-size="10">528AL</text>
	<text transform="matrix(1 0 0 1 152.9829 159.9502)" font-family="'Tahoma'" font-size="10">528AL</text>
</g>
<g>
	<g>
		<path fill-rule="evenodd" clip-rule="evenodd" fill="#CCCCCC" d="M218.1,604.9V602c0-1.1,0.55-1.65,1.65-1.65h7.85
			c1.1,0,1.65,0.551,1.65,1.65v5.95c0,1.1-0.55,1.649-1.65,1.649h-7.85c-1.1,0-1.65-0.55-1.65-1.649V604.9z"/>
		
			<line fill-rule="evenodd" clip-rule="evenodd" fill="none" stroke="#000000" stroke-linecap="round" stroke-linejoin="round" stroke-miterlimit="3" x1="218.1" y1="604.9" x2="173.75" y2="600.3"/>
	</g>
	<text transform="matrix(1 0 0 1 139 603.9609)" font-family="'Tahoma'" font-size="11">528BC</text>
</g>
<g>
	<g>
		<path fill-rule="evenodd" clip-rule="evenodd" fill="#CCCCCC" d="M243.6,182.2l9.35-0.9h0.1l0.35,6.65h-0.05l-21.75,1.3l-0.05-5.9
			L243.6,182.2z M246.2,626.975l-14.65-1.425v-0.05h0.15v-5.85l29.2,1.85v6.9L246.2,626.975z"/>
		
			<path fill-rule="evenodd" clip-rule="evenodd" fill="none" stroke="#000000" stroke-linecap="round" stroke-linejoin="round" stroke-miterlimit="3" d="
			M243.6,182.2l-16.15-24.4 M246.2,626.975l-7.3,30.226"/>
	</g>
	<text transform="matrix(1 0 0 1 224.75 667.8467)" font-family="'Tahoma'" font-size="10">513DL</text>
	<text transform="matrix(1 0 0 1 212.2998 153.4463)" font-family="'Tahoma'" font-size="10">513DL</text>
</g>
<g>
	<g>
		<path fill-rule="evenodd" clip-rule="evenodd" fill="#CCCCCC" d="M347.85,172.15l0.65,10l-95.1,5.8l-0.35-6.65h-0.1l94.9-9.2
			V172.15z M261.05,628.4L261,621.55l89.65,5.45l0.7,10.1L261.05,628.4z"/>
		
			<path fill-rule="evenodd" clip-rule="evenodd" fill="none" stroke="#1A171B" stroke-linecap="round" stroke-linejoin="round" stroke-miterlimit="3" d="
			M294.85,176.7l-7-16.5 M345.95,682.6l-4.45-46"/>
	</g>
	<text transform="matrix(1 0 0 1 331.6499 694.3115)" font-family="'Tahoma'" font-size="11">513CL</text>
	<text transform="matrix(1 0 0 1 271.4502 155.5112)" font-family="'Tahoma'" font-size="11">513CL</text>
</g>
<g>
	<g>
		<path fill-rule="evenodd" clip-rule="evenodd" fill="#CCCCCC" d="M347.85,172.15l83.7-8.05h0.1l0.6,12.9l-83.75,5.15
			L347.85,172.15z M425.5,643.9l-74.15-7.101l-0.7-9.8h-0.15l-0.05-0.3l74.45,4.55l0.7,12.65H425.5z"/>
		
			<path fill-rule="evenodd" clip-rule="evenodd" fill="none" stroke="#1A171B" stroke-linecap="round" stroke-linejoin="round" stroke-miterlimit="3" d="
			M395.85,167.2l7.5-21 M379.5,661.75l7.5-21"/>
	</g>
	<text transform="matrix(1 0 0 1 362.2002 674.0762)" font-family="'Tahoma'" font-size="12">513BL</text>
	<text transform="matrix(1 0 0 1 386.2998 141.7759)" font-family="'Tahoma'" font-size="12">513BL</text>
</g>
<g>
	<g>
		<path fill-rule="evenodd" clip-rule="evenodd" fill="#CCCCCC" d="M431.65,164.1h-0.1l40-4.15l0.9,14.65l-40.15,2.5L431.65,164.1z
			 M425.5,643.9h0.1l-0.7-12.801l41.95,2.601l0.8,14.55h-0.1l-20.85-2.15L425.5,643.9z"/>
		
			<path fill-rule="evenodd" clip-rule="evenodd" fill="none" stroke="#1A171B" stroke-linecap="round" stroke-linejoin="round" stroke-miterlimit="3" d="
			M450.85,161.7l6-39 M440.7,684.95l6-38.851"/>
	</g>
	<text transform="matrix(1 0 0 1 423.8999 697.126)" font-family="'Tahoma'" font-size="12">513AL</text>
	<text transform="matrix(1 0 0 1 440.7998 117.376)" font-family="'Tahoma'" font-size="12">513AL</text>
</g>
<g>
	<g>
		<path fill-rule="evenodd" clip-rule="evenodd" fill="#CCCCCC" d="M517.4,155.575l47.5-4.525v0.05l1.1,17.6h-0.05l-93.4,5.9
			l-1-14.65L517.4,155.575z M467.55,648.25h0.1l-0.75-14.3l96.1,5.899l-0.05,17.75l-95.4-9.149V648.25z"/>
		
			<path fill-rule="evenodd" clip-rule="evenodd" fill="none" stroke="#1A171B" stroke-linecap="round" stroke-linejoin="round" stroke-miterlimit="3" d="
			M517.4,155.575l10.1-26.525 M509.65,653.1l-10.15,26.65"/>
	</g>
	<text transform="matrix(1 0 0 1 481.7002 692.2754)" font-family="'Tahoma'" font-size="12">512DL</text>
	<text transform="matrix(1 0 0 1 510.5498 124.2256)" font-family="'Tahoma'" font-size="12">512DL</text>
</g>
<g>
	<g>
		<path fill-rule="evenodd" clip-rule="evenodd" fill="#CCCCCC" d="M590.35,148.65l2.15-0.2v18.75l-26.55,1.55l-1.101-17.65h0.051
			l3.524-0.35l0.575,9.5l9.95-0.95l-0.175-2.85l8.725-0.85l-0.45-6.625L590.35,148.65z M576.55,647.95h-9.25l-0.5,0.35l-0.024,9.65
			l-4.025-0.4l0.2-17.649l29.55,1.8v18.75l-3.125-0.3l-2.625-0.25v-8.2h-10.2V647.95z"/>
		
			<path fill-rule="evenodd" clip-rule="evenodd" fill="none" stroke="#000000" stroke-linecap="round" stroke-linejoin="round" stroke-miterlimit="3" d="
			M590.35,148.65V113.7h3 M589.375,660.15L589.35,695.3h3"/>
	</g>
	<text transform="matrix(1 0 0 1 597.3496 117.126)" font-family="'Tahoma'" font-size="12">512AL</text>
	<text transform="matrix(1 0 0 1 595.3496 700.126)" font-family="'Tahoma'" font-size="12">512AL</text>
</g>
<g>
	<g>
		<path fill-rule="evenodd" clip-rule="evenodd" fill="#CCCCCC" d="M582.35,152.85v-3.425V152.85z M582.35,149.425l4.7-0.45
			l0.45,6.625l-8.725,0.85l-0.375-6.65L582.35,149.425z M581.35,656.15v3.225V656.15z M581.35,659.375l-4.824-0.475l0.024-7.2h10.2
			v8.2L581.35,659.375z"/>
		
			<path fill-rule="evenodd" clip-rule="evenodd" fill="none" stroke="#000000" stroke-linecap="round" stroke-linejoin="round" stroke-miterlimit="3" d="
			M582.35,149.425V98.45h11.9 M582.35,152.85v-3.425 M581.35,656.15v3.225v51.175h11.9"/>
	</g>
	<text transform="matrix(1 0 0 1 597.3496 102.126)" font-family="'Tahoma'" font-size="12">512BL</text>
	<text transform="matrix(1 0 0 1 595.3496 715.126)" font-family="'Tahoma'" font-size="12">512BL</text>
</g>
<g>
	<g>
		<path fill-rule="evenodd" clip-rule="evenodd" fill="#CCCCCC" d="M573.35,154.4v-4.125V154.4z M573.35,150.275l5.051-0.475
			l0.55,9.5l-9.95,0.95l-0.575-9.5L573.35,150.275z M572.35,654.6v3.9V654.6z M572.35,658.5l-5.55-0.55h-0.024l0.024-9.65l0.5-0.35
			h9.25l-0.024,10.95L572.35,658.5z"/>
		
			<path fill-rule="evenodd" clip-rule="evenodd" fill="none" stroke="#000000" stroke-linecap="round" stroke-linejoin="round" stroke-miterlimit="3" d="
			M573.35,150.275V83.7h20.9 M573.35,154.4v-4.125 M572.35,654.6v3.9v66.8h20.9"/>
	</g>
	<text transform="matrix(1 0 0 1 597.3496 87.126)" font-family="'Tahoma'" font-size="12">512CL</text>
	<text transform="matrix(1 0 0 1 595.3496 730.126)" font-family="'Tahoma'" font-size="12">512CL</text>
</g>
<g>
	<g>
		<path fill-rule="evenodd" clip-rule="evenodd" fill="#CCCCCC" d="M673.9,144l59.649-4v18.55l-100.1,6.3l0.35-18.15L673.9,144z
			 M733.55,650.25v18.55l-52.3-3.524l-47.55-3.226L633.65,644L733.55,650.25z"/>
		
			<path fill-rule="evenodd" clip-rule="evenodd" fill="none" stroke="#000000" stroke-linecap="round" stroke-linejoin="round" stroke-miterlimit="3" d="
			M673.9,144l4.949-23.8 M676.2,689.5l5.05-24.225"/>
	</g>
	<text transform="matrix(1 0 0 1 658.7998 702.1758)" font-family="'Tahoma'" font-size="12">511AL</text>
	<text transform="matrix(1 0 0 1 662.9502 115.6758)" font-family="'Tahoma'" font-size="12">511AL</text>
</g>
<g>
	<g>
		<path fill-rule="evenodd" clip-rule="evenodd" fill="#CCCCCC" d="M336.5,193.25v-0.35V193.25z M336.5,192.9l4.8-0.25
			c1.633,0,3.017,0.583,4.15,1.75c1.167,1.133,1.75,2.517,1.75,4.15c0,1.567-0.55,2.934-1.65,4.1c-1.1,1.133-2.4,1.733-3.9,1.8
			l-4.9,0.2c-2.367-0.2-4.333-0.75-5.9-1.65c-1.5-0.867-2.317-1.917-2.45-3.15l-0.05-1.15c0-1.3,0.733-2.483,2.2-3.55
			c1.5-1.066,3.45-1.816,5.85-2.25H336.5z"/>
		
			<path fill-rule="evenodd" clip-rule="evenodd" fill="none" stroke="#1A171B" stroke-linecap="round" stroke-linejoin="round" stroke-miterlimit="3" d="
			M336.5,192.9l-2.4-37.8 M336.5,193.25v-0.35"/>
	</g>
	<text transform="matrix(1 0 0 1 318.1001 150.4111)" font-family="'Tahoma'" font-size="11">525AT</text>
</g>
<g>
	<g>
		<polygon fill-rule="evenodd" clip-rule="evenodd" fill="#CCCCCC" points="687.8,570.1 735.9,570.1 735.9,584.4 636,584.4 
			636,570.1 		"/>
		
			<line fill-rule="evenodd" clip-rule="evenodd" fill="none" stroke="#1A171B" stroke-linecap="round" stroke-linejoin="round" stroke-miterlimit="3" x1="683.55" y1="534.9" x2="687.8" y2="570.1"/>
	</g>
	<text transform="matrix(1 0 0 1 665 530.7607)" font-family="'Tahoma'" font-size="11">531AB*</text>
</g>
<g>
	<g>
		<path fill-rule="evenodd" clip-rule="evenodd" fill="#CCCCCC" d="M501.4,546.25c3.1,9.434,5.316,17.917,6.649,25.45
			c1.867,10.166,2.55,20.233,2.05,30.2c-0.166,2.866-1.017,5.133-2.55,6.8c-1.566,1.7-3.583,2.55-6.05,2.55
			c-2.566,0-4.65-0.717-6.25-2.15c-1.7-1.566-2.634-3.8-2.8-6.699c-0.434-9.5,0.05-18.934,1.45-28.301
			C495.434,564.267,497.934,554.983,501.4,546.25z"/>
		
			<line fill-rule="evenodd" clip-rule="evenodd" fill="none" stroke="#000000" stroke-linecap="round" stroke-linejoin="round" stroke-miterlimit="3" x1="501.85" y1="546.15" x2="513.85" y2="528.65"/>
	</g>
	<text transform="matrix(1 0 0 1 497.7998 524.1611)" font-family="'Tahoma'" font-size="11">526AB</text>
</g>
<g>
	<g>
		<path fill-rule="evenodd" clip-rule="evenodd" fill="#B3E1FF" d="M234.05,241.7c0,3.8-1.367,7.05-4.1,9.75
			c-2.767,2.8-6.05,4.2-9.85,4.2h-0.05c-3.8,0-7.083-1.4-9.85-4.2c-0.367-0.333-0.7-0.667-1-1c-0.6-0.7-1.117-1.45-1.55-2.25
			c-1.033-1.967-1.55-4.133-1.55-6.5c0-3.9,1.367-7.233,4.1-10c2.7-2.667,5.917-4.017,9.65-4.05c0.1,0,0.167,0,0.2,0h0.05
			c3.8,0,7.083,1.35,9.85,4.05C232.683,234.467,234.05,237.8,234.05,241.7z M234.25,567.05c0,3.8-1.367,7.05-4.1,9.75
			c-2.767,2.8-6.05,4.2-9.85,4.2h-0.05c-3.8,0-7.083-1.4-9.85-4.2c-0.367-0.333-0.7-0.666-1-1c-0.6-0.7-1.117-1.45-1.55-2.25
			c-1.033-1.967-1.55-4.133-1.55-6.5c0-3.899,1.367-7.233,4.1-10c0.983-0.97,2.033-1.771,3.15-2.399
			c1.959-1.079,4.125-1.629,6.5-1.65c0.1,0,0.167,0,0.2,0h0.05c3.8,0,7.083,1.35,9.85,4.05
			C232.883,559.816,234.25,563.15,234.25,567.05z"/>
		
			<path fill-rule="evenodd" clip-rule="evenodd" fill="none" stroke="#000000" stroke-width="0.25" stroke-linecap="round" stroke-linejoin="round" stroke-miterlimit="3" d="
			M234.05,241.7c0,3.8-1.367,7.05-4.1,9.75c-2.767,2.8-6.05,4.2-9.85,4.2h-0.05c-3.8,0-7.083-1.4-9.85-4.2
			c-0.367-0.333-0.7-0.667-1-1c-0.6-0.7-1.117-1.45-1.55-2.25c-1.033-1.967-1.55-4.133-1.55-6.5c0-3.9,1.367-7.233,4.1-10
			c2.7-2.667,5.917-4.017,9.65-4.05c0.1,0,0.167,0,0.2,0h0.05c3.8,0,7.083,1.35,9.85,4.05
			C232.683,234.467,234.05,237.8,234.05,241.7z M234.25,567.05c0,3.8-1.367,7.05-4.1,9.75c-2.767,2.8-6.05,4.2-9.85,4.2h-0.05
			c-3.8,0-7.083-1.4-9.85-4.2c-0.367-0.333-0.7-0.666-1-1c-0.6-0.7-1.117-1.45-1.55-2.25c-1.033-1.967-1.55-4.133-1.55-6.5
			c0-3.899,1.367-7.233,4.1-10c0.983-0.97,2.033-1.771,3.15-2.399c1.959-1.079,4.125-1.629,6.5-1.65c0.1,0,0.167,0,0.2,0h0.05
			c3.8,0,7.083,1.35,9.85,4.05C232.883,559.816,234.25,563.15,234.25,567.05z"/>
		
			<path fill-rule="evenodd" clip-rule="evenodd" fill="none" stroke="#FF0000" stroke-linecap="round" stroke-linejoin="round" stroke-miterlimit="3" d="
			M206.8,247.7l-68.3,29.2 M210.05,556.9l-46.7-38.851"/>
	</g>
	<text transform="matrix(1 0 0 1 110.8091 515.0107)"><tspan x="0" y="0" font-family="'Tahoma'" font-size="11">STATIC</tspan><tspan x="-14.604" y="12.65" font-family="'Tahoma'" font-size="11">DISCHARGER</tspan></text>
	<text transform="matrix(1 0 0 1 84.8594 285.9111)"><tspan x="0" y="0" font-family="'Tahoma'" font-size="11">STATIC</tspan><tspan x="-14.604" y="12.65" font-family="'Tahoma'" font-size="11">DISCHARGER</tspan></text>
</g>
<g>
	<g>
		<polygon fill-rule="evenodd" clip-rule="evenodd" fill="#CCCCCC" points="239.35,223.6 240.25,223.65 240.05,228.5 236.9,228.4 
			237.1,223.45 		"/>
		
			<line fill-rule="evenodd" clip-rule="evenodd" fill="none" stroke="#000000" stroke-linecap="round" stroke-linejoin="round" stroke-miterlimit="3" x1="239.35" y1="223.6" x2="254.35" y2="208.15"/>
	</g>
	<text transform="matrix(1 0 0 1 236.3501 199.126)" font-family="'Tahoma'" font-size="12">543CL</text>
</g>
<g>
	<g>
		<polygon fill-rule="evenodd" clip-rule="evenodd" fill="#CCCCCC" points="246.35,228.65 244.3,228.55 244.5,223.75 249,223.95 
			248.8,228.75 		"/>
		
			<line fill-rule="evenodd" clip-rule="evenodd" fill="none" stroke="#000000" stroke-linecap="round" stroke-linejoin="round" stroke-miterlimit="3" x1="246.35" y1="228.65" x2="206.85" y2="288.2"/>
	</g>
	<text transform="matrix(1 0 0 1 187.8999 300.876)" font-family="'Tahoma'" font-size="12">543DL</text>
</g>
<text transform="matrix(0.9999 0 0 1 22.0425 231.8257)"><tspan x="0" y="0" font-family="'Tahoma-Bold'" font-size="12">VIEW</tspan><tspan x="-12.038" y="13.15" font-family="'Tahoma-Bold'" font-size="12">LOOKING</tspan><tspan x="-6.472" y="29.3" font-family="'Tahoma-Bold'" font-size="14">DOWN</tspan></text>
<text id="border" class="svg_name_heading cp" transform="matrix(1 0 0 1 79.6001 14.7051)"><tspan x="0" y="0" fill="#0000FF" font-family="'Tahoma-Bold'" font-size="14">Left Wing</tspan><tspan x="0" y="20" fill="#0000FF" font-family="'Tahoma'" font-size="13" class="downloadpdf" data-id="AMM06-41-00-992-808">AMM TASK 06-41-00-992-808</tspan></text>
<text transform="matrix(1.0025 0 0 1 24.1919 595.2969)"><tspan x="0" y="0" font-family="'Tahoma-Bold'" font-size="12.3488">VIEW</tspan><tspan x="-12.388" y="13.584" font-family="'Tahoma-Bold'" font-size="12.3488">LOOKING</tspan><tspan x="6.326" y="31.658" font-family="'Tahoma-Bold'" font-size="15.7167">UP</tspan></text>
<text transform="matrix(1.0024 0 0 1 2.3994 739.0977)"><tspan x="0" y="0" font-family="'Tahoma'" font-size="12.3488">* ACCESSIBLE WITH </tspan><tspan x="0" y="13.584" font-family="'Tahoma'" font-size="12.3488"> FLAPS DOWN</tspan></text>
<g id="fuselage" class="border">
	<g>
		<path fill-rule="evenodd" clip-rule="evenodd" fill="#B1B1B1" d="M818.7,32.8v26.05c0,6.5-3.25,9.75-9.75,9.75H782.9
			c-6.5,0-9.75-3.25-9.75-9.75V32.8c0-6.5,3.25-9.75,9.75-9.75h26.05C815.45,23.05,818.7,26.3,818.7,32.8z M788.65,63.7H802.6V49.45
			h10.45l-17.399-24.4l-17.45,24.4h10.45V63.7z"/>
		<polygon fill-rule="evenodd" clip-rule="evenodd" fill="#0099FF" points="788.65,63.7 788.65,49.45 778.2,49.45 795.65,25.05 
			813.05,49.45 802.6,49.45 802.6,63.7 		"/>
		<path fill-rule="evenodd" clip-rule="evenodd" fill="none" stroke="#999999" stroke-width="1.5" stroke-miterlimit="5" d="
			M818.7,32.8c0-6.5-3.25-9.75-9.75-9.75H782.9c-6.5,0-9.75,3.25-9.75,9.75v26.05c0,6.5,3.25,9.75,9.75,9.75h26.05
			c6.5,0,9.75-3.25,9.75-9.75V32.8z"/>
	</g>
	<text transform="matrix(1 0 0 1 767.3496 79.811)" font-family="'Tahoma-Bold'" font-size="11">FUSELAGE</text>
</g>
<g id="vert_stab" class="border">
	<g>
		<polygon fill-rule="evenodd" clip-rule="evenodd" fill="#0099FF" points="789.2,745.339 789.2,731.089 803.15,731.089 
			803.15,745.339 813.6,745.339 796.15,769.739 778.75,745.339 		"/>
		<path fill-rule="evenodd" clip-rule="evenodd" fill="#B1B1B1" d="M773.1,761.989v-26.051c0-6.5,3.25-9.75,9.75-9.75H808.9
			c6.5,0,9.75,3.25,9.75,9.75v26.051c0,6.5-3.25,9.75-9.75,9.75H782.85C776.35,771.739,773.1,768.489,773.1,761.989z M789.2,745.339
			h-10.45l17.4,24.4l17.449-24.4H803.15v-14.25H789.2V745.339z"/>
		<path fill-rule="evenodd" clip-rule="evenodd" fill="none" stroke="#999999" stroke-width="1.5" stroke-miterlimit="5" d="
			M773.1,761.989c0,6.5,3.25,9.75,9.75,9.75H808.9c6.5,0,9.75-3.25,9.75-9.75v-26.051c0-6.5-3.25-9.75-9.75-9.75H782.85
			c-6.5,0-9.75,3.25-9.75,9.75V761.989z"/>
	</g>
	<text transform="matrix(1 0 0 1 780.4639 706.7998)"><tspan x="0" y="0" font-family="'Tahoma-Bold'" font-size="11">REAR</tspan><tspan x="-13.385" y="15" font-family="'Tahoma-Bold'" font-size="11">FUSELAGE</tspan></text>
</g>
<g id="right_wing" class="border">
	<g>
		<polygon fill-rule="evenodd" clip-rule="evenodd" fill="#0099FF" points="901,395.6 915.25,395.6 915.25,385.15 939.65,402.6 
			915.25,420 915.25,409.55 901,409.55 		"/>
		<path fill-rule="evenodd" clip-rule="evenodd" fill="#B1B1B1" d="M896.1,389.85c0-6.5,3.25-9.75,9.75-9.75H931.9
			c6.5,0,9.75,3.25,9.75,9.75v26.05c0,6.5-3.25,9.75-9.75,9.75H905.85c-6.5,0-9.75-3.25-9.75-9.75V389.85z M901,395.6v13.95h14.25
			V420l24.4-17.4l-24.4-17.45v10.45H901z"/>
		<path fill-rule="evenodd" clip-rule="evenodd" fill="none" stroke="#999999" stroke-width="1.5" stroke-miterlimit="5" d="
			M896.1,389.85v26.05c0,6.5,3.25,9.75,9.75,9.75H931.9c6.5,0,9.75-3.25,9.75-9.75v-26.05c0-6.5-3.25-9.75-9.75-9.75H905.85
			C899.35,380.1,896.1,383.35,896.1,389.85z"/>
	</g>
	<text transform="matrix(1 0 0 1 856.4004 398.9609)"><tspan x="0" y="0" font-family="'Tahoma-Bold'" font-size="11">RIGHT</tspan><tspan x="0" y="15" font-family="'Tahoma-Bold'" font-size="11">WING</tspan></text>
</g>
<g id="fus_to_wing" class="border">
	<g>
		<path fill-rule="evenodd" clip-rule="evenodd" fill="#B1B1B1" d="M783.75,367.95H831c4,0,6,2,6,6v54.75c0,4-2,6-6,6h-47.25
			c-4,0-6-2-6-6v-54.75C777.75,369.95,779.75,367.95,783.75,367.95z"/>
		<path fill-rule="evenodd" clip-rule="evenodd" fill="none" stroke="#999999" stroke-width="1.5" stroke-miterlimit="5" d="
			M783.75,367.95c-4,0-6,2-6,6v54.75c0,4,2,6,6,6H831c4,0,6-2,6-6v-54.75c0-4-2-6-6-6H783.75z"/>
	</g>
	<g>
		<rect x="783.05" y="372.4" fill-rule="evenodd" clip-rule="evenodd" fill="#9898FE" width="47" height="19"/>
		
			<rect x="783.05" y="372.4" fill-rule="evenodd" clip-rule="evenodd" fill="none" stroke="#FF6600" stroke-linecap="round" stroke-linejoin="round" stroke-miterlimit="3" stroke-opacity="0" width="47" height="19"/>
	</g>
	<text transform="matrix(1 0 0 1 784.2002 383.3403)" fill="#FFFFFF" font-family="'Tahoma'" font-size="13">GO TO </text>
	<text transform="matrix(1 0 0 1 781.3838 402.6611)"><tspan x="0" y="0" font-family="'Tahoma'" font-size="11">FUSELAGE</tspan><tspan x="2.239" y="11.5" font-family="'Tahoma'" font-size="11">TO WING</tspan><tspan x="4.391" y="23" font-family="'Tahoma'" font-size="11">FAIRING</tspan></text>
</g>
<g id="border">
	<g>
		<path fill-rule="evenodd" clip-rule="evenodd" fill="none" stroke="#1A171B" stroke-width="0.5" stroke-miterlimit="6.92" d="
			M679.7,177.95h25.25c1.566,0,2.916,0.583,4.05,1.75c1.134,1.133,1.7,2.517,1.7,4.15c0,1.6-0.566,2.983-1.7,4.15
			c-1.134,1.133-2.483,1.7-4.05,1.7H679.7c-1.566,0-2.917-0.567-4.05-1.7c-1.134-1.167-1.7-2.55-1.7-4.15
			c0-1.633,0.566-3.017,1.7-4.15C676.783,178.533,678.134,177.95,679.7,177.95z M633.35,180.1c0.05-0.053,0.1-0.103,0.15-0.15
			c1.233-1.167,2.7-1.75,4.4-1.75h27.35c1.733,0,3.2,0.583,4.4,1.75c1.233,1.133,1.85,2.517,1.85,4.15c0,1.6-0.616,2.983-1.85,4.15
			c-1.2,1.133-2.667,1.7-4.4,1.7H637.9c-1.7,0-3.167-0.567-4.4-1.7c-0.051-0.048-0.101-0.098-0.15-0.15
			c-1.133-1.133-1.699-2.466-1.699-4C631.65,182.534,632.217,181.201,633.35,180.1z M719.9,178.2h25.25
			c1.566,0,2.916,0.583,4.05,1.75c1.133,1.133,1.7,2.517,1.7,4.15c0,1.6-0.567,2.983-1.7,4.15c-1.134,1.133-2.483,1.7-4.05,1.7
			H719.9c-1.567,0-2.917-0.567-4.051-1.7c-1.133-1.167-1.699-2.55-1.699-4.15c0-1.633,0.566-3.017,1.699-4.15
			C716.983,178.783,718.333,178.2,719.9,178.2z M754.75,184c0-1.6,0.6-2.967,1.8-4.1c1.233-1.133,2.7-1.7,4.4-1.7h16.6
			c1.667,0,3.117,0.566,4.351,1.7c1.199,1.133,1.8,2.5,1.8,4.1s-0.601,2.967-1.8,4.1c-1.233,1.133-2.684,1.7-4.351,1.7h-16.6
			c-1.7,0-3.167-0.566-4.4-1.7C755.35,186.967,754.75,185.6,754.75,184z M789.25,179.8c1.134-1.167,2.533-1.75,4.2-1.75h4.85
			c1.634,0,3.033,0.583,4.2,1.75c1.167,1.167,1.75,2.567,1.75,4.2c0,1.667-0.583,3.067-1.75,4.2c-1.167,1.167-2.566,1.75-4.2,1.75
			h-4.85c-1.667,0-3.066-0.583-4.2-1.75c-1.167-1.133-1.75-2.534-1.75-4.2C787.5,182.367,788.083,180.967,789.25,179.8z M733.55,140
			v18.55l-100.1,6.3l0.35-18.15L733.55,140z M725.4,219.9v5.05h-4.5v-3.2h-3.551v3.2h-4.05v-5.05H725.4z M651.1,221.75h-3.6v3.2h-4
			v-5.05h12.05v5.05h-4.45V221.75z M735.9,570.1H636V584.4h99.9V570.1z M731.225,650.075l2.325,0.175v18.5 M633.7,661.925v0.125
			l99.85,6.75v-0.05 M500.8,188.85c0.101,1.6-0.399,3-1.5,4.2c-1.066,1.233-2.399,1.883-4,1.95l-25.7,1.4
			c-1.633,0.1-3.05-0.4-4.25-1.5c-1.2-1.066-1.85-2.417-1.95-4.05c-0.066-1.6,0.434-3,1.5-4.2c1.1-1.233,2.45-1.883,4.05-1.95
			l25.7-1.4c1.6-0.1,3,0.4,4.199,1.5C500.083,185.867,500.733,187.217,500.8,188.85z M507.8,182.2l25.65-1.4
			c1.633-0.1,3.05,0.4,4.25,1.5c1.2,1.067,1.85,2.417,1.95,4.05c0.066,1.6-0.434,3-1.5,4.2c-1.101,1.233-2.45,1.883-4.051,1.95
			l-25.699,1.4c-1.601,0.1-3-0.4-4.2-1.5c-1.233-1.066-1.884-2.417-1.95-4.05c-0.1-1.6,0.4-3,1.5-4.2
			C504.816,182.917,506.167,182.267,507.8,182.2z M565.925,168.7h-0.175l-93.2,5.9l-0.399-5.5l0.3,5.5l-40.15,2.5l-0.1-2.05
			 M566,168.675v0.025 M565.75,164.275l0.25,4.4 M564.9,151.05l0.85,13.225 M541.65,185.95c-0.067-1.6,0.433-3,1.5-4.2
			c1.066-1.233,2.416-1.883,4.05-1.95l38.6-2.1c1.601-0.1,3,0.4,4.2,1.5c1.233,1.066,1.884,2.417,1.95,4.05c0.1,1.6-0.4,3-1.5,4.2
			c-1.066,1.233-2.417,1.883-4.05,1.95l-38.551,2.1c-1.633,0.1-3.05-0.4-4.25-1.5C542.4,188.933,541.75,187.583,541.65,185.95z
			 M598.35,179.9c1.134-1.167,2.534-1.75,4.2-1.75h21.8c1.634,0,3.034,0.583,4.2,1.75c1.167,1.167,1.75,2.567,1.75,4.2
			s-0.583,3.033-1.75,4.2c-1.166,1.167-2.566,1.75-4.2,1.75h-21.8c-1.633,0-3.033-0.583-4.2-1.75c-1.166-1.167-1.75-2.566-1.75-4.2
			S597.184,181.067,598.35,179.9z M354.8,191.65l25.65-1.35c1.633-0.1,3.05,0.4,4.25,1.5c1.2,1.067,1.85,2.4,1.95,4
			c0.067,1.633-0.433,3.05-1.5,4.25c-1.066,1.233-2.417,1.883-4.05,1.95l-25.7,1.4c-1.6,0.067-3-0.433-4.2-1.5
			c-1.233-1.1-1.883-2.45-1.95-4.05c-0.1-1.633,0.4-3.05,1.5-4.25C351.817,192.4,353.167,191.75,354.8,191.65z M348.5,182.15
			l83.75-5.15l-0.05-1.95l-0.55-10.95h-0.1l-83.7,8.05L348.5,182.15l-95.1,5.8h-0.05l-21.75,1.3l-0.05-5.9l21.4-2.05l94.9-9.2v0.05
			 M392.9,189.3l25.65-1.35c1.633-0.1,3.05,0.4,4.25,1.5c1.2,1.066,1.85,2.4,1.95,4c0.067,1.633-0.433,3.05-1.5,4.25
			c-1.1,1.233-2.45,1.883-4.05,1.95l-25.7,1.4c-1.6,0.067-3-0.433-4.2-1.5c-1.233-1.1-1.883-2.45-1.95-4.05
			c-0.1-1.633,0.4-3.05,1.5-4.25C389.917,190.05,391.267,189.4,392.9,189.3z M425.35,193.15c-0.067-1.633,0.433-3.05,1.5-4.25
			c1.1-1.2,2.45-1.85,4.05-1.95l25.7-1.35c1.6-0.1,3,0.4,4.2,1.5c1.233,1.066,1.883,2.4,1.95,4c0.1,1.633-0.4,3.05-1.5,4.25
			c-1.067,1.233-2.4,1.883-4,1.95l-25.7,1.4c-1.633,0.066-3.05-0.434-4.25-1.5C426.1,196.1,425.45,194.75,425.35,193.15z
			 M472.15,169.1l-0.601-9.15l-40,4.15 M468.7,213v3.95l-4.05,0.05l0.05-4H468.7z M425.55,217l0.05-4h4v3.95L425.55,217z
			 M409.85,219.5l3.8,0.025 M419.65,219.55h2.75v5.05l-14.1-0.05v-5.05h1.55 M390.35,219.5l3.75,0.025 M400.1,219.55h1.3l-0.05,5.05
			l-14.1-0.05l0.025-1.8l0.025-3.25h3.05 M401.65,216.95L397.6,217l0.05-4h4V216.95z M333.9,210.7l-0.1,5.5l-4.6,0.1v-5.6v-0.1
			l4.7-0.05V210.7z M237.1,223.65v-0.2l3.15,0.2v0.075l-0.2,4.775l-3.15-0.1L237.1,223.65z M244.5,223.85v-0.1l4.5,0.2v0.025
			l-0.2,4.775l-4.5-0.2L244.5,223.85z M252.7,224.075v-0.125l4.45,0.1v0.15l-0.3,4.75l-4.45-0.15L252.7,224.075z M304.4,225.5v-0.25
			l4.5,0.2v0.175l-0.2,4.625l-4.5-0.2L304.4,225.5z M312.625,225.725l0.025-0.275l4.45,0.15v0.25l-0.2,4.6l-4.5-0.2L312.625,225.725
			z M325.05,226.05v-0.1l5.85,0.1l2.9,0.05v0.175L333.5,231l-2.9-0.05l-5.75-0.2L325.05,226.05z M336.6,226.35v-0.1l4.5,0.15v0.075
			l-0.2,4.775l-4.5-0.2L336.6,226.35z M339.15,210.7v-0.1l4.7-0.05v0.15l-0.1,5.5l-4.6,0.1V210.7z M330.9,226.05v0.15l-0.3,4.75
			 M571.8,220.125l-2.149-0.025v0.05v4.95h14.1v-4.95v-0.05l-2.175,0.025H571.8z M514.45,219.9v-0.3H500.35v0.3v4.7h14.101V219.9z
			 M471.55,159.95l92.851-8.85 M211.925,192.425c0.545-2.027,1.337-3.635,2.375-4.825c0.267-0.333,0.55-0.633,0.85-0.9
			c1.6-1.4,4.017-2.167,7.25-2.3v-0.05l8.8-1l0.025,22.1l-0.025,5.05h-14.6c-4.667-0.2-7.483,1.35-8.45,4.65l0.175-1.2l2.475-15.475
			l0.35-2.375h0.05h0.05c0.026-0.232,0.051-0.457,0.075-0.675 M211.25,196.1c3.467-0.434,6.133-1.6,8-3.5l3.15-8.2 M252.95,181.3
			h0.1l0.35,6.65 M231.2,210.7v-0.15h-15.55v5.8h15.55V210.7z M208.075,215.425l0.075-0.275 M231.45,594.65H215.5
			c-2.533,0.033-4.333-0.351-5.4-1.15c-0.833-0.634-1.583-1.934-2.25-3.9l3.6,22.4c0.066,0,0.117,0,0.15,0
			c1.167,0,2.233,0.05,3.2,0.15c0.9,0.1,1.983,0.3,3.25,0.6c0.233,0.066,0.483,0.15,0.75,0.25c1,0.4,1.767,0.917,2.3,1.55
			c1.367,1.533,2.1,4.867,2.2,10l8.25,0.95h0.15v-5.85V598.1v-3.449H231.45z M237.3,588.6c0.534,0,1,0.2,1.4,0.601
			c0.367,0.366,0.55,0.833,0.55,1.399v2.551c0,0.533-0.183,1-0.55,1.399c-0.4,0.4-0.867,0.601-1.4,0.601c-0.533,0-1-0.2-1.4-0.601
			c-0.367-0.399-0.55-0.866-0.55-1.399V590.6c0-0.566,0.183-1.033,0.55-1.399C236.3,588.8,236.767,588.6,237.3,588.6z
			 M383.475,565.025c1.11-4.052,2.435-7.993,3.975-11.825c1.329,3.972,2.479,7.755,3.45,11.35c1.033,3.81,1.867,7.41,2.5,10.8
			c0.133,0.667,0.25,1.351,0.35,2.051l10.8-0.301v0.051l55.35-1.601v8.75l-55.5,0.05l0.05-2.25l-10,0.051
			c0.255,2.086,0.455,4.169,0.6,6.25 M497.225,558.7c1.184-4.269,2.575-8.418,4.176-12.45c1.383,4.209,2.591,8.226,3.625,12.05
			 M253.1,590.6c0-0.566,0.2-1.033,0.6-1.399c0.033-0.033,0.083-0.066,0.15-0.101c0.333-0.333,0.75-0.5,1.25-0.5
			c0.566,0,1.033,0.2,1.4,0.601c0.367,0.366,0.55,0.833,0.55,1.399v2.551c0,0.533-0.183,1-0.55,1.399
			c-0.367,0.4-0.833,0.601-1.4,0.601c-0.533,0-1-0.2-1.4-0.601c-0.4-0.399-0.6-0.866-0.6-1.399V590.6z M261.35,588.65
			c0.1-0.034,0.217-0.051,0.35-0.051c0.533,0,1,0.2,1.4,0.601c0.367,0.366,0.55,0.833,0.55,1.399v2.551c0,0.533-0.183,1-0.55,1.399
			c-0.4,0.4-0.867,0.601-1.4,0.601c-0.534,0-1-0.2-1.4-0.601c-0.367-0.399-0.55-0.866-0.55-1.399V590.6
			c0-0.566,0.183-1.033,0.55-1.399C260.6,588.9,260.95,588.717,261.35,588.65z M260.9,626.5v-5h-0.1l-29.1-1.85 M261.05,628.4
			l90.3,8.699v-0.3l-0.7-9.8h-0.15l-89.5-5.45L261.05,628.4z M231.55,625.5v0.05l29.35,2.851v-1.9 M223.3,624.55
			c-3.767-0.267-6.6-1.35-8.5-3.25c-1.9-2-3.033-5.1-3.4-9.3h0.05 M497.225,558.7c-0.903,3.232-1.687,6.532-2.35,9.899
			c-0.36,1.81-0.686,3.644-0.975,5.5c-0.579,3.873-1.004,7.756-1.275,11.65c-0.275,4.104-0.375,8.221-0.3,12.35
			c0.018,1.433,0.06,2.865,0.125,4.301c0.166,2.899,1.1,5.133,2.8,6.699c1.6,1.434,3.684,2.15,6.25,2.15
			c2.467,0,4.483-0.85,6.05-2.55c1.533-1.667,2.384-3.934,2.55-6.8c0.063-1.266,0.105-2.532,0.125-3.801
			c0.086-4.017-0.022-8.05-0.324-12.1c-0.354-4.744-0.971-9.511-1.851-14.3c-0.203-1.146-0.428-2.313-0.675-3.5
			c-0.642-3.144-1.425-6.443-2.35-9.9 M492.65,583.45l-20.851,0.1v-8.3l21.8-0.5C493.4,575.75,493.083,578.65,492.65,583.45z
			 M512.3,574.3l3.125-0.075 M516.1,574.2l75.101-2.25L591.1,583.6l-78.8,0.15v-9.45 M338,571.95h-4.45v7.7H338V571.95z
			 M339.15,586.95v5.2c0,0.966-0.25,1.816-0.75,2.55c-0.5,0.7-1.1,1.05-1.8,1.05h-1.3c-0.667,0-1.267-0.35-1.8-1.05
			c-0.5-0.733-0.75-1.584-0.75-2.55l0.075-5.2 M328.1,590.6v2.551c0,0.533-0.184,1-0.55,1.399c-0.4,0.4-0.867,0.601-1.4,0.601
			c-0.566,0-1.033-0.2-1.4-0.601c-0.367-0.399-0.55-0.866-0.55-1.399V590.6c0-0.566,0.183-1.033,0.55-1.399
			c0.2-0.2,0.417-0.351,0.65-0.45s0.483-0.15,0.75-0.15c0.533,0,1,0.2,1.4,0.601C327.917,589.566,328.1,590.033,328.1,590.6z
			 M339.15,586.95v-7.25h-6.25l-0.075,7.25 M380.15,577.85l-0.7,6.65l-31.3,0.15l-0.3-5.9L380.15,577.85z M380.8,577.825
			c0.014-0.124,0.03-0.249,0.05-0.375c0.664-4.249,1.539-8.392,2.625-12.425 M394.45,582.15h-0.1l-0.8-4.75h0.2 M404.55,577.15
			l-0.05,4.949h-0.05 M394.45,582.15c-0.2-1.601-0.434-3.184-0.7-4.75 M459.95,575.55l11.8-0.3l-0.05,4.95l-11.7,0.1L459.95,575.55z
			 M466.85,633.7L424.9,631.1l0.05,0.5l0.65,12.301h-0.1l42.05,4.35h0.1l-0.75-14.3L466.85,633.7z M424.95,631.6l-0.05-0.35
			l-74.45-4.55l0.05,0.3 M467.55,648.25v0.2l95.4,9.149v-0.024l-0.2-0.025l0.2-17.649H563v-0.051l-96.1-5.899 M380.8,577.825
			c-1.053,6.748-1.519,13.506-1.4,20.274c0.03,1.333,0.08,2.667,0.15,4c0.133,2.5,0.95,4.417,2.45,5.75
			c1.433,1.233,3.283,1.851,5.55,1.851c2.2,0,3.983-0.717,5.35-2.15c1.367-1.467,2.117-3.434,2.25-5.899
			c0.061-1.183,0.103-2.366,0.125-3.551c0.065-3.225-0.01-6.458-0.225-9.699 M351.35,636.8l74.15,7.101 M576.525,658.9l15.975,1.55
			V641.7l-29.5-1.8l-0.05,17.25v0.425l0.274,0.024L576.525,658.9z M633.7,661.925l-0.05-17.899 M634.825,644.075L633.65,644v0.025
			 M634.825,644.075l96.399,6"/>
		
			<path fill-rule="evenodd" clip-rule="evenodd" fill="none" stroke="#000000" stroke-width="0.2" stroke-linecap="round" stroke-linejoin="round" stroke-miterlimit="3" d="
			M633.35,188.1v22.6H739.6h5.7h50.65h8.149 M753.45,125.9v-11.5l2.1-0.95l2.25-0.65l2.4-0.3l4.45,0.2l4.949,1.15l2.601,1.05
			l9.8,5.4l7.15,1.95l6.899,1.05l6.65,0.45 M733.9,140.45l1.75,4.1l2.3,3.75l2.85,3.35l3.3,2.95l3.7,2.3l2.875,1.275l0.525,0.225
			h50.5 M741.4,139.55c3.366-0.233,6.216-1.6,8.55-4.1c2.333-2.5,3.5-5.434,3.5-8.8v-0.5 M751.2,158.4h-0.7h-13.4 M750.5,158.4
			l0.175-0.225 M745.3,210.7v78.95l4.95,2.2l3.2,0.75l3.149,0.3l10.4-0.3l24.025-4.675L793.1,257.7l2.851-14.5v-32.5 M795.95,244.8
			v-1.6 M636.3,219.5h-2.95v19H739.6v-19h-3 M739.6,219.5v-8.8 M739.6,238.5v9v18.75v19.5l5.45,3.8l0.25,0.1 M795.95,263.05v3.6
			 M795.95,270.15v17.075l1.55,0.025l3.35,0.525L800.8,282l-2-24.3l-2.85-14.5 M791.025,287.925l3.675-0.725l1.25,0.025v11.425
			 M800.85,287.775l1.801,0.275 M795.95,245.25v14.25 M717.3,219.5h5.95 M697.95,219.5h5.95 M707.65,219.5h5.949 M678.7,219.5h5.899
			 M669,219.5h5.9 M659.35,219.5h5.95 M649.7,219.5h5.95 M688.3,219.5h5.95 M795.95,302.2v3.5 M795.95,309.3v3.15 M726.95,219.5
			h5.95 M649.8,558h5.9 M659.45,558h5.95 M669.1,558h5.95 M678.75,558h5.95 M698.05,558H704 M707.7,558h5.95 M717.4,558h5.949
			 M688.35,558h6 M505.025,558.3L592.6,553.4v-28.5l6.801-1.801l4.699-0.55l2.351,0.15l8.05,1.85l4.3,0.3l2.65-0.3l2.649-0.8
			l1.051-0.6l2.55-0.9l2.95-0.35h2.5l0.3,0.05V542.6h106.2v-19.55l5.5-3.75l0.225-0.125L747.5,518l2.9-1l6.25-1.15l3.199-0.05
			l11.301,0.9l21.5,4.6l2.699,0.351l7.4-0.9 M736.7,558h2.95v-15.4 M739.65,558v29.3v10.8h5.75l-0.025-78.925 M727.05,558H733
			 M754.85,598.1H745.4v0.301 M734,668.3l1.75-4l2.3-3.8l2.8-3.35l3.351-2.9l3.7-2.3l3.399-1.55l-20.075-0.325 M733.55,668.75
			l8.101,0.55c3.3,0.233,6.116,1.584,8.449,4.05c2.301,2.534,3.45,5.467,3.45,8.801v12.199l2.05,1.051l2.301,0.6l4.649,0.35
			l2.15-0.25l5-1.149l2.55-1.05l9.85-5.351l4.95-1.55l15.15-1.95h0.55 M733.55,668.75l-99.85-6.825 M801.8,650.4h-50.5 M745.4,670.5
			v24.95 M739.65,669.6v25.851 M592.5,148.35V134.7l4.95-2.3l1.649-0.4l3.351-0.2l1.6,0.15l11.101,2l3.85,0.2l2.4-0.2l1.25-0.25
			l5.149-1.65l2.45-1.1l1-0.25l2.1-0.05v16.2v33.25 M565.75,168.7l0.2,0.025l0.024-0.025 M565.75,164.275l0.325,4.325L566,168.675
			l-0.025,0.025 M596.225,167.05L592.5,148.6v-0.25 M596.225,167.05l0.926,4.6c0.399,0.633,0.949,1.133,1.649,1.5
			c0.667,0.367,1.4,0.55,2.2,0.55l26.9-1.35l0.6-0.25l1.05-0.7l0.7-1l0.3-0.6l0.2-0.6l2.6-22.35 M633.35,188.1v-8 M472.25,219.6h6
			 M462.5,219.55h6 M452.75,219.5h6 M433.15,219.45h6.05 M413.65,219.525l6,0.025 M409.85,219.5l-6-0.15 M422.75,223.7l2.2,0.05
			L509.5,226l-0.5,8.475l83.5,2.225v-16.8h-3 M424.95,223.75l-0.4,8.45l84.45,2.275 M423.4,219.4l6.05,0.05 M442.9,219.5h6.05
			 M394.1,219.525l6,0.025 M387.275,222.75l-39.025-1.05l-0.275,4.95h0.275 M390.35,219.5l-6-0.2 M374.55,219.25l6.05,0.05
			 M364.8,219.25h6 M384.125,243.9l3.375,9.8l4.05-9.4L384.125,243.9l-36.95-2.05l-0.025,0.4 M355,219.2h6 M348.25,219.15l3,0.05
			 M329.2,210.7h-97.9v12.8l5.8,0.15 M240.25,223.725l4.25,0.125 M249,223.975l3.7,0.1 M257.15,224.2l47.25,1.3l4.5,0.125l3.725,0.1
			l4.475,0.125l7.95,0.2l5.85,0.15l2.9,0.075l2.8,0.075l4.5,0.125l6.875,0.175l-0.8,15.2 M333.9,210.7h5.25h4.7H349 M329.2,210.7
			h4.7 M348.05,230.15l76.5,2.05 M633.35,219.5v-8.8H614.65l1.149,0.2l1.15,0.35l1.7,0.75l2.75,1.9l1.05,1l0.5,0.6l0.55,0.5
			l3.3,4.75l3.7,8.95l1.3,5.2l1.2,7.8l0.35,6.95v-2.15v-9 M640,219.5h5.95 M592.5,236.7v8.1l1.85-12.05l1.45-5.05l3.101-6.95
			l2.3-3.5l2-2.35l2.149-1.85L607,212l1.75-0.75l1.15-0.35l1.149-0.2H592.5v9.2 M611.05,210.7h3.601 M609.35,232.3l0.5-0.05
			l5.65-1.2 M622.55,241.75v-5.6 M622.55,232.7v-2.85l-0.399-0.05l-1.15,0.05l-1.6,0.4 M569.65,220.15l2.149-0.025 M581.575,220.125
			l2.175,0.025 M602.4,243.25v-5.6 M602.4,234.1v-2.8l2.5,0.8l0.5,0.1 M602.4,270.7v-5.65 M602.4,261.55v-5.65 M602.4,279.8v-5.6
			 M592.5,244.8v10.6v28.5l6.8,1.8l3.101,0.375v-2.725 M739.6,266.25H633.35v20.6L633,286.9h-2.45l-2.95-0.35l-4.85-1.9l-0.2-0.05
			l-1.2-0.35L618.7,284l-4.3,0.25l-5.801,1.45l-4.649,0.55l-1.55-0.175 M633.35,249.65v16.6 M622.55,260v-5.6 M622.55,269.15v-5.6
			 M622.55,278.25v-5.55 M622.55,284.6v-2.85 M622.55,250.9v-5.6 M602.4,252.4v-5.65 M560.15,219.8h6.05 M550.4,219.75l6,0.05
			 M540.65,219.75h6 M530.85,219.7l6,0.05 M500.35,219.9h4.351 M510.1,219.9h4.351 M491.8,219.65h6 M497.05,250.125l4,12.625
			l4.05-12.175L497.05,250.125l-105.5-5.825 M521.1,219.7h6 M592.5,255.4l-87.4-4.825 M384.5,210.7h208v-43.425 M482,219.6h6
			 M231.225,205.45l0.075,5.25 M211.325,195.425L211.2,196.1l-0.4,2.375 M211.925,192.425c-0.247,0.914-0.446,1.914-0.6,3
			 M208.075,215.425L205.7,230.25v0.45c0,0.8,0.25,1.517,0.75,2.15s1.133,1.066,1.9,1.3l5.75,0.325l4.3,0.225l3.9,0.225l4.15,0.225
			l23.7,1.325l0.2-3.675l71.9,3.95l-0.2,3.7l25.125,1.4 M322.05,240.45l-71.9-3.975 M231.2,210.7h0.1 M208.325,213.95l-0.2,1.2
			l-0.05,0.275 M218.4,574.125l3.9-0.225l4.15-0.226l31.85-1.774l57.3-3.15l31.55-1.75l36.325-1.975 M214.1,574.35l4.3-0.225
			 M207.4,588.4l-1.6-9.801v-0.5c0-0.8,0.267-1.517,0.8-2.149c0.5-0.7,1.15-1.134,1.95-1.3l5.55-0.301 M231.7,598.1h-0.25
			 M390.9,564.55l106.325-5.85 M315.6,568.75v5.35l-57.1,3.2l-0.2-5.399 M260.8,621.5l0.1,5 M260.8,621.15v0.35 M511.15,568.05
			l6-0.149 M494.875,568.6l2.625-0.1 M491.5,568.7l3.375-0.101 M492.325,598.1h0.475 M515.425,574.225l0.675-0.024 M512.3,574.3
			l-2.2,0.05 M507.375,568.2l-6.025,0.2 M500.3,574.6l6.05-0.149 M530.75,567.45l6-0.15 M540.55,567.1l6-0.149 M550.35,566.8
			l6.051-0.149 M560.15,566.5l6.05-0.15 M521,567.75l6-0.15 M570,566.2l6-0.2 M579.8,565.9l6-0.2 M589.55,565.55l3.05-0.05v-12.1
			 M592.6,565.5V586v12.1v76l4.95,2.301l1.65,0.399l3.399,0.15l1.551-0.101l12.6-2.149l2.35-0.05l3.65,0.399l7.55,2.8l1.05,0.25
			l2.101,0.101v-16.3V644v-45.9v-10.8V558v-15.4 M633.45,558h2.95 M640.15,558h5.899 M509.9,586H592.6 M332.825,586.95H231.45
			 M332.825,586.95h6.325 M231.7,598.1h117.1l-0.45-8.449l-0.15-2.7h-9.05 M347.15,567l0.325,6.35l3.025-0.1 M354.25,573.1
			l6.1-0.199 M380.15,577.85l0.65-0.024l2.25-0.075 M348.2,586.95l-0.725-13.601 M390.9,564.55l-0.75,0.05 M373.85,572.5l6.05-0.2
			 M395.05,588.4l97.575-2.65 M386.7,577.65l5.8-0.15 M393.5,571.9l6.05-0.25 M383.7,572.15l6-0.15 M348.35,589.65l30.95-0.851
			 M364.1,572.85l6-0.25 M413.1,571.25l6.05-0.2 M422.9,570.95l6-0.25 M432.7,570.6l6.05-0.149 M452.25,570l6.1-0.25 M471.9,569.3
			l6-0.149 M462.1,569.65l6.05-0.2 M442.5,570.3l6.05-0.2 M403.35,571.6l6-0.25 M348.8,598.1h30.6 M562.95,657.15l0.274,0.449
			 M633.65,644.025l-0.2-0.025 M633.45,661.9l0.25,0.024 M633.65,644.025l1.175,0.05 M510.225,598.1H509.6 M510.225,598.1H592.6
			 M395.275,598.1h97.05 M481.75,569.05l6-0.2 M633.45,598.1h106.2 M739.65,587.3h-106.2 M739.6,247.5H633.35"/>
		
			<line fill-rule="evenodd" clip-rule="evenodd" fill="none" stroke="#1A171B" stroke-width="0.2" stroke-miterlimit="6.92" x1="733.55" y1="140" x2="741.4" y2="139.55"/>
		
			<path fill-rule="evenodd" clip-rule="evenodd" fill="none" stroke="#000000" stroke-width="0.5" stroke-linecap="round" stroke-linejoin="round" stroke-miterlimit="3" d="
			M564.4,151.1l0.5-0.05l3.524-0.35l9.95-0.975l8.65-0.85l5.475-0.525 M565.975,168.7h-0.05 M566,168.7l26.5-1.425l3.725-0.225
			 M565.975,168.7H566 M568.425,150.7l0.575,9.55l9.95-0.95l-0.175-2.85l-0.4-6.725 M578.775,156.45l8.725-0.85l-0.475-6.725
			 M330.55,195.15c-1.466,1.067-2.2,2.25-2.2,3.55l0.05,1.15c0.133,1.233,0.95,2.283,2.45,3.15c1.566,0.9,3.533,1.45,5.9,1.65
			l4.9-0.2c1.5-0.067,2.8-0.667,3.9-1.8c1.1-1.167,1.65-2.533,1.65-4.1c0-1.633-0.583-3.017-1.75-4.15
			c-1.133-1.167-2.517-1.75-4.15-1.75l-4.8,0.25h-0.1C334,193.333,332.05,194.083,330.55,195.15z M229.1,602.1v5.95
			c0,1.101-0.55,1.65-1.65,1.65h-7.85c-1.1,0-1.65-0.55-1.65-1.65v-5.95c0-1.1,0.55-1.649,1.65-1.649h7.85
			C228.55,600.45,229.1,601,229.1,602.1z M566.95,657.7v-9.4v-0.35h0.35h9.25v3.75h10.2v7.899 M576.55,651.7l-0.024,7.2
			 M566.95,648.3l0.35-0.35"/>
		
			<path fill-rule="evenodd" clip-rule="evenodd" fill="none" stroke="#000000" stroke-linecap="round" stroke-linejoin="round" stroke-miterlimit="3" d="
			M208.15,215.15l7.2-1.45 M208.125,215.15h0.025"/>
		<path fill-rule="evenodd" clip-rule="evenodd" fill="none" stroke="#FF0000" stroke-miterlimit="6.92" d="M226.45,235.15v13.3
			 M214.1,234.475V248.2 M218.4,234.7V248 M222.3,234.925V248.4 M222.3,573.9v-13.4 M218.4,574.125V560.7 M214.1,574.35v0.45
			 M214.1,574.35v-13.3 M226.45,560.15v13.524"/>
		
			<path fill-rule="evenodd" clip-rule="evenodd" fill="none" stroke="#000000" stroke-width="0.25" stroke-linecap="round" stroke-linejoin="round" stroke-miterlimit="3" d="
			M231.45,598.1v-3.449 M231.45,586.95v7.7"/>
	</g>
</g>
</svg>
