<?xml version="1.0" encoding="utf-8"?>
<!-- Generator: Adobe Illustrator 16.2.1, SVG Export Plug-In . SVG Version: 6.00 Build 0)  -->
<!DOCTYPE svg PUBLIC "-//W3C//DTD SVG 1.1//EN" "http://www.w3.org/Graphics/SVG/1.1/DTD/svg11.dtd">
<svg version="1.1" id="Ebene_1" xmlns="http://www.w3.org/2000/svg" xmlns:xlink="http://www.w3.org/1999/xlink" x="0px" y="0px"
	 width="564.302px" height="798.244px" viewBox="119.294 -59.184 564.302 798.244"
	 enable-background="new 119.294 -59.184 564.302 798.244" xml:space="preserve">
<symbol  id="_x34_11AL" viewBox="-253.502 -274.601 511.004 549.201">
	<g id="Ebene_3_32_">
		<path fill="#CCCCCC" d="M243.755-238.896c8.5-4.866,12.982-9.533,13.449-14c0.566-5.033-3.883-10-13.35-14.899
			c-9.5-4.101-22.667-6.283-39.5-6.551v44.9C219.354-231.479,232.487-234.629,243.755-238.896z"/>
		<path fill="none" stroke="#1A171B" stroke-width="0.5" stroke-miterlimit="6.92" d="M243.755-238.896
			c-11.268,4.268-24.4,7.417-39.4,9.45v-44.9c16.833,0.268,30,2.45,39.5,6.551c9.467,4.899,13.917,9.866,13.35,14.899
			C256.737-248.43,252.255-243.763,243.755-238.896z"/>
	</g>
	<g>
		<path fill="#CCCCCC" d="M-199.146,48.704c11.333,4.267,24.467,7.399,39.4,9.399V13.204c-16.833,0.3-29.983,2.5-39.45,6.6
			c-9.434,4.933-13.883,9.9-13.35,14.9C-212.112,39.171-207.646,43.837-199.146,48.704z"/>
		<path fill="none" stroke="#1A171B" stroke-width="0.5" stroke-miterlimit="6.92" d="M-199.146,48.704
			c11.333,4.267,24.467,7.399,39.4,9.399V13.204c-16.833,0.3-29.983,2.5-39.45,6.6c-9.434,4.933-13.883,9.9-13.35,14.9
			C-212.112,39.171-207.646,43.837-199.146,48.704z"/>
	</g>
	<g>
		<path fill="#CCCCCC" d="M-160.581,274.321v-46.886c-16.806,0.846-29.952,3.566-39.439,8.163
			c-9.451,5.442-13.899,10.774-13.349,15.997c0.44,4.67,4.908,9.396,13.402,14.176
			C-188.823,269.816-175.694,272.667-160.581,274.321z"/>
		<path fill="none" stroke="#1A171B" stroke-width="0.5" stroke-miterlimit="6.92" d="M-160.581,274.321v-46.886
			c-16.806,0.846-29.952,3.566-39.439,8.163c-9.451,5.442-13.899,10.774-13.349,15.997c0.44,4.67,4.908,9.396,13.402,14.176
			C-188.823,269.816-175.694,272.667-160.581,274.321z"/>
	</g>
	<polygon points="-181.334,252.5 -181.223,252.444 -181.111,252.444 -180.892,252.335 -180.505,251.948 -180.45,251.838 
		-180.395,251.782 -180.34,251.617 -180.34,251.508 -180.284,251.396 -180.284,251.011 -180.34,250.9 -180.34,250.624 
		-180.395,250.514 -180.505,250.459 -180.561,250.349 -180.671,250.238 -180.727,250.128 -180.836,250.073 -181.002,249.907 
		-181.111,249.853 -181.277,249.797 -181.995,249.797 -182.16,249.853 -182.271,249.907 -182.436,250.073 -182.602,250.128 
		-182.656,250.184 -182.712,250.294 -182.822,250.404 -182.933,250.624 -182.987,250.79 -182.987,251.617 -182.933,251.728 
		-182.822,251.838 -182.712,252.059 -182.546,252.225 -182.436,252.279 -182.325,252.39 -182.215,252.444 -181.995,252.444 
		-181.829,252.5 	"/>
	<text transform="matrix(1 0 0 -1 -253.502 205.6807)" font-family="'Tahoma'" font-size="12.1353">411AL</text>
	
		<line fill="none" stroke="#1A171B" stroke-width="0.2" stroke-miterlimit="6.92" x1="-216.875" y1="209.998" x2="-182.235" y2="250.706"/>
</symbol>
<symbol  id="_x34_12AB" viewBox="-215.151 -160.749 430.303 321.499">
	<g id="Ebene_3_13_">
		<path fill="#CCCCCC" d="M195.847-134.816l0.057,7.612h15.665l3.2-3.861c-1.398-0.771-2.244-1.6-2.538-2.481
			c-0.331-0.919-0.037-1.766,0.883-2.537c0.846-0.331,1.324-0.772,1.434-1.324l-0.662-18.92c-0.331-1.839-4.154-3.052-11.473-3.641
			c-5.148-0.441-13.496-0.606-25.043-0.496H75.763l0.11,10.591L195.847-134.816z"/>
		<path fill="none" stroke="#1A171B" stroke-width="0.5" stroke-miterlimit="6.92" d="M195.847-134.816L75.873-149.875l-0.11-10.591
			h101.605c11.547-0.11,19.895,0.055,25.043,0.496c7.318,0.589,11.143,1.802,11.473,3.641l0.662,18.92
			c-0.109,0.551-0.588,0.993-1.434,1.324c-0.919,0.772-1.213,1.618-0.883,2.537c0.294,0.882,1.14,1.71,2.537,2.481l-3.199,3.861
			h-15.665L195.847-134.816z"/>
	</g>
	<g>
		<path fill="#CCCCCC" d="M-139.025,156.639l2.096,3.861h16.77l0.056-8.33L-0.02,137.057v-9.818h-101.607
			c-11.547-0.109-19.895,0.056-25.043,0.497c-7.316,0.588-11.143,1.802-11.473,3.641l-0.662,18.919
			c0.109,0.552,0.589,0.993,1.435,1.323c0.919,0.771,1.231,1.618,0.938,2.538C-136.764,155.039-137.628,155.866-139.025,156.639z"/>
		<path fill="none" stroke="#1A171B" stroke-width="0.5" stroke-miterlimit="6.92" d="M-139.025,156.639l2.096,3.861h16.77
			l0.056-8.33L-0.02,137.057v-9.818h-101.607c-11.547-0.109-19.895,0.056-25.043,0.497c-7.316,0.588-11.143,1.802-11.473,3.641
			l-0.662,18.919c0.109,0.552,0.589,0.993,1.435,1.323c0.919,0.771,1.231,1.618,0.938,2.538
			C-136.764,155.039-137.628,155.866-139.025,156.639z"/>
	</g>
	
		<line fill="none" stroke="#000000" stroke-width="0.25" stroke-linecap="round" stroke-linejoin="round" stroke-miterlimit="3" x1="-117.319" y1="140.808" x2="-187.648" y2="79.304"/>
	<polygon points="-118.367,141.691 -118.146,141.911 -118.092,141.911 -117.98,141.967 -117.87,142.076 -117.761,142.132 
		-117.595,142.132 -117.484,142.188 -117.099,142.188 -116.988,142.132 -116.878,142.132 -116.657,142.021 -116.547,141.911 
		-116.437,141.911 -116.326,141.801 -116.271,141.691 -116.105,141.525 -116.05,141.359 -115.939,141.14 -115.939,141.029 
		-115.885,140.919 -115.885,140.808 -115.939,140.643 -115.939,140.532 -115.995,140.422 -116.05,140.257 -116.105,140.201 
		-116.105,140.036 -116.161,139.926 -116.271,139.87 -116.547,139.595 -116.712,139.595 -116.768,139.539 -116.934,139.484 
		-117.043,139.429 -117.54,139.429 -117.87,139.595 -118.036,139.595 -118.092,139.705 -118.202,139.761 -118.312,139.87 
		-118.422,139.926 -118.422,140.036 -118.478,140.201 -118.588,140.257 -118.643,140.422 -118.643,140.643 -118.698,140.753 
		-118.698,140.919 -118.643,141.029 -118.643,141.14 	"/>
	<text transform="matrix(1 0 0 -1 -215.1514 68.4268)" font-family="'Tahoma'" font-size="12.1353">412AB</text>
</symbol>
<symbol  id="_x34_12AL" viewBox="-49.986 -122.671 99.973 245.343">
	<g id="Ebene_3_6_">
		<path fill="#CCCCCC" d="M26.964-57.788l21.75,0.851v-65.45l-53.9,6.75l-0.2,53.649C4.848-59.555,15.631-58.155,26.964-57.788z"/>
		<path fill="none" stroke="#1A171B" stroke-width="0.5" stroke-miterlimit="6.92" d="M26.964-57.788
			c-11.333-0.367-22.117-1.767-32.35-4.2l0.2-53.649l53.9-6.75v65.45L26.964-57.788z"/>
	</g>
	<g>
		<polygon fill="#CCCCCC" points="49.737,122.422 49.737,103.226 -5.147,103.226 -5.147,122.422 		"/>
		<polygon fill="none" stroke="#1A171B" stroke-width="0.5" stroke-miterlimit="6.92" points="49.737,122.422 -5.147,122.422 
			-5.147,103.226 49.737,103.226 		"/>
	</g>
	
		<line fill="none" stroke="#000000" stroke-width="0.25" stroke-linecap="round" stroke-linejoin="round" stroke-miterlimit="3" x1="19.344" y1="110.383" x2="-11.933" y2="81.093"/>
	<text transform="matrix(1 0 0 -1 -27.543 71.2891)" font-family="'Tahoma'" font-size="12.1353">412AL</text>
	<g>
		<path fill="#0000FF" d="M20.865,111.112c0-0.268-0.101-0.5-0.3-0.7c-0.2-0.2-0.435-0.3-0.7-0.3c-0.267,0-0.5,0.1-0.7,0.3
			s-0.3,0.434-0.3,0.7c0,0.266,0.1,0.5,0.3,0.7c0.2,0.199,0.434,0.3,0.7,0.3c0.266,0,0.5-0.101,0.7-0.3
			C20.764,111.612,20.865,111.379,20.865,111.112z"/>
		<path fill="none" stroke="#000000" stroke-linecap="round" stroke-linejoin="round" stroke-miterlimit="3" d="M20.865,111.112
			c0-0.268-0.101-0.5-0.3-0.7c-0.2-0.2-0.435-0.3-0.7-0.3c-0.267,0-0.5,0.1-0.7,0.3s-0.3,0.434-0.3,0.7c0,0.266,0.1,0.5,0.3,0.7
			c0.2,0.199,0.434,0.3,0.7,0.3c0.266,0,0.5-0.101,0.7-0.3C20.764,111.612,20.865,111.379,20.865,111.112z"/>
	</g>
	
		<line fill="none" stroke="#000000" stroke-width="0.25" stroke-linecap="round" stroke-linejoin="round" stroke-miterlimit="3" x1="16.495" y1="-68.009" x2="-14.781" y2="-38.719"/>
	<polygon points="16.55,-66.63 16.66,-66.686 16.771,-66.686 16.992,-66.796 17.157,-66.851 17.211,-66.906 17.432,-67.016 
		17.543,-67.126 17.598,-67.292 17.654,-67.347 17.819,-67.678 17.819,-67.843 17.874,-67.954 17.874,-68.175 17.819,-68.285 
		17.819,-68.45 17.654,-68.781 17.488,-68.946 17.432,-69.057 17.267,-69.167 17.211,-69.223 17.103,-69.277 16.936,-69.333 
		16.881,-69.333 16.715,-69.388 16.605,-69.388 16.495,-69.443 16.384,-69.388 16.219,-69.388 16.109,-69.333 15.943,-69.333 
		15.888,-69.277 15.667,-69.167 15.391,-68.892 15.336,-68.781 15.226,-68.671 15.226,-68.561 15.171,-68.45 15.116,-68.285 
		15.116,-67.843 15.171,-67.678 15.226,-67.623 15.226,-67.458 15.281,-67.347 15.336,-67.292 15.447,-67.126 15.501,-67.071 
		15.557,-66.961 15.723,-66.906 15.833,-66.851 15.888,-66.796 16.053,-66.74 16.164,-66.686 16.275,-66.686 16.384,-66.63 	"/>
	<text transform="matrix(1 0 0 -1 -49.9863 -30.8604)" font-family="'Tahoma'" font-size="12.1353">412AL</text>
</symbol>
<symbol  id="_x34_12AR" viewBox="-183.762 -296.817 367.524 593.634">
	<g id="Ebene_3_7_">
		<path fill="#CCCCCC" d="M132.461-236.135l-0.166-53.671l-53.892-6.729v65.476l21.732-0.883
			C111.169-232.311,121.944-233.708,132.461-236.135z"/>
		<path fill="none" stroke="#1A171B" stroke-width="0.5" stroke-miterlimit="6.92" d="M132.461-236.135l-0.166-53.671l-53.892-6.729
			v65.476l21.732-0.883C111.169-232.311,121.944-233.708,132.461-236.135z"/>
	</g>
	<polygon fill="#CCCCCC" points="-128.912,264.109 -128.912,244.909 -183.762,244.909 -183.762,264.109 	"/>
	
		<line fill="none" stroke="#000000" stroke-width="0.25" stroke-linecap="round" stroke-linejoin="round" stroke-miterlimit="3" x1="110.165" y1="-241.22" x2="149.328" y2="-210.882"/>
	<polygon points="109.639,-239.94 109.788,-239.94 109.988,-239.841 110.389,-239.841 110.588,-239.94 110.788,-239.94 
		110.938,-240.141 111.088,-240.141 111.238,-240.341 111.338,-240.44 111.438,-240.49 111.488,-240.69 111.488,-240.74 
		111.538,-240.891 111.538,-240.99 111.588,-241.141 111.588,-241.391 111.538,-241.49 111.488,-241.69 111.488,-241.74 
		111.438,-241.841 111.389,-241.99 111.238,-242.19 111.188,-242.291 110.738,-242.49 110.538,-242.541 110.488,-242.591 
		109.938,-242.591 109.488,-242.391 109.389,-242.391 109.188,-242.19 109.139,-242.041 108.938,-241.891 108.938,-241.74 
		108.838,-241.69 108.838,-240.891 108.889,-240.74 108.938,-240.69 108.988,-240.591 109.139,-240.44 109.238,-240.24 
		109.438,-240.141 	"/>
	<text transform="matrix(1 0 0 -1 148.8818 -210.9131)" font-family="'Tahoma'" font-size="12.1353">412AR</text>
	
		<line fill="none" stroke="#000000" stroke-width="0.25" stroke-linecap="round" stroke-linejoin="round" stroke-miterlimit="3" x1="-154.685" y1="255.03" x2="-115.521" y2="285.368"/>
	<polygon points="-155.062,256.31 -154.861,256.409 -154.462,256.409 -154.262,256.31 -154.062,256.31 -153.912,256.109 
		-153.762,256.109 -153.611,255.909 -153.512,255.81 -153.412,255.76 -153.361,255.56 -153.361,255.51 -153.312,255.359 
		-153.312,255.26 -153.262,255.109 -153.262,254.859 -153.312,254.76 -153.361,254.56 -153.361,254.51 -153.412,254.409 
		-153.462,254.26 -153.611,254.06 -153.662,253.96 -154.111,253.76 -154.312,253.71 -154.361,253.659 -154.912,253.659 
		-155.361,253.859 -155.462,253.859 -155.662,254.06 -155.712,254.21 -155.912,254.359 -155.912,254.51 -156.012,254.56 
		-156.012,255.359 -155.962,255.51 -155.912,255.56 -155.861,255.659 -155.712,255.81 -155.611,256.01 -155.412,256.109 
		-155.212,256.31 	"/>
	<text transform="matrix(1 0 0 -1 -115.9688 286.3369)" font-family="'Tahoma'" font-size="12.1353">412AR</text>
</symbol>
<symbol  id="_x34_12AT" viewBox="-203.774 -285.235 407.55 570.47">
	<g id="Ebene_3_3_">
		<path fill="#CCCCCC" d="M161.938-264.597l-3.254-0.056c0.11-0.073-0.606-0.257-2.15-0.552l-3.256,3.807h-15.389v46.004
			l24.049-4.191V-264.597z"/>
		<path fill="none" stroke="#1A171B" stroke-width="0.5" stroke-miterlimit="6.92" d="M161.938-264.597v45.012l-24.049,4.191
			v-46.004h15.389l3.256-3.807c1.544,0.294,2.261,0.479,2.15,0.552L161.938-264.597z"/>
	</g>
	<g>
		<path fill="#CCCCCC" d="M-178.561,71.593l-0.056-45.286h-16.604l-2.096-3.86c-0.441,0.072-1.359,0.274-2.758,0.605
			c-0.516,0.147-1.177,0.239-1.986,0.275l-0.44,45.011L-178.561,71.593z"/>
		<path fill="none" stroke="#1A171B" stroke-width="0.5" stroke-miterlimit="6.92" d="M-178.561,71.593l-0.056-45.286h-16.604
			l-2.096-3.86c-0.441,0.072-1.359,0.274-2.758,0.605c-0.516,0.147-1.177,0.239-1.986,0.275l-0.44,45.011L-178.561,71.593z"/>
	</g>
	<g>
		<path fill="#CCCCCC" d="M-178.335,284.907v-48.101c-9.768-0.167-17.884,0-24.351,0.5c-1.065,17.833-1.117,33.517-0.149,47.05
			C-195.902,284.924-187.735,285.106-178.335,284.907z"/>
		<path fill="none" stroke="#1A171B" stroke-width="0.5" stroke-miterlimit="6.92" d="M-178.335,284.907v-48.101
			c-9.768-0.167-17.884,0-24.351,0.5c-1.065,17.833-1.117,33.517-0.149,47.05C-195.902,284.924-187.735,285.106-178.335,284.907z"/>
	</g>
	<polygon points="149.596,-239.3 149.707,-239.245 149.761,-239.079 149.816,-238.969 150.037,-238.859 150.203,-238.693 
		150.369,-238.693 150.589,-238.583 150.975,-238.583 151.196,-238.693 151.361,-238.693 151.527,-238.859 151.691,-238.913 
		151.748,-238.969 151.802,-239.079 151.913,-239.189 152.023,-239.245 152.078,-239.41 152.078,-239.521 152.134,-239.631 
		152.134,-239.741 152.188,-239.907 152.188,-240.183 152.134,-240.238 152.078,-240.403 152.078,-240.515 152.023,-240.568 
		151.968,-240.734 151.913,-240.844 151.802,-240.9 151.748,-241.01 151.637,-241.065 151.527,-241.175 151.416,-241.23 
		151.306,-241.23 151.14,-241.286 151.086,-241.341 150.534,-241.341 150.312,-241.23 150.203,-241.23 149.982,-241.12 
		149.707,-240.844 149.652,-240.734 149.541,-240.624 149.541,-240.515 149.431,-240.403 149.431,-239.631 	"/>
	<text transform="matrix(1 0 0 -1 170.208 -282.6162)" font-family="'Tahoma'" font-size="12.1353">412AT</text>
	
		<line fill="none" stroke="#1A171B" stroke-width="0.2" stroke-miterlimit="6.92" x1="188.043" y1="-271.679" x2="150.81" y2="-239.962"/>
</symbol>
<symbol  id="_x34_12BL" viewBox="-44.993 -36.303 89.986 72.604">
	<g id="Ebene_3_31_">
		<polygon fill="#CCCCCC" points="-21.559,1.025 -21.506,36.052 44.743,36.052 44.743,-7.304 		"/>
		<polygon fill="none" stroke="#1A171B" stroke-width="0.5" stroke-miterlimit="6.92" points="-21.559,1.025 44.743,-7.304 
			44.743,36.052 -21.506,36.052 		"/>
	</g>
	<polygon points="9.531,17.93 9.642,17.985 9.807,18.15 9.973,18.206 10.028,18.261 10.192,18.316 10.8,18.316 11.131,18.15 
		11.241,18.041 11.462,17.93 11.517,17.819 11.627,17.709 11.627,17.654 11.737,17.544 11.793,17.379 11.848,17.323 11.848,17.157 
		11.903,16.992 11.903,16.882 11.848,16.771 11.848,16.661 11.793,16.551 11.737,16.386 11.683,16.33 11.627,16.22 11.627,16.11 
		11.517,16 11.407,15.944 11.297,15.834 11.241,15.724 11.131,15.724 10.965,15.668 10.855,15.613 10.745,15.613 10.635,15.559 
		10.358,15.559 10.248,15.613 10.138,15.613 9.973,15.668 9.918,15.724 9.752,15.724 9.311,16.165 9.311,16.33 9.2,16.386 
		9.145,16.496 9.145,16.771 9.09,16.882 9.09,16.992 9.145,17.157 9.145,17.268 9.256,17.489 9.311,17.654 9.366,17.709 
		9.421,17.819 	"/>
	<text transform="matrix(1 0 0 -1 -44.9932 -33.6836)" font-family="'Tahoma'" font-size="12.1353">412BL</text>
	
		<line fill="none" stroke="#1A171B" stroke-width="0.2" stroke-miterlimit="6.92" x1="-20.807" y1="-22.117" x2="10.469" y2="16.938"/>
</symbol>
<symbol  id="_x34_12BR" viewBox="-35.367 -40.912 70.733 81.824">
	<g id="Ebene_3_21_">
		<polygon fill="#CCCCCC" points="-35.117,40.662 31.131,40.662 31.186,5.635 -35.117,-2.694 		"/>
		<polygon fill="none" stroke="#1A171B" stroke-width="0.5" stroke-miterlimit="6.92" points="-35.117,40.662 31.131,40.662 
			31.186,5.635 -35.117,-2.694 		"/>
	</g>
	
		<line fill="none" stroke="#000000" stroke-width="0.25" stroke-linecap="round" stroke-linejoin="round" stroke-miterlimit="3" x1="14.048" y1="-28.729" x2="-9.562" y2="16.724"/>
	<polygon points="-9.506,18.158 -9.396,18.103 -9.23,18.103 -8.679,17.827 -8.624,17.716 -8.513,17.605 -8.458,17.496 -8.292,17.33 
		-8.292,17.165 -8.237,17.108 -8.183,16.944 -8.183,16.448 -8.237,16.338 -8.292,16.172 -8.348,16.116 -8.458,15.896 -8.734,15.62 
		-8.789,15.51 -8.954,15.51 -9.175,15.399 -9.341,15.399 -9.451,15.345 -9.671,15.345 -9.781,15.399 -9.946,15.399 -10.058,15.455 
		-10.113,15.51 -10.278,15.51 -10.443,15.675 -10.554,15.841 -10.665,15.841 -10.72,16.006 -10.72,16.116 -10.83,16.172 
		-10.885,16.338 -10.885,16.448 -10.94,16.558 -10.94,16.834 -10.885,16.944 -10.885,17.108 -10.83,17.165 -10.774,17.33 
		-10.72,17.44 -10.72,17.496 -10.499,17.716 -10.443,17.827 -10.003,18.047 -9.837,18.103 -9.781,18.103 -9.616,18.158 	"/>
	<text transform="matrix(1 0 0 -1 0.6094 -38.293)" font-family="'Tahoma'" font-size="12.1353">412BR</text>
</symbol>
<symbol  id="_x34_12BT" viewBox="-20.007 -30.278 60.014 58.557">
	
		<line fill="none" stroke="#000000" stroke-width="0.55" stroke-linecap="round" stroke-linejoin="round" stroke-miterlimit="3" x1="39.729" y1="-20.31" x2="-15.156" y2="-20.31"/>
	<g id="Ebene_3_29_">
		<polygon fill="#CCCCCC" points="39.757,-20.328 39.757,-30.028 -15.144,-30.028 -15.144,-20.328 		"/>
		<polygon fill="none" stroke="#1A171B" stroke-width="0.5" stroke-miterlimit="6.92" points="39.757,-20.328 -15.144,-20.328 
			-15.144,-30.028 39.757,-30.028 		"/>
	</g>
	<text transform="matrix(1 0 0 -1 -20.0068 17.7988)" font-family="'Tahoma'" font-size="12.1353">412BT</text>
	
		<line fill="none" stroke="#1A171B" stroke-width="0.2" stroke-miterlimit="6.92" x1="-3.685" y1="12.654" x2="0.729" y2="-25.517"/>
	<g>
		<path fill="#0000FF" d="M1.757-25.528c0-0.267-0.101-0.5-0.301-0.7c-0.199-0.199-0.434-0.3-0.699-0.3c-0.267,0-0.5,0.101-0.7,0.3
			c-0.2,0.2-0.3,0.435-0.3,0.7c0,0.267,0.1,0.5,0.3,0.7s0.434,0.3,0.7,0.3c0.266,0,0.5-0.1,0.699-0.3
			C1.656-25.028,1.757-25.261,1.757-25.528z"/>
		<path fill="none" stroke="#000000" stroke-linecap="round" stroke-linejoin="round" stroke-miterlimit="3" d="M1.757-25.528
			c0-0.267-0.101-0.5-0.301-0.7c-0.199-0.199-0.434-0.3-0.699-0.3c-0.267,0-0.5,0.101-0.7,0.3c-0.2,0.2-0.3,0.435-0.3,0.7
			c0,0.267,0.1,0.5,0.3,0.7s0.434,0.3,0.7,0.3c0.266,0,0.5-0.1,0.699-0.3C1.656-25.028,1.757-25.261,1.757-25.528z"/>
	</g>
</symbol>
<symbol  id="_x34_12CT" viewBox="-149.08 -263.025 298.16 526.05">
	<g id="Ebene_3_11_">
		<path fill="#CCCCCC" d="M-50.224,254.775h-12.6v-30.551h12.6V254.775z M-48.823,263.025v-48.101h-65.601v48.101H-48.823z
			 M-72.624,229.275v19.899h-29.999v-19.899H-72.624z M26.576-231.475c21.867,0.066,43.983-0.15,66.351-0.65v-30.65H26.576V-231.475
			L26.576-231.475z"/>
		<path fill="none" stroke="#1A171B" stroke-width="0.5" stroke-miterlimit="6.92" d="M26.576-231.475
			c21.867,0.066,43.983-0.15,66.351-0.65v-30.65H26.576V-231.475L26.576-231.475z"/>
	</g>
	<g>
		<path fill="#CCCCCC" d="M-49.273,56.375l0.1-31.95h-66.3v30.65c9,0.2,20.933,0.5,35.8,0.899
			C-67.707,56.275-57.573,56.408-49.273,56.375z"/>
		<path fill="none" stroke="#1A171B" stroke-width="0.5" stroke-miterlimit="6.92" d="M-49.273,56.375
			c-8.3,0.033-18.435-0.1-30.4-0.4c-14.867-0.399-26.8-0.699-35.8-0.899v-30.65h66.3L-49.273,56.375z"/>
	</g>
	<polygon points="62.951,-245.301 63.007,-245.411 63.007,-245.577 63.062,-245.688 63.062,-245.908 63.007,-246.073 
		62.951,-246.184 62.951,-246.293 62.896,-246.404 62.842,-246.569 62.51,-246.901 62.069,-247.121 61.903,-247.121 
		61.793,-247.176 61.518,-247.176 61.407,-247.121 61.298,-247.121 60.966,-246.956 60.911,-246.901 60.745,-246.845 
		60.635,-246.735 60.579,-246.625 60.524,-246.569 60.469,-246.459 60.414,-246.293 60.304,-246.073 60.304,-245.577 
		60.359,-245.466 60.359,-245.301 60.414,-245.246 60.469,-245.135 60.579,-244.97 60.579,-244.915 60.689,-244.805 60.8,-244.749 
		60.911,-244.639 61.021,-244.639 61.13,-244.529 61.241,-244.473 61.352,-244.473 61.518,-244.418 61.848,-244.418 
		61.958,-244.473 62.124,-244.473 62.18,-244.529 62.29,-244.584 62.455,-244.639 62.62,-244.805 62.676,-244.915 62.786,-244.97 
		62.842,-245.081 62.896,-245.246 	"/>
	<text transform="matrix(1 0 0 -1 114.8193 -187.248)" font-family="'Tahoma'" font-size="12.1353">412CT</text>
	
		<line fill="none" stroke="#1A171B" stroke-width="0.2" stroke-miterlimit="6.92" x1="114.747" y1="-189.478" x2="61.683" y2="-245.797"/>
	
		<line fill="none" stroke="#000000" stroke-width="0.25" stroke-linecap="round" stroke-linejoin="round" stroke-miterlimit="3" x1="-83.773" y1="44.189" x2="-130.715" y2="98.082"/>
	<polygon points="-82.34,44.024 -82.395,43.858 -82.45,43.804 -82.505,43.638 -82.505,43.527 -82.615,43.473 -82.726,43.252 
		-82.836,43.142 -82.946,43.086 -83.001,42.976 -83.167,42.921 -83.277,42.866 -83.498,42.866 -83.663,42.811 -83.885,42.811 
		-83.995,42.866 -84.27,42.866 -84.325,42.921 -84.436,42.976 -84.602,43.086 -84.656,43.142 -84.767,43.197 -84.821,43.308 
		-84.932,43.418 -84.987,43.527 -84.987,43.638 -85.042,43.804 -85.098,43.858 -85.098,44.521 -84.987,44.741 -84.987,44.852 
		-84.877,44.962 -84.821,45.072 -84.656,45.238 -84.546,45.293 -84.436,45.403 -84.215,45.514 -83.333,45.514 -83.001,45.349 
		-82.891,45.238 -82.781,45.183 -82.671,45.072 -82.671,44.962 -82.505,44.797 -82.45,44.631 -82.395,44.521 -82.395,44.41 
		-82.34,44.3 	"/>
	<text transform="matrix(1 0 0 -1 -149.0801 106.502)" font-family="'Tahoma'" font-size="12.1353">412CT</text>
</symbol>
<symbol  id="_x34_12DT" viewBox="-37.68 -40.883 75.36 81.765">
	<g id="Ebene_3_5_">
		<path fill="#CCCCCC" d="M-34.506,40.632h23.663c0.811,0,1.489-0.275,2.041-0.827c0.588-0.553,0.883-1.231,0.883-2.04V24.249
			c0-0.81-0.295-1.488-0.883-2.041c-0.552-0.552-1.23-0.826-2.041-0.826h-23.663c-0.81,0-1.49,0.274-2.041,0.826
			c-0.589,0.553-0.883,1.231-0.883,2.041v13.516c0,0.809,0.294,1.487,0.883,2.04C-35.996,40.356-35.315,40.632-34.506,40.632z"/>
		<path fill="none" stroke="#1A171B" stroke-width="0.5" stroke-miterlimit="6.92" d="M-34.506,40.632h23.663
			c0.811,0,1.489-0.275,2.041-0.827c0.588-0.553,0.883-1.231,0.883-2.04V24.249c0-0.81-0.295-1.488-0.883-2.041
			c-0.552-0.552-1.23-0.826-2.041-0.826h-23.663c-0.81,0-1.49,0.274-2.041,0.826c-0.589,0.553-0.883,1.231-0.883,2.041v13.516
			c0,0.809,0.294,1.487,0.883,2.04C-35.996,40.356-35.315,40.632-34.506,40.632z"/>
	</g>
	
		<line fill="none" stroke="#000000" stroke-width="0.25" stroke-linecap="round" stroke-linejoin="round" stroke-miterlimit="3" x1="3.211" y1="-27.396" x2="-23.709" y2="30.744"/>
	<text transform="matrix(1 0 0 -1 2.7559 -38.2637)" font-family="'Tahoma'" font-size="12.1353">412DT</text>
	<polygon points="-24.701,31.737 -24.59,31.793 -24.479,31.902 -24.424,31.902 -24.258,31.958 -23.928,32.123 -23.541,32.123 
		-23.432,32.068 -23.321,32.068 -23.156,31.958 -23.101,31.958 -22.936,31.902 -22.826,31.848 -22.77,31.737 -22.604,31.571 
		-22.549,31.461 -22.438,31.296 -22.438,31.075 -22.384,30.91 -22.384,30.469 -22.438,30.303 -22.438,30.248 -22.494,30.138 
		-22.549,29.972 -22.66,29.917 -22.77,29.696 -23.211,29.476 -23.375,29.42 -23.432,29.365 -23.983,29.365 -24.645,29.696 
		-24.754,29.807 -24.811,29.917 -24.867,29.972 -24.92,30.082 -25.031,30.248 -25.031,30.303 -25.086,30.469 -25.086,31.075 
		-25.031,31.241 -24.977,31.296 -24.92,31.406 -24.867,31.571 -24.754,31.571 	"/>
</symbol>
<symbol  id="_x34_12ET" viewBox="-25.838 -33.254 51.675 66.507">
	<g id="Ebene_3_8_">
		<path fill="#CCCCCC" d="M-23.388-3.104h7.55c0.6,0,1.117-0.217,1.55-0.65c0.434-0.434,0.65-0.934,0.65-1.5v-25.6
			c0-0.6-0.217-1.1-0.65-1.5c-0.433-0.433-0.95-0.65-1.55-0.65h-7.55c-0.601,0-1.117,0.218-1.55,0.65c-0.434,0.4-0.65,0.9-0.65,1.5
			v25.6c0,0.566,0.217,1.066,0.65,1.5C-24.505-3.32-23.988-3.104-23.388-3.104z"/>
		<path fill="none" stroke="#1A171B" stroke-width="0.5" stroke-miterlimit="6.92" d="M-23.388-3.104h7.55
			c0.6,0,1.117-0.217,1.55-0.65c0.434-0.434,0.65-0.934,0.65-1.5v-25.6c0-0.6-0.217-1.1-0.65-1.5c-0.433-0.433-0.95-0.65-1.55-0.65
			h-7.55c-0.601,0-1.117,0.218-1.55,0.65c-0.434,0.4-0.65,0.9-0.65,1.5v25.6c0,0.566,0.217,1.066,0.65,1.5
			C-24.505-3.32-23.988-3.104-23.388-3.104z"/>
	</g>
	<polygon points="-18.951,-15.665 -18.841,-15.721 -18.676,-15.775 -18.454,-15.886 -18.289,-16.052 -18.179,-16.106 
		-18.124,-16.217 -18.014,-16.327 -18.014,-16.438 -17.958,-16.603 -17.902,-16.658 -17.902,-16.934 -17.848,-17.044 
		-17.902,-17.209 -17.902,-17.431 -18.068,-17.761 -18.179,-17.871 -18.234,-17.982 -18.4,-18.147 -18.51,-18.203 -18.62,-18.312 
		-18.841,-18.312 -18.951,-18.368 -19.115,-18.423 -19.337,-18.423 -19.503,-18.368 -19.613,-18.312 -19.833,-18.312 
		-19.943,-18.203 -20.055,-18.147 -20.165,-18.037 -20.275,-17.982 -20.275,-17.927 -20.385,-17.761 -20.441,-17.651 
		-20.551,-17.542 -20.551,-17.431 -20.607,-17.32 -20.607,-16.658 -20.551,-16.603 -20.495,-16.438 -20.441,-16.327 
		-20.275,-16.162 -20.22,-16.052 -20.109,-15.996 -19.943,-15.83 -19.777,-15.775 -19.559,-15.665 	"/>
	<text transform="matrix(1 0 0 -1 -7.9443 22.7734)" font-family="'Tahoma'" font-size="12.1353">412ET</text>
	
		<line fill="none" stroke="#1A171B" stroke-width="0.2" stroke-miterlimit="6.92" x1="-9.356" y1="16.879" x2="-18.624" y2="-16.217"/>
</symbol>
<symbol  id="_x34_13AT" viewBox="-46.566 -38.62 93.132 77.241">
	<path fill="#CCCCCC" d="M-32.994,37.571c0.5-0.5,0.75-1.117,0.75-1.85v-24.5c0-0.733-0.25-1.367-0.75-1.9
		c-0.5-0.5-1.1-0.75-1.8-0.75h-8.851c-0.699,0-1.315,0.25-1.85,0.75c-0.533,0.533-0.8,1.167-0.8,1.9v24.5
		c0,0.732,0.267,1.35,0.8,1.85c0.5,0.534,1.117,0.8,1.85,0.8h8.851C-34.061,38.371-33.461,38.104-32.994,37.571z"/>
	
		<line fill="none" stroke="#000000" stroke-width="0.55" stroke-linecap="round" stroke-linejoin="round" stroke-miterlimit="3" x1="-46.291" y1="36.27" x2="-46.291" y2="10.564"/>
	<path fill="none" stroke="#1A171B" stroke-width="0.5" stroke-miterlimit="6.92" d="M-43.645,38.371h8.851
		c0.733,0,1.333-0.267,1.8-0.8c0.5-0.5,0.75-1.117,0.75-1.85v-24.5c0-0.733-0.25-1.367-0.75-1.9c-0.5-0.5-1.1-0.75-1.8-0.75h-8.851
		c-0.699,0-1.315,0.25-1.85,0.75c-0.533,0.533-0.8,1.167-0.8,1.9v24.5c0,0.732,0.267,1.35,0.8,1.85
		C-44.994,38.104-44.377,38.371-43.645,38.371z"/>
	<text transform="matrix(1 0 0 -1 12.999 -36.001)" font-family="'Tahoma'" font-size="12.1353">413AT</text>
	<polygon points="-38.984,25.117 -38.766,25.007 -38.654,24.896 -38.545,24.841 -38.379,24.676 -38.324,24.565 -38.158,24.4 
		-38.158,24.234 -38.104,24.124 -38.104,24.014 -38.048,23.849 -38.048,23.794 -38.104,23.628 -38.104,23.407 -38.158,23.242 
		-38.213,23.132 -38.27,23.076 -38.324,22.911 -38.436,22.801 -38.488,22.801 -38.6,22.69 -38.71,22.635 -38.82,22.525 
		-38.932,22.47 -39.15,22.47 -39.262,22.414 -39.648,22.414 -39.814,22.47 -39.868,22.47 -40.033,22.525 -40.145,22.58 
		-40.365,22.801 -40.477,22.801 -40.477,22.911 -40.585,23.076 -40.641,23.132 -40.695,23.242 -40.751,23.407 -40.807,23.462 
		-40.807,24.124 -40.751,24.234 -40.695,24.4 -40.529,24.565 -40.42,24.786 -40.199,24.896 -40.089,25.007 -39.868,25.117 	"/>
	
		<line fill="none" stroke="#1A171B" stroke-width="0.2" stroke-miterlimit="6.92" x1="11.266" y1="-25.188" x2="-39.427" y2="23.794"/>
</symbol>
<symbol  id="_x34_13BL" viewBox="-57.119 -44.324 115.237 86.647">
	<g id="Ebene_3_2_">
		<path fill="#CCCCCC" d="M-56.867-34.366c6.141,0.221,12.024,0.681,17.65,1.379v-6.619h-6.288l-0.056-4.468h-6.067l-0.056,4.468
			l-5.186,0.056v5.185H-56.867z"/>
		<path fill="none" stroke="#1A171B" stroke-width="0.5" stroke-miterlimit="6.92" d="M-56.867-34.366
			c6.141,0.221,12.024,0.681,17.65,1.379v-6.619h-6.288l-0.056-4.468h-6.067l-0.056,4.468l-5.186,0.056v5.185H-56.867z"/>
	</g>
	<polygon points="-49.238,-36.483 -49.139,-36.483 -48.988,-36.433 -48.839,-36.433 -48.738,-36.483 -48.639,-36.483 
		-48.539,-36.533 -48.389,-36.533 -48.189,-36.633 -47.988,-36.883 -47.839,-36.883 -47.789,-36.983 -47.738,-37.133 
		-47.689,-37.183 -47.639,-37.383 -47.589,-37.483 -47.589,-37.583 -47.539,-37.683 -47.539,-37.983 -47.589,-38.083 
		-47.589,-38.183 -47.689,-38.283 -47.689,-38.483 -47.789,-38.533 -47.889,-38.733 -48.039,-38.833 -48.139,-38.883 
		-48.289,-39.083 -48.439,-39.133 -48.589,-39.133 -48.689,-39.183 -49.189,-39.183 -49.289,-39.133 -49.439,-39.133 
		-49.789,-38.883 -49.939,-38.733 -49.988,-38.633 -50.189,-38.483 -50.189,-38.283 -50.289,-38.083 -50.289,-37.483 
		-50.238,-37.383 -50.189,-37.183 -50.189,-37.133 -50.039,-37.033 -49.988,-36.933 -49.889,-36.883 -49.839,-36.733 
		-49.738,-36.633 -49.488,-36.533 -49.339,-36.533 	"/>
	<text transform="matrix(1 0 0 -1 25.0547 31.8438)" font-family="'Tahoma'" font-size="12.1353">413BL</text>
	
		<line fill="none" stroke="#1A171B" stroke-width="0.2" stroke-miterlimit="6.92" x1="37.309" y1="25.913" x2="-48.908" y2="-37.798"/>
</symbol>
<symbol  id="_x34_13BR" viewBox="-25.35 -53.728 50.701 107.456">
	<g id="Ebene_3_23_">
		<path fill="#CCCCCC" d="M-12.8-53.628h-6.15l0.05,4.449l-6.35,0.101v6.55c6.867-0.9,12.767-1.367,17.7-1.4l-0.101-5.199
			l-5.149-0.051V-53.628z"/>
		<path fill="none" stroke="#000000" stroke-width="0.2" stroke-miterlimit="6.92" d="M-12.8-53.628h-6.15l0.05,4.449l-6.35,0.101
			v6.55c6.867-0.9,12.767-1.367,17.7-1.4l-0.101-5.199l-5.149-0.051V-53.628z"/>
	</g>
	
		<line fill="none" stroke="#000000" stroke-width="0.25" stroke-linecap="round" stroke-linejoin="round" stroke-miterlimit="3" x1="-15.325" y1="-47.357" x2="7.4" y2="35.328"/>
	<polygon points="-14.443,-46.254 -14.333,-46.364 -14.277,-46.476 -14.167,-46.585 -14.167,-46.641 -14.057,-46.806 
		-14.057,-46.916 -13.946,-47.137 -13.946,-47.632 -14.112,-47.964 -14.167,-48.13 -14.223,-48.185 -14.277,-48.295 
		-14.388,-48.351 -14.553,-48.517 -14.719,-48.57 -14.939,-48.682 -15.104,-48.736 -15.547,-48.736 -15.712,-48.682 
		-15.822,-48.626 -15.877,-48.57 -16.043,-48.517 -16.152,-48.517 -16.208,-48.405 -16.482,-48.13 -16.482,-47.964 -16.648,-47.798 
		-16.648,-47.632 -16.705,-47.522 -16.705,-47.246 -16.648,-47.192 -16.648,-47.026 -16.539,-46.806 -16.482,-46.641 
		-16.482,-46.585 -16.152,-46.254 -16.098,-46.254 -15.986,-46.144 -15.822,-46.089 -15.768,-46.033 -15.602,-46.033 
		-15.491,-45.979 -15.16,-45.979 -14.995,-46.033 -14.885,-46.033 -14.663,-46.144 -14.553,-46.254 	"/>
	<text transform="matrix(1 0 0 -1 -9.4062 43.249)" font-family="'Tahoma'" font-size="12.1353">413BR</text>
</symbol>
<symbol  id="_x34_13CR" viewBox="-43.655 -42.756 87.311 85.512">
	<g id="Ebene_3_28_">
		<polygon fill="#CCCCCC" points="38.362,33.601 38.362,42.481 43.38,42.481 43.38,33.601 		"/>
		
			<polygon fill="none" stroke="#000000" stroke-width="0.55" stroke-linecap="round" stroke-linejoin="round" stroke-miterlimit="3" points="
			38.362,33.601 43.38,33.601 43.38,42.481 38.362,42.481 		"/>
	</g>
	
		<line fill="none" stroke="#000000" stroke-width="0.3" stroke-linecap="round" stroke-linejoin="round" stroke-miterlimit="3" x1="41.201" y1="37.699" x2="-19.799" y2="-23.251"/>
	<polygon fill="none" points="-4.325,-42.756 -43.655,-42.756 -43.655,-24.001 -4.325,-24.001 	"/>
	<text transform="matrix(1 0 0 -1 -41.6553 -35.2236)" font-family="'Tahoma'" font-size="12.1353">413CR</text>
	<polygon points="42.241,38.041 42.351,37.821 42.351,37.601 42.406,37.436 42.406,37.214 42.351,37.049 42.351,36.828 
		42.241,36.718 42.129,36.497 41.963,36.331 41.854,36.277 41.688,36.111 41.357,36.001 40.696,36.001 40.531,36.057 40.419,36.111 
		40.365,36.166 40.2,36.222 40.034,36.388 39.979,36.497 39.812,36.662 39.704,36.828 39.704,37.214 39.647,37.27 39.647,37.436 
		39.704,37.601 39.704,37.821 39.758,37.932 39.812,37.986 39.922,38.152 39.979,38.263 40.034,38.317 40.145,38.373 40.254,38.483 
		40.584,38.648 40.696,38.648 40.806,38.703 41.191,38.703 41.357,38.648 41.413,38.648 41.579,38.593 41.91,38.428 42.02,38.317 
		42.02,38.263 	"/>
</symbol>
<symbol  id="_x34_13DL" viewBox="-7.645 -45.064 40.716 87.129">
	
		<line fill="none" stroke="#000000" stroke-width="0.55" stroke-linecap="round" stroke-linejoin="round" stroke-miterlimit="3" x1="6.5" y1="-44.789" x2="6.5" y2="-34.75"/>
	<g id="Ebene_3_10_">
		<path fill="#CCCCCC" d="M6.506-44.792h-13.9v11.55c4.633-0.9,9.268-1.4,13.9-1.5V-44.792z"/>
		<path fill="none" stroke="#1A171B" stroke-width="0.5" stroke-miterlimit="6.92" d="M6.506-44.792h-13.9v11.55
			c4.633-0.9,9.268-1.4,13.9-1.5V-44.792z"/>
	</g>
	
		<line fill="none" stroke="#000000" stroke-width="0.25" stroke-linecap="round" stroke-linejoin="round" stroke-miterlimit="3" x1="-1.342" y1="-39.628" x2="16.09" y2="25.131"/>
	<polygon points="-0.237,-38.855 -0.128,-38.911 -0.072,-39.021 -0.072,-39.187 -0.018,-39.241 -0.018,-39.407 0.038,-39.518 
		0.038,-39.793 -0.018,-39.849 -0.072,-40.014 -0.072,-40.234 -0.182,-40.345 -0.237,-40.51 -0.348,-40.51 -0.403,-40.676 
		-0.514,-40.73 -0.624,-40.842 -0.734,-40.842 -0.846,-40.896 -1.01,-40.952 -1.064,-40.952 -1.23,-41.007 -1.451,-41.007 
		-1.617,-40.952 -1.672,-40.952 -1.838,-40.896 -1.948,-40.842 -2.059,-40.842 -2.168,-40.73 -2.279,-40.676 -2.334,-40.565 
		-2.444,-40.51 -2.5,-40.4 -2.61,-40.29 -2.61,-40.181 -2.665,-40.014 -2.665,-39.187 -2.61,-39.076 -2.555,-38.911 -2.444,-38.855 
		-2.334,-38.635 -2.223,-38.524 -2.113,-38.524 -2.003,-38.414 -1.782,-38.304 -1.672,-38.304 -1.561,-38.249 -1.01,-38.249 
		-0.789,-38.359 -0.734,-38.414 -0.569,-38.47 -0.459,-38.524 -0.348,-38.635 	"/>
	<text transform="matrix(1 0 0 -1 -1.0713 31.585)" font-family="'Tahoma'" font-size="12.1353">413DL</text>
</symbol>
<symbol  id="_x34_13DR" viewBox="-43.139 -53.653 86.278 107.307">
	<g id="Ebene_3_24_">
		<path fill="#CCCCCC" d="M-28.938-41.804l0.149-11.6h-14.1v10C-37.656-43.237-33.006-42.704-28.938-41.804z"/>
		<path fill="none" stroke="#1A171B" stroke-width="0.5" stroke-miterlimit="6.92" d="M-28.938-41.804l0.149-11.6h-14.1v10
			C-37.656-43.237-33.006-42.704-28.938-41.804z"/>
	</g>
	
		<line fill="none" stroke="#000000" stroke-width="0.25" stroke-linecap="round" stroke-linejoin="round" stroke-miterlimit="3" x1="-35.466" y1="-48.318" x2="22.508" y2="34.754"/>
	<polygon points="-36.127,-47.104 -36.018,-47.051 -35.852,-46.995 -35.797,-46.995 -35.631,-46.939 -35.189,-46.939 
		-34.859,-47.051 -34.804,-47.104 -34.582,-47.216 -34.527,-47.326 -34.418,-47.437 -34.308,-47.492 -34.197,-47.712 
		-34.197,-47.821 -34.142,-47.933 -34.087,-48.098 -34.087,-48.54 -34.142,-48.705 -34.197,-48.815 -34.197,-48.926 
		-34.252,-49.036 -34.363,-49.146 -34.473,-49.201 -34.527,-49.367 -34.638,-49.422 -34.748,-49.422 -34.859,-49.532 
		-35.078,-49.643 -35.189,-49.643 -35.3,-49.697 -35.521,-49.697 -35.687,-49.643 -35.852,-49.643 -35.908,-49.588 -36.072,-49.532 
		-36.127,-49.477 -36.349,-49.367 -36.457,-49.257 -36.514,-49.146 -36.568,-49.092 -36.68,-48.926 -36.789,-48.705 
		-36.789,-47.987 -36.734,-47.821 -36.734,-47.767 -36.623,-47.602 -36.568,-47.492 -36.457,-47.437 -36.457,-47.326 
		-36.293,-47.216 -36.183,-47.161 	"/>
	<text transform="matrix(1 0 0 -1 7.3047 43.1738)" font-family="'Tahoma'" font-size="12.1353">413DR</text>
</symbol>
<symbol  id="_x34_13EL" viewBox="-42.157 -50.021 88.314 97.042">
	
		<polygon fill="none" stroke="#000000" stroke-width="0.55" stroke-linecap="round" stroke-linejoin="round" stroke-miterlimit="3" points="
		-33.107,38.57 -41.657,38.57 -41.657,46.721 -33.107,46.721 	"/>
	<g id="Ebene_3_16_">
		<polygon fill="#CCCCCC" points="-33.357,46.771 -33.357,38.62 -41.907,38.62 -41.907,46.771 		"/>
		<polygon fill="none" stroke="#1A171B" stroke-width="0.5" stroke-miterlimit="6.92" points="-33.357,46.771 -41.907,46.771 
			-41.907,38.62 -33.357,38.62 		"/>
	</g>
	
		<line fill="none" stroke="#000000" stroke-width="0.25" stroke-linecap="round" stroke-linejoin="round" stroke-miterlimit="3" x1="27.502" y1="-34.508" x2="-37.863" y2="42.771"/>
	<text transform="matrix(1 0 0 -1 13.4365 -47.4023)" font-family="'Tahoma'" font-size="12.1353">413EL</text>
	<polygon points="-38.817,43.701 -38.651,43.867 -38.541,43.923 -38.43,44.032 -38.1,44.198 -37.493,44.198 -37.327,44.143 
		-37.106,44.032 -36.997,43.923 -36.887,43.867 -36.555,43.536 -36.555,43.426 -36.5,43.261 -36.445,43.205 -36.389,43.039 
		-36.389,42.653 -36.445,42.543 -36.445,42.433 -36.5,42.268 -36.555,42.212 -36.555,42.102 -36.666,41.992 -36.721,41.882 
		-36.887,41.826 -36.941,41.716 -37.053,41.605 -37.162,41.605 -37.217,41.55 -37.383,41.495 -37.549,41.495 -37.604,41.44 
		-37.879,41.44 -37.989,41.495 -38.155,41.495 -38.211,41.55 -38.377,41.605 -38.485,41.605 -38.541,41.716 -38.707,41.771 
		-38.762,41.882 -38.872,41.937 -38.928,42.047 -38.982,42.212 -39.037,42.268 -39.094,42.378 -39.094,42.543 -39.147,42.653 
		-39.147,43.039 -39.094,43.15 -39.094,43.261 -39.037,43.371 -38.928,43.536 -38.872,43.591 	"/>
</symbol>
<symbol  id="_x34_13ER" viewBox="-18.175 -42.554 36.349 85.108">
	<g id="Ebene_3_19_">
		<polygon fill="#CCCCCC" points="9.524,42.454 18.074,42.454 18.074,34.29 9.524,34.29 		"/>
		<polygon fill="none" stroke="#000000" stroke-width="0.2" stroke-miterlimit="6.92" points="9.524,42.454 9.524,34.29 
			18.074,34.29 18.074,42.454 		"/>
	</g>
	
		<line fill="none" stroke="#000000" stroke-width="0.25" stroke-linecap="round" stroke-linejoin="round" stroke-miterlimit="3" x1="1.489" y1="-30.512" x2="12.963" y2="37.392"/>
	<text transform="matrix(1 0 0 -1 -18.1748 -39.9346)" font-family="'Tahoma'" font-size="12.1353">413ER</text>
	<polygon points="14.422,39.28 14.532,39.061 14.532,38.84 14.587,38.675 14.587,38.453 14.532,38.288 14.532,38.067 14.422,37.957 
		14.311,37.736 14.145,37.57 14.035,37.517 13.87,37.351 13.539,37.24 12.877,37.24 12.712,37.296 12.601,37.351 12.546,37.405 
		12.381,37.461 12.215,37.627 12.16,37.736 11.994,37.901 11.885,38.067 11.885,38.453 11.829,38.509 11.829,38.675 11.885,38.84 
		11.885,39.061 11.939,39.171 11.994,39.226 12.104,39.392 12.16,39.502 12.215,39.557 12.326,39.612 12.436,39.723 12.766,39.888 
		12.877,39.888 12.987,39.942 13.373,39.942 13.539,39.888 13.594,39.888 13.76,39.832 14.091,39.667 14.201,39.557 14.201,39.502 	
		"/>
</symbol>
<symbol  id="_x34_14AL" viewBox="-53.02 -19.903 106.039 39.804">
	<g id="Ebene_3_22_">
		<path fill="#CCCCCC" d="M-52.77-11.667v31.275l41.536-6.619l-1.601-9.818c0.479-2.979,2.317-5.864,5.517-8.659
			c2.538-2.17,6.509-4.708,11.915-7.612l0.331-6.509C-14.157-16.706-33.39-14.058-52.77-11.667z"/>
		<path fill="none" stroke="#1A171B" stroke-width="0.5" stroke-miterlimit="6.92" d="M-52.77-11.667
			c19.379-2.391,38.612-5.039,57.698-7.942l-0.331,6.509c-5.406,2.904-9.377,5.442-11.915,7.612
			c-3.199,2.795-5.038,5.682-5.517,8.659l1.601,9.818l-41.536,6.619V-11.667z"/>
	</g>
	<polygon points="-21.431,-2.467 -21.265,-2.522 -20.823,-2.742 -20.769,-2.854 -20.493,-3.129 -20.493,-3.239 -20.438,-3.35 
		-20.383,-3.516 -20.383,-3.626 -20.327,-3.735 -20.327,-4.012 -20.383,-4.122 -20.383,-4.232 -20.603,-4.674 -20.714,-4.785 
		-20.823,-4.839 -20.879,-4.949 -21.319,-5.17 -21.485,-5.225 -21.928,-5.225 -22.093,-5.17 -22.147,-5.114 -22.313,-5.06 
		-22.424,-5.005 -22.479,-4.949 -22.59,-4.895 -22.865,-4.617 -22.92,-4.453 -22.975,-4.343 -23.03,-4.287 -23.086,-4.122 
		-23.086,-4.012 -23.141,-3.901 -23.086,-3.735 -23.086,-3.516 -23.03,-3.35 -22.975,-3.295 -22.92,-3.129 -22.755,-2.964 
		-22.699,-2.854 -22.534,-2.742 -22.479,-2.688 -22.038,-2.467 	"/>
	<text transform="matrix(1 0 0 -1 19.8311 -0.2119)" font-family="'Tahoma'" font-size="12.1353">414AL</text>
	
		<line fill="none" stroke="#1A171B" stroke-width="0.2" stroke-miterlimit="6.92" x1="18.064" y1="-0.206" x2="-21.706" y2="-3.846"/>
</symbol>
<symbol  id="_x34_14AR" viewBox="-55.479 -19.918 110.957 39.836">
	<g id="Ebene_3_15_">
		<path fill="#CCCCCC" d="M13.678,12.975l41.55,6.65v-31.3c-19.367-2.4-38.601-5.05-57.7-7.95l0.35,6.5
			c5.4,2.933,9.367,5.483,11.9,7.65c3.233,2.767,5.083,5.649,5.55,8.649L13.678,12.975z"/>
		<path fill="none" stroke="#1A171B" stroke-width="0.5" stroke-miterlimit="6.92" d="M13.678,12.975l41.55,6.65v-31.3
			c-19.367-2.4-38.601-5.05-57.7-7.95l0.35,6.5c5.4,2.933,9.367,5.483,11.9,7.65c3.233,2.767,5.083,5.649,5.55,8.649L13.678,12.975z
			"/>
	</g>
	
		<line fill="none" stroke="#000000" stroke-width="0.25" stroke-linecap="round" stroke-linejoin="round" stroke-miterlimit="3" x1="27.236" y1="0.42" x2="-10.273" y2="-0.132"/>
	<polygon points="26.794,1.688 27.016,1.799 27.401,1.799 27.623,1.688 27.733,1.688 27.898,1.578 27.953,1.578 28.063,1.468 
		28.174,1.413 28.229,1.302 28.339,1.247 28.395,1.082 28.45,0.971 28.504,0.917 28.56,0.75 28.56,-0.021 28.504,-0.077 
		28.45,-0.242 28.395,-0.353 28.285,-0.408 28.174,-0.628 28.008,-0.684 27.898,-0.738 27.843,-0.794 27.677,-0.904 27.567,-0.904 
		27.457,-0.959 26.96,-0.959 26.85,-0.904 26.684,-0.904 26.519,-0.738 26.409,-0.738 26.299,-0.628 26.244,-0.518 26.131,-0.408 
		26.022,-0.353 25.913,-0.132 25.913,-0.021 25.857,0.144 25.857,0.585 25.913,0.75 25.913,0.971 26.022,1.082 26.078,1.192 
		26.188,1.302 26.244,1.413 26.299,1.468 26.464,1.578 26.574,1.578 26.629,1.688 	"/>
	<text transform="matrix(1 0 0 -1 -55.4785 0.3018)" font-family="'Tahoma'" font-size="12.1353">414AR</text>
</symbol>
<symbol  id="_x34_14AT" viewBox="-128.155 -280.141 275.893 556.284">
	<g id="Ebene_3_25_">
		<path fill="#CCCCCC" d="M64.541,255.591h44.019c4.635-0.405,10.333-1.361,17.101-2.869l-0.056-42.143
			c-6.361-1.508-12.043-2.5-17.044-2.979h-44.02V255.591z"/>
		<path fill="none" stroke="#1A171B" stroke-width="0.5" stroke-miterlimit="6.92" d="M64.541,255.591v-47.99h44.019
			c5.001,0.479,10.684,1.472,17.044,2.979l0.056,42.143c-6.768,1.508-12.466,2.464-17.101,2.869L64.541,255.591L64.541,255.591z"/>
	</g>
	<g>
		<polygon fill="#CCCCCC" points="64.545,44.536 68.195,44.436 113.045,38.936 113.045,7.636 64.545,12.736 		"/>
		<polygon fill="none" stroke="#1A171B" stroke-width="0.5" stroke-miterlimit="6.92" points="64.545,44.536 64.545,12.736 
			113.045,7.636 113.045,38.936 68.195,44.436 		"/>
	</g>
	<g>
		<polygon fill="#CCCCCC" points="-79.405,-274.764 -127.905,-279.864 -127.905,-248.565 -83.055,-243.065 -79.405,-242.963 		"/>
		<polygon fill="none" stroke="#1A171B" stroke-width="0.5" stroke-miterlimit="6.92" points="-79.405,-274.764 -127.905,-279.864 
			-127.905,-248.565 -83.055,-243.065 -79.405,-242.963 		"/>
	</g>
	<polygon points="94.281,235.399 94.501,235.289 94.667,235.234 94.777,235.234 94.832,235.124 95.108,234.848 95.163,234.737 
		95.219,234.572 95.273,234.518 95.328,234.407 95.328,234.241 95.384,234.131 95.384,233.91 95.328,233.801 95.328,233.635 
		95.273,233.579 95.163,233.414 95.108,233.304 95.108,233.193 94.998,233.139 94.888,233.028 94.777,232.973 94.611,232.807 
		94.446,232.752 94.392,232.697 94.226,232.697 94.115,232.642 93.84,232.642 93.729,232.697 93.619,232.697 93.453,232.752 
		93.397,232.807 93.288,232.862 93.122,232.973 93.122,233.028 92.957,233.083 92.901,233.193 92.791,233.304 92.791,233.414 
		92.626,233.745 92.626,233.91 92.57,233.966 92.57,234.131 92.626,234.241 92.626,234.352 92.681,234.518 92.736,234.572 
		92.791,234.737 92.847,234.848 92.957,234.903 93.013,235.014 93.178,235.18 93.343,235.234 93.453,235.289 93.509,235.345 
		93.674,235.399 	"/>
	
		<line fill="none" stroke="#1A171B" stroke-width="0.2" stroke-miterlimit="6.92" x1="128.094" y1="261.271" x2="94.832" y2="235.124"/>
	<text transform="matrix(1 0 0 -1 114.1704 265.6631)" font-family="'Tahoma'" font-size="12.1353">414AT</text>
</symbol>
<symbol  id="_x34_14BB" viewBox="-214.754 -159.129 429.508 318.257">
	<g id="Ebene_3_14_">
		<path fill="#CCCCCC" d="M-214.5-133.501l27.249,4.579l2.647-29.896c-9.892,1.984-18.02,3.843-24.38,5.571
			c-3.272,0.771-5.039,3.604-5.296,8.494L-214.5-133.501z"/>
		<path fill="none" stroke="#1A171B" stroke-width="0.5" stroke-miterlimit="6.92" d="M-214.5-133.501l27.249,4.579l2.647-29.896
			c-9.892,1.984-18.02,3.843-24.38,5.571c-3.272,0.771-5.039,3.604-5.296,8.494L-214.5-133.501z"/>
	</g>
	<g>
		<path fill="#CCCCCC" d="M201.308,154.258l-0.222-11.253c-0.257-4.892-2.022-7.723-5.295-8.494
			c-6.361-1.767-14.488-3.622-24.381-5.571l2.647,29.897L201.308,154.258z"/>
		<path fill="none" stroke="#1A171B" stroke-width="0.5" stroke-miterlimit="6.92" d="M201.308,154.258l-27.25,4.579l-2.647-29.897
			c9.893,1.949,18.02,3.806,24.381,5.571c3.272,0.771,5.038,3.604,5.296,8.494L201.308,154.258z"/>
	</g>
	<polygon points="185.542,145.296 185.652,145.351 186.149,145.351 186.315,145.296 186.426,145.24 186.48,145.186 186.646,145.186 
		186.756,145.074 186.812,144.964 187.088,144.688 187.143,144.578 187.143,144.468 187.197,144.357 187.197,143.695 
		187.143,143.585 187.143,143.475 187.031,143.255 186.922,143.199 186.866,143.033 186.812,142.923 186.369,142.703 
		186.204,142.647 186.149,142.647 185.983,142.593 185.764,142.593 185.598,142.647 185.487,142.647 184.937,142.923 
		184.825,143.033 184.771,143.145 184.715,143.199 184.66,143.365 184.605,143.475 184.55,143.53 184.494,143.695 184.494,144.302 
		184.55,144.468 184.605,144.523 184.66,144.688 184.715,144.799 184.825,144.854 184.881,144.964 184.99,145.074 185.102,145.13 
		185.156,145.186 185.322,145.24 185.433,145.296 	"/>
	<text transform="matrix(1 0 0 -1 180.5762 97.9814)" font-family="'Tahoma'" font-size="12.1353">414BB</text>
	
		<line fill="none" stroke="#1A171B" stroke-width="0.2" stroke-miterlimit="6.92" x1="185.873" y1="143.972" x2="198.946" y2="108.89"/>
</symbol>
<symbol  id="_x34_14BL" viewBox="-55.205 -26.641 110.411 53.282">
	<g id="Ebene_3_12_">
		<polygon fill="#CCCCCC" points="-54.955,-8.709 -45.413,-9.923 -45.523,-26.36 -54.955,-25.257 		"/>
		<polygon fill="none" stroke="#1A171B" stroke-width="0.5" stroke-miterlimit="6.92" points="-54.955,-8.709 -45.413,-9.923 
			-45.523,-26.36 -54.955,-25.257 		"/>
	</g>
	<text transform="matrix(1 0 0 -1 22.1426 16.1611)" font-family="'Tahoma'" font-size="12.1353">414BL</text>
	
		<line fill="none" stroke="#1A171B" stroke-width="0.2" stroke-miterlimit="6.92" x1="20.376" y1="18.689" x2="-50.561" y2="-16.667"/>
	<polygon points="-49.919,-15.194 -49.753,-15.25 -49.312,-15.471 -49.258,-15.581 -48.98,-15.856 -48.98,-15.967 -48.926,-16.077 
		-48.871,-16.243 -48.871,-16.354 -48.814,-16.463 -48.814,-16.739 -48.871,-16.85 -48.871,-16.96 -49.092,-17.401 -49.201,-17.512 
		-49.312,-17.566 -49.367,-17.677 -49.809,-17.897 -49.975,-17.952 -50.415,-17.952 -50.581,-17.897 -50.637,-17.842 
		-50.803,-17.787 -50.911,-17.732 -50.967,-17.677 -51.077,-17.622 -51.354,-17.346 -51.408,-17.181 -51.463,-17.069 
		-51.518,-17.015 -51.574,-16.85 -51.574,-16.739 -51.629,-16.629 -51.574,-16.463 -51.574,-16.243 -51.518,-16.077 
		-51.463,-16.022 -51.408,-15.856 -51.243,-15.691 -51.188,-15.581 -51.021,-15.471 -50.967,-15.415 -50.526,-15.194 	"/>
</symbol>
<symbol  id="_x34_14BR" viewBox="-33.678 -31.094 70.356 57.188">
	<g id="Ebene_3_4_">
		<polygon fill="#CCCCCC" points="26.878,-14.312 36.428,-13.162 36.428,-29.662 26.928,-30.812 		"/>
		<polygon fill="none" stroke="#1A171B" stroke-width="0.5" stroke-miterlimit="6.92" points="26.878,-14.312 36.428,-13.162 
			36.428,-29.662 26.928,-30.812 		"/>
	</g>
	<text transform="matrix(1 0 0 -1 -33.6777 15.6152)" font-family="'Tahoma'" font-size="12.1353">414BR</text>
	
		<line fill="none" stroke="#1A171B" stroke-width="0.2" stroke-miterlimit="6.92" x1="-13.771" y1="9.838" x2="30.928" y2="-22.012"/>
	<polygon points="31.565,-20.612 31.675,-20.667 31.841,-20.722 31.896,-20.833 32.116,-20.943 32.171,-21.053 32.337,-21.219 
		32.393,-21.384 32.447,-21.495 32.447,-21.604 32.502,-21.715 32.502,-22.212 32.447,-22.322 32.447,-22.488 32.393,-22.542 
		32.281,-22.708 32.228,-22.818 32.171,-22.874 32.062,-22.929 32.006,-23.039 31.841,-23.149 31.786,-23.149 31.62,-23.204 
		31.399,-23.315 30.902,-23.315 30.683,-23.204 30.518,-23.149 30.461,-23.149 30.352,-23.094 30.24,-22.984 30.187,-22.874 
		30.075,-22.818 30.021,-22.708 29.911,-22.542 29.855,-22.488 29.855,-22.377 29.8,-22.212 29.8,-21.771 29.855,-21.604 
		29.855,-21.495 29.911,-21.384 29.965,-21.219 30.13,-21.053 30.187,-20.943 30.406,-20.833 30.571,-20.667 30.683,-20.612 
		30.848,-20.557 31.509,-20.557 	"/>
</symbol>
<symbol  id="_x34_14CR" viewBox="-17.446 -40.743 34.893 81.485">
	<g id="Ebene_3_17_">
		<polygon fill="#CCCCCC" points="-4.83,-12.887 10.669,-12.887 10.725,-15.093 15.744,-15.093 15.744,-38.426 -4.83,-40.467 		"/>
		<polygon fill="none" stroke="#1A171B" stroke-width="0.5" stroke-miterlimit="6.92" points="-4.83,-12.887 10.669,-12.887 
			10.725,-15.093 15.744,-15.093 15.744,-38.426 -4.83,-40.467 		"/>
	</g>
	<polygon points="4.646,-24.764 4.757,-24.82 4.923,-24.874 4.977,-24.985 5.198,-25.096 5.253,-25.206 5.419,-25.372 
		5.473,-25.537 5.529,-25.647 5.529,-25.757 5.584,-25.868 5.584,-26.364 5.529,-26.475 5.529,-26.64 5.473,-26.695 5.363,-26.86 
		5.308,-26.971 5.253,-27.026 5.142,-27.081 5.088,-27.191 4.923,-27.302 4.867,-27.302 4.701,-27.357 4.48,-27.467 3.984,-27.467 
		3.764,-27.357 3.598,-27.302 3.543,-27.302 3.432,-27.247 3.322,-27.136 3.267,-27.026 3.157,-26.971 3.101,-26.86 2.992,-26.695 
		2.936,-26.64 2.936,-26.529 2.882,-26.364 2.882,-25.923 2.936,-25.757 2.936,-25.647 2.992,-25.537 3.047,-25.372 3.212,-25.206 
		3.267,-25.096 3.488,-24.985 3.653,-24.82 3.764,-24.764 3.929,-24.709 4.591,-24.709 	"/>
	<text transform="matrix(1 0 0 -1 -17.4463 30.2627)" font-family="'Tahoma'" font-size="12.1353">414CR</text>
	<line fill="none" stroke="#1A171B" stroke-width="0.2" stroke-miterlimit="6.92" x1="2.33" y1="22.508" x2="4.261" y2="-26.088"/>
</symbol>
<symbol  id="_x34_15BL" viewBox="-72.241 -41.395 146.482 80.789">
	<g id="Ebene_3_26_">
		<polygon fill="#CCCCCC" points="37.337,-8.459 -8.392,-8.459 -8.392,-15.465 -71.99,-15.465 -71.771,32.801 -57.871,32.746 
			-57.871,39.145 -25.105,39.145 -24.995,37.27 -19.81,37.324 -19.755,32.856 -13.687,32.911 -13.632,37.324 -7.344,37.324 
			-7.344,39.145 37.337,39.145 		"/>
		<polygon fill="none" stroke="#1A171B" stroke-width="0.5" stroke-miterlimit="6.92" points="37.337,-8.459 -8.392,-8.459 
			-8.392,-15.465 -71.99,-15.465 -71.771,32.801 -57.871,32.746 -57.871,39.145 -25.105,39.145 -24.995,37.27 -19.81,37.324 
			-19.755,32.856 -13.687,32.911 -13.632,37.324 -7.344,37.324 -7.344,39.145 37.337,39.145 		"/>
	</g>
	<polygon points="17.524,14.128 17.69,14.294 17.801,14.35 17.911,14.459 18.242,14.625 18.849,14.625 19.015,14.569 19.235,14.459 
		19.345,14.35 19.455,14.294 19.787,13.963 19.787,13.853 19.842,13.688 19.896,13.632 19.952,13.466 19.952,13.08 19.896,12.97 
		19.896,12.859 19.842,12.694 19.787,12.639 19.787,12.528 19.676,12.419 19.621,12.309 19.455,12.253 19.4,12.143 19.29,12.032 
		19.181,12.032 19.125,11.977 18.959,11.922 18.793,11.922 18.738,11.867 18.463,11.867 18.353,11.922 18.187,11.922 18.132,11.977 
		17.966,12.032 17.856,12.032 17.801,12.143 17.635,12.197 17.58,12.309 17.47,12.363 17.414,12.474 17.359,12.639 17.306,12.694 
		17.249,12.805 17.249,12.97 17.194,13.08 17.194,13.466 17.249,13.577 17.249,13.688 17.306,13.798 17.414,13.963 17.47,14.018 	
		"/>
	<text transform="matrix(1 0 0 -1 41.1777 -38.7754)" font-family="'Tahoma'" font-size="12.1353">415BL</text>
	
		<line fill="none" stroke="#1A171B" stroke-width="0.2" stroke-miterlimit="6.92" x1="18.573" y1="13.246" x2="39.865" y2="-34.303"/>
</symbol>
<symbol  id="_x34_15CL" viewBox="-97.633 -40.898 197.265 78.797">
	<g id="Ebene_3_18_">
		<polygon fill="#CCCCCC" points="85.096,37.647 85.151,31.028 99.272,31.028 99.381,-17.071 36.057,-16.962 36.057,-10.012 
			-9.671,-10.012 -9.671,37.647 34.844,37.592 34.844,35.717 41.188,35.717 41.188,31.249 47.254,31.249 47.254,35.717 
			52.495,35.771 52.495,37.537 		"/>
		<polygon fill="none" stroke="#1A171B" stroke-width="0.5" stroke-miterlimit="6.92" points="85.096,37.647 52.495,37.537 
			52.495,35.771 47.254,35.717 47.254,31.249 41.188,31.249 41.188,35.717 34.844,35.717 34.844,37.592 -9.671,37.647 
			-9.671,-10.012 36.057,-10.012 36.057,-16.962 99.381,-17.071 99.272,31.028 85.151,31.028 		"/>
	</g>
	<polygon points="4.114,2.485 4.224,2.266 4.224,2.045 4.279,1.88 4.279,1.658 4.224,1.493 4.224,1.272 4.114,1.162 4.004,0.941 
		3.838,0.775 3.727,0.722 3.562,0.556 3.231,0.445 2.569,0.445 2.404,0.501 2.294,0.556 2.238,0.61 2.073,0.666 1.907,0.832 
		1.852,0.941 1.686,1.106 1.577,1.272 1.577,1.658 1.521,1.714 1.521,1.88 1.577,2.045 1.577,2.266 1.632,2.376 1.686,2.431 
		1.797,2.597 1.852,2.707 1.907,2.762 2.018,2.817 2.129,2.928 2.459,3.093 2.569,3.093 2.679,3.147 3.065,3.147 3.231,3.093 
		3.287,3.093 3.452,3.037 3.783,2.872 3.893,2.762 3.893,2.707 	"/>
	
		<line fill="none" stroke="#000000" stroke-width="0.3" stroke-linecap="round" stroke-linejoin="round" stroke-miterlimit="3" x1="2.679" y1="1.658" x2="-60.81" y2="-33.589"/>
	<text transform="matrix(1 0 0 -1 -97.6328 -38.2793)" font-family="'Tahoma'" font-size="12.1353">415CL</text>
</symbol>
<symbol  id="_x34_15CT" viewBox="-67.455 -192.496 134.91 384.993">
	<g id="Ebene_3_9_">
		<path fill="#CCCCCC" d="M8.801-102.904v8.2h10.601v-8.2H8.801z M-38.149,192.396v-8.201h-10.6v8.201H-38.149z"/>
		<path fill="none" stroke="#000000" stroke-width="0.2" stroke-miterlimit="6.92" d="M-38.149,192.396h-10.6v-8.201h10.6V192.396z
			 M8.801-102.904h10.601v8.2H8.801V-102.904z"/>
	</g>
	<text transform="matrix(1 0 0 -1 -67.4551 124.123)" font-family="'Tahoma'" font-size="12.1353">415CR</text>
	<text transform="matrix(1 0 0 -1 -66.8057 106.6729)" font-family="'Tahoma'" font-size="12.1353">415CT</text>
	
		<line fill="none" stroke="#1A171B" stroke-width="0.2" stroke-miterlimit="6.92" x1="-51.241" y1="138.6" x2="-43.243" y2="187.416"/>
	<polygon points="-44.109,188.877 -43.943,189.043 -43.833,189.1 -43.723,189.208 -43.391,189.374 -42.785,189.374 -42.619,189.318 
		-42.398,189.208 -42.289,189.1 -42.178,189.043 -41.846,188.712 -41.846,188.602 -41.792,188.438 -41.737,188.381 -41.682,188.215 
		-41.682,187.829 -41.737,187.719 -41.737,187.607 -41.792,187.443 -41.846,187.388 -41.846,187.277 -41.958,187.168 
		-42.012,187.059 -42.178,187.002 -42.233,186.893 -42.344,186.781 -42.454,186.781 -42.51,186.727 -42.676,186.671 
		-42.842,186.671 -42.895,186.615 -43.172,186.615 -43.281,186.671 -43.447,186.671 -43.502,186.727 -43.668,186.781 
		-43.777,186.781 -43.833,186.893 -43.999,186.945 -44.053,187.059 -44.164,187.111 -44.221,187.223 -44.274,187.388 
		-44.329,187.443 -44.385,187.554 -44.385,187.719 -44.439,187.829 -44.439,188.215 -44.385,188.326 -44.385,188.438 
		-44.329,188.547 -44.221,188.712 -44.164,188.768 	"/>
	
		<line fill="none" stroke="#000000" stroke-width="0.3" stroke-linecap="round" stroke-linejoin="round" stroke-miterlimit="3" x1="14.351" y1="-100.604" x2="49.501" y2="-162.404"/>
	<text transform="matrix(1 0 0 -1 32.5449 -175.4766)" font-family="'Tahoma'" font-size="12.1353">415CR</text>
	<text transform="matrix(1 0 0 -1 33.1943 -189.877)" font-family="'Tahoma'" font-size="12.1353">415CT</text>
	<polygon points="15.141,-98.562 15.251,-98.782 15.251,-99.003 15.306,-99.168 15.306,-99.39 15.251,-99.555 15.251,-99.775 
		15.141,-99.886 15.03,-100.106 14.864,-100.272 14.754,-100.327 14.589,-100.493 14.258,-100.603 13.596,-100.603 13.431,-100.547 
		13.321,-100.493 13.265,-100.438 13.1,-100.382 12.934,-100.217 12.879,-100.106 12.713,-99.941 12.604,-99.775 12.604,-99.39 
		12.548,-99.334 12.548,-99.168 12.604,-99.003 12.604,-98.782 12.657,-98.672 12.713,-98.617 12.823,-98.452 12.879,-98.341 
		12.934,-98.286 13.045,-98.23 13.155,-98.12 13.485,-97.955 13.596,-97.955 13.706,-97.9 14.092,-97.9 14.258,-97.955 
		14.313,-97.955 14.479,-98.01 14.81,-98.176 14.92,-98.286 14.92,-98.341 	"/>
</symbol>
<symbol  id="Symbol_1" viewBox="-72.241 -41.395 146.482 80.789">
	
		<use xlink:href="#_x34_15BL"  width="146.482" height="80.789" id="XMLID_12_" x="-72.241" y="-41.395" transform="matrix(1 0 0 1 0 0)" overflow="visible"/>
</symbol>
<symbol  id="lt_x5F_wi_x5F_lh" viewBox="-96.273 -16.743 185.548 33.485">
	
		<line fill="none" stroke="#1A171B" stroke-width="0.5" stroke-miterlimit="6.92" x1="-92.273" y1="12.691" x2="-47.468" y2="-9.501"/>
	<g id="Ebene_3_20_">
		<g>
			<path fill="#FFFF00" d="M-94.724,15.191c0.7,0.7,1.534,1.051,2.5,1.051c0.933,0,1.75-0.351,2.45-1.051
				c0.7-0.699,1.05-1.532,1.05-2.5c0-0.967-0.35-1.782-1.05-2.449c-0.7-0.733-1.518-1.101-2.45-1.101c-0.966,0-1.8,0.367-2.5,1.101
				c-0.7,0.667-1.05,1.482-1.05,2.449C-95.773,13.659-95.424,14.492-94.724,15.191z"/>
			<path fill="none" stroke="#2D2C2E" stroke-miterlimit="5" d="M-94.724,15.191c0.7,0.7,1.534,1.051,2.5,1.051
				c0.933,0,1.75-0.351,2.45-1.051c0.7-0.699,1.05-1.532,1.05-2.5c0-0.967-0.35-1.782-1.05-2.449c-0.7-0.733-1.518-1.101-2.45-1.101
				c-0.966,0-1.8,0.367-2.5,1.101c-0.7,0.667-1.05,1.482-1.05,2.449C-95.773,13.659-95.424,14.492-94.724,15.191z"/>
		</g>
	</g>
	<text transform="matrix(1 0 0 -1 -45.2236 -14.3691)" font-family="'Tahoma'" font-size="11">WING INSPECTION LIGHTS</text>
</symbol>
<symbol  id="sch_x5F_dm" viewBox="-47.298 -55.868 129.596 107.735">
	<polyline fill="none" stroke="#000000" stroke-width="0.5" stroke-miterlimit="6.92" points="76.598,48.967 40.198,-43.433 
		19.147,-43.333 	"/>
	<g id="Ebene_3_30_">
		<g>
			<path fill="#FF0000" d="M71.098,45.917v4.351c0,0.899,0.567,1.35,1.7,1.35h7.6c1.101,0,1.65-0.45,1.65-1.35v-4.351
				c0-0.867-0.55-1.3-1.65-1.3h-7.6C71.665,44.617,71.098,45.05,71.098,45.917z"/>
			<path fill="none" stroke="#000000" stroke-width="0.5" stroke-miterlimit="6.92" d="M71.098,45.917c0-0.867,0.567-1.3,1.7-1.3
				h7.6c1.101,0,1.65,0.433,1.65,1.3v4.351c0,0.899-0.55,1.35-1.65,1.35h-7.6c-1.133,0-1.7-0.45-1.7-1.35V45.917z"/>
		</g>
		<g>
			<g>
				<path fill="#FF0000" d="M74.198,45.817c-0.767,0-1.15,0.283-1.15,0.85v2.851c0,0.6,0.383,0.899,1.15,0.899h4.95
					c0.7,0,1.05-0.3,1.05-0.899v-2.851c0-0.565-0.35-0.85-1.05-0.85H74.198z"/>
				<path fill="none" stroke="#000000" stroke-width="0.5" stroke-miterlimit="6.92" d="M74.198,45.817h4.95
					c0.7,0,1.05,0.283,1.05,0.85v2.851c0,0.6-0.35,0.899-1.05,0.899h-4.95c-0.767,0-1.15-0.3-1.15-0.899v-2.851
					C73.048,46.101,73.431,45.817,74.198,45.817z"/>
			</g>
		</g>
	</g>
	<text transform="matrix(1 0 0 -1 -37.5195 -40.4941)" font-family="'Tahoma'" font-size="11">NACELLE</text>
	<text transform="matrix(1 0 0 -1 -47.2979 -53.4941)" font-family="'Tahoma'" font-size="11">DRAIN MAST</text>
</symbol>
<use xlink:href="#Symbol_1"  width="146.482" height="80.789" id="XMLID_10_" x="-72.241" y="-41.395" transform="matrix(1 0 0 -1 432.8408 307.3223)" overflow="visible"/>
<use xlink:href="#_x34_15CL"  width="197.265" height="78.797" id="XMLID_7_" x="-97.633" y="-40.898" transform="matrix(1 0 0 -1 337.4756 593.9932)" overflow="visible"/>
<rect x="279.15" y="604" fill="none" stroke="#1A171B" stroke-width="0.5" stroke-miterlimit="6.92" width="94.15" height="7"/>
<rect x="424.7" y="316.35" fill="none" stroke="#1A171B" stroke-width="0.5" stroke-miterlimit="6.92" width="94.148" height="6.65"/>
<use xlink:href="#_x34_11AL"  width="511.004" height="549.201" id="XMLID_1_" x="-253.502" y="-274.601" transform="matrix(1 0 0 -1 376.7959 306.3042)" overflow="visible"/>
<use xlink:href="#_x34_12AT"  width="407.55" height="570.47" x="-203.774" y="-285.235" transform="matrix(1 0 0 -1 419.3857 316.4072)" overflow="visible"/>
<use xlink:href="#_x34_12AL"  width="99.973" height="245.343" x="-49.986" y="-122.671" transform="matrix(1 0 0 -1 246.1855 182.811)" overflow="visible"/>
<use xlink:href="#_x34_12AR"  width="367.524" height="593.634" x="-183.762" y="-296.817" transform="matrix(1 0 0 -1 424.8115 295.6108)" overflow="visible"/>
<use xlink:href="#_x34_12DT"  width="75.36" height="81.765" x="-37.68" y="-40.883" transform="matrix(1 0 0 -1 345.4873 86.46)" overflow="visible"/>
<use xlink:href="#_x34_12ET"  width="51.675" height="66.507" x="-25.838" y="-33.254" transform="matrix(1 0 0 -1 373.4385 37.1475)" overflow="visible"/>
<use xlink:href="#_x34_14AT"  width="275.893" height="556.284" id="XMLID_4_" x="-128.155" y="-280.141" transform="matrix(1 0 0 -1 406.4053 287.186)" overflow="visible"/>
<use xlink:href="#_x34_12CT"  width="298.16" height="526.05" x="-149.08" y="-263.025" transform="matrix(1 0 0 -1 410.3242 294.625)" overflow="visible"/>
<use xlink:href="#_x34_13BL"  width="115.237" height="86.647" id="XMLID_11_" x="-57.119" y="-44.324" transform="matrix(1 0 0 -1 464.9395 230.9678)" overflow="visible"/>
<use xlink:href="#_x34_12AB"  width="430.303" height="321.499" x="-215.151" y="-160.749" transform="matrix(1 0 0 -1 361.0957 450.5986)" overflow="visible"/>
<use xlink:href="#_x34_14BL"  width="110.411" height="53.282" x="-55.205" y="-26.641" transform="matrix(1 0 0 -1 564.3008 242.8345)" overflow="visible"/>
<use xlink:href="#_x34_14BB"  width="429.508" height="318.257" x="-214.754" y="-159.129" transform="matrix(1 0 0 -1 405.6172 446.4561)" overflow="visible"/>
<use xlink:href="#_x34_14AR"  width="110.957" height="39.836" x="-55.479" y="-19.918" transform="matrix(1 0 0 -1 223.8721 555.2754)" overflow="visible"/>
<use xlink:href="#_x34_14BR"  width="70.356" height="57.188" id="XMLID_8_" x="-33.678" y="-31.094" transform="matrix(1 0 0 -1 252.2212 526.0859)" overflow="visible"/>
<use xlink:href="#_x34_14CR"  width="34.893" height="81.485" x="-17.446" y="-40.743" transform="matrix(1 0 0 -1 311.8398 523.4365)" overflow="visible"/>
<use xlink:href="#_x34_13ER"  width="36.349" height="85.108" x="-18.175" y="-42.554" transform="matrix(1 0 0 -1 406.8682 615.2373)" overflow="visible"/>
<use xlink:href="#_x34_15CT"  width="134.91" height="384.993" id="XMLID_6_" x="-67.455" y="-192.496" transform="matrix(1 0 0 -1 414.3496 506.2959)" overflow="visible"/>
<use xlink:href="#_x34_12BR"  width="70.733" height="81.824" x="-35.367" y="-40.912" transform="matrix(1 0 0 -1 472.085 597.7803)" overflow="visible"/>
<use xlink:href="#_x34_14AL"  width="106.039" height="39.804" x="-53.02" y="-19.903" transform="matrix(1 0 0 -1 571.7129 267.5132)" overflow="visible"/>
<use xlink:href="#_x34_13BR"  width="50.701" height="107.456" x="-25.35" y="-53.728" transform="matrix(1 0 0 -1 397.5498 509.1221)" overflow="visible"/>
<use xlink:href="#_x34_13DR"  width="86.278" height="107.307" x="-43.139" y="-53.653" transform="matrix(1 0 0 -1 465.7383 509.3467)" overflow="visible"/>
<use xlink:href="#_x34_13AT"  width="93.132" height="77.241" x="-46.566" y="-38.62" transform="matrix(1 0 0 -1 476.6943 78.6196)" overflow="visible"/>
<use xlink:href="#_x34_12BT"  width="60.014" height="58.557" id="XMLID_3_" x="-20.007" y="-30.278" transform="matrix(0.998 0 0 -0.998 256.2749 30.3721)" overflow="visible"/>
<use xlink:href="#_x34_13EL"  width="88.314" height="97.042" id="XMLID_9_" x="-42.157" y="-50.021" transform="matrix(1 0 0 -1 414.707 331.8716)" overflow="visible"/>
<use xlink:href="#_x34_13DL"  width="40.716" height="87.129" id="XMLID_13_" x="-7.645" y="-45.064" transform="matrix(1 0 0 -1 368.6943 230.3076)" overflow="visible"/>
<use xlink:href="#_x34_13CR"  width="87.311" height="85.512" x="-43.655" y="-42.756" transform="matrix(1 0 0 -1 327.4492 625.248)" overflow="visible"/>
<use xlink:href="#lt_x5F_wi_x5F_lh"  width="185.548" height="33.485" id="XMLID_5_" x="-96.273" y="-16.743" transform="matrix(1 0 0 -1 587.3232 616.0928)" overflow="visible"/>
<use xlink:href="#sch_x5F_dm"  width="129.596" height="107.735" id="XMLID_2_" x="-47.298" y="-55.868" transform="matrix(1 0 0 -1 273.1025 365.8682)" overflow="visible"/>
<use xlink:href="#_x34_12BL"  width="89.986" height="72.604" x="-44.993" y="-36.303" transform="matrix(1 0 0 -1 316.3857 306.2407)" overflow="visible"/>
<g id="border">
	<g>
		
			<path fill="none" stroke="#333333" stroke-width="0.55" stroke-linecap="round" stroke-linejoin="round" stroke-miterlimit="3" d="
			M607.25,55.15l0.25-0.1c0.134-0.3-0.85-0.933-2.95-1.9c-2.1-0.933-4.7-1.933-7.8-3c-3.333-1.2-6.05-2.033-8.15-2.5l-56.55-13.175
			V55.5h75.4 M532.05,34.475l-2.7-0.625c-3.666-0.7-6.448-1.2-8.35-1.5c-3.366-0.567-6.167-0.85-8.4-0.85H470.95v48.1H512.6
			c2.4,0,5.25-0.283,8.552-0.85c1.865-0.333,4.6-0.85,8.198-1.55l59.25-13.7c2.435-0.6,5.15-1.433,8.15-2.5
			c3.1-1.067,5.7-2.083,7.8-3.05c2.102-0.934,3.084-1.55,2.95-1.85c0-0.033-0.083-0.1-0.25-0.2 M532.05,55.5v20.65 M443.75,41.1
			c-0.366-0.367-0.8-0.6-1.3-0.7H432.4c-0.512,0.077-0.961,0.293-1.352,0.65c-0.366,0.367-0.583,0.8-0.648,1.3V68
			c0.065,0.567,0.3,1.033,0.698,1.4c0.381,0.321,0.796,0.504,1.25,0.55h9.9c0.566,0,1.05-0.184,1.45-0.55
			c0.434-0.367,0.666-0.816,0.7-1.35v-25.7C444.366,41.85,444.15,41.433,443.75,41.1z M226.5,31.5h14.55h54.85h65.6h64.55h44.9
			 M426.05,31.5v48.1h44.9 M509.35,251.55v16.55l9.552,1.1v-16.45L509.35,251.55z M518.9,269.2v10.1l20,2.4l37.75,5.575
			l-0.352-6.525l-7.1-4.1l-5.9-4.65l-2.2-2.35l-1.8-3.15l-0.5-2.1l1.602-9.75l-28.65-4.85l-12.85-1.775v4.725 M576.65,287.275
			l2.948,0.425l27.302,4.6l-24.65-8.8l-5.95-2.75 M408.05,265.35l0.025,3.4l0.023,1.85h5.15v4.5h6.2v-4.55h6.2v-1.8V264
			c-4.334,0.667-10,1.117-17,1.35 M425.65,268.75h44.75v-26.375l-62.25-2.9c5.624,0.568,11.34,1.393,17.148,2.475l0.352-0.1v20.575
			c0.083-0.004,0.167-0.013,0.25-0.025 M375.2,275.1h-14.15v38.45v9.8h63.602v-7h45.75V274.2v-5.45 M470.4,242.375l32.55,3.425
			l15.95,2.225 M576.95,317.6l0.05-0.525l-27.65,4.675l-30.5,0.825V323 M470.4,316.35h48.448v6.225L490.7,323.35h-66.05
			 M579.6,287.7l-2.6,29.375l14.1-2.375l8.95-2.25l3.3-1.3l0.852-0.65l0.75-0.85l0.85-1.9l0.7-2.5l0.4-12.95 M470.4,274.2l48.5,5.1
			 M359.2,41.1c-0.367-0.367-0.816-0.6-1.352-0.7h-7.8c-0.533,0.067-0.982,0.283-1.35,0.65c-0.367,0.367-0.583,0.8-0.65,1.3v25.7
			c0.044,0.543,0.261,0.994,0.65,1.35c0.361,0.333,0.796,0.516,1.3,0.55h7.9c0.479-0.043,0.896-0.227,1.25-0.55
			c0.433-0.367,0.666-0.816,0.698-1.35l0.052-25.7C359.833,41.85,359.6,41.433,359.2,41.1z M295.9,31.5v19.05v9.85v19.2h65.6V31.5
			l32.275,24.05L426.05,31.5 M361.5,79.6h64.55l-32.273-24.05L361.5,79.6z M216.6,32.4c-0.06,0.033-0.118,0.15-0.175,0.35
			l2.275-0.65l3.35-0.45l-3.9,0.15l-8.2,1.3l-4.9,1.3l-0.85,0.3l-17.1,2.6l-8.8,2.75l-3.5,1.75l-4.35,3l-3.35,3.05l-2.55,3.35
			l-0.9,2.15l-0.3,1.45v0.35l-0.05,0.4l0.05,0.35v0.35l0.2,1.05l0.45,1.45l0.55,1.15l0.5,0.75l2.05,2.6l2.15,2.05l3.9,3l5.15,2.75
			l8.8,2.8l14.2,2.05l7.05,1.65l0.75,0.25l9.05,1.45l3.9,0.175l-3.4-0.325l-2.25-0.65 M216.425,32.75
			c-0.223,0.778-0.415,2.862-0.575,6.25c-0.2,4.067-0.317,9.067-0.35,15l-0.05,2.75c0,5.633,0.1,10.583,0.3,14.85
			c0.2,4.133,0.45,6.333,0.75,6.6 M226.5,79.6h14.55V60.4v-4.85v-5.2V31.5 M222.05,31.65l3.6-0.15 M225.65,79.6l-3.6-0.175
			 M203.7,292.3c1.033,0,3.316,0.134,6.85,0.4c1.086,0.082,2.053,0.148,2.9,0.2c1.907,0.133,3.207,0.2,3.9,0.2 M221.9,293.975
			c-0.701-0.3-1.41-0.417-2.125-0.35 M222.4,294.225c-0.168-0.09-0.335-0.173-0.5-0.25 M224.1,290.1h16.925 M222.3,300.3l0.2-0.5
			l0.2-0.2l0.15-0.2l0.2-0.15l0.5-0.15c0.767-0.5,1.15-1.184,1.15-2.05c0-0.721-0.267-1.321-0.8-1.8l-0.025-0.025
			c-0.49-0.402-0.982-0.736-1.475-1 M222.3,300.55l0.7,18.8c0.167,1.533,3.517,2.65,10.05,3.35c6.37,0.715,14.703,0.94,25,0.675
			c0.266-0.009,0.532-0.018,0.8-0.025h102.2 M391.5,238.35c-4.479-0.124-8.704-0.107-12.675,0.05l29.325,1.075
			C402.523,238.892,396.974,238.517,391.5,238.35z M353.45,238.25l7.6,0.05l17.775,0.1c-5.641,0.243-10.766,0.776-15.375,1.6
			l31.95,11.55l29.898-9.6 M375.2,265.05h-1.15L373.7,265h-0.45l-0.2-0.05h-0.5l-0.2-0.05h-1.25l-0.198-0.05h-0.5l-0.15-0.05h-0.3
			l-0.2-0.05h-0.3l-0.15-0.1h-0.25l-0.25-0.05h-0.3l-0.2-0.05h-0.7l-0.698-0.15h-0.2l-0.2-0.05h-0.3l-0.2-0.05h-0.5l-0.45-0.15
			h-0.25l-0.7-0.15h-0.25l-0.25-0.05H363.4l-0.9-0.2h-0.25l-0.45-0.15h-0.3 M375.2,268.75h32.875 M363.65,261.8
			c8,1.2,17.85,1.917,29.55,2.15c13.093,0.197,23.858-0.303,32.3-1.5l-30.1-10.9l-31.75,10.175V261.8L363.65,261.8z M361.05,275.1
			v-4.9v-31.9 M363.65,261.725L363.45,240 M241.05,79.6h54.85 M241.05,60.4h54.85 M322.55,536.3v2.25h5.05v-8.575l-32.5,3.477
			l-16,2.225v4.727l9.55-1.15v16.5l-9.55,1.15v10.023L307,564v-27.7H322.55z M221,605.25l-0.05-0.65l-24.3-4.898l-2-0.852
			l-0.85-0.698l-0.75-0.9l-0.5-0.85l-0.9-2.75l-0.3-1.852l-0.3-11.8l17.55-6l13.075-5.8l2.475-1.102l4.65-2.75l4.8-3.648l2.1-1.95
			l1.25-1.45l1.7-3.148l0.3-0.802l0.25-1.3l-1.65-9.75l28.7-4.85l12.85-1.775 M279.1,566.925l-20,2.375l-37.7,5.602l-3.05,0.448
			l2.6,29.25l19,3.852l39.2,1.95V604h48.45v-42.15L307,564 M327.6,561.85v-5.398v-17.9 M279.1,540.4v16.5 M433.6,527.55
			c-4.459-0.756-9.357-1.247-14.698-1.475l-29.575,1.05c-5.45,0.578-10.977,1.354-16.575,2.325l-0.4,0.075l30.302,9.698L434.6,527.7
			v21.675c-0.053,0.008-0.103,0.017-0.148,0.025c-8.43,1.234-18.329,1.952-29.7,2.148c-12.733,0.233-23.458-0.267-32.175-1.5
			l-0.275,0.102v-20.625l-0.8,0.125 M418.9,526.075c-4.096-0.182-8.444-0.205-13.052-0.075c-5.43,0.169-10.938,0.544-16.523,1.125
			l-61.726,2.85 M372.35,529.525h-0.05 M327.6,604h45.7v6.875l63.65,0.05V600.45v-37.7H422.85v-6.3H389.95v1.85h-5.2v4.45h-6.1
			v-4.45H372.3v-1.85h-44.7 M372.3,551.65v4.8 M423.3,552.75l0.25-0.05h0.7l0.25-0.05h0.5l0.2-0.052h0.75l0.2-0.05h0.648l0.352-0.05
			h0.448l0.2-0.05h0.25l0.2-0.102h0.3l0.2-0.05h0.45l0.55-0.1h0.65l0.5-0.102h0.148l0.3-0.05h0.2l0.5-0.1h0.25l0.2-0.05h0.2
			l0.3-0.102h0.2l0.75-0.148h0.2l0.5-0.102h0.198l0.45-0.1h0.3l0.852-0.25h0.25l0.25-0.05V525.9l-18.05,0.175 M422.85,556.45v-3.7
			 M372.6,551.7c4.757,0.665,10.539,1.115,17.352,1.35v3.4 M416.4,580.95h8.55v-8.15h-8.55V580.95z M434.45,549.4l-31.8-10.177
			l-30.075,10.825 M221.4,574.9l0.275-6.7 M218.35,575.35l-27.3,4.65 M423.15,609.2h10.6V601h-10.6V609.2z M373.3,610.875
			l-85.8-0.075l-8.35-0.398v0.3 M436.95,562.75v-5.65v-5.948 M575.6,581.875c0.858-0.42,1.775-0.661,2.75-0.725 M436.95,610.925
			L540,611c10.434,0.3,18.85,0.083,25.25-0.65c6.367-0.732,9.634-1.85,9.8-3.35l0.7-18.85l-0.1-0.4l-0.15-0.35l-0.15-0.15
			l-0.448-0.35 M575.6,581.875c-0.482,0.253-0.949,0.561-1.398,0.925c-0.634,0.467-0.95,1.102-0.95,1.9c0,0.933,0.4,1.6,1.2,2
			 M425.5,262.45c0.051-0.01,0.101-0.018,0.15-0.025"/>
		
			<path fill="none" stroke="#333333" stroke-width="0.25" stroke-linecap="round" stroke-linejoin="round" stroke-miterlimit="3" d="
			M518.85,286.2v-2.9 M518.85,311.3v-2.95 M518.85,304.75v-5.65 M518.85,295.5v-5.75 M279.1,583.35v-6.3 M279.1,573.05V569.9
			 M279.1,600.8v-3.2 M279.1,593.7v-6.352"/>
		<path fill="none" stroke="#333333" stroke-width="0.5" stroke-miterlimit="6.92" d="M241.05,55.55H216.2 M251.35,242.45
			l-10.25,2.1l-0.075,45.55L241,298.3l53.75,6.825l0.05-34.925l0.05-30.9l-26.1,1.4l-6,0.5L251.35,242.45z M213.45,292.9
			c1.148,0.046,2.314,0.079,3.5,0.1v-44.9c-14.934,2-28.067,5.133-39.4,9.4c-8.5,4.867-12.966,9.533-13.4,14
			c-0.533,5,3.917,9.967,13.35,14.9c6.821,2.954,15.554,4.921,26.2,5.9 M217.35,293.1l-0.4-0.1 M219.775,293.625l2.05,0.475
			l0.075-0.125 M221.825,294.1l0.575,0.125 M217.35,293.1l2.425,0.525 M213.45,292.9c-3.412-0.114-6.662-0.313-9.75-0.6
			 M224.1,290.1l-2.2,3.875 M241.1,244.55l-24.15,3.55 M221.825,294.1l-0.975,1.7 M375.2,265.05v3.7v6.35v0.25 M361.05,270.2H294.8
			 M294.75,305.125l66.3,8.425 M353.45,238.25l-58.6,1.05 M241.05,50.35l54.85,0.2 M634.1,559.25
			c-0.466-4.467-4.948-9.134-13.448-14c-11.268-4.267-24.4-7.417-39.4-9.45v44.9c16.833-0.268,30-2.45,39.5-6.55
			C630.217,569.25,634.667,564.283,634.1,559.25z M436.95,525.9h27l39.398,1H516.7l9.5,0.648c4.934-0.065,15.55,1.3,31.85,4.102
			c8.134,1.433,15.783,2.85,22.95,4.25 M503.35,527.3v29.8v35l54-6.823v-7.727V531.8 M436.95,557.1h66.398 M572.2,577.25l0.225,0.3
			l3.175,4.325l0.2,0.275 M578.35,581.15h2.9v-0.45 M557.35,577.55h15.075 M436.95,600.45l66.398-8.352"/>
	</g>
	
		<line fill="none" stroke="#333333" stroke-width="0.55" stroke-linecap="round" stroke-linejoin="round" stroke-miterlimit="3" x1="358.61" y1="611.837" x2="358.61" y2="611.451"/>
</g>
<text id="border" class="svg_name_heading cp" transform="matrix(1 0 0 1 177.2412 -47.0947)"><tspan x="0" y="0" fill="#0000FF" font-family="'Tahoma-Bold'" font-size="14">LH Nacelle</tspan><tspan x="0" y="20" fill="#0000FF" font-family="'Tahoma'" font-size="13" class="downloadpdf" data-id="AMM06-41-00-992-806">AMM TASK 06-41-00-992-806</tspan></text>
<g transform="matrix( 1.10321044921875, 0, 0, 1.10321044921875, 507.7,919.8) ">
	<g>
		<defs>
			<rect id="SVGID_1_" x="-161.86" y="-186.18" width="86.492" height="23.057"/>
		</defs>
		<clipPath id="SVGID_2_">
			<use xlink:href="#SVGID_1_"  overflow="visible"/>
		</clipPath>
		
			<text transform="matrix(0.9064 0 0 0.9064 -155.8138 -169.1019)" fill="#1A171B" font-family="'Arial-BoldMT'" font-size="15.4449">LH Nacelle</text>
	</g>
</g>
</svg>
