<?xml version="1.0" encoding="utf-8"?>
<!-- Generator: Adobe Illustrator 23.0.6, SVG Export Plug-In . SVG Version: 6.00 Build 0)  -->
<svg version="1.1" id="Selected_Items" class="lh_eng" xmlns="http://www.w3.org/2000/svg" xmlns:xlink="http://www.w3.org/1999/xlink" x="0px"
	 y="0px" viewBox="0 0 706.1 705.7" enable-background="new 0 0 706.1 705.7" xml:space="preserve">
<symbol  id="_x34_11AL" viewBox="-256 -274.6 512 549.2">
	<g id="Ebene_3_3_">
		<path fill-rule="evenodd" clip-rule="evenodd" fill="#CCCCCC" d="M242.3-238.9c8.5-4.9,13-9.5,13.4-14c0.6-5-3.9-10-13.4-14.9
			c-9.5-4.1-22.7-6.3-39.5-6.6v44.9C217.9-231.5,231-234.6,242.3-238.9z"/>
		<path fill="none" stroke="#1A171B" stroke-width="0.5" stroke-miterlimit="6.92" d="M242.3-238.9c-11.3,4.3-24.4,7.4-39.4,9.5
			v-44.9c16.8,0.3,30,2.5,39.5,6.6c9.5,4.9,13.9,9.9,13.4,14.9C255.2-248.4,250.8-243.8,242.3-238.9z"/>
	</g>
	<g>
		<path fill-rule="evenodd" clip-rule="evenodd" fill="#CCCCCC" d="M-200.6,48.7c11.3,4.3,24.5,7.4,39.4,9.4V13.2
			c-16.8,0.3-30,2.5-39.4,6.6c-9.4,4.9-13.9,9.9-13.4,14.9C-213.6,39.2-209.1,43.8-200.6,48.7z"/>
		<path fill="none" stroke="#1A171B" stroke-width="0.5" stroke-miterlimit="6.92" d="M-200.6,48.7c11.3,4.3,24.5,7.4,39.4,9.4V13.2
			c-16.8,0.3-30,2.5-39.4,6.6c-9.4,4.9-13.9,9.9-13.4,14.9C-213.6,39.2-209.1,43.8-200.6,48.7z"/>
	</g>
	<g>
		<path fill-rule="evenodd" clip-rule="evenodd" fill="#CCCCCC" d="M-162.1,274.3v-46.9c-16.8,0.8-30,3.6-39.4,8.2
			c-9.5,5.4-13.9,10.8-13.3,16c0.4,4.7,4.9,9.4,13.4,14.2C-190.3,269.8-177.2,272.7-162.1,274.3z"/>
		<path fill="none" stroke="#1A171B" stroke-width="0.5" stroke-miterlimit="6.92" d="M-162.1,274.3v-46.9
			c-16.8,0.8-30,3.6-39.4,8.2c-9.5,5.4-13.9,10.8-13.3,16c0.4,4.7,4.9,9.4,13.4,14.2C-190.3,269.8-177.2,272.7-162.1,274.3z"/>
	</g>
	<polygon fill-rule="evenodd" clip-rule="evenodd" points="-182.8,252.5 -182.7,252.4 -182.6,252.4 -182.4,252.3 -182,251.9 
		-182,251.8 -181.9,251.8 -181.8,251.6 -181.8,251.5 -181.8,251.4 -181.8,251 -181.8,250.9 -181.8,250.6 -181.9,250.5 -182,250.5 
		-182.1,250.3 -182.2,250.2 -182.2,250.1 -182.3,250.1 -182.5,249.9 -182.6,249.9 -182.8,249.8 -183.5,249.8 -183.7,249.9 
		-183.8,249.9 -183.9,250.1 -184.1,250.1 -184.2,250.2 -184.2,250.3 -184.3,250.4 -184.4,250.6 -184.5,250.8 -184.5,251.6 
		-184.4,251.7 -184.3,251.8 -184.2,252.1 -184,252.2 -183.9,252.3 -183.8,252.4 -183.7,252.4 -183.5,252.4 -183.3,252.5 	"/>
	<text transform="matrix(1 0 0 -1 -256.002 204.6807)" font-family="'Tahoma'" font-size="12.1353px">411AL</text>
	<line fill="none" stroke="#1A171B" stroke-width="0.2" stroke-miterlimit="6.92" x1="-218.4" y1="210" x2="-183.7" y2="250.7"/>
</symbol>
<symbol  id="_x34_12AB" viewBox="-215.2 -160.7 430.3 321.5">
	<g>
		<path fill-rule="evenodd" clip-rule="evenodd" fill="#CCCCCC" d="M195.8-134.8l0.1,7.6h15.7l3.2-3.9c-1.4-0.8-2.2-1.6-2.5-2.5
			c-0.3-0.9,0-1.8,0.9-2.5c0.8-0.3,1.3-0.8,1.4-1.3l-0.7-18.9c-0.3-1.8-4.2-3.1-11.5-3.6c-5.1-0.4-13.5-0.6-25-0.5H75.8l0.1,10.6
			L195.8-134.8z"/>
		<path fill="none" stroke="#1A171B" stroke-width="0.5" stroke-miterlimit="6.92" d="M195.8-134.8l-120-15.1l-0.1-10.6h101.6
			c11.5-0.1,19.9,0.1,25,0.5c7.3,0.6,11.1,1.8,11.5,3.6l0.7,18.9c-0.1,0.6-0.6,1-1.4,1.3c-0.9,0.8-1.2,1.6-0.9,2.5
			c0.3,0.9,1.1,1.7,2.5,2.5l-3.2,3.9h-15.7L195.8-134.8z"/>
	</g>
	<g>
		<path fill-rule="evenodd" clip-rule="evenodd" fill="#CCCCCC" d="M-139,156.6l2.1,3.9h16.8l0.1-8.3L0,137.1v-9.8h-101.6
			c-11.5-0.1-19.9,0.1-25,0.5c-7.3,0.6-11.1,1.8-11.5,3.6l-0.7,18.9c0.1,0.6,0.6,1,1.4,1.3c0.9,0.8,1.2,1.6,0.9,2.5
			C-136.8,155-137.6,155.9-139,156.6z"/>
		<path fill="none" stroke="#1A171B" stroke-width="0.5" stroke-miterlimit="6.92" d="M-139,156.6l2.1,3.9h16.8l0.1-8.3L0,137.1
			v-9.8h-101.6c-11.5-0.1-19.9,0.1-25,0.5c-7.3,0.6-11.1,1.8-11.5,3.6l-0.7,18.9c0.1,0.6,0.6,1,1.4,1.3c0.9,0.8,1.2,1.6,0.9,2.5
			C-136.8,155-137.6,155.9-139,156.6z"/>
	</g>
	
		<line fill="none" stroke="#000000" stroke-width="0.25" stroke-linecap="round" stroke-linejoin="round" stroke-miterlimit="3" x1="-117.3" y1="140.8" x2="-187.6" y2="79.3"/>
	<polygon fill-rule="evenodd" clip-rule="evenodd" points="-118.4,141.7 -118.1,141.9 -118.1,141.9 -118,142 -117.9,142.1 
		-117.8,142.1 -117.6,142.1 -117.5,142.2 -117.1,142.2 -117,142.1 -116.9,142.1 -116.7,142 -116.5,141.9 -116.4,141.9 -116.3,141.8 
		-116.3,141.7 -116.1,141.5 -116.1,141.4 -115.9,141.1 -115.9,141 -115.9,140.9 -115.9,140.8 -115.9,140.6 -115.9,140.5 -116,140.4 
		-116.1,140.3 -116.1,140.2 -116.1,140 -116.2,139.9 -116.3,139.9 -116.5,139.6 -116.7,139.6 -116.8,139.5 -116.9,139.5 -117,139.4 
		-117.5,139.4 -117.9,139.6 -118,139.6 -118.1,139.7 -118.2,139.8 -118.3,139.9 -118.4,139.9 -118.4,140 -118.5,140.2 -118.6,140.3 
		-118.6,140.4 -118.6,140.6 -118.7,140.8 -118.7,140.9 -118.6,141 -118.6,141.1 	"/>
	<text transform="matrix(1 0 0 -1 -215.1519 68.4268)" font-family="'Tahoma'" font-size="12.1353px">412AB</text>
</symbol>
<symbol  id="_x34_12AL" viewBox="-50 -122.7 100 245.3">
	<g>
		<path fill-rule="evenodd" clip-rule="evenodd" fill="#CCCCCC" d="M27-57.8l21.8,0.9v-65.4l-53.9,6.8L-5.4-62
			C4.8-59.6,15.6-58.2,27-57.8z"/>
		<path fill="none" stroke="#1A171B" stroke-width="0.5" stroke-miterlimit="6.92" d="M27-57.8C15.6-58.2,4.8-59.6-5.4-62l0.2-53.6
			l53.9-6.8v65.4L27-57.8z"/>
	</g>
	<g>
		<polygon fill-rule="evenodd" clip-rule="evenodd" fill="#CCCCCC" points="49.7,122.4 49.7,103.2 -5.1,103.2 -5.1,122.4 		"/>
		<polygon fill="none" stroke="#1A171B" stroke-width="0.5" stroke-miterlimit="6.92" points="49.7,122.4 -5.1,122.4 -5.1,103.2 
			49.7,103.2 		"/>
	</g>
	
		<line fill="none" stroke="#000000" stroke-width="0.25" stroke-linecap="round" stroke-linejoin="round" stroke-miterlimit="3" x1="19.3" y1="110.4" x2="-11.9" y2="81.1"/>
	<text transform="matrix(1 0 0 -1 -27.5425 71.2891)" font-family="'Tahoma'" font-size="12.1353px">412AL</text>
	<g>
		<path fill-rule="evenodd" clip-rule="evenodd" fill="#0000FF" d="M20.9,111.1c0-0.3-0.1-0.5-0.3-0.7c-0.2-0.2-0.4-0.3-0.7-0.3
			s-0.5,0.1-0.7,0.3c-0.2,0.2-0.3,0.4-0.3,0.7s0.1,0.5,0.3,0.7c0.2,0.2,0.4,0.3,0.7,0.3s0.5-0.1,0.7-0.3
			C20.8,111.6,20.9,111.4,20.9,111.1z"/>
		<path fill="none" stroke="#000000" stroke-linecap="round" stroke-linejoin="round" stroke-miterlimit="3" d="M20.9,111.1
			c0-0.3-0.1-0.5-0.3-0.7c-0.2-0.2-0.4-0.3-0.7-0.3s-0.5,0.1-0.7,0.3c-0.2,0.2-0.3,0.4-0.3,0.7s0.1,0.5,0.3,0.7
			c0.2,0.2,0.4,0.3,0.7,0.3s0.5-0.1,0.7-0.3C20.8,111.6,20.9,111.4,20.9,111.1z"/>
	</g>
	
		<line fill="none" stroke="#000000" stroke-width="0.25" stroke-linecap="round" stroke-linejoin="round" stroke-miterlimit="3" x1="16.5" y1="-68" x2="-14.8" y2="-38.7"/>
	<polygon fill-rule="evenodd" clip-rule="evenodd" points="16.6,-66.6 16.7,-66.7 16.8,-66.7 17,-66.8 17.2,-66.9 17.2,-66.9 
		17.4,-67 17.5,-67.1 17.6,-67.3 17.7,-67.3 17.8,-67.7 17.8,-67.8 17.9,-68 17.9,-68.2 17.8,-68.3 17.8,-68.5 17.7,-68.8 
		17.5,-68.9 17.4,-69.1 17.3,-69.2 17.2,-69.2 17.1,-69.3 16.9,-69.3 16.9,-69.3 16.7,-69.4 16.6,-69.4 16.5,-69.4 16.4,-69.4 
		16.2,-69.4 16.1,-69.3 15.9,-69.3 15.9,-69.3 15.7,-69.2 15.4,-68.9 15.3,-68.8 15.2,-68.7 15.2,-68.6 15.2,-68.5 15.1,-68.3 
		15.1,-67.8 15.2,-67.7 15.2,-67.6 15.2,-67.5 15.3,-67.3 15.3,-67.3 15.4,-67.1 15.5,-67.1 15.6,-67 15.7,-66.9 15.8,-66.9 
		15.9,-66.8 16.1,-66.7 16.2,-66.7 16.3,-66.7 16.4,-66.6 	"/>
	<text transform="matrix(1 0 0 -1 -49.9863 -30.8613)" font-family="'Tahoma'" font-size="12.1353px">412AL</text>
</symbol>
<symbol  id="_x34_12AR" viewBox="-183.8 -296.8 367.5 593.6">
	<g>
		<path fill-rule="evenodd" clip-rule="evenodd" fill="#CCCCCC" d="M132.5-236.1l-0.2-53.7l-53.9-6.7v65.5l21.7-0.9
			C111.2-232.3,121.9-233.7,132.5-236.1z"/>
		<path fill="none" stroke="#1A171B" stroke-width="0.5" stroke-miterlimit="6.92" d="M132.5-236.1l-0.2-53.7l-53.9-6.7v65.5
			l21.7-0.9C111.2-232.3,121.9-233.7,132.5-236.1z"/>
	</g>
	<polygon fill-rule="evenodd" clip-rule="evenodd" fill="#CCCCCC" points="-128.9,264.1 -128.9,244.9 -183.8,244.9 -183.8,264.1 	
		"/>
	
		<line fill="none" stroke="#000000" stroke-width="0.25" stroke-linecap="round" stroke-linejoin="round" stroke-miterlimit="3" x1="110.2" y1="-241.2" x2="149.3" y2="-210.9"/>
	<polygon fill-rule="evenodd" clip-rule="evenodd" points="109.6,-239.9 109.8,-239.9 110,-239.8 110.4,-239.8 110.6,-239.9 
		110.8,-239.9 110.9,-240.1 111.1,-240.1 111.2,-240.3 111.3,-240.4 111.4,-240.5 111.5,-240.7 111.5,-240.7 111.5,-240.9 
		111.5,-241 111.6,-241.1 111.6,-241.4 111.5,-241.5 111.5,-241.7 111.5,-241.7 111.4,-241.8 111.4,-242 111.2,-242.2 111.2,-242.3 
		110.7,-242.5 110.5,-242.5 110.5,-242.6 109.9,-242.6 109.5,-242.4 109.4,-242.4 109.2,-242.2 109.1,-242 108.9,-241.9 
		108.9,-241.7 108.8,-241.7 108.8,-240.9 108.9,-240.7 108.9,-240.7 109,-240.6 109.1,-240.4 109.2,-240.2 109.4,-240.1 	"/>
	<text transform="matrix(1 0 0 -1 148.8813 -210.9121)" font-family="'Tahoma'" font-size="12.1353px">412AR</text>
	
		<line fill="none" stroke="#000000" stroke-width="0.25" stroke-linecap="round" stroke-linejoin="round" stroke-miterlimit="3" x1="-154.7" y1="255" x2="-115.5" y2="285.4"/>
	<polygon fill-rule="evenodd" clip-rule="evenodd" points="-155.1,256.3 -154.9,256.4 -154.5,256.4 -154.3,256.3 -154.1,256.3 
		-153.9,256.1 -153.8,256.1 -153.6,255.9 -153.5,255.8 -153.4,255.8 -153.4,255.6 -153.4,255.5 -153.3,255.4 -153.3,255.3 
		-153.3,255.1 -153.3,254.9 -153.3,254.8 -153.4,254.6 -153.4,254.5 -153.4,254.4 -153.5,254.3 -153.6,254.1 -153.7,254 
		-154.1,253.8 -154.3,253.7 -154.4,253.7 -154.9,253.7 -155.4,253.9 -155.5,253.9 -155.7,254.1 -155.7,254.2 -155.9,254.4 
		-155.9,254.5 -156,254.6 -156,255.4 -156,255.5 -155.9,255.6 -155.9,255.7 -155.7,255.8 -155.6,256 -155.4,256.1 -155.2,256.3 	"/>
	<text transform="matrix(1 0 0 -1 -115.9692 286.3379)" font-family="'Tahoma'" font-size="12.1353px">412AR</text>
</symbol>
<symbol  id="_x34_12AT" viewBox="-203.8 -285.2 407.6 570.5">
	<g id="Ebene_3_4_">
		<path fill-rule="evenodd" clip-rule="evenodd" fill="#CCCCCC" d="M161.9-264.6l-3.3-0.1c0.1-0.1-0.6-0.3-2.2-0.6l-3.3,3.8h-15.4
			v46l24-4.2V-264.6z"/>
		<path fill="none" stroke="#1A171B" stroke-width="0.5" stroke-miterlimit="6.92" d="M161.9-264.6v45l-24,4.2v-46h15.4l3.3-3.8
			c1.5,0.3,2.3,0.5,2.2,0.6L161.9-264.6z"/>
	</g>
	<g>
		<path fill-rule="evenodd" clip-rule="evenodd" fill="#CCCCCC" d="M-178.6,71.6l-0.1-45.3h-16.6l-2.1-3.9c-0.4,0.1-1.4,0.3-2.8,0.6
			c-0.5,0.1-1.2,0.2-2,0.3l-0.4,45L-178.6,71.6z"/>
		<path fill="none" stroke="#1A171B" stroke-width="0.5" stroke-miterlimit="6.92" d="M-178.6,71.6l-0.1-45.3h-16.6l-2.1-3.9
			c-0.4,0.1-1.4,0.3-2.8,0.6c-0.5,0.1-1.2,0.2-2,0.3l-0.4,45L-178.6,71.6z"/>
	</g>
	<g>
		<path fill-rule="evenodd" clip-rule="evenodd" fill="#CCCCCC" d="M-178.3,284.9v-48.1c-9.8-0.2-17.9,0-24.3,0.5
			c-1.1,17.8-1.1,33.5-0.2,47C-195.9,284.9-187.7,285.1-178.3,284.9z"/>
		<path fill="none" stroke="#1A171B" stroke-width="0.5" stroke-miterlimit="6.92" d="M-178.3,284.9v-48.1c-9.8-0.2-17.9,0-24.3,0.5
			c-1.1,17.8-1.1,33.5-0.2,47C-195.9,284.9-187.7,285.1-178.3,284.9z"/>
	</g>
	<polygon fill-rule="evenodd" clip-rule="evenodd" points="149.6,-239.3 149.7,-239.2 149.8,-239.1 149.8,-239 150,-238.9 
		150.2,-238.7 150.4,-238.7 150.6,-238.6 151,-238.6 151.2,-238.7 151.4,-238.7 151.5,-238.9 151.7,-238.9 151.7,-239 151.8,-239.1 
		151.9,-239.2 152,-239.2 152.1,-239.4 152.1,-239.5 152.1,-239.6 152.1,-239.7 152.2,-239.9 152.2,-240.2 152.1,-240.2 
		152.1,-240.4 152.1,-240.5 152,-240.6 152,-240.7 151.9,-240.8 151.8,-240.9 151.7,-241 151.6,-241.1 151.5,-241.2 151.4,-241.2 
		151.3,-241.2 151.1,-241.3 151.1,-241.3 150.5,-241.3 150.3,-241.2 150.2,-241.2 150,-241.1 149.7,-240.8 149.7,-240.7 
		149.5,-240.6 149.5,-240.5 149.4,-240.4 149.4,-239.6 	"/>
	<text transform="matrix(1 0 0 -1 170.2075 -282.6162)" enable-background="new    "><tspan x="0" y="0" font-family="'Tahoma'" font-size="12.1353px">412</tspan><tspan x="19.9" y="0" font-family="'Tahoma'" font-size="12.1353px">A</tspan><tspan x="26.5" y="0" font-family="'Tahoma'" font-size="12.1353px">T</tspan></text>
	<line fill="none" stroke="#1A171B" stroke-width="0.2" stroke-miterlimit="6.92" x1="188" y1="-271.7" x2="150.8" y2="-240"/>
</symbol>
<symbol  id="_x34_12BL" viewBox="-45 -36.3 90 72.6">
	<g>
		<polygon fill-rule="evenodd" clip-rule="evenodd" fill="#CCCCCC" points="-21.6,1 -21.5,36.1 44.7,36.1 44.7,-7.3 		"/>
		<polygon fill="none" stroke="#1A171B" stroke-width="0.5" stroke-miterlimit="6.92" points="-21.6,1 44.7,-7.3 44.7,36.1 
			-21.5,36.1 		"/>
	</g>
	<polygon fill-rule="evenodd" clip-rule="evenodd" points="9.5,17.9 9.6,18 9.8,18.2 10,18.2 10,18.3 10.2,18.3 10.8,18.3 
		11.1,18.2 11.2,18 11.5,17.9 11.5,17.8 11.6,17.7 11.6,17.7 11.7,17.5 11.8,17.4 11.8,17.3 11.8,17.2 11.9,17 11.9,16.9 11.8,16.8 
		11.8,16.7 11.8,16.6 11.7,16.4 11.7,16.3 11.6,16.2 11.6,16.1 11.5,16 11.4,15.9 11.3,15.8 11.2,15.7 11.1,15.7 11,15.7 10.9,15.6 
		10.7,15.6 10.6,15.6 10.4,15.6 10.2,15.6 10.1,15.6 10,15.7 9.9,15.7 9.8,15.7 9.3,16.2 9.3,16.3 9.2,16.4 9.1,16.5 9.1,16.8 
		9.1,16.9 9.1,17 9.1,17.2 9.1,17.3 9.3,17.5 9.3,17.7 9.4,17.7 9.4,17.8 	"/>
	<text transform="matrix(1 0 0 -1 -44.9932 -33.6836)" font-family="'Tahoma'" font-size="12.1353px">412BL</text>
	<line fill="none" stroke="#1A171B" stroke-width="0.2" stroke-miterlimit="6.92" x1="-20.8" y1="-22.1" x2="10.5" y2="16.9"/>
</symbol>
<symbol  id="_x34_12BR" viewBox="-35.4 -40.9 70.7 81.8">
	<g>
		<polygon fill-rule="evenodd" clip-rule="evenodd" fill="#CCCCCC" points="-35.1,40.7 31.1,40.7 31.2,5.6 -35.1,-2.7 		"/>
		<polygon fill="none" stroke="#1A171B" stroke-width="0.5" stroke-miterlimit="6.92" points="-35.1,40.7 31.1,40.7 31.2,5.6 
			-35.1,-2.7 		"/>
	</g>
	
		<line fill="none" stroke="#000000" stroke-width="0.25" stroke-linecap="round" stroke-linejoin="round" stroke-miterlimit="3" x1="14" y1="-28.7" x2="-9.6" y2="16.7"/>
	<polygon fill-rule="evenodd" clip-rule="evenodd" points="-9.5,18.2 -9.4,18.1 -9.2,18.1 -8.7,17.8 -8.6,17.7 -8.5,17.6 -8.5,17.5 
		-8.3,17.3 -8.3,17.2 -8.2,17.1 -8.2,16.9 -8.2,16.4 -8.2,16.3 -8.3,16.2 -8.3,16.1 -8.5,15.9 -8.7,15.6 -8.8,15.5 -9,15.5 
		-9.2,15.4 -9.3,15.4 -9.4,15.3 -9.7,15.3 -9.8,15.4 -9.9,15.4 -10.1,15.5 -10.1,15.5 -10.3,15.5 -10.4,15.7 -10.6,15.8 -10.7,15.8 
		-10.7,16 -10.7,16.1 -10.8,16.2 -10.9,16.3 -10.9,16.4 -10.9,16.6 -10.9,16.8 -10.9,16.9 -10.9,17.1 -10.8,17.2 -10.8,17.3 
		-10.7,17.4 -10.7,17.5 -10.5,17.7 -10.4,17.8 -10,18 -9.8,18.1 -9.8,18.1 -9.6,18.2 	"/>
	<text transform="matrix(1 0 0 -1 0.6104 -38.293)" font-family="'Tahoma'" font-size="12.1353px">412BR</text>
</symbol>
<symbol  id="_x34_12BT" viewBox="-40 -30.3 80 60.6">
	
		<line fill="none" stroke="#000000" stroke-width="0.55" stroke-linecap="round" stroke-linejoin="round" stroke-miterlimit="3" x1="39.7" y1="-20.3" x2="-15.2" y2="-20.3"/>
	<g>
		<polygon fill-rule="evenodd" clip-rule="evenodd" fill="#CCCCCC" points="39.8,-20.3 39.8,-30 -15.1,-30 -15.1,-20.3 		"/>
		<polygon fill="none" stroke="#1A171B" stroke-width="0.5" stroke-miterlimit="6.92" points="39.8,-20.3 -15.1,-20.3 -15.1,-30 
			39.8,-30 		"/>
	</g>
	<text transform="matrix(1 0 0 -1 -40.0063 19.7988)" enable-background="new    "><tspan x="0" y="0" font-family="'Tahoma'" font-size="12.1353px">412</tspan><tspan x="19.9" y="0" font-family="'Tahoma'" font-size="12.1353px">B</tspan><tspan x="26.7" y="0" font-family="'Tahoma'" font-size="12.1353px">T</tspan></text>
	<line fill="none" stroke="#1A171B" stroke-width="0.2" stroke-miterlimit="6.92" x1="-3.7" y1="12.7" x2="0.7" y2="-25.5"/>
	<g>
		<path fill-rule="evenodd" clip-rule="evenodd" fill="#0000FF" d="M1.8-25.5c0-0.3-0.1-0.5-0.3-0.7c-0.2-0.2-0.4-0.3-0.7-0.3
			s-0.5,0.1-0.7,0.3c-0.2,0.2-0.3,0.4-0.3,0.7s0.1,0.5,0.3,0.7c0.2,0.2,0.4,0.3,0.7,0.3s0.5-0.1,0.7-0.3C1.7-25,1.8-25.3,1.8-25.5z"
			/>
		<path fill="none" stroke="#000000" stroke-linecap="round" stroke-linejoin="round" stroke-miterlimit="3" d="M1.8-25.5
			c0-0.3-0.1-0.5-0.3-0.7c-0.2-0.2-0.4-0.3-0.7-0.3s-0.5,0.1-0.7,0.3c-0.2,0.2-0.3,0.4-0.3,0.7s0.1,0.5,0.3,0.7
			c0.2,0.2,0.4,0.3,0.7,0.3s0.5-0.1,0.7-0.3C1.7-25,1.8-25.3,1.8-25.5z"/>
	</g>
</symbol>
<symbol  id="_x34_12CT" viewBox="-149.1 -263 298.2 526">
	<g id="Ebene_3_8_">
		<path fill-rule="evenodd" clip-rule="evenodd" fill="#CCCCCC" d="M-50.2,254.8h-12.6v-30.6h12.6V254.8z M-48.8,263v-48.1h-65.6
			V263H-48.8z M-72.6,229.3v19.9h-30v-19.9H-72.6z M26.6-231.5c21.9,0.1,44-0.1,66.3-0.6v-30.6H26.6L26.6-231.5L26.6-231.5z"/>
		<path fill="none" stroke="#1A171B" stroke-width="0.5" stroke-miterlimit="6.92" d="M26.6-231.5c21.9,0.1,44-0.1,66.3-0.6v-30.6
			H26.6L26.6-231.5L26.6-231.5z"/>
	</g>
	<g>
		<path fill-rule="evenodd" clip-rule="evenodd" fill="#CCCCCC" d="M-49.3,56.4l0.1-32h-66.3v30.7c9,0.2,20.9,0.5,35.8,0.9
			C-67.7,56.3-57.6,56.4-49.3,56.4z"/>
		<path fill="none" stroke="#1A171B" stroke-width="0.5" stroke-miterlimit="6.92" d="M-49.3,56.4c-8.3,0-18.4-0.1-30.4-0.4
			c-14.9-0.4-26.8-0.7-35.8-0.9V24.4h66.3L-49.3,56.4z"/>
	</g>
	<polygon fill-rule="evenodd" clip-rule="evenodd" points="63,-245.3 63,-245.4 63,-245.6 63.1,-245.7 63.1,-245.9 63,-246.1 
		63,-246.2 63,-246.3 62.9,-246.4 62.8,-246.6 62.5,-246.9 62.1,-247.1 61.9,-247.1 61.8,-247.2 61.5,-247.2 61.4,-247.1 
		61.3,-247.1 61,-247 60.9,-246.9 60.7,-246.8 60.6,-246.7 60.6,-246.6 60.5,-246.6 60.5,-246.5 60.4,-246.3 60.3,-246.1 
		60.3,-245.6 60.4,-245.5 60.4,-245.3 60.4,-245.2 60.5,-245.1 60.6,-245 60.6,-244.9 60.7,-244.8 60.8,-244.7 60.9,-244.6 
		61,-244.6 61.1,-244.5 61.2,-244.5 61.4,-244.5 61.5,-244.4 61.8,-244.4 62,-244.5 62.1,-244.5 62.2,-244.5 62.3,-244.6 
		62.5,-244.6 62.6,-244.8 62.7,-244.9 62.8,-245 62.8,-245.1 62.9,-245.2 	"/>
	<text transform="matrix(1 0 0 -1 114.8193 -187.248)" font-family="'Tahoma'" font-size="12.1353px">412CT</text>
	<line fill="none" stroke="#1A171B" stroke-width="0.2" stroke-miterlimit="6.92" x1="114.7" y1="-189.5" x2="61.7" y2="-245.8"/>
	
		<line fill="none" stroke="#000000" stroke-width="0.25" stroke-linecap="round" stroke-linejoin="round" stroke-miterlimit="3" x1="-83.8" y1="44.2" x2="-130.7" y2="98.1"/>
	<polygon fill-rule="evenodd" clip-rule="evenodd" points="-82.3,44 -82.4,43.9 -82.5,43.8 -82.5,43.6 -82.5,43.5 -82.6,43.5 
		-82.7,43.3 -82.8,43.1 -82.9,43.1 -83,43 -83.2,42.9 -83.3,42.9 -83.5,42.9 -83.7,42.8 -83.9,42.8 -84,42.9 -84.3,42.9 -84.3,42.9 
		-84.4,43 -84.6,43.1 -84.7,43.1 -84.8,43.2 -84.8,43.3 -84.9,43.4 -85,43.5 -85,43.6 -85,43.8 -85.1,43.9 -85.1,44.5 -85,44.7 
		-85,44.9 -84.9,45 -84.8,45.1 -84.7,45.2 -84.5,45.3 -84.4,45.4 -84.2,45.5 -83.3,45.5 -83,45.3 -82.9,45.2 -82.8,45.2 -82.7,45.1 
		-82.7,45 -82.5,44.8 -82.5,44.6 -82.4,44.5 -82.4,44.4 -82.3,44.3 	"/>
	<text transform="matrix(1 0 0 -1 -149.0801 106.502)" font-family="'Tahoma'" font-size="12.1353px">412CT</text>
</symbol>
<symbol  id="_x34_12DT" viewBox="-30.2 -42.9 60.4 85.8">
	<g id="Ebene_3_5_">
		<path fill-rule="evenodd" clip-rule="evenodd" fill="#CCCCCC" d="M-27,42.6h23.7c0.8,0,1.5-0.3,2-0.8c0.6-0.6,0.9-1.2,0.9-2V26.2
			c0-0.8-0.3-1.5-0.9-2c-0.6-0.6-1.2-0.8-2-0.8H-27c-0.8,0-1.5,0.3-2,0.8c-0.6,0.6-0.9,1.2-0.9,2v13.5c0,0.8,0.3,1.5,0.9,2
			C-28.5,42.4-27.8,42.6-27,42.6z"/>
		<path fill="none" stroke="#1A171B" stroke-width="0.5" stroke-miterlimit="6.92" d="M-27,42.6h23.7c0.8,0,1.5-0.3,2-0.8
			c0.6-0.6,0.9-1.2,0.9-2V26.2c0-0.8-0.3-1.5-0.9-2c-0.6-0.6-1.2-0.8-2-0.8H-27c-0.8,0-1.5,0.3-2,0.8c-0.6,0.6-0.9,1.2-0.9,2v13.5
			c0,0.8,0.3,1.5,0.9,2C-28.5,42.4-27.8,42.6-27,42.6z"/>
	</g>
	
		<line fill="none" stroke="#000000" stroke-width="0.25" stroke-linecap="round" stroke-linejoin="round" stroke-miterlimit="3" x1="10.7" y1="-25.4" x2="-16.2" y2="32.7"/>
	<text transform="matrix(1 0 0 -1 -4.7446 -40.2627)" enable-background="new    "><tspan x="0" y="0" font-family="'Tahoma'" font-size="12.1353px">412</tspan><tspan x="19.9" y="0" font-family="'Tahoma'" font-size="12.1353px">D</tspan><tspan x="27.8" y="0" font-family="'Tahoma'" font-size="12.1353px">T</tspan></text>
	<polygon fill-rule="evenodd" clip-rule="evenodd" points="-17.2,33.7 -17.1,33.8 -17,33.9 -16.9,33.9 -16.8,34 -16.4,34.1 
		-16,34.1 -15.9,34.1 -15.8,34.1 -15.7,34 -15.6,34 -15.4,33.9 -15.3,33.8 -15.3,33.7 -15.1,33.6 -15,33.5 -14.9,33.3 -14.9,33.1 
		-14.9,32.9 -14.9,32.5 -14.9,32.3 -14.9,32.2 -15,32.1 -15,32 -15.2,31.9 -15.3,31.7 -15.7,31.5 -15.9,31.4 -15.9,31.4 -16.5,31.4 
		-17.1,31.7 -17.3,31.8 -17.3,31.9 -17.4,32 -17.4,32.1 -17.5,32.2 -17.5,32.3 -17.6,32.5 -17.6,33.1 -17.5,33.2 -17.5,33.3 
		-17.4,33.4 -17.4,33.6 -17.3,33.6 	"/>
</symbol>
<symbol  id="_x34_12ET" viewBox="-25.8 -33.3 51.7 66.5">
	<g id="Ebene_3_6_">
		<path fill-rule="evenodd" clip-rule="evenodd" fill="#CCCCCC" d="M-23.4-3.1h7.5c0.6,0,1.1-0.2,1.6-0.7c0.4-0.4,0.6-0.9,0.6-1.5
			v-25.6c0-0.6-0.2-1.1-0.6-1.5c-0.4-0.4-0.9-0.7-1.6-0.7h-7.5c-0.6,0-1.1,0.2-1.6,0.7c-0.4,0.4-0.6,0.9-0.6,1.5v25.6
			c0,0.6,0.2,1.1,0.6,1.5C-24.5-3.3-24-3.1-23.4-3.1z"/>
		<path fill="none" stroke="#1A171B" stroke-width="0.5" stroke-miterlimit="6.92" d="M-23.4-3.1h7.5c0.6,0,1.1-0.2,1.6-0.7
			c0.4-0.4,0.6-0.9,0.6-1.5v-25.6c0-0.6-0.2-1.1-0.6-1.5c-0.4-0.4-0.9-0.7-1.6-0.7h-7.5c-0.6,0-1.1,0.2-1.6,0.7
			c-0.4,0.4-0.6,0.9-0.6,1.5v25.6c0,0.6,0.2,1.1,0.6,1.5C-24.5-3.3-24-3.1-23.4-3.1z"/>
	</g>
	<polygon fill-rule="evenodd" clip-rule="evenodd" points="-19,-15.7 -18.8,-15.7 -18.7,-15.8 -18.5,-15.9 -18.3,-16.1 -18.2,-16.1 
		-18.1,-16.2 -18,-16.3 -18,-16.4 -18,-16.6 -17.9,-16.7 -17.9,-16.9 -17.8,-17 -17.9,-17.2 -17.9,-17.4 -18.1,-17.8 -18.2,-17.9 
		-18.2,-18 -18.4,-18.1 -18.5,-18.2 -18.6,-18.3 -18.8,-18.3 -19,-18.4 -19.1,-18.4 -19.3,-18.4 -19.5,-18.4 -19.6,-18.3 
		-19.8,-18.3 -19.9,-18.2 -20.1,-18.1 -20.2,-18 -20.3,-18 -20.3,-17.9 -20.4,-17.8 -20.4,-17.7 -20.6,-17.5 -20.6,-17.4 
		-20.6,-17.3 -20.6,-16.7 -20.6,-16.6 -20.5,-16.4 -20.4,-16.3 -20.3,-16.2 -20.2,-16.1 -20.1,-16 -19.9,-15.8 -19.8,-15.8 
		-19.6,-15.7 	"/>
	<text transform="matrix(1 0 0 -1 -7.9438 22.7734)" font-family="'Tahoma'" font-size="12.1353px">412ET</text>
	<line fill="none" stroke="#1A171B" stroke-width="0.2" stroke-miterlimit="6.92" x1="-9.4" y1="16.9" x2="-18.6" y2="-16.2"/>
</symbol>
<symbol  id="_x34_13AT" viewBox="-46.6 -38.6 93.1 77.2">
	<path fill-rule="evenodd" clip-rule="evenodd" fill="#CCCCCC" d="M-33,37.6c0.5-0.5,0.8-1.1,0.8-1.8V11.2c0-0.7-0.2-1.4-0.8-1.9
		c-0.5-0.5-1.1-0.8-1.8-0.8h-8.8c-0.7,0-1.3,0.2-1.9,0.8c-0.5,0.5-0.8,1.2-0.8,1.9v24.5c0,0.7,0.3,1.3,0.8,1.8
		c0.5,0.5,1.1,0.8,1.9,0.8h8.8C-34.1,38.4-33.5,38.1-33,37.6z"/>
	
		<line fill="none" stroke="#000000" stroke-width="0.55" stroke-linecap="round" stroke-linejoin="round" stroke-miterlimit="3" x1="-46.3" y1="36.3" x2="-46.3" y2="10.6"/>
	<path fill="none" stroke="#1A171B" stroke-width="0.5" stroke-miterlimit="6.92" d="M-43.6,38.4h8.8c0.7,0,1.3-0.3,1.8-0.8
		c0.5-0.5,0.8-1.1,0.8-1.8V11.2c0-0.7-0.2-1.4-0.8-1.9c-0.5-0.5-1.1-0.8-1.8-0.8h-8.8c-0.7,0-1.3,0.2-1.9,0.8
		c-0.5,0.5-0.8,1.2-0.8,1.9v24.5c0,0.7,0.3,1.3,0.8,1.8C-45,38.1-44.4,38.4-43.6,38.4z"/>
	<text transform="matrix(1 0 0 -1 12.9985 -36.002)" enable-background="new    "><tspan x="0" y="0" font-family="'Tahoma'" font-size="12.1353px">413</tspan><tspan x="19.9" y="0" font-family="'Tahoma'" font-size="12.1353px">A</tspan><tspan x="26.5" y="0" font-family="'Tahoma'" font-size="12.1353px">T</tspan></text>
	<polygon fill-rule="evenodd" clip-rule="evenodd" points="-39,25.1 -38.8,25 -38.7,24.9 -38.5,24.8 -38.4,24.7 -38.3,24.6 
		-38.2,24.4 -38.2,24.2 -38.1,24.1 -38.1,24 -38,23.8 -38,23.8 -38.1,23.6 -38.1,23.4 -38.2,23.2 -38.2,23.1 -38.3,23.1 -38.3,22.9 
		-38.4,22.8 -38.5,22.8 -38.6,22.7 -38.7,22.6 -38.8,22.5 -38.9,22.5 -39.2,22.5 -39.3,22.4 -39.6,22.4 -39.8,22.5 -39.9,22.5 
		-40,22.5 -40.1,22.6 -40.4,22.8 -40.5,22.8 -40.5,22.9 -40.6,23.1 -40.6,23.1 -40.7,23.2 -40.8,23.4 -40.8,23.5 -40.8,24.1 
		-40.8,24.2 -40.7,24.4 -40.5,24.6 -40.4,24.8 -40.2,24.9 -40.1,25 -39.9,25.1 	"/>
	<line fill="none" stroke="#1A171B" stroke-width="0.2" stroke-miterlimit="6.92" x1="11.3" y1="-25.2" x2="-39.4" y2="23.8"/>
</symbol>
<symbol  id="_x34_13BL" viewBox="-57.1 -44.3 114.2 88.6">
	<g id="Ebene_3_9_">
		<path fill-rule="evenodd" clip-rule="evenodd" fill="#CCCCCC" d="M-56.9-34.4c6.1,0.2,12,0.7,17.7,1.4v-6.6h-6.3l-0.1-4.5h-6.1
			l-0.1,4.5l-5.2,0.1L-56.9-34.4L-56.9-34.4z"/>
		<path fill="none" stroke="#1A171B" stroke-width="0.5" stroke-miterlimit="6.92" d="M-56.9-34.4c6.1,0.2,12,0.7,17.7,1.4v-6.6
			h-6.3l-0.1-4.5h-6.1l-0.1,4.5l-5.2,0.1L-56.9-34.4L-56.9-34.4z"/>
	</g>
	<polygon fill-rule="evenodd" clip-rule="evenodd" points="-49.2,-36.5 -49.1,-36.5 -49,-36.4 -48.8,-36.4 -48.7,-36.5 -48.6,-36.5 
		-48.5,-36.5 -48.4,-36.5 -48.2,-36.6 -48,-36.9 -47.8,-36.9 -47.8,-37 -47.7,-37.1 -47.7,-37.2 -47.6,-37.4 -47.6,-37.5 
		-47.6,-37.6 -47.5,-37.7 -47.5,-38 -47.6,-38.1 -47.6,-38.2 -47.7,-38.3 -47.7,-38.5 -47.8,-38.5 -47.9,-38.7 -48,-38.8 
		-48.1,-38.9 -48.3,-39.1 -48.4,-39.1 -48.6,-39.1 -48.7,-39.2 -49.2,-39.2 -49.3,-39.1 -49.4,-39.1 -49.8,-38.9 -49.9,-38.7 
		-50,-38.6 -50.2,-38.5 -50.2,-38.3 -50.3,-38.1 -50.3,-37.5 -50.2,-37.4 -50.2,-37.2 -50.2,-37.1 -50,-37 -50,-36.9 -49.9,-36.9 
		-49.8,-36.7 -49.7,-36.6 -49.5,-36.5 -49.3,-36.5 	"/>
	<text transform="matrix(1 0 0 -1 24.0552 33.8447)" font-family="'Tahoma'" font-size="12.1353px">413BL</text>
	<line fill="none" stroke="#1A171B" stroke-width="0.2" stroke-miterlimit="6.92" x1="37.3" y1="25.9" x2="-48.9" y2="-37.8"/>
</symbol>
<symbol  id="_x34_13BR" viewBox="-25.3 -53.7 50.7 107.5">
	<g>
		<path fill-rule="evenodd" clip-rule="evenodd" fill="#CCCCCC" d="M-12.8-53.6h-6.2l0.1,4.5l-6.4,0.1v6.5
			c6.9-0.9,12.8-1.4,17.7-1.4l-0.1-5.2l-5.1,0C-12.8-49.2-12.8-53.6-12.8-53.6z"/>
		<path fill="none" stroke="#000000" stroke-width="0.2" stroke-miterlimit="6.92" d="M-12.8-53.6h-6.2l0.1,4.5l-6.4,0.1v6.5
			c6.9-0.9,12.8-1.4,17.7-1.4l-0.1-5.2l-5.1,0C-12.8-49.2-12.8-53.6-12.8-53.6z"/>
	</g>
	
		<line fill="none" stroke="#000000" stroke-width="0.25" stroke-linecap="round" stroke-linejoin="round" stroke-miterlimit="3" x1="-15.3" y1="-47.4" x2="7.4" y2="35.3"/>
	<polygon fill-rule="evenodd" clip-rule="evenodd" points="-14.4,-46.3 -14.3,-46.4 -14.3,-46.5 -14.2,-46.6 -14.2,-46.6 
		-14.1,-46.8 -14.1,-46.9 -13.9,-47.1 -13.9,-47.6 -14.1,-48 -14.2,-48.1 -14.2,-48.2 -14.3,-48.3 -14.4,-48.4 -14.6,-48.5 
		-14.7,-48.6 -14.9,-48.7 -15.1,-48.7 -15.5,-48.7 -15.7,-48.7 -15.8,-48.6 -15.9,-48.6 -16,-48.5 -16.2,-48.5 -16.2,-48.4 
		-16.5,-48.1 -16.5,-48 -16.6,-47.8 -16.6,-47.6 -16.7,-47.5 -16.7,-47.2 -16.6,-47.2 -16.6,-47 -16.5,-46.8 -16.5,-46.6 
		-16.5,-46.6 -16.2,-46.3 -16.1,-46.3 -16,-46.1 -15.8,-46.1 -15.8,-46 -15.6,-46 -15.5,-46 -15.2,-46 -15,-46 -14.9,-46 
		-14.7,-46.1 -14.6,-46.3 	"/>
	<text transform="matrix(1 0 0 -1 -9.4062 43.249)" font-family="'Tahoma'" font-size="12.1353px">413BR</text>
</symbol>
<symbol  id="_x34_13CR" viewBox="-43.7 -42.8 87.3 85.5">
	<g>
		<polygon fill-rule="evenodd" clip-rule="evenodd" fill="#CCCCCC" points="38.4,33.6 38.4,42.5 43.4,42.5 43.4,33.6 		"/>
		
			<polygon fill="none" stroke="#000000" stroke-width="0.55" stroke-linecap="round" stroke-linejoin="round" stroke-miterlimit="3" points="
			38.4,33.6 43.4,33.6 43.4,42.5 38.4,42.5 		"/>
	</g>
	
		<line fill="none" stroke="#000000" stroke-width="0.3" stroke-linecap="round" stroke-linejoin="round" stroke-miterlimit="3" x1="41.2" y1="37.7" x2="-19.8" y2="-23.3"/>
	<polygon fill="none" points="-4.3,-42.8 -43.7,-42.8 -43.7,-24 -4.3,-24 	"/>
	<text transform="matrix(1 0 0 -1 -41.6553 -35.2236)" font-family="'Tahoma'" font-size="12.1353px">413CR</text>
	<polygon fill-rule="evenodd" clip-rule="evenodd" points="42.2,38 42.4,37.8 42.4,37.6 42.4,37.4 42.4,37.2 42.4,37 42.4,36.8 
		42.2,36.7 42.1,36.5 42,36.3 41.9,36.3 41.7,36.1 41.4,36 40.7,36 40.5,36.1 40.4,36.1 40.4,36.2 40.2,36.2 40,36.4 40,36.5 
		39.8,36.7 39.7,36.8 39.7,37.2 39.6,37.3 39.6,37.4 39.7,37.6 39.7,37.8 39.8,37.9 39.8,38 39.9,38.2 40,38.3 40,38.3 40.1,38.4 
		40.3,38.5 40.6,38.6 40.7,38.6 40.8,38.7 41.2,38.7 41.4,38.6 41.4,38.6 41.6,38.6 41.9,38.4 42,38.3 42,38.3 	"/>
</symbol>
<symbol  id="_x34_13DL" viewBox="-17.1 -45.1 34.1 90.1">
	
		<line fill="none" stroke="#000000" stroke-width="0.55" stroke-linecap="round" stroke-linejoin="round" stroke-miterlimit="3" x1="6.5" y1="-44.8" x2="6.5" y2="-34.8"/>
	<g>
		<path fill-rule="evenodd" clip-rule="evenodd" fill="#CCCCCC" d="M6.5-44.8H-7.4v11.5c4.6-0.9,9.3-1.4,13.9-1.5V-44.8z"/>
		<path fill="none" stroke="#1A171B" stroke-width="0.5" stroke-miterlimit="6.92" d="M6.5-44.8H-7.4v11.5c4.6-0.9,9.3-1.4,13.9-1.5
			V-44.8z"/>
	</g>
	
		<line fill="none" stroke="#000000" stroke-width="0.25" stroke-linecap="round" stroke-linejoin="round" stroke-miterlimit="3" x1="-1.3" y1="-39.6" x2="16.1" y2="25.1"/>
	<polygon fill-rule="evenodd" clip-rule="evenodd" points="-0.2,-38.9 -0.1,-38.9 -0.1,-39 -0.1,-39.2 0,-39.2 0,-39.4 0,-39.5 
		0,-39.8 0,-39.8 -0.1,-40 -0.1,-40.2 -0.2,-40.3 -0.2,-40.5 -0.3,-40.5 -0.4,-40.7 -0.5,-40.7 -0.6,-40.8 -0.7,-40.8 -0.8,-40.9 
		-1,-41 -1.1,-41 -1.2,-41 -1.5,-41 -1.6,-41 -1.7,-41 -1.8,-40.9 -1.9,-40.8 -2.1,-40.8 -2.2,-40.7 -2.3,-40.7 -2.3,-40.6 
		-2.4,-40.5 -2.5,-40.4 -2.6,-40.3 -2.6,-40.2 -2.7,-40 -2.7,-39.2 -2.6,-39.1 -2.6,-38.9 -2.4,-38.9 -2.3,-38.6 -2.2,-38.5 
		-2.1,-38.5 -2,-38.4 -1.8,-38.3 -1.7,-38.3 -1.6,-38.2 -1,-38.2 -0.8,-38.4 -0.7,-38.4 -0.6,-38.5 -0.5,-38.5 -0.3,-38.6 	"/>
	<text transform="matrix(1 0 0 -1 -17.0713 34.585)" font-family="'Tahoma'" font-size="12.1353px">413DL</text>
</symbol>
<symbol  id="_x34_13DR" viewBox="-43.1 -53.7 86.3 107.3">
	<g>
		<path fill-rule="evenodd" clip-rule="evenodd" fill="#CCCCCC" d="M-28.9-41.8l0.1-11.6h-14.1v10C-37.7-43.2-33-42.7-28.9-41.8z"/>
		<path fill="none" stroke="#1A171B" stroke-width="0.5" stroke-miterlimit="6.92" d="M-28.9-41.8l0.1-11.6h-14.1v10
			C-37.7-43.2-33-42.7-28.9-41.8z"/>
	</g>
	
		<line fill="none" stroke="#000000" stroke-width="0.25" stroke-linecap="round" stroke-linejoin="round" stroke-miterlimit="3" x1="-35.5" y1="-48.3" x2="22.5" y2="34.8"/>
	<polygon fill-rule="evenodd" clip-rule="evenodd" points="-36.1,-47.1 -36,-47.1 -35.9,-47 -35.8,-47 -35.6,-46.9 -35.2,-46.9 
		-34.9,-47.1 -34.8,-47.1 -34.6,-47.2 -34.5,-47.3 -34.4,-47.4 -34.3,-47.5 -34.2,-47.7 -34.2,-47.8 -34.1,-47.9 -34.1,-48.1 
		-34.1,-48.5 -34.1,-48.7 -34.2,-48.8 -34.2,-48.9 -34.3,-49 -34.4,-49.1 -34.5,-49.2 -34.5,-49.4 -34.6,-49.4 -34.7,-49.4 
		-34.9,-49.5 -35.1,-49.6 -35.2,-49.6 -35.3,-49.7 -35.5,-49.7 -35.7,-49.6 -35.9,-49.6 -35.9,-49.6 -36.1,-49.5 -36.1,-49.5 
		-36.3,-49.4 -36.5,-49.3 -36.5,-49.1 -36.6,-49.1 -36.7,-48.9 -36.8,-48.7 -36.8,-48 -36.7,-47.8 -36.7,-47.8 -36.6,-47.6 
		-36.6,-47.5 -36.5,-47.4 -36.5,-47.3 -36.3,-47.2 -36.2,-47.2 	"/>
	<text transform="matrix(1 0 0 -1 7.3047 43.1738)" font-family="'Tahoma'" font-size="12.1353px">413DR</text>
</symbol>
<symbol  id="_x34_13EL" viewBox="-42.2 -47 84.3 94">
	
		<polygon fill="none" stroke="#000000" stroke-width="0.55" stroke-linecap="round" stroke-linejoin="round" stroke-miterlimit="3" points="
		-33.1,38.6 -41.7,38.6 -41.7,46.7 -33.1,46.7 	"/>
	<g id="Ebene_3_18_">
		<polygon fill-rule="evenodd" clip-rule="evenodd" fill="#CCCCCC" points="-33.4,46.8 -33.4,38.6 -41.9,38.6 -41.9,46.8 		"/>
		<polygon fill="none" stroke="#1A171B" stroke-width="0.5" stroke-miterlimit="6.92" points="-33.4,46.8 -41.9,46.8 -41.9,38.6 
			-33.4,38.6 		"/>
	</g>
	
		<line fill="none" stroke="#000000" stroke-width="0.25" stroke-linecap="round" stroke-linejoin="round" stroke-miterlimit="3" x1="27.5" y1="-34.5" x2="-37.9" y2="42.8"/>
	<text transform="matrix(1 0 0 -1 9.437 -44.4023)" font-family="'Tahoma'" font-size="12.1353px">413EL</text>
	<polygon fill-rule="evenodd" clip-rule="evenodd" points="-38.8,43.7 -38.7,43.9 -38.5,43.9 -38.4,44 -38.1,44.2 -37.5,44.2 
		-37.3,44.1 -37.1,44 -37,43.9 -36.9,43.9 -36.6,43.5 -36.6,43.4 -36.5,43.3 -36.4,43.2 -36.4,43 -36.4,42.7 -36.4,42.5 -36.4,42.4 
		-36.5,42.3 -36.6,42.2 -36.6,42.1 -36.7,42 -36.7,41.9 -36.9,41.8 -36.9,41.7 -37.1,41.6 -37.2,41.6 -37.2,41.5 -37.4,41.5 
		-37.5,41.5 -37.6,41.4 -37.9,41.4 -38,41.5 -38.2,41.5 -38.2,41.5 -38.4,41.6 -38.5,41.6 -38.5,41.7 -38.7,41.8 -38.8,41.9 
		-38.9,41.9 -38.9,42 -39,42.2 -39,42.3 -39.1,42.4 -39.1,42.5 -39.1,42.7 -39.1,43 -39.1,43.2 -39.1,43.3 -39,43.4 -38.9,43.5 
		-38.9,43.6 	"/>
</symbol>
<symbol  id="_x34_13ER" viewBox="-38.4 -34.4 76.8 64.9">
	<g id="Ebene_3_19_">
		<polygon fill-rule="evenodd" clip-rule="evenodd" fill="#CCCCCC" points="29.8,30.3 38.3,30.3 38.3,22.2 29.8,22.2 		"/>
		<polygon fill="none" stroke="#000000" stroke-width="0.2" stroke-miterlimit="6.92" points="29.8,30.3 29.8,22.2 38.3,22.2 
			38.3,30.3 		"/>
	</g>
	
		<line fill="none" stroke="#000000" stroke-width="0.25" stroke-linecap="round" stroke-linejoin="round" stroke-miterlimit="3" x1="-16.4" y1="-20.7" x2="32.8" y2="25.3"/>
	<text transform="matrix(1 0 0 -1 -38.4243 -31.8096)" font-family="'Tahoma'" font-size="12.1353px">413ER</text>
	<polygon fill-rule="evenodd" clip-rule="evenodd" points="34.7,27.2 34.8,26.9 34.8,26.7 34.8,26.5 34.8,26.3 34.8,26.2 34.8,25.9 
		34.7,25.8 34.6,25.6 34.4,25.4 34.3,25.4 34.1,25.2 33.8,25.1 33.1,25.1 33,25.2 32.9,25.2 32.8,25.3 32.6,25.3 32.5,25.5 
		32.4,25.6 32.2,25.8 32.1,25.9 32.1,26.3 32.1,26.4 32.1,26.5 32.1,26.7 32.1,26.9 32.2,27 32.2,27.1 32.4,27.3 32.4,27.4 
		32.5,27.4 32.6,27.5 32.7,27.6 33,27.8 33.1,27.8 33.2,27.8 33.6,27.8 33.8,27.8 33.8,27.8 34,27.7 34.3,27.5 34.5,27.4 34.5,27.4 
			"/>
</symbol>
<symbol  id="_x34_14AL" viewBox="-54.5 -19.9 109 39.8">
	<g id="Ebene_3_16_">
		<path fill-rule="evenodd" clip-rule="evenodd" fill="#CCCCCC" d="M-54.3-11.7v31.3l41.5-6.6l-1.6-9.8c0.5-3,2.3-5.9,5.5-8.7
			c2.5-2.2,6.5-4.7,11.9-7.6l0.3-6.5C-15.7-16.7-34.9-14.1-54.3-11.7z"/>
		<path fill="none" stroke="#1A171B" stroke-width="0.5" stroke-miterlimit="6.92" d="M-54.3-11.7c19.4-2.4,38.6-5,57.7-7.9
			l-0.3,6.5c-5.4,2.9-9.4,5.4-11.9,7.6c-3.2,2.8-5,5.7-5.5,8.7l1.6,9.8l-41.5,6.6V-11.7z"/>
	</g>
	<polygon fill-rule="evenodd" clip-rule="evenodd" points="-22.9,-2.5 -22.8,-2.5 -22.3,-2.7 -22.3,-2.9 -22,-3.1 -22,-3.2 
		-21.9,-3.3 -21.9,-3.5 -21.9,-3.6 -21.8,-3.7 -21.8,-4 -21.9,-4.1 -21.9,-4.2 -22.1,-4.7 -22.2,-4.8 -22.3,-4.8 -22.4,-4.9 
		-22.8,-5.2 -23,-5.2 -23.4,-5.2 -23.6,-5.2 -23.6,-5.1 -23.8,-5.1 -23.9,-5 -24,-4.9 -24.1,-4.9 -24.4,-4.6 -24.4,-4.5 -24.5,-4.3 
		-24.5,-4.3 -24.6,-4.1 -24.6,-4 -24.6,-3.9 -24.6,-3.7 -24.6,-3.5 -24.5,-3.3 -24.5,-3.3 -24.4,-3.1 -24.3,-3 -24.2,-2.9 -24,-2.7 
		-24,-2.7 -23.5,-2.5 	"/>
	<text transform="matrix(1 0 0 -1 21.3311 -3.2109)" font-family="'Tahoma'" font-size="12.1353px">414AL</text>
	<line fill="none" stroke="#1A171B" stroke-width="0.2" stroke-miterlimit="6.92" x1="16.6" y1="-0.2" x2="-23.2" y2="-3.8"/>
</symbol>
<symbol  id="_x34_14AR" viewBox="-55.5 -19.9 111 39.8">
	<g id="Ebene_3_12_">
		<path fill-rule="evenodd" clip-rule="evenodd" fill="#CCCCCC" d="M13.7,13l41.6,6.7v-31.3c-19.4-2.4-38.6-5-57.7-7.9l0.3,6.5
			c5.4,2.9,9.4,5.5,11.9,7.6c3.2,2.8,5.1,5.6,5.5,8.6L13.7,13z"/>
		<path fill="none" stroke="#1A171B" stroke-width="0.5" stroke-miterlimit="6.92" d="M13.7,13l41.6,6.7v-31.3
			c-19.4-2.4-38.6-5-57.7-7.9l0.3,6.5c5.4,2.9,9.4,5.5,11.9,7.6c3.2,2.8,5.1,5.6,5.5,8.6L13.7,13z"/>
	</g>
	
		<line fill="none" stroke="#000000" stroke-width="0.25" stroke-linecap="round" stroke-linejoin="round" stroke-miterlimit="3" x1="27.2" y1="0.4" x2="-10.3" y2="-0.1"/>
	<polygon fill-rule="evenodd" clip-rule="evenodd" points="26.8,1.7 27,1.8 27.4,1.8 27.6,1.7 27.7,1.7 27.9,1.6 28,1.6 28.1,1.5 
		28.2,1.4 28.2,1.3 28.3,1.2 28.4,1.1 28.5,1 28.5,0.9 28.6,0.8 28.6,0 28.5,-0.1 28.5,-0.2 28.4,-0.4 28.3,-0.4 28.2,-0.6 28,-0.7 
		27.9,-0.7 27.8,-0.8 27.7,-0.9 27.6,-0.9 27.5,-1 27,-1 26.9,-0.9 26.7,-0.9 26.5,-0.7 26.4,-0.7 26.3,-0.6 26.2,-0.5 26.1,-0.4 
		26,-0.4 25.9,-0.1 25.9,0 25.9,0.1 25.9,0.6 25.9,0.8 25.9,1 26,1.1 26.1,1.2 26.2,1.3 26.2,1.4 26.3,1.5 26.5,1.6 26.6,1.6 
		26.6,1.7 	"/>
	<text transform="matrix(1 0 0 -1 -55.478 0.3018)" font-family="'Tahoma'" font-size="12.1353px">414AR</text>
</symbol>
<symbol  id="_x34_14AT" viewBox="-137.9 -280.1 275.9 560.3">
	<g id="Ebene_3_7_">
		<path fill-rule="evenodd" clip-rule="evenodd" fill="#CCCCCC" d="M54.7,255.6h44c4.6-0.4,10.3-1.4,17.1-2.9l-0.1-42.1
			c-6.4-1.5-12-2.5-17-3h-44V255.6z"/>
		<path fill="none" stroke="#1A171B" stroke-width="0.5" stroke-miterlimit="6.92" d="M54.7,255.6v-48h44c5,0.5,10.7,1.5,17,3
			l0.1,42.1c-6.8,1.5-12.5,2.5-17.1,2.9L54.7,255.6L54.7,255.6z"/>
	</g>
	<g>
		<polygon fill-rule="evenodd" clip-rule="evenodd" fill="#CCCCCC" points="54.8,44.5 58.4,44.4 103.3,38.9 103.3,7.6 54.8,12.7 		
			"/>
		<polygon fill="none" stroke="#1A171B" stroke-width="0.5" stroke-miterlimit="6.92" points="54.8,44.5 54.8,12.7 103.3,7.6 
			103.3,38.9 58.4,44.4 		"/>
	</g>
	<g>
		<polygon fill-rule="evenodd" clip-rule="evenodd" fill="#CCCCCC" points="-89.2,-274.8 -137.7,-279.9 -137.7,-248.6 -92.8,-243.1 
			-89.2,-243 		"/>
		<polygon fill="none" stroke="#1A171B" stroke-width="0.5" stroke-miterlimit="6.92" points="-89.2,-274.8 -137.7,-279.9 
			-137.7,-248.6 -92.8,-243.1 -89.2,-243 		"/>
	</g>
	<polygon fill-rule="evenodd" clip-rule="evenodd" points="84.5,235.4 84.7,235.3 84.9,235.2 85,235.2 85,235.1 85.3,234.8 
		85.4,234.7 85.4,234.6 85.5,234.5 85.5,234.4 85.5,234.2 85.6,234.1 85.6,233.9 85.5,233.8 85.5,233.6 85.5,233.6 85.4,233.4 
		85.3,233.3 85.3,233.2 85.2,233.1 85.1,233 85,233 84.8,232.8 84.7,232.8 84.6,232.7 84.4,232.7 84.3,232.6 84,232.6 83.9,232.7 
		83.8,232.7 83.7,232.8 83.6,232.8 83.5,232.9 83.3,233 83.3,233 83.2,233.1 83.1,233.2 83,233.3 83,233.4 82.8,233.7 82.8,233.9 
		82.8,234 82.8,234.1 82.8,234.2 82.8,234.4 82.9,234.5 82.9,234.6 83,234.7 83.1,234.8 83.2,234.9 83.2,235 83.4,235.2 83.6,235.2 
		83.7,235.3 83.7,235.3 83.9,235.4 	"/>
	<line fill="none" stroke="#1A171B" stroke-width="0.2" stroke-miterlimit="6.92" x1="118.3" y1="261.3" x2="85" y2="235.1"/>
	<text transform="matrix(1 0 0 -1 104.3789 269.6631)" enable-background="new    "><tspan x="0" y="0" font-family="'Tahoma'" font-size="12.1353px">414</tspan><tspan x="19.9" y="0" font-family="'Tahoma'" font-size="12.1353px">A</tspan><tspan x="26.5" y="0" font-family="'Tahoma'" font-size="12.1353px">T</tspan></text>
</symbol>
<symbol  id="_x34_14BB" viewBox="-214.8 -159.1 430.5 318.3">
	<g id="Ebene_3_24_">
		<path fill-rule="evenodd" clip-rule="evenodd" fill="#CCCCCC" d="M-214.5-133.5l27.2,4.6l2.6-29.9c-9.9,2-18,3.8-24.4,5.6
			c-3.3,0.8-5,3.6-5.3,8.5L-214.5-133.5z"/>
		<path fill="none" stroke="#1A171B" stroke-width="0.5" stroke-miterlimit="6.92" d="M-214.5-133.5l27.2,4.6l2.6-29.9
			c-9.9,2-18,3.8-24.4,5.6c-3.3,0.8-5,3.6-5.3,8.5L-214.5-133.5z"/>
	</g>
	<g>
		<path fill-rule="evenodd" clip-rule="evenodd" fill="#CCCCCC" d="M201.3,154.3l-0.2-11.3c-0.3-4.9-2-7.7-5.3-8.5
			c-6.4-1.8-14.5-3.6-24.4-5.6l2.6,29.9L201.3,154.3z"/>
		<path fill="none" stroke="#1A171B" stroke-width="0.5" stroke-miterlimit="6.92" d="M201.3,154.3l-27.2,4.6l-2.6-29.9
			c9.9,1.9,18,3.8,24.4,5.6c3.3,0.8,5,3.6,5.3,8.5L201.3,154.3z"/>
	</g>
	<polygon fill-rule="evenodd" clip-rule="evenodd" points="185.5,145.3 185.7,145.4 186.1,145.4 186.3,145.3 186.4,145.2 
		186.5,145.2 186.6,145.2 186.8,145.1 186.8,145 187.1,144.7 187.1,144.6 187.1,144.5 187.2,144.4 187.2,143.7 187.1,143.6 
		187.1,143.5 187,143.3 186.9,143.2 186.9,143 186.8,142.9 186.4,142.7 186.2,142.6 186.1,142.6 186,142.6 185.8,142.6 185.6,142.6 
		185.5,142.6 184.9,142.9 184.8,143 184.8,143.1 184.7,143.2 184.7,143.4 184.6,143.5 184.5,143.5 184.5,143.7 184.5,144.3 
		184.5,144.5 184.6,144.5 184.7,144.7 184.7,144.8 184.8,144.9 184.9,145 185,145.1 185.1,145.1 185.2,145.2 185.3,145.2 
		185.4,145.3 	"/>
	<text transform="matrix(1 0 0 -1 181.5762 93.9824)" font-family="'Tahoma'" font-size="12.1353px">414BB</text>
	<line fill="none" stroke="#1A171B" stroke-width="0.2" stroke-miterlimit="6.92" x1="185.9" y1="144" x2="198.9" y2="108.9"/>
</symbol>
<symbol  id="_x34_14BL" viewBox="-55.2 -26.6 110.4 53.3">
	<g id="Ebene_3_10_">
		<polygon fill-rule="evenodd" clip-rule="evenodd" fill="#CCCCCC" points="-55,-8.7 -45.4,-9.9 -45.5,-26.4 -55,-25.3 		"/>
		<polygon fill="none" stroke="#1A171B" stroke-width="0.5" stroke-miterlimit="6.92" points="-55,-8.7 -45.4,-9.9 -45.5,-26.4 
			-55,-25.3 		"/>
	</g>
	<text transform="matrix(1 0 0 -1 22.1421 16.1621)" font-family="'Tahoma'" font-size="12.1353px">414BL</text>
	<line fill="none" stroke="#1A171B" stroke-width="0.2" stroke-miterlimit="6.92" x1="20.4" y1="18.7" x2="-50.6" y2="-16.7"/>
	<polygon fill-rule="evenodd" clip-rule="evenodd" points="-49.9,-15.2 -49.8,-15.2 -49.3,-15.5 -49.3,-15.6 -49,-15.9 -49,-16 
		-48.9,-16.1 -48.9,-16.2 -48.9,-16.4 -48.8,-16.5 -48.8,-16.7 -48.9,-16.8 -48.9,-17 -49.1,-17.4 -49.2,-17.5 -49.3,-17.6 
		-49.4,-17.7 -49.8,-17.9 -50,-18 -50.4,-18 -50.6,-17.9 -50.6,-17.8 -50.8,-17.8 -50.9,-17.7 -51,-17.7 -51.1,-17.6 -51.4,-17.3 
		-51.4,-17.2 -51.5,-17.1 -51.5,-17 -51.6,-16.8 -51.6,-16.7 -51.6,-16.6 -51.6,-16.5 -51.6,-16.2 -51.5,-16.1 -51.5,-16 
		-51.4,-15.9 -51.2,-15.7 -51.2,-15.6 -51,-15.5 -51,-15.4 -50.5,-15.2 	"/>
</symbol>
<symbol  id="_x34_14BR" viewBox="-36.7 -31.1 73.4 62.2">
	<g id="Ebene_3_13_">
		<polygon fill-rule="evenodd" clip-rule="evenodd" fill="#CCCCCC" points="26.9,-14.3 36.4,-13.2 36.4,-29.7 26.9,-30.8 		"/>
		<polygon fill="none" stroke="#1A171B" stroke-width="0.5" stroke-miterlimit="6.92" points="26.9,-14.3 36.4,-13.2 36.4,-29.7 
			26.9,-30.8 		"/>
	</g>
	<text transform="matrix(1 0 0 -1 -36.6782 20.6143)" font-family="'Tahoma'" font-size="12.1353px">414BR</text>
	<line fill="none" stroke="#1A171B" stroke-width="0.2" stroke-miterlimit="6.92" x1="-13.8" y1="9.8" x2="30.9" y2="-22"/>
	<polygon fill-rule="evenodd" clip-rule="evenodd" points="31.6,-20.6 31.7,-20.7 31.8,-20.7 31.9,-20.8 32.1,-20.9 32.2,-21.1 
		32.3,-21.2 32.4,-21.4 32.4,-21.5 32.4,-21.6 32.5,-21.7 32.5,-22.2 32.4,-22.3 32.4,-22.5 32.4,-22.5 32.3,-22.7 32.2,-22.8 
		32.2,-22.9 32.1,-22.9 32,-23 31.8,-23.1 31.8,-23.1 31.6,-23.2 31.4,-23.3 30.9,-23.3 30.7,-23.2 30.5,-23.1 30.5,-23.1 
		30.4,-23.1 30.2,-23 30.2,-22.9 30.1,-22.8 30,-22.7 29.9,-22.5 29.9,-22.5 29.9,-22.4 29.8,-22.2 29.8,-21.8 29.9,-21.6 
		29.9,-21.5 29.9,-21.4 30,-21.2 30.1,-21.1 30.2,-20.9 30.4,-20.8 30.6,-20.7 30.7,-20.6 30.8,-20.6 31.5,-20.6 	"/>
</symbol>
<symbol  id="_x34_14CR" viewBox="-17.4 -40.7 34.9 81.5">
	<g id="Ebene_3_14_">
		<polygon fill-rule="evenodd" clip-rule="evenodd" fill="#CCCCCC" points="-4.8,-12.9 10.7,-12.9 10.7,-15.1 15.7,-15.1 
			15.7,-38.4 -4.8,-40.5 		"/>
		<polygon fill="none" stroke="#1A171B" stroke-width="0.5" stroke-miterlimit="6.92" points="-4.8,-12.9 10.7,-12.9 10.7,-15.1 
			15.7,-15.1 15.7,-38.4 -4.8,-40.5 		"/>
	</g>
	<polygon fill-rule="evenodd" clip-rule="evenodd" points="4.6,-24.8 4.8,-24.8 4.9,-24.9 5,-25 5.2,-25.1 5.3,-25.2 5.4,-25.4 
		5.5,-25.5 5.5,-25.6 5.5,-25.8 5.6,-25.9 5.6,-26.4 5.5,-26.5 5.5,-26.6 5.5,-26.7 5.4,-26.9 5.3,-27 5.3,-27 5.1,-27.1 5.1,-27.2 
		4.9,-27.3 4.9,-27.3 4.7,-27.4 4.5,-27.5 4,-27.5 3.8,-27.4 3.6,-27.3 3.5,-27.3 3.4,-27.2 3.3,-27.1 3.3,-27 3.2,-27 3.1,-26.9 
		3,-26.7 2.9,-26.6 2.9,-26.5 2.9,-26.4 2.9,-25.9 2.9,-25.8 2.9,-25.6 3,-25.5 3,-25.4 3.2,-25.2 3.3,-25.1 3.5,-25 3.7,-24.8 
		3.8,-24.8 3.9,-24.7 4.6,-24.7 	"/>
	<text transform="matrix(1 0 0 -1 -17.4458 30.2627)" font-family="'Tahoma'" font-size="12.1353px">414CR</text>
	<line fill="none" stroke="#1A171B" stroke-width="0.2" stroke-miterlimit="6.92" x1="2.3" y1="22.5" x2="4.3" y2="-26.1"/>
</symbol>
<symbol  id="_x34_15BL" viewBox="-73.8 -40.9 147.5 81.8">
	<g id="Ebene_3_1_">
		<polygon fill-rule="evenodd" clip-rule="evenodd" fill="#CCCCCC" points="35.8,-7 -9.9,-7 -9.9,-14 -73.5,-14 -73.3,34.3 
			-59.4,34.2 -59.4,40.6 -26.6,40.6 -26.5,38.7 -21.3,38.8 -21.3,34.3 -15.2,34.4 -15.1,38.8 -8.9,38.8 -8.9,40.6 35.8,40.6 		"/>
		<polygon fill="none" stroke="#1A171B" stroke-width="0.5" stroke-miterlimit="6.92" points="35.8,-7 -9.9,-7 -9.9,-14 -73.5,-14 
			-73.3,34.3 -59.4,34.2 -59.4,40.6 -26.6,40.6 -26.5,38.7 -21.3,38.8 -21.3,34.3 -15.2,34.4 -15.1,38.8 -8.9,38.8 -8.9,40.6 
			35.8,40.6 		"/>
	</g>
	<polygon fill-rule="evenodd" clip-rule="evenodd" points="16,15.6 16.2,15.8 16.3,15.8 16.4,16 16.8,16.1 17.4,16.1 17.5,16.1 
		17.7,16 17.9,15.8 18,15.8 18.3,15.5 18.3,15.4 18.4,15.2 18.4,15.1 18.5,15 18.5,14.6 18.4,14.5 18.4,14.4 18.4,14.2 18.3,14.1 
		18.3,14 18.2,13.9 18.1,13.8 18,13.8 17.9,13.6 17.8,13.5 17.7,13.5 17.6,13.5 17.5,13.4 17.3,13.4 17.3,13.4 17,13.4 16.9,13.4 
		16.7,13.4 16.6,13.5 16.5,13.5 16.4,13.5 16.3,13.6 16.1,13.7 16.1,13.8 16,13.9 15.9,14 15.9,14.1 15.8,14.2 15.8,14.3 15.8,14.5 
		15.7,14.6 15.7,15 15.8,15.1 15.8,15.2 15.8,15.3 15.9,15.5 16,15.5 	"/>
	<text transform="matrix(1 0 0 -1 40.6904 -38.2773)" font-family="'Tahoma'" font-size="12.1353px">415BL</text>
	<line fill="none" stroke="#1A171B" stroke-width="0.2" stroke-miterlimit="6.92" x1="17.1" y1="14.7" x2="38.4" y2="-32.8"/>
</symbol>
<symbol  id="_x34_15BR" viewBox="-99.6 -37.9 199.3 75.8">
	<g id="Ebene_3_2_">
		<polygon fill-rule="evenodd" clip-rule="evenodd" fill="#CCCCCC" points="85.1,37.6 85.2,31 99.3,31 99.4,-17.1 36.1,-17 
			36.1,-10 -9.7,-10 -9.7,37.6 34.8,37.6 34.8,35.7 41.2,35.7 41.2,31.2 47.3,31.2 47.3,35.7 52.5,35.8 52.5,37.5 		"/>
		<polygon fill="none" stroke="#1A171B" stroke-width="0.5" stroke-miterlimit="6.92" points="85.1,37.6 52.5,37.5 52.5,35.8 
			47.3,35.7 47.3,31.2 41.2,31.2 41.2,35.7 34.8,35.7 34.8,37.6 -9.7,37.6 -9.7,-10 36.1,-10 36.1,-17 99.4,-17.1 99.3,31 85.2,31 
					"/>
	</g>
	<polygon fill-rule="evenodd" clip-rule="evenodd" points="4.1,2.5 4.2,2.3 4.2,2 4.3,1.9 4.3,1.7 4.2,1.5 4.2,1.3 4.1,1.2 4,0.9 
		3.8,0.8 3.7,0.7 3.6,0.6 3.2,0.4 2.6,0.4 2.4,0.5 2.3,0.6 2.2,0.6 2.1,0.7 1.9,0.8 1.9,0.9 1.7,1.1 1.6,1.3 1.6,1.7 1.5,1.7 
		1.5,1.9 1.6,2 1.6,2.3 1.6,2.4 1.7,2.4 1.8,2.6 1.9,2.7 1.9,2.8 2,2.8 2.1,2.9 2.5,3.1 2.6,3.1 2.7,3.1 3.1,3.1 3.2,3.1 3.3,3.1 
		3.5,3 3.8,2.9 3.9,2.8 3.9,2.7 	"/>
	
		<line fill="none" stroke="#000000" stroke-width="0.3" stroke-linecap="round" stroke-linejoin="round" stroke-miterlimit="3" x1="2.7" y1="1.7" x2="-60.8" y2="-33.6"/>
	<text transform="matrix(1 0 0 -1 -99.6328 -35.2793)" font-family="'Tahoma'" font-size="12.1353px">415BR</text>
</symbol>
<symbol  id="_x34_15CL" viewBox="-16.6 -35 33.2 69.9">
	<g id="Ebene_3_20_">
		<polygon fill-rule="evenodd" clip-rule="evenodd" fill="#CCCCCC" points="14.6,34.9 14.6,26.7 4,26.7 4,34.9 		"/>
		<polygon fill="none" stroke="#000000" stroke-width="0.2" stroke-miterlimit="6.92" points="14.6,34.9 4,34.9 4,26.7 14.6,26.7 		
			"/>
	</g>
	<text transform="matrix(1 0 0 -1 -16.6001 -32.3516)" font-family="'Tahoma'" font-size="12.1353px">415CL</text>
	<line fill="none" stroke="#1A171B" stroke-width="0.2" stroke-miterlimit="6.92" x1="1.5" y1="-18.9" x2="9.5" y2="29.9"/>
	<polygon fill-rule="evenodd" clip-rule="evenodd" points="8.6,31.4 8.8,31.5 8.9,31.6 9,31.7 9.3,31.8 9.9,31.8 10.1,31.8 
		10.3,31.7 10.4,31.6 10.5,31.5 10.9,31.2 10.9,31.1 10.9,30.9 11,30.9 11,30.7 11,30.3 11,30.2 11,30.1 10.9,29.9 10.9,29.9 
		10.9,29.8 10.7,29.6 10.7,29.5 10.5,29.5 10.5,29.4 10.4,29.3 10.3,29.3 10.2,29.2 10,29.1 9.9,29.1 9.8,29.1 9.5,29.1 9.4,29.1 
		9.3,29.1 9.2,29.2 9,29.3 8.9,29.3 8.9,29.4 8.7,29.4 8.7,29.5 8.5,29.6 8.5,29.7 8.4,29.9 8.4,29.9 8.3,30 8.3,30.2 8.3,30.3 
		8.3,30.7 8.3,30.8 8.3,30.9 8.4,31 8.5,31.2 8.5,31.2 	"/>
</symbol>
<symbol  id="_x34_15CR" viewBox="-22.2 -28.2 44.4 56.4">
	<g id="Ebene_3_22_">
		<polygon fill-rule="evenodd" clip-rule="evenodd" fill="#CCCCCC" points="-11.5,28.1 -11.5,19.9 -22.1,19.9 -22.1,28.1 		"/>
		<polygon fill="none" stroke="#000000" stroke-width="0.2" stroke-miterlimit="6.92" points="-11.5,28.1 -22.1,28.1 -22.1,19.9 
			-11.5,19.9 		"/>
	</g>
	<text transform="matrix(1 0 0 -1 -12.6743 -25.6016)" font-family="'Tahoma'" font-size="12.1353px">415CR</text>
	<line fill="none" stroke="#1A171B" stroke-width="0.2" stroke-miterlimit="6.92" x1="2.2" y1="-14.5" x2="-16.2" y2="23.1"/>
	<polygon fill-rule="evenodd" clip-rule="evenodd" points="-17.5,24.6 -17.3,24.8 -17.2,24.8 -17.1,24.9 -16.8,25.1 -16.2,25.1 
		-16,25 -15.8,24.9 -15.7,24.8 -15.5,24.8 -15.2,24.4 -15.2,24.3 -15.2,24.2 -15.1,24.1 -15,23.9 -15,23.6 -15.1,23.4 -15.1,23.3 
		-15.2,23.2 -15.2,23.1 -15.2,23 -15.3,22.9 -15.4,22.8 -15.5,22.7 -15.6,22.6 -15.7,22.5 -15.8,22.5 -15.9,22.5 -16,22.4 
		-16.2,22.4 -16.3,22.3 -16.5,22.3 -16.6,22.4 -16.8,22.4 -16.9,22.5 -17,22.5 -17.1,22.5 -17.2,22.6 -17.4,22.7 -17.4,22.8 
		-17.5,22.8 -17.6,22.9 -17.6,23.1 -17.7,23.2 -17.8,23.3 -17.8,23.4 -17.8,23.6 -17.8,23.9 -17.8,24.1 -17.8,24.2 -17.7,24.3 
		-17.6,24.4 -17.5,24.5 	"/>
</symbol>
<symbol  id="_x34_15DL" viewBox="-17.6 -28.7 35.2 57.4">
	<g id="Ebene_3_21_">
		<polygon fill-rule="evenodd" clip-rule="evenodd" fill="#CCCCCC" points="-6.9,28.6 -6.9,20.4 -17.5,20.4 -17.5,28.6 		"/>
		<polygon fill="none" stroke="#000000" stroke-width="0.2" stroke-miterlimit="6.92" points="-6.9,28.6 -17.5,28.6 -17.5,20.4 
			-6.9,20.4 		"/>
	</g>
	<text transform="matrix(1 0 0 -1 -16.5493 -26.1016)" font-family="'Tahoma'" font-size="12.1353px">415DL</text>
	<line fill="none" stroke="#1A171B" stroke-width="0.2" stroke-miterlimit="6.92" x1="0.6" y1="-14" x2="-11.7" y2="23.6"/>
	<polygon fill-rule="evenodd" clip-rule="evenodd" points="-13,24.9 -12.9,25 -12.9,25.1 -12.7,25.3 -12.6,25.3 -12.5,25.4 
		-12.1,25.6 -11.5,25.6 -11.4,25.5 -11.1,25.4 -11,25.3 -10.9,25.3 -10.6,24.9 -10.6,24.8 -10.5,24.7 -10.5,24.6 -10.4,24.4 
		-10.4,24.1 -10.5,23.9 -10.5,23.8 -10.5,23.7 -10.6,23.6 -10.6,23.5 -10.7,23.4 -10.8,23.3 -10.9,23.2 -11,23.1 -11.1,23 -11.2,23 
		-11.3,23 -11.4,22.9 -11.6,22.9 -11.6,22.8 -11.9,22.8 -12,22.9 -12.2,22.9 -12.2,23 -12.4,23 -12.5,23 -12.6,23.1 -12.7,23.2 
		-12.8,23.3 -12.9,23.3 -13,23.4 -13,23.6 -13.1,23.7 -13.1,23.8 -13.1,23.9 -13.2,24.1 -13.2,24.4 -13.1,24.6 -13.1,24.7 
		-13.1,24.8 	"/>
</symbol>
<symbol  id="_x34_15DR" viewBox="-17.9 -30 35.8 59.9">
	<g id="Ebene_3_23_">
		<polygon fill-rule="evenodd" clip-rule="evenodd" fill="#CCCCCC" points="15.7,29.9 15.7,21.7 5.1,21.7 5.1,29.9 		"/>
		<polygon fill="none" stroke="#000000" stroke-width="0.2" stroke-miterlimit="6.92" points="15.7,29.9 5.1,29.9 5.1,21.7 
			15.7,21.7 		"/>
	</g>
	<text transform="matrix(1 0 0 -1 -17.917 -27.3516)" font-family="'Tahoma'" font-size="12.1353px">415DR</text>
	<line fill="none" stroke="#1A171B" stroke-width="0.2" stroke-miterlimit="6.92" x1="1.9" y1="-14" x2="10.7" y2="24.9"/>
	<polygon fill-rule="evenodd" clip-rule="evenodd" points="9.7,26.2 9.7,26.2 9.8,26.4 9.9,26.5 10.1,26.6 10.2,26.7 10.5,26.8 
		11.1,26.8 11.3,26.8 11.5,26.7 11.6,26.6 11.7,26.5 12,26.2 12,26.1 12.1,25.9 12.2,25.9 12.2,25.7 12.2,25.3 12.2,25.2 12.2,25.1 
		12.1,24.9 12,24.9 12,24.8 11.9,24.6 11.9,24.5 11.7,24.5 11.7,24.4 11.5,24.3 11.4,24.3 11.4,24.2 11.2,24.1 11,24.1 11,24.1 
		10.7,24.1 10.6,24.1 10.4,24.1 10.4,24.2 10.2,24.3 10.1,24.3 10.1,24.4 9.9,24.4 9.8,24.5 9.7,24.6 9.7,24.7 9.6,24.9 9.6,24.9 
		9.5,25 9.5,25.2 9.4,25.3 9.4,25.7 9.5,25.8 9.5,25.9 9.6,26 	"/>
</symbol>
<symbol  id="lt_x5F_wi_x5F_lh" viewBox="-97.3 -18.7 194.5 37.5">
	<line fill="none" stroke="#1A171B" stroke-width="0.5" stroke-miterlimit="6.92" x1="-93.3" y1="14.7" x2="-40" y2="-11.7"/>
	<g id="Ebene_3_17_">
		<g>
			<path fill-rule="evenodd" clip-rule="evenodd" fill="#FFFF00" d="M-95.7,17.2c0.7,0.7,1.5,1,2.5,1c0.9,0,1.8-0.4,2.4-1
				c0.7-0.7,1.1-1.5,1.1-2.5s-0.4-1.8-1.1-2.5c-0.7-0.7-1.5-1.1-2.4-1.1c-1,0-1.8,0.4-2.5,1.1c-0.7,0.7-1.1,1.5-1.1,2.5
				S-96.4,16.5-95.7,17.2z"/>
			<path fill="none" stroke="#2D2C2E" stroke-miterlimit="5" d="M-95.7,17.2c0.7,0.7,1.5,1,2.5,1c0.9,0,1.8-0.4,2.4-1
				c0.7-0.7,1.1-1.5,1.1-2.5s-0.4-1.8-1.1-2.5c-0.7-0.7-1.5-1.1-2.4-1.1c-1,0-1.8,0.4-2.5,1.1c-0.7,0.7-1.1,1.5-1.1,2.5
				S-96.4,16.5-95.7,17.2z"/>
		</g>
	</g>
	<text transform="matrix(1 0 0 -1 -37.2241 -16.3682)" enable-background="new    "><tspan x="0" y="0" font-family="'Tahoma'" font-size="11px">WING INSPECTION LIGH</tspan><tspan x="122" y="0" font-family="'Tahoma'" font-size="11px">T</tspan><tspan x="128.4" y="0" font-family="'Tahoma'" font-size="11px">S</tspan></text>
</symbol>
<symbol  id="sch_x5F_dm" viewBox="-51.3 -55.9 133.6 107.7">
	<polyline fill="none" stroke="#000000" stroke-width="0.5" stroke-miterlimit="6.92" points="76.6,49 40.2,-43.4 19.1,-43.3 	"/>
	<g id="Ebene_3_25_">
		<g>
			<path fill-rule="evenodd" clip-rule="evenodd" fill="#FF0000" d="M71.1,45.9v4.4c0,0.9,0.6,1.3,1.7,1.3h7.6
				c1.1,0,1.7-0.5,1.7-1.3v-4.4c0-0.9-0.5-1.3-1.7-1.3h-7.6C71.7,44.6,71.1,45.1,71.1,45.9z"/>
			<path fill="none" stroke="#000000" stroke-width="0.5" stroke-miterlimit="6.92" d="M71.1,45.9c0-0.9,0.6-1.3,1.7-1.3h7.6
				c1.1,0,1.7,0.4,1.7,1.3v4.4c0,0.9-0.5,1.3-1.7,1.3h-7.6c-1.1,0-1.7-0.5-1.7-1.3V45.9z"/>
		</g>
		<g>
			<g>
				<path fill-rule="evenodd" clip-rule="evenodd" fill="#FF0000" d="M74.2,45.8c-0.8,0-1.2,0.3-1.2,0.8v2.9c0,0.6,0.4,0.9,1.2,0.9
					h4.9c0.7,0,1.1-0.3,1.1-0.9v-2.9c0-0.6-0.3-0.8-1.1-0.8H74.2z"/>
				<path fill="none" stroke="#000000" stroke-width="0.5" stroke-miterlimit="6.92" d="M74.2,45.8h4.9c0.7,0,1.1,0.3,1.1,0.8v2.9
					c0,0.6-0.3,0.9-1.1,0.9h-4.9c-0.8,0-1.2-0.3-1.2-0.9v-2.9C73,46.1,73.4,45.8,74.2,45.8z"/>
			</g>
		</g>
	</g>
	<text transform="matrix(1 0 0 -1 -41.5195 -40.4941)" font-family="'Tahoma'" font-size="11px">NACELLE</text>
	<text transform="matrix(1 0 0 -1 -51.2979 -53.4941)" enable-background="new    "><tspan x="0" y="0" font-family="'Tahoma'" font-size="11px">DRAIN M</tspan><tspan x="44.2" y="0" font-family="'Tahoma'" font-size="11px">A</tspan><tspan x="50.8" y="0" font-family="'Tahoma'" font-size="11px">ST</tspan></text>
</symbol>
<g>
	<defs>
		<rect id="SVGID_1_" x="361" y="267" width="147.5" height="81.8"/>
	</defs>
	<clipPath id="SVGID_2_">
		<use xlink:href="#SVGID_1_"  overflow="visible"/>
	</clipPath>
	<g clip-path="url(#SVGID_2_)">
		
			<use xlink:href="#_x34_15BL"  width="147.5" height="81.8" id="XMLID_2_" x="-73.8" y="-40.9" transform="matrix(1 0 0 -1 434.8028 308.8462)" overflow="visible"/>
	</g>
</g>
<g>
	<defs>
		<rect id="SVGID_3_" x="238.8" y="555.1" width="199.3" height="75.8"/>
	</defs>
	<clipPath id="SVGID_4_">
		<use xlink:href="#SVGID_3_"  overflow="visible"/>
	</clipPath>
	<g clip-path="url(#SVGID_4_)">
		
			<use xlink:href="#_x34_15BR"  width="199.3" height="75.8" x="-99.6" y="-37.9" transform="matrix(1 0 0 -1 337.4756 593.9932)" overflow="visible"/>
	</g>
</g>
<rect x="279.1" y="604" fill="none" stroke="#1A171B" stroke-width="0.5" stroke-miterlimit="6.92" width="94.1" height="7"/>
<rect x="424.7" y="316.4" fill="none" stroke="#1A171B" stroke-width="0.5" stroke-miterlimit="6.92" width="94.1" height="6.6"/>
<g>
	<defs>
		<rect id="SVGID_5_" x="123.3" y="31.7" width="512" height="549.2"/>
	</defs>
	<clipPath id="SVGID_6_">
		<use xlink:href="#SVGID_5_"  overflow="visible"/>
	</clipPath>
	<g clip-path="url(#SVGID_6_)">
		
			<use xlink:href="#_x34_11AL"  width="512" height="549.2" id="XMLID_4_" x="-256" y="-274.6" transform="matrix(1 0 0 -1 378.2954 306.3036)" overflow="visible"/>
	</g>
</g>
<g>
	<defs>
		<rect id="SVGID_7_" x="215.6" y="30.2" width="407.5" height="570.5"/>
	</defs>
	<clipPath id="SVGID_8_">
		<use xlink:href="#SVGID_7_"  overflow="visible"/>
	</clipPath>
	<g clip-path="url(#SVGID_8_)">
		
			<use xlink:href="#_x34_12AT"  width="407.6" height="570.5" x="-203.8" y="-285.2" transform="matrix(1 0 0 -1 419.3581 316.4067)" overflow="visible"/>
	</g>
</g>
<g>
	<defs>
		<rect id="SVGID_9_" x="197.2" y="60.1" width="100" height="245.3"/>
	</defs>
	<clipPath id="SVGID_10_">
		<use xlink:href="#SVGID_9_"  overflow="visible"/>
	</clipPath>
	<g clip-path="url(#SVGID_10_)">
		
			<use xlink:href="#_x34_12AL"  width="100" height="245.3" x="-50" y="-122.7" transform="matrix(1 0 0 -1 246.1854 182.8115)" overflow="visible"/>
	</g>
</g>
<g>
	<defs>
		<rect id="SVGID_11_" x="241" y="-1.2" width="367.5" height="593.6"/>
	</defs>
	<clipPath id="SVGID_12_">
		<use xlink:href="#SVGID_11_"  overflow="visible"/>
	</clipPath>
	<g clip-path="url(#SVGID_12_)">
		
			<use xlink:href="#_x34_12AR"  width="367.5" height="593.6" x="-183.8" y="-296.8" transform="matrix(1 0 0 -1 424.812 295.6097)" overflow="visible"/>
	</g>
</g>
<g>
	<defs>
		<rect id="SVGID_13_" x="307.8" y="44.6" width="60.4" height="85.8"/>
	</defs>
	<clipPath id="SVGID_14_">
		<use xlink:href="#SVGID_13_"  overflow="visible"/>
	</clipPath>
	<g clip-path="url(#SVGID_14_)">
		
			<use xlink:href="#_x34_12DT"  width="60.4" height="85.8" id="XMLID_5_" x="-30.2" y="-42.9" transform="matrix(1 0 0 -1 337.988 88.4601)" overflow="visible"/>
	</g>
</g>
<g>
	<defs>
		<rect id="SVGID_15_" x="347.6" y="3.9" width="51.7" height="66.5"/>
	</defs>
	<clipPath id="SVGID_16_">
		<use xlink:href="#SVGID_15_"  overflow="visible"/>
	</clipPath>
	<g clip-path="url(#SVGID_16_)">
		
			<use xlink:href="#_x34_12ET"  width="51.7" height="66.5" x="-25.8" y="-33.3" transform="matrix(1 0 0 -1 373.4375 37.1471)" overflow="visible"/>
	</g>
</g>
<g>
	<defs>
		<rect id="SVGID_17_" x="278.8" y="7" width="276.2" height="560.3"/>
	</defs>
	<clipPath id="SVGID_18_">
		<use xlink:href="#SVGID_17_"  overflow="visible"/>
	</clipPath>
	<g clip-path="url(#SVGID_18_)">
		
			<use xlink:href="#_x34_14AT"  width="275.9" height="560.3" id="XMLID_1_" x="-137.9" y="-280.1" transform="matrix(1 0 0 -1 416.697 287.1862)" overflow="visible"/>
	</g>
</g>
<g>
	<defs>
		<rect id="SVGID_19_" x="262.2" y="31.6" width="298.2" height="526"/>
	</defs>
	<clipPath id="SVGID_20_">
		<use xlink:href="#SVGID_19_"  overflow="visible"/>
	</clipPath>
	<g clip-path="url(#SVGID_20_)">
		
			<use xlink:href="#_x34_12CT"  width="298.2" height="526" x="-149.1" y="-263" transform="matrix(1 0 0 -1 410.3237 294.625)" overflow="visible"/>
	</g>
</g>
<g>
	<defs>
		<rect id="SVGID_21_" x="407.8" y="186.6" width="114.2" height="88.6"/>
	</defs>
	<clipPath id="SVGID_22_">
		<use xlink:href="#SVGID_21_"  overflow="visible"/>
	</clipPath>
	<g clip-path="url(#SVGID_22_)">
		
			<use xlink:href="#_x34_13BL"  width="114.2" height="88.6" x="-57.1" y="-44.3" transform="matrix(1 0 0 -1 464.9383 230.967)" overflow="visible"/>
	</g>
</g>
<g>
	<defs>
		<rect id="SVGID_23_" x="146.9" y="289.9" width="430.3" height="321.5"/>
	</defs>
	<clipPath id="SVGID_24_">
		<use xlink:href="#SVGID_23_"  overflow="visible"/>
	</clipPath>
	<g clip-path="url(#SVGID_24_)">
		
			<use xlink:href="#_x34_12AB"  width="430.3" height="321.5" x="-215.2" y="-160.7" transform="matrix(1 0 0 -1 361.0952 450.5996)" overflow="visible"/>
	</g>
</g>
<g>
	<defs>
		<rect id="SVGID_25_" x="509.1" y="216.2" width="110.4" height="53.3"/>
	</defs>
	<clipPath id="SVGID_26_">
		<use xlink:href="#SVGID_25_"  overflow="visible"/>
	</clipPath>
	<g clip-path="url(#SVGID_26_)">
		
			<use xlink:href="#_x34_14BL"  width="110.4" height="53.3" x="-55.2" y="-26.6" transform="matrix(1 0 0 -1 564.3014 242.834)" overflow="visible"/>
	</g>
</g>
<g>
	<defs>
		<rect id="SVGID_27_" x="190.9" y="287.3" width="429.5" height="318.3"/>
	</defs>
	<clipPath id="SVGID_28_">
		<use xlink:href="#SVGID_27_"  overflow="visible"/>
	</clipPath>
	<g clip-path="url(#SVGID_28_)">
		
			<use xlink:href="#_x34_14BB"  width="430.5" height="318.3" id="XMLID_12_" x="-214.8" y="-159.1" transform="matrix(1 0 0 -1 405.6179 446.4554)" overflow="visible"/>
	</g>
</g>
<g>
	<defs>
		<rect id="SVGID_29_" x="169.4" y="535.4" width="111" height="39.8"/>
	</defs>
	<clipPath id="SVGID_30_">
		<use xlink:href="#SVGID_29_"  overflow="visible"/>
	</clipPath>
	<g clip-path="url(#SVGID_30_)">
		
			<use xlink:href="#_x34_14AR"  width="111" height="39.8" x="-55.5" y="-19.9" transform="matrix(1 0 0 -1 223.8719 555.2755)" overflow="visible"/>
	</g>
</g>
<g>
	<defs>
		<rect id="SVGID_31_" x="216.5" y="495" width="73.4" height="62.2"/>
	</defs>
	<clipPath id="SVGID_32_">
		<use xlink:href="#SVGID_31_"  overflow="visible"/>
	</clipPath>
	<g clip-path="url(#SVGID_32_)">
		
			<use xlink:href="#_x34_14BR"  width="73.4" height="62.2" x="-36.7" y="-31.1" transform="matrix(1 0 0 -1 252.2218 526.0872)" overflow="visible"/>
	</g>
</g>
<g>
	<defs>
		<rect id="SVGID_33_" x="295.4" y="482.7" width="34.9" height="81.5"/>
	</defs>
	<clipPath id="SVGID_34_">
		<use xlink:href="#SVGID_33_"  overflow="visible"/>
	</clipPath>
	<g clip-path="url(#SVGID_34_)">
		
			<use xlink:href="#_x34_14CR"  width="34.9" height="81.5" x="-17.4" y="-40.7" transform="matrix(1 0 0 -1 311.8393 523.4365)" overflow="visible"/>
	</g>
</g>
<g>
	<defs>
		<rect id="SVGID_35_" x="349.2" y="571.7" width="76.8" height="60.9"/>
	</defs>
	<clipPath id="SVGID_36_">
		<use xlink:href="#SVGID_35_"  overflow="visible"/>
	</clipPath>
	<g clip-path="url(#SVGID_36_)">
		
			<use xlink:href="#_x34_13ER"  width="76.8" height="64.9" id="XMLID_13_" x="-38.4" y="-34.4" transform="matrix(1 0 0 -1 386.6177 603.1128)" overflow="visible"/>
	</g>
</g>
<g>
	<defs>
		<rect id="SVGID_37_" x="436.7" y="555.9" width="70.7" height="81.8"/>
	</defs>
	<clipPath id="SVGID_38_">
		<use xlink:href="#SVGID_37_"  overflow="visible"/>
	</clipPath>
	<g clip-path="url(#SVGID_38_)">
		
			<use xlink:href="#_x34_12BR"  width="70.7" height="81.8" x="-35.4" y="-40.9" transform="matrix(1 0 0 -1 472.0842 597.7804)" overflow="visible"/>
	</g>
</g>
<g>
	<defs>
		<rect id="SVGID_39_" x="518.7" y="247.6" width="109" height="39.8"/>
	</defs>
	<clipPath id="SVGID_40_">
		<use xlink:href="#SVGID_39_"  overflow="visible"/>
	</clipPath>
	<g clip-path="url(#SVGID_40_)">
		
			<use xlink:href="#_x34_14AL"  width="109" height="39.8" id="XMLID_10_" x="-54.5" y="-19.9" transform="matrix(1 0 0 -1 573.2127 267.512)" overflow="visible"/>
	</g>
</g>
<g>
	<defs>
		<rect id="SVGID_41_" x="372.2" y="455.4" width="50.7" height="107.5"/>
	</defs>
	<clipPath id="SVGID_42_">
		<use xlink:href="#SVGID_41_"  overflow="visible"/>
	</clipPath>
	<g clip-path="url(#SVGID_42_)">
		
			<use xlink:href="#_x34_13BR"  width="50.7" height="107.5" x="-25.3" y="-53.7" transform="matrix(1 0 0 -1 397.5497 509.1219)" overflow="visible"/>
	</g>
</g>
<g>
	<defs>
		<rect id="SVGID_43_" x="422.6" y="455.7" width="86.3" height="107.3"/>
	</defs>
	<clipPath id="SVGID_44_">
		<use xlink:href="#SVGID_43_"  overflow="visible"/>
	</clipPath>
	<g clip-path="url(#SVGID_44_)">
		
			<use xlink:href="#_x34_13DR"  width="86.3" height="107.3" x="-43.1" y="-53.7" transform="matrix(1 0 0 -1 465.7385 509.3471)" overflow="visible"/>
	</g>
</g>
<g>
	<defs>
		<rect id="SVGID_45_" x="430.1" y="39" width="93.1" height="77.2"/>
	</defs>
	<clipPath id="SVGID_46_">
		<use xlink:href="#SVGID_45_"  overflow="visible"/>
	</clipPath>
	<g clip-path="url(#SVGID_46_)">
		
			<use xlink:href="#_x34_13AT"  width="93.1" height="77.2" x="-46.6" y="-38.6" transform="matrix(1 0 0 -1 476.6948 78.6211)" overflow="visible"/>
	</g>
</g>
<g>
	<defs>
		<rect id="SVGID_47_" x="217.3" y="0.1" width="79.8" height="60.6"/>
	</defs>
	<clipPath id="SVGID_48_">
		<use xlink:href="#SVGID_47_"  overflow="visible"/>
	</clipPath>
	<g clip-path="url(#SVGID_48_)">
		
			<use xlink:href="#_x34_12BT"  width="80" height="60.6" x="-40" y="-30.3" transform="matrix(1 0 0 -1 256.1935 30.3719)" overflow="visible"/>
	</g>
</g>
<g>
	<defs>
		<rect id="SVGID_49_" x="372.5" y="284.8" width="84.3" height="94"/>
	</defs>
	<clipPath id="SVGID_50_">
		<use xlink:href="#SVGID_49_"  overflow="visible"/>
	</clipPath>
	<g clip-path="url(#SVGID_50_)">
		
			<use xlink:href="#_x34_13EL"  width="84.3" height="94" x="-42.2" y="-47" transform="matrix(1 0 0 -1 414.7068 332.8709)" overflow="visible"/>
	</g>
</g>
<g>
	<defs>
		<rect id="SVGID_51_" x="352.6" y="185.2" width="34.1" height="90.1"/>
	</defs>
	<clipPath id="SVGID_52_">
		<use xlink:href="#SVGID_51_"  overflow="visible"/>
	</clipPath>
	<g clip-path="url(#SVGID_52_)">
		
			<use xlink:href="#_x34_13DL"  width="34.1" height="90.1" x="-17.1" y="-45.1" transform="matrix(1 0 0 -1 368.6945 230.3073)" overflow="visible"/>
	</g>
</g>
<g>
	<defs>
		<rect id="SVGID_53_" x="283.8" y="582.5" width="87.3" height="85.5"/>
	</defs>
	<clipPath id="SVGID_54_">
		<use xlink:href="#SVGID_53_"  overflow="visible"/>
	</clipPath>
	<g clip-path="url(#SVGID_54_)">
		
			<use xlink:href="#_x34_13CR"  width="87.3" height="85.5" x="-43.7" y="-42.8" transform="matrix(1 0 0 -1 327.4493 625.2488)" overflow="visible"/>
	</g>
</g>
<g>
	<defs>
		<rect id="SVGID_55_" x="491" y="599.4" width="194.5" height="37.5"/>
	</defs>
	<clipPath id="SVGID_56_">
		<use xlink:href="#SVGID_55_"  overflow="visible"/>
	</clipPath>
	<g clip-path="url(#SVGID_56_)">
		
			<use xlink:href="#lt_x5F_wi_x5F_lh"  width="194.5" height="37.5" id="XMLID_3_" x="-97.3" y="-18.7" transform="matrix(1 0 0 -1 588.3235 619.0925)" overflow="visible"/>
	</g>
</g>
<g>
	<defs>
		<rect id="SVGID_57_" x="190.8" y="314" width="164.6" height="103.7"/>
	</defs>
	<clipPath id="SVGID_58_">
		<use xlink:href="#SVGID_57_"  overflow="visible"/>
	</clipPath>
	<g clip-path="url(#SVGID_58_)">
		
			<use xlink:href="#sch_x5F_dm"  width="133.6" height="107.7" id="XMLID_11_" x="-51.3" y="-55.9" transform="matrix(1 0 0 -1 272.103 366.8675)" overflow="visible"/>
	</g>
</g>
<g>
	<defs>
		<rect id="SVGID_59_" x="272.4" y="268.9" width="90" height="72.6"/>
	</defs>
	<clipPath id="SVGID_60_">
		<use xlink:href="#SVGID_59_"  overflow="visible"/>
	</clipPath>
	<g clip-path="url(#SVGID_60_)">
		
			<use xlink:href="#_x34_12BL"  width="90" height="72.6" x="-45" y="-36.3" transform="matrix(1 0 0 -1 316.3863 306.2397)" overflow="visible"/>
	</g>
</g>
<g id="border">
	<g>
		
			<path fill="none" stroke="#333333" stroke-width="0.55" stroke-linecap="round" stroke-linejoin="round" stroke-miterlimit="3" d="
			M607.2,55.1l0.2-0.1c0.1-0.3-0.8-0.9-3-1.9c-2.1-0.9-4.7-1.9-7.8-3c-3.3-1.2-6-2-8.2-2.5L532,34.5v21h75.4 M532,34.5l-2.7-0.7
			c-3.7-0.7-6.4-1.2-8.3-1.5c-3.4-0.6-6.2-0.9-8.4-0.9H471v48.1h41.6c2.4,0,5.2-0.3,8.6-0.8c1.9-0.3,4.6-0.8,8.2-1.6l59.2-13.7
			c2.4-0.6,5.2-1.4,8.2-2.5c3.1-1.1,5.7-2.1,7.8-3c2.1-0.9,3.1-1.5,3-1.8c0,0-0.1-0.1-0.2-0.2 M532,55.5v20.7 M443.8,41.1
			c-0.4-0.4-0.8-0.6-1.3-0.7h-10.1c-0.5,0.1-1,0.3-1.4,0.7c-0.4,0.4-0.6,0.8-0.6,1.3V68c0.1,0.6,0.3,1,0.7,1.4
			c0.4,0.3,0.8,0.5,1.2,0.6h9.9c0.6,0,1-0.2,1.5-0.6c0.4-0.4,0.7-0.8,0.7-1.3V42.3C444.4,41.8,444.1,41.4,443.8,41.1z M226.5,31.5
			h14.6h54.8h65.6H426h44.9 M426,31.5v48.1h44.9 M359.2,41.1c-0.4-0.4-0.8-0.6-1.4-0.7H350c-0.5,0.1-1,0.3-1.4,0.7s-0.6,0.8-0.6,1.3
			V68c0,0.5,0.2,1,0.6,1.3c0.4,0.3,0.8,0.5,1.3,0.6h7.9c0.5,0,0.9-0.2,1.2-0.6c0.4-0.4,0.7-0.8,0.7-1.3l0.1-25.7
			C359.8,41.8,359.6,41.4,359.2,41.1z M295.9,31.5v19v9.9v19.2h65.6V31.5l32.3,24l32.2-24 M361.5,79.6H426l-32.2-24L361.5,79.6z
			 M408.1,239.5l-29.3-1.1c-5.7,0.2-10.8,0.8-15.4,1.6l32,11.6l29.9-9.6C419.5,240.9,413.8,240.1,408.1,239.5z M395.4,251.6
			l30.1,10.9c0.1,0,0.1,0,0.1,0v-20.6l-0.4,0.1 M408,265.4l0,3.4v1.9h5.1v4.5h6.2v-4.5h6.2v-1.8V264c-4.3,0.7-10,1.1-17,1.4
			 M425.6,262.5c0.1,0,0.2,0,0.2,0 M375.2,275.1h-14.1v38.5v9.8h63.6v-7h45.8v-42.1v-5.5h-44.8 M470.4,268.8v-26.4l-62.2-2.9
			c-5.6-0.6-11.2-1-16.6-1.1c-4.5-0.1-8.7-0.1-12.6,0.1 M353.5,238.2l7.6,0.1l17.8,0.1 M375.2,265h-1.1l-0.4,0h-0.5l-0.2,0h-0.5
			l-0.2,0h-1.2l-0.2,0h-0.5l-0.1,0H370l-0.2,0h-0.3l-0.1-0.1h-0.2l-0.2,0h-0.3l-0.2,0h-0.7l-0.7-0.1h-0.2l-0.2,0h-0.3l-0.2,0h-0.5
			l-0.5-0.1h-0.2l-0.7-0.1h-0.2l-0.2,0h-0.2l-0.9-0.2h-0.2l-0.5-0.1h-0.3 M395.4,251.6l-31.8,10.2v0c8,1.2,17.9,1.9,29.5,2.1
			c13.1,0.2,23.9-0.3,32.3-1.5 M361,275.1v-4.9v-31.9 M375.2,268.8h32.9 M363.6,261.8l-0.2-21.8 M569.2,276.6l-5.9-4.6l-2.2-2.4
			l-1.8-3.1l-0.5-2.1l1.6-9.8l-28.7-4.9l-12.8-1.8v4.7v16.4v10.1l20,2.4l37.8,5.6l-0.4-6.5L569.2,276.6z M576.7,287.3l2.9,0.4
			l27.3,4.6l-24.7-8.8l-6-2.8 M518.9,252.8l-9.6-1.2v16.6l9.6,1.1 M470.4,242.4l32.5,3.4l15.9,2.2 M470.4,316.4h48.4v6.2l30.5-0.9
			l27.7-4.6l2.6-29.4 M518.8,322.6v0.4 M518.8,322.6l-28.1,0.8h-66 M606.9,292.3l-0.4,13l-0.7,2.5l-0.8,1.9l-0.8,0.9l-0.9,0.6
			l-3.3,1.3l-9,2.2l-14.1,2.4l0,0.5 M470.4,274.2l48.5,5.1 M225.6,31.5l-3.6,0.1l-3.4,0.4l-2.2,0.7c-0.2,0.8-0.4,2.8-0.6,6.2
			c-0.2,4.1-0.3,9.1-0.4,15l-0.1,2.8c0,5.6,0.1,10.6,0.3,14.8c0.2,4.1,0.4,6.3,0.8,6.6 M216.6,32.4c-0.1,0-0.1,0.2-0.1,0.3
			 M241.1,55.5v-5.2V31.5 M226.5,79.6h14.6V60.4v-4.8 M216.4,78.4l2.2,0.7l3.4,0.3 M241.1,79.6h54.8 M241.1,60.4h54.8 M203.7,292.3
			c1,0,3.3,0.1,6.9,0.4c1.1,0.1,2.1,0.1,2.9,0.2c1.9,0.1,3.2,0.2,3.9,0.2 M221.9,294c-0.7-0.3-1.4-0.4-2.1-0.4 M222.4,294.2
			c-0.2-0.1-0.3-0.2-0.5-0.2 M224.1,290.1h16.9 M222.3,300.3l0.2-0.5l0.2-0.2l0.1-0.2l0.2-0.1l0.5-0.1c0.8-0.5,1.1-1.2,1.1-2
			c0-0.7-0.3-1.3-0.8-1.8c-0.5-0.4-1-0.8-1.5-1 M222.3,300.5l0.7,18.8c0.2,1.5,3.5,2.6,10.1,3.4c6.4,0.7,14.7,0.9,25,0.7
			c0.3,0,0.5,0,0.8,0H361 M191.4,591.8l0.3,1.9l0.9,2.8l0.5,0.8l0.8,0.9l0.9,0.7l2,0.9l24.3,4.9l-2.6-29.2l-27.3,4.7L191.4,591.8z
			 M191.1,580l17.6-6l13.1-5.8l2.4-1.1l4.6-2.8l4.8-3.6l2.1-2l1.2-1.5l1.7-3.1l0.3-0.8l0.2-1.3l-1.6-9.8l28.7-4.8l12.9-1.8l16-2.2
			l32.5-3.5l61.8-2.8c5.6-0.6,11.1-1,16.5-1.2c4.6-0.1,9-0.1,13.1,0.1l18-0.2 M220.9,604.6l19,3.9l39.2,2V604h48.5v-42.2L307,564
			l-27.9,3l-20,2.3l-37.7,5.6l-3.1,0.4 M221.4,574.9l0.3-6.7 M307,564v-27.7h15.5v2.2h5V530 M279.1,535.7v4.7l9.5-1.2v16.5l-9.5,1.2
			v10 M279.1,540.4v16.5 M574.9,586.9l0.4,0.3l0.2,0.2l0.2,0.3l0.1,0.4L575,607c-0.2,1.5-3.4,2.6-9.8,3.3c-6.4,0.7-14.8,1-25.2,0.7
			l-103,0l-63.6,0l-85.8-0.1l-8.4-0.4v0.3 M220.9,604.6l0.1,0.7 M575.6,581.9c0.9-0.4,1.8-0.7,2.8-0.8 M575.6,581.9
			c-0.5,0.2-1,0.5-1.4,0.9c-0.6,0.5-1,1.1-1,1.9c0,0.9,0.4,1.6,1.2,2 M372.3,529.5v20.6l0.3-0.1l30.1-10.8L372.3,529.5L372.3,529.5
			l-0.8,0.1 M433.6,527.5c-4.5-0.8-9.4-1.2-14.7-1.5l-29.6,1.1c-5.5,0.6-11,1.3-16.6,2.3l-0.4,0.1 M327.6,561.8v-5.4v-17.9 M437,611
			v-10.5v-37.7h-14.1v-6.3H390v1.8h-5.2v4.5h-6.1v-4.5h-6.4v-1.8h-44.7 M372.6,551.7c4.8,0.7,10.6,1.1,17.4,1.3v3.4 M372.3,551.7
			v4.8 M372.6,550c8.7,1.2,19.4,1.7,32.1,1.5c11.4-0.2,21.3-0.9,29.7-2.1l-31.8-10.2 M423.3,552.8l0.2,0h0.7l0.2,0h0.5l0.2-0.1h0.8
			l0.2,0h0.6l0.4,0h0.4l0.2,0h0.2l0.2-0.1h0.3l0.2,0h0.5l0.5-0.1h0.6l0.5-0.1h0.1l0.3,0h0.2l0.5-0.1h0.2l0.2,0h0.2l0.3-0.1h0.2
			l0.8-0.1h0.2l0.5-0.1h0.2l0.5-0.1h0.3l0.9-0.2h0.2l0.2,0v-25.2 M434.5,549.4c0,0,0.1,0,0.1,0v-21.7l-31.9,11.5 M437,562.8v-5.7
			v-5.9 M422.9,556.5v-3.7 M416.4,581h8.5v-8.2h-8.5V581z M423.1,609.2h10.6V601h-10.6V609.2z M373.3,610.9V604h-45.7"/>
		
			<path fill="none" stroke="#333333" stroke-width="0.25" stroke-linecap="round" stroke-linejoin="round" stroke-miterlimit="3" d="
			M518.8,286.2v-2.9 M518.8,295.5v-5.8 M518.8,311.3v-3 M518.8,304.8v-5.6 M279.1,583.3V577 M279.1,573v-3.1 M279.1,593.7v-6.4
			 M279.1,600.8v-3.2"/>
		<path fill="none" stroke="#333333" stroke-width="0.5" stroke-miterlimit="6.92" d="M361,270.2h-66.2l0,35l66.3,8.4 M375.2,265
			v3.7v6.4v0.2 M241.1,55.5h-24.9 M241.1,50.3l54.8,0.2 M294.8,270.2l0-30.9l-26.1,1.4l-6,0.5l-11.4,1.2l-10.2,2.1l-0.1,45.5
			l-0.1,8.2l53.8,6.9 M213.4,292.9c-3.4-0.1-6.6-0.3-9.8-0.6c-10.6-1-19.4-2.9-26.2-5.9c-9.4-4.9-13.9-9.9-13.4-14.9
			c0.4-4.5,4.9-9.1,13.4-14c11.3-4.3,24.5-7.4,39.4-9.4l24.1-3.6 M213.4,292.9c1.1,0,2.3,0.1,3.5,0.1v-44.9 M217.4,293.1L217,293
			 M219.8,293.6l2.1,0.5l0.1-0.1 M222.4,294.2l-0.6-0.1l-1,1.7 M217.4,293.1l2.4,0.5 M224.1,290.1l-2.2,3.9 M437,525.9h27l39.4,1
			h13.4l9.5,0.6c4.9-0.1,15.5,1.3,31.8,4.1c8.1,1.4,15.8,2.8,23,4.2 M503.4,527.3v29.8v35l54-6.8v-7.8v-45.8 M578.3,581.2h2.9v-0.5
			v-44.9c15,2,28.1,5.2,39.4,9.5c8.5,4.9,13,9.5,13.4,14c0.6,5-3.9,10-13.3,14.9c-9.5,4.1-22.7,6.3-39.5,6.5 M572.2,577.2l0.2,0.3
			l3.1,4.4l0.2,0.2 M557.3,577.5h15.1 M437,557.1h66.4 M437,600.5l66.4-8.4 M353.5,238.2l-58.6,1.1"/>
	</g>
	
		<line fill="none" stroke="#333333" stroke-width="0.55" stroke-linecap="round" stroke-linejoin="round" stroke-miterlimit="3" x1="358.6" y1="611.8" x2="358.6" y2="611.5"/>
</g>
<g>
	<defs>
		<rect id="SVGID_61_" x="344.1" y="313.8" width="33.2" height="69.9"/>
	</defs>
	<clipPath id="SVGID_62_">
		<use xlink:href="#SVGID_61_"  overflow="visible"/>
	</clipPath>
	<g clip-path="url(#SVGID_62_)">
		
			<use xlink:href="#_x34_15CL"  width="33.2" height="69.9" id="XMLID_6_" x="-16.6" y="-35" transform="matrix(1 0 0 -1 359.7436 349.771)" overflow="visible"/>
	</g>
</g>
<g>
	<defs>
		<rect id="SVGID_63_" x="378.4" y="311.5" width="35.2" height="57.4"/>
	</defs>
	<clipPath id="SVGID_64_">
		<use xlink:href="#SVGID_63_"  overflow="visible"/>
	</clipPath>
	<g clip-path="url(#SVGID_64_)">
		
			<use xlink:href="#_x34_15DL"  width="35.2" height="57.4" id="XMLID_7_" x="-17.6" y="-28.7" transform="matrix(1 0 0 -1 395.9928 341.271)" overflow="visible"/>
	</g>
</g>
<g>
	<defs>
		<rect id="SVGID_65_" x="423.1" y="599.9" width="44.4" height="56.4"/>
	</defs>
	<clipPath id="SVGID_66_">
		<use xlink:href="#SVGID_65_"  overflow="visible"/>
	</clipPath>
	<g clip-path="url(#SVGID_66_)">
		
			<use xlink:href="#_x34_15CR"  width="44.4" height="56.4" id="XMLID_9_" x="-22.2" y="-28.2" transform="matrix(1 0 0 -1 445.268 629.1206)" overflow="visible"/>
	</g>
</g>
<g>
	<defs>
		<rect id="SVGID_67_" x="386.1" y="596.3" width="35.8" height="59.9"/>
	</defs>
	<clipPath id="SVGID_68_">
		<use xlink:href="#SVGID_67_"  overflow="visible"/>
	</clipPath>
	<g clip-path="url(#SVGID_68_)">
		
			<use xlink:href="#_x34_15DR"  width="35.8" height="59.9" id="XMLID_8_" x="-17.9" y="-30" transform="matrix(1 0 0 -1 403.0107 627.271)" overflow="visible"/>
	</g>
</g>
</svg>
