<?xml version="1.0" encoding="utf-8"?>
<!-- Generator: Adobe Illustrator 16.2.1, SVG Export Plug-In . SVG Version: 6.00 Build 0)  -->
<!DOCTYPE svg PUBLIC "-//W3C//DTD SVG 1.1//EN" "http://www.w3.org/Graphics/SVG/1.1/DTD/svg11.dtd">
<svg version="1.1" id="Selected_Items" xmlns="http://www.w3.org/2000/svg" xmlns:xlink="http://www.w3.org/1999/xlink" x="0px"
	 y="0px" width="608.25px" height="767.65px" viewBox="0 0 608.25 767.65" enable-background="new 0 0 608.25 767.65"
	 xml:space="preserve">
<g>
	<g>
		<path fill-rule="evenodd" clip-rule="evenodd" fill="#CCCCCC" d="M157.75,226.65l0.6-1.65l1.35-2.25l1.05-1.3l5.05-5.1l20.8-16.75
			l4.65-2.95v49.7l-7.25-1.3l-6.35-1.8l-15.2-6.95l-2.15-1.4l-1.35-1.3l-0.8-1.2l-0.6-1.95L157.75,226.65z M408.6,615.425
			l-6.448,5.601L408.6,615.425l7.2,6.925l1.05,1.301l1.351,2.25l0.649,1.649L419,630.4l-0.2,1.949l-0.45,1l-0.698,1.15l-1.401,1.3
			l-2.2,1.4l-15.1,6.95l-10.65,2.8l-3.05,0.5v-50.3L408.151,615L408.6,615.425z M399.651,623.025v0.024l0.049,0.2l0.25,0.2
			l0.149,0.149l0.45,0.2l0.5,0.101l0.5-0.101l0.25-0.1l0.102-0.101l0.25-0.149l0.198-0.2l0.101-0.2l0.1-0.5v-0.45l-0.1-0.5
			l-0.101-0.199l-0.024-0.025L402.3,621.3l-0.1-0.2l-0.049-0.074L402,620.85l-0.25-0.149l-0.099-0.101l-0.75-0.199l-0.75,0.199
			l-0.201,0.101l-0.4,0.399l-0.05,0.2l-0.099,0.2L399.3,622l0.102,0.5l0.099,0.25l0.05,0.2L399.651,623.025z"/>
		<polygon fill-rule="evenodd" clip-rule="evenodd" points="402.325,621.375 402.4,621.8 402.4,622.25 402.3,622.75 402.2,622.95 
			402,623.15 401.75,623.3 401.65,623.4 401.4,623.5 400.9,623.6 400.4,623.5 399.95,623.3 399.65,623.025 399.55,622.95 
			399.5,622.75 399.4,622.5 399.3,622 399.4,621.5 399.5,621.3 399.55,621.1 399.95,620.7 400.15,620.6 400.9,620.4 401.65,620.6 
			401.75,620.7 402,620.85 402.15,621.025 402.2,621.1 402.3,621.3 		"/>
		
			<path fill-rule="evenodd" clip-rule="evenodd" fill="none" stroke="#000000" stroke-width="0.25" stroke-linecap="round" stroke-linejoin="round" stroke-miterlimit="3" d="
			M408.601,615.425l28-24.175 M408.601,615.425l-6.449,5.601"/>
	</g>
	<text transform="matrix(1 0 0 1 436.5996 588.3115)" font-family="'Tahoma'" font-size="11">111AT</text>
</g>
<g>
	<g>
		<path fill-rule="evenodd" clip-rule="evenodd" fill="#CCCCCC" d="M364.6,588.325l-2.8,5.95L364.6,588.325l12.45,6.975l1,0.75
			l0.601,0.95l0.3,1.2v6.399l-0.7,0.851l-0.8,0.6l-1.05,0.25h-25c-0.967-0.033-1.801-0.366-2.5-1c-0.733-0.566-1.217-1.3-1.45-2.2
			v-20.35c0.066-0.7,0.333-1.283,0.8-1.75c0.467-0.434,1.017-0.65,1.65-0.65c0.366,0,0.716,0.101,1.05,0.301L364.6,588.325z
			 M359.85,596.65v0.05l0.101,0.2l0.2,0.25l0.35,0.25l0.75,0.149L362,597.4l0.4-0.25l0.149-0.25l0.3-0.65v-0.5l-0.3-0.65l-0.149-0.3
			l-0.15-0.2l-0.25-0.25l-0.15-0.05l-0.05-0.024l-0.149-0.075l-0.301-0.05h-0.5l-0.649,0.199l-0.4,0.45l-0.1,0.2l-0.15,0.75
			l0.15,0.65l0.1,0.199L359.85,596.65z"/>
		<polygon fill-rule="evenodd" clip-rule="evenodd" points="362.55,595.1 362.7,595.45 362.7,595.95 362.4,596.6 362.25,596.85 
			361.85,597.1 361.1,597.25 360.35,597.1 360,596.85 359.85,596.65 359.8,596.6 359.7,596.4 359.55,595.75 359.7,595 359.8,594.8 
			360.2,594.35 360.85,594.15 361.35,594.15 361.65,594.2 361.8,594.275 361.85,594.3 362,594.35 362.25,594.6 362.4,594.8 		"/>
		
			<path fill-rule="evenodd" clip-rule="evenodd" fill="none" stroke="#000000" stroke-width="0.25" stroke-linecap="round" stroke-linejoin="round" stroke-miterlimit="3" d="
			M364.6,588.325l10.75-22.825 M364.6,588.325l-2.8,5.95"/>
	</g>
	<text transform="matrix(1 0 0 1 359.8506 559.9492)" font-family="'Tahoma'" font-size="12.095">212BR</text>
</g>
<g>
	<g>
		<path fill-rule="evenodd" clip-rule="evenodd" fill="#CCCCCC" d="M371.25,635.45l-5.75-8.175L371.25,635.45l-20.4,2.2
			c-0.833-0.134-1.566-0.5-2.199-1.101c-0.634-0.633-1.017-1.366-1.15-2.2V615c0.233-0.866,0.717-1.6,1.45-2.2
			c0.733-0.6,1.566-0.916,2.5-0.95h24.95l1.05,0.301l0.8,0.55l0.7,0.8v19.1c0,0.634-0.2,1.15-0.601,1.551
			c-0.433,0.433-0.933,0.666-1.5,0.699L371.25,635.45z M365.5,627.275l0.3-0.176l0.15-0.149l0.05-0.25l0.25-0.7l-0.15-0.5l-0.1-0.2
			l-0.05-0.3l-0.125-0.075L365.8,624.7l-0.8-0.55l-0.55-0.101L364,624.15l-0.25,0.1l-0.6,0.45l-0.101,0.3l-0.149,0.7l0.149,0.7
			l0.101,0.25l0.05,0.024v0.025l0.1,0.25l0.4,0.3l0.45,0.25l0.449,0.1l0.551-0.1l0.149-0.15l0.15-0.05L365.5,627.275z"/>
		<polygon fill-rule="evenodd" clip-rule="evenodd" points="365.825,624.925 365.85,625 365.95,625.2 366.1,625.7 365.85,626.4 
			365.8,626.65 365.65,626.8 365.3,627 365.15,627.05 365,627.2 364.45,627.3 364,627.2 363.55,626.95 363.2,626.675 363.15,626.65 
			363.05,626.4 362.9,625.7 363.05,625 363.15,624.7 363.75,624.25 364,624.15 364.45,624.05 365,624.15 365.8,624.7 		"/>
		
			<path fill-rule="evenodd" clip-rule="evenodd" fill="none" stroke="#000000" stroke-width="0.25" stroke-linecap="round" stroke-linejoin="round" stroke-miterlimit="3" d="
			M371.25,635.45l-5.75-8.175L365.3,627 M394.85,669l-23.6-33.55"/>
	</g>
	<text transform="matrix(1 0 0 1 378.6006 681.1992)" font-family="'Tahoma'" font-size="12.095">112AR</text>
</g>
<g>
	<g>
		<polygon fill-rule="evenodd" clip-rule="evenodd" fill="#CCCCCC" points="336.45,627.85 335.2,628.2 333.8,628.2 327.45,628.2 
			326.4,627.85 325.45,627 325.15,625.95 325.15,623.3 325.45,622.25 326.4,621.45 327.45,621.15 335.2,621.15 336.45,621.45 
			337.15,622.25 337.6,623.3 337.6,625.95 337.15,627 		"/>
		
			<line fill="none" stroke="#000000" stroke-width="0.6" stroke-linecap="round" stroke-linejoin="round" stroke-miterlimit="3" x1="333.8" y1="628.2" x2="373.6" y2="697.9"/>
	</g>
	<text transform="matrix(1 0 0 1 356.7012 710.5488)" font-family="'Tahoma'" font-size="12.095">112CR</text>
</g>
<g>
	<g>
		<path fill-rule="evenodd" clip-rule="evenodd" fill="#CCCCCC" d="M329.375,651.7l0.025-0.601h0.449l0.2-0.05l0.5-0.25l0.15-0.149
			l0.2-0.15l0.1-0.3l0.1-0.15l0.051-0.3v-0.45l-0.051-0.25l-0.199-0.45l-0.351-0.35l-0.2-0.1l-0.3-0.101l-0.2-0.1h-0.55l-0.149,0.1
			l-0.301,0.101l-0.199,0.1l-0.101,0.15l-0.25,0.199l-0.2,0.45l-0.1,0.45l0.1,0.55l0.101,0.15l0.1,0.3l0.25,0.15l0.101,0.149
			l0.199,0.15l0.45,0.149h0.101L329.375,651.7l-10.425,0.7v-4.551c0.066-0.866,0.434-1.6,1.1-2.199c0.667-0.567,1.4-0.851,2.2-0.851
			h14.3c0.867,0.033,1.617,0.351,2.25,0.95c0.634,0.6,0.983,1.333,1.05,2.2V651L329.375,651.7z"/>
		<polygon fill-rule="evenodd" clip-rule="evenodd" points="329.4,651.1 329.5,649.45 329.4,651.1 329.3,651.1 328.85,650.95 
			328.65,650.8 328.55,650.65 328.3,650.5 328.2,650.2 328.1,650.05 328,649.5 328.1,649.05 328.3,648.6 328.55,648.4 
			328.65,648.25 328.85,648.15 329.15,648.05 329.3,647.95 329.85,647.95 330.05,648.05 330.35,648.15 330.55,648.25 330.9,648.6 
			331.1,649.05 331.15,649.3 331.15,649.75 331.1,650.05 331,650.2 330.9,650.5 330.7,650.65 330.55,650.8 330.05,651.05 
			329.85,651.1 		"/>
		
			<path fill-rule="evenodd" clip-rule="evenodd" fill="none" stroke="#000000" stroke-width="0.25" stroke-linecap="round" stroke-linejoin="round" stroke-miterlimit="3" d="
			M329.375,651.7l-1.825,30.8 M329.4,651.1l0.1-1.649 M329.375,651.7l0.025-0.601"/>
	</g>
	<text transform="matrix(1 0 0 1 310.0508 694.9004)" font-family="'Tahoma'" font-size="12.095">112BR</text>
</g>
<g>
	<g>
		<path fill-rule="evenodd" clip-rule="evenodd" fill="#CCCCCC" d="M289.55,645.95l5.15-7.525l0.35,0.275l0.25,0.05l0.3,0.1h0.45
			l0.25-0.1l0.2-0.05l0.25-0.101l0.45-0.55l0.2-0.75l-0.1-0.55l-0.125-0.2l-0.025-0.1l-0.4-0.601l-0.15-0.149l-0.45-0.2l-0.25-0.05
			h-0.45l-0.3,0.05l-0.25,0.1l-0.4,0.25l-0.35,0.601l-0.1,0.55l0.2,0.75l0.1,0.15l0.05,0.149l0.25,0.351l0.05,0.024L289.55,645.95
			c-0.348-0.501-0.564-1.051-0.65-1.65l0.05-18.8c0.066-0.833,0.433-1.55,1.1-2.15c0.6-0.566,1.333-0.883,2.2-0.949h10.9
			c0.867,0.066,1.633,0.383,2.3,0.949c0.6,0.634,0.934,1.367,1,2.2v18.8c-0.101,0.834-0.467,1.551-1.101,2.15
			c-0.633,0.6-1.366,0.917-2.2,0.95H292.2c-0.867-0.033-1.6-0.351-2.2-0.95c-0.1-0.1-0.183-0.2-0.25-0.3
			C289.683,646.118,289.616,646.035,289.55,645.95z"/>
		<polygon fill-rule="evenodd" clip-rule="evenodd" points="297.175,636.55 297.25,637 297.05,637.75 296.6,638.3 296.35,638.4 
			296.15,638.45 295.9,638.55 295.45,638.55 295.15,638.45 294.9,638.4 294.775,638.3 294.5,638.1 294.35,637.9 294.25,637.75 
			294.05,637 294.15,636.45 294.5,635.85 294.9,635.6 295.15,635.5 295.45,635.45 295.9,635.45 296.15,635.5 296.6,635.7 
			296.75,635.85 297.15,636.45 		"/>
		
			<path fill-rule="evenodd" clip-rule="evenodd" fill="none" stroke="#000000" stroke-width="0.25" stroke-linecap="round" stroke-linejoin="round" stroke-miterlimit="3" d="
			M289.55,645.95L266,680.45 M294.7,638.425l0.075-0.125 M289.55,645.95l5.15-7.525"/>
	</g>
	<text transform="matrix(1 0 0 1 247.0508 693.748)" font-family="'Tahoma'" font-size="12.095">122AR</text>
</g>
<g>
	<g>
		<path fill-rule="evenodd" clip-rule="evenodd" fill="#CCCCCC" d="M248.6,644.45l5.95-4.101l0.2,0.301l0.3,0.35l0.5,0.3l0.25,0.05
			h0.5l0.2-0.05l0.5-0.3l0.25-0.35l0.2-0.2l0.1-0.2l0.05-0.25v-0.55l-0.05-0.2l-0.1-0.25l-0.05-0.05l-0.1-0.25l-0.35-0.351
			l-0.1-0.199l-0.5-0.25l-0.2-0.051h-0.5l-0.25,0.051l-0.25,0.1l-0.25,0.15l-0.3,0.35l-0.25,0.45l-0.1,0.5l0.1,0.5l0.125,0.2
			l0.025,0.1l0.05,0.1L248.6,644.45V626.5c0.066-0.866,0.433-1.583,1.1-2.15c0.633-0.6,1.367-0.899,2.2-0.899h10.9
			c0.9,0.033,1.667,0.35,2.3,0.95c0.6,0.6,0.933,1.316,1,2.149V645.4c-0.067,0.833-0.434,1.55-1.1,2.149
			c-0.6,0.601-1.333,0.9-2.2,0.9h-10.9c-0.867-0.066-1.6-0.384-2.2-0.95c-0.667-0.6-1.034-1.3-1.1-2.1V644.45z"/>
		<polygon fill-rule="evenodd" clip-rule="evenodd" points="257.4,638.95 257.45,639.15 257.45,639.7 257.4,639.95 257.3,640.15 
			257.1,640.35 256.85,640.7 256.35,641 256.15,641.05 255.65,641.05 255.4,641 254.9,640.7 254.6,640.35 254.575,640.325 
			254.475,640.15 254.35,639.95 254.25,639.45 254.35,638.95 254.6,638.5 254.9,638.15 255.15,638 255.4,637.9 255.65,637.85 
			256.15,637.85 256.35,637.9 256.85,638.15 256.95,638.35 257.3,638.7 		"/>
		
			<path fill-rule="evenodd" clip-rule="evenodd" fill="none" stroke="#000000" stroke-width="0.25" stroke-linecap="round" stroke-linejoin="round" stroke-miterlimit="3" d="
			M248.6,644.45L203.35,675.6 M254.55,640.35l0.025-0.024 M248.6,644.45l5.95-4.101"/>
	</g>
	<text transform="matrix(1 0 0 1 184.001 688.3496)" font-family="'Tahoma'" font-size="12.095">122BR</text>
</g>
<g>
	<g>
		<path fill-rule="evenodd" clip-rule="evenodd" fill="#B3E1FF" d="M322.2,576.1c0.066,0,0.133,0,0.2,0
			c2.933,0,5.449,1.051,7.55,3.15c2.133,2.134,3.2,4.684,3.2,7.65c0,2.966-1.067,5.5-3.2,7.6c-2.101,2.134-4.617,3.2-7.55,3.2
			c-2.967,0-5.517-1.066-7.65-3.2c-2.1-2.1-3.15-4.634-3.15-7.6c0-2.967,1.051-5.517,3.15-7.65
			C316.835,577.197,319.318,576.147,322.2,576.1z"/>
		
			<path fill-rule="evenodd" clip-rule="evenodd" fill="none" stroke="#000000" stroke-width="0.25" stroke-linecap="round" stroke-linejoin="round" stroke-miterlimit="3" d="
			M322.2,576.1c0.066,0,0.133,0,0.2,0c2.933,0,5.449,1.051,7.55,3.15c2.133,2.134,3.2,4.684,3.2,7.65c0,2.966-1.067,5.5-3.2,7.6
			c-2.101,2.134-4.617,3.2-7.55,3.2c-2.967,0-5.517-1.066-7.65-3.2c-2.1-2.1-3.15-4.634-3.15-7.6c0-2.967,1.051-5.517,3.15-7.65
			C316.835,577.197,319.318,576.147,322.2,576.1z"/>
		
			<polyline fill-rule="evenodd" clip-rule="evenodd" fill="none" stroke="#000000" stroke-width="0.2" stroke-miterlimit="5" points="
			322.2,576.1 322.2,532.45 384.5,532.45 		"/>
	</g>
	<text transform="matrix(1 0 0 1 388 537.2051)" font-family="'Tahoma'" font-size="14">Pitot-Static Probes</text>
</g>
<g>
	<g>
		<polygon fill-rule="evenodd" clip-rule="evenodd" points="295.45,550.55 294.3,551.8 295.45,550.55 295.5,550.6 295.65,550.8 
			295.725,551.025 295.9,551.2 295.95,551.4 295.95,551.95 295.9,552.25 295.5,552.85 295.35,553 295.05,553.1 294.9,553.25 
			294.6,553.3 294.15,553.3 293.9,553.25 293.6,553.1 293.25,552.85 293.075,552.6 292.95,552.45 292.8,551.75 292.9,551.2 
			293.05,550.8 293.6,550.3 293.9,550.2 294.15,550.15 294.6,550.15 294.9,550.2 295.05,550.3 295.35,550.45 		"/>
		<path fill-rule="evenodd" clip-rule="evenodd" fill="#CCCCCC" d="M293.075,552.6l0.025,0.15l0.3,0.4l0.35,0.25l0.3,0.149
			l0.25,0.05h0.45l0.3-0.05l0.15-0.149l0.3-0.101l0.15-0.149l0.4-0.601l0.05-0.3v-0.5l-0.05-0.25l-0.1-0.1l-0.05-0.2l-0.175-0.175
			l-0.075-0.226l-0.15-0.2l-0.05-0.05l-0.1-0.1l-0.3-0.15l-0.15-0.1l-0.3-0.05h-0.45l-0.25,0.05l-0.3,0.1l-0.55,0.5l-0.15,0.4
			l-0.1,0.55l0.15,0.7L293.075,552.6z M300.325,545.175L319.4,560.5l-26.601,2.4l-19.95-22.2h21.9L300.325,545.175l-4.875,5.375
			L300.325,545.175z"/>
		<path fill-rule="evenodd" clip-rule="evenodd" fill="none" stroke="#1A171B" stroke-width="0.2" stroke-miterlimit="6.92" d="
			M295.45,550.55l-1.15,1.25 M300.325,545.175l-4.875,5.375 M300.325,545.175L329.55,513.1"/>
	</g>
	<text transform="matrix(1 0 0 1 308.9014 508.5996)" font-family="'Tahoma'" font-size="12.095">211WSR</text>
</g>
<g>
	<g>
		<polygon fill-rule="evenodd" clip-rule="evenodd" fill="#CCCCCC" points="256.625,540.95 258.3,550.05 258,550.05 257.7,550.1 
			257.5,550.2 257.05,550.55 256.9,550.7 256.8,550.95 256.6,551.65 256.8,552.35 256.925,552.6 257.05,552.85 257.2,553.05 
			257.85,553.5 258.15,553.55 258.6,553.55 258.85,553.5 259.3,553.2 259.65,552.85 259.85,552.45 259.9,552.2 259.9,551.65 
			259.85,551.45 259.65,551 259.625,550.975 259.5,550.7 259.15,550.4 258.7,550.1 258.45,550.05 258.3,550.05 256.625,540.95 
			266.55,540.95 288.05,563.1 236.45,563.1 229.3,559.95 229.3,545.45 236.75,540.95 		"/>
		<polygon fill-rule="evenodd" clip-rule="evenodd" points="259.625,550.975 259.7,551.15 259.75,551.35 259.75,551.9 259.7,552.15 
			259.5,552.55 259.15,552.9 258.7,553.2 258.45,553.25 258,553.25 257.7,553.2 257.05,552.75 256.925,552.6 256.8,552.35 
			256.6,551.65 256.8,550.95 256.9,550.7 257.05,550.55 257.5,550.2 257.7,550.1 258,550.05 258.3,550.05 258.6,551.65 
			258.3,550.05 258.45,550.05 258.7,550.1 259.15,550.4 259.5,550.7 		"/>
		<path fill-rule="evenodd" clip-rule="evenodd" fill="none" stroke="#1A171B" stroke-width="0.2" stroke-miterlimit="6.92" d="
			M256.625,540.95L247.8,492.7 M258.3,550.05l0.3,1.601 M256.625,540.95l1.675,9.1"/>
	</g>
	<text transform="matrix(1 0 0 1 224.8008 486.8984)" font-family="'Tahoma'" font-size="12.095">211SWR</text>
</g>
<g>
	<g>
		<path fill-rule="evenodd" clip-rule="evenodd" fill="#CCCCCC" d="M209.976,189.05l4.525,5.275L209.976,189.05l16.025-9
			c0.367-0.2,0.717-0.3,1.05-0.3c0.667,0,1.233,0.217,1.7,0.65c0.5,0.5,0.75,1.05,0.75,1.65v20.45c-0.267,0.9-0.767,1.633-1.5,2.2
			c-0.733,0.6-1.55,0.933-2.45,1h-25l-1.05-0.3l-0.85-0.55l-0.6-0.85v-6.4l0.2-1.2l0.65-0.95l1-0.75L209.976,189.05z M214.5,194.326
			l-0.1,0.075l-0.2,0.2l-0.2,0.5l-0.05,0.2v0.5L214,196l0.2,0.5l0.05,0.025l0.1,0.275l0.2,0.15l0.2,0.2l0.4,0.2l0.55,0.1l0.5-0.1
			l0.2-0.1l0.4-0.3l0.15-0.15l0.15-0.2v-0.3l0.15-0.2v-0.5l-0.15-0.2v-0.1v-0.2l-0.15-0.2v-0.1l-0.3-0.4l-0.4-0.25l-0.2-0.1
			l-0.5-0.15l-0.55,0.15l-0.4,0.2L214.5,194.326z"/>
		<polygon fill-rule="evenodd" clip-rule="evenodd" points="216.951,194.9 216.951,195.101 217.101,195.3 217.101,195.4 
			217.101,195.8 216.951,196 216.951,196.3 216.8,196.5 216.65,196.65 216.25,196.951 216.05,197.05 215.55,197.15 215,197.05 
			214.601,196.851 214.25,196.525 214.201,196.5 214,196 213.951,195.8 213.951,195.3 214,195.101 214.201,194.601 214.4,194.4 
			214.5,194.326 214.601,194.25 215,194.05 215.55,193.9 216.05,194.05 216.25,194.15 216.65,194.4 216.951,194.8 		"/>
		
			<path fill-rule="evenodd" clip-rule="evenodd" fill="none" stroke="#000000" stroke-width="0.25" stroke-linecap="round" stroke-linejoin="round" stroke-miterlimit="3" d="
			M209.976,189.05l4.525,5.275 M191.55,167.601l18.425,21.45"/>
	</g>
	<text transform="matrix(1 0 0 1 174.3511 162.6494)" font-family="'Tahoma'" font-size="12.095">212AL</text>
</g>
<g>
	<g>
		<path fill-rule="evenodd" clip-rule="evenodd" fill="#CCCCCC" d="M215.35,225.575l-16.1-13.85l0.25-0.175l1.05-0.25l25.05-0.05
			c0.9,0.033,1.717,0.35,2.45,0.95c0.733,0.6,1.233,1.333,1.5,2.2l-0.05,19.35c-0.167,0.833-0.567,1.567-1.2,2.2
			c-0.633,0.6-1.367,0.95-2.2,1.05l-25.95-2.8c-0.6-0.034-1.1-0.25-1.5-0.65c-0.4-0.466-0.6-0.983-0.6-1.55l0.05-0.4l-0.05-18.7
			l0.6-0.8l0.6-0.375L215.35,225.575z M217.75,226.35l-0.05-0.2l-0.2-0.2l-0.15-0.2l-0.6-0.4l-0.3-0.05H216l-0.3,0.05l-0.15,0.15
			l-0.2,0.075l-0.05,0.025l-0.2,0.15l-0.3,0.4l-0.1,0.2l-0.05,0.3v0.5l0.05,0.2l0.15,0.3l0.25,0.45l0.15,0.2l0.2,0.15l0.25,0.1
			l0.15,0.1l0.3,0.1h0.45l0.7-0.3l0.2-0.15l0.35-0.45l0.1-0.4v-0.5l-0.1-0.5L217.75,226.35z"/>
		<polygon fill-rule="evenodd" clip-rule="evenodd" points="214.85,227.65 214.7,227.35 214.65,227.15 214.65,226.65 214.7,226.35 
			214.8,226.15 215.1,225.75 215.3,225.6 215.35,225.575 215.55,225.5 215.7,225.35 216,225.3 216.45,225.3 216.75,225.35 
			217.35,225.75 217.5,225.95 217.7,226.15 217.75,226.35 217.8,226.65 217.8,227.15 217.7,227.55 217.35,228 217.15,228.15 
			216.45,228.45 216,228.45 215.7,228.35 215.55,228.25 215.3,228.15 215.1,228 		"/>
		
			<path fill-rule="evenodd" clip-rule="evenodd" fill="none" stroke="#000000" stroke-width="0.25" stroke-linecap="round" stroke-linejoin="round" stroke-miterlimit="3" d="
			M199.25,211.725l-34.3-29.475 M215.35,225.575l-16.1-13.85"/>
	</g>
	<text transform="matrix(1 0 0 1 130.0508 184.9995)" font-family="'Tahoma'" font-size="12.095">113AL</text>
</g>
<g>
	<g>
		<polygon fill-rule="evenodd" clip-rule="evenodd" fill="#CCCCCC" points="275.475,145.45 280.15,151.15 280.1,151.2 
			279.85,151.35 279.75,151.6 279.6,152.3 279.75,153 279.85,153.25 279.9,153.275 279.9,153.3 280,153.55 280.4,153.85 
			280.55,154.05 281.05,154.2 281.55,154.2 281.85,154.15 282.05,154.05 282.45,153.75 282.6,153.55 282.8,153.1 282.85,152.9 
			282.85,152.4 282.8,152.15 282.6,151.65 282.55,151.6 282.45,151.35 282.1,151.05 281.4,150.7 280.9,150.7 280.4,150.95 
			280.25,151.05 280.15,151.15 275.475,145.45 282.2,140.05 304.15,140.05 284.2,162.25 257.55,159.85 		"/>
		<polygon fill-rule="evenodd" clip-rule="evenodd" points="282.55,151.6 282.65,151.85 282.7,152.1 282.7,152.6 282.65,152.8 
			282.45,153.25 282.3,153.45 281.9,153.75 281.7,153.85 281.4,153.9 280.9,153.9 280.4,153.75 280.25,153.55 279.9,153.275 
			279.85,153.25 279.75,153 279.6,152.3 279.75,151.6 279.85,151.35 280.1,151.2 280.15,151.15 281.1,152.3 280.15,151.15 
			280.25,151.05 280.4,150.95 280.9,150.7 281.4,150.7 282.1,151.05 282.45,151.35 		"/>
		
			<polyline fill-rule="evenodd" clip-rule="evenodd" fill="none" stroke="#1A171B" stroke-width="0.2" stroke-miterlimit="6.92" points="
			251,115.5 275.476,145.45 280.15,151.15 281.101,152.3 		"/>
	</g>
	<text transform="matrix(1 0 0 1 227.3008 110.3501)" font-family="'Tahoma'" font-size="12.095">211WSL</text>
</g>
<g>
	<g>
		<path fill-rule="evenodd" clip-rule="evenodd" fill="#CCCCCC" d="M317.15,140.25l1.425,10.55L317.15,140.25h23l7.5,4.5v14.45
			l-7.15,3.2h-51.7l21.5-22.15H317.15z M318.575,150.8h-0.025l-0.5,0.25l-0.149,0.05l-0.4,0.4l-0.2,0.4l-0.05,0.25v0.5l0.05,0.25
			l0.101,0.25l0.074,0.125l0.075,0.175l0.101,0.15l0.399,0.4l0.15,0.1l0.5,0.15h0.5l0.25-0.05l0.5-0.2l0.55-0.8l0.05-0.25v-0.5
			l-0.05-0.25l-0.125-0.225l-0.025-0.075l-0.399-0.65l-0.15-0.15l-0.25-0.05l-0.5-0.25H318.575z"/>
		<path fill-rule="evenodd" clip-rule="evenodd" d="M320.375,151.975l0.025,0.175v0.5l-0.051,0.25l-0.55,0.8l-0.5,0.2l-0.25,0.05
			h-0.5l-0.5-0.15l-0.149-0.1l-0.426-0.425l-0.074-0.125l-0.101-0.25l-0.05-0.25v-0.5l0.05-0.25l0.2-0.4l0.4-0.4l0.149-0.05
			l0.5-0.25h0.025h0.475l0.5,0.25l0.25,0.05l0.15,0.15l0.399,0.65L320.375,151.975z M318.575,150.8l0.225,1.6L318.575,150.8z"/>
		<path fill-rule="evenodd" clip-rule="evenodd" fill="none" stroke="#1A171B" stroke-width="0.2" stroke-miterlimit="6.92" d="
			M317.15,140.25l1.425,10.55l0.225,1.6 M309.35,82.45l7.801,57.8"/>
	</g>
	<text transform="matrix(1 0 0 1 287.4502 77.0493)" font-family="'Tahoma'" font-size="12.095">211SWL</text>
</g>
<g>
	<g>
		<polygon fill-rule="evenodd" clip-rule="evenodd" fill="#CCCCCC" points="357,111.85 357.925,110.075 373.1,109.3 373.1,114.35 
			341.1,116 341.1,110.95 357.925,110.075 		"/>
		
			<path fill-rule="evenodd" clip-rule="evenodd" fill="none" stroke="#000000" stroke-linecap="round" stroke-linejoin="round" stroke-miterlimit="3" d="
			M357.925,110.075L370.65,85.65 M357,111.85l0.925-1.775"/>
	</g>
	<text transform="matrix(1 0 0 1 361.5498 81.061)" font-family="'Tahoma'" font-size="11">821</text>
</g>
<g>
	<g>
		<path fill-rule="evenodd" clip-rule="evenodd" fill="#CCCCCC" d="M287.9,244.55l-8.25-6.3L287.9,244.55
			c-0.016,0.049-0.033,0.099-0.05,0.15c-0.2,0.433-0.5,0.833-0.9,1.2c-0.633,0.6-1.383,0.917-2.25,0.95h-10.9
			c-0.833-0.033-1.566-0.35-2.2-0.95c-0.667-0.633-1.033-1.367-1.1-2.2v-18.8c0.067-0.833,0.433-1.55,1.1-2.15
			c0.667-0.567,1.4-0.883,2.2-0.95h10.95c0.867,0.067,1.617,0.383,2.25,0.95c0.667,0.633,1.017,1.367,1.05,2.2v18.8
			C288.022,244.026,287.972,244.293,287.9,244.55z M279.65,238.25l0.1-0.15l0.1-0.25v-0.25l0.05-0.2l-0.05-0.3v-0.25l-0.15-0.3
			l-0.2-0.4l-0.2-0.2l-0.2-0.15l-0.15-0.15l-0.3-0.1h-0.25l-0.2-0.05l-0.3,0.05h-0.25l-0.2,0.1l-0.4,0.3l-0.1,0.2l-0.3,0.4
			l-0.1,0.55l0.1,0.45l0.125,0.225l0.025,0.075l0.15,0.25l0.1,0.1l0.05,0.05l0.1,0.25l0.15,0.15l0.25,0.15l0.45,0.1h0.5l0.55-0.1
			l0.15-0.15l0.2-0.15L279.65,238.25z"/>
		<polygon fill-rule="evenodd" clip-rule="evenodd" points="277.1,238.25 277.05,238.2 276.95,237.95 276.775,237.775 
			276.65,237.55 276.55,237.1 276.65,236.55 276.95,236.15 277.05,235.95 277.45,235.65 277.65,235.55 277.9,235.55 278.2,235.5 
			278.4,235.55 278.65,235.55 278.95,235.65 279.1,235.8 279.3,235.95 279.5,236.15 279.7,236.55 279.7,236.8 279.75,237.1 
			279.7,237.3 279.7,237.55 279.6,237.8 279.4,238.05 278.15,237.1 279.4,238.05 279.3,238.2 279.1,238.35 278.95,238.5 
			278.4,238.6 277.9,238.6 277.45,238.5 277.2,238.35 		"/>
		
			<path fill-rule="evenodd" clip-rule="evenodd" fill="none" stroke="#000000" stroke-width="0.25" stroke-linecap="round" stroke-linejoin="round" stroke-miterlimit="3" d="
			M287.9,244.55l-8.25-6.3 M279.4,238.05l-1.25-0.95 M279.4,238.05l0.25,0.2 M287.9,244.55l42.3,32.3"/>
	</g>
	<text transform="matrix(1 0 0 1 315.3008 289.8994)" font-family="'Tahoma'" font-size="12.095">121AL</text>
</g>
<g>
	<g>
		<path fill-rule="evenodd" clip-rule="evenodd" fill="#CCCCCC" d="M328.4,240.2l-6.45-4.3L328.4,240.2v4.6
			c-0.067,0.833-0.434,1.55-1.101,2.15c-0.666,0.6-1.399,0.9-2.2,0.9h-11c-0.833-0.067-1.566-0.383-2.199-0.95
			c-0.634-0.6-1-1.316-1.101-2.15l0.05-18.85c0.067-0.833,0.434-1.55,1.101-2.15c0.6-0.567,1.316-0.867,2.149-0.9h11
			c0.834,0.033,1.584,0.35,2.25,0.95c0.634,0.6,0.983,1.317,1.051,2.15V240.2z M321.95,235.9l0.1-0.2l0.05-0.3v-0.5l-0.149-0.45
			l-0.125-0.25l-0.125-0.25l-0.15-0.2l-0.2-0.15l-0.699-0.3h-0.5l-0.5,0.2l-0.551,0.45l-0.1,0.2l-0.05,0.3l-0.05,0.15l-0.051,0.3
			l0.15,0.7l0.1,0.2l0.025,0.025l0.025,0.075l0.1,0.2l0.25,0.2l0.3,0.3l0.3,0.1l0.2,0.1h0.5l0.3-0.1l0.2-0.1l0.2-0.15l0.35-0.35
			L321.95,235.9z"/>
		<polygon fill-rule="evenodd" clip-rule="evenodd" points="321.825,234.2 321.95,234.6 321.95,235.1 321.9,235.4 321.725,235.75 
			321.7,235.8 321.35,236.15 321.15,236.3 320.95,236.4 320.65,236.5 320.15,236.5 319.95,236.4 319.65,236.3 319.35,236 
			319.125,235.825 319.1,235.8 319,235.6 318.85,234.9 318.9,234.6 318.95,234.45 319,234.15 319.1,233.95 319.65,233.5 
			320.15,233.3 320.65,233.3 321.35,233.6 321.55,233.75 321.7,233.95 		"/>
		
			<path fill-rule="evenodd" clip-rule="evenodd" fill="none" stroke="#000000" stroke-width="0.25" stroke-linecap="round" stroke-linejoin="round" stroke-miterlimit="3" d="
			M328.4,240.2l-6.45-4.3 M328.4,240.2l55.899,37.25 M321.725,235.75l0.226,0.15"/>
	</g>
	<text transform="matrix(1 0 0 1 369.9014 290.6997)" font-family="'Tahoma'" font-size="12.095">121BL</text>
</g>
<g>
	<g>
		<path fill-rule="evenodd" clip-rule="evenodd" fill="#B3E1FF" d="M220.4,582.951c-2.1-2.102-3.15-4.635-3.15-7.602
			c0-2.965,1.05-5.516,3.15-7.648c2.133-2.102,4.684-3.15,7.65-3.15c2.934,0,5.45,1.049,7.55,3.15c2.133,2.133,3.2,4.684,3.2,7.648
			c0,2.967-1.066,5.5-3.2,7.602c-2.1,2.133-4.617,3.199-7.55,3.199C225.083,586.15,222.533,585.084,220.4,582.951z"/>
		
			<path fill-rule="evenodd" clip-rule="evenodd" fill="none" stroke="#000000" stroke-width="0.25" stroke-linecap="round" stroke-linejoin="round" stroke-miterlimit="3" d="
			M220.4,582.951c-2.1-2.102-3.15-4.635-3.15-7.602c0-2.965,1.05-5.516,3.15-7.648c2.133-2.102,4.684-3.15,7.65-3.15
			c2.934,0,5.45,1.049,7.55,3.15c2.133,2.133,3.2,4.684,3.2,7.648c0,2.967-1.066,5.5-3.2,7.602c-2.1,2.133-4.617,3.199-7.55,3.199
			C225.083,586.15,222.533,585.084,220.4,582.951z"/>
	</g>
	<text transform="matrix(1 0 0 1 91.6821 571.1504)"><tspan x="0" y="0" font-family="'Tahoma'" font-size="14">STBY Pitot−</tspan><tspan x="-2.765" y="17" font-family="'Tahoma'" font-size="14">Static Probes</tspan></text>
	<g>
		<line fill="none" stroke="#000000" stroke-width="0.2" stroke-miterlimit="5" x1="217.5" y1="575.151" x2="170.55" y2="575.151"/>
	</g>
</g>
<g>
	<g>
		<path fill-rule="evenodd" clip-rule="evenodd" fill="#B3E1FF" d="M239.55,604.95c-2.927-0.06-5.46-1.144-7.6-3.25
			c-2.133-2.134-3.2-4.717-3.2-7.75s1.067-5.634,3.2-7.8c2.2-2.167,4.816-3.25,7.85-3.25c3.034,0,5.617,1.083,7.75,3.25
			c2.167,2.166,3.25,4.767,3.25,7.8s-1.083,5.616-3.25,7.75c-2.133,2.166-4.716,3.25-7.75,3.25
			C239.716,604.95,239.633,604.95,239.55,604.95z"/>
		
			<path fill-rule="evenodd" clip-rule="evenodd" fill="none" stroke="#000000" stroke-width="0.25" stroke-linecap="round" stroke-linejoin="round" stroke-miterlimit="3" d="
			M239.55,604.95c-2.927-0.06-5.46-1.144-7.6-3.25c-2.133-2.134-3.2-4.717-3.2-7.75s1.067-5.634,3.2-7.8
			c2.2-2.167,4.816-3.25,7.85-3.25c3.034,0,5.617,1.083,7.75,3.25c2.167,2.166,3.25,4.767,3.25,7.8s-1.083,5.616-3.25,7.75
			c-2.133,2.166-4.716,3.25-7.75,3.25C239.716,604.95,239.633,604.95,239.55,604.95z"/>
		
			<polyline fill-rule="evenodd" clip-rule="evenodd" fill="none" stroke="#000000" stroke-width="0.2" stroke-miterlimit="5" points="
			239.55,604.95 239.55,628.45 181.8,628.45 		"/>
	</g>
	<text transform="matrix(1 0 0 1 78.9194 633.4199)" font-family="'Tahoma'" font-size="15">Angle of Attack</text>
</g>
<g>
	<g>
		<path fill-rule="evenodd" clip-rule="evenodd" fill="#B3E1FF" d="M312.725,633.6c-1.354-0.313-2.562-1.014-3.625-2.1
			c-1.5-1.467-2.25-3.267-2.25-5.4c0-2.1,0.75-3.899,2.25-5.399s3.301-2.25,5.4-2.25s3.9,0.75,5.4,2.25s2.25,3.3,2.25,5.399
			c0,2.134-0.75,3.934-2.25,5.4c-1.5,1.533-3.301,2.3-5.4,2.3C313.887,633.8,313.295,633.733,312.725,633.6l0.15-0.399
			L312.725,633.6z"/>
		<path fill-rule="evenodd" clip-rule="evenodd" fill="none" stroke="#000000" stroke-width="0.2" stroke-miterlimit="5" d="
			M312.725,633.6l0.15-0.399 M312.725,633.6l-30.774,90.5H251.2"/>
		
			<path fill-rule="evenodd" clip-rule="evenodd" fill="none" stroke="#000000" stroke-width="0.25" stroke-linecap="round" stroke-linejoin="round" stroke-miterlimit="3" d="
			M312.725,633.6c0.57,0.134,1.162,0.2,1.775,0.2c2.1,0,3.9-0.767,5.4-2.3c1.5-1.467,2.25-3.267,2.25-5.4
			c0-2.1-0.75-3.899-2.25-5.399s-3.301-2.25-5.4-2.25s-3.9,0.75-5.4,2.25s-2.25,3.3-2.25,5.399c0,2.134,0.75,3.934,2.25,5.4
			C310.162,632.586,311.37,633.286,312.725,633.6z"/>
	</g>
	<text transform="matrix(1 0 0 1 127.0498 728.5547)" font-family="'Tahoma'" font-size="14">Ice Detector Probes</text>
</g>
<g>
	<g>
		<path fill-rule="evenodd" clip-rule="evenodd" fill="#B3E1FF" d="M262.8,220.05h0.05c0.033,0,0.083,0,0.15,0
			c1.9,0,3.533,0.684,4.9,2.05c1.31,1.309,2.009,2.851,2.1,4.625c0,0.092,0,0.183,0,0.275c0,0.033,0,0.067,0,0.1
			c0,1.967-0.7,3.633-2.1,5c-1.367,1.4-3,2.1-4.9,2.1c-1.967,0-3.65-0.7-5.05-2.1c-1.367-1.367-2.05-3.033-2.05-5
			c0-0.156,0-0.281,0-0.375c0.088-1.774,0.772-3.316,2.05-4.625C259.35,220.734,260.967,220.05,262.8,220.05z"/>
		
			<polyline fill-rule="evenodd" clip-rule="evenodd" fill="none" stroke="#000000" stroke-width="0.2" stroke-miterlimit="5" points="
			262.8,220.05 262.8,211.451 397.05,211.451 		"/>
		
			<path fill-rule="evenodd" clip-rule="evenodd" fill="none" stroke="#000000" stroke-width="0.25" stroke-linecap="round" stroke-linejoin="round" stroke-miterlimit="3" d="
			M262.8,220.05h0.05c0.033,0,0.083,0,0.15,0c1.9,0,3.533,0.684,4.9,2.05c1.31,1.309,2.009,2.851,2.1,4.625c0,0.092,0,0.183,0,0.275
			c0,0.033,0,0.067,0,0.1c0,1.967-0.7,3.633-2.1,5c-1.367,1.4-3,2.1-4.9,2.1c-1.967,0-3.65-0.7-5.05-2.1
			c-1.367-1.367-2.05-3.033-2.05-5c0-0.156,0-0.281,0-0.375c0.088-1.774,0.772-3.316,2.05-4.625
			C259.35,220.734,260.967,220.05,262.8,220.05z"/>
	</g>
	<text transform="matrix(1 0 0 1 400.0498 216.4556)" font-family="'Tahoma'" font-size="14">Ice Detector Probes</text>
</g>
<g>
	<g>
		<path fill-rule="evenodd" clip-rule="evenodd" fill="#B3E1FF" d="M337.1,188.2v-4.85V188.2z M337.1,183.35
			c0.034,0,0.067,0,0.101,0c0.066,0,0.133,0,0.2,0c2.933,0,5.449,1.05,7.55,3.15c2.133,2.133,3.2,4.683,3.2,7.65s-1.067,5.5-3.2,7.6
			c-2.101,2.133-4.617,3.2-7.55,3.2c-2.967,0-5.517-1.067-7.65-3.2c-2.1-2.1-3.15-4.633-3.15-7.6s1.051-5.517,3.15-7.65
			C331.825,184.458,334.275,183.407,337.1,183.35z"/>
		
			<path fill-rule="evenodd" clip-rule="evenodd" fill="none" stroke="#000000" stroke-width="0.25" stroke-linecap="round" stroke-linejoin="round" stroke-miterlimit="3" d="
			M337.1,183.35c-2.824,0.057-5.274,1.107-7.35,3.15c-2.1,2.133-3.15,4.683-3.15,7.65s1.051,5.5,3.15,7.6
			c2.134,2.133,4.684,3.2,7.65,3.2c2.933,0,5.449-1.067,7.55-3.2c2.133-2.1,3.2-4.633,3.2-7.6s-1.067-5.517-3.2-7.65
			c-2.101-2.1-4.617-3.15-7.55-3.15c-0.067,0-0.134,0-0.2,0C337.167,183.351,337.134,183.351,337.1,183.35z"/>
		<path fill-rule="evenodd" clip-rule="evenodd" fill="none" stroke="#000000" stroke-width="0.2" stroke-miterlimit="5" d="
			M337.1,183.35v-6.4h70.5 M337.1,188.2v-4.85"/>
	</g>
	<text transform="matrix(1 0 0 1 410.6699 181.75)" font-family="'Tahoma'" font-size="15">Angle of Attack</text>
</g>
<g>
	<g>
		<path fill-rule="evenodd" clip-rule="evenodd" fill="#B3E1FF" d="M253.15,175.05h0.05c2.933,0,5.45,1.05,7.55,3.15
			c2.133,2.133,3.2,4.683,3.2,7.65s-1.067,5.5-3.2,7.6c-2.1,2.133-4.617,3.2-7.55,3.2c-2.967,0-5.517-1.066-7.65-3.2
			c-2.1-2.1-3.15-4.633-3.15-7.6s1.05-5.517,3.15-7.65c2.1-2.067,4.583-3.117,7.45-3.15C253.05,175.05,253.1,175.05,253.15,175.05z"
			/>
		
			<path fill-rule="evenodd" clip-rule="evenodd" fill="none" stroke="#000000" stroke-width="0.25" stroke-linecap="round" stroke-linejoin="round" stroke-miterlimit="3" d="
			M253.15,175.05h0.05c2.933,0,5.45,1.05,7.55,3.15c2.133,2.133,3.2,4.683,3.2,7.65s-1.067,5.5-3.2,7.6
			c-2.1,2.133-4.617,3.2-7.55,3.2c-2.967,0-5.517-1.066-7.65-3.2c-2.1-2.1-3.15-4.633-3.15-7.6s1.05-5.517,3.15-7.65
			c2.1-2.067,4.583-3.117,7.45-3.15C253.05,175.05,253.1,175.05,253.15,175.05z"/>
		
			<polyline fill-rule="evenodd" clip-rule="evenodd" fill="none" stroke="#000000" stroke-width="0.2" stroke-miterlimit="5" points="
			253.15,175.05 253.15,137.201 184.3,137.201 		"/>
	</g>
	<text transform="matrix(1 0 0 1 62.75 142.0054)" font-family="'Tahoma'" font-size="14">Pitot−Static Probes</text>
</g>
<g>
	<g>
		<path fill-rule="evenodd" clip-rule="evenodd" fill="#CCCCCC" d="M244.9,238.65c0,0.5-0.15,0.9-0.45,1.2
			c-0.3,0.3-0.667,0.45-1.1,0.45h-5c-0.4,0-0.75-0.15-1.05-0.45c-0.3-0.3-0.45-0.7-0.45-1.2v-0.9c0-0.467,0.15-0.867,0.45-1.2
			c0.3-0.333,0.65-0.5,1.05-0.5h5c0.433,0,0.8,0.167,1.1,0.5c0.3,0.333,0.45,0.733,0.45,1.2V238.65z"/>
		<path fill-rule="evenodd" clip-rule="evenodd" fill="none" stroke="#3E3D40" stroke-width="0.5" stroke-miterlimit="6.92" d="
			M244.9,238.65c0,0.5-0.15,0.9-0.45,1.2c-0.3,0.3-0.667,0.45-1.1,0.45h-5c-0.4,0-0.75-0.15-1.05-0.45c-0.3-0.3-0.45-0.7-0.45-1.2
			v-0.9c0-0.467,0.15-0.867,0.45-1.2c0.3-0.333,0.65-0.5,1.05-0.5h5c0.433,0,0.8,0.167,1.1,0.5c0.3,0.333,0.45,0.733,0.45,1.2
			V238.65z"/>
		
			<line fill="none" stroke="#000000" stroke-width="0.25" stroke-linecap="round" stroke-linejoin="round" stroke-miterlimit="3" x1="240.6" y1="240.8" x2="232.85" y2="302"/>
	</g>
	<text transform="matrix(1 0 0 1 215.4502 315.7998)" font-family="'Tahoma'" font-size="12.095">113BL</text>
</g>
<g>
	<g>
		<path fill-rule="evenodd" clip-rule="evenodd" fill="#CCCCCC" d="M246.5,231.35c0,0.566-0.2,1.05-0.6,1.45
			c-0.4,0.4-0.883,0.6-1.45,0.6c-0.567,0-1.034-0.2-1.4-0.6c-0.433-0.4-0.65-0.883-0.65-1.45c0-0.533,0.217-1,0.65-1.4
			c0.367-0.4,0.833-0.6,1.4-0.6c0.566,0,1.05,0.2,1.45,0.6C246.3,230.35,246.5,230.817,246.5,231.35z"/>
		<path fill-rule="evenodd" clip-rule="evenodd" fill="none" stroke="#3E3D40" stroke-width="0.5" stroke-miterlimit="6.92" d="
			M246.5,231.35c0-0.533-0.2-1-0.6-1.4c-0.4-0.4-0.883-0.6-1.45-0.6c-0.567,0-1.034,0.2-1.4,0.6c-0.433,0.4-0.65,0.867-0.65,1.4
			c0,0.566,0.217,1.05,0.65,1.45c0.367,0.4,0.833,0.6,1.4,0.6c0.566,0,1.05-0.2,1.45-0.6C246.3,232.4,246.5,231.917,246.5,231.35z"
			/>
		
			<line fill="none" stroke="#000000" stroke-width="0.25" stroke-linecap="round" stroke-linejoin="round" stroke-miterlimit="3" x1="245.8" y1="233.55" x2="300.2" y2="308"/>
	</g>
	<text transform="matrix(1 0 0 1 284.4502 321.6489)" font-family="'Tahoma'" font-size="12.095">113CL</text>
</g>
<g>
	<g>
		<path fill-rule="evenodd" clip-rule="evenodd" fill="#B3E1FF" d="M191.75,267.45c0-3.567,1.25-6.617,3.75-9.15
			c2.533-2.466,5.517-3.716,8.95-3.75c0.066,0,0.117,0,0.15,0h0.05c3.5,0,6.517,1.25,9.05,3.75c2.533,2.534,3.8,5.583,3.8,9.15
			c0,3.533-1.267,6.55-3.8,9.05c-2.534,2.567-5.55,3.85-9.05,3.85c-3.533,0-6.583-1.283-9.15-3.85
			C193,274,191.75,270.983,191.75,267.45z"/>
		
			<path fill-rule="evenodd" clip-rule="evenodd" fill="none" stroke="#000000" stroke-width="0.25" stroke-linecap="round" stroke-linejoin="round" stroke-miterlimit="3" d="
			M191.75,267.45c0-3.567,1.25-6.617,3.75-9.15c2.533-2.466,5.517-3.716,8.95-3.75c0.066,0,0.117,0,0.15,0h0.05
			c3.5,0,6.517,1.25,9.05,3.75c2.533,2.534,3.8,5.583,3.8,9.15c0,3.533-1.267,6.55-3.8,9.05c-2.534,2.567-5.55,3.85-9.05,3.85
			c-3.533,0-6.583-1.283-9.15-3.85C193,274,191.75,270.983,191.75,267.45z"/>
	</g>
	<g>
		<text transform="matrix(1 0 0 1 84.1001 271.4551)" font-family="'Tahoma'" font-size="14">NLG TAXI LIGHT</text>
	</g>
</g>
<text transform="matrix(1 0 0 1 225.4341 756.1494)" font-family="'Tahoma-Bold'" font-size="17">RH SIDE</text>
<text transform="matrix(1 0 0 1 79.6001 10.7051)"><tspan x="0" y="0" fill="#0000FF" font-family="'Tahoma-Bold'" font-size="14">NOSE Fuselage </tspan><tspan x="0" y="20" fill="#0000FF" font-family="'Tahoma'" font-size="13">AMM TASK 06-41-00-992-801</tspan></text>
<g>
	<g>
		<path fill-rule="evenodd" clip-rule="evenodd" fill="#B1B1B1" d="M565.65,195.35v10.45l24.399-17.4l-24.399-17.45v10.45H551.4
			v13.95H565.65z M546.5,175.65c0-6.5,3.25-9.75,9.75-9.75h26.05c6.5,0,9.75,3.25,9.75,9.75v26.05c0,6.5-3.25,9.75-9.75,9.75h-26.05
			c-6.5,0-9.75-3.25-9.75-9.75V175.65z"/>
		<polygon fill-rule="evenodd" clip-rule="evenodd" fill="#0099FF" points="565.65,195.35 551.4,195.35 551.4,181.4 565.65,181.4 
			565.65,170.95 590.05,188.4 565.65,205.8 		"/>
		<path fill-rule="evenodd" clip-rule="evenodd" fill="none" stroke="#999999" stroke-width="1.5" stroke-miterlimit="5" d="
			M546.5,175.65v26.05c0,6.5,3.25,9.75,9.75,9.75h26.05c6.5,0,9.75-3.25,9.75-9.75v-26.05c0-6.5-3.25-9.75-9.75-9.75h-26.05
			C549.75,165.9,546.5,169.15,546.5,175.65z"/>
	</g>
	<text transform="matrix(1 0 0 1 536.75 225.1553)" font-family="'Tahoma-Bold'" font-size="14">Fuselage </text>
</g>
<g>
	<g>
		<path fill-rule="evenodd" clip-rule="evenodd" fill="#B1B1B1" d="M12.15,589.3c0-6.5,3.25-9.75,9.75-9.75h26.05
			c6.5,0,9.75,3.25,9.75,9.75v26.05c0,6.5-3.25,9.75-9.75,9.75H21.9c-6.5,0-9.75-3.25-9.75-9.75V589.3z M52.8,595.65H38.55V585.2
			L14.15,602.6l24.4,17.45V609.6H52.8V595.65z"/>
		<polygon fill-rule="evenodd" clip-rule="evenodd" fill="#0099FF" points="52.8,595.65 52.8,609.6 38.55,609.6 38.55,620.05 
			14.15,602.6 38.55,585.2 38.55,595.65 		"/>
		<path fill-rule="evenodd" clip-rule="evenodd" fill="none" stroke="#999999" stroke-width="1.5" stroke-miterlimit="5" d="
			M12.15,589.3v26.05c0,6.5,3.25,9.75,9.75,9.75h26.05c6.5,0,9.75-3.25,9.75-9.75V589.3c0-6.5-3.25-9.75-9.75-9.75H21.9
			C15.4,579.55,12.15,582.8,12.15,589.3z"/>
	</g>
	<text transform="matrix(1 0 0 1 2 639.3555)" font-family="'Tahoma-Bold'" font-size="14">Fuselage </text>
</g>
<g>
	<g>
		<path fill-rule="evenodd" clip-rule="evenodd" fill="#666666" d="M231.1,579c-0.9,0.9-2.017,1.35-3.35,1.35
			c-1.267,0-2.35-0.449-3.25-1.35s-1.35-2-1.35-3.3c0-1.267,0.45-2.367,1.35-3.3c0.9-0.9,1.983-1.351,3.25-1.351
			c1.333,0,2.45,0.45,3.35,1.351c0.9,0.933,1.35,2.033,1.35,3.3C232.45,577,232,578.1,231.1,579z"/>
		
			<path fill-rule="evenodd" clip-rule="evenodd" fill="none" stroke="#000000" stroke-width="0.5" stroke-linecap="round" stroke-linejoin="round" stroke-miterlimit="3" d="
			M231.1,579c0.9-0.9,1.35-2,1.35-3.3c0-1.267-0.45-2.367-1.35-3.3c-0.9-0.9-2.017-1.351-3.35-1.351c-1.267,0-2.35,0.45-3.25,1.351
			c-0.9,0.933-1.35,2.033-1.35,3.3c0,1.3,0.45,2.399,1.35,3.3s1.983,1.35,3.25,1.35C229.083,580.35,230.2,579.9,231.1,579z"/>
	</g>
	<g>
		<path fill-rule="evenodd" clip-rule="evenodd" d="M241.35,574.7v2l-1.6,0.3h-2.7c-0.566-0.167-1.417-0.25-2.55-0.25
			s-1.983,0.083-2.55,0.25l-3.35-0.3l-4.95-0.55V575l4.95-0.55l3.65-0.3c0.433,0.133,1.183,0.199,2.25,0.199
			c1.033,0,1.817-0.066,2.35-0.199h3.1L241.35,574.7z"/>
	</g>
</g>
<g>
	<g>
		<g>
			<path fill-rule="evenodd" clip-rule="evenodd" fill="#666666" d="M310.05,626.35c0-1.267,0.45-2.35,1.351-3.25
				c0.899-0.866,1.966-1.3,3.199-1.3c1.267,0,2.334,0.434,3.2,1.3c0.9,0.9,1.351,1.983,1.351,3.25c0,1.233-0.45,2.284-1.351,3.15
				c-0.866,0.934-1.934,1.4-3.2,1.4c-1.233,0-2.3-0.467-3.199-1.4C310.5,628.634,310.05,627.583,310.05,626.35z"/>
			
				<path fill-rule="evenodd" clip-rule="evenodd" fill="none" stroke="#000000" stroke-width="0.5" stroke-linecap="round" stroke-linejoin="round" stroke-miterlimit="3" d="
				M310.05,626.35c0,1.233,0.45,2.284,1.351,3.15c0.899,0.934,1.966,1.4,3.199,1.4c1.267,0,2.334-0.467,3.2-1.4
				c0.9-0.866,1.351-1.917,1.351-3.15c0-1.267-0.45-2.35-1.351-3.25c-0.866-0.866-1.934-1.3-3.2-1.3c-1.233,0-2.3,0.434-3.199,1.3
				C310.5,624,310.05,625.083,310.05,626.35z"/>
		</g>
	</g>
	<g>
		<path fill-rule="evenodd" clip-rule="evenodd" d="M316.55,628.25c-0.5,0.533-1.133,0.8-1.899,0.8c-0.733,0-1.367-0.267-1.9-0.8
			c-0.533-0.5-0.8-1.134-0.8-1.9c0-0.733,0.267-1.366,0.8-1.899s1.167-0.8,1.9-0.8c0.767,0,1.399,0.267,1.899,0.8
			c0.533,0.533,0.8,1.166,0.8,1.899C317.35,627.116,317.083,627.75,316.55,628.25z"/>
	</g>
	<g>
		<g>
			<rect x="311.4" y="625.35" width="4.05" height="1.851"/>
			
				<rect x="311.4" y="625.35" fill="none" stroke="#000000" stroke-width="0.5" stroke-miterlimit="5" width="4.05" height="1.851"/>
		</g>
	</g>
</g>
<g>
	<g>
		<g>
			<path fill-rule="evenodd" clip-rule="evenodd" fill="#666666" d="M235.3,593.6c0-1.533,0.55-2.833,1.65-3.899
				c1.1-1.066,2.4-1.601,3.9-1.601c1.533,0,2.833,0.534,3.9,1.601c1.1,1.066,1.65,2.366,1.65,3.899c0,1.5-0.55,2.801-1.65,3.9
				c-1.067,1.066-2.367,1.6-3.9,1.6c-1.5,0-2.8-0.533-3.9-1.6C235.85,596.4,235.3,595.1,235.3,593.6z"/>
			
				<path fill-rule="evenodd" clip-rule="evenodd" fill="none" stroke="#000000" stroke-width="0.5" stroke-linecap="round" stroke-linejoin="round" stroke-miterlimit="3" d="
				M235.3,593.6c0,1.5,0.55,2.801,1.65,3.9c1.1,1.066,2.4,1.6,3.9,1.6c1.533,0,2.833-0.533,3.9-1.6c1.1-1.1,1.65-2.4,1.65-3.9
				c0-1.533-0.55-2.833-1.65-3.899c-1.067-1.066-2.367-1.601-3.9-1.601c-1.5,0-2.8,0.534-3.9,1.601
				C235.85,590.767,235.3,592.066,235.3,593.6z"/>
		</g>
	</g>
	<g>
		<path fill-rule="evenodd" clip-rule="evenodd" d="M238.2,593.75c0-0.733,0.25-1.35,0.75-1.85c0.5-0.467,1.1-0.7,1.8-0.7
			c0.733,0,1.333,0.233,1.8,0.7c0.5,0.5,0.75,1.116,0.75,1.85c0,0.7-0.25,1.3-0.75,1.8c-0.466,0.5-1.066,0.75-1.8,0.75
			c-0.7,0-1.3-0.25-1.8-0.75S238.2,594.45,238.2,593.75z"/>
	</g>
	<g>
		<g>
			<polygon fill-rule="evenodd" clip-rule="evenodd" fill="#333333" points="241.95,594.4 231.5,596.1 231.3,594.4 241.75,592.65 
							"/>
			
				<polygon fill-rule="evenodd" clip-rule="evenodd" fill="none" stroke="#000000" stroke-width="0.5" stroke-linecap="round" stroke-linejoin="round" stroke-miterlimit="3" points="
				241.95,594.4 241.75,592.65 231.3,594.4 231.5,596.1 			"/>
		</g>
	</g>
</g>
<g>
	<g>
		<path fill-rule="evenodd" clip-rule="evenodd" fill="#666666" d="M327.2,585.725c0.017,0.043,0.033,0.085,0.05,0.125l-3.6,0.301
			l-4.95,0.55v1.149l4.95,0.551l3.35,0.3c0.108-0.032,0.225-0.057,0.35-0.075c-0.194,0.778-0.595,1.47-1.199,2.075
			c-0.9,0.899-2.017,1.35-3.351,1.35c-1.267,0-2.35-0.45-3.25-1.35c-0.899-0.9-1.35-2-1.35-3.3c0-1.267,0.45-2.367,1.35-3.301
			c0.9-0.899,1.983-1.35,3.25-1.35c1.334,0,2.45,0.45,3.351,1.35C326.626,584.594,326.976,585.135,327.2,585.725z"/>
		<path fill-rule="evenodd" clip-rule="evenodd" d="M327.25,585.85h0.05c0.434,0.134,1.184,0.2,2.25,0.2
			c1.033,0,1.816-0.066,2.351-0.2h3.1l1.4,0.551v2l-1.601,0.3h-2.7c-0.566-0.167-1.416-0.25-2.55-0.25
			c-0.917,0-1.65,0.059-2.2,0.175c-0.125,0.019-0.241,0.043-0.35,0.075l-3.35-0.3l-4.95-0.551V586.7l4.95-0.55L327.25,585.85z"/>
		
			<path fill-rule="evenodd" clip-rule="evenodd" fill="none" stroke="#000000" stroke-width="0.5" stroke-linecap="round" stroke-linejoin="round" stroke-miterlimit="3" d="
			M327.2,585.725c-0.225-0.59-0.574-1.131-1.05-1.625c-0.9-0.899-2.017-1.35-3.351-1.35c-1.267,0-2.35,0.45-3.25,1.35
			c-0.899,0.934-1.35,2.034-1.35,3.301c0,1.3,0.45,2.399,1.35,3.3c0.9,0.899,1.983,1.35,3.25,1.35c1.334,0,2.45-0.45,3.351-1.35
			c0.604-0.605,1.005-1.297,1.199-2.075"/>
		<path fill-rule="evenodd" clip-rule="evenodd" fill="none" stroke="#000000" stroke-width="0.2" stroke-miterlimit="5" d="
			M327.25,585.85c-0.017-0.04-0.033-0.082-0.05-0.125"/>
	</g>
</g>
<g>
	<g>
		<g>
			<path fill-rule="evenodd" clip-rule="evenodd" fill="#666666" d="M266.5,223.85c0.9,0.9,1.35,1.983,1.35,3.25
				c0,1.233-0.45,2.283-1.35,3.15c-0.9,0.933-1.967,1.4-3.2,1.4c-1.267,0-2.333-0.467-3.2-1.4c-0.9-0.867-1.35-1.917-1.35-3.15
				c0-1.267,0.45-2.35,1.35-3.25c0.867-0.867,1.933-1.3,3.2-1.3C264.533,222.55,265.6,222.983,266.5,223.85z"/>
			
				<path fill-rule="evenodd" clip-rule="evenodd" fill="none" stroke="#000000" stroke-width="0.5" stroke-linecap="round" stroke-linejoin="round" stroke-miterlimit="3" d="
				M266.5,223.85c0.9,0.9,1.35,1.983,1.35,3.25c0,1.233-0.45,2.283-1.35,3.15c-0.9,0.933-1.967,1.4-3.2,1.4
				c-1.267,0-2.333-0.467-3.2-1.4c-0.9-0.867-1.35-1.917-1.35-3.15c0-1.267,0.45-2.35,1.35-3.25c0.867-0.867,1.933-1.3,3.2-1.3
				C264.533,222.55,265.6,222.983,266.5,223.85z"/>
		</g>
	</g>
	<g>
		<path fill-rule="evenodd" clip-rule="evenodd" d="M263.25,229.8c-0.767,0-1.4-0.267-1.9-0.8c-0.533-0.5-0.8-1.133-0.8-1.9
			c0-0.733,0.267-1.367,0.8-1.9c0.5-0.534,1.133-0.8,1.9-0.8c0.733,0,1.367,0.267,1.9,0.8c0.533,0.533,0.8,1.167,0.8,1.9
			c0,0.767-0.267,1.4-0.8,1.9C264.617,229.533,263.983,229.8,263.25,229.8z"/>
	</g>
	<g>
		<g>
			<rect x="262.45" y="226.1" width="4.05" height="1.85"/>
			<rect x="262.45" y="226.1" fill="none" stroke="#000000" stroke-width="0.5" stroke-miterlimit="5" width="4.05" height="1.85"/>
		</g>
	</g>
</g>
<g>
	<g>
		<path fill-rule="evenodd" clip-rule="evenodd" fill="#666666" d="M258.2,189.5c-0.9,0.9-1.983,1.35-3.25,1.35
			c-1.333,0-2.45-0.45-3.35-1.35s-1.35-2-1.35-3.3c0-1.267,0.45-2.367,1.35-3.3c0.9-0.9,2.017-1.35,3.35-1.35
			c1.267,0,2.35,0.45,3.25,1.35c0.9,0.934,1.35,2.033,1.35,3.3C259.55,187.5,259.1,188.6,258.2,189.5z"/>
		
			<path fill-rule="evenodd" clip-rule="evenodd" fill="none" stroke="#000000" stroke-width="0.5" stroke-linecap="round" stroke-linejoin="round" stroke-miterlimit="3" d="
			M258.2,189.5c-0.9,0.9-1.983,1.35-3.25,1.35c-1.333,0-2.45-0.45-3.35-1.35s-1.35-2-1.35-3.3c0-1.267,0.45-2.367,1.35-3.3
			c0.9-0.9,2.017-1.35,3.35-1.35c1.267,0,2.35,0.45,3.25,1.35c0.9,0.934,1.35,2.033,1.35,3.3C259.55,187.5,259.1,188.6,258.2,189.5z
			"/>
	</g>
	<g>
		<path fill-rule="evenodd" clip-rule="evenodd" d="M242.75,184.65h3.1c0.533,0.133,1.316,0.2,2.35,0.2
			c1.066,0,1.816-0.067,2.25-0.2l3.65,0.3l4.95,0.55v1.15l-4.95,0.55l-3.35,0.3c-0.567-0.167-1.417-0.25-2.55-0.25
			s-1.983,0.083-2.55,0.25h-2.7l-1.6-0.3v-2L242.75,184.65z"/>
	</g>
</g>
<g>
	<g>
		<g>
			<path fill-rule="evenodd" clip-rule="evenodd" fill="#666666" d="M342.7,194.2c0,1.5-0.55,2.8-1.65,3.9
				c-1.1,1.066-2.399,1.6-3.899,1.6c-1.534,0-2.834-0.534-3.9-1.6c-1.1-1.1-1.65-2.4-1.65-3.9c0-1.534,0.551-2.833,1.65-3.9
				c1.066-1.066,2.366-1.6,3.9-1.6c1.5,0,2.8,0.533,3.899,1.6C342.15,191.367,342.7,192.667,342.7,194.2z"/>
			
				<path fill-rule="evenodd" clip-rule="evenodd" fill="none" stroke="#000000" stroke-width="0.5" stroke-linecap="round" stroke-linejoin="round" stroke-miterlimit="3" d="
				M342.7,194.2c0,1.5-0.55,2.8-1.65,3.9c-1.1,1.066-2.399,1.6-3.899,1.6c-1.534,0-2.834-0.534-3.9-1.6c-1.1-1.1-1.65-2.4-1.65-3.9
				c0-1.534,0.551-2.833,1.65-3.9c1.066-1.066,2.366-1.6,3.9-1.6c1.5,0,2.8,0.533,3.899,1.6
				C342.15,191.367,342.7,192.667,342.7,194.2z"/>
		</g>
	</g>
	<g>
		<path fill-rule="evenodd" clip-rule="evenodd" d="M339.05,192.5c0.5,0.5,0.75,1.117,0.75,1.85c0,0.7-0.25,1.3-0.75,1.8
			s-1.1,0.75-1.8,0.75c-0.733,0-1.333-0.25-1.8-0.75c-0.5-0.5-0.75-1.1-0.75-1.8c0-0.733,0.25-1.35,0.75-1.85
			c0.467-0.467,1.066-0.7,1.8-0.7C337.95,191.8,338.55,192.033,339.05,192.5z"/>
	</g>
	<g>
		<g>
			<polygon fill-rule="evenodd" clip-rule="evenodd" fill="#333333" points="346.5,196.7 336.05,195 336.25,193.25 346.7,195 			"/>
			
				<polygon fill-rule="evenodd" clip-rule="evenodd" fill="none" stroke="#000000" stroke-width="0.5" stroke-linecap="round" stroke-linejoin="round" stroke-miterlimit="3" points="
				346.5,196.7 336.05,195 336.25,193.25 346.7,195 			"/>
		</g>
	</g>
</g>
<g>
	<g>
		<path fill-rule="evenodd" clip-rule="evenodd" d="M325.4,357.55h8.35v2.35h-5.3v2.15h4.85v2.35h-4.85v3.15h5.3v2.35h-8.35V357.55z
			 M294.35,358.4c0.967-0.733,2.183-1.1,3.65-1.1c0.733,0,1.467,0.083,2.2,0.25c0.733,0.133,1.383,0.333,1.95,0.6v2.8h-0.25
			c-0.467-0.367-1.033-0.7-1.7-1c-0.667-0.267-1.333-0.4-2-0.4l-0.75,0.05l-0.7,0.25c-0.2,0.1-0.367,0.233-0.5,0.4
			s-0.2,0.367-0.2,0.6c0,0.3,0.117,0.55,0.35,0.75c0.2,0.167,0.633,0.333,1.3,0.5l2.4,0.6c0.867,0.333,1.517,0.75,1.95,1.25
			c0.4,0.533,0.6,1.233,0.6,2.1c0,1.233-0.483,2.217-1.45,2.95c-0.967,0.733-2.267,1.1-3.9,1.1c-0.933,0-1.767-0.083-2.5-0.25
			c-0.7-0.167-1.367-0.4-2-0.7v-2.9h0.3c0.6,0.5,1.283,0.9,2.05,1.2c0.733,0.267,1.45,0.4,2.15,0.4l0.7-0.05
			c0.3-0.033,0.533-0.083,0.7-0.15c0.233-0.1,0.417-0.233,0.55-0.4c0.167-0.167,0.25-0.4,0.25-0.7c0-0.3-0.133-0.55-0.4-0.75
			c-0.233-0.2-0.517-0.333-0.85-0.4l-2.7-0.7c-0.933-0.333-1.617-0.784-2.05-1.35c-0.4-0.567-0.6-1.283-0.6-2.15
			C292.9,360.033,293.383,359.1,294.35,358.4z M320.35,363.7c0-0.8-0.149-1.5-0.449-2.1c-0.267-0.567-0.7-1.017-1.301-1.35
			c-0.399-0.233-0.833-0.35-1.3-0.35l-1.7-0.05v7.75l1.801-0.05c0.466-0.033,0.916-0.183,1.35-0.45
			c0.533-0.333,0.934-0.783,1.2-1.35C320.217,365.217,320.35,364.533,320.35,363.7z M303.75,357.55h6.65v2.15H308.6v8.05h1.801v2.15
			h-6.65v-2.15h1.75v-8.05h-1.75V357.55z M316.3,357.55c0.867,0,1.684,0.05,2.45,0.15c0.767,0.1,1.483,0.367,2.15,0.8
			c0.8,0.533,1.433,1.233,1.899,2.1c0.467,0.9,0.7,1.95,0.7,3.15c0,1.133-0.25,2.167-0.75,3.1c-0.5,0.9-1.134,1.583-1.9,2.05
			c-0.633,0.434-1.333,0.717-2.1,0.85c-0.767,0.1-1.566,0.15-2.4,0.15h-3.85v-12.35H316.3z M265.9,357.55h3.1v10h5.15v2.35h-8.25
			V357.55z M275.6,357.55h3.1v4.5h4.2v-4.5h3.1v12.35h-3.1v-5.5h-4.2v5.5h-3.1V357.55z"/>
		<path fill-rule="evenodd" clip-rule="evenodd" fill="#FFFF00" d="M199.35,260.85v14.45c-0.667,0-1.25-0.716-1.75-2.15
			c-0.467-1.4-0.7-3.1-0.7-5.1s0.233-3.7,0.7-5.1C198.1,261.55,198.683,260.85,199.35,260.85z"/>
		<polygon fill-rule="evenodd" clip-rule="evenodd" fill="#999999" points="200.55,260.3 200.55,276.3 200.55,260.3 211.45,264.25 
			211.45,270.4 200.55,276.55 200.55,276.3 199.6,276.3 199.6,260.3 		"/>
		
			<polyline fill-rule="evenodd" clip-rule="evenodd" fill="none" stroke="#000000" stroke-linecap="round" stroke-linejoin="round" stroke-miterlimit="3" points="
			373,109.85 373,114.9 341,116.55 341,111.85 341,111.85 		"/>
		
			<path fill-rule="evenodd" clip-rule="evenodd" fill="none" stroke="#000000" stroke-width="0.6" stroke-linecap="round" stroke-linejoin="round" stroke-miterlimit="3" d="
			M263.7,251.6l18.75,1.15l95.4,0.5v-143.5h-9.699l-25.801,1.6l-0.699,0.125l-0.65,0.1l-11.4,1.825l-14.399,4.2l-18.101,8.25
			L281.25,136l-25.05,20.05l-7.45,5.2l34.6,4.1h69.301V136.7h-71.5 M340,139.95h-29.85l-21.5,22.15h51.7l7.15-3.2v-14.45L340,139.95
			z M324.95,222.55h-11c-0.824,0.023-1.541,0.323-2.15,0.9c-0.666,0.6-1.033,1.317-1.1,2.15l-0.05,18.85
			c0.1,0.833,0.466,1.55,1.1,2.15c0.634,0.567,1.366,0.883,2.2,0.95h10.975c0.833-0.014,1.575-0.315,2.226-0.9
			c0.666-0.6,1.033-1.333,1.1-2.2v-18.8c-0.066-0.833-0.417-1.55-1.05-2.15C326.533,222.9,325.783,222.583,324.95,222.55z
			 M263.7,251.6l-64.65-3.95l-7.55-1.325l-7.25-1.275l-6.35-1.8l-15.2-6.95l-2.15-1.4l-1.35-1.3l-0.8-1.2l-0.6-1.95l0.2-3.8
			l0.6-1.65l1.35-2.25l1.05-1.3l5.05-5.1l20.8-16.75l4.65-2.975V195.7 M197.9,197.3v6.4l0.6,0.85l0.85,0.55l1.05,0.3h25
			c0.9-0.066,1.717-0.4,2.45-1c0.733-0.566,1.233-1.3,1.5-2.2v-20.45c0-0.6-0.25-1.15-0.75-1.65c-0.467-0.434-1.033-0.65-1.7-0.65
			c-0.333,0-0.683,0.1-1.05,0.3l-26.1,14.65l-1,0.75l-0.65,0.95L197.9,197.3z M244.5,164.15l-27.9,16.45l-25.1,16.025v49.7
			 M248.75,161.25l-4.25,2.9 M304,139.75h-21.95l-24.65,19.8l26.65,2.4L304,139.75z M284.6,221.5h-10.95
			c-0.813,0.078-1.546,0.395-2.2,0.95c-0.667,0.6-1.033,1.317-1.1,2.15v18.8c0.067,0.833,0.433,1.567,1.1,2.2
			c0.634,0.6,1.367,0.917,2.2,0.95h10.9c0.867-0.033,1.617-0.35,2.25-0.95c0.667-0.6,1.034-1.317,1.1-2.15v-18.8
			c-0.033-0.833-0.383-1.567-1.05-2.2C286.217,221.883,285.467,221.567,284.6,221.5z M246.75,231.35c0-0.667-0.217-1.217-0.65-1.65
			c-0.467-0.467-1.017-0.7-1.65-0.7c-0.667,0-1.217,0.233-1.65,0.7c-0.466,0.433-0.7,0.983-0.7,1.65c0,0.633,0.233,1.183,0.7,1.65
			c0.434,0.5,0.983,0.75,1.65,0.75c0.633,0,1.183-0.25,1.65-0.75C246.533,232.533,246.75,231.983,246.75,231.35z M243.35,236.05h-5
			l-0.7,0.2l-0.6,0.5l-0.2,0.7v1.7l0.2,0.7l0.6,0.55l0.7,0.2h5l0.8-0.2l0.45-0.55l0.3-0.7v-1.7l-0.3-0.7l-0.45-0.5L243.35,236.05z
			 M225.45,210.95L200.4,211l-1.05,0.25l-0.85,0.55l-0.6,0.8l0.05,18.7l-0.05,0.4c0,0.567,0.2,1.083,0.6,1.55
			c0.4,0.4,0.9,0.617,1.5,0.65l25.95,2.8c0.833-0.1,1.566-0.45,2.2-1.05c0.633-0.633,1.033-1.367,1.2-2.2l0.05-19.375
			c-0.271-0.853-0.771-1.578-1.5-2.175C227.167,211.3,226.35,210.983,225.45,210.95z M339.7,651.55v-0.375l-20.9,1.4l-4.774,0.125
			l-42.926,1.05l-72.25,0.1V510.4h9.65l30,2.05l13.45,2.75l13.899,4.7l17.35,8.649l12.2,8.101l30.65,24.1l1.825,1.1L384.4,596.3
			l0.699,0.55v-0.5 M295.55,537.3H224v28.65h69.35l34.525-4.101 M305.3,623.05c-0.666-0.567-1.433-0.883-2.3-0.95h-10.9
			c-0.866,0.067-1.6,0.383-2.2,0.95c-0.666,0.601-1.033,1.316-1.1,2.15l-0.05,18.8c0.1,0.833,0.467,1.565,1.1,2.2
			c0.6,0.6,1.333,0.916,2.2,0.95H303c0.845-0.046,1.578-0.361,2.2-0.95c0.633-0.601,1-1.316,1.1-2.15v-18.8
			C306.233,624.417,305.9,623.684,305.3,623.05z M262.65,623.15h-10.9c-0.846,0.011-1.579,0.312-2.2,0.899
			c-0.667,0.566-1.033,1.283-1.1,2.15V645.1c0.08,0.812,0.446,1.513,1.1,2.101c0.6,0.566,1.333,0.883,2.2,0.95h10.9
			c0.878-0.012,1.611-0.312,2.2-0.9c0.667-0.6,1.033-1.316,1.1-2.15v-18.85c-0.067-0.833-0.4-1.55-1-2.15
			C264.317,623.5,263.55,623.184,262.65,623.15z M339.7,651.175v-3.024c-0.066-0.867-0.417-1.601-1.05-2.2
			c-0.634-0.601-1.384-0.917-2.25-0.95H322.1c-0.813,0.012-1.546,0.295-2.199,0.85c-0.667,0.601-1.034,1.334-1.101,2.2v4.525
			 M349.75,580.05c-0.634,0-1.184,0.217-1.65,0.65c-0.466,0.467-0.733,1.05-0.8,1.75v20.35c0.233,0.9,0.717,1.634,1.45,2.2
			c0.7,0.634,1.533,0.967,2.5,1h25l1.05-0.25l0.8-0.6l0.7-0.851V597.9l-0.3-1.2l-0.6-0.95l-1-0.75L350.8,580.35
			C350.45,580.15,350.101,580.05,349.75,580.05z M385.1,596.85L408,614.7l7.65,7.35l1.05,1.3l1.35,2.25l0.65,1.65l0.149,2.85
			l-0.199,1.95l-0.45,1l-0.7,1.15l-1.4,1.3l-2.199,1.4L398.8,643.85l-10.649,2.801l-3.051,0.475l-19.6,2.325l-25.8,1.725
			 M377.3,611.85l-1.05-0.3H351.3c-0.934,0.033-1.767,0.351-2.5,0.95s-1.217,1.333-1.45,2.2v19.35c0.134,0.834,0.517,1.566,1.15,2.2
			c0.634,0.6,1.366,0.967,2.2,1.1l26-2.8c0.579-0.045,1.079-0.279,1.5-0.7c0.399-0.399,0.6-0.916,0.6-1.55v-19.1l-0.7-0.8
			L377.3,611.85z M335,626.4l-0.45,0.55l-0.8,0.2h-5l-0.7-0.2l-0.6-0.55l-0.2-0.7V624l0.2-0.7l0.6-0.5l0.7-0.2h5l0.8,0.2l0.45,0.5
			l0.3,0.7v1.7L335,626.4z M385.1,647.125V596.85"/>
		<line fill="none" stroke="#000000" stroke-width="0.2" stroke-miterlimit="5" x1="253.4" y1="137.2" x2="253.15" y2="137.2"/>
		
			<path fill-rule="evenodd" clip-rule="evenodd" fill="none" stroke="#000000" stroke-width="0.25" stroke-linecap="round" stroke-linejoin="round" stroke-miterlimit="3" d="
			M244.5,164.15l0.4,3.4 M245.4,171.7l0.8,6.7 M246.7,182.55l0.85,6.7 M249.35,204.3l0.4,3.35l1.05,3.35 M252.15,215.25l2.15,6.75
			 M255.6,226.2l2.15,6.75 M259.15,237.2l2.15,6.75 M262.6,248.2l1.1,3.4 M248.05,193.45l0.75,6.7 M322.05,627.45l-2.149,6.8
			 M315.05,649.45l-1.024,3.25 M318.55,638.45l-2.149,6.75 M330.95,583.85l-0.8,6.65 M332.25,572.95l-0.8,6.649 M333.2,565.399
			l-0.45,3.4 M328.35,605.55l-0.399,3.3l-1.05,3.45 M329.65,594.7l-0.801,6.649 M325.5,616.5l-2.15,6.8"/>
		<path fill-rule="evenodd" clip-rule="evenodd" fill="none" stroke="#000000" stroke-width="0.55" stroke-miterlimit="5" d="
			M199.35,275.3c-0.667,0-1.25-0.716-1.75-2.15c-0.467-1.4-0.7-3.1-0.7-5.1s0.233-3.7,0.7-5.1c0.5-1.4,1.083-2.1,1.75-2.1
			 M200.55,260.3l10.9,3.95v6.15l-10.9,6.15v-0.25h-0.95v-16H200.55v16"/>
		
			<path fill-rule="evenodd" clip-rule="evenodd" fill="none" stroke="#1A171B" stroke-width="0.5" stroke-linecap="round" stroke-linejoin="round" stroke-miterlimit="3" d="
			M229.15,559.65v-14.5l7.45-4.5h29.8l21.5,22.149h-51.6L229.15,559.65z M292.65,562.6L272.7,540.4h21.9l24.65,19.8L292.65,562.6z"
			/>
	</g>
</g>
</svg>
