<?xml version="1.0" encoding="utf-8"?>
<!-- Generator: Adobe Illustrator 16.2.1, SVG Export Plug-In . SVG Version: 6.00 Build 0)  -->
<!DOCTYPE svg PUBLIC "-//W3C//DTD SVG 1.1//EN" "http://www.w3.org/Graphics/SVG/1.1/DTD/svg11.dtd">
<svg version="1.1" id="Selected_Items" xmlns="http://www.w3.org/2000/svg" xmlns:xlink="http://www.w3.org/1999/xlink" x="0px"
	 y="0px" width="608.25px" height="767.65px" viewBox="0 0 608.25 767.65" enable-background="new 0 0 608.25 767.65"
	 xml:space="preserve">
<g>
	<g>
		<path fill-rule="evenodd" clip-rule="evenodd" fill="#CCCCCC" d="M159.7,222.75l1.05-1.3l5.05-5.1l20.8-16.75l4.65-2.95v49.7
			l-7.25-1.3l-6.35-1.8l-15.2-6.95l-2.15-1.4l-1.35-1.3l-0.8-1.2l-0.6-1.95l0.2-3.8l0.6-1.65L159.7,222.75z M408.6,615.425
			l-6.449,5.601L408.6,615.425l7.2,6.925l1.05,1.301l1.351,2.25l0.649,1.649L419,630.4l-0.2,1.949l-0.45,1l-0.699,1.15l-1.4,1.3
			l-2.2,1.4l-15.1,6.95l-10.65,2.8l-3.05,0.5v-50.3l22.9,17.85L408.6,615.425z M399.65,623.025v0.024l0.05,0.2l0.25,0.2l0.149,0.149
			l0.45,0.2l0.5,0.101l0.5-0.101l0.25-0.1l0.101-0.101l0.25-0.149l0.199-0.2l0.101-0.2l0.1-0.5v-0.45l-0.1-0.5l-0.101-0.199
			l-0.024-0.025L402.3,621.3l-0.1-0.2l-0.05-0.074L402,620.85l-0.25-0.149l-0.1-0.101l-0.75-0.199l-0.75,0.199l-0.2,0.101
			l-0.4,0.399l-0.05,0.2l-0.1,0.2L399.3,622l0.101,0.5l0.1,0.25l0.05,0.2L399.65,623.025z"/>
		<polygon fill-rule="evenodd" clip-rule="evenodd" points="402.325,621.375 402.4,621.8 402.4,622.25 402.3,622.75 402.2,622.95 
			402,623.15 401.75,623.3 401.65,623.4 401.4,623.5 400.9,623.6 400.4,623.5 399.95,623.3 399.65,623.025 399.55,622.95 
			399.5,622.75 399.4,622.5 399.3,622 399.4,621.5 399.5,621.3 399.55,621.1 399.95,620.7 400.15,620.6 400.9,620.4 401.65,620.6 
			401.75,620.7 402,620.85 402.15,621.025 402.2,621.1 402.3,621.3 		"/>
		
			<path fill-rule="evenodd" clip-rule="evenodd" fill="none" stroke="#000000" stroke-width="0.25" stroke-linecap="round" stroke-linejoin="round" stroke-miterlimit="3" d="
			M408.6,615.425l28-24.175 M408.6,615.425l-6.449,5.601"/>
	</g>
	<text transform="matrix(1 0 0 1 436.5996 588.3115)" font-family="'Tahoma'" font-size="11">111AT</text>
</g>
<g>
	<g>
		<path fill-rule="evenodd" clip-rule="evenodd" fill="#CCCCCC" d="M364.6,588.325l-2.8,5.95L364.6,588.325l12.45,6.975l1,0.75
			l0.601,0.95l0.3,1.2v6.399l-0.7,0.851l-0.8,0.6l-1.05,0.25h-25c-0.967-0.033-1.801-0.366-2.5-1c-0.733-0.566-1.217-1.3-1.45-2.2
			v-20.35c0.066-0.7,0.333-1.283,0.8-1.75c0.467-0.434,1.017-0.65,1.65-0.65c0.366,0,0.716,0.101,1.05,0.301L364.6,588.325z
			 M359.85,596.65v0.05l0.101,0.2l0.2,0.25l0.35,0.25l0.75,0.149L362,597.4l0.4-0.25l0.149-0.25l0.3-0.65v-0.5l-0.3-0.65l-0.149-0.3
			l-0.15-0.2l-0.25-0.25l-0.15-0.05l-0.05-0.024l-0.149-0.075l-0.301-0.05h-0.5l-0.649,0.199l-0.4,0.45l-0.1,0.2l-0.15,0.75
			l0.15,0.65l0.1,0.199L359.85,596.65z"/>
		<polygon fill-rule="evenodd" clip-rule="evenodd" points="362.55,595.1 362.7,595.45 362.7,595.95 362.4,596.6 362.25,596.85 
			361.85,597.1 361.1,597.25 360.35,597.1 360,596.85 359.85,596.65 359.8,596.6 359.7,596.4 359.55,595.75 359.7,595 359.8,594.8 
			360.2,594.35 360.85,594.15 361.35,594.15 361.65,594.2 361.8,594.275 361.85,594.3 362,594.35 362.25,594.6 362.4,594.8 		"/>
		
			<path fill-rule="evenodd" clip-rule="evenodd" fill="none" stroke="#000000" stroke-width="0.25" stroke-linecap="round" stroke-linejoin="round" stroke-miterlimit="3" d="
			M364.6,588.325l10.75-22.825 M364.6,588.325l-2.8,5.95"/>
	</g>
	<text transform="matrix(1 0 0 1 359.8506 560.9492)" font-family="'Tahoma'" font-size="12.095">212BR</text>
</g>
<g>
	<g>
		<path fill-rule="evenodd" clip-rule="evenodd" fill="#CCCCCC" d="M371.25,635.45l-5.75-8.175L371.25,635.45l-20.4,2.2
			c-0.833-0.134-1.566-0.5-2.199-1.101c-0.634-0.633-1.017-1.366-1.15-2.2V615c0.233-0.866,0.717-1.6,1.45-2.2
			c0.733-0.6,1.566-0.916,2.5-0.95h24.95l1.05,0.301l0.8,0.55l0.7,0.8v19.1c0,0.634-0.2,1.15-0.601,1.551
			c-0.433,0.433-0.933,0.666-1.5,0.699L371.25,635.45z M365.5,627.275l0.3-0.176l0.15-0.149l0.05-0.25l0.25-0.7l-0.15-0.5l-0.1-0.2
			l-0.05-0.3l-0.125-0.075L365.8,624.7l-0.8-0.55l-0.55-0.101L364,624.15l-0.25,0.1l-0.6,0.45l-0.101,0.3l-0.149,0.7l0.149,0.7
			l0.101,0.25l0.05,0.024v0.025l0.1,0.25l0.4,0.3l0.45,0.25l0.449,0.1l0.551-0.1l0.149-0.15l0.15-0.05L365.5,627.275z"/>
		<polygon fill-rule="evenodd" clip-rule="evenodd" points="365.825,624.925 365.85,625 365.95,625.2 366.1,625.7 365.85,626.4 
			365.8,626.65 365.65,626.8 365.3,627 365.15,627.05 365,627.2 364.45,627.3 364,627.2 363.55,626.95 363.2,626.675 363.15,626.65 
			363.05,626.4 362.9,625.7 363.05,625 363.15,624.7 363.75,624.25 364,624.15 364.45,624.05 365,624.15 365.8,624.7 		"/>
		
			<path fill-rule="evenodd" clip-rule="evenodd" fill="none" stroke="#000000" stroke-width="0.25" stroke-linecap="round" stroke-linejoin="round" stroke-miterlimit="3" d="
			M371.25,635.45l-5.75-8.175L365.3,627 M394.85,669l-23.6-33.55"/>
	</g>
	<text transform="matrix(1 0 0 1 379.6006 682.1992)" font-family="'Tahoma'" font-size="12.095">112AR</text>
</g>
<g>
	<g>
		<polygon fill-rule="evenodd" clip-rule="evenodd" fill="#CCCCCC" points="336.45,621.45 337.15,622.25 337.6,623.3 337.6,625.95 
			337.15,627 336.45,627.85 335.2,628.2 333.8,628.2 327.45,628.2 326.4,627.85 325.45,627 325.15,625.95 325.15,623.3 
			325.45,622.25 326.4,621.45 327.45,621.15 335.2,621.15 		"/>
		
			<line fill-rule="evenodd" clip-rule="evenodd" fill="none" stroke="#000000" stroke-width="0.6" stroke-linecap="round" stroke-linejoin="round" stroke-miterlimit="3" x1="333.8" y1="628.2" x2="373.6" y2="697.9"/>
	</g>
	<text transform="matrix(1 0 0 1 357.7012 711.5488)" font-family="'Tahoma'" font-size="12.095">112CR</text>
</g>
<g>
	<g>
		<path fill-rule="evenodd" clip-rule="evenodd" fill="#CCCCCC" d="M329.375,651.7l0.025-0.601h0.449l0.2-0.05l0.5-0.25l0.15-0.149
			l0.2-0.15l0.1-0.3l0.1-0.15l0.051-0.3v-0.45l-0.051-0.25l-0.199-0.45l-0.351-0.35l-0.2-0.1l-0.3-0.101l-0.2-0.1h-0.55l-0.149,0.1
			l-0.301,0.101l-0.199,0.1l-0.101,0.15l-0.25,0.199l-0.2,0.45l-0.1,0.45l0.1,0.55l0.101,0.15l0.1,0.3l0.25,0.15l0.101,0.149
			l0.199,0.15l0.45,0.149h0.101L329.375,651.7l-10.425,0.7v-4.551c0.066-0.866,0.434-1.6,1.1-2.199c0.667-0.567,1.4-0.851,2.2-0.851
			h14.3c0.867,0.033,1.617,0.351,2.25,0.95c0.634,0.6,0.983,1.333,1.05,2.2V651L329.375,651.7z"/>
		<polygon fill-rule="evenodd" clip-rule="evenodd" points="329.4,651.1 329.5,649.45 329.4,651.1 329.3,651.1 328.85,650.95 
			328.65,650.8 328.55,650.65 328.3,650.5 328.2,650.2 328.1,650.05 328,649.5 328.1,649.05 328.3,648.6 328.55,648.4 
			328.65,648.25 328.85,648.15 329.15,648.05 329.3,647.95 329.85,647.95 330.05,648.05 330.35,648.15 330.55,648.25 330.9,648.6 
			331.1,649.05 331.15,649.3 331.15,649.75 331.1,650.05 331,650.2 330.9,650.5 330.7,650.65 330.55,650.8 330.05,651.05 
			329.85,651.1 		"/>
		
			<path fill-rule="evenodd" clip-rule="evenodd" fill="none" stroke="#000000" stroke-width="0.25" stroke-linecap="round" stroke-linejoin="round" stroke-miterlimit="3" d="
			M329.375,651.7l-1.825,30.8 M329.4,651.1l0.1-1.649 M329.375,651.7l0.025-0.601"/>
	</g>
	<text transform="matrix(1 0 0 1 309.0508 694.8994)" font-family="'Tahoma'" font-size="12.095">112BR</text>
</g>
<g>
	<g>
		<path fill-rule="evenodd" clip-rule="evenodd" fill="#CCCCCC" d="M289.55,645.95l5.15-7.525l0.35,0.275l0.25,0.05l0.3,0.1h0.45
			l0.25-0.1l0.2-0.05l0.25-0.101l0.45-0.55l0.2-0.75l-0.1-0.55l-0.125-0.2l-0.025-0.1l-0.4-0.601l-0.15-0.149l-0.45-0.2l-0.25-0.05
			h-0.45l-0.3,0.05l-0.25,0.1l-0.4,0.25l-0.35,0.601l-0.1,0.55l0.2,0.75l0.1,0.15l0.05,0.149l0.25,0.351l0.05,0.024L289.55,645.95
			c-0.348-0.501-0.564-1.051-0.65-1.65l0.05-18.8c0.066-0.833,0.433-1.55,1.1-2.15c0.6-0.566,1.333-0.883,2.2-0.949h10.9
			c0.867,0.066,1.633,0.383,2.3,0.949c0.6,0.634,0.934,1.367,1,2.2v18.8c-0.101,0.834-0.467,1.551-1.101,2.15
			c-0.633,0.6-1.366,0.917-2.2,0.95H292.2c-0.867-0.033-1.6-0.351-2.2-0.95c-0.1-0.1-0.183-0.2-0.25-0.3
			C289.683,646.118,289.616,646.035,289.55,645.95z"/>
		<polygon fill-rule="evenodd" clip-rule="evenodd" points="297.175,636.55 297.25,637 297.05,637.75 296.6,638.3 296.35,638.4 
			296.15,638.45 295.9,638.55 295.45,638.55 295.15,638.45 294.9,638.4 294.775,638.3 294.5,638.1 294.35,637.9 294.25,637.75 
			294.05,637 294.15,636.45 294.5,635.85 294.9,635.6 295.15,635.5 295.45,635.45 295.9,635.45 296.15,635.5 296.6,635.7 
			296.75,635.85 297.15,636.45 		"/>
		
			<path fill-rule="evenodd" clip-rule="evenodd" fill="none" stroke="#000000" stroke-width="0.25" stroke-linecap="round" stroke-linejoin="round" stroke-miterlimit="3" d="
			M289.55,645.95L266,680.45 M294.7,638.425l0.075-0.125 M289.55,645.95l5.15-7.525"/>
	</g>
	<text transform="matrix(1 0 0 1 242.0508 692.749)" font-family="'Tahoma'" font-size="12.095">122AR</text>
</g>
<g>
	<g>
		<path fill-rule="evenodd" clip-rule="evenodd" fill="#CCCCCC" d="M248.6,644.45l5.95-4.101l0.2,0.301l0.3,0.35l0.5,0.3l0.25,0.05
			h0.5l0.2-0.05l0.5-0.3l0.25-0.35l0.2-0.2l0.1-0.2l0.05-0.25v-0.55l-0.05-0.2l-0.1-0.25l-0.05-0.05l-0.1-0.25l-0.35-0.351
			l-0.1-0.199l-0.5-0.25l-0.2-0.051h-0.5l-0.25,0.051l-0.25,0.1l-0.25,0.15l-0.3,0.35l-0.25,0.45l-0.1,0.5l0.1,0.5l0.125,0.2
			l0.025,0.1l0.05,0.1L248.6,644.45V626.5c0.066-0.866,0.433-1.583,1.1-2.15c0.633-0.6,1.367-0.899,2.2-0.899h10.9
			c0.9,0.033,1.667,0.35,2.3,0.95c0.6,0.6,0.933,1.316,1,2.149V645.4c-0.067,0.833-0.434,1.55-1.1,2.149
			c-0.6,0.601-1.333,0.9-2.2,0.9h-10.9c-0.867-0.066-1.6-0.384-2.2-0.95c-0.667-0.6-1.034-1.3-1.1-2.1V644.45z"/>
		<polygon fill-rule="evenodd" clip-rule="evenodd" points="257.4,638.95 257.45,639.15 257.45,639.7 257.4,639.95 257.3,640.15 
			257.1,640.35 256.85,640.7 256.35,641 256.15,641.05 255.65,641.05 255.4,641 254.9,640.7 254.6,640.35 254.575,640.325 
			254.475,640.15 254.35,639.95 254.25,639.45 254.35,638.95 254.6,638.5 254.9,638.15 255.15,638 255.4,637.9 255.65,637.85 
			256.15,637.85 256.35,637.9 256.85,638.15 256.95,638.35 257.3,638.7 		"/>
		
			<path fill-rule="evenodd" clip-rule="evenodd" fill="none" stroke="#000000" stroke-width="0.25" stroke-linecap="round" stroke-linejoin="round" stroke-miterlimit="3" d="
			M248.6,644.45L203.35,675.6 M254.55,640.35l0.025-0.024 M248.6,644.45l5.95-4.101"/>
	</g>
	<text transform="matrix(1 0 0 1 178.001 687.3496)" font-family="'Tahoma'" font-size="12.095">122BR</text>
</g>
<g>
	<g>
		<path fill-rule="evenodd" clip-rule="evenodd" fill="#B3E1FF" d="M322.2,576.1c0.066,0,0.133,0,0.2,0
			c2.933,0,5.449,1.051,7.55,3.15c2.133,2.134,3.2,4.684,3.2,7.65c0,2.966-1.067,5.5-3.2,7.6c-2.101,2.134-4.617,3.2-7.55,3.2
			c-2.967,0-5.517-1.066-7.65-3.2c-2.1-2.1-3.15-4.634-3.15-7.6c0-2.967,1.051-5.517,3.15-7.65
			C316.835,577.197,319.318,576.147,322.2,576.1z"/>
		
			<polyline fill-rule="evenodd" clip-rule="evenodd" fill="none" stroke="#000000" stroke-width="0.2" stroke-miterlimit="5" points="
			322.2,576.1 322.2,532.45 384.5,532.45 		"/>
		
			<path fill-rule="evenodd" clip-rule="evenodd" fill="none" stroke="#000000" stroke-width="0.25" stroke-linecap="round" stroke-linejoin="round" stroke-miterlimit="3" d="
			M322.2,576.1c0.066,0,0.133,0,0.2,0c2.933,0,5.449,1.051,7.55,3.15c2.133,2.134,3.2,4.684,3.2,7.65c0,2.966-1.067,5.5-3.2,7.6
			c-2.101,2.134-4.617,3.2-7.55,3.2c-2.967,0-5.517-1.066-7.65-3.2c-2.1-2.1-3.15-4.634-3.15-7.6c0-2.967,1.051-5.517,3.15-7.65
			C316.835,577.197,319.318,576.147,322.2,576.1z"/>
	</g>
	<text transform="matrix(1 0 0 1 388 537.2051)" font-family="'Tahoma'" font-size="14">Pitot-Static Probes</text>
</g>
<g>
	<g>
		<polygon fill-rule="evenodd" clip-rule="evenodd" points="295.45,550.55 294.3,551.8 295.45,550.55 295.5,550.6 295.65,550.8 
			295.725,551.025 295.9,551.2 295.95,551.4 295.95,551.95 295.9,552.25 295.5,552.85 295.35,553 295.05,553.1 294.9,553.25 
			294.6,553.3 294.15,553.3 293.9,553.25 293.6,553.1 293.25,552.85 293.075,552.6 292.95,552.45 292.8,551.75 292.9,551.2 
			293.05,550.8 293.6,550.3 293.9,550.2 294.15,550.15 294.6,550.15 294.9,550.2 295.05,550.3 295.35,550.45 		"/>
		<path fill-rule="evenodd" clip-rule="evenodd" fill="#CCCCCC" d="M293.075,552.6l0.025,0.15l0.3,0.4l0.35,0.25l0.3,0.149
			l0.25,0.05h0.45l0.3-0.05l0.15-0.149l0.3-0.101l0.15-0.149l0.4-0.601l0.05-0.3v-0.5l-0.05-0.25l-0.1-0.1l-0.05-0.2l-0.175-0.175
			l-0.075-0.226l-0.15-0.2l-0.05-0.05l-0.1-0.1l-0.3-0.15l-0.15-0.1l-0.3-0.05h-0.45l-0.25,0.05l-0.3,0.1l-0.55,0.5l-0.15,0.4
			l-0.1,0.55l0.15,0.7L293.075,552.6z M300.325,545.175L319.4,560.5l-26.601,2.4l-19.95-22.2h21.9L300.325,545.175l-4.875,5.375
			L300.325,545.175z"/>
		<path fill-rule="evenodd" clip-rule="evenodd" fill="none" stroke="#1A171B" stroke-width="0.2" stroke-miterlimit="6.92" d="
			M295.45,550.55l-1.15,1.25 M300.325,545.175l-4.875,5.375 M300.325,545.175L329.55,513.1"/>
	</g>
	<text transform="matrix(1 0 0 1 309.9014 507.5996)" font-family="'Tahoma'" font-size="12.095">211WSR</text>
</g>
<g>
	<g>
		<polygon fill-rule="evenodd" clip-rule="evenodd" fill="#CCCCCC" points="256.625,540.95 258.3,550.05 258,550.05 257.7,550.1 
			257.5,550.2 257.05,550.55 256.9,550.7 256.8,550.95 256.6,551.65 256.8,552.35 256.925,552.6 257.05,552.85 257.2,553.05 
			257.85,553.5 258.15,553.55 258.6,553.55 258.85,553.5 259.3,553.2 259.65,552.85 259.85,552.45 259.9,552.2 259.9,551.65 
			259.85,551.45 259.65,551 259.625,550.975 259.5,550.7 259.15,550.4 258.7,550.1 258.45,550.05 258.3,550.05 256.625,540.95 
			266.55,540.95 288.05,563.1 236.45,563.1 229.3,559.95 229.3,545.45 236.75,540.95 		"/>
		<polygon fill-rule="evenodd" clip-rule="evenodd" points="259.625,550.975 259.7,551.15 259.75,551.35 259.75,551.9 259.7,552.15 
			259.5,552.55 259.15,552.9 258.7,553.2 258.45,553.25 258,553.25 257.7,553.2 257.05,552.75 256.925,552.6 256.8,552.35 
			256.6,551.65 256.8,550.95 256.9,550.7 257.05,550.55 257.5,550.2 257.7,550.1 258,550.05 258.3,550.05 258.6,551.65 
			258.3,550.05 258.45,550.05 258.7,550.1 259.15,550.4 259.5,550.7 		"/>
		<path fill-rule="evenodd" clip-rule="evenodd" fill="none" stroke="#1A171B" stroke-width="0.2" stroke-miterlimit="6.92" d="
			M256.625,540.95L247.8,492.7 M258.3,550.05l0.3,1.601 M256.625,540.95l1.675,9.1"/>
	</g>
	<text transform="matrix(1 0 0 1 224.8008 486.8994)" font-family="'Tahoma'" font-size="12.095">211SWR</text>
</g>
<g>
	<g>
		<path fill-rule="evenodd" clip-rule="evenodd" fill="#CCCCCC" d="M209.975,189.05l4.525,5.275L209.975,189.05l16.025-9
			c0.367-0.2,0.717-0.3,1.05-0.3c0.667,0,1.233,0.217,1.7,0.65c0.5,0.5,0.75,1.05,0.75,1.65v20.45c-0.267,0.9-0.767,1.633-1.5,2.2
			c-0.733,0.6-1.55,0.933-2.45,1h-25l-1.05-0.3l-0.85-0.55l-0.6-0.85v-6.4l0.2-1.2l0.65-0.95l1-0.75L209.975,189.05z M214.5,194.325
			l-0.1,0.075l-0.2,0.2l-0.2,0.5l-0.05,0.2v0.5L214,196l0.2,0.5l0.05,0.025l0.1,0.275l0.2,0.15l0.2,0.2l0.4,0.2l0.55,0.1l0.5-0.1
			l0.2-0.1l0.4-0.3l0.15-0.15l0.15-0.2v-0.3l0.15-0.2v-0.5l-0.15-0.2v-0.1v-0.2l-0.15-0.2v-0.1l-0.3-0.4l-0.4-0.25l-0.2-0.1
			l-0.5-0.15l-0.55,0.15l-0.4,0.2L214.5,194.325z"/>
		<polygon fill-rule="evenodd" clip-rule="evenodd" points="216.95,194.9 216.95,195.1 217.1,195.3 217.1,195.4 217.1,195.8 
			216.95,196 216.95,196.3 216.8,196.5 216.65,196.65 216.25,196.95 216.05,197.05 215.55,197.15 215,197.05 214.6,196.85 
			214.25,196.525 214.2,196.5 214,196 213.95,195.8 213.95,195.3 214,195.1 214.2,194.6 214.4,194.4 214.5,194.325 214.6,194.25 
			215,194.05 215.55,193.9 216.05,194.05 216.25,194.15 216.65,194.4 216.95,194.8 		"/>
		
			<path fill-rule="evenodd" clip-rule="evenodd" fill="none" stroke="#000000" stroke-width="0.25" stroke-linecap="round" stroke-linejoin="round" stroke-miterlimit="3" d="
			M209.975,189.05l4.525,5.275 M191.55,167.6l18.425,21.45"/>
	</g>
	<text transform="matrix(1 0 0 1 175.3506 162.6489)" font-family="'Tahoma'" font-size="12.095">212AL</text>
</g>
<g>
	<g>
		<path fill-rule="evenodd" clip-rule="evenodd" fill="#CCCCCC" d="M215.35,225.575l-16.1-13.85l0.25-0.175l1.05-0.25l25.05-0.05
			c0.9,0.033,1.717,0.35,2.45,0.95c0.733,0.6,1.233,1.333,1.5,2.2l-0.05,19.35c-0.167,0.833-0.567,1.567-1.2,2.2
			c-0.633,0.6-1.367,0.95-2.2,1.05l-25.95-2.8c-0.6-0.034-1.1-0.25-1.5-0.65c-0.4-0.466-0.6-0.983-0.6-1.55l0.05-0.4l-0.05-18.7
			l0.6-0.8l0.6-0.375L215.35,225.575z M217.75,226.35l-0.05-0.2l-0.2-0.2l-0.15-0.2l-0.6-0.4l-0.3-0.05H216l-0.3,0.05l-0.15,0.15
			l-0.2,0.075l-0.05,0.025l-0.2,0.15l-0.3,0.4l-0.1,0.2l-0.05,0.3v0.5l0.05,0.2l0.15,0.3l0.25,0.45l0.15,0.2l0.2,0.15l0.25,0.1
			l0.15,0.1l0.3,0.1h0.45l0.7-0.3l0.2-0.15l0.35-0.45l0.1-0.4v-0.5l-0.1-0.5L217.75,226.35z"/>
		<polygon fill-rule="evenodd" clip-rule="evenodd" points="214.85,227.65 214.7,227.35 214.65,227.15 214.65,226.65 214.7,226.35 
			214.8,226.15 215.1,225.75 215.3,225.6 215.35,225.575 215.55,225.5 215.7,225.35 216,225.3 216.45,225.3 216.75,225.35 
			217.35,225.75 217.5,225.95 217.7,226.15 217.75,226.35 217.8,226.65 217.8,227.15 217.7,227.55 217.35,228 217.15,228.15 
			216.45,228.45 216,228.45 215.7,228.35 215.55,228.25 215.3,228.15 215.1,228 		"/>
		
			<path fill-rule="evenodd" clip-rule="evenodd" fill="none" stroke="#000000" stroke-width="0.25" stroke-linecap="round" stroke-linejoin="round" stroke-miterlimit="3" d="
			M199.25,211.725l-34.3-29.475 M215.35,225.575l-16.1-13.85"/>
	</g>
	<text transform="matrix(1 0 0 1 129.0508 184.9995)" font-family="'Tahoma'" font-size="12.095">113AL</text>
</g>
<g>
	<g>
		<polygon fill-rule="evenodd" clip-rule="evenodd" fill="#CCCCCC" points="275.475,145.45 280.15,151.15 280.1,151.2 
			279.85,151.35 279.75,151.6 279.6,152.3 279.75,153 279.85,153.25 279.9,153.275 279.9,153.3 280,153.55 280.4,153.85 
			280.55,154.05 281.05,154.2 281.55,154.2 281.85,154.15 282.05,154.05 282.45,153.75 282.6,153.55 282.8,153.1 282.85,152.9 
			282.85,152.4 282.8,152.15 282.6,151.65 282.55,151.6 282.45,151.35 282.1,151.05 281.4,150.7 280.9,150.7 280.4,150.95 
			280.25,151.05 280.15,151.15 275.475,145.45 282.2,140.05 304.15,140.05 284.2,162.25 257.55,159.85 		"/>
		<polygon fill-rule="evenodd" clip-rule="evenodd" points="282.55,151.6 282.65,151.85 282.7,152.1 282.7,152.6 282.65,152.8 
			282.45,153.25 282.3,153.45 281.9,153.75 281.7,153.85 281.4,153.9 280.9,153.9 280.4,153.75 280.25,153.55 279.9,153.275 
			279.85,153.25 279.75,153 279.6,152.3 279.75,151.6 279.85,151.35 280.1,151.2 280.15,151.15 281.1,152.3 280.15,151.15 
			280.25,151.05 280.4,150.95 280.9,150.7 281.4,150.7 282.1,151.05 282.45,151.35 		"/>
		
			<polyline fill-rule="evenodd" clip-rule="evenodd" fill="none" stroke="#1A171B" stroke-width="0.2" stroke-miterlimit="6.92" points="
			251,115.5 275.475,145.45 280.15,151.15 281.1,152.3 		"/>
	</g>
	<text transform="matrix(1 0 0 1 229.3008 110.3501)" font-family="'Tahoma'" font-size="12.095">211WSL</text>
</g>
<g>
	<g>
		<path fill-rule="evenodd" clip-rule="evenodd" fill="#CCCCCC" d="M317.15,140.25l1.425,10.55L317.15,140.25h23l7.5,4.5v14.45
			l-7.15,3.2h-51.7l21.5-22.15H317.15z M318.575,150.8h-0.025l-0.5,0.25l-0.149,0.05l-0.4,0.4l-0.2,0.4l-0.05,0.25v0.5l0.05,0.25
			l0.101,0.25l0.074,0.125l0.075,0.175l0.101,0.15l0.399,0.4l0.15,0.1l0.5,0.15h0.5l0.25-0.05l0.5-0.2l0.55-0.8l0.05-0.25v-0.5
			l-0.05-0.25l-0.125-0.225l-0.025-0.075l-0.399-0.65l-0.15-0.15l-0.25-0.05l-0.5-0.25H318.575z"/>
		<path fill-rule="evenodd" clip-rule="evenodd" d="M320.375,151.975l0.025,0.175v0.5l-0.051,0.25l-0.55,0.8l-0.5,0.2l-0.25,0.05
			h-0.5l-0.5-0.15l-0.149-0.1l-0.426-0.425l-0.074-0.125l-0.101-0.25l-0.05-0.25v-0.5l0.05-0.25l0.2-0.4l0.4-0.4l0.149-0.05
			l0.5-0.25h0.025h0.475l0.5,0.25l0.25,0.05l0.15,0.15l0.399,0.65L320.375,151.975z M318.575,150.8l0.225,1.6L318.575,150.8z"/>
		<path fill-rule="evenodd" clip-rule="evenodd" fill="none" stroke="#1A171B" stroke-width="0.2" stroke-miterlimit="6.92" d="
			M317.15,140.25l1.425,10.55l0.225,1.6 M309.35,82.45l7.801,57.8"/>
	</g>
	<text transform="matrix(1 0 0 1 287.4502 78.0493)" font-family="'Tahoma'" font-size="12.095">211SWL</text>
</g>
<g>
	<g>
		<polygon fill-rule="evenodd" clip-rule="evenodd" fill="#CCCCCC" points="357,111.85 357.925,110.075 373.1,109.3 373.1,114.35 
			341.1,116 341.1,110.95 357.925,110.075 		"/>
		
			<path fill-rule="evenodd" clip-rule="evenodd" fill="none" stroke="#000000" stroke-linecap="round" stroke-linejoin="round" stroke-miterlimit="3" d="
			M357.925,110.075L370.65,85.65 M357,111.85l0.925-1.775"/>
	</g>
	<text transform="matrix(1 0 0 1 361.5498 82.061)" font-family="'Tahoma'" font-size="11">821</text>
</g>
<g>
	<g>
		<path fill-rule="evenodd" clip-rule="evenodd" fill="#CCCCCC" d="M287.9,244.55l-8.25-6.3L287.9,244.55
			c-0.016,0.049-0.033,0.099-0.05,0.15c-0.2,0.433-0.5,0.833-0.9,1.2c-0.633,0.6-1.383,0.917-2.25,0.95h-10.9
			c-0.833-0.033-1.566-0.35-2.2-0.95c-0.667-0.633-1.033-1.367-1.1-2.2v-18.8c0.067-0.833,0.433-1.55,1.1-2.15
			c0.667-0.567,1.4-0.883,2.2-0.95h10.95c0.867,0.067,1.617,0.383,2.25,0.95c0.667,0.633,1.017,1.367,1.05,2.2v18.8
			C288.022,244.026,287.972,244.293,287.9,244.55z M279.65,238.25l0.1-0.15l0.1-0.25v-0.25l0.05-0.2l-0.05-0.3v-0.25l-0.15-0.3
			l-0.2-0.4l-0.2-0.2l-0.2-0.15l-0.15-0.15l-0.3-0.1h-0.25l-0.2-0.05l-0.3,0.05h-0.25l-0.2,0.1l-0.4,0.3l-0.1,0.2l-0.3,0.4
			l-0.1,0.55l0.1,0.45l0.125,0.225l0.025,0.075l0.15,0.25l0.1,0.1l0.05,0.05l0.1,0.25l0.15,0.15l0.25,0.15l0.45,0.1h0.5l0.55-0.1
			l0.15-0.15l0.2-0.15L279.65,238.25z"/>
		<polygon fill-rule="evenodd" clip-rule="evenodd" points="277.1,238.25 277.05,238.2 276.95,237.95 276.775,237.775 
			276.65,237.55 276.55,237.1 276.65,236.55 276.95,236.15 277.05,235.95 277.45,235.65 277.65,235.55 277.9,235.55 278.2,235.5 
			278.4,235.55 278.65,235.55 278.95,235.65 279.1,235.8 279.3,235.95 279.5,236.15 279.7,236.55 279.7,236.8 279.75,237.1 
			279.7,237.3 279.7,237.55 279.6,237.8 279.4,238.05 278.15,237.1 279.4,238.05 279.3,238.2 279.1,238.35 278.95,238.5 
			278.4,238.6 277.9,238.6 277.45,238.5 277.2,238.35 		"/>
		
			<path fill-rule="evenodd" clip-rule="evenodd" fill="none" stroke="#000000" stroke-width="0.25" stroke-linecap="round" stroke-linejoin="round" stroke-miterlimit="3" d="
			M287.9,244.55l-8.25-6.3 M279.4,238.05l-1.25-0.95 M279.4,238.05l0.25,0.2 M287.9,244.55l42.3,32.3"/>
	</g>
	<text transform="matrix(1 0 0 1 314.3008 288.8989)" font-family="'Tahoma'" font-size="12.095">121AL</text>
</g>
<g>
	<g>
		<path fill-rule="evenodd" clip-rule="evenodd" fill="#CCCCCC" d="M328.4,240.2l-6.45-4.3L328.4,240.2v4.6
			c-0.067,0.833-0.434,1.55-1.101,2.15c-0.666,0.6-1.399,0.9-2.2,0.9h-11c-0.833-0.067-1.566-0.383-2.199-0.95
			c-0.634-0.6-1-1.316-1.101-2.15l0.05-18.85c0.067-0.833,0.434-1.55,1.101-2.15c0.6-0.567,1.316-0.867,2.149-0.9h11
			c0.834,0.033,1.584,0.35,2.25,0.95c0.634,0.6,0.983,1.317,1.051,2.15V240.2z M321.95,235.9l0.1-0.2l0.05-0.3v-0.5l-0.149-0.45
			l-0.125-0.25l-0.125-0.25l-0.15-0.2l-0.2-0.15l-0.699-0.3h-0.5l-0.5,0.2l-0.551,0.45l-0.1,0.2l-0.05,0.3l-0.05,0.15l-0.051,0.3
			l0.15,0.7l0.1,0.2l0.025,0.025l0.025,0.075l0.1,0.2l0.25,0.2l0.3,0.3l0.3,0.1l0.2,0.1h0.5l0.3-0.1l0.2-0.1l0.2-0.15l0.35-0.35
			L321.95,235.9z"/>
		<polygon fill-rule="evenodd" clip-rule="evenodd" points="321.825,234.2 321.95,234.6 321.95,235.1 321.9,235.4 321.725,235.75 
			321.7,235.8 321.35,236.15 321.15,236.3 320.95,236.4 320.65,236.5 320.15,236.5 319.95,236.4 319.65,236.3 319.35,236 
			319.125,235.825 319.1,235.8 319,235.6 318.85,234.9 318.9,234.6 318.95,234.45 319,234.15 319.1,233.95 319.65,233.5 
			320.15,233.3 320.65,233.3 321.35,233.6 321.55,233.75 321.7,233.95 		"/>
		
			<path fill-rule="evenodd" clip-rule="evenodd" fill="none" stroke="#000000" stroke-width="0.25" stroke-linecap="round" stroke-linejoin="round" stroke-miterlimit="3" d="
			M328.4,240.2l-6.45-4.3 M328.4,240.2l55.899,37.25 M321.725,235.75l0.226,0.15"/>
	</g>
	<text transform="matrix(1 0 0 1 370.9014 289.6997)" font-family="'Tahoma'" font-size="12.095">121BL</text>
</g>
<g>
	<g>
		<path fill-rule="evenodd" clip-rule="evenodd" fill="#B3E1FF" d="M235.6,582.95c-2.1,2.133-4.617,3.2-7.55,3.2
			c-2.966,0-5.517-1.067-7.65-3.2c-2.1-2.101-3.15-4.634-3.15-7.601c0-2.966,1.05-5.517,3.15-7.649
			c2.133-2.101,4.684-3.15,7.65-3.15c2.934,0,5.45,1.05,7.55,3.15c2.133,2.133,3.2,4.684,3.2,7.649
			C238.8,578.316,237.733,580.85,235.6,582.95z"/>
		
			<path fill-rule="evenodd" clip-rule="evenodd" fill="none" stroke="#000000" stroke-width="0.25" stroke-linecap="round" stroke-linejoin="round" stroke-miterlimit="3" d="
			M235.6,582.95c-2.1,2.133-4.617,3.2-7.55,3.2c-2.966,0-5.517-1.067-7.65-3.2c-2.1-2.101-3.15-4.634-3.15-7.601
			c0-2.966,1.05-5.517,3.15-7.649c2.133-2.101,4.684-3.15,7.65-3.15c2.934,0,5.45,1.05,7.55,3.15c2.133,2.133,3.2,4.684,3.2,7.649
			C238.8,578.316,237.733,580.85,235.6,582.95z"/>
	</g>
	<text transform="matrix(1 0 0 1 94.5312 571.7549)"><tspan x="0" y="0" font-family="'Tahoma'" font-size="14">STBY Pitot−</tspan><tspan x="-2.765" y="17" font-family="'Tahoma'" font-size="14">Static Probes</tspan></text>
	<g>
		
			<line fill-rule="evenodd" clip-rule="evenodd" fill="none" stroke="#000000" stroke-width="0.2" stroke-miterlimit="5" x1="217.5" y1="575.15" x2="170.55" y2="575.15"/>
	</g>
</g>
<g>
	<g>
		<path fill-rule="evenodd" clip-rule="evenodd" fill="#B3E1FF" d="M239.55,604.95c-2.927-0.06-5.46-1.144-7.6-3.25
			c-2.133-2.134-3.2-4.717-3.2-7.75s1.067-5.634,3.2-7.8c2.2-2.167,4.816-3.25,7.85-3.25c3.034,0,5.617,1.083,7.75,3.25
			c2.167,2.166,3.25,4.767,3.25,7.8s-1.083,5.616-3.25,7.75c-2.133,2.166-4.716,3.25-7.75,3.25
			C239.716,604.95,239.633,604.95,239.55,604.95z"/>
		
			<path fill-rule="evenodd" clip-rule="evenodd" fill="none" stroke="#000000" stroke-width="0.25" stroke-linecap="round" stroke-linejoin="round" stroke-miterlimit="3" d="
			M239.55,604.95c-2.927-0.06-5.46-1.144-7.6-3.25c-2.133-2.134-3.2-4.717-3.2-7.75s1.067-5.634,3.2-7.8
			c2.2-2.167,4.816-3.25,7.85-3.25c3.034,0,5.617,1.083,7.75,3.25c2.167,2.166,3.25,4.767,3.25,7.8s-1.083,5.616-3.25,7.75
			c-2.133,2.166-4.716,3.25-7.75,3.25C239.716,604.95,239.633,604.95,239.55,604.95z"/>
		
			<polyline fill-rule="evenodd" clip-rule="evenodd" fill="none" stroke="#000000" stroke-width="0.2" stroke-miterlimit="5" points="
			239.55,604.95 239.55,628.45 181.8,628.45 		"/>
	</g>
	<text transform="matrix(1 0 0 1 78.9194 633.4199)" font-family="'Tahoma'" font-size="15">Angle of Attack</text>
</g>
<g>
	<g>
		<path fill-rule="evenodd" clip-rule="evenodd" fill="#B3E1FF" d="M312.875,633.2l-0.15,0.399L312.875,633.2z M312.725,633.6
			c-1.354-0.313-2.562-1.014-3.625-2.1c-1.5-1.467-2.25-3.267-2.25-5.4c0-2.1,0.75-3.899,2.25-5.399s3.301-2.25,5.4-2.25
			s3.9,0.75,5.4,2.25s2.25,3.3,2.25,5.399c0,2.134-0.75,3.934-2.25,5.4c-1.5,1.533-3.301,2.3-5.4,2.3
			C313.887,633.8,313.295,633.733,312.725,633.6z"/>
		
			<polyline fill-rule="evenodd" clip-rule="evenodd" fill="none" stroke="#000000" stroke-width="0.2" stroke-miterlimit="5" points="
			312.875,633.2 312.725,633.6 281.95,724.1 251.2,724.1 		"/>
		
			<path fill-rule="evenodd" clip-rule="evenodd" fill="none" stroke="#000000" stroke-width="0.25" stroke-linecap="round" stroke-linejoin="round" stroke-miterlimit="3" d="
			M312.725,633.6c0.57,0.134,1.162,0.2,1.775,0.2c2.1,0,3.9-0.767,5.4-2.3c1.5-1.467,2.25-3.267,2.25-5.4
			c0-2.1-0.75-3.899-2.25-5.399s-3.301-2.25-5.4-2.25s-3.9,0.75-5.4,2.25s-2.25,3.3-2.25,5.399c0,2.134,0.75,3.934,2.25,5.4
			C310.162,632.586,311.37,633.286,312.725,633.6z"/>
	</g>
	<text transform="matrix(1 0 0 1 126.0498 727.5547)" font-family="'Tahoma'" font-size="14">Ice Detector Probes</text>
</g>
<g>
	<g>
		<path fill-rule="evenodd" clip-rule="evenodd" fill="#B3E1FF" d="M262.8,220.05h0.05c0.033,0,0.083,0,0.15,0
			c1.9,0,3.533,0.684,4.9,2.05c1.31,1.309,2.009,2.851,2.1,4.625c0,0.092,0,0.183,0,0.275c0,0.033,0,0.067,0,0.1
			c0,1.967-0.7,3.633-2.1,5c-1.367,1.4-3,2.1-4.9,2.1c-1.967,0-3.65-0.7-5.05-2.1c-1.367-1.367-2.05-3.033-2.05-5
			c0-0.156,0-0.281,0-0.375c0.088-1.774,0.772-3.316,2.05-4.625C259.35,220.733,260.967,220.05,262.8,220.05z"/>
		
			<path fill-rule="evenodd" clip-rule="evenodd" fill="none" stroke="#000000" stroke-width="0.25" stroke-linecap="round" stroke-linejoin="round" stroke-miterlimit="3" d="
			M262.8,220.05h0.05c0.033,0,0.083,0,0.15,0c1.9,0,3.533,0.684,4.9,2.05c1.31,1.309,2.009,2.851,2.1,4.625c0,0.092,0,0.183,0,0.275
			c0,0.033,0,0.067,0,0.1c0,1.967-0.7,3.633-2.1,5c-1.367,1.4-3,2.1-4.9,2.1c-1.967,0-3.65-0.7-5.05-2.1
			c-1.367-1.367-2.05-3.033-2.05-5c0-0.156,0-0.281,0-0.375c0.088-1.774,0.772-3.316,2.05-4.625
			C259.35,220.733,260.967,220.05,262.8,220.05z"/>
		
			<polyline fill-rule="evenodd" clip-rule="evenodd" fill="none" stroke="#000000" stroke-width="0.2" stroke-miterlimit="5" points="
			262.8,220.05 262.8,211.45 397.05,211.45 		"/>
	</g>
	<text transform="matrix(1 0 0 1 400.0498 215.4551)" font-family="'Tahoma'" font-size="14">Ice Detector Probes</text>
</g>
<g>
	<g>
		<path fill-rule="evenodd" clip-rule="evenodd" fill="#B3E1FF" d="M337.1,188.2v-4.85V188.2z M337.1,183.35
			c0.034,0,0.067,0,0.101,0c0.066,0,0.133,0,0.2,0c2.933,0,5.449,1.05,7.55,3.15c2.133,2.133,3.2,4.683,3.2,7.65s-1.067,5.5-3.2,7.6
			c-2.101,2.133-4.617,3.2-7.55,3.2c-2.967,0-5.517-1.067-7.65-3.2c-2.1-2.1-3.15-4.633-3.15-7.6s1.051-5.517,3.15-7.65
			C331.825,184.458,334.275,183.407,337.1,183.35z"/>
		
			<path fill-rule="evenodd" clip-rule="evenodd" fill="none" stroke="#000000" stroke-width="0.25" stroke-linecap="round" stroke-linejoin="round" stroke-miterlimit="3" d="
			M337.1,183.35c-2.824,0.057-5.274,1.107-7.35,3.15c-2.1,2.133-3.15,4.683-3.15,7.65s1.051,5.5,3.15,7.6
			c2.134,2.133,4.684,3.2,7.65,3.2c2.933,0,5.449-1.067,7.55-3.2c2.133-2.1,3.2-4.633,3.2-7.6s-1.067-5.517-3.2-7.65
			c-2.101-2.1-4.617-3.15-7.55-3.15c-0.067,0-0.134,0-0.2,0C337.167,183.351,337.134,183.351,337.1,183.35z"/>
		<path fill-rule="evenodd" clip-rule="evenodd" fill="none" stroke="#000000" stroke-width="0.2" stroke-miterlimit="5" d="
			M337.1,183.35v-6.4h70.5 M337.1,188.2v-4.85"/>
	</g>
	<text transform="matrix(1 0 0 1 412.1699 181.2695)" font-family="'Tahoma'" font-size="15">Angle of Attack</text>
</g>
<g>
	<g>
		<path fill-rule="evenodd" clip-rule="evenodd" fill="#B3E1FF" d="M253.15,175.05h0.05c2.933,0,5.45,1.05,7.55,3.15
			c2.133,2.133,3.2,4.683,3.2,7.65s-1.067,5.5-3.2,7.6c-2.1,2.133-4.617,3.2-7.55,3.2c-2.967,0-5.517-1.066-7.65-3.2
			c-2.1-2.1-3.15-4.633-3.15-7.6s1.05-5.517,3.15-7.65c2.1-2.067,4.583-3.117,7.45-3.15C253.05,175.05,253.1,175.05,253.15,175.05z"
			/>
		
			<path fill-rule="evenodd" clip-rule="evenodd" fill="none" stroke="#000000" stroke-width="0.25" stroke-linecap="round" stroke-linejoin="round" stroke-miterlimit="3" d="
			M253.15,175.05h0.05c2.933,0,5.45,1.05,7.55,3.15c2.133,2.133,3.2,4.683,3.2,7.65s-1.067,5.5-3.2,7.6
			c-2.1,2.133-4.617,3.2-7.55,3.2c-2.967,0-5.517-1.066-7.65-3.2c-2.1-2.1-3.15-4.633-3.15-7.6s1.05-5.517,3.15-7.65
			c2.1-2.067,4.583-3.117,7.45-3.15C253.05,175.05,253.1,175.05,253.15,175.05z"/>
		
			<polyline fill-rule="evenodd" clip-rule="evenodd" fill="none" stroke="#000000" stroke-width="0.2" stroke-miterlimit="5" points="
			253.15,175.05 253.15,137.2 184.3,137.2 		"/>
	</g>
	<text transform="matrix(1 0 0 1 61.75 141.0049)" font-family="'Tahoma'" font-size="14">Pitot−Static Probes</text>
</g>
<g>
	<g>
		<path fill-rule="evenodd" clip-rule="evenodd" fill="#CCCCCC" d="M244.45,236.55c0.3,0.333,0.45,0.733,0.45,1.2v0.9
			c0,0.5-0.15,0.9-0.45,1.2c-0.3,0.3-0.667,0.45-1.1,0.45h-5c-0.4,0-0.75-0.15-1.05-0.45c-0.3-0.3-0.45-0.7-0.45-1.2v-0.9
			c0-0.467,0.15-0.867,0.45-1.2c0.3-0.333,0.65-0.5,1.05-0.5h5C243.783,236.05,244.15,236.217,244.45,236.55z"/>
		<path fill-rule="evenodd" clip-rule="evenodd" fill="none" stroke="#3E3D40" stroke-width="0.5" stroke-miterlimit="6.92" d="
			M244.45,236.55c0.3,0.333,0.45,0.733,0.45,1.2v0.9c0,0.5-0.15,0.9-0.45,1.2c-0.3,0.3-0.667,0.45-1.1,0.45h-5
			c-0.4,0-0.75-0.15-1.05-0.45c-0.3-0.3-0.45-0.7-0.45-1.2v-0.9c0-0.467,0.15-0.867,0.45-1.2c0.3-0.333,0.65-0.5,1.05-0.5h5
			C243.783,236.05,244.15,236.217,244.45,236.55z"/>
		
			<line fill-rule="evenodd" clip-rule="evenodd" fill="none" stroke="#000000" stroke-width="0.25" stroke-linecap="round" stroke-linejoin="round" stroke-miterlimit="3" x1="240.6" y1="240.8" x2="232.85" y2="302"/>
	</g>
	<text transform="matrix(1 0 0 1 215.4502 314.7993)" font-family="'Tahoma'" font-size="12.095">113BL</text>
</g>
<g>
	<g>
		<path fill-rule="evenodd" clip-rule="evenodd" fill="#CCCCCC" d="M244.45,233.4c-0.567,0-1.034-0.2-1.4-0.6
			c-0.433-0.4-0.65-0.883-0.65-1.45c0-0.533,0.217-1,0.65-1.4c0.367-0.4,0.833-0.6,1.4-0.6c0.566,0,1.05,0.2,1.45,0.6
			c0.4,0.4,0.6,0.867,0.6,1.4c0,0.566-0.2,1.05-0.6,1.45C245.5,233.2,245.017,233.4,244.45,233.4z"/>
		<path fill-rule="evenodd" clip-rule="evenodd" fill="none" stroke="#3E3D40" stroke-width="0.5" stroke-miterlimit="6.92" d="
			M244.45,233.4c0.566,0,1.05-0.2,1.45-0.6c0.4-0.4,0.6-0.883,0.6-1.45c0-0.533-0.2-1-0.6-1.4c-0.4-0.4-0.883-0.6-1.45-0.6
			c-0.567,0-1.034,0.2-1.4,0.6c-0.433,0.4-0.65,0.867-0.65,1.4c0,0.566,0.217,1.05,0.65,1.45
			C243.417,233.2,243.883,233.4,244.45,233.4z"/>
		
			<line fill-rule="evenodd" clip-rule="evenodd" fill="none" stroke="#000000" stroke-width="0.25" stroke-linecap="round" stroke-linejoin="round" stroke-miterlimit="3" x1="245.8" y1="233.55" x2="300.2" y2="308"/>
	</g>
	<text transform="matrix(1 0 0 1 284.4502 320.6489)" font-family="'Tahoma'" font-size="12.095">113CL</text>
</g>
<g>
	<g>
		<path fill-rule="evenodd" clip-rule="evenodd" fill="#B3E1FF" d="M191.75,267.45c0-3.567,1.25-6.617,3.75-9.15
			c2.533-2.466,5.517-3.716,8.95-3.75c0.066,0,0.117,0,0.15,0h0.05c3.5,0,6.517,1.25,9.05,3.75c2.533,2.534,3.8,5.583,3.8,9.15
			c0,3.533-1.267,6.55-3.8,9.05c-2.534,2.567-5.55,3.85-9.05,3.85c-3.533,0-6.583-1.283-9.15-3.85
			C193,274,191.75,270.983,191.75,267.45z"/>
		
			<path fill-rule="evenodd" clip-rule="evenodd" fill="none" stroke="#000000" stroke-width="0.25" stroke-linecap="round" stroke-linejoin="round" stroke-miterlimit="3" d="
			M191.75,267.45c0-3.567,1.25-6.617,3.75-9.15c2.533-2.466,5.517-3.716,8.95-3.75c0.066,0,0.117,0,0.15,0h0.05
			c3.5,0,6.517,1.25,9.05,3.75c2.533,2.534,3.8,5.583,3.8,9.15c0,3.533-1.267,6.55-3.8,9.05c-2.534,2.567-5.55,3.85-9.05,3.85
			c-3.533,0-6.583-1.283-9.15-3.85C193,274,191.75,270.983,191.75,267.45z"/>
	</g>
	<g>
		<text transform="matrix(1 0 0 1 85.1001 267.4551)" font-family="'Tahoma'" font-size="14">NLG TAXI LIGHT</text>
	</g>
</g>
<g>
	<path fill-rule="evenodd" clip-rule="evenodd" fill="#FFFF00" d="M199.35,260.85v14.45c-0.667,0-1.25-0.716-1.75-2.15
		c-0.467-1.4-0.7-3.1-0.7-5.1s0.233-3.7,0.7-5.1C198.1,261.55,198.683,260.85,199.35,260.85z"/>
	<polygon fill-rule="evenodd" clip-rule="evenodd" fill="#999999" points="200.55,260.3 200.55,276.3 200.55,260.3 211.45,264.25 
		211.45,270.4 200.55,276.55 200.55,276.3 199.6,276.3 199.6,260.3 	"/>
	
		<line fill-rule="evenodd" clip-rule="evenodd" fill="none" stroke="#000000" stroke-width="0.2" stroke-miterlimit="5" x1="253.4" y1="137.2" x2="253.15" y2="137.2"/>
	<path fill-rule="evenodd" clip-rule="evenodd" fill="none" stroke="#000000" stroke-width="0.55" stroke-miterlimit="5" d="
		M199.35,275.3c-0.667,0-1.25-0.716-1.75-2.15c-0.467-1.4-0.7-3.1-0.7-5.1s0.233-3.7,0.7-5.1c0.5-1.4,1.083-2.1,1.75-2.1
		 M200.55,260.3l10.9,3.95v6.15l-10.9,6.15v-0.25h-0.95v-16H200.55v16"/>
</g>
<polyline fill-rule="evenodd" clip-rule="evenodd" fill="none" stroke="#000000" stroke-width="0.6" stroke-linecap="round" stroke-linejoin="round" stroke-miterlimit="3" points="
	208.518,510.407 238.481,512.44 251.95,515.189 265.859,519.918 283.178,528.55 295.383,536.631 326.06,560.766 384.392,596.281 
	407.977,614.698 415.674,622.065 416.718,623.33 418.037,625.585 418.697,627.234 418.861,630.092 418.642,632.072 418.202,633.062 
	417.487,634.216 416.113,635.48 413.914,636.91 398.795,643.837 388.129,646.641 377.629,648.234 365.479,649.444 315.999,652.743 
	271.083,653.732 229.905,653.843 "/>
<line fill-rule="evenodd" clip-rule="evenodd" fill="none" stroke="#000000" stroke-width="0.6" stroke-linecap="round" stroke-linejoin="round" stroke-miterlimit="3" x1="322.102" y1="644.991" x2="336.396" y2="644.991"/>
<path fill-rule="evenodd" clip-rule="evenodd" fill="none" stroke="#000000" stroke-width="0.6" stroke-linecap="round" stroke-linejoin="round" stroke-miterlimit="3" d="
	M322.156,644.991c-0.843,0-1.594,0.293-2.254,0.88c-0.659,0.586-1.026,1.319-1.1,2.199"/>
<line fill-rule="evenodd" clip-rule="evenodd" fill="none" stroke="#000000" stroke-width="0.6" stroke-linecap="round" stroke-linejoin="round" stroke-miterlimit="3" x1="318.803" y1="648.07" x2="318.803" y2="652.633"/>
<path fill-rule="evenodd" clip-rule="evenodd" fill="none" stroke="#000000" stroke-width="0.6" stroke-linecap="round" stroke-linejoin="round" stroke-miterlimit="3" d="
	M339.694,648.125c-0.073-0.843-0.422-1.576-1.044-2.199c-0.624-0.586-1.356-0.897-2.199-0.935"/>
<line fill-rule="evenodd" clip-rule="evenodd" fill="none" stroke="#000000" stroke-width="0.6" stroke-linecap="round" stroke-linejoin="round" stroke-miterlimit="3" x1="339.694" y1="648.07" x2="339.694" y2="651.533"/>
<g id="border">
	
		<polygon fill-rule="evenodd" clip-rule="evenodd" fill="none" stroke="#000000" stroke-linecap="round" stroke-linejoin="round" stroke-miterlimit="3" points="
		373,114.9 341,116.55 341,111.5 373,109.85 	"/>
	
		<polyline fill-rule="evenodd" clip-rule="evenodd" fill="none" stroke="#000000" stroke-width="0.6" stroke-linecap="round" stroke-linejoin="round" stroke-miterlimit="3" points="
		377.832,253.243 377.832,109.752 368.156,109.752 	"/>
	
		<polyline fill-rule="evenodd" clip-rule="evenodd" fill="none" stroke="#000000" stroke-width="0.6" stroke-linecap="round" stroke-linejoin="round" stroke-miterlimit="3" points="
		368.156,109.752 342.371,111.347 329.616,113.38 315.213,117.613 297.125,125.86 281.236,135.976 256.221,156.043 245.226,163.685 
		216.583,180.618 186.84,199.585 166.059,216.354 161.001,221.466 159.956,222.731 158.582,224.985 157.977,226.634 
		157.812,230.428 158.032,231.417 158.417,232.407 159.187,233.616 160.561,234.881 162.705,236.31 177.879,243.237 
		184.256,245.051 199.045,247.635 282.446,252.748 346.77,253.243 	"/>
	
		<line fill-rule="evenodd" clip-rule="evenodd" fill="none" stroke="#000000" stroke-width="0.6" stroke-linecap="round" stroke-linejoin="round" stroke-miterlimit="3" x1="377.832" y1="253.243" x2="346.77" y2="253.243"/>
	
		<line fill-rule="evenodd" clip-rule="evenodd" fill="none" stroke="#000000" stroke-width="0.6" stroke-linecap="round" stroke-linejoin="round" stroke-miterlimit="3" x1="352.651" y1="136.691" x2="281.126" y2="136.691"/>
	
		<polyline fill-rule="evenodd" clip-rule="evenodd" fill="none" stroke="#000000" stroke-width="0.6" stroke-linecap="round" stroke-linejoin="round" stroke-miterlimit="3" points="
		352.651,136.691 352.651,165.334 283.326,165.334 248.8,161.32 	"/>
	
		<polygon fill-rule="evenodd" clip-rule="evenodd" fill="none" stroke="#000000" stroke-width="0.6" stroke-linecap="round" stroke-linejoin="round" stroke-miterlimit="3" points="
		347.483,158.902 347.483,144.443 340.007,139.935 310.155,139.935 288.658,162.09 340.337,162.09 	"/>
	
		<polygon fill-rule="evenodd" clip-rule="evenodd" fill="none" stroke="#000000" stroke-width="0.6" stroke-linecap="round" stroke-linejoin="round" stroke-miterlimit="3" points="
		303.997,139.77 282.061,139.77 257.376,159.562 284.041,161.926 	"/>
	
		<line fill-rule="evenodd" clip-rule="evenodd" fill="none" stroke="#000000" stroke-width="0.6" stroke-linecap="round" stroke-linejoin="round" stroke-miterlimit="3" x1="191.513" y1="246.535" x2="191.513" y2="195.681"/>
	
		<line fill-rule="evenodd" clip-rule="evenodd" fill="none" stroke="#000000" stroke-width="0.6" stroke-linecap="round" stroke-linejoin="round" stroke-miterlimit="3" x1="225.874" y1="179.738" x2="199.76" y2="194.417"/>
	
		<line fill-rule="evenodd" clip-rule="evenodd" fill="none" stroke="#000000" stroke-width="0.6" stroke-linecap="round" stroke-linejoin="round" stroke-miterlimit="3" x1="197.89" y1="197.276" x2="197.89" y2="203.709"/>
	
		<line fill-rule="evenodd" clip-rule="evenodd" fill="none" stroke="#000000" stroke-width="0.6" stroke-linecap="round" stroke-linejoin="round" stroke-miterlimit="3" x1="200.419" y1="205.413" x2="225.379" y2="205.413"/>
	
		<line fill-rule="evenodd" clip-rule="evenodd" fill="none" stroke="#000000" stroke-width="0.6" stroke-linecap="round" stroke-linejoin="round" stroke-miterlimit="3" x1="229.337" y1="202.279" x2="229.337" y2="181.772"/>
	
		<line fill-rule="evenodd" clip-rule="evenodd" fill="none" stroke="#000000" stroke-width="0.6" stroke-linecap="round" stroke-linejoin="round" stroke-miterlimit="3" x1="225.929" y1="236.695" x2="199.925" y2="233.891"/>
	
		<line fill-rule="evenodd" clip-rule="evenodd" fill="none" stroke="#000000" stroke-width="0.6" stroke-linecap="round" stroke-linejoin="round" stroke-miterlimit="3" x1="324.943" y1="222.565" x2="313.947" y2="222.565"/>
	
		<path fill-rule="evenodd" clip-rule="evenodd" fill="none" stroke="#000000" stroke-width="0.6" stroke-linecap="round" stroke-linejoin="round" stroke-miterlimit="3" d="
		M328.241,225.644c-0.072-0.843-0.421-1.557-1.043-2.143c-0.661-0.587-1.412-0.899-2.255-0.936"/>
	
		<line fill-rule="evenodd" clip-rule="evenodd" fill="none" stroke="#000000" stroke-width="0.6" stroke-linecap="round" stroke-linejoin="round" stroke-miterlimit="3" x1="328.241" y1="225.644" x2="328.241" y2="244.447"/>
	
		<path fill-rule="evenodd" clip-rule="evenodd" fill="none" stroke="#000000" stroke-width="0.6" stroke-linecap="round" stroke-linejoin="round" stroke-miterlimit="3" d="
		M314.058,222.565c-0.879,0-1.631,0.293-2.253,0.879c-0.661,0.587-1.027,1.301-1.1,2.145"/>
	
		<line fill-rule="evenodd" clip-rule="evenodd" fill="none" stroke="#000000" stroke-width="0.6" stroke-linecap="round" stroke-linejoin="round" stroke-miterlimit="3" x1="310.648" y1="225.644" x2="310.648" y2="244.447"/>
	
		<path fill-rule="evenodd" clip-rule="evenodd" fill="none" stroke="#000000" stroke-width="0.6" stroke-linecap="round" stroke-linejoin="round" stroke-miterlimit="3" d="
		M324.889,247.525c0.843,0,1.594-0.293,2.253-0.879c0.661-0.586,1.027-1.301,1.1-2.144"/>
	
		<path fill-rule="evenodd" clip-rule="evenodd" fill="none" stroke="#000000" stroke-width="0.6" stroke-linecap="round" stroke-linejoin="round" stroke-miterlimit="3" d="
		M310.705,244.447c0.072,0.843,0.421,1.557,1.043,2.145c0.624,0.586,1.356,0.897,2.199,0.934"/>
	
		<line fill-rule="evenodd" clip-rule="evenodd" fill="none" stroke="#000000" stroke-width="0.6" stroke-linecap="round" stroke-linejoin="round" stroke-miterlimit="3" x1="324.943" y1="247.525" x2="313.947" y2="247.525"/>
	
		<line fill-rule="evenodd" clip-rule="evenodd" fill="none" stroke="#000000" stroke-width="0.6" stroke-linecap="round" stroke-linejoin="round" stroke-miterlimit="3" x1="284.59" y1="221.521" x2="273.65" y2="221.521"/>
	
		<path fill-rule="evenodd" clip-rule="evenodd" fill="none" stroke="#000000" stroke-width="0.6" stroke-linecap="round" stroke-linejoin="round" stroke-miterlimit="3" d="
		M287.889,224.655c-0.038-0.843-0.386-1.577-1.045-2.199c-0.623-0.586-1.356-0.898-2.199-0.936"/>
	
		<line fill-rule="evenodd" clip-rule="evenodd" fill="none" stroke="#000000" stroke-width="0.6" stroke-linecap="round" stroke-linejoin="round" stroke-miterlimit="3" x1="287.944" y1="224.655" x2="287.944" y2="243.402"/>
	
		<path fill-rule="evenodd" clip-rule="evenodd" fill="none" stroke="#000000" stroke-width="0.6" stroke-linecap="round" stroke-linejoin="round" stroke-miterlimit="3" d="
		M273.705,221.521c-0.843,0.038-1.595,0.349-2.254,0.936c-0.661,0.586-1.027,1.301-1.1,2.144"/>
	
		<line fill-rule="evenodd" clip-rule="evenodd" fill="none" stroke="#000000" stroke-width="0.6" stroke-linecap="round" stroke-linejoin="round" stroke-miterlimit="3" x1="270.351" y1="224.655" x2="270.351" y2="243.402"/>
	
		<path fill-rule="evenodd" clip-rule="evenodd" fill="none" stroke="#000000" stroke-width="0.6" stroke-linecap="round" stroke-linejoin="round" stroke-miterlimit="3" d="
		M284.535,246.535c0.88-0.036,1.631-0.348,2.255-0.934c0.659-0.586,1.025-1.301,1.1-2.144"/>
	
		<path fill-rule="evenodd" clip-rule="evenodd" fill="none" stroke="#000000" stroke-width="0.6" stroke-linecap="round" stroke-linejoin="round" stroke-miterlimit="3" d="
		M270.351,243.402c0.073,0.843,0.439,1.576,1.1,2.199c0.623,0.586,1.356,0.898,2.199,0.934"/>
	
		<path fill-rule="evenodd" clip-rule="evenodd" fill="none" stroke="#000000" stroke-width="0.6" stroke-linecap="round" stroke-linejoin="round" stroke-miterlimit="3" d="
		M229.393,181.772c-0.037-0.623-0.294-1.172-0.77-1.649c-0.477-0.44-1.045-0.661-1.704-0.661c-0.33,0-0.678,0.092-1.045,0.275"/>
	
		<polyline fill-rule="evenodd" clip-rule="evenodd" fill="none" stroke="#000000" stroke-width="0.6" stroke-linecap="round" stroke-linejoin="round" stroke-miterlimit="3" points="
		199.76,194.417 198.771,195.131 198.11,196.122 197.89,197.276 	"/>
	
		<polyline fill-rule="evenodd" clip-rule="evenodd" fill="none" stroke="#000000" stroke-width="0.6" stroke-linecap="round" stroke-linejoin="round" stroke-miterlimit="3" points="
		197.89,203.709 198.496,204.534 199.375,205.083 200.419,205.413 	"/>
	
		<path fill-rule="evenodd" clip-rule="evenodd" fill="none" stroke="#000000" stroke-width="0.6" stroke-linecap="round" stroke-linejoin="round" stroke-miterlimit="3" d="
		M225.379,205.358c0.917-0.038,1.741-0.349,2.474-0.936c0.733-0.586,1.228-1.319,1.484-2.199"/>
	
		<line fill-rule="evenodd" clip-rule="evenodd" fill="none" stroke="#000000" stroke-width="0.6" stroke-linecap="round" stroke-linejoin="round" stroke-miterlimit="3" x1="284.59" y1="246.535" x2="273.65" y2="246.535"/>
	
		<polyline fill-rule="evenodd" clip-rule="evenodd" fill="none" stroke="#000000" stroke-width="0.6" stroke-linecap="round" stroke-linejoin="round" stroke-miterlimit="3" points="
		197.89,212.615 198.496,211.79 199.375,211.24 200.419,211.02 	"/>
	
		<path fill-rule="evenodd" clip-rule="evenodd" fill="none" stroke="#000000" stroke-width="0.6" stroke-linecap="round" stroke-linejoin="round" stroke-miterlimit="3" d="
		M229.393,214.099c-0.257-0.879-0.752-1.612-1.485-2.199c-0.733-0.586-1.558-0.897-2.474-0.934"/>
	
		<line fill-rule="evenodd" clip-rule="evenodd" fill="none" stroke="#000000" stroke-width="0.6" stroke-linecap="round" stroke-linejoin="round" stroke-miterlimit="3" x1="200.419" y1="211.02" x2="225.379" y2="211.02"/>
	
		<line fill-rule="evenodd" clip-rule="evenodd" fill="none" stroke="#000000" stroke-width="0.6" stroke-linecap="round" stroke-linejoin="round" stroke-miterlimit="3" x1="197.89" y1="212.615" x2="197.89" y2="231.307"/>
	
		<path fill-rule="evenodd" clip-rule="evenodd" fill="none" stroke="#000000" stroke-width="0.6" stroke-linecap="round" stroke-linejoin="round" stroke-miterlimit="3" d="
		M197.946,231.307l-0.056,0.384c0,0.587,0.202,1.1,0.605,1.54c0.403,0.402,0.897,0.623,1.484,0.659"/>
	
		<path fill-rule="evenodd" clip-rule="evenodd" fill="none" stroke="#000000" stroke-width="0.6" stroke-linecap="round" stroke-linejoin="round" stroke-miterlimit="3" d="
		M225.929,236.75c0.844-0.147,1.577-0.513,2.199-1.1c0.66-0.623,1.063-1.356,1.209-2.199"/>
	
		<line fill-rule="evenodd" clip-rule="evenodd" fill="none" stroke="#000000" stroke-width="0.6" stroke-linecap="round" stroke-linejoin="round" stroke-miterlimit="3" x1="229.337" y1="214.099" x2="229.337" y2="233.396"/>
	
		<line fill-rule="evenodd" clip-rule="evenodd" fill="none" stroke="#000000" stroke-width="0.25" stroke-linecap="round" stroke-linejoin="round" stroke-miterlimit="3" x1="244.512" y1="164.125" x2="244.896" y2="167.533"/>
	
		<line fill-rule="evenodd" clip-rule="evenodd" fill="none" stroke="#000000" stroke-width="0.25" stroke-linecap="round" stroke-linejoin="round" stroke-miterlimit="3" x1="245.391" y1="171.711" x2="246.216" y2="178.419"/>
	
		<line fill-rule="evenodd" clip-rule="evenodd" fill="none" stroke="#000000" stroke-width="0.25" stroke-linecap="round" stroke-linejoin="round" stroke-miterlimit="3" x1="246.711" y1="182.542" x2="247.535" y2="189.25"/>
	
		<line fill-rule="evenodd" clip-rule="evenodd" fill="none" stroke="#000000" stroke-width="0.25" stroke-linecap="round" stroke-linejoin="round" stroke-miterlimit="3" x1="248.03" y1="193.427" x2="248.8" y2="200.135"/>
	
		<polyline fill-rule="evenodd" clip-rule="evenodd" fill="none" stroke="#000000" stroke-width="0.25" stroke-linecap="round" stroke-linejoin="round" stroke-miterlimit="3" points="
		249.35,204.313 249.734,207.667 250.779,211.02 	"/>
	
		<line fill-rule="evenodd" clip-rule="evenodd" fill="none" stroke="#000000" stroke-width="0.25" stroke-linecap="round" stroke-linejoin="round" stroke-miterlimit="3" x1="252.153" y1="215.254" x2="254.297" y2="222.016"/>
	
		<line fill-rule="evenodd" clip-rule="evenodd" fill="none" stroke="#000000" stroke-width="0.25" stroke-linecap="round" stroke-linejoin="round" stroke-miterlimit="3" x1="255.617" y1="226.194" x2="257.761" y2="232.957"/>
	
		<line fill-rule="evenodd" clip-rule="evenodd" fill="none" stroke="#000000" stroke-width="0.25" stroke-linecap="round" stroke-linejoin="round" stroke-miterlimit="3" x1="259.135" y1="237.189" x2="261.28" y2="243.952"/>
	
		<line fill-rule="evenodd" clip-rule="evenodd" fill="none" stroke="#000000" stroke-width="0.25" stroke-linecap="round" stroke-linejoin="round" stroke-miterlimit="3" x1="262.6" y1="248.185" x2="263.699" y2="251.539"/>
	
		<line fill-rule="evenodd" clip-rule="evenodd" fill="none" stroke="#000000" stroke-width="0.6" stroke-linecap="round" stroke-linejoin="round" stroke-miterlimit="3" x1="243.357" y1="236.035" x2="238.354" y2="236.035"/>
	
		<polyline fill-rule="evenodd" clip-rule="evenodd" fill="none" stroke="#000000" stroke-width="0.6" stroke-linecap="round" stroke-linejoin="round" stroke-miterlimit="3" points="
		244.896,237.464 244.621,236.75 244.127,236.255 243.357,236.035 	"/>
	
		<line fill-rule="evenodd" clip-rule="evenodd" fill="none" stroke="#000000" stroke-width="0.6" stroke-linecap="round" stroke-linejoin="round" stroke-miterlimit="3" x1="244.896" y1="237.464" x2="244.896" y2="239.169"/>
	
		<polyline fill-rule="evenodd" clip-rule="evenodd" fill="none" stroke="#000000" stroke-width="0.6" stroke-linecap="round" stroke-linejoin="round" stroke-miterlimit="3" points="
		236.87,237.464 237.034,236.75 237.64,236.255 238.354,236.035 	"/>
	
		<line fill-rule="evenodd" clip-rule="evenodd" fill="none" stroke="#000000" stroke-width="0.6" stroke-linecap="round" stroke-linejoin="round" stroke-miterlimit="3" x1="236.85" y1="237.45" x2="236.85" y2="239.15"/>
	
		<polyline fill-rule="evenodd" clip-rule="evenodd" fill="none" stroke="#000000" stroke-width="0.6" stroke-linecap="round" stroke-linejoin="round" stroke-miterlimit="3" points="
		244.896,239.169 244.621,239.829 244.127,240.378 243.357,240.599 	"/>
	
		<polyline fill-rule="evenodd" clip-rule="evenodd" fill="none" stroke="#000000" stroke-width="0.6" stroke-linecap="round" stroke-linejoin="round" stroke-miterlimit="3" points="
		236.87,239.169 237.034,239.829 237.64,240.378 238.354,240.599 	"/>
	
		<path fill-rule="evenodd" clip-rule="evenodd" fill="none" stroke="#000000" stroke-width="0.6" stroke-linecap="round" stroke-linejoin="round" stroke-miterlimit="3" d="
		M246.766,231.362c0-0.659-0.22-1.209-0.66-1.649c-0.476-0.477-1.026-0.714-1.649-0.714c-0.66,0-1.21,0.237-1.649,0.714
		c-0.476,0.44-0.715,0.99-0.715,1.649c0,0.623,0.239,1.172,0.715,1.649c0.439,0.477,0.989,0.715,1.649,0.715
		c0.623,0,1.173-0.239,1.649-0.715C246.545,232.534,246.766,231.985,246.766,231.362z"/>
	
		<line fill-rule="evenodd" clip-rule="evenodd" fill="none" stroke="#000000" stroke-width="0.6" stroke-linecap="round" stroke-linejoin="round" stroke-miterlimit="3" x1="243.357" y1="240.599" x2="238.354" y2="240.599"/>
	
		<line fill-rule="evenodd" clip-rule="evenodd" fill="none" stroke="#000000" stroke-width="0.6" stroke-linecap="round" stroke-linejoin="round" stroke-miterlimit="3" x1="333.757" y1="622.585" x2="328.754" y2="622.585"/>
	
		<polyline fill-rule="evenodd" clip-rule="evenodd" fill="none" stroke="#000000" stroke-width="0.6" stroke-linecap="round" stroke-linejoin="round" stroke-miterlimit="3" points="
		335.296,624.015 335.021,623.301 334.526,622.806 333.757,622.585 	"/>
	
		<line fill-rule="evenodd" clip-rule="evenodd" fill="none" stroke="#000000" stroke-width="0.6" stroke-linecap="round" stroke-linejoin="round" stroke-miterlimit="3" x1="335.296" y1="624.015" x2="335.296" y2="625.72"/>
	
		<polyline fill-rule="evenodd" clip-rule="evenodd" fill="none" stroke="#000000" stroke-width="0.6" stroke-linecap="round" stroke-linejoin="round" stroke-miterlimit="3" points="
		327.27,624.015 327.435,623.301 328.039,622.806 328.754,622.585 	"/>
	
		<line fill-rule="evenodd" clip-rule="evenodd" fill="none" stroke="#000000" stroke-width="0.6" stroke-linecap="round" stroke-linejoin="round" stroke-miterlimit="3" x1="327.25" y1="624" x2="327.25" y2="625.7"/>
	
		<polyline fill-rule="evenodd" clip-rule="evenodd" fill="none" stroke="#000000" stroke-width="0.6" stroke-linecap="round" stroke-linejoin="round" stroke-miterlimit="3" points="
		335.296,625.72 335.021,626.379 334.526,626.929 333.757,627.148 	"/>
	
		<polyline fill-rule="evenodd" clip-rule="evenodd" fill="none" stroke="#000000" stroke-width="0.6" stroke-linecap="round" stroke-linejoin="round" stroke-miterlimit="3" points="
		327.27,625.72 327.435,626.379 328.039,626.929 328.754,627.148 	"/>
	
		<line fill-rule="evenodd" clip-rule="evenodd" fill="none" stroke="#000000" stroke-width="0.6" stroke-linecap="round" stroke-linejoin="round" stroke-miterlimit="3" x1="333.757" y1="627.148" x2="328.754" y2="627.148"/>
</g>
<polyline fill-rule="evenodd" clip-rule="evenodd" fill="none" stroke="#000000" stroke-width="0.6" stroke-linecap="round" stroke-linejoin="round" stroke-miterlimit="3" points="
	198.842,653.843 198.842,510.407 208.518,510.407 "/>
<line fill-rule="evenodd" clip-rule="evenodd" fill="none" stroke="#000000" stroke-width="0.6" stroke-linecap="round" stroke-linejoin="round" stroke-miterlimit="3" x1="198.842" y1="653.843" x2="229.905" y2="653.843"/>
<line fill-rule="evenodd" clip-rule="evenodd" fill="none" stroke="#000000" stroke-width="0.6" stroke-linecap="round" stroke-linejoin="round" stroke-miterlimit="3" x1="224.022" y1="537.291" x2="295.547" y2="537.291"/>
<polyline fill-rule="evenodd" clip-rule="evenodd" fill="none" stroke="#000000" stroke-width="0.6" stroke-linecap="round" stroke-linejoin="round" stroke-miterlimit="3" points="
	224.022,537.291 224.022,565.934 293.348,565.934 327.874,561.92 "/>
<polygon fill-rule="evenodd" clip-rule="evenodd" fill="none" stroke="#1A171B" stroke-width="0.5" stroke-linecap="round" stroke-linejoin="round" stroke-miterlimit="3" points="
	266.409,540.645 287.906,562.8 236.282,562.8 229.135,559.666 229.135,545.152 236.611,540.645 "/>
<polygon fill-rule="evenodd" clip-rule="evenodd" fill="none" stroke="#1A171B" stroke-width="0.5" stroke-linecap="round" stroke-linejoin="round" stroke-miterlimit="3" points="
	292.634,562.58 272.677,540.424 294.613,540.424 319.243,560.216 "/>
<line fill-rule="evenodd" clip-rule="evenodd" fill="none" stroke="#000000" stroke-width="0.6" stroke-linecap="round" stroke-linejoin="round" stroke-miterlimit="3" x1="385.105" y1="647.19" x2="385.105" y2="596.337"/>
<line fill-rule="evenodd" clip-rule="evenodd" fill="none" stroke="#000000" stroke-width="0.6" stroke-linecap="round" stroke-linejoin="round" stroke-miterlimit="3" x1="350.8" y1="580.338" x2="376.914" y2="595.017"/>
<line fill-rule="evenodd" clip-rule="evenodd" fill="none" stroke="#000000" stroke-width="0.6" stroke-linecap="round" stroke-linejoin="round" stroke-miterlimit="3" x1="378.783" y1="597.876" x2="378.783" y2="604.309"/>
<line fill-rule="evenodd" clip-rule="evenodd" fill="none" stroke="#000000" stroke-width="0.6" stroke-linecap="round" stroke-linejoin="round" stroke-miterlimit="3" x1="376.254" y1="606.013" x2="351.239" y2="606.013"/>
<line fill-rule="evenodd" clip-rule="evenodd" fill="none" stroke="#000000" stroke-width="0.6" stroke-linecap="round" stroke-linejoin="round" stroke-miterlimit="3" x1="347.281" y1="602.879" x2="347.281" y2="582.428"/>
<line fill-rule="evenodd" clip-rule="evenodd" fill="none" stroke="#000000" stroke-width="0.6" stroke-linecap="round" stroke-linejoin="round" stroke-miterlimit="3" x1="350.689" y1="637.35" x2="376.694" y2="634.546"/>
<line fill-rule="evenodd" clip-rule="evenodd" fill="none" stroke="#000000" stroke-width="0.6" stroke-linecap="round" stroke-linejoin="round" stroke-miterlimit="3" x1="251.73" y1="623.165" x2="262.671" y2="623.165"/>
<path fill-rule="evenodd" clip-rule="evenodd" fill="none" stroke="#000000" stroke-width="0.6" stroke-linecap="round" stroke-linejoin="round" stroke-miterlimit="3" d="
	M251.786,623.165c-0.843,0-1.595,0.294-2.254,0.88c-0.659,0.587-1.026,1.301-1.1,2.145"/>
<line fill-rule="evenodd" clip-rule="evenodd" fill="none" stroke="#000000" stroke-width="0.6" stroke-linecap="round" stroke-linejoin="round" stroke-miterlimit="3" x1="248.432" y1="626.244" x2="248.432" y2="645.102"/>
<path fill-rule="evenodd" clip-rule="evenodd" fill="none" stroke="#000000" stroke-width="0.6" stroke-linecap="round" stroke-linejoin="round" stroke-miterlimit="3" d="
	M265.97,626.244c-0.074-0.843-0.421-1.558-1.045-2.145c-0.623-0.586-1.355-0.897-2.199-0.935"/>
<line fill-rule="evenodd" clip-rule="evenodd" fill="none" stroke="#000000" stroke-width="0.6" stroke-linecap="round" stroke-linejoin="round" stroke-miterlimit="3" x1="265.97" y1="626.244" x2="265.97" y2="645.102"/>
<path fill-rule="evenodd" clip-rule="evenodd" fill="none" stroke="#000000" stroke-width="0.6" stroke-linecap="round" stroke-linejoin="round" stroke-miterlimit="3" d="
	M248.432,645.046c0.074,0.843,0.44,1.559,1.1,2.145c0.623,0.587,1.356,0.897,2.199,0.935"/>
<path fill-rule="evenodd" clip-rule="evenodd" fill="none" stroke="#000000" stroke-width="0.6" stroke-linecap="round" stroke-linejoin="round" stroke-miterlimit="3" d="
	M262.616,648.125c0.879,0,1.631-0.293,2.254-0.88c0.66-0.586,1.026-1.301,1.1-2.144"/>
<line fill-rule="evenodd" clip-rule="evenodd" fill="none" stroke="#000000" stroke-width="0.6" stroke-linecap="round" stroke-linejoin="round" stroke-miterlimit="3" x1="251.73" y1="648.18" x2="262.671" y2="648.18"/>
<line fill-rule="evenodd" clip-rule="evenodd" fill="none" stroke="#000000" stroke-width="0.6" stroke-linecap="round" stroke-linejoin="round" stroke-miterlimit="3" x1="292.084" y1="622.12" x2="303.025" y2="622.12"/>
<path fill-rule="evenodd" clip-rule="evenodd" fill="none" stroke="#000000" stroke-width="0.6" stroke-linecap="round" stroke-linejoin="round" stroke-miterlimit="3" d="
	M292.084,622.12c-0.843,0.037-1.576,0.349-2.199,0.936c-0.66,0.586-1.026,1.301-1.1,2.144"/>
<line fill-rule="evenodd" clip-rule="evenodd" fill="none" stroke="#000000" stroke-width="0.6" stroke-linecap="round" stroke-linejoin="round" stroke-miterlimit="3" x1="288.73" y1="625.254" x2="288.73" y2="644.057"/>
<path fill-rule="evenodd" clip-rule="evenodd" fill="none" stroke="#000000" stroke-width="0.6" stroke-linecap="round" stroke-linejoin="round" stroke-miterlimit="3" d="
	M306.323,625.254c-0.073-0.843-0.421-1.575-1.045-2.198c-0.659-0.587-1.411-0.898-2.253-0.936"/>
<line fill-rule="evenodd" clip-rule="evenodd" fill="none" stroke="#000000" stroke-width="0.6" stroke-linecap="round" stroke-linejoin="round" stroke-miterlimit="3" x1="306.323" y1="625.254" x2="306.323" y2="644.057"/>
<path fill-rule="evenodd" clip-rule="evenodd" fill="none" stroke="#000000" stroke-width="0.6" stroke-linecap="round" stroke-linejoin="round" stroke-miterlimit="3" d="
	M288.785,644.002c0.074,0.843,0.421,1.576,1.045,2.199c0.623,0.586,1.355,0.897,2.199,0.934"/>
<path fill-rule="evenodd" clip-rule="evenodd" fill="none" stroke="#000000" stroke-width="0.6" stroke-linecap="round" stroke-linejoin="round" stroke-miterlimit="3" d="
	M302.969,647.135c0.843-0.036,1.594-0.348,2.254-0.934c0.623-0.587,0.989-1.302,1.1-2.145"/>
<path fill-rule="evenodd" clip-rule="evenodd" fill="none" stroke="#000000" stroke-width="0.6" stroke-linecap="round" stroke-linejoin="round" stroke-miterlimit="3" d="
	M350.855,580.338c-0.367-0.184-0.733-0.275-1.1-0.275c-0.623,0-1.173,0.221-1.649,0.66c-0.478,0.439-0.733,0.989-0.771,1.649"/>
<polyline fill-rule="evenodd" clip-rule="evenodd" fill="none" stroke="#000000" stroke-width="0.6" stroke-linecap="round" stroke-linejoin="round" stroke-miterlimit="3" points="
	376.914,595.017 377.903,595.731 378.508,596.722 378.783,597.876 "/>
<polyline fill-rule="evenodd" clip-rule="evenodd" fill="none" stroke="#000000" stroke-width="0.6" stroke-linecap="round" stroke-linejoin="round" stroke-miterlimit="3" points="
	378.783,604.309 378.124,605.133 377.299,605.737 376.254,606.013 "/>
<path fill-rule="evenodd" clip-rule="evenodd" fill="none" stroke="#000000" stroke-width="0.6" stroke-linecap="round" stroke-linejoin="round" stroke-miterlimit="3" d="
	M347.281,602.824c0.257,0.879,0.752,1.612,1.484,2.198c0.696,0.624,1.503,0.953,2.419,0.99"/>
<line fill-rule="evenodd" clip-rule="evenodd" fill="none" stroke="#000000" stroke-width="0.6" stroke-linecap="round" stroke-linejoin="round" stroke-miterlimit="3" x1="292.084" y1="647.19" x2="303.025" y2="647.19"/>
<polyline fill-rule="evenodd" clip-rule="evenodd" fill="none" stroke="#000000" stroke-width="0.6" stroke-linecap="round" stroke-linejoin="round" stroke-miterlimit="3" points="
	378.783,613.215 378.124,612.39 377.299,611.84 376.254,611.565 "/>
<path fill-rule="evenodd" clip-rule="evenodd" fill="none" stroke="#000000" stroke-width="0.6" stroke-linecap="round" stroke-linejoin="round" stroke-miterlimit="3" d="
	M351.294,611.565c-0.916,0.036-1.74,0.348-2.474,0.935c-0.732,0.586-1.228,1.319-1.484,2.198"/>
<line fill-rule="evenodd" clip-rule="evenodd" fill="none" stroke="#000000" stroke-width="0.6" stroke-linecap="round" stroke-linejoin="round" stroke-miterlimit="3" x1="376.254" y1="611.565" x2="351.239" y2="611.565"/>
<line fill-rule="evenodd" clip-rule="evenodd" fill="none" stroke="#000000" stroke-width="0.6" stroke-linecap="round" stroke-linejoin="round" stroke-miterlimit="3" x1="378.783" y1="613.215" x2="378.783" y2="631.962"/>
<path fill-rule="evenodd" clip-rule="evenodd" fill="none" stroke="#000000" stroke-width="0.6" stroke-linecap="round" stroke-linejoin="round" stroke-miterlimit="3" d="
	M376.64,634.546c0.623-0.036,1.136-0.275,1.539-0.715c0.403-0.403,0.604-0.916,0.604-1.54l-0.055-0.329"/>
<path fill-rule="evenodd" clip-rule="evenodd" fill="none" stroke="#000000" stroke-width="0.6" stroke-linecap="round" stroke-linejoin="round" stroke-miterlimit="3" d="
	M347.336,634.051c0.147,0.843,0.532,1.576,1.154,2.199c0.623,0.586,1.356,0.953,2.199,1.1"/>
<line fill-rule="evenodd" clip-rule="evenodd" fill="none" stroke="#000000" stroke-width="0.6" stroke-linecap="round" stroke-linejoin="round" stroke-miterlimit="3" x1="347.281" y1="614.698" x2="347.281" y2="634.051"/>
<line fill-rule="evenodd" clip-rule="evenodd" fill="none" stroke="#000000" stroke-width="0.25" stroke-linecap="round" stroke-linejoin="round" stroke-miterlimit="3" x1="333.207" y1="565.385" x2="332.768" y2="568.793"/>
<line fill-rule="evenodd" clip-rule="evenodd" fill="none" stroke="#000000" stroke-width="0.25" stroke-linecap="round" stroke-linejoin="round" stroke-miterlimit="3" x1="332.272" y1="572.971" x2="331.447" y2="579.623"/>
<line fill-rule="evenodd" clip-rule="evenodd" fill="none" stroke="#000000" stroke-width="0.25" stroke-linecap="round" stroke-linejoin="round" stroke-miterlimit="3" x1="330.953" y1="583.856" x2="330.129" y2="590.509"/>
<line fill-rule="evenodd" clip-rule="evenodd" fill="none" stroke="#000000" stroke-width="0.25" stroke-linecap="round" stroke-linejoin="round" stroke-miterlimit="3" x1="329.634" y1="594.688" x2="328.864" y2="601.339"/>
<polyline fill-rule="evenodd" clip-rule="evenodd" fill="none" stroke="#000000" stroke-width="0.25" stroke-linecap="round" stroke-linejoin="round" stroke-miterlimit="3" points="
	328.369,605.572 327.93,608.871 326.885,612.28 "/>
<line fill-rule="evenodd" clip-rule="evenodd" fill="none" stroke="#000000" stroke-width="0.25" stroke-linecap="round" stroke-linejoin="round" stroke-miterlimit="3" x1="325.51" y1="616.514" x2="323.366" y2="623.275"/>
<line fill-rule="evenodd" clip-rule="evenodd" fill="none" stroke="#000000" stroke-width="0.25" stroke-linecap="round" stroke-linejoin="round" stroke-miterlimit="3" x1="322.047" y1="627.453" x2="319.902" y2="634.271"/>
<line fill-rule="evenodd" clip-rule="evenodd" fill="none" stroke="#000000" stroke-width="0.25" stroke-linecap="round" stroke-linejoin="round" stroke-miterlimit="3" x1="318.528" y1="638.449" x2="316.384" y2="645.211"/>
<line fill-rule="evenodd" clip-rule="evenodd" fill="none" stroke="#000000" stroke-width="0.25" stroke-linecap="round" stroke-linejoin="round" stroke-miterlimit="3" x1="315.064" y1="649.444" x2="314.021" y2="652.799"/>
<text transform="matrix(1 0 0 1 225.4341 756.1494)" font-family="'Tahoma-Bold'" font-size="17">RH SIDE</text>
<text transform="matrix(1 0 0 1 226.5918 363.8989)" font-family="'Tahoma-Bold'" font-size="17">LH SIDE</text>
<text id="border" class="svg_name_heading cp" transform="matrix(1 0 0 1 79.6001 14.7051)"><tspan x="0" y="0" fill="#0000FF" font-family="'Tahoma-Bold'" font-size="14">NOSE Fuselage </tspan><tspan x="0" y="20" fill="#0000FF" font-family="'Tahoma'" font-size="13" class="downloadpdf" data-id="06-41-00-992-801">AMM TASK 06-41-00-992-801</tspan></text>
<g id="fuselage" class="border">
	<g>
		<path fill-rule="evenodd" clip-rule="evenodd" fill="#B1B1B1" d="M551.4,181.4v13.95h14.25v10.45l24.399-17.4l-24.399-17.45v10.45
			H551.4z M546.5,175.65c0-6.5,3.25-9.75,9.75-9.75h26.05c6.5,0,9.75,3.25,9.75,9.75v26.05c0,6.5-3.25,9.75-9.75,9.75h-26.05
			c-6.5,0-9.75-3.25-9.75-9.75V175.65z"/>
		<polygon fill-rule="evenodd" clip-rule="evenodd" fill="#0099FF" points="551.4,181.4 565.65,181.4 565.65,170.95 590.05,188.4 
			565.65,205.8 565.65,195.35 551.4,195.35 		"/>
		<path fill-rule="evenodd" clip-rule="evenodd" fill="none" stroke="#999999" stroke-width="1.5" stroke-miterlimit="5" d="
			M546.5,175.65v26.05c0,6.5,3.25,9.75,9.75,9.75h26.05c6.5,0,9.75-3.25,9.75-9.75v-26.05c0-6.5-3.25-9.75-9.75-9.75h-26.05
			C549.75,165.9,546.5,169.15,546.5,175.65z"/>
	</g>
	<text transform="matrix(1 0 0 1 538.75 227.1553)" font-family="'Tahoma-Bold'" font-size="14">Fuselage </text>
</g>
<g id="fuselage" class="border">
	<g>
		<path fill-rule="evenodd" clip-rule="evenodd" fill="#B1B1B1" d="M12.15,589.3c0-6.5,3.25-9.75,9.75-9.75h26.05
			c6.5,0,9.75,3.25,9.75,9.75v26.05c0,6.5-3.25,9.75-9.75,9.75H21.9c-6.5,0-9.75-3.25-9.75-9.75V589.3z M52.8,595.65H38.55V585.2
			L14.15,602.6l24.4,17.45V609.6H52.8V595.65z"/>
		<polygon fill-rule="evenodd" clip-rule="evenodd" fill="#0099FF" points="52.8,595.65 52.8,609.6 38.55,609.6 38.55,620.05 
			14.15,602.6 38.55,585.2 38.55,595.65 		"/>
		<path fill-rule="evenodd" clip-rule="evenodd" fill="none" stroke="#999999" stroke-width="1.5" stroke-miterlimit="5" d="
			M12.15,589.3v26.05c0,6.5,3.25,9.75,9.75,9.75h26.05c6.5,0,9.75-3.25,9.75-9.75V589.3c0-6.5-3.25-9.75-9.75-9.75H21.9
			C15.4,579.55,12.15,582.8,12.15,589.3z"/>
	</g>
	<text transform="matrix(1 0 0 1 0 641.3555)" font-family="'Tahoma-Bold'" font-size="14">Fuselage </text>
</g>
<g>
	<g>
		<path fill-rule="evenodd" clip-rule="evenodd" fill="#666666" d="M224.5,579c-0.9-0.9-1.35-2-1.35-3.3
			c0-1.267,0.45-2.367,1.35-3.3c0.9-0.9,1.983-1.351,3.25-1.351c1.333,0,2.45,0.45,3.35,1.351c0.9,0.933,1.35,2.033,1.35,3.3
			c0,1.3-0.45,2.399-1.35,3.3s-2.017,1.35-3.35,1.35C226.483,580.35,225.4,579.9,224.5,579z"/>
		
			<path fill-rule="evenodd" clip-rule="evenodd" fill="none" stroke="#000000" stroke-width="0.5" stroke-linecap="round" stroke-linejoin="round" stroke-miterlimit="3" d="
			M224.5,579c0.9,0.9,1.983,1.35,3.25,1.35c1.333,0,2.45-0.449,3.35-1.35s1.35-2,1.35-3.3c0-1.267-0.45-2.367-1.35-3.3
			c-0.9-0.9-2.017-1.351-3.35-1.351c-1.267,0-2.35,0.45-3.25,1.351c-0.9,0.933-1.35,2.033-1.35,3.3
			C223.15,577,223.6,578.1,224.5,579z"/>
	</g>
	<g>
		<path fill-rule="evenodd" clip-rule="evenodd" d="M239.75,577h-2.7c-0.566-0.167-1.417-0.25-2.55-0.25s-1.983,0.083-2.55,0.25
			l-3.35-0.3l-4.95-0.55V575l4.95-0.55l3.65-0.3c0.433,0.133,1.183,0.199,2.25,0.199c1.033,0,1.817-0.066,2.35-0.199h3.1l1.4,0.55v2
			L239.75,577z"/>
	</g>
</g>
<g>
	<g>
		<g>
			<path fill-rule="evenodd" clip-rule="evenodd" fill="#666666" d="M314.6,621.8c1.267,0,2.334,0.434,3.2,1.3
				c0.9,0.9,1.351,1.983,1.351,3.25c0,1.233-0.45,2.284-1.351,3.15c-0.866,0.934-1.934,1.4-3.2,1.4c-1.233,0-2.3-0.467-3.199-1.4
				c-0.9-0.866-1.351-1.917-1.351-3.15c0-1.267,0.45-2.35,1.351-3.25C312.3,622.233,313.366,621.8,314.6,621.8z"/>
			
				<path fill-rule="evenodd" clip-rule="evenodd" fill="none" stroke="#000000" stroke-width="0.5" stroke-linecap="round" stroke-linejoin="round" stroke-miterlimit="3" d="
				M314.6,621.8c-1.233,0-2.3,0.434-3.199,1.3c-0.9,0.9-1.351,1.983-1.351,3.25c0,1.233,0.45,2.284,1.351,3.15
				c0.899,0.934,1.966,1.4,3.199,1.4c1.267,0,2.334-0.467,3.2-1.4c0.9-0.866,1.351-1.917,1.351-3.15c0-1.267-0.45-2.35-1.351-3.25
				C316.934,622.233,315.866,621.8,314.6,621.8z"/>
		</g>
	</g>
	<g>
		<path fill-rule="evenodd" clip-rule="evenodd" d="M312.75,628.25c-0.533-0.5-0.8-1.134-0.8-1.9c0-0.733,0.267-1.366,0.8-1.899
			s1.167-0.8,1.9-0.8c0.767,0,1.399,0.267,1.899,0.8c0.533,0.533,0.8,1.166,0.8,1.899c0,0.767-0.267,1.4-0.8,1.9
			c-0.5,0.533-1.133,0.8-1.899,0.8C313.917,629.05,313.283,628.783,312.75,628.25z"/>
	</g>
	<g>
		<g>
			<rect x="311.4" y="625.35" fill-rule="evenodd" clip-rule="evenodd" width="4.05" height="1.851"/>
			
				<rect x="311.4" y="625.35" fill-rule="evenodd" clip-rule="evenodd" fill="none" stroke="#000000" stroke-width="0.5" stroke-miterlimit="5" width="4.05" height="1.851"/>
		</g>
	</g>
</g>
<g>
	<g>
		<g>
			<path fill-rule="evenodd" clip-rule="evenodd" fill="#666666" d="M235.3,593.6c0-1.533,0.55-2.833,1.65-3.899
				c1.1-1.066,2.4-1.601,3.9-1.601c1.533,0,2.833,0.534,3.9,1.601c1.1,1.066,1.65,2.366,1.65,3.899c0,1.5-0.55,2.801-1.65,3.9
				c-1.067,1.066-2.367,1.6-3.9,1.6c-1.5,0-2.8-0.533-3.9-1.6C235.85,596.4,235.3,595.1,235.3,593.6z"/>
			
				<path fill-rule="evenodd" clip-rule="evenodd" fill="none" stroke="#000000" stroke-width="0.5" stroke-linecap="round" stroke-linejoin="round" stroke-miterlimit="3" d="
				M235.3,593.6c0,1.5,0.55,2.801,1.65,3.9c1.1,1.066,2.4,1.6,3.9,1.6c1.533,0,2.833-0.533,3.9-1.6c1.1-1.1,1.65-2.4,1.65-3.9
				c0-1.533-0.55-2.833-1.65-3.899c-1.067-1.066-2.367-1.601-3.9-1.601c-1.5,0-2.8,0.534-3.9,1.601
				C235.85,590.767,235.3,592.066,235.3,593.6z"/>
		</g>
	</g>
	<g>
		<path fill-rule="evenodd" clip-rule="evenodd" d="M240.75,591.2c0.733,0,1.333,0.233,1.8,0.7c0.5,0.5,0.75,1.116,0.75,1.85
			c0,0.7-0.25,1.3-0.75,1.8c-0.466,0.5-1.066,0.75-1.8,0.75c-0.7,0-1.3-0.25-1.8-0.75s-0.75-1.1-0.75-1.8
			c0-0.733,0.25-1.35,0.75-1.85C239.45,591.434,240.05,591.2,240.75,591.2z"/>
	</g>
	<g>
		<g>
			<polygon fill-rule="evenodd" clip-rule="evenodd" fill="#333333" points="241.95,594.4 231.5,596.1 231.3,594.4 241.75,592.65 
							"/>
			
				<polygon fill-rule="evenodd" clip-rule="evenodd" fill="none" stroke="#000000" stroke-width="0.5" stroke-linecap="round" stroke-linejoin="round" stroke-miterlimit="3" points="
				241.95,594.4 241.75,592.65 231.3,594.4 231.5,596.1 			"/>
		</g>
	</g>
</g>
<g>
	<g>
		<path fill-rule="evenodd" clip-rule="evenodd" fill="#666666" d="M327.2,585.725c0.017,0.043,0.033,0.085,0.05,0.125l-3.6,0.301
			l-4.95,0.55v1.149l4.95,0.551l3.35,0.3c0.108-0.032,0.225-0.057,0.35-0.075c-0.194,0.778-0.595,1.47-1.199,2.075
			c-0.9,0.899-2.017,1.35-3.351,1.35c-1.267,0-2.35-0.45-3.25-1.35c-0.899-0.9-1.35-2-1.35-3.3c0-1.267,0.45-2.367,1.35-3.301
			c0.9-0.899,1.983-1.35,3.25-1.35c1.334,0,2.45,0.45,3.351,1.35C326.626,584.594,326.976,585.135,327.2,585.725z"/>
		<path fill-rule="evenodd" clip-rule="evenodd" d="M327.25,585.85h0.05c0.434,0.134,1.184,0.2,2.25,0.2
			c1.033,0,1.816-0.066,2.351-0.2h3.1l1.4,0.551v2l-1.601,0.3h-2.7c-0.566-0.167-1.416-0.25-2.55-0.25
			c-0.917,0-1.65,0.059-2.2,0.175c-0.125,0.019-0.241,0.043-0.35,0.075l-3.35-0.3l-4.95-0.551V586.7l4.95-0.55L327.25,585.85z"/>
		
			<path fill-rule="evenodd" clip-rule="evenodd" fill="none" stroke="#000000" stroke-width="0.5" stroke-linecap="round" stroke-linejoin="round" stroke-miterlimit="3" d="
			M327.2,585.725c-0.225-0.59-0.574-1.131-1.05-1.625c-0.9-0.899-2.017-1.35-3.351-1.35c-1.267,0-2.35,0.45-3.25,1.35
			c-0.899,0.934-1.35,2.034-1.35,3.301c0,1.3,0.45,2.399,1.35,3.3c0.9,0.899,1.983,1.35,3.25,1.35c1.334,0,2.45-0.45,3.351-1.35
			c0.604-0.605,1.005-1.297,1.199-2.075"/>
		<path fill-rule="evenodd" clip-rule="evenodd" fill="none" stroke="#000000" stroke-width="0.2" stroke-miterlimit="5" d="
			M327.25,585.85c-0.017-0.04-0.033-0.082-0.05-0.125"/>
	</g>
</g>
<g>
	<g>
		<g>
			<path fill-rule="evenodd" clip-rule="evenodd" fill="#666666" d="M260.1,223.85c0.867-0.867,1.933-1.3,3.2-1.3
				c1.233,0,2.3,0.434,3.2,1.3c0.9,0.9,1.35,1.983,1.35,3.25c0,1.233-0.45,2.283-1.35,3.15c-0.9,0.933-1.967,1.4-3.2,1.4
				c-1.267,0-2.333-0.467-3.2-1.4c-0.9-0.867-1.35-1.917-1.35-3.15C258.75,225.833,259.2,224.75,260.1,223.85z"/>
			
				<path fill-rule="evenodd" clip-rule="evenodd" fill="none" stroke="#000000" stroke-width="0.5" stroke-linecap="round" stroke-linejoin="round" stroke-miterlimit="3" d="
				M260.1,223.85c0.867-0.867,1.933-1.3,3.2-1.3c1.233,0,2.3,0.434,3.2,1.3c0.9,0.9,1.35,1.983,1.35,3.25
				c0,1.233-0.45,2.283-1.35,3.15c-0.9,0.933-1.967,1.4-3.2,1.4c-1.267,0-2.333-0.467-3.2-1.4c-0.9-0.867-1.35-1.917-1.35-3.15
				C258.75,225.833,259.2,224.75,260.1,223.85z"/>
		</g>
	</g>
	<g>
		<path fill-rule="evenodd" clip-rule="evenodd" d="M265.95,227.1c0,0.767-0.267,1.4-0.8,1.9c-0.533,0.533-1.167,0.8-1.9,0.8
			c-0.767,0-1.4-0.267-1.9-0.8c-0.533-0.5-0.8-1.133-0.8-1.9c0-0.733,0.267-1.367,0.8-1.9c0.5-0.534,1.133-0.8,1.9-0.8
			c0.733,0,1.367,0.267,1.9,0.8C265.683,225.733,265.95,226.367,265.95,227.1z"/>
	</g>
	<g>
		<g>
			<rect x="262.45" y="226.1" fill-rule="evenodd" clip-rule="evenodd" width="4.05" height="1.85"/>
			
				<rect x="262.45" y="226.1" fill-rule="evenodd" clip-rule="evenodd" fill="none" stroke="#000000" stroke-width="0.5" stroke-miterlimit="5" width="4.05" height="1.85"/>
		</g>
	</g>
</g>
<g>
	<g>
		<path fill-rule="evenodd" clip-rule="evenodd" fill="#666666" d="M258.2,182.9c0.9,0.934,1.35,2.033,1.35,3.3
			c0,1.3-0.45,2.4-1.35,3.3c-0.9,0.9-1.983,1.35-3.25,1.35c-1.333,0-2.45-0.45-3.35-1.35s-1.35-2-1.35-3.3
			c0-1.267,0.45-2.367,1.35-3.3c0.9-0.9,2.017-1.35,3.35-1.35C256.217,181.55,257.3,182,258.2,182.9z"/>
		
			<path fill-rule="evenodd" clip-rule="evenodd" fill="none" stroke="#000000" stroke-width="0.5" stroke-linecap="round" stroke-linejoin="round" stroke-miterlimit="3" d="
			M258.2,182.9c0.9,0.934,1.35,2.033,1.35,3.3c0,1.3-0.45,2.4-1.35,3.3c-0.9,0.9-1.983,1.35-3.25,1.35c-1.333,0-2.45-0.45-3.35-1.35
			s-1.35-2-1.35-3.3c0-1.267,0.45-2.367,1.35-3.3c0.9-0.9,2.017-1.35,3.35-1.35C256.217,181.55,257.3,182,258.2,182.9z"/>
	</g>
	<g>
		<path fill-rule="evenodd" clip-rule="evenodd" d="M241.35,187.2v-2l1.4-0.55h3.1c0.533,0.133,1.316,0.2,2.35,0.2
			c1.066,0,1.816-0.067,2.25-0.2l3.65,0.3l4.95,0.55v1.15l-4.95,0.55l-3.35,0.3c-0.567-0.167-1.417-0.25-2.55-0.25
			s-1.983,0.083-2.55,0.25h-2.7L241.35,187.2z"/>
	</g>
</g>
<g>
	<g>
		<g>
			<path fill-rule="evenodd" clip-rule="evenodd" fill="#666666" d="M337.15,188.7c1.5,0,2.8,0.533,3.899,1.6
				c1.101,1.067,1.65,2.367,1.65,3.9c0,1.5-0.55,2.8-1.65,3.9c-1.1,1.066-2.399,1.6-3.899,1.6c-1.534,0-2.834-0.534-3.9-1.6
				c-1.1-1.1-1.65-2.4-1.65-3.9c0-1.534,0.551-2.833,1.65-3.9C334.316,189.233,335.616,188.7,337.15,188.7z"/>
			
				<path fill-rule="evenodd" clip-rule="evenodd" fill="none" stroke="#000000" stroke-width="0.5" stroke-linecap="round" stroke-linejoin="round" stroke-miterlimit="3" d="
				M337.15,188.7c1.5,0,2.8,0.533,3.899,1.6c1.101,1.067,1.65,2.367,1.65,3.9c0,1.5-0.55,2.8-1.65,3.9
				c-1.1,1.066-2.399,1.6-3.899,1.6c-1.534,0-2.834-0.534-3.9-1.6c-1.1-1.1-1.65-2.4-1.65-3.9c0-1.534,0.551-2.833,1.65-3.9
				C334.316,189.233,335.616,188.7,337.15,188.7z"/>
		</g>
	</g>
	<g>
		<path fill-rule="evenodd" clip-rule="evenodd" d="M335.45,192.5c0.467-0.467,1.066-0.7,1.8-0.7c0.7,0,1.3,0.233,1.8,0.7
			c0.5,0.5,0.75,1.117,0.75,1.85c0,0.7-0.25,1.3-0.75,1.8s-1.1,0.75-1.8,0.75c-0.733,0-1.333-0.25-1.8-0.75
			c-0.5-0.5-0.75-1.1-0.75-1.8C334.7,193.617,334.95,193,335.45,192.5z"/>
	</g>
	<g>
		<g>
			<polygon fill-rule="evenodd" clip-rule="evenodd" fill="#333333" points="336.25,193.25 346.7,195 346.5,196.7 336.05,195 			"/>
			
				<polygon fill-rule="evenodd" clip-rule="evenodd" fill="none" stroke="#000000" stroke-width="0.5" stroke-linecap="round" stroke-linejoin="round" stroke-miterlimit="3" points="
				336.25,193.25 346.7,195 346.5,196.7 336.05,195 			"/>
		</g>
	</g>
</g>
</svg>
