<?xml version="1.0" encoding="utf-8"?>
<!-- Generator: Adobe Illustrator 16.2.1, SVG Export Plug-In . SVG Version: 6.00 Build 0)  -->
<!DOCTYPE svg PUBLIC "-//W3C//DTD SVG 1.1//EN" "http://www.w3.org/Graphics/SVG/1.1/DTD/svg11.dtd">
<svg version="1.1" id="Selected_Items" xmlns="http://www.w3.org/2000/svg" xmlns:xlink="http://www.w3.org/1999/xlink" x="0px"
	 y="0px" width="745.3px" height="829.25px" viewBox="0 0 745.3 829.25" enable-background="new 0 0 745.3 829.25"
	 xml:space="preserve">
<path fill-rule="evenodd" clip-rule="evenodd" fill="none" stroke="#1A171B" stroke-width="0.5" stroke-miterlimit="6.92" d="
	M447.2,649.75v-0.3 M513.45,643.65l0.05,35.05l-65.925,8.35"/>
<g>
	<g>
		<path fill-rule="evenodd" clip-rule="evenodd" fill="#CCCCCC" d="M254.75,398.65l-21.325,6.625L232.8,387.25
			c0.1-0.6,0.55-1.033,1.35-1.3c0.934-0.767,1.25-1.617,0.95-2.55c-0.333-0.867-1.184-1.683-2.55-2.45l2.1-3.85h16.8v8.3
			l120.05,15.1v9.85H269.9c-11.467,0.1-19.8-0.067-25-0.5c-7.3-0.633-11.117-1.867-11.45-3.7l-0.025-0.875L254.75,398.65v0.15
			l0.15,0.2l0.1,0.2l0.1,0.1l0.15,0.05l0.05,0.05l0.15,0.05l0.35,0.2h0.5l0.2-0.1l0.15-0.1l0.15-0.05l0.05-0.05l0.1-0.05l0.1-0.1
			l0.1-0.2l0.1-0.1l0.1-0.15l0.05-0.1v-0.1l0.05-0.1v-0.4l-0.1-0.25l-0.1-0.15l-0.05-0.1l-0.05-0.05l-0.05-0.1l-0.1-0.15l-0.1-0.05
			l-0.2-0.15l-0.15-0.05l-0.2-0.1h-0.65l-0.1,0.05l-0.15,0.05l-0.1,0.05l-0.15,0.15l-0.15,0.05l-0.1,0.15l-0.05,0.1l-0.05,0.05
			l-0.15,0.4v0.1l-0.05,0.15v0.25l0.05,0.15L254.75,398.65z M447.65,697.8l0.05-10.6l120-15.05v-7.65l15.7-0.05l3.199,3.95
			c-1.366,0.767-2.216,1.583-2.55,2.449c-0.3,0.934,0.017,1.784,0.95,2.551c0.8,0.333,1.25,0.767,1.35,1.3l-0.649,18.95
			c-0.334,1.833-4.134,3.05-11.4,3.649c-5.166,0.434-13.517,0.601-25.05,0.5H447.65z"/>
		<polygon fill-rule="evenodd" clip-rule="evenodd" points="254.75,398.65 256.05,398.25 254.75,398.65 254.7,398.6 254.65,398.45 
			254.65,398.2 254.7,398.05 254.7,397.95 254.85,397.55 254.9,397.5 254.95,397.4 255.05,397.25 255.2,397.2 255.35,397.05 
			255.45,397 255.6,396.95 255.7,396.9 256.35,396.9 256.55,397 256.7,397.05 256.9,397.2 257,397.25 257.1,397.4 257.15,397.5 
			257.2,397.55 257.25,397.65 257.35,397.8 257.45,398.05 257.45,398.45 257.4,398.55 257.4,398.65 257.35,398.75 257.25,398.9 
			257.15,399 257.05,399.2 256.95,399.3 256.85,399.35 256.8,399.4 256.65,399.45 256.5,399.55 256.3,399.65 255.8,399.65 
			255.45,399.45 255.3,399.4 255.25,399.35 255.1,399.3 255,399.2 254.9,399 254.75,398.8 		"/>
		<path fill-rule="evenodd" clip-rule="evenodd" fill="none" stroke="#1A171B" stroke-width="0.2" stroke-miterlimit="6.92" d="
			M233.425,405.275L212.8,411.7 M254.75,398.65l1.3-0.4 M254.75,398.65l-21.325,6.625"/>
	</g>
	<text transform="matrix(1 0 0 1 176.4434 415.9229)" font-family="'Tahoma'" font-size="12.1353">422AB</text>
</g>
<g>
	<path fill-rule="evenodd" clip-rule="evenodd" fill="#CCCCCC" d="M289.9,643.45l9.45-1.15v-16.5l-9.55,1.2L289.9,643.45z
		 M289.6,653.4c0.033,0,0.066,0,0.1,0V622.3l44.75-5.45l3.65-0.149v31.8l-48.5,5.1V653.4z"/>
</g>
<g>
	<path fill-rule="evenodd" clip-rule="evenodd" fill="#CCCCCC" d="M481.1,335.05v-5.55l3.65,0.15l44.85,5.5v0.05l-0.199-0.05v4.6
		l-9.551-1.25v16.55l9.4,1.1l0.1-6.15l0.051,16.35c0.066,0,0.133,0.017,0.199,0.05l-48.5-5v-0.65l20.101,2v-29.9h-15.5l-0.05,2.2
		H481.1z"/>
</g>
<text transform="matrix(1 0 0 1 580.2432 95.2734)" font-family="'Tahoma'" font-size="12.1353">424AT</text>
<g>
	<path fill-rule="evenodd" clip-rule="evenodd" fill="#CCCCCC" d="M542.2,163.6c-6.367,1.5-12.05,2.5-17.05,3h-44v-48h44
		c4.633,0.4,10.333,1.35,17.1,2.85L542.2,163.6z"/>
</g>
<polygon fill-rule="evenodd" clip-rule="evenodd" points="520.586,130.787 520.807,130.897 520.973,130.952 521.083,130.952 
	521.138,131.062 521.414,131.338 521.47,131.448 521.524,131.614 521.58,131.669 521.635,131.779 521.635,131.944 521.689,132.055 
	521.689,132.276 521.635,132.386 521.635,132.552 521.58,132.606 521.47,132.772 521.414,132.882 521.414,132.993 521.304,133.048 
	521.193,133.158 521.083,133.213 520.918,133.379 520.752,133.434 520.697,133.489 520.531,133.489 520.422,133.544 
	520.146,133.544 520.035,133.489 519.925,133.489 519.759,133.434 519.704,133.379 519.594,133.324 519.428,133.213 
	519.428,133.158 519.264,133.103 519.207,132.993 519.098,132.882 519.098,132.772 518.932,132.441 518.932,132.276 518.877,132.22 
	518.877,132.055 518.932,131.944 518.932,131.834 518.987,131.669 519.042,131.614 519.098,131.448 519.152,131.338 
	519.264,131.283 519.318,131.173 519.483,131.007 519.648,130.952 519.759,130.897 519.814,130.841 519.979,130.787 "/>
<line fill-rule="evenodd" clip-rule="evenodd" fill="none" stroke="#1A171B" stroke-width="0.2" stroke-miterlimit="6.92" x1="595.57" y1="99.033" x2="520.386" y2="131.964"/>
<g>
	<g>
		<path fill-rule="evenodd" clip-rule="evenodd" fill="#CCCCCC" d="M449.85,152.95l3.9,3.55c-0.47,0.4-1.02,0.6-1.65,0.6h-8.85
			c-0.7,0-1.316-0.25-1.85-0.75c-0.534-0.533-0.801-1.167-0.801-1.9v-24.5c0-0.733,0.267-1.35,0.801-1.85
			c0.5-0.533,1.116-0.8,1.85-0.8h8.85c0.733,0,1.334,0.267,1.801,0.8c0.5,0.5,0.75,1.117,0.75,1.85v24.5
			c0,0.733-0.25,1.367-0.75,1.9c-0.051,0.05-0.101,0.1-0.15,0.15L449.85,152.95l0.101-0.15l0.05-0.05l0.05-0.1l0.05-0.2v-0.2
			l0.051-0.15V152l-0.051-0.15v-0.1l-0.05-0.1v-0.2l-0.2-0.15l-0.05-0.1l-0.149-0.15L449.55,151l-0.1-0.15l-0.25-0.1h-0.851
			l-0.25,0.1L448,151l-0.25,0.1l-0.1,0.2l-0.15,0.15l-0.05,0.2l-0.05,0.1v0.65l0.05,0.05l0.05,0.2l0.05,0.1l0.05,0.05l0.101,0.15
			v0.1h0.149l0.2,0.25l0.101,0.05l0.199,0.05h0.051l0.149,0.05h0.4l0.1-0.05h0.2l0.1-0.05l0.15-0.1l0.1-0.05l0.101-0.15h0.05
			L449.85,152.95z"/>
		<polygon fill-rule="evenodd" clip-rule="evenodd" points="449.85,152.95 448.8,152 449.85,152.95 449.75,153.05 449.7,153.05 
			449.6,153.2 449.5,153.25 449.35,153.35 449.25,153.4 449.05,153.4 448.95,153.45 448.55,153.45 448.4,153.4 448.35,153.4 
			448.15,153.35 448.05,153.3 447.85,153.05 447.7,153.05 447.7,152.95 447.6,152.8 447.55,152.75 447.5,152.65 447.45,152.45 
			447.4,152.4 447.4,151.75 447.45,151.65 447.5,151.45 447.65,151.3 447.75,151.1 448,151 448.1,150.85 448.35,150.75 
			449.2,150.75 449.45,150.85 449.55,151 449.65,151.05 449.8,151.2 449.85,151.3 450.05,151.45 450.05,151.65 450.1,151.75 
			450.1,151.85 450.15,152 450.15,152.1 450.1,152.25 450.1,152.45 450.05,152.65 450,152.75 449.95,152.8 		"/>
		<path fill-rule="evenodd" clip-rule="evenodd" fill="none" stroke="#1A171B" stroke-width="0.2" stroke-miterlimit="6.92" d="
			M453.75,156.5l31.8,28.9 M449.85,152.95L448.8,152 M449.85,152.95l3.9,3.55"/>
	</g>
	<text transform="matrix(1 0 0 1 471.0439 197.373)" font-family="'Tahoma'" font-size="12.1353">423AT</text>
</g>
<g>
	<g>
		<path fill-rule="evenodd" clip-rule="evenodd" fill="#CCCCCC" d="M205.425,158.85l-1.725,4.275
			c-6.462-1.347-12.029-3.155-16.7-5.425c-9.467-5.434-13.917-10.767-13.35-16c0.434-4.667,4.9-9.383,13.4-14.15
			c11.133-4.066,24.25-6.917,39.35-8.55v5.95c-0.467,9.433-0.467,19.833,0,31.2v9.7c-8.51-0.422-16.077-1.331-22.7-2.725
			L205.425,158.85h0.025l0.15,0.05h0.7l0.2-0.05l0.1-0.05l0.25-0.25l0.05-0.1l0.15-0.1l0.05-0.1l0.1-0.05l0.05-0.1v-0.3l0.05-0.1
			v-0.4l-0.05-0.1v-0.1l-0.05-0.2l-0.05-0.05l-0.05-0.1l-0.4-0.4l-0.2-0.1h-0.15l-0.1-0.05h-0.5l-0.15,0.05h-0.2l-0.15,0.05
			l-0.35,0.35l-0.15,0.2l-0.1,0.1l-0.05,0.15v0.8l0.05,0.2l0.1,0.2l0.15,0.1l0.05,0.1l0.05,0.05L205.425,158.85z M174.7,358.6
			c0.466-4.5,4.95-9.184,13.45-14.05c11.333-4.3,24.417-7.417,39.25-9.35l0.15,44.85c-16.733-0.3-29.9-2.483-39.5-6.55
			C178.65,368.567,174.2,363.6,174.7,358.6z M644.7,646.05c0.533,5.033-3.934,10-13.4,14.9c-9.434,4.066-22.566,6.25-39.399,6.55
			v-44.9c15,2.067,28.116,5.217,39.35,9.45C639.75,636.884,644.233,641.55,644.7,646.05z"/>
		<polygon fill-rule="evenodd" clip-rule="evenodd" points="205.425,158.85 205.95,157.55 205.425,158.85 205,158.55 204.95,158.5 
			204.9,158.4 204.75,158.3 204.65,158.1 204.6,157.9 204.6,157.1 204.65,156.95 204.75,156.85 204.9,156.65 205.25,156.3 
			205.4,156.25 205.6,156.25 205.75,156.2 206.25,156.2 206.35,156.25 206.5,156.25 206.7,156.35 207.1,156.75 207.15,156.85 
			207.2,156.9 207.25,157.1 207.25,157.2 207.3,157.3 207.3,157.7 207.25,157.8 207.25,158.1 207.2,158.2 207.1,158.25 
			207.05,158.35 206.9,158.45 206.85,158.55 206.6,158.8 206.5,158.85 206.3,158.9 205.6,158.9 205.45,158.85 		"/>
		<path fill-rule="evenodd" clip-rule="evenodd" fill="none" stroke="#1A171B" stroke-width="0.2" stroke-miterlimit="6.92" d="
			M203.7,163.125l-17.2,42.525 M205.425,158.85l0.525-1.3 M205.425,158.85l-1.725,4.275"/>
	</g>
	<text transform="matrix(1 0 0 1 169.043 216.7734)" font-family="'Tahoma'" font-size="12.1353">421AR</text>
</g>
<g>
	<g>
		<path fill-rule="evenodd" clip-rule="evenodd" fill="#CCCCCC" d="M226.75,119.05c6.933-0.566,15.1-0.75,24.5-0.55v48.1
			c-9.767,0.167-17.883,0-24.35-0.5c-0.2-3.4-0.367-6.717-0.5-9.95c-0.467-11.367-0.467-21.767,0-31.2
			C226.5,122.95,226.617,120.983,226.75,119.05z M227.75,380.05L227.4,335l23.9-3.25l-0.1,45.35h-16.55l-2.1,3.85
			c-1.466-0.367-2.383-0.583-2.75-0.65C229.3,380.167,228.617,380.083,227.75,380.05z M591.8,661.4l-13.7-11.7L591.8,661.4v6.3
			c-2.166,0.033-3.25,0.083-3.25,0.149c0.134,0.067-0.583,0.25-2.149,0.551l-3.25-3.9H567.9v-45.95l23.899,4.2V661.4z M578.1,649.7
			l0.101-0.25l0.1-0.101V649.2l0.05-0.05v-0.2l0.051-0.101v-0.1l-0.051-0.2v-0.1l-0.1-0.2l-0.1-0.15V648l-0.051-0.1L578,647.8
			l-0.25-0.1l-0.05-0.05l-0.15-0.101l-0.1-0.1h-0.15l-0.1-0.05h-0.25l-0.15,0.05h-0.2l-0.149,0.149l-0.351,0.15l-0.05,0.1L575.9,648
			l-0.051,0.15l-0.149,0.1v0.1l-0.101,0.2v0.4l0.051,0.2v0.05l0.05,0.149l0.05,0.101l0.15,0.1l0.1,0.25l0.2,0.101l0.2,0.149
			l0.149,0.05l0.101,0.051h0.1l0.15,0.1h0.25l0.1-0.1h0.2l0.05-0.051l0.1-0.05l0.15-0.1l0.05-0.05l0.101-0.051L578.1,649.7z"/>
		<polygon fill-rule="evenodd" clip-rule="evenodd" points="578.1,649.7 577.05,648.8 578.1,649.7 577.9,649.85 577.8,649.9 
			577.75,649.95 577.6,650.05 577.5,650.1 577.45,650.15 577.25,650.15 577.15,650.25 576.9,650.25 576.75,650.15 576.65,650.15 
			576.55,650.1 576.4,650.05 576.2,649.9 576,649.8 575.9,649.55 575.75,649.45 575.7,649.35 575.65,649.2 575.65,649.15 
			575.6,648.95 575.6,648.55 575.7,648.35 575.7,648.25 575.85,648.15 575.9,648 576.05,647.85 576.1,647.75 576.45,647.6 
			576.6,647.45 576.8,647.45 576.95,647.4 577.2,647.4 577.3,647.45 577.45,647.45 577.55,647.55 577.7,647.65 577.75,647.7 
			578,647.8 578.1,647.9 578.15,648 578.15,648.1 578.25,648.25 578.35,648.45 578.35,648.55 578.4,648.75 578.4,648.85 
			578.35,648.95 578.35,649.15 578.3,649.2 578.3,649.35 578.2,649.45 		"/>
		<path fill-rule="evenodd" clip-rule="evenodd" fill="none" stroke="#1A171B" stroke-width="0.2" stroke-miterlimit="6.92" d="
			M591.8,661.4l-13.7-11.7l-1.05-0.9 M611.8,678.45l-20-17.05"/>
	</g>
	<text transform="matrix(1 0 0 1 595.9932 689.373)" font-family="'Tahoma'" font-size="12.1353">422AT</text>
</g>
<g>
	<g>
		<path fill-rule="evenodd" clip-rule="evenodd" fill="#CCCCCC" d="M254.825,118.5l7.8,6.65L254.825,118.5H306.1v19.2h-54.85v-19.2
			H254.825z M262.625,125.15l-0.125,0.1l-0.1,0.3l-0.05,0.05l-0.05,0.15v0.75l0.1,0.1v0.1l0.1,0.1l0.05,0.1l0.3,0.3l0.1,0.05
			l0.05,0.05l0.2,0.05h0.1l0.1,0.05h0.5l0.15-0.05h0.05l0.2-0.05l0.1-0.05l0.05-0.1l0.1-0.05l0.1-0.1l0.15-0.1l0.05-0.1v-0.1
			l0.1-0.1v-0.1l0.05-0.2l0.05-0.05v-0.3l-0.05-0.1v-0.15l-0.3-0.55l-0.1-0.05l-0.25-0.25h-0.2l-0.05-0.1l-0.15-0.05h-0.6
			l-0.25,0.15H263l-0.1,0.1l-0.1,0.05L262.625,125.15z M554.425,615.875L535.85,632.8L554.425,615.875
			c4.535,0.655,9.026,1.497,13.476,2.525v46.1h-0.15l-0.05,7.5l-53.851,6.8v-65.45l21.7,0.851
			C541.924,614.412,548.215,614.97,554.425,615.875z M535.85,632.8l-0.05-0.05l-0.149-0.05l-0.15-0.2l-0.15-0.05l-0.1-0.05h-0.15
			l-0.1-0.051h-0.25l-0.15,0.051H534.4l-0.15,0.05L534,632.6l-0.1,0.101l-0.051,0.1l-0.1,0.05l-0.05,0.051l-0.05,0.149l-0.15,0.15
			v0.05l-0.05,0.15l-0.05,0.1v0.4l0.05,0.1v0.1l0.05,0.2l0.2,0.2l0.05,0.1l0.25,0.25l0.05,0.101l0.15,0.05h0.149l0.101,0.05h0.1
			l0.15,0.05h0.25l0.1-0.05h0.101L535.3,635h0.101l0.1-0.1l0.1-0.051l0.25-0.25h0.051l0.05-0.1l0.05-0.15l0.1-0.05v-0.2l0.051-0.1
			v-0.1l0.05-0.101v-0.149l-0.05-0.15v-0.1l-0.051-0.15l-0.05-0.05l-0.149-0.3v-0.051L535.85,632.8z"/>
		<path fill-rule="evenodd" clip-rule="evenodd" d="M263.25,125.7l-0.625-0.55L262.8,125l0.1-0.05l0.1-0.1h0.1l0.25-0.15h0.6
			l0.15,0.05l0.05,0.1h0.2l0.25,0.25l0.1,0.05l0.3,0.55v0.15l0.05,0.1v0.3L265,126.3l-0.05,0.2v0.1l-0.1,0.1v0.1l-0.05,0.1
			l-0.15,0.1l-0.1,0.1l-0.1,0.05l-0.05,0.1l-0.1,0.05l-0.2,0.05h-0.05l-0.15,0.05h-0.5l-0.1-0.05h-0.1l-0.2-0.05l-0.05-0.05
			l-0.1-0.05l-0.3-0.3l-0.05-0.1l-0.1-0.1v-0.1l-0.1-0.1v-0.75l0.05-0.15l0.05-0.05l0.1-0.3l0.125-0.1L263.25,125.7z M535.85,632.8
			l-1.05,0.95L535.85,632.8l0.051,0.05v0.051l0.149,0.3l0.05,0.05l0.051,0.15v0.1l0.05,0.15v0.149l-0.05,0.101v0.1l-0.051,0.1v0.2
			l-0.1,0.05l-0.05,0.15l-0.05,0.1h-0.051l-0.25,0.25l-0.1,0.051l-0.1,0.1H535.3l-0.149,0.05h-0.101l-0.1,0.05h-0.25l-0.15-0.05
			h-0.1L534.35,635H534.2l-0.15-0.05L534,634.85l-0.25-0.25l-0.05-0.1l-0.2-0.2l-0.05-0.2V634l-0.05-0.1v-0.4l0.05-0.1l0.05-0.15
			v-0.05l0.15-0.15l0.05-0.149l0.05-0.051l0.1-0.05l0.051-0.1l0.1-0.101l0.25-0.149l0.15-0.05h0.199l0.15-0.051H535l0.1,0.051h0.15
			l0.1,0.05l0.15,0.05l0.15,0.2l0.149,0.05L535.85,632.8z"/>
		<path fill-rule="evenodd" clip-rule="evenodd" fill="none" stroke="#1A171B" stroke-width="0.2" stroke-miterlimit="6.92" d="
			M254.825,118.5l7.8,6.65 M263.25,125.7l-0.625-0.55 M254.825,118.5L228.5,96.05 M554.425,615.875L535.85,632.8l-1.05,0.95
			 M587.95,585.3l-33.525,30.575"/>
	</g>
	<text transform="matrix(1 0 0 1 570.7939 581.4229)" font-family="'Tahoma'" font-size="12.1353">422AR</text>
	<text transform="matrix(1 0 0 1 210.293 93.123)" font-family="'Tahoma'" font-size="12.1353">422AR</text>
</g>
<g>
	<g>
		<path fill-rule="evenodd" clip-rule="evenodd" d="M277.95,159.75l0.1-0.3l0.3-0.25l0.1-0.05l0.1-0.1h0.1l0.25-0.15h0.6l0.15,0.05
			l0.05,0.1h0.2l0.25,0.25l0.1,0.05l0.3,0.55v0.15l0.05,0.1v0.3l-0.05,0.05l-0.05,0.2v0.1l-0.1,0.1v0.1l-0.05,0.1l-0.15,0.1
			l-0.1,0.1l-0.1,0.05l-0.05,0.1l-0.1,0.05l-0.2,0.05h-0.05l-0.15,0.05h-0.5l-0.1-0.05h-0.05h-0.05l-0.2-0.05l-0.05-0.05l-0.1-0.05
			l-0.3-0.3l-0.05-0.1l-0.1-0.1v-0.1l-0.1-0.1v-0.75l0.05-0.15L277.95,159.75z M285.175,343.6l0.975,1L285.175,343.6l0.075-0.05
			l0.1-0.05l0.1-0.1h0.1l0.25-0.15h0.6l0.15,0.05l0.05,0.1h0.2l0.25,0.25l0.1,0.05l0.3,0.55v0.15l0.05,0.1v0.3l-0.05,0.05l-0.05,0.2
			v0.1l-0.1,0.1v0.1l-0.05,0.1l-0.15,0.1l-0.1,0.1l-0.1,0.05l-0.05,0.1l-0.1,0.05l-0.2,0.05h-0.05l-0.15,0.05h-0.5l-0.1-0.05h-0.1
			l-0.2-0.05l-0.05-0.05l-0.1-0.05l-0.3-0.3l-0.05-0.1l-0.1-0.1v-0.1l-0.1-0.1v-0.75l0.05-0.15l0.05-0.05l0.1-0.3L285.175,343.6z"/>
		<path fill-rule="evenodd" clip-rule="evenodd" fill="#CCCCCC" d="M277.95,159.75l-0.05,0.05l-0.05,0.15v0.75l0.1,0.1v0.1l0.1,0.1
			l0.05,0.1l0.3,0.3l0.1,0.05l0.05,0.05l0.2,0.05h0.05h0.05l0.1,0.05h0.5l0.15-0.05h0.05l0.2-0.05l0.1-0.05l0.05-0.1l0.1-0.05
			l0.1-0.1l0.15-0.1l0.05-0.1v-0.1l0.1-0.1v-0.1l0.05-0.2l0.05-0.05v-0.3l-0.05-0.1v-0.15l-0.3-0.55l-0.1-0.05l-0.25-0.25h-0.2
			l-0.05-0.1l-0.15-0.05h-0.6l-0.25,0.15h-0.1l-0.1,0.1l-0.1,0.05l-0.3,0.25L277.95,159.75z M278.8,161.55l-2.35,5.05L278.8,161.55z
			 M276.45,166.6h-25.2v-19.2h54.85v19.2H276.45z M270.525,328.5l14.65,15.1l-0.225,0.2l-0.1,0.3l-0.05,0.05l-0.05,0.15v0.75
			l0.1,0.1v0.1l0.1,0.1l0.05,0.1l0.3,0.3l0.1,0.05l0.05,0.05l0.2,0.05h0.1l0.1,0.05h0.5l0.15-0.05h0.05l0.2-0.05l0.1-0.05l0.05-0.1
			l0.1-0.05l0.1-0.1l0.15-0.1l0.05-0.1v-0.1l0.1-0.1v-0.1l0.05-0.2l0.05-0.05v-0.3l-0.05-0.1v-0.15l-0.3-0.55l-0.1-0.05l-0.25-0.25
			h-0.2l-0.05-0.1l-0.15-0.05h-0.6l-0.25,0.15h-0.1l-0.1,0.1l-0.1,0.05l-0.075,0.05L270.525,328.5
			c4.289-0.455,8.647-0.755,13.075-0.9l21.65-0.9l0.05,65.5l-53.85-6.8v-8.3h-0.05l-0.1-45.35
			C257.548,330.299,263.957,329.215,270.525,328.5z"/>
		<path fill-rule="evenodd" clip-rule="evenodd" fill="none" stroke="#1A171B" stroke-width="0.2" stroke-miterlimit="6.92" d="
			M278.8,161.55l-2.35,5.05l-46.15,98.5 M285.175,343.6l0.975,1 M270.525,328.5l14.65,15.1 M230.3,287.1l40.225,41.4"/>
	</g>
	<text transform="matrix(1 0 0 1 210.1436 279.2227)" font-family="'Tahoma'" font-size="12.1353">422AL</text>
</g>
<g>
	<g>
		<path fill-rule="evenodd" clip-rule="evenodd" fill="#CCCCCC" d="M347.75,135.7c0-0.8-0.283-1.483-0.85-2.05
			c-0.566-0.533-1.25-0.8-2.05-0.8H321.2c-0.833,0-1.517,0.267-2.05,0.8c-0.6,0.567-0.9,1.25-0.9,2.05v13.5
			c0,0.8,0.3,1.483,0.9,2.05c0.533,0.567,1.217,0.85,2.05,0.85h23.65c0.8,0,1.483-0.283,2.05-0.85c0.567-0.567,0.85-1.25,0.85-2.05
			V135.7z M370,129.4c0-0.6-0.217-1.1-0.65-1.5c-0.434-0.433-0.917-0.65-1.45-0.65h-7.65c-0.6,0-1.117,0.217-1.55,0.65
			c-0.434,0.4-0.65,0.9-0.65,1.5V155c0,0.6,0.217,1.1,0.65,1.5c0.433,0.433,0.95,0.65,1.55,0.65h7.55c0.567,0,1.083-0.217,1.55-0.65
			c0.433-0.4,0.65-0.9,0.65-1.5V129.4z M371.9,166.9h-65.6v-48.1h65.6V166.9z M345.05,325.45c10.326-0.23,19.143-0.33,26.45-0.3
			l0.1,31.95h-66.3l-0.05-30.55c9.033-0.233,20.967-0.566,35.8-1C342.407,325.516,343.74,325.483,345.05,325.45l-0.375,17.35h-0.125
			l-0.1,0.1h-0.15l-0.1,0.05l-0.15,0.05H344l-0.2,0.05l-0.1,0.1l-0.1,0.25l-0.1,0.05l-0.1,0.2l-0.05,0.05l-0.1,0.15v0.75l0.1,0.15
			l0.05,0.05l0.05,0.15l0.25,0.3l0.1,0.05l0.35,0.25h0.1l0.1,0.05h0.5l0.2-0.05h0.05l0.15-0.1l0.1-0.05l0.05-0.1l0.15-0.1l0.2-0.1
			v-0.15l0.05-0.15l0.05-0.05l0.05-0.15l0.15-0.25v-0.25l-0.1-0.1v-0.15l-0.05-0.15l-0.05-0.05l-0.05-0.15l-0.05-0.1l-0.35-0.35
			l-0.1-0.05h-0.15l-0.25-0.1h-0.15l-0.05-0.1h-0.025L345.05,325.45z M447.2,643.65v-31.2c21-0.101,43.1,0.1,66.3,0.6v30.601H447.2z
			"/>
		<polygon fill-rule="evenodd" clip-rule="evenodd" points="344.675,342.8 344.65,344.2 344.675,342.8 344.7,342.8 344.75,342.9 
			344.9,342.9 345.15,343 345.3,343 345.4,343.05 345.75,343.4 345.8,343.5 345.85,343.65 345.9,343.7 345.95,343.85 345.95,344 
			346.05,344.1 346.05,344.35 345.9,344.6 345.85,344.75 345.8,344.8 345.75,344.95 345.75,345.1 345.55,345.2 345.4,345.3 
			345.35,345.4 345.25,345.45 345.1,345.55 345.05,345.55 344.85,345.6 344.35,345.6 344.25,345.55 344.15,345.55 343.8,345.3 
			343.7,345.25 343.45,344.95 343.4,344.8 343.35,344.75 343.25,344.6 343.25,343.85 343.35,343.7 343.4,343.65 343.5,343.45 
			343.6,343.4 343.7,343.15 343.8,343.05 344,343 344.05,343 344.2,342.95 344.3,342.9 344.45,342.9 344.55,342.8 		"/>
		<path fill-rule="evenodd" clip-rule="evenodd" fill="none" stroke="#1A171B" stroke-width="0.2" stroke-miterlimit="6.92" d="
			M344.675,342.8l-0.025,1.4 M345.05,325.45l-0.375,17.35 M345.95,283.45l-0.9,42"/>
	</g>
	<text transform="matrix(1 0 0 1 328.4941 280.2227)" font-family="'Tahoma'" font-size="12.1353">422CT</text>
</g>
<g>
	<g>
		<polygon fill-rule="evenodd" clip-rule="evenodd" points="346.825,386.925 347.85,386.05 346.825,386.925 346.75,386.8 
			346.65,386.75 346.6,386.55 346.45,386.35 346.45,385.85 346.5,385.7 346.6,385.65 346.65,385.45 346.7,385.35 346.85,385.2 
			346.85,385.1 347,384.95 347.15,384.95 347.2,384.85 347.3,384.8 347.45,384.75 347.55,384.75 347.7,384.7 348.05,384.7 
			348.2,384.75 348.3,384.75 348.5,384.85 348.6,384.95 348.75,384.95 348.95,385.2 349,385.3 349.05,385.35 349.1,385.45 
			349.15,385.65 349.25,385.7 349.25,386.45 349.15,386.55 349.05,386.75 349,386.8 348.9,387 348.8,387.1 348.7,387.15 
			348.6,387.25 348.45,387.3 348.35,387.35 348.3,387.4 348.1,387.45 347.65,387.45 347.35,387.35 347.25,387.3 347.2,387.25 
			346.95,387.1 346.85,387 		"/>
		<polygon fill-rule="evenodd" clip-rule="evenodd" fill="#CCCCCC" points="346.825,386.925 336.1,396.075 305.25,392.2 
			305.3,357.1 371.65,357.1 371.65,400.55 336.1,396.075 346.825,386.925 346.85,387 346.95,387.1 347.2,387.25 347.25,387.3 
			347.35,387.35 347.65,387.45 348.1,387.45 348.3,387.4 348.35,387.35 348.45,387.3 348.6,387.25 348.7,387.15 348.8,387.1 
			348.9,387 349,386.8 349.05,386.75 349.15,386.55 349.25,386.45 349.25,385.7 349.15,385.65 349.1,385.45 349.05,385.35 
			349,385.3 348.95,385.2 348.75,384.95 348.6,384.95 348.5,384.85 348.3,384.75 348.2,384.75 348.05,384.7 347.7,384.7 
			347.55,384.75 347.45,384.75 347.3,384.8 347.2,384.85 347.15,384.95 347,384.95 346.85,385.1 346.85,385.2 346.7,385.35 
			346.65,385.45 346.6,385.65 346.5,385.7 346.45,385.85 346.45,386.35 346.6,386.55 346.65,386.75 346.75,386.8 		"/>
		<path fill-rule="evenodd" clip-rule="evenodd" fill="none" stroke="#1A171B" stroke-width="0.2" stroke-miterlimit="6.92" d="
			M346.825,386.925l1.025-0.875 M336.1,396.075L278.85,445 M346.825,386.925l-10.725,9.15"/>
	</g>
	<text transform="matrix(1 0 0 1 260.8936 457.0225)" font-family="'Tahoma'" font-size="12.1353">422BL</text>
</g>
<g>
	<g>
		<path fill-rule="evenodd" clip-rule="evenodd" fill="#FFFF00" d="M313.6,403.65c-0.367-0.539-0.55-1.155-0.55-1.85
			c0-0.966,0.35-1.8,1.05-2.5c0.7-0.7,1.533-1.05,2.5-1.05c0.933,0,1.75,0.35,2.45,1.05c0.7,0.7,1.05,1.534,1.05,2.5
			c0,0.967-0.35,1.784-1.05,2.45c-0.7,0.733-1.517,1.1-2.45,1.1c-0.967,0-1.8-0.367-2.5-1.1
			C313.903,404.062,313.736,403.862,313.6,403.65z"/>
		<path fill-rule="evenodd" clip-rule="evenodd" fill="none" stroke="#2D2C2E" stroke-miterlimit="5" d="M313.6,403.65
			c-0.367-0.539-0.55-1.155-0.55-1.85c0-0.966,0.35-1.8,1.05-2.5c0.7-0.7,1.533-1.05,2.5-1.05c0.933,0,1.75,0.35,2.45,1.05
			c0.7,0.7,1.05,1.534,1.05,2.5c0,0.967-0.35,1.784-1.05,2.45c-0.7,0.733-1.517,1.1-2.45,1.1c-0.967,0-1.8-0.367-2.5-1.1
			C313.903,404.062,313.736,403.862,313.6,403.65z"/>
		
			<line fill-rule="evenodd" clip-rule="evenodd" fill="none" stroke="#000000" stroke-width="0.2" stroke-miterlimit="6.92" x1="313.6" y1="403.65" x2="246.25" y2="438.4"/>
	</g>
	<text transform="matrix(1 0 0 1 110.5498 442.0107)" font-family="'Tahoma'" font-size="11">WING INSPECTION LIGHTS</text>
</g>
<g>
	<g>
		<path fill-rule="evenodd" clip-rule="evenodd" fill="#FF0000" d="M359.825,408l0.475-1.2L359.825,408h-3.375
			c-1.133,0-1.7-0.433-1.7-1.3v-4.35c0-0.9,0.567-1.35,1.7-1.35h7.6c1.1,0,1.65,0.45,1.65,1.35v4.35c0,0.867-0.55,1.3-1.65,1.3
			H359.825z"/>
		<path fill-rule="evenodd" clip-rule="evenodd" fill="none" stroke="#000000" stroke-width="0.5" stroke-miterlimit="6.92" d="
			M359.825,408l-35.975,88.9L302.8,496.8 M359.825,408h4.225c1.1,0,1.65-0.433,1.65-1.3v-4.35c0-0.9-0.55-1.35-1.65-1.35h-7.6
			c-1.133,0-1.7,0.45-1.7,1.35v4.35c0,0.867,0.567,1.3,1.7,1.3H359.825l0.475-1.2"/>
	</g>
	<text transform="matrix(1 0 0 1 231.1558 493.2549)"><tspan x="0" y="0" font-family="'Tahoma'" font-size="14">NACELLE</tspan><tspan x="-12.445" y="17" font-family="'Tahoma'" font-size="14">DRAIN MAST</tspan></text>
	<g>
		<g>
			<path fill-rule="evenodd" clip-rule="evenodd" fill="#FF0000" d="M357.85,406.8c-0.767,0-1.15-0.283-1.15-0.85v-2.85
				c0-0.6,0.383-0.9,1.15-0.9h4.95c0.7,0,1.05,0.3,1.05,0.9v2.85c0,0.566-0.35,0.85-1.05,0.85H357.85z"/>
			<path fill-rule="evenodd" clip-rule="evenodd" fill="none" stroke="#000000" stroke-width="0.5" stroke-miterlimit="6.92" d="
				M357.85,406.8h4.95c0.7,0,1.05-0.283,1.05-0.85v-2.85c0-0.6-0.35-0.9-1.05-0.9h-4.95c-0.767,0-1.15,0.3-1.15,0.9v2.85
				C356.7,406.517,357.083,406.8,357.85,406.8z"/>
		</g>
	</g>
</g>
<g>
	<g>
		<path fill-rule="evenodd" clip-rule="evenodd" fill="#CCCCCC" d="M381.4,351.85l-1.851,3.75l-0.05-0.05h-0.1l-0.15-0.05h-0.05
			l-0.2-0.05h-0.15l-0.05,0.05h-0.149l-0.15,0.05h-0.1l-0.601,0.5l-0.1,0.25v0.05l-0.05,0.15l-0.051,0.1v0.5l0.101,0.25v0.1
			l0.1,0.15l0.05,0.1l0.101,0.05l0.3,0.3h0.1l0.2,0.1h0.2l0.05,0.05h0.15l0.1-0.05h0.3l0.101-0.05l0.05-0.05h0.2l0.399-0.45
			l0.051-0.15l0.149-0.25V357l0.05-0.15l-0.05-0.15v-0.2l-0.05-0.15v-0.05l-0.1-0.2l-0.101-0.1l-0.05-0.1h-0.1l-0.051-0.15
			l-0.3-0.15L381.4,351.85c1.419,0.103,2.853,0.169,4.3,0.2v10.05h-13.85v-11.6C374.974,351.148,378.157,351.598,381.4,351.85z"/>
		<polygon fill-rule="evenodd" clip-rule="evenodd" points="379.55,355.6 378.95,356.85 379.55,355.6 379.85,355.75 379.9,355.9 
			380,355.9 380.05,356 380.15,356.1 380.25,356.3 380.25,356.35 380.3,356.5 380.3,356.7 380.35,356.85 380.3,357 380.3,357.2 
			380.15,357.45 380.1,357.6 379.7,358.05 379.5,358.05 379.45,358.1 379.35,358.15 379.05,358.15 378.95,358.2 378.8,358.2 
			378.75,358.15 378.55,358.15 378.35,358.05 378.25,358.05 377.95,357.75 377.85,357.7 377.8,357.6 377.7,357.45 377.7,357.35 
			377.6,357.1 377.6,356.6 377.65,356.5 377.7,356.35 377.7,356.3 377.8,356.05 378.4,355.55 378.5,355.55 378.65,355.5 
			378.8,355.5 378.85,355.45 379,355.45 379.2,355.5 379.25,355.5 379.4,355.55 379.5,355.55 		"/>
		<path fill-rule="evenodd" clip-rule="evenodd" fill="none" stroke="#1A171B" stroke-width="0.2" stroke-miterlimit="6.92" d="
			M381.4,351.85L414.8,283.6 M379.55,355.6l-0.6,1.25 M381.4,351.85l-1.851,3.75"/>
	</g>
	<text transform="matrix(1 0 0 1 397.6934 280.1729)" font-family="'Tahoma'" font-size="12.1353">423DL</text>
</g>
<g>
	<g>
		<path fill-rule="evenodd" clip-rule="evenodd" fill="#CCCCCC" d="M428.675,354.7l3.825-3.35c1.211-0.123,2.444-0.256,3.7-0.4
			l-0.05,6.55l-6.25,0.05V362l-6.15-0.05v-4.4l-5.25-0.1v-5.15c4.34-0.134,9.007-0.451,14-0.95L428.675,354.7l-0.024-0.05
			l-0.101-0.15l-0.2-0.1l-0.05-0.05l-0.2-0.05l-0.1-0.05h-0.6l-0.4,0.15l-0.1,0.05l-0.301,0.3l-0.05,0.1l-0.05,0.05l-0.05,0.1
			l-0.05,0.2l-0.051,0.05l-0.05,0.15v0.4l0.101,0.2v0.1l0.05,0.15l0.1,0.1v0.1l0.15,0.1l0.1,0.05l0.15,0.2l0.1,0.05l0.2,0.05
			l0.05,0.05l0.15,0.05h0.5l0.2-0.1l0.199-0.05l0.051-0.05l0.1-0.05l0.1-0.15l0.101-0.05l0.149-0.2l0.101-0.1l0.05-0.15v-0.15
			l0.05-0.05v-0.65l-0.149-0.35l-0.2-0.15L428.675,354.7z"/>
		<polygon fill-rule="evenodd" clip-rule="evenodd" points="428.675,354.7 427.65,355.6 428.675,354.7 428.7,354.75 428.9,354.9 
			429.05,355.25 429.05,355.9 429,355.95 429,356.1 428.95,356.25 428.85,356.35 428.7,356.55 428.6,356.6 428.5,356.75 
			428.4,356.8 428.35,356.85 428.15,356.9 427.95,357 427.45,357 427.3,356.95 427.25,356.9 427.05,356.85 426.95,356.8 
			426.8,356.6 426.7,356.55 426.55,356.45 426.55,356.35 426.45,356.25 426.4,356.1 426.4,356 426.3,355.8 426.3,355.4 
			426.35,355.25 426.4,355.2 426.45,355 426.5,354.9 426.55,354.85 426.6,354.75 426.9,354.45 427,354.4 427.4,354.25 428,354.25 
			428.1,354.3 428.3,354.35 428.35,354.4 428.55,354.5 428.65,354.65 		"/>
		
			<path fill-rule="evenodd" clip-rule="evenodd" fill="none" stroke="#000000" stroke-width="0.25" stroke-linecap="round" stroke-linejoin="round" stroke-miterlimit="3" d="
			M432.5,351.35l90.5-79.5 M428.675,354.7l-1.024,0.9 M428.675,354.7l3.825-3.35"/>
	</g>
	<text transform="matrix(1 0 0 1 506.8936 269.1729)" font-family="'Tahoma'" font-size="12.1353">423BL</text>
</g>
<g>
	<g>
		<path fill-rule="evenodd" clip-rule="evenodd" fill="#CCCCCC" d="M500.8,333.1l-8.85,12.725L500.8,333.1h1V363l-20.5-2.05h-0.1
			V335.3h5.05l0.05-2.2H500.8z M491.95,345.825l-0.101-0.075l-0.1-0.1l-0.15-0.05l-0.1-0.05h-0.6l-0.25,0.1l-0.15,0.1l-0.05,0.1
			l-0.25,0.1l-0.101,0.1l-0.05,0.1L490,346.2l-0.1,0.3l-0.051,0.1v0.1l-0.05,0.15v0.25l0.101,0.25v0.1l0.1,0.1l0.15,0.35l0.1,0.1
			l0.15,0.05l0.05,0.05l0.5,0.2h0.55l0.05-0.05l0.15-0.05l0.1-0.05l0.05-0.05l0.25-0.1l0.101-0.1l0.05-0.15l0.1-0.1l0.2-0.3v-0.15
			l0.05-0.15v-0.4l-0.05-0.05l-0.05-0.15l-0.15-0.25l-0.149-0.15l-0.05-0.1l-0.101-0.05L491.95,345.825z"/>
		<polygon fill-rule="evenodd" clip-rule="evenodd" points="491.95,345.825 491.15,346.95 491.95,345.825 492.05,345.9 
			492.15,345.95 492.2,346.05 492.35,346.2 492.5,346.45 492.55,346.6 492.6,346.65 492.6,347.05 492.55,347.2 492.55,347.35 
			492.35,347.65 492.25,347.75 492.2,347.9 492.1,348 491.85,348.1 491.8,348.15 491.7,348.2 491.55,348.25 491.5,348.3 
			490.95,348.3 490.45,348.1 490.4,348.05 490.25,348 490.15,347.9 490,347.55 489.9,347.45 489.9,347.35 489.8,347.1 489.8,346.85 
			489.85,346.7 489.85,346.6 489.9,346.5 490,346.2 490.05,346.15 490.1,346.05 490.2,345.95 490.45,345.85 490.5,345.75 
			490.65,345.65 490.9,345.55 491.5,345.55 491.6,345.6 491.75,345.65 491.85,345.75 		"/>
		
			<path fill-rule="evenodd" clip-rule="evenodd" fill="none" stroke="#000000" stroke-width="0.25" stroke-linecap="round" stroke-linejoin="round" stroke-miterlimit="3" d="
			M500.8,333.1l-8.85,12.725l-0.8,1.125 M523.55,300.4l-22.75,32.7"/>
	</g>
	<text transform="matrix(1 0 0 1 508.0928 297.5234)" font-family="'Tahoma'" font-size="12.1353">424CL</text>
</g>
<g>
	<g>
		<polygon fill-rule="evenodd" clip-rule="evenodd" points="556.125,350.4 554.7,350.35 556.125,350.4 556.1,350.5 556.1,350.55 
			556,350.7 555.85,351.05 555.75,351.15 555.75,351.25 555.65,351.3 555.55,351.45 555.2,351.6 555.1,351.6 555,351.65 
			554.8,351.65 554.7,351.7 554.6,351.65 554.5,351.65 554.3,351.6 554.1,351.6 553.95,351.45 553.75,351.3 553.6,351.15 
			553.5,350.95 553.45,350.9 553.4,350.7 553.4,350.6 553.3,350.5 553.3,350.1 553.4,350 553.45,349.85 553.45,349.75 553.55,349.6 
			553.6,349.5 553.75,349.35 553.8,349.2 554.25,349 554.35,349 554.55,348.95 554.85,348.95 555.05,349 555.1,349 555.25,349.05 
			555.35,349.1 555.45,349.1 555.7,349.35 555.75,349.45 555.8,349.5 555.85,349.6 555.95,349.75 556,349.85 556.1,349.95 
			556.1,350.1 556.15,350.2 556.15,350.35 		"/>
		<path fill-rule="evenodd" clip-rule="evenodd" fill="#CCCCCC" d="M569.35,350.975l-13.225-0.575l0.025-0.05v-0.15l-0.051-0.1
			v-0.15l-0.1-0.1l-0.05-0.1l-0.101-0.15l-0.05-0.1l-0.05-0.05l-0.05-0.1l-0.25-0.25h-0.101l-0.1-0.05L555.1,349h-0.05l-0.2-0.05
			h-0.3l-0.2,0.05h-0.1l-0.45,0.2l-0.05,0.15l-0.15,0.15l-0.05,0.1l-0.1,0.15v0.1L553.4,350l-0.101,0.1v0.4l0.101,0.1v0.1l0.05,0.2
			l0.05,0.05l0.1,0.2l0.15,0.15l0.2,0.15l0.149,0.15h0.2l0.2,0.05h0.1l0.101,0.05l0.1-0.05h0.2l0.1-0.05h0.101l0.35-0.15l0.101-0.15
			l0.1-0.05v-0.1l0.1-0.1l0.15-0.35l0.1-0.15v-0.05l0.025-0.1L569.35,350.975l-0.05,0.275c0.5,3.033,2.351,5.933,5.55,8.7
			c2.534,2.167,6.517,4.716,11.95,7.65l0.351,6.45c-21.334-3.167-40.517-5.8-57.551-7.9c-0.066-0.033-0.133-0.05-0.199-0.05v-31.2
			l41.6,6.55L569.35,350.975z"/>
		<path fill-rule="evenodd" clip-rule="evenodd" fill="none" stroke="#1A171B" stroke-width="0.2" stroke-miterlimit="6.92" d="
			M556.125,350.4l-1.425-0.05 M569.35,350.975l-13.225-0.575 M569.35,350.975l35.95,1.525"/>
	</g>
	<text transform="matrix(1 0 0 1 608.0938 356.9727)" font-family="'Tahoma'" font-size="12.1353">424AL</text>
</g>
<g>
	<g>
		<polygon fill-rule="evenodd" clip-rule="evenodd" points="391.3,641.05 391.4,641 392.05,641 392.15,641.05 392.25,641.05 
			392.4,641.1 392.7,641.35 392.8,641.4 393.05,641.95 393.05,642.15 393.1,642.2 393.1,642.45 393,642.75 393,642.85 
			392.95,642.95 392.85,643.05 392.85,643.2 392.75,643.25 392.6,643.35 392.5,643.4 392.45,643.5 392.35,643.55 392.2,643.55 
			392.15,643.65 391.95,643.7 391.45,643.7 391.35,643.65 391.25,643.65 391.1,643.55 390.9,643.45 390.65,643.2 390.6,643.05 
			390.45,642.95 390.45,642.85 390.35,642.65 390.35,642.05 390.4,641.85 390.65,641.5 390.85,641.25 390.95,641.2 391.1,641.1 
			391.2,641.05 		"/>
		<path fill-rule="evenodd" clip-rule="evenodd" fill="#CCCCCC" d="M391.3,641.05h-0.1l-0.101,0.05l-0.149,0.101l-0.101,0.05
			l-0.199,0.25l-0.25,0.35l-0.051,0.2v0.601l0.101,0.199v0.101l0.149,0.1l0.051,0.15l0.25,0.25l0.199,0.1l0.15,0.101h0.1l0.101,0.05
			h0.5l0.2-0.05l0.05-0.101h0.149l0.101-0.05l0.05-0.1l0.1-0.051l0.15-0.1l0.1-0.05v-0.15l0.101-0.1l0.05-0.101v-0.1l0.1-0.3v-0.25
			l-0.05-0.05v-0.2l-0.25-0.55l-0.1-0.051l-0.3-0.25l-0.15-0.05h-0.1L392.05,641H391.4L391.3,641.05z M387.55,638.525
			c4.87,0.524,9.188,0.799,12.95,0.824l-0.05,5.2l-5.2,0.05l-0.05,4.45H389.1l0.101-4.45l-6.351-0.1v-6.55
			C384.471,638.163,386.038,638.355,387.55,638.525l3.101,2.975L387.55,638.525z"/>
		<path fill-rule="evenodd" clip-rule="evenodd" fill="none" stroke="#1A171B" stroke-width="0.2" stroke-miterlimit="6.92" d="
			M387.55,638.525l3.101,2.975 M387.55,638.525L351.5,603.95"/>
	</g>
	<text transform="matrix(1 0 0 1 333.7441 600.4727)" font-family="'Tahoma'" font-size="12.1353">423BR</text>
</g>
<g>
	<g>
		<path fill-rule="evenodd" clip-rule="evenodd" fill="#CCCCCC" d="M438.65,639.125l0.8,1.875l-0.05,0.05H439.3l-0.05,0.05
			l-0.1,0.051l-0.101,0.1l-0.149,0.2l-0.101,0.05l-0.05,0.2l-0.1,0.2v0.1l-0.051,0.2v0.05l0.051,0.15v0.1l0.05,0.15v0.149l0.3,0.25
			v0.2h0.1l0.2,0.2l0.25,0.1h0.15l0.05,0.05h0.55l0.101-0.05h0.1l0.15-0.1l0.1-0.05l0.15-0.15l0.199-0.05l0.051-0.15v-0.1l0.1-0.05
			l0.05-0.15l0.05-0.1v-0.15l0.051-0.1V642l-0.051-0.15l-0.05-0.05l-0.1-0.3l-0.05-0.05l-0.051-0.101l-0.25-0.199l-0.1-0.051
			l-0.05-0.05l-0.4-0.2h-0.5l-0.1,0.051H439.6l-0.149,0.1L438.65,639.125c3.082-0.271,5.932-0.695,8.55-1.275h0.05l0.1,11.601H433.3
			v-10C435.152,639.391,436.936,639.282,438.65,639.125z"/>
		<polygon fill-rule="evenodd" clip-rule="evenodd" points="439.45,641 440,642.25 439.45,641 439.6,640.9 439.7,640.9 
			439.8,640.85 440.3,640.85 440.7,641.05 440.75,641.1 440.85,641.15 441.1,641.35 441.15,641.45 441.2,641.5 441.3,641.8 
			441.35,641.85 441.4,642 441.4,642.4 441.35,642.5 441.35,642.65 441.3,642.75 441.25,642.9 441.15,642.95 441.15,643.05 
			441.1,643.2 440.9,643.25 440.75,643.4 440.65,643.45 440.5,643.55 440.4,643.55 440.3,643.6 439.75,643.6 439.7,643.55 
			439.55,643.55 439.3,643.45 439.1,643.25 439,643.25 439,643.05 438.7,642.8 438.7,642.65 438.65,642.5 438.65,642.4 
			438.6,642.25 438.6,642.2 438.65,642 438.65,641.9 438.75,641.7 438.8,641.5 438.9,641.45 439.05,641.25 439.15,641.15 
			439.25,641.1 439.3,641.05 439.4,641.05 		"/>
		<path fill-rule="evenodd" clip-rule="evenodd" fill="none" stroke="#1A171B" stroke-width="0.2" stroke-miterlimit="6.92" d="
			M438.65,639.125L415.3,585.2 M439.45,641l0.55,1.25 M438.65,639.125l0.8,1.875"/>
	</g>
	<text transform="matrix(1 0 0 1 397.2432 581.373)" font-family="'Tahoma'" font-size="12.1353">423DR</text>
</g>
<g>
	<g>
		<path fill-rule="evenodd" clip-rule="evenodd" fill="#CCCCCC" d="M435.95,692.95l-0.15,0.1l-0.1,0.101h-0.05l-0.25,0.199
			l-0.051,0.101l-0.05,0.05l-0.05,0.2l-0.05,0.1v0.101l-0.05,0.1v0.55l0.05,0.101l0.05,0.149l0.05,0.101v0.05l0.101,0.1l0.05,0.15
			l0.149,0.1l0.101,0.05l0.05,0.051l0.15,0.1l0.1,0.05h0.15l0.1,0.05h0.5l0.1-0.05h0.075H437l0.2-0.149l0.149-0.051l0.051-0.05
			l0.05-0.1l0.3-0.3l0.05-0.15l0.05-0.1v-0.801l-0.05-0.05l-0.05-0.149l-0.1-0.15l-0.15-0.15l-0.1-0.199h-0.15l-0.2-0.2l-0.149-0.05
			l-0.101-0.051h-0.5l-0.1,0.051H436L435.95,692.95z M437.325,696.75l-0.4-1.2L437.325,696.75h-5.075v-6.1h8.9v6.1H437.325z"/>
		<polygon fill-rule="evenodd" clip-rule="evenodd" points="435.95,692.95 436,692.9 436.2,692.9 436.3,692.85 436.8,692.85 
			436.9,692.9 437.05,692.95 437.25,693.15 437.4,693.15 437.5,693.35 437.65,693.5 437.75,693.65 437.8,693.8 437.85,693.85 
			437.85,694.65 437.8,694.75 437.75,694.9 437.45,695.2 437.4,695.3 437.35,695.35 437.2,695.4 437,695.55 436.925,695.55 
			436.85,695.55 436.75,695.6 436.25,695.6 436.15,695.55 436,695.55 435.9,695.5 435.75,695.4 435.7,695.35 435.6,695.3 
			435.45,695.2 435.4,695.05 435.3,694.95 435.3,694.9 435.25,694.8 435.2,694.65 435.15,694.55 435.15,694 435.2,693.9 
			435.2,693.8 435.25,693.7 435.3,693.5 435.35,693.45 435.4,693.35 435.65,693.15 435.7,693.15 435.8,693.05 		"/>
		<path fill-rule="evenodd" clip-rule="evenodd" fill="none" stroke="#1A171B" stroke-width="0.2" stroke-miterlimit="6.92" d="
			M437.325,696.75l-0.4-1.2 M437.325,696.75l20.475,62.5"/>
	</g>
	<text transform="matrix(1 0 0 1 441.1934 770.5723)" font-family="'Tahoma'" font-size="12.1353">425CR</text>
</g>
<g>
	<g>
		<polygon fill-rule="evenodd" clip-rule="evenodd" points="476.05,671.25 476.2,671.3 476.3,671.4 476.35,671.5 476.65,671.8 
			476.65,671.95 476.7,672 476.75,672.15 476.75,672.75 476.7,672.9 476.65,673 476.65,673.1 476.625,673.125 476.55,673.35 
			476.45,673.4 476.3,673.5 476.25,673.6 476.15,673.65 476,673.75 475.95,673.8 475.75,673.8 475.65,673.85 475.55,673.85 
			475.45,673.9 475.25,673.85 475.2,673.85 475.05,673.8 474.85,673.8 474.7,673.65 474.6,673.6 474.5,673.5 474.45,673.4 
			474.35,673.35 474.3,673.25 474.15,673.1 474.15,673 474.05,672.8 474.05,672.3 474.1,672.2 474.1,672 474.15,671.95 474.2,671.8 
			474.3,671.7 474.4,671.65 474.45,671.5 474.55,671.45 474.65,671.35 475,671.2 475.1,671.2 475.2,671.15 475.6,671.15 
			475.7,671.2 475.9,671.2 475.95,671.25 		"/>
		<path fill-rule="evenodd" clip-rule="evenodd" fill="#CCCCCC" d="M476.05,671.25h-0.1l-0.05-0.05h-0.2l-0.101-0.05H475.2
			l-0.101,0.05H475l-0.35,0.149l-0.101,0.101l-0.1,0.05l-0.05,0.15l-0.101,0.05l-0.1,0.1l-0.05,0.15L474.1,672v0.2l-0.05,0.1v0.5
			l0.101,0.2v0.1l0.149,0.15l0.05,0.1l0.101,0.051l0.05,0.1l0.1,0.1l0.101,0.051l0.149,0.149h0.2l0.15,0.05h0.05l0.2,0.051
			l0.1-0.051h0.101l0.1-0.05h0.2l0.05-0.05l0.15-0.1l0.1-0.051l0.05-0.1l0.15-0.1l0.1-0.051l0.075-0.225l0.025-0.025V673l0.05-0.1
			l0.05-0.15v-0.6L476.7,672l-0.05-0.05v-0.15l-0.301-0.3l-0.05-0.1l-0.1-0.101L476.05,671.25z M492.05,681.425l-15.425-8.3
			L492.05,681.425L447.2,687.1V643.65h66.25l0.05,35.05L492.05,681.425z"/>
		
			<path fill-rule="evenodd" clip-rule="evenodd" fill="none" stroke="#000000" stroke-width="0.25" stroke-linecap="round" stroke-linejoin="round" stroke-miterlimit="3" d="
			M492.05,681.425L533.5,703.7 M492.05,681.425l-15.425-8.3"/>
	</g>
	<text transform="matrix(1 0 0 1 517.7432 715.623)" font-family="'Tahoma'" font-size="12.1353">422BR</text>
</g>
<g>
	<g>
		<path fill-rule="evenodd" clip-rule="evenodd" fill="#CCCCCC" d="M249.525,639.925l9.475-0.5v0.125l0.1,0.2v0.15l0.05,0.149
			l0.05,0.05l0.05,0.101l0.1,0.1l0.15,0.05l0.05,0.101l0.1,0.05l0.1,0.15h0.1l0.3,0.1h0.45l0.15-0.05l0.1-0.05h0.1l0.15-0.15
			l0.1-0.05l0.25-0.25l0.05-0.101l0.15-0.05v-0.3l0.1-0.2v-0.25l-0.05-0.149v-0.101l-0.05-0.149v-0.15l-0.05-0.1l-0.15-0.051
			l-0.05-0.1l-0.1-0.15l-0.05-0.1l-0.1-0.05h-0.1l-0.15-0.101l-0.1-0.05h-0.1l-0.1-0.05h-0.4l-0.1,0.05h-0.2l-0.05,0.05l-0.15,0.101
			h-0.1l-0.1,0.05l-0.05,0.1l-0.3,0.301v0.1l-0.15,0.4v0.274L249.525,639.925c0.14-0.455,0.248-0.913,0.325-1.375l-1.65-9.8
			l20.75-3.4c8.367-1.366,15.283-2.399,20.75-3.1v31.15c-0.034,0-0.067,0-0.1,0c-17.1,2.133-36.3,4.783-57.6,7.949l0.35-6.5
			c5.433-2.966,9.4-5.517,11.9-7.649C246.986,644.858,248.745,642.434,249.525,639.925z"/>
		<polygon fill-rule="evenodd" clip-rule="evenodd" points="259,639.425 260.35,639.35 259,639.425 259,639.15 259.15,638.75 
			259.15,638.65 259.45,638.35 259.5,638.25 259.6,638.2 259.7,638.2 259.85,638.1 259.9,638.05 260.1,638.05 260.2,638 260.6,638 
			260.7,638.05 260.8,638.05 260.9,638.1 261.05,638.2 261.15,638.2 261.25,638.25 261.3,638.35 261.4,638.5 261.45,638.6 
			261.6,638.65 261.65,638.75 261.65,638.9 261.7,639.05 261.7,639.15 261.75,639.3 261.75,639.55 261.65,639.75 261.65,640.05 
			261.5,640.1 261.45,640.2 261.2,640.45 261.1,640.5 260.95,640.65 260.85,640.65 260.75,640.7 260.6,640.75 260.15,640.75 
			259.85,640.65 259.75,640.65 259.65,640.5 259.55,640.45 259.5,640.35 259.35,640.3 259.25,640.2 259.2,640.1 259.15,640.05 
			259.1,639.9 259.1,639.75 259,639.55 		"/>
		<path fill-rule="evenodd" clip-rule="evenodd" fill="none" stroke="#1A171B" stroke-width="0.2" stroke-miterlimit="6.92" d="
			M249.525,639.925L217.8,641.6 M259,639.425l1.35-0.075 M249.525,639.925l9.475-0.5"/>
	</g>
	<text transform="matrix(1 0 0 1 181.2441 644.9727)" font-family="'Tahoma'" font-size="12.1353">424AR</text>
</g>
<g>
	<g>
		<polygon fill-rule="evenodd" clip-rule="evenodd" fill="#CCCCCC" points="526.175,345.35 529.35,343.975 529.25,356.15 
			519.85,355.05 519.85,338.5 529.4,339.75 529.35,343.975 526.175,345.35 526.15,345.3 525.9,344.95 525.85,344.85 525.75,344.8 
			525.7,344.7 525.5,344.65 525.3,344.55 525.2,344.55 525,344.5 524.7,344.5 524.6,344.55 524.4,344.55 524.3,344.6 524.25,344.7 
			524.1,344.75 524,344.8 524,344.85 523.7,345.15 523.6,345.3 523.6,345.55 523.55,345.65 523.55,346 523.6,346.2 523.6,346.4 
			523.7,346.65 523.8,346.7 524,346.9 524.2,347 524.3,347.15 524.4,347.15 524.7,347.25 524.75,347.25 524.9,347.3 525,347.25 
			525.15,347.25 525.3,347.2 525.4,347.15 525.45,347.05 525.65,347 525.75,346.95 525.9,346.8 525.95,346.7 526.05,346.65 
			526.15,346.5 526.15,346.35 526.25,346.15 526.25,346 526.3,345.9 526.3,345.8 526.25,345.65 526.25,345.55 		"/>
		<polygon fill-rule="evenodd" clip-rule="evenodd" points="526.175,345.35 524.9,345.9 526.175,345.35 526.25,345.55 
			526.25,345.65 526.3,345.8 526.3,345.9 526.25,346 526.25,346.15 526.15,346.35 526.15,346.5 526.05,346.65 525.95,346.7 
			525.9,346.8 525.75,346.95 525.65,347 525.45,347.05 525.4,347.15 525.3,347.2 525.15,347.25 525,347.25 524.9,347.3 
			524.75,347.25 524.7,347.25 524.4,347.15 524.3,347.15 524.2,347 524,346.9 523.8,346.7 523.7,346.65 523.6,346.4 523.6,346.2 
			523.55,346 523.55,345.65 523.6,345.55 523.6,345.3 523.7,345.15 524,344.85 524,344.8 524.1,344.75 524.25,344.7 524.3,344.6 
			524.4,344.55 524.6,344.55 524.7,344.5 525,344.5 525.2,344.55 525.3,344.55 525.5,344.65 525.7,344.7 525.75,344.8 
			525.85,344.85 525.9,344.95 526.15,345.3 		"/>
		<path fill-rule="evenodd" clip-rule="evenodd" fill="none" stroke="#1A171B" stroke-width="0.2" stroke-miterlimit="6.92" d="
			M529.35,343.975L598.65,313.9 M526.175,345.35l-1.274,0.55 M526.175,345.35l3.175-1.375"/>
	</g>
	<text transform="matrix(1 0 0 1 600.9932 317.6729)" font-family="'Tahoma'" font-size="12.1353">424BL</text>
</g>
<g>
	<g>
		<path fill-rule="evenodd" clip-rule="evenodd" fill="#CCCCCC" d="M256.9,691.85l18.95,1v3.5l-18.95-1V691.85z M551.25,408.825
			l-9.75,0.525v-3.5l18.95-1v3.5L551.25,408.825z"/>
		
			<line fill-rule="evenodd" clip-rule="evenodd" fill="none" stroke="#1A171B" stroke-width="0.2" stroke-miterlimit="6.92" x1="235.1" y1="707.65" x2="265.05" y2="696.35"/>
		
			<line fill-rule="evenodd" clip-rule="evenodd" fill="none" stroke="#000000" stroke-width="0.2" stroke-linecap="round" stroke-linejoin="round" stroke-miterlimit="3" x1="551.25" y1="408.825" x2="560.85" y2="445.85"/>
	</g>
	<text transform="matrix(1 0 0 1 177.6934 712.3223)"><tspan x="0" y="0" font-family="'Tahoma'" font-size="12.1353">424AB</tspan><tspan x="0" y="14.342" font-family="'Tahoma'" font-size="12.1353">REFUEL/DEFUEL</tspan><tspan x="0" y="30.89" font-family="'Tahoma'" font-size="12.1353">Control Panel</tspan></text>
	<text transform="matrix(1 0 0 1 547.2432 457.9727)"><tspan x="0" y="0" font-family="'Tahoma'" font-size="12.1353">424AB</tspan><tspan x="0" y="14.342" font-family="'Tahoma'" font-size="12.1353">REFUEL/DEFUEL</tspan><tspan x="0" y="30.89" font-family="'Tahoma'" font-size="12.1353">Control Panel</tspan></text>
</g>
<g>
	<g>
		<polygon fill-rule="evenodd" clip-rule="evenodd" points="601.875,391.2 601,390.1 601.875,391.2 601.85,391.2 601.7,391.3 
			601.65,391.35 601.35,391.5 600.65,391.5 600.3,391.3 600.15,391.15 600.05,391.1 599.95,391 599.7,390.55 599.65,390.35 
			599.65,389.75 599.8,389.45 600,389.25 600.05,389.15 600.15,389.05 600.7,388.75 601.35,388.75 601.7,388.95 601.75,389 
			601.85,389.05 602.25,389.45 602.35,389.65 602.35,389.75 602.4,389.95 602.4,390.35 602.35,390.55 602.2,390.85 602.1,391 
			602.1,391.1 		"/>
		<path fill-rule="evenodd" clip-rule="evenodd" fill="#CCCCCC" d="M608.7,399.725l-6.825-8.525l0.225-0.1V391l0.101-0.15l0.149-0.3
			l0.051-0.2v-0.4l-0.051-0.2v-0.1l-0.1-0.2l-0.4-0.4l-0.1-0.05l-0.05-0.05l-0.351-0.2H600.7l-0.55,0.3l-0.101,0.1l-0.05,0.1
			l-0.2,0.2l-0.149,0.3v0.6l0.05,0.2l0.25,0.45l0.1,0.1l0.101,0.05l0.149,0.15l0.351,0.2h0.699l0.301-0.15l0.05-0.05l0.149-0.1
			h0.025L608.7,399.725c-6.312,1.619-13.378,3.21-21.2,4.775l2.65-29.9l27.25,4.55l-0.25,11.3c-0.267,4.867-2.017,7.683-5.25,8.45
			C610.858,399.179,609.792,399.454,608.7,399.725z M201.7,666.6l27.2-4.55l2.65,29.9c-9.867-2-17.983-3.867-24.35-5.601
			c-3.267-0.767-5.034-3.583-5.3-8.449L201.7,666.6z"/>
		<path fill-rule="evenodd" clip-rule="evenodd" fill="none" stroke="#1A171B" stroke-width="0.2" stroke-miterlimit="6.92" d="
			M601.875,391.2L601,390.1 M608.7,399.725l-6.825-8.525 M608.7,399.725l16.2,20.225"/>
	</g>
	<text transform="matrix(1 0 0 1 608.5938 431.9229)" font-family="'Tahoma'" font-size="12.1353">424BB</text>
</g>
<g>
	<g>
		<path fill-rule="evenodd" clip-rule="evenodd" fill="#CCCCCC" d="M435.55,667.6V659.4H427v8.199H435.55z M425.3,690.75v3.55h5.95
			v-3.55H425.3z M447.575,689.125l-3.525-3.925l0.351-0.351l0.149-0.3v-0.1l0.05-0.2v-0.35l-0.199-0.45v-0.101l-0.25-0.25
			l-0.101-0.05L443.9,682.9l-0.2-0.051l-0.05-0.1h-0.15l-0.1-0.05H443l-0.2,0.149h-0.2l-0.05,0.101l-0.1,0.05l-0.101,0.1h-0.1
			l-0.1,0.101l-0.101,0.149l-0.149,0.301l-0.051,0.149v0.75l0.051,0.101l0.1,0.1l0.05,0.1l0.101,0.101l0.149,0.2l0.101,0.1h0.1
			l0.1,0.1h0.101l0.2,0.051l0.05,0.1h0.149l0.101,0.05l0.149-0.05h0.15l0.45-0.25H444l0.05-0.05L447.575,689.125l0.024,8.725
			l-63.3-0.1v-6.95h-45.75V643.15l44.55,0.05v1.899h6.65v4.4h5.7v-4.45l5.35,0.05v-1.85l32.601-0.1l0.05,6.55l14.05,0.05
			L447.575,689.125z M432.25,690.65v6.1h8.9v-6.1H432.25z M381.4,678.3v-8.85h-5v8.85H381.4z"/>
		<polygon fill-rule="evenodd" clip-rule="evenodd" points="444.05,685.2 443.05,684.1 444.05,685.2 444,685.25 443.95,685.25 
			443.5,685.5 443.35,685.5 443.2,685.55 443.1,685.5 442.95,685.5 442.9,685.4 442.7,685.35 442.6,685.35 442.5,685.25 
			442.4,685.25 442.3,685.15 442.15,684.95 442.05,684.85 442,684.75 441.9,684.65 441.85,684.55 441.85,683.8 441.9,683.65 
			442.05,683.35 442.15,683.2 442.25,683.1 442.35,683.1 442.45,683 442.55,682.95 442.6,682.85 442.8,682.85 443,682.7 
			443.4,682.7 443.5,682.75 443.65,682.75 443.7,682.85 443.9,682.9 444.05,683.05 444.15,683.1 444.4,683.35 444.4,683.45 
			444.6,683.9 444.6,684.25 444.55,684.45 444.55,684.55 444.4,684.85 		"/>
		
			<path fill-rule="evenodd" clip-rule="evenodd" fill="none" stroke="#000000" stroke-width="0.25" stroke-linecap="round" stroke-linejoin="round" stroke-miterlimit="3" d="
			M444.05,685.2l-1-1.101 M447.575,689.125l-3.525-3.925 M447.575,689.125L488,734.2"/>
	</g>
	<text transform="matrix(1 0 0 1 471.9932 746.0723)" font-family="'Tahoma'" font-size="12.1353">425BR</text>
</g>
<g>
	<g>
		<polygon fill-rule="evenodd" clip-rule="evenodd" points="385.45,405.8 385.55,405.95 385.6,406.1 385.65,406.15 385.65,406.95 
			385.6,407.05 385.55,407.2 385.25,407.5 385.2,407.6 385.15,407.65 385,407.7 384.8,407.85 384.65,407.85 384.55,407.9 
			384.05,407.9 383.95,407.85 383.85,407.85 383.8,407.85 383.7,407.8 383.55,407.7 383.5,407.65 383.4,407.6 383.25,407.5 
			383.2,407.35 383.1,407.25 383.1,407.2 383.05,407.1 383,406.95 382.95,406.85 382.95,406.3 383,406.2 383,406.1 383.05,406 
			383.1,405.8 383.15,405.75 383.2,405.65 383.45,405.45 383.5,405.45 383.6,405.35 383.75,405.25 383.8,405.2 384,405.2 
			384.1,405.15 384.6,405.15 384.7,405.2 384.85,405.25 385.05,405.45 385.2,405.45 385.3,405.65 		"/>
		<path fill-rule="evenodd" clip-rule="evenodd" fill="#CCCCCC" d="M385.45,405.8l-0.15-0.15l-0.1-0.2h-0.15l-0.2-0.2l-0.149-0.05
			l-0.101-0.05h-0.5l-0.1,0.05h-0.2l-0.05,0.05l-0.15,0.1l-0.1,0.1h-0.05l-0.25,0.2l-0.05,0.1l-0.051,0.05l-0.05,0.2l-0.05,0.1v0.1
			l-0.05,0.1v0.55l0.05,0.1l0.05,0.15l0.05,0.1v0.05l0.101,0.1l0.05,0.15l0.15,0.1l0.1,0.05l0.05,0.05l0.15,0.1l0.1,0.05h0.05h0.101
			l0.1,0.05h0.5l0.101-0.05h0.149l0.2-0.15l0.15-0.05l0.05-0.05l0.05-0.1l0.3-0.3l0.05-0.15l0.051-0.1v-0.8l-0.051-0.05l-0.05-0.15
			L385.45,405.8z M383.525,409.4l0.324-1.55L383.525,409.4H379.9v-6.05h8.649v6.05H383.525z"/>
		<path fill-rule="evenodd" clip-rule="evenodd" fill="none" stroke="#1A171B" stroke-width="0.2" stroke-miterlimit="6.92" d="
			M383.525,409.4l0.324-1.55 M383.525,409.4l-10.375,51.3"/>
	</g>
	<text transform="matrix(1 0 0 1 356.2441 472.0225)" font-family="'Tahoma'" font-size="12.1353">425CL</text>
</g>
<g>
	<g>
		<polygon fill-rule="evenodd" clip-rule="evenodd" points="430.325,664.475 431.25,663.5 430.325,664.475 430.25,664.4 
			430.15,664.35 430.15,664.25 430,664.1 430,663.9 429.95,663.75 429.85,663.7 429.85,663.3 429.95,663.2 430.15,662.7 
			430.4,662.4 430.55,662.35 430.6,662.3 430.75,662.25 430.85,662.2 431,662.2 431.1,662.15 431.45,662.15 431.65,662.2 
			431.7,662.2 431.85,662.25 431.95,662.3 432,662.35 432.15,662.4 432.35,662.65 432.35,662.7 432.45,662.8 432.6,663.05 
			432.65,663.2 432.65,663.3 432.7,663.4 432.7,663.7 432.65,663.75 432.6,663.9 432.6,664.1 432.4,664.25 432.35,664.35 
			432.1,664.65 431.95,664.7 431.9,664.8 431.65,664.8 431.55,664.85 431.05,664.85 430.9,664.8 430.65,664.8 		"/>
		<polygon fill-rule="evenodd" clip-rule="evenodd" fill="#CCCCCC" points="427.35,667.6 430.325,664.475 430.65,664.8 430.9,664.8 
			431.05,664.85 431.55,664.85 431.65,664.8 431.9,664.8 431.95,664.7 432.1,664.65 432.35,664.35 432.4,664.25 432.6,664.1 
			432.6,663.9 432.65,663.75 432.7,663.7 432.7,663.4 432.65,663.3 432.65,663.2 432.6,663.05 432.45,662.8 432.35,662.7 
			432.35,662.65 432.15,662.4 432,662.35 431.95,662.3 431.85,662.25 431.7,662.2 431.65,662.2 431.45,662.15 431.1,662.15 
			431,662.2 430.85,662.2 430.75,662.25 430.6,662.3 430.55,662.35 430.4,662.4 430.15,662.7 429.95,663.2 429.85,663.3 
			429.85,663.7 429.95,663.75 430,663.9 430,664.1 430.15,664.25 430.15,664.35 430.25,664.4 430.325,664.475 427.35,667.6 
			427,667.6 427,659.4 435.55,659.4 435.55,667.6 		"/>
		<path fill-rule="evenodd" clip-rule="evenodd" fill="none" stroke="#1A171B" stroke-width="0.2" stroke-miterlimit="6.92" d="
			M430.325,664.475l0.925-0.975 M427.35,667.6l2.976-3.125 M349.7,749.45L427.35,667.6"/>
	</g>
	<text transform="matrix(1 0 0 1 331.8936 760.7227)" font-family="'Tahoma'" font-size="12.1353">423ER</text>
</g>
<g>
	<g>
		<polygon fill-rule="evenodd" clip-rule="evenodd" points="427.45,691.4 427.5,691.4 427.6,691.3 427.75,691.2 427.8,691.15 
			428,691.15 428.1,691.1 428.6,691.1 428.7,691.15 428.85,691.2 429.05,691.4 429.2,691.4 429.3,691.6 429.45,691.75 429.55,691.9 
			429.6,692.05 429.65,692.1 429.65,692.9 429.6,693 429.55,693.15 429.25,693.45 429.2,693.55 429.15,693.6 429,693.65 
			428.8,693.8 428.65,693.8 428.55,693.85 428.05,693.85 427.95,693.8 427.8,693.8 427.65,693.725 427.55,693.65 427.5,693.6 
			427.4,693.55 427.25,693.45 427.2,693.3 427.1,693.2 427.1,693.15 427.05,693.05 427,692.9 426.95,692.8 426.95,692.25 
			427,692.15 427,692.05 427.05,691.95 427.1,691.75 427.15,691.7 427.2,691.6 		"/>
		<path fill-rule="evenodd" clip-rule="evenodd" fill="#CCCCCC" d="M427.45,691.4l-0.25,0.199l-0.05,0.101l-0.051,0.05l-0.05,0.2
			l-0.05,0.1v0.101l-0.05,0.1v0.55L427,692.9l0.05,0.149l0.05,0.101v0.05l0.101,0.1l0.05,0.15l0.15,0.1l0.1,0.05l0.05,0.051
			l0.101,0.074l0.149,0.075h0.15l0.1,0.05h0.5l0.101-0.05h0.149l0.2-0.149l0.15-0.051l0.05-0.05l0.05-0.1l0.3-0.3l0.05-0.15
			l0.051-0.1V692.1l-0.051-0.05l-0.05-0.149l-0.1-0.15l-0.15-0.15l-0.1-0.199h-0.15l-0.2-0.2l-0.149-0.05L428.6,691.1h-0.5
			l-0.1,0.051h-0.2l-0.05,0.05l-0.15,0.1l-0.1,0.101H427.45z M427.375,694.3l0.275-0.575L427.375,694.3H425.3v-3.55h5.95v3.55
			H427.375z"/>
		
			<path fill-rule="evenodd" clip-rule="evenodd" fill="none" stroke="#000000" stroke-width="0.25" stroke-linecap="round" stroke-linejoin="round" stroke-miterlimit="3" d="
			M427.375,694.3l0.275-0.575 M427.375,694.3l-17.675,37"/>
	</g>
	<text transform="matrix(1 0 0 1 391.1436 743.5723)" font-family="'Tahoma'" font-size="12.1353">425DR</text>
</g>
<g>
	<g>
		<polygon fill-rule="evenodd" clip-rule="evenodd" points="378,675.45 379,674.45 378,675.45 377.95,675.4 377.9,675.3 
			377.75,675.1 377.7,675 377.7,674.85 377.6,674.6 377.6,674.25 377.75,673.85 377.8,673.8 377.85,673.7 377.95,673.55 
			378.05,673.45 378.25,673.35 378.3,673.3 378.45,673.2 378.6,673.15 378.7,673.15 378.8,673.1 379.2,673.1 379.35,673.15 
			379.4,673.15 379.55,673.2 379.75,673.35 379.95,673.45 380.05,673.55 380.2,673.8 380.25,673.85 380.3,674 380.35,674.1 
			380.35,674.25 380.4,674.4 380.4,674.6 380.3,674.85 380.3,675 380.25,675.1 380.1,675.25 380.1,675.3 379.9,675.5 379.8,675.55 
			379.65,675.7 379.45,675.7 379.4,675.8 379.25,675.85 378.75,675.85 378.5,675.7 378.35,675.7 378.3,675.6 		"/>
		<polygon fill-rule="evenodd" clip-rule="evenodd" fill="#CCCCCC" points="376.4,677.05 376.4,669.55 381.4,669.55 381.4,678.4 
			376.4,678.4 376.4,677.05 378,675.45 378.3,675.6 378.35,675.7 378.5,675.7 378.75,675.85 379.25,675.85 379.4,675.8 
			379.45,675.7 379.65,675.7 379.8,675.55 379.9,675.5 380.1,675.3 380.1,675.25 380.25,675.1 380.3,675 380.3,674.85 380.4,674.6 
			380.4,674.4 380.35,674.25 380.35,674.1 380.3,674 380.25,673.85 380.2,673.8 380.05,673.55 379.95,673.45 379.75,673.35 
			379.55,673.2 379.4,673.15 379.35,673.15 379.2,673.1 378.8,673.1 378.7,673.15 378.6,673.15 378.45,673.2 378.3,673.3 
			378.25,673.35 378.05,673.45 377.95,673.55 377.85,673.7 377.8,673.8 377.75,673.85 377.6,674.25 377.6,674.6 377.7,674.85 
			377.7,675 377.75,675.1 377.9,675.3 377.95,675.4 378,675.45 		"/>
		<path fill-rule="evenodd" clip-rule="evenodd" fill="none" stroke="#1A171B" stroke-width="0.2" stroke-miterlimit="6.92" d="
			M378,675.45l1-1 M376.4,677.05l1.6-1.6 M319.7,733.5l56.7-56.45"/>
	</g>
	<text transform="matrix(1 0 0 1 300.2441 745.1729)" font-family="'Tahoma'" font-size="12.1353">423CR</text>
</g>
<g>
	<g>
		<polygon fill-rule="evenodd" clip-rule="evenodd" fill="#CCCCCC" points="289.825,630.025 293.775,634.925 293.7,635 
			293.65,635.1 293.5,635.15 293.35,635.55 293.35,635.65 293.3,635.8 293.3,636.15 293.35,636.25 293.35,636.55 293.5,636.7 
			293.55,636.85 293.85,637.1 293.95,637.15 294.05,637.25 294.2,637.25 294.3,637.3 295.05,637.3 295.1,637.25 295.3,637.25 
			295.4,637.15 295.5,637.1 295.55,637 295.65,636.95 295.8,636.85 295.9,636.6 295.95,636.55 295.95,636.4 296.05,636.15 
			296.05,635.9 296,635.8 296,635.65 295.95,635.55 295.8,635.15 295.45,634.85 295.35,634.85 295.25,634.75 295.1,634.65 
			295,634.65 294.85,634.6 294.45,634.6 294.4,634.65 294.25,634.65 294.1,634.75 294,634.85 293.9,634.85 293.8,634.9 
			293.775,634.925 289.825,630.025 289.8,627 299.35,625.8 299.35,642.3 289.9,643.45 		"/>
		<polygon fill-rule="evenodd" clip-rule="evenodd" points="293.775,634.925 294.65,636 293.775,634.925 293.8,634.9 293.9,634.85 
			294,634.85 294.1,634.75 294.25,634.65 294.4,634.65 294.45,634.6 294.85,634.6 295,634.65 295.1,634.65 295.25,634.75 
			295.35,634.85 295.45,634.85 295.8,635.15 295.95,635.55 296,635.65 296,635.8 296.05,635.9 296.05,636.15 295.95,636.4 
			295.95,636.55 295.9,636.6 295.8,636.85 295.65,636.95 295.55,637 295.5,637.1 295.4,637.15 295.3,637.25 295.1,637.25 
			295.05,637.3 294.3,637.3 294.2,637.25 294.05,637.25 293.95,637.15 293.85,637.1 293.55,636.85 293.5,636.7 293.35,636.55 
			293.35,636.25 293.3,636.15 293.3,635.8 293.35,635.65 293.35,635.55 293.5,635.15 293.65,635.1 293.7,635 		"/>
		<path fill-rule="evenodd" clip-rule="evenodd" fill="none" stroke="#1A171B" stroke-width="0.2" stroke-miterlimit="6.92" d="
			M289.825,630.025L269.45,604.8 M293.775,634.925L294.65,636 M289.825,630.025l3.95,4.899"/>
	</g>
	<text transform="matrix(1 0 0 1 251.793 601.4727)" font-family="'Tahoma'" font-size="12.1353">424BR</text>
</g>
<g>
	<g>
		<polygon fill-rule="evenodd" clip-rule="evenodd" fill="#CCCCCC" points="279.025,141.75 279.4,137.7 306.15,137.7 306.15,147.4 
			251.25,147.4 251.25,137.7 279.4,137.7 279.025,141.75 278.65,141.75 278.55,141.8 278.35,141.85 278.3,142 278.1,142.1 
			278.05,142.2 277.9,142.3 277.75,142.7 277.7,142.75 277.7,143.55 277.75,143.65 277.85,143.75 278.05,144.1 278.15,144.15 
			278.25,144.25 278.6,144.4 278.7,144.4 278.8,144.45 279.3,144.45 279.4,144.4 279.55,144.4 279.8,144.3 280,144.1 280.05,144.1 
			280.25,143.8 280.3,143.75 280.35,143.65 280.35,143.45 280.4,143.4 280.4,142.85 280.35,142.75 280.35,142.55 280.25,142.45 
			280.2,142.3 280.05,142.2 280,142.1 279.95,142.05 279.8,142 279.65,141.8 279.45,141.75 		"/>
		<polygon fill-rule="evenodd" clip-rule="evenodd" points="279.025,141.75 278.9,142.95 279.025,141.75 279.45,141.75 
			279.65,141.8 279.8,142 279.95,142.05 280,142.1 280.05,142.2 280.2,142.3 280.25,142.45 280.35,142.55 280.35,142.75 
			280.4,142.85 280.4,143.4 280.35,143.45 280.35,143.65 280.3,143.75 280.25,143.8 280.05,144.1 280,144.1 279.8,144.3 
			279.55,144.4 279.4,144.4 279.3,144.45 278.8,144.45 278.7,144.4 278.6,144.4 278.25,144.25 278.15,144.15 278.05,144.1 
			277.85,143.75 277.75,143.65 277.7,143.55 277.7,142.75 277.75,142.7 277.9,142.3 278.05,142.2 278.1,142.1 278.3,142 
			278.35,141.85 278.55,141.8 278.65,141.75 		"/>
		<path fill-rule="evenodd" clip-rule="evenodd" fill="none" stroke="#1A171B" stroke-width="0.2" stroke-miterlimit="6.92" d="
			M279.4,137.7l3.65-38.65 M279.025,141.75l-0.125,1.2 M279.025,141.75l0.375-4.05"/>
	</g>
	<text transform="matrix(1 0 0 1 266.3438 95.2734)" font-family="'Tahoma'" font-size="12.1353">422BT</text>
</g>
<g>
	<g>
		<polygon fill-rule="evenodd" clip-rule="evenodd" points="340.575,145.1 339.95,143.2 340.575,145.1 340.4,145.2 340.2,145.25 
			340.15,145.3 339.6,145.3 338.95,144.95 338.85,144.85 338.8,144.75 338.7,144.7 338.55,144.4 338.55,144.35 338.5,144.2 
			338.5,143.6 338.55,143.4 338.6,143.35 338.65,143.25 338.7,143.1 338.85,143.1 338.9,142.9 339,142.85 339.1,142.75 
			339.15,142.75 339.35,142.7 339.65,142.55 340.05,142.55 340.15,142.6 340.25,142.6 340.45,142.7 340.5,142.7 340.65,142.75 
			340.75,142.8 340.8,142.9 341,143.1 341.05,143.2 341.15,143.35 341.15,143.6 341.2,143.75 341.2,144.2 341.15,144.35 
			341.15,144.4 341.1,144.5 341.05,144.7 340.95,144.75 340.8,144.95 		"/>
		<path fill-rule="evenodd" clip-rule="evenodd" fill="#CCCCCC" d="M340.575,145.1l2.3,7H321.2c-0.833,0-1.517-0.283-2.05-0.85
			c-0.6-0.567-0.9-1.25-0.9-2.05v-13.5c0-0.8,0.3-1.483,0.9-2.05c0.533-0.533,1.217-0.8,2.05-0.8h23.65c0.8,0,1.483,0.267,2.05,0.8
			c0.567,0.567,0.85,1.25,0.85,2.05v13.5c0,0.8-0.283,1.483-0.85,2.05c-0.566,0.567-1.25,0.85-2.05,0.85h-1.975L340.575,145.1
			l0.225-0.15l0.15-0.2l0.1-0.05l0.05-0.2l0.05-0.1v-0.05l0.05-0.15v-0.45l-0.05-0.15v-0.25l-0.1-0.15l-0.05-0.1l-0.2-0.2l-0.05-0.1
			l-0.1-0.05l-0.15-0.05h-0.05l-0.2-0.1h-0.1l-0.1-0.05h-0.4l-0.3,0.15l-0.2,0.05h-0.05l-0.1,0.1l-0.1,0.05l-0.05,0.2h-0.15
			l-0.05,0.15l-0.05,0.1l-0.05,0.05l-0.05,0.2v0.6l0.05,0.15v0.05l0.15,0.3l0.1,0.05l0.05,0.1l0.1,0.1l0.65,0.35h0.55l0.05-0.05
			l0.2-0.05L340.575,145.1z"/>
		<path fill-rule="evenodd" clip-rule="evenodd" fill="none" stroke="#1A171B" stroke-width="0.2" stroke-miterlimit="6.92" d="
			M340.575,145.1l-0.625-1.9 M342.875,152.1l11.025,33.55 M340.575,145.1l2.3,7"/>
	</g>
	<text transform="matrix(1 0 0 1 337.1436 197.373)" font-family="'Tahoma'" font-size="12.1353">422DT</text>
</g>
<g>
	<g>
		<path fill-rule="evenodd" clip-rule="evenodd" fill="#CCCCCC" d="M364.2,137.45l-1.4-10.2h5c0.567,0,1.083,0.217,1.55,0.65
			c0.433,0.4,0.65,0.9,0.65,1.5V155c0,0.6-0.217,1.1-0.65,1.5c-0.467,0.433-0.983,0.65-1.55,0.65h-7.55
			c-0.6,0-1.117-0.217-1.55-0.65c-0.434-0.4-0.65-0.9-0.65-1.5v-25.6c0-0.6,0.217-1.1,0.65-1.5c0.433-0.433,0.95-0.65,1.55-0.65
			h2.55L364.2,137.45h-0.25l-0.25,0.1l-0.15,0.1l-0.15,0.15l-0.15,0.05l-0.05,0.1l-0.15,0.15l-0.1,0.3l-0.05,0.05v0.65l0.05,0.15
			v0.1l0.1,0.1l0.05,0.1l0.1,0.15v0.1l0.1,0.05l0.15,0.1l0.1,0.05l0.1,0.1h0.25l0.1,0.05l0.15,0.05h0.2l0.2-0.05l0.1-0.05h0.2
			L365,140l0.1-0.05l0.15-0.15l0.05-0.15l0.1-0.1l0.2-0.3V139l0.05-0.15l-0.05-0.1v-0.3l-0.05-0.05l-0.05-0.15v-0.15l-0.15-0.1
			l-0.05-0.1l-0.1-0.05l-0.15-0.15l-0.25-0.15l-0.15-0.05l-0.1-0.05H364.2z"/>
		<polygon fill-rule="evenodd" clip-rule="evenodd" points="364.2,137.45 364.35,138.6 364.2,137.45 364.55,137.45 364.65,137.5 
			364.8,137.55 365.05,137.7 365.2,137.85 365.3,137.9 365.35,138 365.5,138.1 365.5,138.25 365.55,138.4 365.6,138.45 
			365.6,138.75 365.65,138.85 365.6,139 365.6,139.25 365.4,139.55 365.3,139.65 365.25,139.8 365.1,139.95 365,140 364.85,140.1 
			364.65,140.1 364.55,140.15 364.35,140.2 364.15,140.2 364,140.15 363.9,140.1 363.65,140.1 363.55,140 363.45,139.95 
			363.3,139.85 363.2,139.8 363.2,139.7 363.1,139.55 363.05,139.45 362.95,139.35 362.95,139.25 362.9,139.1 362.9,138.45 
			362.95,138.4 363.05,138.1 363.2,137.95 363.25,137.85 363.4,137.8 363.55,137.65 363.7,137.55 363.95,137.45 		"/>
		<path fill-rule="evenodd" clip-rule="evenodd" fill="none" stroke="#1A171B" stroke-width="0.2" stroke-miterlimit="6.92" d="
			M362.8,127.25l-5.05-36.95 M364.2,137.45l0.15,1.15 M364.2,137.45l-1.4-10.2"/>
	</g>
	<text transform="matrix(1 0 0 1 341.0938 86.0723)" font-family="'Tahoma'" font-size="12.1353">422ET</text>
</g>
<g>
	<g>
		<path fill-rule="evenodd" clip-rule="evenodd" fill="#CCCCCC" d="M478.4,403.35L473.85,392L478.4,403.35h-43.25v7H371.5l0.3-48.3
			l13.851,0.1v-6.4h32.8l0.1,1.8h5.2v4.4h6.1v-4.4h6.301v-1.8h44.75v47.6H478.4z M383.55,372v8.15h8.55V372H383.55z M473.85,392
			l0.101-0.1l0.1-0.15l0.101,0.05l0.25-0.5v-0.15l0.05-0.1v-0.4l-0.101-0.1v-0.05l-0.05-0.2v-0.15L474.15,390l-0.15-0.2l-0.45-0.25
			l-0.149-0.05l-0.101,0.05l-0.1-0.05h-0.65l-0.1,0.15h-0.101l-0.1,0.05l-0.15,0.15h-0.05l-0.3,0.5v0.1l-0.05,0.1v0.1l-0.05,0.2
			l0.05,0.1v0.1l0.05,0.3l0.1,0.05v0.15l0.15,0.15v0.1l0.1,0.05l0.101,0.1l0.45,0.25h0.1l0.2,0.05h0.1l0.101-0.05l0.199,0.05
			l0.101-0.1l0.149-0.05l0.101-0.05L473.85,392z M440.9,390.65v6.05h8.899v-6.05H440.9z M395.4,403.2h-5.95v3.55h5.95V403.2z
			 M392.55,403.5l0.101,0.05l0.149,0.05l0.2,0.2h0.15l0.1,0.2l0.15,0.15l0.1,0.15l0.05,0.15l0.05,0.05v0.15l-0.05-0.05l-0.05-0.15
			l-0.1-0.15l-0.15-0.15l-0.1-0.2H393l-0.2-0.2l-0.149-0.05l-0.101-0.05h-0.5l-0.1,0.05h-0.2l-0.05,0.05l-0.15,0.1l-0.1,0.1h-0.05
			l-0.25,0.2l-0.051,0.1l-0.05,0.05l-0.05,0.2l-0.05,0.1v0.1l-0.05,0.1v-0.15l0.05-0.1v-0.1l0.05-0.1l0.05-0.2l0.05-0.05l0.051-0.1
			l0.25-0.2h0.05l0.1-0.1l0.15-0.1l0.05-0.05h0.2l0.1-0.05H392.55z M388.65,403.35h-8.801v6.05h8.801V403.35z"/>
		<polygon fill-rule="evenodd" clip-rule="evenodd" points="473.5,391.15 473.85,392 473.7,392.05 473.6,392.1 473.45,392.15 
			473.35,392.25 473.15,392.2 473.05,392.25 472.95,392.25 472.75,392.2 472.65,392.2 472.2,391.95 472.1,391.85 472,391.8 
			472,391.7 471.85,391.55 471.85,391.4 471.75,391.35 471.7,391.05 471.7,390.95 471.65,390.85 471.7,390.65 471.7,390.55 
			471.75,390.45 471.75,390.35 472.05,389.85 472.1,389.85 472.25,389.7 472.35,389.65 472.45,389.65 472.55,389.5 473.2,389.5 
			473.3,389.55 473.4,389.5 473.55,389.55 474,389.8 474.15,390 474.3,390.15 474.3,390.3 474.35,390.5 474.35,390.55 
			474.45,390.65 474.45,391.05 474.4,391.15 474.4,391.3 474.15,391.8 474.05,391.75 473.95,391.9 473.85,392 		"/>
		<path fill-rule="evenodd" clip-rule="evenodd" fill="none" stroke="#1A171B" stroke-width="0.2" stroke-miterlimit="6.92" d="
			M478.4,403.35L473.85,392 M473.5,391.15l0.35,0.85 M478.4,403.35l28,69.9"/>
	</g>
	<text transform="matrix(1 0 0 1 490.6436 484.4229)" font-family="'Tahoma'" font-size="12.1353">425BL</text>
</g>
<g>
	<g>
		<path fill-rule="evenodd" clip-rule="evenodd" fill="#CCCCCC" d="M390,380.3l-1.9-3.05L390,380.3h-6.85v-8.2h8.55v8.2H390z
			 M388.1,377.25l0.15-0.05l0.1-0.1l0.101-0.05l0.05-0.15l0.15-0.15l0.149-0.4v-0.5l-0.05-0.15l-0.05-0.05l-0.101-0.3l-0.149-0.15
			l-0.101-0.2l-0.199-0.05L388,374.8l-0.3-0.1h-0.5l-0.101,0.05H387l-0.1,0.05l-0.15,0.1l-0.2,0.1l-0.2,0.2l-0.05,0.1l-0.05,0.05
			l-0.05,0.2l-0.101,0.1v0.1l-0.05,0.1v0.5l0.05,0.15l0.101,0.15l0.05,0.1l0.05,0.05l0.101,0.25l0.1,0.05l0.15,0.15l0.3,0.15h0.1
			l0.101,0.05h0.55l0.05-0.05h0.2L388.1,377.25z"/>
		<polygon fill-rule="evenodd" clip-rule="evenodd" points="387.4,376.1 388.1,377.25 387.95,377.4 387.75,377.4 387.7,377.45 
			387.15,377.45 387.05,377.4 386.95,377.4 386.65,377.25 386.5,377.1 386.4,377.05 386.3,376.8 386.25,376.75 386.2,376.65 
			386.1,376.5 386.05,376.35 386.05,375.85 386.1,375.75 386.1,375.65 386.2,375.55 386.25,375.35 386.3,375.3 386.35,375.2 
			386.55,375 386.75,374.9 386.9,374.8 387,374.75 387.1,374.75 387.2,374.7 387.7,374.7 388,374.8 388.15,374.95 388.35,375 
			388.45,375.2 388.6,375.35 388.7,375.65 388.75,375.7 388.8,375.85 388.8,376.35 388.65,376.75 388.5,376.9 388.45,377.05 
			388.35,377.1 388.25,377.2 388.1,377.25 		"/>
		<path fill-rule="evenodd" clip-rule="evenodd" fill="none" stroke="#1A171B" stroke-width="0.2" stroke-miterlimit="6.92" d="
			M390,380.3l-1.9-3.05 M387.4,376.1l0.699,1.15 M390,380.3l37.3,60.05"/>
	</g>
	<text transform="matrix(1 0 0 1 412.3936 452.5225)" font-family="'Tahoma'" font-size="12.1353">423EL</text>
</g>
<g>
	<g>
		<path fill-rule="evenodd" clip-rule="evenodd" fill="#CCCCCC" d="M392.775,406.75l-0.176-0.55L392.775,406.75h-3.325v-3.55h5.95
			v3.55H392.775z M392.6,406.2h0.15l0.2-0.15L393.1,406l0.051-0.05l0.05-0.1l0.3-0.3l0.05-0.15l0.05-0.1v-0.8l-0.05-0.05l-0.05-0.15
			l-0.1-0.15l-0.15-0.15l-0.1-0.2H393l-0.2-0.2l-0.149-0.05l-0.101-0.05h-0.5l-0.1,0.05h-0.2l-0.05,0.05l-0.15,0.1l-0.1,0.1h-0.05
			l-0.25,0.2l-0.051,0.1l-0.05,0.05l-0.05,0.2l-0.05,0.1v0.1l-0.05,0.1v0.55l0.05,0.1l0.05,0.15l0.05,0.1v0.05l0.101,0.1l0.05,0.15
			l0.149,0.1l0.101,0.05l0.05,0.05l0.15,0.1l0.1,0.05h0.15l0.1,0.05h0.5L392.6,406.2z"/>
		<polygon fill-rule="evenodd" clip-rule="evenodd" points="392.2,405 392.6,406.2 392.5,406.25 392,406.25 391.9,406.2 
			391.75,406.2 391.65,406.15 391.5,406.05 391.45,406 391.35,405.95 391.2,405.85 391.15,405.7 391.05,405.6 391.05,405.55 
			391,405.45 390.95,405.3 390.9,405.2 390.9,404.65 390.95,404.55 390.95,404.45 391,404.35 391.05,404.15 391.1,404.1 391.15,404 
			391.4,403.8 391.45,403.8 391.55,403.7 391.7,403.6 391.75,403.55 391.95,403.55 392.05,403.5 392.55,403.5 392.65,403.55 
			392.8,403.6 393,403.8 393.15,403.8 393.25,404 393.4,404.15 393.5,404.3 393.55,404.45 393.6,404.5 393.6,405.3 393.55,405.4 
			393.5,405.55 393.2,405.85 393.15,405.95 393.1,406 392.95,406.05 392.75,406.2 392.6,406.2 		"/>
		<path fill-rule="evenodd" clip-rule="evenodd" fill="none" stroke="#1A171B" stroke-width="0.2" stroke-miterlimit="6.92" d="
			M392.775,406.75l-0.176-0.55 M392.2,405l0.399,1.2 M392.775,406.75l20.975,63.3"/>
	</g>
	<text transform="matrix(1 0 0 1 397.9434 481.123)" font-family="'Tahoma'" font-size="12.1353">425DL</text>
</g>
<g>
	<g>
		<polygon fill-rule="evenodd" clip-rule="evenodd" points="444.25,392.8 444.55,392.5 444.65,392.45 444.8,392.4 444.9,392.35 
			445.05,392.35 445.15,392.3 445.65,392.3 445.75,392.35 445.9,392.4 446.1,392.5 446.25,392.6 446.25,392.7 446.55,392.95 
			446.6,393.05 446.65,393.25 446.65,393.3 446.7,393.45 446.7,393.95 446.65,394.05 446.65,394.2 446.6,394.35 446.25,394.65 
			446.2,394.8 445.9,394.9 445.875,394.95 445.85,395 445.7,395 445.6,395.05 445.1,395.05 445,395 444.8,395 444.75,394.95 
			444.6,394.85 444.5,394.8 444.45,394.65 444.3,394.6 444.25,394.5 444.1,394.35 444.1,394.25 444.05,394.05 444,393.95 
			444,393.45 444.05,393.35 444.05,393.25 444.1,393.15 444.1,392.95 444.2,392.9 		"/>
		<path fill-rule="evenodd" clip-rule="evenodd" fill="#CCCCCC" d="M444.25,392.8l-0.05,0.1l-0.101,0.05v0.2l-0.05,0.1v0.1
			l-0.05,0.1v0.5l0.05,0.1l0.05,0.2v0.1l0.15,0.15l0.05,0.1l0.15,0.05l0.05,0.15l0.1,0.05l0.15,0.1l0.05,0.05h0.2l0.1,0.05h0.5
			L445.7,395h0.149l0.025-0.05l0.025-0.05l0.3-0.1l0.05-0.15l0.35-0.3l0.051-0.15v-0.15l0.05-0.1v-0.5l-0.05-0.15v-0.05l-0.051-0.2
			l-0.05-0.1l-0.3-0.25v-0.1l-0.15-0.1l-0.199-0.1l-0.15-0.05l-0.1-0.05h-0.5l-0.101,0.05H444.9l-0.101,0.05l-0.149,0.05
			l-0.101,0.05L444.25,392.8z M446.9,396.65l-1.025-1.7L446.9,396.65H441v-6.05h8.75v6.05H446.9z"/>
		
			<path fill-rule="evenodd" clip-rule="evenodd" fill="none" stroke="#000000" stroke-width="0.25" stroke-linecap="round" stroke-linejoin="round" stroke-miterlimit="3" d="
			M446.9,396.65l-1.025-1.7 M446.9,396.65l14.55,24.45"/>
	</g>
	<text transform="matrix(1 0 0 1 445.4932 432.873)" font-family="'Tahoma'" font-size="12.1353">423FL</text>
</g>
<g>
	<text transform="matrix(1 0 0 1 392.0938 818.0029)" fill="#1A171B" font-family="'Tahoma-Bold'" font-size="15.4449">RH Nacelle</text>
	<text id="border" class="svg_name_heading" transform="matrix(1 0 0 1 298.0498 10.7051)"><tspan x="0" y="0" fill="#0000FF" font-family="'Tahoma-Bold'" font-size="14">RH Nacelle</tspan><tspan x="0" y="20" fill="#0000FF" font-family="'Tahoma'" font-size="13">AMM TASK 06-41-00-992-807</tspan></text>
	<g id="border">
		<g>
			
				<path fill-rule="evenodd" clip-rule="evenodd" fill="none" stroke="#000000" stroke-width="0.55" stroke-linecap="round" stroke-linejoin="round" stroke-miterlimit="3" d="
				M530.325,119.2c0.289,0.05,0.58,0.1,0.875,0.15c0.475,0.075,1.008,0.158,1.6,0.25c1.927,0.324,4.177,0.74,6.75,1.25
				c0.306,0.067,0.614,0.134,0.925,0.2l0.75,0.175l1.025,0.25V142.5h75.4 M542.25,121.475l56.55,13.175
				c2.101,0.467,4.816,1.3,8.15,2.5c3.1,1.067,5.7,2.067,7.8,3c2.1,0.967,3.083,1.6,2.95,1.9l-0.25,0.1 M526.375,118.7
				c-1.319-0.133-2.512-0.2-3.575-0.2H481.15v0.1 M539.55,164.2c-3.6,0.7-6.333,1.216-8.2,1.55c-3.034,0.521-5.692,0.804-7.975,0.85
				 M542.2,163.15l0.05-20.65 M539.55,164.2c0.87-0.189,1.754-0.389,2.65-0.6l56.6-13.1c2.434-0.6,5.15-1.433,8.15-2.5
				c3.1-1.067,5.7-2.083,7.8-3.05c2.1-0.934,3.083-1.55,2.95-1.85c0-0.033-0.084-0.1-0.25-0.2 M530.325,119.2
				c-1.406-0.21-2.723-0.377-3.95-0.5 M403.975,142.55l32.275-24.05H371.7L403.975,142.55z M360.25,127.25h7.65 M306.1,147.4v19.2
				h65.6v-48.1h-65.6v19.2h-54.85v3.95v5.75H306.1v-9.7 M371.7,166.6h64.55l-32.275-24.05L371.7,166.6z M454.6,129.4v-0.05
				c-0.033-0.5-0.25-0.917-0.649-1.25c-0.122-0.122-0.256-0.23-0.4-0.325c-0.267-0.183-0.566-0.308-0.899-0.375H442.6
				c-0.069,0.011-0.136,0.027-0.199,0.05c-0.431,0.091-0.813,0.292-1.15,0.6c-0.366,0.367-0.583,0.8-0.65,1.3v0.525v24.65
				 M442.2,156.875c0.112,0.038,0.229,0.063,0.35,0.075h9.9c0.361,0,0.687-0.075,0.975-0.225 M454.6,155v-25.6 M454.6,155v0.05
				c-0.033,0.534-0.267,0.983-0.699,1.35c-0.145,0.132-0.304,0.241-0.476,0.325 M442.2,156.875c-0.322-0.081-0.622-0.24-0.9-0.475
				c-0.399-0.367-0.633-0.833-0.7-1.4v-0.475 M436.25,118.5h44.9 M436.25,118.5v48.1h44.9v-48 M371.525,327.4l0.025-2.275l-1,0.025
				 M390.6,325.275l28.075,1.025c-5.639-0.566-11.214-0.916-16.725-1.05C397.969,325.14,394.186,325.148,390.6,325.275z
				 M371.55,325.125l19.05,0.15c-6.157,0.198-11.724,0.74-16.699,1.625l31.925,11.525l29.899-9.575
				c-5.771-1.128-11.454-1.979-17.05-2.55 M385.2,352.05l-0.3-0.1l-0.2-0.1H384l-0.25-0.05h-0.65l-0.3-0.05H382.4l-0.301-0.05
				h-0.949l-0.2-0.05h-0.3l-0.2-0.05h-0.5l-0.15-0.05l-0.3-0.05h-0.45l-0.5-0.15h-0.2l-0.25-0.05h-0.449l-0.301-0.05h-0.199
				l-0.25-0.05h-0.2l-0.45-0.1H376l-0.45-0.1h-0.5l-0.5-0.1H374.4l-1.25-0.3h-0.5l-0.8-0.1 M385.7,355.6h32.8 M419.1,352.275
				c1.742-0.058,3.534-0.158,5.375-0.3l5.051-0.35c1.028-0.089,2.07-0.189,3.125-0.3l1.75-0.175c0.612-0.085,1.212-0.169,1.8-0.25
				v0.05v4.65h44.75v-20.3v-6.125l-62.275-2.875 M385.65,362v-6.4v-3.55 M385.7,355.6h-0.05 M373.9,326.9v21.75l0.274-0.075
				l31.65-10.15 M371.55,357.1l0.025-2.25l-0.05-27.45 M371.65,362h-0.1l0.05,4.35 M371.65,362l8.825,0.025 M371.55,362v-4.9
				 M371.55,402.35l0.05-36 M374.175,348.575c8.017,1.283,17.892,2.025,29.625,2.225c6.134,0.133,12.117,0.067,17.95-0.2
				c5.531-0.293,10.348-0.693,14.45-1.2l-30.375-10.975 M483.7,329.35l0.85,0.05l1.226,0.125l14.25,1.675 M529.6,334.9l37.926,6
				l3.375,0.6v-0.075 M570.225,345.75l-0.925,5.5c0.08,0.487,0.197,0.971,0.351,1.45 M570.45,354.65
				c0.306,0.579,0.664,1.154,1.075,1.725 M571.8,356.75c0.114,0.154,0.231,0.304,0.351,0.45l4.1,3.85l7.85,5.05 M584.575,366.375
				l2.325,1l16.449,7.125l13.75,4.6 M617.4,379.2l0.05,0.025l0.05,0.025l-0.25,10.3l-0.1,0.85v0.05v1.1l-0.101,0.6l-0.149,0.5
				l-0.601,2.05l-0.85,1.8c-0.213,0.312-0.446,0.595-0.7,0.85c-0.017,0.017-0.033,0.033-0.05,0.05
				c-0.249,0.241-0.516,0.458-0.8,0.65c-0.55,0.364-1.167,0.639-1.851,0.825l-0.2,0.075l-1.774,0.45l-0.601,0.15
				c-2.033,0.517-4.142,1.033-6.324,1.55 M587.5,404.45l0.025-0.275L572.3,407.15l-12.399,1.5l-18.4,0.475l-12.1,0.325v0.05
				l-0.051,0.35 M233.45,406l-0.65-18.6 M232.85,387.025c0.034-0.096,0.076-0.188,0.125-0.275l0.175-0.35l0.25-0.1l0.15-0.2
				l0.5-0.225c0.767-0.438,1.15-1.096,1.15-1.975c0-0.733-0.309-1.358-0.925-1.875c-0.547-0.458-1.122-0.816-1.725-1.075
				c-1.023-0.256-1.782-0.439-2.275-0.55 M251.075,331.775c5.583-1.117,10.175-1.941,13.775-2.475
				c9.192-1.348,17.226-2.14,24.1-2.375c0.839-0.029,1.664-0.045,2.475-0.05c0.092-0.002,0.184-0.002,0.275,0
				c0.251-0.009,0.501-0.017,0.75-0.025l12.8-0.275 M480.95,329.175h0.149 M485.9,335.3H481h-0.05 M501.55,333.1H486.1H485.9v2.2
				 M435.725,328.85l0.476-0.15v20.7c0.101-0.021,0.2-0.037,0.3-0.05 M436.2,355.6v1.85l-1.625,0.025l-4.726-0.025v0.1V362h-6.1
				v-4.45v-0.1h-5.15v-0.8v-1.05h-0.1 M418.6,355.6v-3.3 M481.1,361.125l1.275,0.15l19.15,1.975V363 M480.95,355.6v5.5l0.149,0.025
				 M440.9,390.65v6.05h8.899v-6.05H440.9z M529.4,334.9v4.7v0.15l-0.025,8.975l0.025,7.375v1.25v8.75v0.025v0.025l1.449,0.175
				l13,1.6c3.803,0.516,7.702,1.041,11.7,1.575l24.976,3.625l6.574,1.05v-0.125l-0.074-2.15l-0.125-4.525 M584.575,366.375
				L584.4,366.3l-0.301-0.2 M519.9,338.5v-0.1l9.5,1.2 M529.375,356.1h0.025 M529.25,356.075l0.125,0.025 M528.075,366l1.325,0.15
				 M501.525,363.25l26.55,2.75 M519.9,338.5v16.4l9.35,1.175 M570.9,341.5l-0.676,4.25 M570.45,354.65l-0.3-0.5l-0.351-0.8
				l-0.149-0.65 M571.8,356.75l-0.2-0.25l-0.074-0.125 M590.15,374.625l-2.625,29.55 M587.1,374.175l3.051,0.45 M617.4,379.2
				l-0.301-0.1 M617.4,379.225h0.05 M481.15,166.6h42.225 M236.7,118.525c0.282-0.01,0.565-0.018,0.85-0.025
				c4.229-0.104,8.795-0.104,13.7,0h54.85 M228.35,118.925c2.086-0.147,4.278-0.264,6.575-0.35c0.303-0.007,0.611-0.015,0.925-0.025
				 M235.85,166.55c-0.846-0.021-1.671-0.046-2.475-0.075c-1.77-0.075-3.445-0.167-5.025-0.275 M306.1,166.6h-54.85
				c-4.883,0.083-9.35,0.083-13.4,0c-0.387-0.008-0.771-0.017-1.15-0.025 M251.25,118.5v19.2 M251.25,147.4v19.2 M289.7,622.325
				l15.95-2.275l28.825-2.975 M338.1,616.675h0.05l62.825-2.925c5.507-0.567,10.932-0.934,16.275-1.1
				c4.48-0.127,8.714-0.11,12.7,0.05l17.25-0.15 M631.2,632.125c4.146,2.151,7.363,4.543,9.649,7.175c2.5,2.8,3.667,5.55,3.5,8.25
				c-0.1,1.9-0.833,3.767-2.199,5.601c-1.344,1.802-3.21,3.418-5.601,4.85c-0.039,0.022-0.081,0.047-0.125,0.075
				c-4.256,2.363-8.497,4.255-12.725,5.675c-5.033,1.7-9.617,2.55-13.75,2.55 M588.85,667.825c-0.119,0.057-0.244,0.09-0.375,0.1
				c-0.203,0.098-0.828,0.256-1.875,0.476c-0.679,0.381-1.237,0.78-1.675,1.199l-0.024,0.025 M584.575,673
				c0.125,0.126,0.267,0.242,0.425,0.35l0.55,0.2l0.55,0.55l0.075,0.15l0.125,0.3l0.05,0.3L585.7,693.5 M289.4,697.15l-13.7-0.551
				l-18.7-0.75l-25.475-4.25l0.025,0.351 M289.7,622.325v4.825l0.1-0.025l9.45-1.275v16.45v0.101l-4.675,0.55l-4.875,0.6v9.851
				v0.199l43.875-4.574 M338.15,648.5v0.1l-4.575,0.426 M249.425,640.25c0.136-0.406,0.245-0.814,0.325-1.225
				c0.019-0.073,0.036-0.148,0.05-0.226l-0.775-5.075l-0.8-4.824 M249.8,638.8c0.02-0.086,0.037-0.169,0.05-0.25v-0.024
				 M248.9,641.55l0.4-0.8l0.125-0.5 M248.475,642.325c0.148-0.262,0.29-0.52,0.425-0.775 M246.25,645.3l0.7-0.649l1.05-1.45
				l0.475-0.875 M275.7,696.6V692.9l-18.95-1v3.5 M243.45,647.85l2.8-2.55 M269.7,656l-37.7,5.6l-3,0.45l0.45,5.55l2.075,24
				 M289.7,622.325l-41.475,6.575 M289.7,627.15v16.399 M228.9,662.075l-1.275,0.2L201.7,666.6l0.125,5.65l0.225,7.25l1.05,3.55
				l0.55,0.9l0.75,0.85l0.85,0.75c0.018,0.007,0.034,0.016,0.05,0.025l0.9,0.375l1.025,0.25l15.625,3.95l8.675,1.449
				 M234.45,653.675l2.75-1.325l5.6-3.899l0.65-0.601 M228.9,662.075l0.1-0.025 M232,661.6l0.35-6.55 M201.7,666.6l21.15-7.3
				l9.45-4.575 M289.4,697.15h0.25l0.05-6.5h48.45v-0.101 M338.4,643.05h-0.25v-26.375 M541.5,409.125V405.6l18.95-1v3.5
				 M480.95,361.1v42.25h48.399l0.025,3.825l0.025,2.275h-0.051 M480.95,403.35h-45.8 M388.65,403.35h-8.801v6.05h8.801V403.35z
				 M371.55,410.275v-7.925 M429.95,612.7l-28.976,1.05c-5.542,0.562-11.167,1.329-16.875,2.3l-0.949,0.175l30.074,9.601
				L445.2,614.3C440.515,613.462,435.432,612.929,429.95,612.7z M430.975,643.025l2.275,0.024h0.05 M413.225,625.825l31.926,10.225
				h0.05V614.3 M413.225,625.825l-30.074,10.85c8.767,1.283,19.483,1.809,32.149,1.575c11.577-0.166,21.527-0.899,29.851-2.2
				 M567.7,672.075l-3.25,0.375 M567.825,658.775l0.05-38.075l-0.025-2.3 M455.95,675.7h11v-5.5h-11V675.7z M382.95,616.15v0.1
				l0.2-0.025L382.95,616.15z M400.6,641.8v-2.1c-0.688-0.023-1.363-0.049-2.024-0.075l-1.2-0.05
				c-0.719-0.036-1.452-0.078-2.2-0.125l-3.325-0.226c-3.25-0.205-6.217-0.48-8.899-0.824v4.649l-42.2-0.024 M383.15,636.675
				l-0.2,0.075v-20.5 M400.575,643.05h0.024v-1.25 M400.6,643.05l2.351,0.025l28.024-0.05 M400.6,644.95v-1.9 M338.4,643.05
				l2.35-0.024 M338.4,690.65h-0.25 M395.3,649.35l-3.8,0.025l-2.3,0.025v-0.051v-4.399 M395.35,644.95h2.625 M381.4,678.3v-8.85h-5
				v8.85H381.4z M588.9,667.8l-0.051,0.025 M567.825,658.775l0.024,5.725L567.7,672v0.05 M584.575,673
				c-0.45-0.453-0.675-1.02-0.675-1.7c0-0.8,0.341-1.366,1.024-1.7 M518.175,678.2l-4.325,0.5"/>
			<path fill-rule="evenodd" clip-rule="evenodd" fill="none" stroke="#1A171B" stroke-width="0.5" stroke-miterlimit="6.92" d="
				M532.8,119.6c-0.85-0.15-1.675-0.283-2.475-0.4 M541.225,121.225c0.344,0.075,0.686,0.149,1.025,0.225v0.025 M481.15,118.6h44
				c0.399,0.034,0.808,0.068,1.225,0.1 M523.375,166.6h1.775c4.296-0.43,9.096-1.229,14.399-2.4 M542.2,163.6v-0.45 M367.9,127.25
				c0.533,0,1.017,0.217,1.45,0.65c0.433,0.4,0.65,0.9,0.65,1.5V155c0,0.6-0.217,1.1-0.65,1.5c-0.467,0.433-0.983,0.65-1.55,0.65
				h-7.55c-0.6,0-1.117-0.217-1.55-0.65c-0.434-0.4-0.65-0.9-0.65-1.5v-25.6c0-0.6,0.217-1.1,0.65-1.5
				c0.433-0.433,0.95-0.65,1.55-0.65 M347.75,135.7v13.5c0,0.8-0.283,1.483-0.85,2.05c-0.566,0.567-1.25,0.85-2.05,0.85H321.2
				c-0.833,0-1.517-0.283-2.05-0.85c-0.6-0.567-0.9-1.25-0.9-2.05v-13.5c0-0.8,0.3-1.483,0.9-2.05c0.533-0.533,1.217-0.8,2.05-0.8
				h23.65c0.8,0,1.483,0.267,2.05,0.8C347.467,134.217,347.75,134.9,347.75,135.7z M306.1,137.7h0.05v9.7h-0.05 M453.55,127.775
				c0.128,0.096,0.244,0.204,0.351,0.325c0.371,0.371,0.604,0.804,0.699,1.3c0.034,0.178,0.051,0.361,0.051,0.55v24.5
				c0,0.189-0.017,0.372-0.051,0.55 M442.4,127.45c0.261-0.1,0.545-0.15,0.85-0.15h8.85c0.567,0,1.051,0.159,1.45,0.475
				 M442.4,127.45c-0.375,0.122-0.708,0.338-1,0.65c-0.516,0.483-0.782,1.075-0.801,1.775 M440.6,154.525
				c0.017,0.7,0.284,1.309,0.801,1.825c0.247,0.231,0.514,0.407,0.8,0.525 M453.425,156.725c0.17-0.104,0.328-0.229,0.476-0.375
				c0.371-0.396,0.604-0.846,0.699-1.35 M453.425,156.725c-0.389,0.25-0.83,0.375-1.325,0.375h-8.85
				c-0.376,0-0.726-0.075-1.05-0.225 M370.55,325.15c0.317-0.001,0.634-0.001,0.95,0l0.025,2.25 M371.85,350.5
				c4.341,0.9,8.792,1.417,13.35,1.55c0.149-0.003,0.3-0.003,0.45,0h0.05v3.55 M418.5,355.6v-3.3c0.033-0.001,0.066-0.001,0.1,0
				c0.168-0.005,0.335-0.014,0.5-0.025 M371.55,357.1h0.05l-0.025-2.25 M371.65,362c0-0.383,0-0.767,0-1.15v-3.75h-0.05
				 M371.6,366.35l0.05-4.35 M380.475,362.025L385.65,362 M371.55,357.1H305.3l-0.05,35.1l66.25,8.35l0.05,1.8 M371.65,360.85
				l0.2-10.35 M370.55,325.15c-8.062-0.022-17.896,0.112-29.5,0.4c-14.833,0.434-26.767,0.767-35.8,1v0.025l0.05,30.525
				 M481.1,329.175l2.601,0.175 M484.55,329.4h0.2l1.025,0.125 M500.025,331.2l29.574,3.7v0.05l-0.199-0.05 M567.525,340.9
				l3.375,0.525l0.1,0.025l-0.775,4.3 M569.65,352.7c0.203,0.655,0.47,1.305,0.8,1.95 M571.525,356.375
				c0.088,0.126,0.18,0.251,0.274,0.375 M584.1,366.1c0.155,0.092,0.313,0.184,0.476,0.275 M617.1,379.1l0.301,0.05v0.05
				 M616.9,392.65c-0.276,1.569-0.76,2.852-1.45,3.85 M603.15,401.1c-4.831,1.146-10.048,2.279-15.65,3.4v-0.05 M529.35,409.85v0.1
				H435.15l-63.601,0.325l-70-0.075 M301.2,410.35h-31.3c-11.467,0.1-19.8-0.067-25-0.5c-7.3-0.633-11.117-1.867-11.45-3.7V406
				 M232.8,387.4v-0.15c0.013-0.078,0.03-0.153,0.05-0.225 M235.2,383.9c-0.012-0.164-0.046-0.331-0.1-0.5
				c-0.333-0.867-1.184-1.683-2.55-2.45 M230.275,380.4c-0.206-0.046-0.364-0.08-0.475-0.1c-0.5-0.133-1.183-0.216-2.05-0.25
				l-0.1-9.6l-0.1,9.6c-16.733-0.3-29.9-2.483-39.5-6.55c-9.4-4.933-13.85-9.9-13.35-14.9c0.466-4.5,4.95-9.184,13.45-14.05
				c11.333-4.3,24.417-7.417,39.25-9.35V335l23.675-3.225l0.225-0.025v36.85l0.1,8.5 M481,335.3v25.65h0.1l20.426,2.05h0.074v-29.9
				h-0.05 M486.1,333.1l-0.05,2.2H485.9 M434.575,357.475l-4.726,0.075 M423.75,357.55l-5.15-0.1 M418.6,356.65l-0.1-1.05
				 M434.4,351.15c0.601-0.064,1.2-0.131,1.8-0.2 M481.1,361.125v0.025l1.275,0.125 M481.1,361.125v-0.175 M529.4,366.1
				c0.066,0,0.133,0.017,0.199,0.05c0.413,0.051,0.829,0.109,1.25,0.175 M580.525,373.125c2.174,0.288,4.366,0.597,6.574,0.925
				h0.051l-0.125-2.15l-0.226-4.3c-0.769-0.416-1.511-0.824-2.225-1.225 M584.1,366.1c-4.073-2.31-7.156-4.36-9.25-6.15
				c-1.043-0.902-1.943-1.819-2.699-2.75 M529.25,356.075v0.075l-9.4-1.1V338.5h0.051l9.5,1.25 M529.375,348.725L529.35,350
				l0.025,6.1l0.025,1.25 M529.35,350l-0.1,6.075 M529.4,366.125l0.199,0.025 M528.075,366l1.325,0.125 M617.1,379.1l-26.949-4.5
				v0.025 M617.15,390.4l0.25-11.175V379.2 M616.9,392.65c0.123-0.683,0.207-1.416,0.25-2.2 M235.85,118.55
				c0.282-0.008,0.565-0.017,0.85-0.025 M226.4,124.95c-0.467,9.433-0.467,19.833,0,31.2v9.7c-16.8-0.833-29.933-3.55-39.4-8.15
				c-9.467-5.434-13.917-10.767-13.35-16c0.434-4.667,4.9-9.383,13.4-14.15c11.133-4.066,24.25-6.917,39.35-8.55V124.95
				c0.1-2,0.217-3.967,0.35-5.9c0.529-0.043,1.062-0.084,1.6-0.125 M228.35,166.2c-0.491-0.03-0.975-0.063-1.45-0.1 M236.7,166.575
				c-0.286-0.007-0.569-0.016-0.85-0.025 M226.4,141.65h24.85 M232.975,386.75c0.222-0.346,0.613-0.613,1.175-0.8
				c0.764-0.627,1.114-1.311,1.05-2.05 M305.25,392.2l-53.8-6.8v-8.3h-0.05h-0.2h-16.55l-2.1,3.85 M227.65,370.45l-0.25-35.25
				 M251.3,368.6l-0.1,8.5 M248.225,628.9l-0.025-0.15l20.75-3.4c8.367-1.366,15.283-2.399,20.75-3.1v0.075 M334.475,617.075
				l3.625-0.4 M447.2,612.55v-0.1c0.1-0.001,0.199-0.001,0.3,0c12.425-0.061,34.541,0.272,66.35,1v-0.101l1.551,0.051l20.149,0.8
				c11.016,0.366,21.783,1.766,32.3,4.2c0.017-0.004,0.034-0.004,0.051,0v0.149l23.899,4.2l0.05,5.6l0.051-5.75
				c14.625,2.016,27.459,5.058,38.5,9.125c0.272,0.136,0.539,0.27,0.8,0.4 M591.8,667.675v0.025c-0.116,0.002-0.232,0.002-0.35,0
				 M584.9,669.625c-0.404,0.393-0.688,0.801-0.851,1.225c-0.249,0.775-0.074,1.491,0.525,2.15 M586.175,674.25
				c0.087,0.141,0.146,0.29,0.175,0.45v0.149 M585.7,693.5v0.15c-0.334,1.833-4.134,3.05-11.4,3.649
				c-5.166,0.434-13.517,0.601-25.05,0.5l-101.8-0.1l-63.3-0.101v-6.949h-0.601v6.899H289.4v-0.399 M289.8,627.125V627l9.55-1.2
				v16.5h-0.1l-4.675,0.65 M333.575,649.025l4.575-0.525 M249.85,638.525l-0.825-4.801 M249.425,640.25
				c-0.148,0.438-0.324,0.871-0.525,1.3 M248.475,642.325c-0.581,1.005-1.322,1.996-2.225,2.975 M243.45,647.85
				c0.281-0.218,0.548-0.435,0.8-0.649c0.734-0.628,1.4-1.262,2-1.9 M289.7,653.4c-0.034,0-0.067,0-0.1,0v0.199h0.1 M289.6,653.4
				c-6.345,0.791-12.978,1.658-19.9,2.6 M205.25,685.55c-1.726-1.114-2.792-3.131-3.2-6.05c-0.069-0.506-0.119-1.039-0.15-1.6
				l-0.075-5.65 M243.45,647.85c-2.139,1.701-5.139,3.643-9,5.825 M228.9,662.075l0.55,5.524 M227.625,662.275l1.275-0.226v0.025
				 M232.3,654.725l2.15-1.05 M207.225,686.2c-0.718-0.064-1.359-0.273-1.925-0.625 M338.15,690.55h0.25v-47.5 M289.4,690.55v6.601
				 M610.075,399.4c0.61-0.171,1.219-0.338,1.825-0.5c0.05-0.012,0.1-0.02,0.149-0.025 M529.35,409.85v-0.4l0.025-2.275
				 M435.15,403.35v6.6 M433.3,643.05v-3.6c0.051-0.002,0.101-0.002,0.15,0c0.084-0.003,0.168-0.003,0.25,0
				c2.066-0.066,4.033-0.2,5.899-0.4c0.301-0.033,0.601-0.066,0.9-0.1c1.733-0.2,3.384-0.45,4.95-0.75
				c0.252-0.05,0.502-0.1,0.75-0.15c0.157-0.032,0.315-0.065,0.475-0.1 M447.2,612.55v25.3h0.05l0.05,5.801h66.2 M433.25,643.05V643
				l-2.275,0.025 M435.55,667.6V659.4H427v8.199H435.55z M425.3,690.75v3.55h5.95v-3.55H425.3z M432.25,690.65v6.1h8.9v-6.1H432.25z
				 M447.3,643.65l0.025,5.949l0.1,40.2l0.275-2.6l120-15.05v-0.075 M564.45,672.45l3.25-0.45v-7.5h0.05l0.075-5.725 M447.325,649.6
				l-14.025-0.05l-0.05-6.5 M382.95,643.05v1.75l6.35,0.101v0.05h0.3 M382.95,638.4v-0.15c3.169,0.417,6.136,0.742,8.899,0.975
				 M398.575,639.625c0.688,0.012,1.363,0.021,2.024,0.025v0.05 M400.6,641.8l-0.024,1.25l-0.025,1.8l-5.2,0.051 M402.95,643.075
				l-2.3,0.024v1.851H400.6 M340.75,643.025L338.4,643v0.05 M338.4,690.55v0.101h45.15 M395.35,644.95v-0.05h-0.05v4.449
				 M389.2,644.95h0.1 M397.975,644.95l-2.625-0.05 M389.2,649.35l0.1-4.399 M391.5,649.375l-2.3-0.025 M447.425,689.8l0.025,7.9
				 M567.9,618.55l-0.025,2.15 M588.475,667.925c0.087-0.032,0.111-0.057,0.075-0.075c0-0.021,0.117-0.038,0.351-0.05
				c0.431-0.04,1.28-0.074,2.55-0.1 M591.8,667.675l0.05-39.325 M567.85,664.5l15.551-0.05l3.199,3.95 M567.85,664.5h-0.1
				 M586.175,674.25c-0.223-0.333-0.614-0.616-1.175-0.85c-0.159-0.131-0.301-0.264-0.425-0.4 M567.7,672.05v0.025 M513.85,613.45
				c0.5,0,1.017-0.017,1.551-0.05 M518.175,678.2l-4.325,0.6v-0.1v-65.25"/>
			
				<path fill-rule="evenodd" clip-rule="evenodd" fill="none" stroke="#000000" stroke-width="0.25" stroke-linecap="round" stroke-linejoin="round" stroke-miterlimit="3" d="
				M529.4,391.65v-5.7 M529.4,382.35v-5.7 M529.4,373.05v-2.85 M289.65,659.7v-3.2 M289.65,680.3V674 M289.65,687.45v-3.2
				 M289.65,670.05v-6.35 M529.4,398.1v-2.85"/>
			
				<line fill-rule="evenodd" clip-rule="evenodd" fill="none" stroke="#000000" stroke-width="0.2" stroke-miterlimit="6.92" x1="301.55" y1="410.2" x2="301.2" y2="410.35"/>
			<path fill-rule="evenodd" clip-rule="evenodd" fill="none" stroke="#1A171B" stroke-width="0.55" stroke-miterlimit="6.92" d="
				M609.95,666.3l-18.15,1.375 M591.45,667.7l-2.601,0.125 M591.45,667.7l0.35-0.025"/>
		</g>
	</g>
</g>
<rect x="383.55" y="372" fill-rule="evenodd" clip-rule="evenodd" fill="none" stroke="#000000" stroke-width="0.55" stroke-linecap="round" stroke-linejoin="round" stroke-miterlimit="3" width="8.55" height="8.15"/>
<rect x="389.273" y="403.058" fill-rule="evenodd" clip-rule="evenodd" fill="none" stroke="#000000" stroke-width="0.55" stroke-linecap="round" stroke-linejoin="round" stroke-miterlimit="3" width="5.951" height="3.58"/>
</svg>
