<?xml version="1.0" encoding="utf-8"?>
<!-- Generator: Adobe Illustrator 16.2.1, SVG Export Plug-In . SVG Version: 6.00 Build 0)  -->
<!DOCTYPE svg PUBLIC "-//W3C//DTD SVG 1.1//EN" "http://www.w3.org/Graphics/SVG/1.1/DTD/svg11.dtd">
<svg version="1.1" id="Selected_Items" xmlns="http://www.w3.org/2000/svg" xmlns:xlink="http://www.w3.org/1999/xlink" x="0px"
	 y="0px" width="1291.05px" height="941.6px" viewBox="0 0 1291.05 941.6" enable-background="new 0 0 1291.05 941.6"
	 xml:space="preserve">
<g>
	<rect x="16.35" y="19.65" fill-rule="evenodd" clip-rule="evenodd" fill="#FFFFFF" width="360.4" height="395.8"/>
</g>
<g>
	<g>
		<g>
			<rect x="16.45" y="19.6" fill-rule="evenodd" clip-rule="evenodd" fill="#0099FF" width="360.2" height="26.4"/>
		</g>
		<g>
			<path fill-rule="evenodd" clip-rule="evenodd" fill="none" stroke="#999999" stroke-miterlimit="6.92" d="M376.75,45.95v370.5
				H16.35V45.95v-26.2h360.4V45.95z M16.35,45.95h360.4"/>
		</g>
	</g>
</g>
<text transform="matrix(1 0 0 1 24.5498 37.3052)" fill="#FFFFFF" font-family="'Tahoma-Bold'" font-size="14">RELAY JUNCTION BOX #1</text>
<g>
	<polygon fill-rule="evenodd" clip-rule="evenodd" fill="#B1B1B1" points="50.5,118.5 50.5,119.8 48.4,119.8 48.4,158.65 
		50.5,158.65 50.5,411 44.15,411 44.15,118.5 	"/>
</g>
<text transform="matrix(1 0 0 1 206.1001 180.0552)" font-family="'Tahoma'" font-size="14">RELAY JUNCTION BOX #1</text>
<g>
	<g>
		<g>
			<polygon fill-rule="evenodd" clip-rule="evenodd" fill="#00A0C6" points="167.85,119.1 167.3,410.8 124.55,410.8 124.55,119.1 
							"/>
		</g>
		<g>
			<rect x="126.35" y="216.75" fill-rule="evenodd" clip-rule="evenodd" fill="#FFFFFF" width="39.4" height="76.35"/>
		</g>
		<g>
			<rect x="126.35" y="295.5" fill-rule="evenodd" clip-rule="evenodd" fill="#FFFFFF" width="39.4" height="104.9"/>
		</g>
		<g>
			<rect x="126.35" y="402.25" fill-rule="evenodd" clip-rule="evenodd" fill="#FFFFFF" width="39.4" height="8.55"/>
		</g>
		<g>
			<rect x="126.35" y="161.2" fill-rule="evenodd" clip-rule="evenodd" fill="#FFFFFF" width="39.4" height="53.55"/>
		</g>
		<g>
			<rect x="126.35" y="119.15" fill-rule="evenodd" clip-rule="evenodd" fill="#FFFFFF" width="39.4" height="40.05"/>
		</g>
	</g>
	<text transform="matrix(1 0 0 1 70.437 67.9697)"><tspan x="0" y="0" font-family="'Tahoma'" font-size="15">SEAT</tspan><tspan x="-1.805" y="16" font-family="'Tahoma'" font-size="15">ROW </tspan></text>
	<g>
		<g>
			<polygon fill-rule="evenodd" clip-rule="evenodd" fill="#0099FF" points="100.65,102 86.65,116 72.7,102.05 85.85,102.3 			"/>
		</g>
		<g>
			<rect x="80" y="91.5" fill-rule="evenodd" clip-rule="evenodd" fill="#0099FF" width="13.5" height="13.55"/>
		</g>
	</g>
	<g>
		<g>
			<polygon fill-rule="evenodd" clip-rule="evenodd" fill="#0099FF" points="145.8,102.3 160.6,102 146.6,116 132.65,102.05 			"/>
		</g>
		<g>
			<rect x="139.9" y="91.5" fill-rule="evenodd" clip-rule="evenodd" fill="#0099FF" width="13.5" height="13.55"/>
		</g>
	</g>
	<text transform="matrix(1 0 0 1 123.8398 67.9697)"><tspan x="0" y="0" font-family="'Tahoma'" font-size="15">FLOOR</tspan><tspan x="1.333" y="16" font-family="'Tahoma'" font-size="15">PANEL</tspan></text>
	<g>
		<g>
			<g>
				<path fill-rule="evenodd" clip-rule="evenodd" fill="#999999" d="M120.25,255.3h3.7v27.9h-3.7V255.3z M90.15,280.7H85.8v-20.55
					h4.35V280.7z M55.85,280.4c0,0.267,0,0.483,0,0.65H52.3v-20h3.55V280.4z"/>
				<g>
					<path fill-rule="evenodd" clip-rule="evenodd" fill="#E6E6E6" d="M90.15,260.15H85.8v26.5l-0.45,1.9l-2.1,3.3l-1.6,1.4H59.8
						l-0.15-0.1l-2.55-2.95l-0.8-1.65l-0.45-1.9v-5.6c0-0.167,0-0.383,0-0.65v-28h64.4v34.25l-0.5,1.9l-2.05,3.3l-1.45,1.3
						l-0.15,0.1H94.25l-1.55-1.4l-1.3-1.65l-0.85-1.65l-0.4-1.9V260.15z"/>
				</g>
				<g>
					<g>
						<path fill-rule="evenodd" clip-rule="evenodd" fill="none" stroke="#B1B1B1" stroke-width="0.5" stroke-miterlimit="5" d="
							M120.25,255.3h3.7v27.9h-3.7v3.45l-0.5,1.9l-2.05,3.3l-1.45,1.3l-0.15,0.1H94.25l-1.55-1.4l-1.3-1.65l-0.85-1.65l-0.4-1.9
							v-5.95H85.8v5.95l-0.45,1.9l-2.1,3.3l-1.6,1.4H59.8l-0.15-0.1l-2.55-2.95l-0.8-1.65l-0.45-1.9v-5.6H52.3v-20h3.55v-8.65H87.9
							h32.35V255.3z M55.85,261.05v19.35c0,0.267,0,0.483,0,0.65c0.533,1.967,1.85,3.483,3.95,4.55h21.85
							c2.567-1.167,3.95-3.017,4.15-5.55v-19.9h2.1v-7.75 M90.15,280.7v-0.8v-19.75H87.9 M85.8,280.05v0.65 M81.65,293.25v-7.65
							 M116.25,293.15v-7.55h-0.15l-21.9,0.1c0,0.033,0.017,0.05,0.05,0.05v7.5 M94.2,285.7c-2.5-1.534-3.85-3.467-4.05-5.8
							 M120.25,283.2v-3.45c-0.1,0.967-0.417,1.95-0.95,2.95c-0.767,1.333-1.833,2.3-3.2,2.9 M120.25,279.75V255.3 M59.8,285.6
							h-0.15v7.55"/>
						<g>
							<path fill-rule="evenodd" clip-rule="evenodd" fill="none" stroke="#B1B1B1" stroke-width="0.5" stroke-miterlimit="5" d="
								M119.9,280.05c-10.033,0.767-19.933,0.767-29.7,0"/>
						</g>
						<g>
							<path fill-rule="evenodd" clip-rule="evenodd" fill="none" stroke="#B1B1B1" stroke-width="0.5" stroke-miterlimit="5" d="
								M85.7,280.05c-10.034,0.767-19.934,0.767-29.7,0"/>
						</g>
					</g>
				</g>
			</g>
			<g>
				<path fill-rule="evenodd" clip-rule="evenodd" fill="#999999" d="M123.65,230.5h-3.7v-27.9h3.7V230.5z M89.85,228H85.5v-20.55
					h4.35V228z M55.55,227.7c0,0.267,0,0.483,0,0.65H52v-20h3.55V227.7z"/>
				<g>
					<path fill-rule="evenodd" clip-rule="evenodd" fill="#E6E6E6" d="M89.85,207.45H85.5v26.5l-0.45,1.9l-2.1,3.3l-1.6,1.4H59.5
						l-0.15-0.1l-2.55-2.95l-0.8-1.65l-0.45-1.9v-5.6c0-0.167,0-0.383,0-0.65v-28h64.4v34.25l-0.5,1.9l-2.05,3.3l-1.45,1.3
						l-0.15,0.1H93.95l-1.55-1.4l-1.3-1.65l-0.85-1.65l-0.4-1.9V207.45z"/>
				</g>
				<g>
					<g>
						<path fill-rule="evenodd" clip-rule="evenodd" fill="none" stroke="#B1B1B1" stroke-width="0.5" stroke-miterlimit="5" d="
							M123.65,230.5h-3.7v3.45l-0.5,1.9l-2.05,3.3l-1.45,1.3l-0.15,0.1H93.95l-1.55-1.4l-1.3-1.65l-0.85-1.65l-0.4-1.9V228H85.5
							v5.95l-0.45,1.9l-2.1,3.3l-1.6,1.4H59.5l-0.15-0.1l-2.55-2.95l-0.8-1.65l-0.45-1.9v-5.6H52v-20h3.55v-8.65H87.6h32.35v2.9h3.7
							V230.5z M89.85,228v-0.8v-19.75H87.6h-2.1v19.9V228 M87.6,207.45v-7.75 M93.95,240.55v-7.5c-0.034,0-0.05-0.017-0.05-0.05
							c-2.5-1.533-3.85-3.467-4.05-5.8 M55.55,208.35v19.35c0,0.267,0,0.483,0,0.65c0.534,1.967,1.85,3.483,3.95,4.55h21.85
							c2.566-1.167,3.95-3.017,4.15-5.55 M81.35,240.55v-7.65 M119.95,230.5v-3.45c-0.1,0.967-0.417,1.95-0.95,2.95
							c-0.767,1.333-1.833,2.3-3.2,2.9h0.15v7.55 M119.95,227.05V202.6 M115.8,232.9L93.9,233 M59.5,232.9h-0.15v7.55"/>
						<g>
							<path fill-rule="evenodd" clip-rule="evenodd" fill="none" stroke="#B1B1B1" stroke-width="0.5" stroke-miterlimit="5" d="
								M119.6,227.35c-10.033,0.767-19.934,0.767-29.7,0"/>
						</g>
						<g>
							<path fill-rule="evenodd" clip-rule="evenodd" fill="none" stroke="#B1B1B1" stroke-width="0.5" stroke-miterlimit="5" d="
								M85.4,227.35c-10.033,0.767-19.933,0.767-29.7,0"/>
						</g>
					</g>
				</g>
			</g>
			<g>
				<path fill-rule="evenodd" clip-rule="evenodd" fill="#999999" d="M55.55,335.6H52v-20h3.55v19.35
					C55.55,335.217,55.55,335.433,55.55,335.6z M123.65,337.75h-3.7v-27.9h3.7V337.75z M85.5,314.7h4.35v20.55H85.5V314.7z"/>
				<g>
					<path fill-rule="evenodd" clip-rule="evenodd" fill="#E6E6E6" d="M55.55,335.6c0-0.167,0-0.383,0-0.65v-28h64.4v34.25l-0.5,1.9
						l-2.05,3.3l-1.45,1.3l-0.15,0.1H93.95l-1.55-1.4l-1.3-1.65l-0.85-1.65l-0.4-1.9v-26.5H85.5v26.5l-0.45,1.9l-2.1,3.3l-1.6,1.4
						H59.5l-0.15-0.1l-2.55-2.95L56,343.1l-0.45-1.9V335.6z"/>
				</g>
				<g>
					<g>
						<path fill-rule="evenodd" clip-rule="evenodd" fill="none" stroke="#B1B1B1" stroke-width="0.5" stroke-miterlimit="5" d="
							M55.55,315.6v-8.65H87.6h32.35v2.9h3.7v27.9h-3.7v3.45l-0.5,1.9l-2.05,3.3l-1.45,1.3l-0.15,0.1H93.95l-1.55-1.4l-1.3-1.65
							l-0.85-1.65l-0.4-1.9v-5.95H85.5v5.95l-0.45,1.9l-2.1,3.3l-1.6,1.4H59.5l-0.15-0.1l-2.55-2.95L56,343.1l-0.45-1.9v-5.6H52v-20
							H55.55v19.35c0,0.267,0,0.483,0,0.65c0.534,1.967,1.85,3.483,3.95,4.55 M81.35,347.8v-7.65H59.5h-0.15v7.55 M87.6,306.95v7.75
							h2.25v19.75c0.2,2.333,1.55,4.267,4.05,5.8l21.9-0.1c1.367-0.6,2.434-1.566,3.2-2.9c0.533-1,0.85-1.983,0.95-2.95v-24.45
							 M81.35,340.15c2.566-1.167,3.95-3.017,4.15-5.55v-19.9h2.1 M89.85,334.45v0.8 M85.5,335.25v-0.65 M93.95,347.8v-7.5
							c-0.034,0-0.05-0.017-0.05-0.05 M119.95,337.75v-3.45 M115.8,340.15h0.15v7.55"/>
						<g>
							<path fill-rule="evenodd" clip-rule="evenodd" fill="none" stroke="#B1B1B1" stroke-width="0.5" stroke-miterlimit="5" d="
								M119.6,334.6c-10.033,0.767-19.934,0.767-29.7,0"/>
						</g>
						<g>
							<path fill-rule="evenodd" clip-rule="evenodd" fill="none" stroke="#B1B1B1" stroke-width="0.5" stroke-miterlimit="5" d="
								M85.4,334.6c-10.033,0.767-19.933,0.767-29.7,0"/>
						</g>
					</g>
				</g>
			</g>
			<g>
				<path fill-rule="evenodd" clip-rule="evenodd" fill="#999999" d="M55.55,389.6H52v-20h3.55v19.35
					C55.55,389.217,55.55,389.433,55.55,389.6z M85.5,368.7h4.35v20.55H85.5V368.7z M119.95,363.85h3.7v27.9h-3.7V363.85z"/>
				<g>
					<path fill-rule="evenodd" clip-rule="evenodd" fill="#E6E6E6" d="M55.55,388.95v-28h64.4v34.25l-0.5,1.9l-2.05,3.3l-1.45,1.3
						l-0.15,0.1H93.95l-1.55-1.4l-1.3-1.65l-0.85-1.65l-0.4-1.9v-26.5H85.5v26.5l-0.45,1.9l-2.1,3.3l-1.6,1.4H59.5l-0.15-0.1
						l-2.55-2.95L56,397.1l-0.45-1.9v-5.6C55.55,389.433,55.55,389.217,55.55,388.95z"/>
				</g>
				<g>
					<g>
						<path fill-rule="evenodd" clip-rule="evenodd" fill="none" stroke="#B1B1B1" stroke-width="0.5" stroke-miterlimit="5" d="
							M55.55,369.6v-8.65H87.6h32.35v2.9h3.7v27.9h-3.7v3.45l-0.5,1.9l-2.05,3.3l-1.45,1.3l-0.15,0.1H93.95l-1.55-1.4l-1.3-1.65
							l-0.85-1.65l-0.4-1.9v-5.95H85.5v5.95l-0.45,1.9l-2.1,3.3l-1.6,1.4H59.5l-0.15-0.1l-2.55-2.95L56,397.1l-0.45-1.9v-5.6H52v-20
							H55.55v19.35c0,0.267,0,0.483,0,0.65c0.534,1.967,1.85,3.483,3.95,4.55 M81.35,401.8v-7.65H59.5h-0.15v7.55 M87.6,360.95v7.75
							h2.25v19.75c0.2,2.333,1.55,4.267,4.05,5.8l21.9-0.1c1.367-0.6,2.434-1.566,3.2-2.9c0.533-1,0.85-1.983,0.95-2.95v-24.45
							 M81.35,394.15c2.566-1.167,3.95-3.017,4.15-5.55v-19.9h2.1 M93.9,394.25c0,0.033,0.017,0.05,0.05,0.05v7.5 M89.85,389.25
							v-0.8 M85.5,389.25v-0.65 M115.95,401.7v-7.55h-0.15 M119.95,391.75v-3.45"/>
						<g>
							<path fill-rule="evenodd" clip-rule="evenodd" fill="none" stroke="#B1B1B1" stroke-width="0.5" stroke-miterlimit="5" d="
								M119.6,388.6c-10.033,0.767-19.934,0.767-29.7,0"/>
						</g>
						<g>
							<path fill-rule="evenodd" clip-rule="evenodd" fill="none" stroke="#B1B1B1" stroke-width="0.5" stroke-miterlimit="5" d="
								M85.4,388.6c-10.033,0.767-19.933,0.767-29.7,0"/>
						</g>
					</g>
				</g>
			</g>
		</g>
	</g>
</g>
<g>
	<text transform="matrix(1.1464 0 0 1 96.0078 219.7188)" font-family="'Tahoma'" font-size="22.8387">1</text>
	<text transform="matrix(1.1464 0 0 1 96.0078 276.3691)" font-family="'Tahoma'" font-size="22.8387">2</text>
	<text transform="matrix(1.1464 0 0 1 96.0078 328.2188)" font-family="'Tahoma'" font-size="22.8387">3</text>
	<text transform="matrix(1.1464 0 0 1 96.0078 383.8691)" font-family="'Tahoma'" font-size="22.8387">4</text>
	<g>
		<path fill-rule="evenodd" clip-rule="evenodd" fill="#0099FF" d="M45.635,190.799l3.595-1.002c1.152,0,1.728,0.667,1.728,2.005
			v14.739c0,1.337-0.576,2.005-1.728,2.005l-3.595-1.053c-0.81-0.4-1.261-0.651-1.354-0.752c-0.249-0.234-0.374-0.651-0.374-1.253
			v-12.683c0-0.602,0.156-1.037,0.467-1.304C44.529,191.334,44.95,191.1,45.635,190.799z"/>
		<text transform="matrix(1 0 0 1 26.5703 202.7964)" fill="#0099FF" font-family="'Tahoma'" font-size="10">1</text>
	</g>
	<g>
		<path fill-rule="evenodd" clip-rule="evenodd" fill="#0099FF" d="M45.635,226.299l3.595-1.002c1.152,0,1.728,0.667,1.728,2.005
			v14.739c0,1.337-0.576,2.005-1.728,2.005l-3.595-1.053c-0.81-0.4-1.261-0.651-1.354-0.752c-0.249-0.234-0.374-0.651-0.374-1.253
			v-12.683c0-0.602,0.156-1.037,0.467-1.304C44.529,226.834,44.95,226.6,45.635,226.299z"/>
		<text transform="matrix(1 0 0 1 26.5703 237.4463)" fill="#0099FF" font-family="'Tahoma'" font-size="10">2</text>
	</g>
	<g>
		<path fill-rule="evenodd" clip-rule="evenodd" fill="#0099FF" d="M45.635,261.949l3.595-1.003c1.152,0,1.728,0.668,1.728,2.005
			v14.739c0,1.337-0.576,2.005-1.728,2.005l-3.595-1.053c-0.81-0.4-1.261-0.651-1.354-0.752c-0.249-0.234-0.374-0.651-0.374-1.253
			v-12.683c0-0.602,0.156-1.037,0.467-1.304C44.529,262.484,44.95,262.25,45.635,261.949z"/>
		<text transform="matrix(1 0 0 1 27.0205 272.8965)" fill="#0099FF" font-family="'Tahoma'" font-size="10">3</text>
	</g>
	<g>
		<path fill-rule="evenodd" clip-rule="evenodd" fill="#0099FF" d="M45.635,302.549l3.595-1.002c1.152,0,1.728,0.667,1.728,2.005
			v14.739c0,1.337-0.576,2.005-1.728,2.005l-3.595-1.053c-0.81-0.4-1.261-0.651-1.354-0.752c-0.249-0.234-0.374-0.651-0.374-1.253
			v-12.683c0-0.602,0.156-1.037,0.467-1.304C44.529,303.084,44.95,302.85,45.635,302.549z"/>
		<text transform="matrix(1 0 0 1 27.0205 313.4966)" fill="#0099FF" font-family="'Tahoma'" font-size="10">4</text>
	</g>
	<g>
		<path fill-rule="evenodd" clip-rule="evenodd" fill="#0099FF" d="M45.635,333.449l3.595-1.003c1.152,0,1.728,0.668,1.728,2.005
			v14.739c0,1.337-0.576,2.005-1.728,2.005l-3.595-1.053c-0.81-0.4-1.261-0.651-1.354-0.752c-0.249-0.234-0.374-0.651-0.374-1.253
			v-12.683c0-0.602,0.156-1.037,0.467-1.304C44.529,333.984,44.95,333.75,45.635,333.449z"/>
		<text transform="matrix(1 0 0 1 27.0205 345.6963)" fill="#0099FF" font-family="'Tahoma'" font-size="10">5</text>
	</g>
	<g>
		<path fill-rule="evenodd" clip-rule="evenodd" fill="#0099FF" d="M45.635,367.349l3.595-1.002c1.152,0,1.728,0.667,1.728,2.005
			v14.739c0,1.337-0.576,2.005-1.728,2.005l-3.595-1.053c-0.81-0.4-1.261-0.651-1.354-0.752c-0.249-0.234-0.374-0.651-0.374-1.253
			v-12.683c0-0.602,0.156-1.037,0.467-1.304C44.529,367.884,44.95,367.65,45.635,367.349z"/>
		<text transform="matrix(1 0 0 1 27.0205 375.5464)" fill="#0099FF" font-family="'Tahoma'" font-size="10">6</text>
	</g>
</g>
<g>
	<rect x="50.5" y="161.45" fill-rule="evenodd" clip-rule="evenodd" fill="#B1B1B1" width="63" height="4.5"/>
</g>
<g>
	<g>
		<rect x="130.5" y="123.95" fill-rule="evenodd" clip-rule="evenodd" width="13.95" height="23.85"/>
	</g>
	<g>
		<rect x="151.2" y="323.6" fill-rule="evenodd" clip-rule="evenodd" width="8.3" height="23.85"/>
	</g>
	<g>
		<rect x="131.7" y="323.6" fill-rule="evenodd" clip-rule="evenodd" width="5.1" height="23.85"/>
	</g>
	<g>
		<rect x="131.15" y="366" fill-rule="evenodd" clip-rule="evenodd" width="27.3" height="4"/>
	</g>
	<g>
		<rect x="135.8" y="373.2" fill-rule="evenodd" clip-rule="evenodd" width="18.05" height="23.85"/>
	</g>
	<g>
		<path fill-rule="evenodd" clip-rule="evenodd" d="M160,261.15v7.35h-9.85v-7.35H160z M160,274.15v7.35h-9.85v-7.35H160z
			 M131.15,259.15h11.35v24.75h-11.35V259.15z"/>
	</g>
	<g>
		<rect x="143.55" y="299.8" fill-rule="evenodd" clip-rule="evenodd" width="15.95" height="21.6"/>
	</g>
	<g>
		<rect x="148.35" y="163.6" fill-rule="evenodd" clip-rule="evenodd" width="13.95" height="23.85"/>
	</g>
	<g>
		<rect x="156.1" y="189.05" fill-rule="evenodd" clip-rule="evenodd" width="6.75" height="23.8"/>
	</g>
	<g>
		<path fill-rule="evenodd" clip-rule="evenodd" d="M131.35,189h12v23.85h-12V189z M144.8,187.45h-13.9V163.6h13.9V187.45z"/>
	</g>
	<g>
		<rect x="147.4" y="189.05" fill-rule="evenodd" clip-rule="evenodd" width="7.15" height="23.8"/>
	</g>
	<g>
		<rect x="144.4" y="224.05" fill-rule="evenodd" clip-rule="evenodd" width="3.1" height="23.8"/>
	</g>
	<g>
		<rect x="125.8" y="152.3" fill-rule="evenodd" clip-rule="evenodd" width="9.85" height="7.35"/>
	</g>
</g>
<g>
	<path fill-rule="evenodd" clip-rule="evenodd" fill="#FF0000" d="M147.55,175.95l13.7-13.7v27.4L147.55,175.95z M129.75,162.9h16.2
		v25.55h-16.2V162.9z"/>
	<g>
		
			<line fill-rule="evenodd" clip-rule="evenodd" fill="none" stroke="#FF0000" stroke-width="2" stroke-linecap="round" stroke-linejoin="round" stroke-miterlimit="3" x1="158.7" y1="175.8" x2="202.2" y2="175.8"/>
	</g>
</g>
<g>
	<g>
		<g>
			<polygon fill-rule="evenodd" clip-rule="evenodd" fill="#0099FF" points="68.4,122 68.05,138.15 68.5,156.3 49.05,139.1 			"/>
		</g>
		<g>
			<rect x="66.35" y="130.95" fill-rule="evenodd" clip-rule="evenodd" fill="#0099FF" width="22.75" height="16.55"/>
		</g>
	</g>
	<text transform="matrix(1 0 0 1 57.75 143.1758)" fill="#FFFFFF" font-family="'Tahoma'" font-size="12">EXIT</text>
</g>
<g>
	<g>
		<path fill-rule="evenodd" clip-rule="evenodd" fill="#57A0CA" d="M376.75,45.15H350.1V20h26.65V45.15z M361.55,32.5L357,37.2
			c-0.3,0.267-0.45,0.583-0.45,0.95c0,0.333,0.15,0.633,0.45,0.9c0.2,0.3,0.5,0.45,0.9,0.45c0.367,0,0.667-0.15,0.9-0.45l4.6-4.6
			l4.65,4.6c0.267,0.3,0.583,0.45,0.95,0.45s0.667-0.15,0.9-0.45c0.267-0.267,0.4-0.566,0.4-0.9c0-0.367-0.133-0.683-0.4-0.95
			l-4.55-4.7l4.55-4.5c0.267-0.3,0.4-0.633,0.4-1s-0.133-0.683-0.4-0.95c-0.233-0.267-0.533-0.4-0.9-0.4s-0.683,0.133-0.95,0.4
			l-4.65,4.6l-4.6-4.6c-0.233-0.267-0.55-0.4-0.95-0.4c-0.367,0-0.684,0.133-0.95,0.4c-0.233,0.267-0.35,0.583-0.35,0.95
			s0.117,0.7,0.35,1L361.55,32.5z"/>
		<path fill-rule="evenodd" clip-rule="evenodd" fill="#FFFFFF" d="M361.55,32.5L356.9,28c-0.233-0.3-0.35-0.633-0.35-1
			s0.117-0.683,0.35-0.95c0.267-0.267,0.583-0.4,0.95-0.4c0.4,0,0.717,0.133,0.95,0.4l4.6,4.6l4.65-4.6
			c0.267-0.267,0.583-0.4,0.95-0.4s0.667,0.133,0.9,0.4c0.267,0.267,0.4,0.583,0.4,0.95s-0.133,0.7-0.4,1l-4.55,4.5l4.55,4.7
			c0.267,0.267,0.4,0.583,0.4,0.95c0,0.333-0.133,0.633-0.4,0.9c-0.233,0.3-0.533,0.45-0.9,0.45s-0.683-0.15-0.95-0.45l-4.65-4.6
			l-4.6,4.6c-0.233,0.3-0.533,0.45-0.9,0.45c-0.4,0-0.7-0.15-0.9-0.45c-0.3-0.267-0.45-0.566-0.45-0.9c0-0.367,0.15-0.683,0.45-0.95
			L361.55,32.5z"/>
	</g>
</g>
</svg>
