<?xml version="1.0" encoding="utf-8"?>
<!-- Generator: Adobe Illustrator 19.0.0, SVG Export Plug-In . SVG Version: 6.00 Build 0)  -->
<svg version="1.1" id="Layer_1" xmlns="http://www.w3.org/2000/svg" xmlns:xlink="http://www.w3.org/1999/xlink" x="0px" y="0px"
	 viewBox="282 373 45 45" style="enable-background:new 282 373 45 45;" xml:space="preserve">
<style type="text/css">
	.st0{fill:#fff;}
</style>
<g>
	<path class="st0" d="M305.8,394.8v-2.1h3.4v-1h-4.4v4.1l0.7-0.1c0.3,0,0.6,0,0.9,0s0.5,0,0.8,0c0.2,0.1,0.4,0.2,0.5,0.3
		c0.2,0.1,0.3,0.3,0.4,0.5s0.1,0.4,0.1,0.7s-0.1,0.5-0.1,0.7c-0.1,0.2-0.2,0.4-0.3,0.6s-0.3,0.3-0.5,0.4s-0.4,0.1-0.6,0.1
		s-0.4,0-0.6-0.1l-1.1-0.4l-0.4-0.2l0,0v1.1c0.3,0.1,0.6,0.3,1,0.4s0.7,0.1,1.1,0.1s0.8-0.1,1.1-0.2c0.3-0.1,0.6-0.3,0.9-0.5
		c0.2-0.3,0.4-0.6,0.5-0.9s0.1-0.7,0.1-1c0-0.5-0.1-0.9-0.2-1.2c-0.2-0.3-0.4-0.5-0.6-0.8c-0.3-0.2-0.5-0.3-0.9-0.4
		c-0.3-0.1-0.6-0.1-1-0.1H305.8z M306.8,390c1.5,0,2.8,0.5,3.9,1.6s1.6,2.4,1.6,3.9s-0.5,2.8-1.6,3.9s-2.4,1.6-3.9,1.6
		s-2.8-0.5-3.9-1.6s-1.6-2.4-1.6-3.9s0.5-2.8,1.6-3.9S305.3,390,306.8,390z M311.5,390.6c-1.3-1.3-2.9-2-4.8-2s-3.5,0.6-4.8,2
		c-1.3,1.3-2,2.9-2,4.8s0.7,3.5,2,4.8s2.9,2,4.8,2s3.5-0.7,4.8-2s2-2.9,2-4.8C313.5,393.6,312.9,392,311.5,390.6z M314.8,390.6v9.7
		l-8,4.5l-8-4.5v-9.7l8-4.5L314.8,390.6z"/>
</g>
</svg>
