<?xml version="1.0" encoding="utf-8"?>
<!-- Generator: Adobe Illustrator 19.0.0, SVG Export Plug-In . SVG Version: 6.00 Build 0)  -->
<svg version="1.1" id="Layer_1" xmlns="http://www.w3.org/2000/svg" xmlns:xlink="http://www.w3.org/1999/xlink" x="0px" y="0px"
	 viewBox="283 366 45 49" style="enable-background:new 283 366 45 49;" xml:space="preserve">
<style type="text/css">
	.st0{fill:#fff;stroke:#FFFFFF;stroke-linecap:round;stroke-linejoin:round;stroke-miterlimit:3;}
	.st1{fill:#fff;}
</style>
<g>
	<path class="st0" d="M296.8,398.7c0-0.3,0-0.5,0-0.9c0-2.8,1-5.1,2.9-7.1c2-2,4.4-3,7.1-3c2.8,0,5.1,1,7.1,3s2.9,4.3,2.9,7.1
		c0,0.3,0,0.6,0,0.9"/>
	<g>
		<polygon class="st1" points="304,399.6 309,399.6 310.3,403.5 303,403.5 303.4,401.8 303.4,401.7 303.5,401.5 		"/>
	</g>
	<g>
		<path class="st1" d="M301.9,395.4h9.4c1.2,0,2.3,0.4,3.3,1.1l0.3,0.1v3h-16.5v-3l0.3-0.1C299.6,395.7,300.7,395.4,301.9,395.4z"/>
	</g>
	<g>
		<polygon class="st1" points="303.2,389.7 303.2,389.6 310.1,389.6 309.5,392.5 308.4,392.5 308.4,393 304.9,393 304.9,392.5 
			303.6,392.5 303,389.7 		"/>
	</g>
</g>
</svg>
