<?xml version="1.0" encoding="utf-8"?>
<!-- Generator: Adobe Illustrator 24.1.0, SVG Export Plug-In . SVG Version: 6.00 Build 0)  -->
<svg version="1.1" id="Ebene_1" xmlns="http://www.w3.org/2000/svg" xmlns:xlink="http://www.w3.org/1999/xlink" x="0px" y="0px"
	 viewBox="0 0 20.1 15.7" style="enable-background:new 0 0 20.1 15.7;" xml:space="preserve">
<style type="text/css">
	.st0{fill-rule:evenodd;clip-rule:evenodd;fill:#E5E5E5;}
	.st1{fill-rule:evenodd;clip-rule:evenodd;fill:#FFFFFF;stroke:#E5E5E5;stroke-miterlimit:10;}
	.st2{fill-rule:evenodd;clip-rule:evenodd;fill:#F9F7F7;}
</style>
<g>
	<path class="st0" d="M0,10.9c0-0.3,0-0.5,0-0.9c0-2.7,1-5.1,2.9-7c2-2,4.4-3,7.1-3c2.8,0,5.1,1,7.1,3S20,7.3,20,10.1
		c0,0.3,0,0.6,0,0.9"/>
	<g>
		<polygon class="st0" points="7.2,11.8 12.3,11.8 13.5,15.7 6.2,15.7 6.6,14 6.6,13.9 6.8,13.7 		"/>
	</g>
	<g>
		<path class="st1" d="M5.1,7.6h9.4c1.2,0,2.3,0.4,3.3,1.1l0.3,0.1v3H1.6v-3l0.2-0.1C2.9,7.9,4,7.6,5.1,7.6z"/>
	</g>
	<g>
		<polygon class="st2" points="6.5,1.9 6.5,1.9 13.4,1.9 12.8,4.7 11.6,4.7 11.6,5.2 8.1,5.2 8.1,4.7 6.9,4.7 6.3,1.9 		"/>
	</g>
</g>
</svg>
