<?xml version="1.0" encoding="utf-8"?>
<!-- Generator: Adobe Illustrator 16.2.1, SVG Export Plug-In . SVG Version: 6.00 Build 0)  -->
<!DOCTYPE svg PUBLIC "-//W3C//DTD SVG 1.1//EN" "http://www.w3.org/Graphics/SVG/1.1/DTD/svg11.dtd">
<svg version="1.1" id="Selected_Items" xmlns="http://www.w3.org/2000/svg" xmlns:xlink="http://www.w3.org/1999/xlink" x="0px"
	 y="0px" width="40.917px" height="21.708px" viewBox="0 0 40.917 21.708" enable-background="new 0 0 40.917 21.708"
	 xml:space="preserve">
<path fill-rule="evenodd" clip-rule="evenodd" fill="#E5E5E5" d="M9.184,3.049v-1h2.5v0.25h0.55V2.25
	c0.033,0.033,0.067,0.05,0.1,0.05s0.067,0,0.1,0v0.05h0.2V2.45h0.35v2.399h1.35V4.95h0.05V5.2l0.05,0.1V5.4h-0.15l-0.15,0.05
	l-0.05,0.05v0.45h-0.25v0.7h-0.35V6.4h-0.3v0.199h-0.05l-0.05,0.051h-0.15V6.349h-0.2l-0.05-0.75V8.65h0.25v-0.2l0.05-0.05h0.1v0.05
	h0.1v0.2h0.3V8.349h0.25V8.5h0.3V8.15h0.25V8.9h0.35v0.05l0.1,0.05l0.05-0.05h0.05V8.9h0.75v-1h0.8v1h0.2V9h0.25V8.9h1.3l0.05,0.1
	l1,0.05V8.65h0.3v-0.7l0.05-0.05V7.75h-0.1V7.5h0.1V7.2h-0.1V6.599h-0.1v-0.3h0.1V5.75h-0.55v-1.4h3.25v0.95h-0.9v1.25h0.6l0.2-0.35
	l0.05-0.05l0.1,0.05l0.101-0.05h0.55l0.15,0.05l0.399,0.3h0.05l0.101,0.15l0.2-0.301L23.883,6.2l0.351-0.101h0.399l0.05,0.051h0.15
	l0.45,0.449V6.65h0.2v0.199h0.1V6.9h1.05l1.45-0.301h0.2v-0.05h0.6c0.267,0,0.534,0,0.8,0c0.134,0,0.268,0,0.4,0h0.75V6.5h0.25v0.05
	h0.7l1.25-0.3l1.7-0.1l1.5,0.149h0.05l0.05,0.15c0.133,0.233,0.233,0.45,0.3,0.649l0.05,0.301c0.033,0.066,0.084,0.133,0.15,0.199
	l-0.15,0.051h0.2c0.101,0.1,0.217,0.199,0.351,0.3c0.066,0,0.184,0,0.35,0c0.133,0,0.25,0,0.35,0v7.75h-0.399l-0.101,0.05
	c-0.133,0.033-0.232,0.1-0.3,0.2l-0.1,0.05l-0.15,0.1l-0.1,0.101c-0.034,0.033-0.067,0.066-0.101,0.1l-0.25,0.15v0.45
	c0,0.033,0,0.066,0,0.1l-0.05,0.05l-0.1,0.15l-0.05,0.05h-0.051l-0.05,0.05h-0.2l-0.05-0.05h-0.2L32.433,17h-0.25l-0.1,0.1
	l-0.1,0.051l-0.051,0.05h-0.05l-0.05,0.05h-0.05l-0.05,0.05h-0.101l-0.45,0.101h-0.649l-0.05,0.399h-0.7l-0.3-0.1h-1.2l-0.2-0.65
	L27.933,17v0.05l-0.05,0.15l-0.149,0.149V17.4h-0.4l-0.1-0.051v-0.05l-0.051-0.05V17.2h-0.35l-0.65,0.35l-0.05,0.05v0.051h-0.05
	v0.05h-0.05l-0.05-0.05l-0.101,0.1l0.101,0.05L25.883,17.9v-0.051h-0.05v-0.05l-0.05,0.05h-0.05l-0.051-0.1h-0.05v0.7l-0.05-0.05
	v-0.101h-0.4v0.2l-0.1,0.15h-0.2v0.1h-0.8l-0.05-0.05h-0.05v-0.2l-0.2,0.1h-0.05v-0.1h-0.051v-0.1l-0.1,0.05h-0.05l-0.05,0.05h-0.15
	l-0.15-0.05l-0.1-0.101h-0.1v-0.05h-0.051v-0.45l-0.55-0.149h-0.05l-0.05-0.05l-0.65-0.2h-0.5l-0.1-0.05h-0.15l-0.05-0.101
	l-0.1-0.149h-0.05v-0.051l-0.05-0.05v-1.1h-0.05l-0.1-0.05v0.25l-0.05,0.149h-0.05v0.05l0.05,0.051l0.05,0.1l0.1,0.05v0.101h-0.1
	l-6.75-1.7v-0.101h0.35l0.05-0.1l0.3,0.1v-0.05l0.1-0.399h-0.3v0.05h-0.2V14.4h-0.15v-0.051h-0.15v-0.25h-1.7l-0.65,0.75V15.2
	l0.1,0.149v0.4h0.05l-0.05,0.05V15.9h-0.1v0.05l-0.2,0.1v0.05h-0.1l-0.05,0.051h-0.2l-0.25-0.051l-0.15-0.199l-0.05-1.051l-1-1.25
	h-0.55v0.7h-0.3v-0.7h-0.1v-0.55h-0.75L7.633,13v-0.15h-0.05V12.65l-0.05-0.051v-0.1h-0.05l-0.25-0.2h-0.05v-1.5l0.05-0.1l0.15-0.05
	l-0.7-0.75h-0.05l-0.05-0.051h-0.15V8.7h-0.05v1.149h-0.2l-0.05-0.05h-0.1v-0.45l-0.05-0.05h-0.2V9.65h0.05v0.1h-0.1v0.05l-0.1-0.05
	h-0.1V9h-0.3V8.7h-0.4l-0.55,0.149L4.083,9l-0.1,0.1h-0.05v0.75h-0.2v-0.75l-0.05-0.05h-0.1v-2.7L3.733,5.7v-0.4h0.2v0.75l0.05,0.05
	l0.1,0.15l0.2,0.05l0.55,0.2h0.4V6.2h0.3v-0.15h0.2V5.9h0.25l0.05-0.051v-0.1l-0.15-0.1h-0.95V5.7h-0.05v0.1h-0.5v-0.75h-0.05v-0.3
	h-0.2v-0.5h0.05v-0.5h0.05V3.7h-0.05V3.599h0.05v-0.05h0.2v0.7h0.45v0.1h0.05l0.15-0.1h0.2l0.1,0.05l0.15,0.15l0.1,0.25v0.149h0.25
	l0.3,0.45h0.3V4.9h0.5l1.3-1.301h0.05v-0.55H9.184z"/>
</svg>
