<?xml version="1.0" encoding="utf-8"?>
<!-- Generator: Adobe Illustrator 19.0.0, SVG Export Plug-In . SVG Version: 6.00 Build 0)  -->
<svg version="1.1" id="Layer_1" xmlns="http://www.w3.org/2000/svg" xmlns:xlink="http://www.w3.org/1999/xlink" x="0px" y="0px"
	 viewBox="298 6.6 52 44" style="enable-background:new 298 6.6 52 44;" xml:space="preserve">
<style type="text/css">
	.st0{fill:#fff;}
</style>
<g>
	<g>
		<path class="st0" d="M322.1,34.9l-2.9,2.8c0.6,1,1.4,1.8,2.4,2.4s2.1,0.9,3.3,0.9c1.5,0,2.8-0.5,4-1.4s2-2.1,2.4-3.5l1.9,0.6
			c-0.5,1.9-1.6,3.4-3.1,4.5c-1.6,1.2-3.3,1.8-5.3,1.8c-1.5,0-2.8-0.3-4.1-1c-1.3-0.7-2.3-1.6-3.1-2.8l-2.7,2.7v-7H322.1z"/>
		<path class="st0" d="M332.2,29.3l2.7-2.7v7h-7.1l2.9-2.8c-0.6-1-1.4-1.8-2.4-2.4s-2.1-0.9-3.3-0.9c-1.5,0-2.8,0.5-4,1.4
			s-2,2-2.3,3.4l-2-0.6c0.5-1.8,1.6-3.3,3.1-4.5c1.6-1.2,3.3-1.8,5.3-1.8c1.5,0,2.9,0.3,4.2,1C330.4,27.1,331.4,28.1,332.2,29.3z"/>
	</g>
</g>
</svg>
