<?xml version="1.0" encoding="utf-8"?>
<!-- Generator: Adobe Illustrator 24.1.0, SVG Export Plug-In . SVG Version: 6.00 Build 0)  -->
<svg version="1.1" id="Ebene_1" xmlns="http://www.w3.org/2000/svg" xmlns:xlink="http://www.w3.org/1999/xlink" x="0px" y="0px"
	 viewBox="0 0 19.9 17.6" style="enable-background:new 0 0 19.9 17.6;" xml:space="preserve">
<style type="text/css">
	.st0{fill-rule:evenodd;clip-rule:evenodd;fill:#E5E5E5;}
</style>
<g>
	<g>
		<path class="st0" d="M7.1,9.5l-2.9,2.8c0.6,1,1.4,1.8,2.4,2.4s2.1,0.9,3.3,0.9c1.5,0,2.8-0.5,4-1.4s2-2.1,2.4-3.5l1.9,0.6
			c-0.5,1.9-1.6,3.4-3.1,4.5c-1.6,1.2-3.3,1.8-5.3,1.8c-1.5,0-2.8-0.3-4.1-1c-1.3-0.7-2.3-1.6-3.1-2.8L0,16.4v-7L7.1,9.5z"/>
		<path class="st0" d="M17.2,3.9l2.7-2.7v7h-7.1l2.9-2.8c-0.6-1-1.4-1.8-2.4-2.4c-1-0.7-2.2-1-3.4-1c-1.5,0-2.8,0.5-4,1.4
			s-2,2-2.3,3.4l-2-0.6C2.1,4.4,3.2,3,4.7,1.8S8,0,9.9,0c1.5,0,2.9,0.3,4.2,1S16.4,2.7,17.2,3.9z"/>
	</g>
</g>
</svg>
