<?xml version="1.0" encoding="utf-8"?>
<!-- Generator: Adobe Illustrator 24.1.0, SVG Export Plug-In . SVG Version: 6.00 Build 0)  -->
<svg version="1.1" id="Ebene_1" xmlns="http://www.w3.org/2000/svg" xmlns:xlink="http://www.w3.org/1999/xlink" x="0px" y="0px"
	 viewBox="0 0 22 16.2" style="enable-background:new 0 0 22 16.2;" xml:space="preserve">
<style type="text/css">
	.st0{fill-rule:evenodd;clip-rule:evenodd;fill:#E5E5E5;}
</style>
<g>
	<g>
		<path class="st0" d="M13.9,13h1.7c0,0.9,0,1.7-0.1,2.3s-0.2,0.9-0.4,0.9h-0.7c-0.1,0-0.2-0.3-0.4-0.9C13.9,14.7,13.9,13.9,13.9,13
			z"/>
		<rect y="11.5" class="st0" width="22" height="1.1"/>
		<path class="st0" d="M18.7,2.3v9H3.4v-9c0-0.6,0.2-1.2,0.5-1.6S4.8,0,5.3,0h11.6c0.5,0,1,0.2,1.4,0.7C18.5,1.2,18.7,1.7,18.7,2.3z
			 M8.2,9.9V9.2H5.4v0.7H8.2z M11.6,6.3l-1,4.2l3.5-5.3h-3.5L12.4,1L8.1,6.3H11.6z M17.5,9.9V9.2h-1v-1h-0.8v1h-1v0.7h1v1h0.8v-1
			H17.5z"/>
		<path class="st0" d="M6.4,13h1.7c0,0.9,0,1.7-0.1,2.3c-0.1,0.6-0.2,0.9-0.4,0.9H6.9c-0.1,0-0.2-0.3-0.4-0.9
			C6.5,14.7,6.4,13.9,6.4,13z"/>
	</g>
</g>
</svg>
