<?xml version="1.0" encoding="utf-8"?>
<!-- Generator: Adobe Illustrator 16.2.1, SVG Export Plug-In . SVG Version: 6.00 Build 0)  -->
<!DOCTYPE svg PUBLIC "-//W3C//DTD SVG 1.1//EN" "http://www.w3.org/Graphics/SVG/1.1/DTD/svg11.dtd">
<svg version="1.1" id="Selected_Items" xmlns="http://www.w3.org/2000/svg" xmlns:xlink="http://www.w3.org/1999/xlink" x="0px"
	 y="0px" width="1291.05px" height="941.6px" viewBox="0 0 1291.05 941.6" enable-background="new 0 0 1291.05 941.6"
	 xml:space="preserve">
<g>
	<rect x="16.35" y="19.65" fill-rule="evenodd" clip-rule="evenodd" fill="#FFFFFF" width="360.4" height="395.8"/>
</g>
<g>
	<g>
		<g>
			<rect x="16.45" y="19.6" fill-rule="evenodd" clip-rule="evenodd" fill="#0099FF" width="360.2" height="26.4"/>
		</g>
		<g>
			<path fill-rule="evenodd" clip-rule="evenodd" fill="none" stroke="#999999" stroke-miterlimit="6.92" d="M376.75,45.95v370.5
				H16.35V45.95v-26.2h360.4V45.95z M16.35,45.95h360.4"/>
		</g>
	</g>
</g>
<text transform="matrix(1 0 0 1 24.5498 37.3052)" fill="#FFFFFF" font-family="'Tahoma-Bold'" font-size="14">Repair of the Pneumatic Deicer Boots</text>
<g>
	<g>
		<g>
			<path fill-rule="evenodd" clip-rule="evenodd" fill="#0099FF" fill-opacity="0.298" d="M16.5,99.6V80.8h9.3
				c0.034,0,0.067,0,0.1,0c2.6,0,4.817,0.917,6.65,2.75c1.833,1.833,2.75,4.05,2.75,6.65c0,2.6-0.917,4.816-2.75,6.65
				c-1.833,1.833-4.05,2.75-6.65,2.75c-0.033,0-0.066,0-0.1,0H16.5z"/>
			
				<path fill-rule="evenodd" clip-rule="evenodd" fill="none" stroke="#B1B1B1" stroke-linecap="round" stroke-linejoin="round" stroke-miterlimit="3" d="
				M16.5,80.8h9.3c0.034,0,0.067,0,0.1,0c2.6,0,4.817,0.917,6.65,2.75c1.833,1.833,2.75,4.05,2.75,6.65c0,2.6-0.917,4.816-2.75,6.65
				c-1.833,1.833-4.05,2.75-6.65,2.75c-0.033,0-0.066,0-0.1,0h-9.3"/>
		</g>
	</g>
	<g>
		<polygon fill-rule="evenodd" clip-rule="evenodd" points="23.939,96.958 23.939,95.42 25.017,95.42 25.017,89.008 23.939,89.008 
			23.939,87.521 27.94,87.521 27.94,95.42 28.966,95.42 28.966,96.958 		"/>
		<path fill-rule="evenodd" clip-rule="evenodd" d="M24.812,86.033c-0.376-0.342-0.564-0.787-0.564-1.333s0.188-0.992,0.564-1.333
			c0.376-0.376,0.821-0.565,1.333-0.565c0.547,0,1.009,0.188,1.384,0.565c0.377,0.342,0.565,0.787,0.565,1.333
			s-0.188,0.992-0.565,1.333c-0.375,0.375-0.837,0.564-1.384,0.564C25.632,86.597,25.188,86.409,24.812,86.033z"/>
	</g>
</g>
<text transform="matrix(1 0 0 1 73.5 154.5259)"><tspan x="0" y="0" font-family="'Tahoma'" font-size="12">QUARK KIT Q400 DEICE BOOTS</tspan><tspan x="0" y="20" font-family="'Tahoma'" font-size="12">PART NR</tspan><tspan x="0" y="40" font-family="'Tahoma'" font-size="12">ALT PART NR</tspan><tspan x="0" y="80" font-family="'Tahoma'" font-size="12">PATCH REPAIR KIT AERAZUR</tspan><tspan x="0" y="100" font-family="'Tahoma'" font-size="12"> 42 64 mm</tspan><tspan x="0" y="120" font-family="'Tahoma'" font-size="12"> 45 25 mm</tspan><tspan x="0" y="140" font-family="'Tahoma'" font-size="12"> 70 120 mm</tspan><tspan x="0" y="160" font-family="'Tahoma'" font-size="12">128 256 mm</tspan></text>
<rect x="147.8" y="244.656" fill-rule="evenodd" clip-rule="evenodd" fill="none" width="89" height="21"/>
<text transform="matrix(1 0 0 1 149.7998 255.7759)" fill="#0000FF" font-family="'Tahoma'" font-size="12">5100S151</text>
<rect x="147.8" y="265.056" fill-rule="evenodd" clip-rule="evenodd" fill="none" width="89" height="21"/>
<text transform="matrix(1 0 0 1 149.7998 276.1758)" fill="#0000FF" font-family="'Tahoma'" font-size="12">5100S154</text>
<rect x="147.8" y="284.256" fill-rule="evenodd" clip-rule="evenodd" fill="none" width="89" height="21"/>
<text transform="matrix(1 0 0 1 149.7998 295.376)" fill="#0000FF" font-family="'Tahoma'" font-size="12">5100S152</text>
<rect x="147.8" y="303.656" fill-rule="evenodd" clip-rule="evenodd" fill="none" width="89" height="21"/>
<text transform="matrix(1 0 0 1 149.7998 314.7759)" fill="#0000FF" font-family="'Tahoma'" font-size="12">5100S153</text>
<rect x="151" y="164.456" fill-rule="evenodd" clip-rule="evenodd" fill="none" width="89" height="21"/>
<text transform="matrix(1 0 0 1 153 175.5757)" fill="#0000FF" font-family="'Tahoma'" font-size="12">5100S149</text>
<rect x="151" y="182.656" fill-rule="evenodd" clip-rule="evenodd" fill="none" width="89" height="21"/>
<text transform="matrix(1 0 0 1 153 193.7759)" fill="#0000FF" font-family="'Tahoma'" font-size="12">506330</text>
<text transform="matrix(1 0 0 1 76.3999 92.876)"><tspan x="0" y="0" font-family="'Tahoma'" font-size="12">Repair of the Pneumatic Deicer Boots</tspan><tspan x="0" y="18" fill="#0000FF" font-family="'Tahoma'" font-size="12">AMM TASK 30-11-00-300-802 </tspan></text>
<g>
	<g>
		<path fill="#57A0CA" d="M376.75,45.15H350.1V20h26.65V45.15z M361.55,32.5L357,37.2c-0.3,0.267-0.45,0.583-0.45,0.95
			c0,0.333,0.15,0.633,0.45,0.9c0.2,0.3,0.5,0.45,0.9,0.45c0.367,0,0.667-0.15,0.9-0.45l4.6-4.6l4.65,4.6
			c0.267,0.3,0.583,0.45,0.95,0.45s0.667-0.15,0.9-0.45c0.267-0.267,0.4-0.566,0.4-0.9c0-0.367-0.133-0.683-0.4-0.95l-4.55-4.7
			l4.55-4.5c0.267-0.3,0.4-0.633,0.4-1s-0.133-0.683-0.4-0.95c-0.233-0.267-0.533-0.4-0.9-0.4s-0.683,0.133-0.95,0.4l-4.65,4.6
			l-4.6-4.6c-0.233-0.267-0.55-0.4-0.95-0.4c-0.367,0-0.684,0.133-0.95,0.4c-0.233,0.267-0.35,0.583-0.35,0.95s0.117,0.7,0.35,1
			L361.55,32.5z"/>
		<path fill="#FFFFFF" d="M361.55,32.5L356.9,28c-0.233-0.3-0.35-0.633-0.35-1s0.117-0.683,0.35-0.95
			c0.267-0.267,0.583-0.4,0.95-0.4c0.4,0,0.717,0.133,0.95,0.4l4.6,4.6l4.65-4.6c0.267-0.267,0.583-0.4,0.95-0.4
			s0.667,0.133,0.9,0.4c0.267,0.267,0.4,0.583,0.4,0.95s-0.133,0.7-0.4,1l-4.55,4.5l4.55,4.7c0.267,0.267,0.4,0.583,0.4,0.95
			c0,0.333-0.133,0.633-0.4,0.9c-0.233,0.3-0.533,0.45-0.9,0.45s-0.683-0.15-0.95-0.45l-4.65-4.6l-4.6,4.6
			c-0.233,0.3-0.533,0.45-0.9,0.45c-0.4,0-0.7-0.15-0.9-0.45c-0.3-0.267-0.45-0.566-0.45-0.9c0-0.367,0.15-0.683,0.45-0.95
			L361.55,32.5z"/>
	</g>
</g>
</svg>
