<?xml version="1.0" encoding="utf-8"?>
<!-- Generator: Adobe Illustrator 16.2.1, SVG Export Plug-In . SVG Version: 6.00 Build 0)  -->
<!DOCTYPE svg PUBLIC "-//W3C//DTD SVG 1.1//EN" "http://www.w3.org/Graphics/SVG/1.1/DTD/svg11.dtd">
<svg version="1.1" id="Selected_Items" xmlns="http://www.w3.org/2000/svg" xmlns:xlink="http://www.w3.org/1999/xlink" x="0px"
	 y="0px" width="380px" height="430px" viewBox="0 0 380 430" enable-background="new 0 0 380 430"
	 xml:space="preserve">
<symbol  id="TR_x5F_neu" viewBox="-19.664 -9.581 39.328 19.162">
	<g id="Ebene_3_1_">
		<path fill="#BDBDBA" d="M-19.664,5.956c0,2.417,1.208,3.625,3.625,3.625h32.078c2.417,0,3.625-1.208,3.625-3.625V-5.956
			c0-2.417-1.208-3.625-3.625-3.625h-32.078c-2.417,0-3.625,1.208-3.625,3.625V5.956z"/>
		<path fill="#57A0CA" d="M-15.517,9.143h31.06c2.342,0,3.513-1.172,3.513-3.514V-5.637c0-2.342-1.171-3.513-3.513-3.513h-31.06
			c-2.371,0-3.556,1.171-3.556,3.513V5.63C-19.073,7.972-17.888,9.143-15.517,9.143z"/>
		<g>
			<path fill="#FFFFFF" d="M14.276,7.803c2.233,0,3.35-1.1,3.35-3.3v-9c0-2.2-1.117-3.3-3.35-3.3h-28.55c-2.233,0-3.35,1.1-3.35,3.3
				v9c0,2.2,1.117,3.3,3.35,3.3H14.276z"/>
		</g>
		<text transform="matrix(1 0 0 -1 -9.5425 -4.752)" fill="#57A0CA" font-family="'Tahoma-Bold'" font-size="14">TR</text>
	</g>
</symbol>
<symbol  id="info3" viewBox="-18.025 -18.05 36.05 36.1">
	<g id="Ebene_3_2_">
		<g>
			<g>
				<linearGradient id="SVGID_1_" gradientUnits="userSpaceOnUse" x1="-12.7617" y1="12.7861" x2="12.7133" y2="-12.6889">
					<stop  offset="0.0196" style="stop-color:#E0DFDD"/>
					<stop  offset="1" style="stop-color:#84827E"/>
				</linearGradient>
				<path fill="url(#SVGID_1_)" d="M-12.725-12.7c-3.566,3.5-5.333,7.717-5.3,12.65c0,5,1.767,9.25,5.3,12.75
					c3.534,3.566,7.767,5.35,12.7,5.35c4.967,0,9.217-1.767,12.75-5.3c3.533-3.534,5.3-7.768,5.3-12.7
					c0-4.967-1.767-9.217-5.3-12.75s-7.783-5.317-12.75-5.35C-4.991-18.05-9.225-16.268-12.725-12.7z"/>
				<g>
					<g>
						<g>
							<path fill="#57A0CA" d="M11.976-11.8c-3.267-3.333-7.233-5-11.9-5c-4.7,0-8.717,1.667-12.05,5
								c-3.267,3.3-4.9,7.282-4.9,11.949s1.633,8.667,4.9,12c3.333,3.301,7.35,4.95,12.05,4.95c4.667,0,8.633-1.649,11.9-4.95
								c3.333-3.333,5-7.333,5-12S15.309-8.5,11.976-11.8z"/>
						</g>
						<g>
							<path fill="#FFFFFF" d="M10.676-10.3c-2.934-2.934-6.434-4.4-10.5-4.4c-4.133,0-7.667,1.467-10.6,4.4
								c-2.934,2.934-4.4,6.449-4.4,10.55c0,4.1,1.466,7.617,4.4,10.55c2.933,2.933,6.467,4.4,10.6,4.4
								c4.066,0,7.566-1.468,10.5-4.4c2.933-2.933,4.4-6.45,4.4-10.55C15.076-3.851,13.608-7.367,10.676-10.3z"/>
						</g>
					</g>
				</g>
			</g>
		</g>
		<g>
			<g>
				<polygon fill="#CCCCCC" points="-5.013,1.363 -5.013,3.91 1.889,3.91 1.889,-9.71 3.661,-9.71 3.661,-12.367 -5.013,-12.367 
					-5.013,-9.71 -3.168,-9.71 -3.168,1.363 				"/>
				<path fill="#CCCCCC" d="M-3.05,6.386c-0.649,0.591-0.974,1.356-0.974,2.301c0,0.945,0.324,1.711,0.974,2.303
					c0.648,0.647,1.416,0.973,2.301,0.973c0.944,0,1.741-0.324,2.389-0.973c0.649-0.592,0.975-1.357,0.975-2.303
					c0-0.944-0.325-1.71-0.975-2.301C0.993,5.736,0.196,5.413-0.75,5.413C-1.634,5.413-2.402,5.736-3.05,6.386z"/>
			</g>
			<g>
				<polygon fill="#343433" points="4.722,-8.926 4.722,-11.581 -3.951,-11.581 -3.951,-8.926 -2.092,-8.926 -2.092,2.136 
					-3.951,2.136 -3.951,4.702 2.952,4.702 2.952,-8.926 				"/>
				<path fill="#343433" d="M-0.2,6.214c-0.885,0-1.652,0.323-2.301,0.973C-3.15,7.777-3.475,8.543-3.475,9.488
					c0,0.944,0.324,1.711,0.974,2.302c0.648,0.647,1.416,0.973,2.301,0.973c0.944,0,1.741-0.324,2.389-0.973
					c0.649-0.591,0.975-1.357,0.975-2.302c0-0.945-0.325-1.711-0.975-2.302C1.541,6.537,0.745,6.214-0.2,6.214z"/>
			</g>
		</g>
	</g>
</symbol>
<g>
	<rect x="16.35" y="19.65" fill="#FFFFFF" width="360.4" height="395.8"/>
</g>
<g>
	<g>
		<g>
			<rect x="16.45" y="19.6" fill="#0099FF" width="360.2" height="26.4"/>
		</g>
		<g>
			<path fill="none" stroke="#999999" stroke-miterlimit="6.92" d="M376.75,45.95v370.5H16.35V45.95v-26.2h360.4V45.95z
				 M16.35,45.95h360.4"/>
		</g>
	</g>
</g>
<text transform="matrix(1 0 0 1 24.5493 37.3057)" fill="#FFFFFF" font-family="'Tahoma-Bold'" font-size="14">OUTER WING LEADING EDGE (612DR)</text>
<text transform="matrix(1 0 0 1 38.6997 223.6758)" font-family="'Tahoma'" font-size="12">Repair of the Pneumatic Deicer Boots</text>
<text transform="matrix(1 0 0 1 38.6997 241.6758)" fill="#0000FF" font-family="'Tahoma'" font-size="12">AMM TASK 30-11-00-300-802 </text>
<text transform="matrix(1 0 0 1 38.0991 268.376)" font-family="'Tahoma'" font-size="12">Temporary Repair for Disbonded De−Icing Boots (Wing) </text>
<text transform="matrix(1 0 0 1 38.0991 286.376)" fill="#0000FF" font-family="'Tahoma'" font-size="12">SRM 57-40-00-02-06</text>
<g>
	<g>
		<g>
			<path fill="#0099FF" d="M297.4,216.85c-1.066-0.567-1.683-1.467-1.85-2.7c-0.3-2.233,0.117-4.816,1.25-7.75
				c0.967-2.367,2.284-4.667,3.95-6.9c2.067-2.833,4.7-5.733,7.9-8.7c0.5-0.5,1.033-0.983,1.6-1.45l-206.5-91.1
				c5.2-3.867,9.7-6.883,13.5-9.05l205.35,90.6l-1.2,4.15c-9.167,7.6-14.6,14.566-16.3,20.9l17.4,6.95l0.2,0.55
				c-0.7,0.3-1.517,0.617-2.45,0.95l-0.3,0.1c-2.034,0.7-4.583,1.434-7.65,2.2l-3.4,0.85c-4.367,0.7-6.917,1.05-7.65,1.05
				C299.617,217.533,298.333,217.317,297.4,216.85z M316.85,210.05h-0.45l-0.1,0.05l0.1,0.1h0.45l0.05-0.05L316.85,210.05z
				 M308.65,206.95l0.05,0.1h0.45l0.05-0.05l-0.05-0.15l-0.25-0.05l-0.2,0.05L308.65,206.95z M312.55,208.65h0.4l0.15-0.05
				l-0.15-0.15h-0.4l-0.1,0.05L312.55,208.65z M320.7,211.65l-0.05-0.05l-0.2-0.05h-0.25l-0.05,0.1l0.05,0.1l0.25,0.05h0.2
				L320.7,211.65z"/>
			<path fill="#666666" d="M297.4,216.85L84.3,132.1c-0.367-0.1-0.7-0.233-1-0.4c-3.066-1.4-4-4.1-2.8-8.1
				c0.967-3.3,2.95-6.717,5.95-10.25c4.066-4.434,8.85-8.733,14.35-12.9c0.367-0.3,0.75-0.583,1.15-0.85
				c0.6-0.467,1.2-0.917,1.8-1.35l206.5,91.1c-0.567,0.467-1.1,0.95-1.6,1.45c-3.2,2.967-5.833,5.867-7.9,8.7
				c-1.667,2.233-2.983,4.533-3.95,6.9c-1.133,2.934-1.55,5.517-1.25,7.75C295.717,215.383,296.333,216.283,297.4,216.85z"/>
		</g>
	</g>
	<g>
		
			<line fill="none" stroke="#000000" stroke-width="0.5" stroke-miterlimit="5" x1="101.833" y1="99.583" x2="308.698" y2="190.83"/>
		<line fill="none" stroke="#000000" stroke-width="0.5" stroke-miterlimit="5" x1="103.606" y1="98.269" x2="310.34" y2="189.45"/>
		
			<line fill="none" stroke="#000000" stroke-width="0.5" stroke-miterlimit="5" x1="322.493" y1="211.851" x2="322.69" y2="212.376"/>
		<polyline fill="none" stroke="#000000" stroke-width="0.5" stroke-miterlimit="5" points="304.821,206.267 304.625,208.238 
			304.953,209.88 305.675,211.062 		"/>
		<path fill="none" stroke="#000000" stroke-width="0.5" stroke-miterlimit="5" d="M308.895,215.989
			c-3.635,0.701-6.065,1.051-7.292,1.051c-3.372,0-5.189-1.072-5.453-3.218c-0.832-9.065,7.927-20.124,26.277-33.175"/>
		<path fill="none" stroke="#000000" stroke-width="0.5" stroke-miterlimit="5" d="M312.113,215.201
			c4.555-1.139,8.015-2.256,10.38-3.35"/>
		
			<line fill="none" stroke="#000000" stroke-width="0.5" stroke-miterlimit="5" x1="308.895" y1="215.989" x2="311.982" y2="215.267"/>
		
			<line fill="none" stroke="#000000" stroke-width="0.5" stroke-miterlimit="5" x1="318.223" y1="210.537" x2="318.945" y2="211.719"/>
		<path fill="none" stroke="#000000" stroke-width="0.5" stroke-miterlimit="5" d="M305.675,211.062
			c0.438,0.35,0.964,0.569,1.577,0.657"/>
		<path fill="none" stroke="#000000" stroke-width="0.5" stroke-miterlimit="5" d="M307.252,211.719
			c1.445,0.219,3.285,0.175,5.518-0.131c1.095-0.131,2.913-0.46,5.453-0.985"/>
		<path fill="none" stroke="#000000" stroke-width="0.5" stroke-miterlimit="5" d="M321.376,183.997
			c-9.81,8.146-15.329,15.569-16.555,22.27"/>
		<polygon fill="none" stroke="#000000" stroke-width="0.5" stroke-miterlimit="5" points="320.653,211.654 320.456,211.588 
			320.194,211.588 320.128,211.719 320.194,211.785 320.456,211.851 320.653,211.851 320.719,211.719 		"/>
		<polygon fill="none" stroke="#000000" stroke-width="0.5" stroke-miterlimit="5" points="316.383,210.077 316.318,210.143 
			316.383,210.274 316.843,210.274 316.909,210.208 316.843,210.077 		"/>
		<polygon fill="none" stroke="#000000" stroke-width="0.5" stroke-miterlimit="5" points="312.573,208.5 312.441,208.566 
			312.573,208.698 312.968,208.698 313.099,208.632 312.968,208.5 		"/>
		<polygon fill="none" stroke="#000000" stroke-width="0.5" stroke-miterlimit="5" points="309.157,207.121 309.223,207.056 
			309.157,206.924 308.895,206.858 308.698,206.924 308.631,206.989 308.698,207.121 		"/>
		
			<line fill="none" stroke="#000000" stroke-width="0.5" stroke-miterlimit="5" x1="322.493" y1="211.851" x2="305.15" y2="204.887"/>
		<path fill="none" stroke="#000000" stroke-width="0.5" stroke-miterlimit="5" d="M308.895,216.515
			c-4.38,0.701-6.919,1.052-7.621,1.052c-3.503,0.043-5.409-1.073-5.715-3.351c-0.307-2.233,0.109-4.817,1.248-7.752
			c0.963-2.364,2.277-4.664,3.941-6.897c2.496-3.46,5.847-7.007,10.051-10.642c2.891-2.497,6.767-5.541,11.627-9.131"/>
		
			<line fill="none" stroke="#000000" stroke-width="0.5" stroke-miterlimit="5" x1="308.238" y1="211.457" x2="313.625" y2="209.88"/>
		
			<line fill="none" stroke="#000000" stroke-width="0.5" stroke-miterlimit="5" x1="313.625" y1="209.88" x2="304.821" y2="206.267"/>
		
			<line fill="none" stroke="#000000" stroke-width="0.5" stroke-miterlimit="5" x1="307.252" y1="211.719" x2="308.238" y2="211.457"/>
		<path fill="none" stroke="#000000" stroke-width="0.5" stroke-miterlimit="5" d="M296.807,215.004
			c0.307,0.263,0.832,0.482,1.577,0.657"/>
		
			<line fill="none" stroke="#000000" stroke-width="0.5" stroke-miterlimit="5" x1="315.201" y1="211.194" x2="312.705" y2="210.208"/>
		
			<line fill="none" stroke="#000000" stroke-width="0.5" stroke-miterlimit="5" x1="309.551" y1="211.851" x2="313.559" y2="210.603"/>
		
			<line fill="none" stroke="#000000" stroke-width="0.5" stroke-miterlimit="5" x1="310.405" y1="210.866" x2="311.391" y2="211.259"/>
		
			<line fill="none" stroke="#000000" stroke-width="0.5" stroke-miterlimit="5" x1="319.931" y1="213.427" x2="320.259" y2="213.362"/>
		<path fill="none" stroke="#000000" stroke-width="0.5" stroke-miterlimit="5" d="M298.384,215.661
			c1.357,0.219,3.481,0.131,6.372-0.263c5.211-0.832,9.941-2.036,14.189-3.613"/>
		<path fill="none" stroke="#000000" stroke-width="0.5" stroke-miterlimit="5" d="M312.311,215.661
			c4.642-1.183,8.102-2.277,10.379-3.285"/>
		
			<line fill="none" stroke="#000000" stroke-width="0.5" stroke-miterlimit="5" x1="308.895" y1="216.515" x2="312.179" y2="215.727"/>
		<path fill="none" stroke="#000000" stroke-width="0.5" stroke-miterlimit="5" d="M117.271,89.204
			c-4.511,2.584-10.007,6.351-16.488,11.299c-5.475,4.16-10.249,8.452-14.322,12.875c-3.021,3.547-5.014,6.963-5.978,10.248
			c-1.402,4.686,0.11,7.598,4.533,8.737"/>
		
			<line fill="none" stroke="#000000" stroke-width="0.5" stroke-miterlimit="5" x1="83.308" y1="131.772" x2="297.595" y2="216.975"/>
		
			<line fill="none" stroke="#000000" stroke-width="0.5" stroke-miterlimit="5" x1="117.271" y1="89.269" x2="322.427" y2="179.793"/>
		<path fill="none" stroke="#000000" stroke-width="0.5" stroke-miterlimit="5" d="M208.451,131.115
			c-0.263-0.175-0.569-0.263-0.919-0.263c-0.395,0-0.723,0.087-0.985,0.263c-0.263,0.131-0.395,0.307-0.395,0.525
			c0,0.526,0.46,0.788,1.38,0.788c0.875,0,1.314-0.262,1.314-0.788C208.846,131.422,208.714,131.247,208.451,131.115z
			 M187.43,123.561c0.876,0,1.313-0.241,1.313-0.723c0-0.525-0.438-0.788-1.313-0.788c-0.919,0-1.379,0.263-1.379,0.788
			C186.05,123.32,186.51,123.561,187.43,123.561z M198.4,126.648c0.263,0.132,0.394,0.307,0.394,0.525
			c0,0.525-0.438,0.789-1.313,0.789c-0.919,0-1.379-0.263-1.379-0.789c0-0.526,0.46-0.788,1.379-0.788
			C197.831,126.385,198.137,126.473,198.4,126.648z M228.947,140.443c0-0.481-0.46-0.722-1.379-0.722
			c-0.876,0-1.314,0.241-1.314,0.722c0,0.525,0.438,0.789,1.314,0.789C228.487,141.232,228.947,140.969,228.947,140.443z
			 M217.517,136.765c-0.876,0-1.314-0.241-1.314-0.723c0-0.525,0.438-0.789,1.314-0.789c0.92,0,1.38,0.263,1.38,0.789
			C218.896,136.524,218.437,136.765,217.517,136.765z M247.669,150.101c-0.35,0-0.679-0.088-0.985-0.263
			c-0.263-0.131-0.394-0.307-0.394-0.525c0-0.525,0.459-0.789,1.379-0.789s1.379,0.263,1.379,0.789c0,0.219-0.131,0.394-0.394,0.525
			C248.348,150.013,248.02,150.101,247.669,150.101z M238.998,144.845c0-0.22-0.132-0.395-0.394-0.526
			c-0.307-0.175-0.635-0.263-0.985-0.263s-0.679,0.088-0.985,0.263c-0.263,0.131-0.395,0.306-0.395,0.526
			c0,0.525,0.46,0.788,1.38,0.788C238.538,145.633,238.998,145.371,238.998,144.845z M257.72,154.436
			c0.876,0,1.314-0.24,1.314-0.722c0-0.525-0.438-0.789-1.314-0.789c-0.919,0-1.379,0.263-1.379,0.789
			C256.341,154.195,256.801,154.436,257.72,154.436z M269.085,158.115c0-0.481-0.438-0.723-1.314-0.723
			c-0.919,0-1.379,0.241-1.379,0.723c0,0.525,0.46,0.788,1.379,0.788C268.647,158.903,269.085,158.64,269.085,158.115z
			 M279.136,162.516c0,0.22-0.131,0.395-0.395,0.526c-0.262,0.175-0.569,0.262-0.919,0.262c-0.92,0-1.38-0.262-1.38-0.789
			c0-0.525,0.46-0.788,1.38-0.788C278.698,161.728,279.136,161.99,279.136,162.516z M318.025,179.202c0.92,0,1.38,0.263,1.38,0.789
			c0,0.526-0.46,0.789-1.38,0.789c-0.919,0-1.379-0.263-1.379-0.789c0-0.219,0.132-0.395,0.394-0.525
			C317.347,179.29,317.675,179.202,318.025,179.202z M307.843,176.574c-0.876,0-1.314-0.263-1.314-0.789
			c0-0.219,0.131-0.394,0.395-0.525c0.262-0.175,0.569-0.263,0.919-0.263c0.92,0,1.38,0.263,1.38,0.789
			C309.223,176.312,308.763,176.574,307.843,176.574z M297.858,170.597c0.919,0,1.379,0.24,1.379,0.722
			c0,0.525-0.46,0.789-1.379,0.789c-0.876,0-1.314-0.263-1.314-0.789C296.544,170.837,296.982,170.597,297.858,170.597z
			 M286.493,166.983c0-0.526,0.438-0.789,1.314-0.789c0.92,0,1.38,0.263,1.38,0.789c0,0.482-0.46,0.722-1.38,0.722
			C286.931,167.706,286.493,167.465,286.493,166.983z M137.241,101.488c-0.92,0-1.38-0.241-1.38-0.723
			c0-0.525,0.46-0.788,1.38-0.788c0.875,0,1.314,0.262,1.314,0.788C138.555,101.247,138.117,101.488,137.241,101.488z
			 M127.19,97.087c-0.919,0-1.379-0.263-1.379-0.789c0-0.482,0.46-0.723,1.379-0.723c0.876,0,1.313,0.241,1.313,0.723
			C128.503,96.824,128.066,97.087,127.19,97.087z M117.336,92.488c0.92,0,1.38-0.263,1.38-0.789c0-0.526-0.46-0.789-1.38-0.789
			c-0.35,0-0.657,0.088-0.919,0.263c-0.263,0.131-0.395,0.307-0.395,0.525C116.022,92.225,116.46,92.488,117.336,92.488z
			 M167.328,114.758c0.919,0,1.379-0.263,1.379-0.789c0-0.219-0.132-0.395-0.394-0.525c-0.307-0.175-0.635-0.263-0.985-0.263
			c-0.351,0-0.679,0.088-0.985,0.263c-0.263,0.131-0.395,0.306-0.395,0.525C165.948,114.495,166.408,114.758,167.328,114.758z
			 M157.277,110.356c0.919,0,1.379-0.263,1.379-0.788s-0.46-0.789-1.379-0.789c-0.876,0-1.314,0.263-1.314,0.789
			S156.401,110.356,157.277,110.356z M177.379,119.159c0.92,0,1.379-0.263,1.379-0.788c0-0.482-0.459-0.723-1.379-0.723
			S176,117.889,176,118.371C176,118.896,176.459,119.159,177.379,119.159z M147.226,104.378c-0.875,0-1.313,0.263-1.313,0.788
			c0,0.22,0.131,0.395,0.395,0.525c0.262,0.175,0.569,0.263,0.919,0.263c0.92,0,1.38-0.263,1.38-0.789
			S148.146,104.378,147.226,104.378z"/>
	</g>
</g>
<g>
	<g>
		<g>
			<path fill="#0099FF" fill-opacity="0.298" d="M16.5,233.6v-18.8h9.3c0.034,0,0.067,0,0.1,0c2.6,0,4.817,0.917,6.65,2.75
				s2.75,4.05,2.75,6.65c0,2.6-0.917,4.816-2.75,6.65c-1.833,1.833-4.05,2.75-6.65,2.75c-0.033,0-0.066,0-0.1,0H16.5L16.5,233.6z"/>
			<path fill="none" stroke="#B1B1B1" stroke-linecap="round" stroke-linejoin="round" stroke-miterlimit="3" d="M16.5,214.8h9.3
				c0.034,0,0.067,0,0.1,0c2.6,0,4.817,0.917,6.65,2.75s2.75,4.05,2.75,6.65c0,2.6-0.917,4.816-2.75,6.65
				c-1.833,1.833-4.05,2.75-6.65,2.75c-0.033,0-0.066,0-0.1,0h-9.3"/>
		</g>
	</g>
	<g>
		<polygon points="23.939,230.958 23.939,229.42 25.017,229.42 25.017,223.008 23.939,223.008 23.939,221.521 27.94,221.521 
			27.94,229.42 28.966,229.42 28.966,230.958 		"/>
		<path d="M24.812,220.033c-0.376-0.342-0.564-0.787-0.564-1.333c0-0.546,0.188-0.992,0.564-1.333
			c0.376-0.376,0.821-0.565,1.333-0.565c0.547,0,1.009,0.188,1.384,0.565c0.377,0.342,0.565,0.787,0.565,1.333
			c0,0.546-0.188,0.992-0.565,1.333c-0.375,0.375-0.837,0.564-1.384,0.564C25.632,220.597,25.188,220.409,24.812,220.033z"/>
	</g>
</g>
<g>
	<text transform="matrix(1 0 0 1 37.6997 327.6055)" font-family="'Tahoma'" font-size="14">Parts Boot</text>
	<text transform="matrix(1 0 0 1 37.6997 348.6055)" font-family="'Tahoma'" font-size="14">Parts L/E</text>
	<text transform="matrix(1 0 0 1 37.6997 369.6055)" font-family="'Tahoma'" font-size="14">Removal</text>
	<text transform="matrix(1 0 0 1 37.6997 390.6055)" font-family="'Tahoma'" font-size="14">Installation</text>
	
		<use xlink:href="#TR_x5F_neu"  width="39.328" height="19.162" x="-19.664" y="-9.581" transform="matrix(1 0 0 -1 333.8745 341.4521)" overflow="visible"/>
	
		<use xlink:href="#TR_x5F_neu"  width="39.328" height="19.162" x="-19.664" y="-9.581" transform="matrix(1 0 0 -1 333.8745 386.4521)" overflow="visible"/>
	
		<use xlink:href="#TR_x5F_neu"  width="39.328" height="19.162" x="-19.664" y="-9.581" transform="matrix(1 0 0 -1 333.8745 363.9521)" overflow="visible"/>
	
		<use xlink:href="#TR_x5F_neu"  width="39.328" height="19.162" id="XMLID_1_" x="-19.664" y="-9.581" transform="matrix(1 0 0 -1 333.8745 320.4521)" overflow="visible"/>
</g>
<text transform="matrix(1 0 0 1 116.5991 327.6553)" fill="#0000FF" font-family="'Tahoma'" font-size="14">AIPC 30-11-66-01</text>
<text transform="matrix(1 0 0 1 116.5991 348.6553)" fill="#0000FF" font-family="'Tahoma'" font-size="14">AIPC 57-23-00-01</text>
<text transform="matrix(1 0 0 1 116.5991 369.6553)" fill="#0000FF" font-family="'Tahoma'" font-size="14">AMM TASK 57-23-01-000-801</text>
<text transform="matrix(1 0 0 1 116.5991 390.6553)" fill="#0000FF" font-family="'Tahoma'" font-size="14">AMM TASK 57-23-01-400-801</text>
<use xlink:href="#info3"  width="36.05" height="36.1" x="-18.025" y="-18.05" transform="matrix(0.7374 0 0 -0.7374 360.4258 32.8945)" overflow="visible"/>
</svg>
