<?xml version="1.0" encoding="utf-8"?>
<!-- Generator: Adobe Illustrator 16.2.1, SVG Export Plug-In . SVG Version: 6.00 Build 0)  -->
<!DOCTYPE svg PUBLIC "-//W3C//DTD SVG 1.1//EN" "http://www.w3.org/Graphics/SVG/1.1/DTD/svg11.dtd">
<svg version="1.1" id="Selected_Items" xmlns="http://www.w3.org/2000/svg" xmlns:xlink="http://www.w3.org/1999/xlink" x="0px"
	 y="0px" width="1291.05px" height="941.6px" viewBox="0 0 1291.05 941.6" enable-background="new 0 0 1291.05 941.6"
	 xml:space="preserve">
<symbol  id="TR_x5F_neu" viewBox="0.01 -20.534 39.329 19.163">
	<g id="Ebene_3_3_">
		<path fill-rule="evenodd" clip-rule="evenodd" fill="#BDBDBA" d="M0.01-4.997c0,2.417,1.208,3.625,3.625,3.625h32.078
			c2.417,0,3.625-1.208,3.625-3.625v-11.912c0-2.417-1.208-3.625-3.625-3.625H3.635c-2.417,0-3.625,1.208-3.625,3.625V-4.997z"/>
		<path fill-rule="evenodd" clip-rule="evenodd" fill="#57A0CA" d="M4.157-1.811h31.06c2.342,0,3.513-1.171,3.513-3.513V-16.59
			c0-2.342-1.171-3.513-3.513-3.513H4.157c-2.371,0-3.556,1.171-3.556,3.513v11.267C0.601-2.981,1.786-1.811,4.157-1.811z"/>
		<g>
			<path fill-rule="evenodd" clip-rule="evenodd" fill="#FFFFFF" d="M33.95-3.15c2.233,0,3.35-1.1,3.35-3.3v-9
				c0-2.2-1.117-3.3-3.35-3.3H5.4c-2.233,0-3.35,1.1-3.35,3.3v9c0,2.2,1.117,3.3,3.35,3.3H33.95z"/>
		</g>
		<text transform="matrix(1 0 0 -1 10.1313 -15.7051)" fill="#57A0CA" font-family="'Tahoma-Bold'" font-size="14">TR</text>
	</g>
</symbol>
<symbol  id="info2" viewBox="0.25 -36.35 36.05 36.1">
	<g id="Ebene_3_2_">
		<g>
			<g>
				<linearGradient id="SVGID_1_" gradientUnits="userSpaceOnUse" x1="5.5122" y1="-5.5132" x2="30.9872" y2="-30.9882">
					<stop  offset="0.0196" style="stop-color:#E0DFDD"/>
					<stop  offset="1" style="stop-color:#84827E"/>
				</linearGradient>
				<path fill-rule="evenodd" clip-rule="evenodd" fill="url(#SVGID_1_)" d="M31-31c-3.533-3.533-7.783-5.317-12.75-5.35
					c-4.967,0-9.2,1.783-12.7,5.35c-3.566,3.5-5.333,7.717-5.3,12.65c0,5,1.767,9.25,5.3,12.75c3.534,3.567,7.767,5.35,12.7,5.35
					c4.967,0,9.217-1.767,12.75-5.3c3.533-3.534,5.3-7.767,5.3-12.7C36.3-23.217,34.533-27.467,31-31z"/>
				<g>
					<g>
						<g>
							<path fill-rule="evenodd" clip-rule="evenodd" fill="#57A0CA" d="M30.25-6.15c3.333-3.333,5-7.333,5-12
								c0-4.667-1.667-8.65-5-11.95c-3.267-3.333-7.233-5-11.9-5c-4.7,0-8.717,1.667-12.05,5c-3.267,3.3-4.9,7.283-4.9,11.95
								c0,4.667,1.633,8.667,4.9,12c3.333,3.3,7.35,4.95,12.05,4.95C23.017-1.2,26.983-2.85,30.25-6.15z"/>
						</g>
						<g>
							<path fill-rule="evenodd" clip-rule="evenodd" fill="#FFFFFF" d="M28.95-7.5c2.933-2.933,4.4-6.45,4.4-10.55
								c0-4.1-1.467-7.617-4.4-10.55c-2.934-2.933-6.434-4.4-10.5-4.4c-4.133,0-7.667,1.467-10.6,4.4
								c-2.934,2.934-4.4,6.45-4.4,10.55c0,4.1,1.466,7.617,4.4,10.55c2.933,2.933,6.467,4.4,10.6,4.4
								C22.517-3.1,26.017-4.567,28.95-7.5z"/>
						</g>
					</g>
				</g>
			</g>
		</g>
		<g>
			<g>
				<polygon fill-rule="evenodd" clip-rule="evenodd" fill="#CCCCCC" points="13.261,-16.937 13.261,-14.39 20.163,-14.39 
					20.163,-28.01 21.935,-28.01 21.935,-30.667 13.261,-30.667 13.261,-28.01 15.106,-28.01 15.106,-16.937 				"/>
				<path fill-rule="evenodd" clip-rule="evenodd" fill="#CCCCCC" d="M15.224-11.914c-0.649,0.591-0.974,1.356-0.974,2.301
					s0.324,1.711,0.974,2.302c0.648,0.648,1.416,0.973,2.301,0.973c0.944,0,1.741-0.324,2.389-0.973
					c0.649-0.591,0.975-1.357,0.975-2.302s-0.325-1.71-0.975-2.301c-0.647-0.649-1.444-0.973-2.389-0.973
					C16.64-12.887,15.872-12.563,15.224-11.914z"/>
			</g>
			<g>
				<polygon fill-rule="evenodd" clip-rule="evenodd" fill="#343433" points="22.996,-27.226 22.996,-29.881 14.323,-29.881 
					14.323,-27.226 16.182,-27.226 16.182,-16.164 14.323,-16.164 14.323,-13.598 21.226,-13.598 21.226,-27.226 				"/>
				<path fill-rule="evenodd" clip-rule="evenodd" fill="#343433" d="M18.074-12.086c-0.885,0-1.652,0.323-2.301,0.973
					C15.124-10.522,14.8-9.757,14.8-8.812s0.324,1.711,0.974,2.302c0.648,0.648,1.416,0.973,2.301,0.973
					c0.944,0,1.741-0.324,2.389-0.973c0.649-0.591,0.975-1.357,0.975-2.302s-0.325-1.71-0.975-2.301
					C19.815-11.763,19.019-12.086,18.074-12.086z"/>
			</g>
		</g>
	</g>
</symbol>
<symbol  id="unit1" viewBox="0 -19.85 98 19.85">
	<g id="Ebene_3_5_">
		<path fill-rule="evenodd" clip-rule="evenodd" fill="#CCCCCC" d="M98,0v-12.35c0-5-2.5-7.5-7.5-7.5h-83c-5,0-7.5,2.5-7.5,7.5V0H98
			z"/>
	</g>
	<text transform="matrix(1 0 0 -1 22.041 -13.3257)" fill="#0099FF" font-family="'Tahoma'" font-size="12">Reservoir</text>
</symbol>
<symbol  id="unit2" viewBox="-37.133 -19.85 135.133 19.887">
	<g id="Ebene_3_4_">
		<path fill-rule="evenodd" clip-rule="evenodd" fill="#CCCCCC" d="M98-12.35c0-5-2.5-7.5-7.5-7.5h-83c-5,0-7.5,2.5-7.5,7.5V0h98
			V-12.35z"/>
	</g>
	<text transform="matrix(1 0 0 -1 -37.1328 -10.3257)" fill="#0099FF" font-family="'Tahoma'" font-size="12">Temp. Switches</text>
</symbol>
<symbol  id="verkn">
</symbol>
<g id="Ebene_2">
	<rect x="16.35" y="19.65" fill-rule="evenodd" clip-rule="evenodd" fill="#FFFFFF" width="360.4" height="395.8"/>
</g>
<g>
	<g>
		<g>
			<rect x="16.45" y="19.6" fill-rule="evenodd" clip-rule="evenodd" fill="#0099FF" width="360.2" height="26.4"/>
		</g>
		<g>
			<path fill-rule="evenodd" clip-rule="evenodd" fill="none" stroke="#999999" stroke-miterlimit="6.92" d="M376.75,45.95v370.5
				H16.35V45.95v-26.2h360.4V45.95z M16.35,45.95h360.4"/>
		</g>
	</g>
</g>
<text transform="matrix(1 0 0 1 24.5498 37.3052)" fill="#FFFFFF" font-family="'Tahoma-Bold'" font-size="14">No.1 Hydraulic System Reservoir</text>
<use xlink:href="#verkn"  width="-32766" height="-32766" x="16383" y="16383" transform="matrix(1 0 0 -1 113.8501 358.7002)" overflow="visible"/>
<use xlink:href="#verkn"  width="-32766" height="-32766" x="16383" y="16383" transform="matrix(1 0 0 -1 114.6001 379.7002)" overflow="visible"/>
<use xlink:href="#verkn"  width="-32766" height="-32766" x="16383" y="16383" transform="matrix(1 0 0 -1 114.25 338.25)" overflow="visible"/>
<text transform="matrix(1 0 0 1 115.75 348.7051)"><tspan x="0" y="0" fill="#0000FF" font-family="'Tahoma'" font-size="14">AIPC 29-30-06-01 </tspan><tspan x="0" y="21" fill="#0000FF" font-family="'Tahoma'" font-size="14">AMM TASK 29-11-56-000-801</tspan><tspan x="0" y="42" fill="#0000FF" font-family="'Tahoma'" font-size="14">AMM TASK 29-11-56-400-801</tspan></text>
<g>
	<text transform="matrix(1 0 0 1 37.7002 327.605)"><tspan x="0" y="0" font-family="'Tahoma-Bold'" font-size="14">275 째F Temperature Switch </tspan><tspan x="0" y="21" font-family="'Tahoma'" font-size="14">Parts</tspan><tspan x="0" y="42" font-family="'Tahoma'" font-size="14">Removal</tspan><tspan x="0" y="63" font-family="'Tahoma'" font-size="14">Installation</tspan></text>
	
		<use xlink:href="#TR_x5F_neu"  width="39.329" height="19.163" x="0.01" y="-20.534" transform="matrix(1 0 0 -1 314.2002 330)" overflow="visible"/>
	
		<use xlink:href="#TR_x5F_neu"  width="39.329" height="19.163" x="0.01" y="-20.534" transform="matrix(1 0 0 -1 314.2002 376.5)" overflow="visible"/>
	
		<use xlink:href="#TR_x5F_neu"  width="39.329" height="19.163" x="0.01" y="-20.534" transform="matrix(1 0 0 -1 314.2002 353.25)" overflow="visible"/>
</g>
<use xlink:href="#verkn"  width="-32766" height="-32766" x="16383" y="16383" transform="matrix(1 0 0 -1 113.8501 261.2002)" overflow="visible"/>
<use xlink:href="#verkn"  width="-32766" height="-32766" x="16383" y="16383" transform="matrix(1 0 0 -1 114.6001 282.2002)" overflow="visible"/>
<use xlink:href="#verkn"  width="-32766" height="-32766" x="16383" y="16383" transform="matrix(1 0 0 -1 114.25 240.75)" overflow="visible"/>
<text transform="matrix(1 0 0 1 115.75 251.2051)"><tspan x="0" y="0" fill="#0000FF" font-family="'Tahoma'" font-size="14">AIPC 29-30-06-01 </tspan><tspan x="0" y="21" fill="#0000FF" font-family="'Tahoma'" font-size="14">AMM TASK 29-30-06-000-801</tspan><tspan x="0" y="42" fill="#0000FF" font-family="'Tahoma'" font-size="14">AMM TASK 29-30-06-400-801</tspan></text>
<g>
	<text transform="matrix(1 0 0 1 37.7002 230.105)"><tspan x="0" y="0" font-family="'Tahoma-Bold'" font-size="14">225 째F Temperature Switch </tspan><tspan x="0" y="21" font-family="'Tahoma'" font-size="14">Parts</tspan><tspan x="0" y="42" font-family="'Tahoma'" font-size="14">Removal</tspan><tspan x="0" y="63" font-family="'Tahoma'" font-size="14">Installation</tspan></text>
	
		<use xlink:href="#TR_x5F_neu"  width="39.329" height="19.163" id="XMLID_2_" x="0.01" y="-20.534" transform="matrix(1 0 0 -1 314.2002 231.5)" overflow="visible"/>
	
		<use xlink:href="#TR_x5F_neu"  width="39.329" height="19.163" x="0.01" y="-20.534" transform="matrix(1 0 0 -1 314.2002 278)" overflow="visible"/>
	
		<use xlink:href="#TR_x5F_neu"  width="39.329" height="19.163" x="0.01" y="-20.534" transform="matrix(1 0 0 -1 314.2002 254.75)" overflow="visible"/>
</g>
<g>
	<text transform="matrix(1 0 0 1 100.8203 145.7051)" font-family="'Tahoma'" font-size="14">2911-P10</text>
	<g>
		
			<rect x="90.35" y="127.9" fill-rule="evenodd" clip-rule="evenodd" fill="none" stroke="#FF9900" stroke-linecap="round" stroke-linejoin="round" stroke-miterlimit="3" width="84" height="27.75"/>
	</g>
</g>
<g>
	<text transform="matrix(1 0 0 1 277.5703 145.7051)" font-family="'Tahoma'" font-size="14">2911-P12</text>
	<g>
		
			<rect x="265.1" y="127.9" fill-rule="evenodd" clip-rule="evenodd" fill="none" stroke="#FF9900" stroke-linecap="round" stroke-linejoin="round" stroke-miterlimit="3" width="84" height="27.75"/>
	</g>
</g>
<rect x="39.4" y="132.465" fill="none" width="148" height="21"/>
<text transform="matrix(1 0 0 1 41.3999 145.105)" font-family="'Tahoma'" font-size="14">225 째F</text>
<rect x="214.35" y="132.465" fill="none" width="148" height="21"/>
<text transform="matrix(1 0 0 1 216.3501 145.105)" font-family="'Tahoma'" font-size="14">275 째F</text>
<g>
	<text transform="matrix(1 0 0 1 277.5703 103.7051)" font-family="'Tahoma'" font-size="14">2911-P17</text>
	<g>
		
			<rect x="265.1" y="85.9" fill-rule="evenodd" clip-rule="evenodd" fill="none" stroke="#FF9900" stroke-linecap="round" stroke-linejoin="round" stroke-miterlimit="3" width="84" height="27.75"/>
	</g>
</g>
<text transform="matrix(1 0 0 1 90.25 101.2051)" font-family="'Tahoma'" font-size="14">HYD. FLUID RES. QTY. SW.</text>
<use xlink:href="#unit2"  width="135.133" height="19.887" x="-37.133" y="-19.85" transform="matrix(1 0 0 -1 119.6499 46.4502)" overflow="visible"/>
<use xlink:href="#unit1"  width="98" height="19.85" id="XMLID_1_" y="-19.85" transform="matrix(1 0 0 -1 19.6499 46.4502)" overflow="visible"/>
<g>
	<g>
		<path fill-rule="evenodd" clip-rule="evenodd" fill="#0099FF" d="M217.7,62.05c0,5-2.5,7.5-7.5,7.5h-83c-5,0-7.5-2.5-7.5-7.5V45.7
			h98V62.05z"/>
	</g>
	<text transform="matrix(1 0 0 1 126.5669 63.0259)" fill="#FFFFFF" font-family="'Tahoma'" font-size="12">Temp. Switches</text>
</g>
<use xlink:href="#info2"  width="36.05" height="36.1" x="0.25" y="-36.35" transform="matrix(0.7374 0 0 -0.7374 343.8999 19.4502)" overflow="visible"/>
</svg>
