<?xml version="1.0" encoding="utf-8"?>
<!-- Generator: Adobe Illustrator 16.2.1, SVG Export Plug-In . SVG Version: 6.00 Build 0)  -->
<!DOCTYPE svg PUBLIC "-//W3C//DTD SVG 1.1//EN" "http://www.w3.org/Graphics/SVG/1.1/DTD/svg11.dtd">
<svg version="1.1" id="Selected_Items" xmlns="http://www.w3.org/2000/svg" xmlns:xlink="http://www.w3.org/1999/xlink" x="0px"
	 y="0px" width="1291.05px" height="941.6px" viewBox="0 0 1291.05 941.6" enable-background="new 0 0 1291.05 941.6"
	 xml:space="preserve">
<symbol  id="TR_x5F_neu" viewBox="-19.664 -9.581 39.328 19.162">
	<g id="Ebene_3_1_">
		<path fill="#BDBDBA" d="M-19.664,5.956c0,2.417,1.208,3.625,3.625,3.625h32.078c2.417,0,3.625-1.208,3.625-3.625V-5.956
			c0-2.417-1.208-3.625-3.625-3.625h-32.078c-2.417,0-3.625,1.208-3.625,3.625V5.956z"/>
		<path fill="#57A0CA" d="M-15.517,9.143h31.06c2.342,0,3.513-1.172,3.513-3.514V-5.637c0-2.342-1.171-3.513-3.513-3.513h-31.06
			c-2.371,0-3.556,1.171-3.556,3.513V5.63C-19.073,7.972-17.888,9.143-15.517,9.143z"/>
		<g>
			<path fill="#FFFFFF" d="M14.276,7.803c2.233,0,3.35-1.1,3.35-3.3v-9c0-2.2-1.117-3.3-3.35-3.3h-28.55c-2.233,0-3.35,1.1-3.35,3.3
				v9c0,2.2,1.117,3.3,3.35,3.3H14.276z"/>
		</g>
		<text transform="matrix(1 0 0 -1 -9.5425 -4.752)" fill="#57A0CA" font-family="'Tahoma-Bold'" font-size="14">TR</text>
	</g>
</symbol>
<g id="Ebene_2">
	<rect x="16.35" y="19.65" fill="#FFFFFF" width="360.4" height="395.8"/>
</g>
<g>
	<g>
		<g>
			<rect x="16.45" y="19.6" fill="#0099FF" width="360.2" height="26.4"/>
		</g>
		<g>
			<path fill="none" stroke="#999999" stroke-miterlimit="6.92" d="M376.75,45.95v370.5H16.35V45.95v-26.2h360.4V45.95z
				 M16.35,45.95h360.4"/>
		</g>
	</g>
</g>
<text transform="matrix(1 0 0 1 24.5493 37.3057)" fill="#FFFFFF" font-family="'Tahoma-Bold'" font-size="14">Hydraulic System Filter Elements</text>
<text transform="matrix(1 0 0 1 37.6997 205.1055)" font-family="'Tahoma'" font-size="14">Parts</text>
<text transform="matrix(1 0 0 1 37.6997 226.1055)" font-family="'Tahoma'" font-size="14">Hydraulic System </text>
<text transform="matrix(1 0 0 1 148.5034 226.1055)" font-family="'Tahoma-Bold'" font-size="14">Pressure</text>
<text transform="matrix(1 0 0 1 209.8423 226.1055)" font-family="'Tahoma'" font-size="14">−Filter Elements</text>
<text transform="matrix(1 0 0 1 37.6997 247.1055)" font-family="'Tahoma'" font-size="14">Rem.</text>
<text transform="matrix(1 0 0 1 37.6997 268.1055)" font-family="'Tahoma'" font-size="14">Inst.</text>
<text transform="matrix(1 0 0 1 37.6997 289.1055)" font-family="'Tahoma'" font-size="14">Hydraulic System </text>
<text transform="matrix(1 0 0 1 148.5034 289.1055)" font-family="'Tahoma-Bold'" font-size="14">Return</text>
<text transform="matrix(1 0 0 1 196.7925 289.1055)" font-family="'Tahoma'" font-size="14">−Filter Elements</text>
<text transform="matrix(1 0 0 1 37.6997 310.1055)" font-family="'Tahoma'" font-size="14">Rem.</text>
<text transform="matrix(1 0 0 1 37.6997 331.1055)" font-family="'Tahoma'" font-size="14">Inst.</text>
<text transform="matrix(1 0 0 1 37.6997 352.1055)" font-family="'Tahoma'" font-size="14">Hydraulic System </text>
<text transform="matrix(1 0 0 1 148.5034 352.1055)" font-family="'Tahoma-Bold'" font-size="14">Case−Drain</text>
<text transform="matrix(1 0 0 1 231.4438 352.1055)" font-family="'Tahoma'" font-size="14"> Filter Elements</text>
<text transform="matrix(1 0 0 1 37.6997 373.1055)" font-family="'Tahoma'" font-size="14">Rem.</text>
<text transform="matrix(1 0 0 1 37.6997 394.1055)" font-family="'Tahoma'" font-size="14">Inst.</text>
<use xlink:href="#TR_x5F_neu"  width="39.328" height="19.162" x="-19.664" y="-9.581" transform="matrix(1 0 0 -1 333.8745 391.4521)" overflow="visible"/>
<use xlink:href="#TR_x5F_neu"  width="39.328" height="19.162" x="-19.664" y="-9.581" transform="matrix(1 0 0 -1 333.8745 369.7021)" overflow="visible" enable-background="new    "/>
<use xlink:href="#TR_x5F_neu"  width="39.328" height="19.162" x="-19.664" y="-9.581" transform="matrix(1 0 0 -1 333.8745 327.7021)" overflow="visible" enable-background="new    "/>
<use xlink:href="#TR_x5F_neu"  width="39.328" height="19.162" x="-19.664" y="-9.581" transform="matrix(1 0 0 -1 333.8745 305.9526)" overflow="visible" enable-background="new    "/>
<use xlink:href="#TR_x5F_neu"  width="39.328" height="19.162" id="XMLID_1_" x="-19.664" y="-9.581" transform="matrix(1 0 0 -1 333.8745 201.2026)" overflow="visible" enable-background="new    "/>
<use xlink:href="#TR_x5F_neu"  width="39.328" height="19.162" x="-19.664" y="-9.581" transform="matrix(1 0 0 -1 333.8745 263.7026)" overflow="visible" enable-background="new    "/>
<use xlink:href="#TR_x5F_neu"  width="39.328" height="19.162" x="-19.664" y="-9.581" transform="matrix(1 0 0 -1 333.8745 241.9526)" overflow="visible" enable-background="new    "/>
<text transform="matrix(1 0 0 1 117.5493 205.7549)" fill="#0000FF" font-family="'Tahoma'" font-size="14">AIPC 29-11-31-01</text>
<text transform="matrix(1 0 0 1 117.5493 247.7549)" fill="#0000FF" font-family="'Tahoma'" font-size="14">AMM TASK 29-11-32-000-801</text>
<text transform="matrix(1 0 0 1 117.5493 268.7549)" fill="#0000FF" font-family="'Tahoma'" font-size="14">AMM TASK 29-11-32-400-801</text>
<text transform="matrix(1 0 0 1 117.5493 310.7549)" fill="#0000FF" font-family="'Tahoma'" font-size="14">AMM TASK 29-11-33-000-801</text>
<text transform="matrix(1 0 0 1 117.5493 331.7549)" fill="#0000FF" font-family="'Tahoma'" font-size="14">AMM TASK 29-11-33-400-801</text>
<text transform="matrix(1 0 0 1 117.5493 373.7549)" fill="#0000FF" font-family="'Tahoma'" font-size="14">AMM TASK 29-11-34-000-801</text>
<text transform="matrix(1 0 0 1 117.5493 394.7549)" fill="#0000FF" font-family="'Tahoma'" font-size="14">AMM TASK 29-11-34-400-801</text>
<g>
	<path fill="#0099FF" d="M192.75,58.7l0.1,0.15L193,59l0.25,0.35l0.05,0.2l0.1,0.2l0.05,0.2l0.1,0.15l0.2,0.6v0.55h-0.05v1.5
		l-0.2,0.4l-0.1,0.35l-0.9,1.45l-1.4,1.3l-0.8,0.6l-3.05,1.45l-1.85,0.5l-3.95,0.6l-3.5-0.05l-2.05-0.25l-4.15-1.25l-1.5-0.75
		L169,66.25l-1.4-1.3l-0.5-0.7l-0.5-1.1l-0.15-0.45v-1.1h-0.15v-0.55l0.35-1.3l0.15-0.2l0.3-0.55l0.5-0.7l0.35-0.3l0.15-0.25
		l0.2-0.15l-0.05,0.1l-0.1,0.05l-0.05,0.2l-0.15,0.1v0.1l-0.2,0.3l-0.2,0.55l-0.05,0.1v0.15l-0.1,0.1v0.45l-0.05,0.15v0.8l0.05,0.4
		l0.55,1.5l0.4,0.7L168.9,64l1,0.9l2.1,1.3l1.05,0.35l0.45,0.25l2.2,0.65l3.7,0.4l3.15-0.1L185,67.3l2.6-0.85l1.8-0.95l1.5-1.15
		l1.1-1.25l0.4-0.7l0.25-0.75l0.1-1.7l-0.05-0.2v-0.1l-0.05-0.15v-0.15l-0.05-0.15l-0.05-0.1v-0.15l-0.15-0.25v-0.1l-0.15-0.15
		l-0.05-0.25l-0.1-0.15l-0.1-0.1l-0.05-0.1l-0.3-0.4V57.4l0.4,0.35l0.3,0.4l0.3,0.3L192.75,58.7z M189.85,55.5L189.6,56l0.75,0.4
		l-0.2,0.2l1.05,1l0.05,0.1l0.1,0.15L191.4,58l0.1,0.1l0.25,0.35l0.05,0.05l0.05,0.2l0.2,0.5v0.05l0.15,0.25v0.45l0.05,0.15v0.75
		l-0.05,0.3l-0.1,0.3l-0.05,0.4l-0.45,0.95l-0.75,0.9l-1.7,1.35l-1.25,0.7l-2.5,0.95l-2.3,0.45l-3.05,0.25l-2.5-0.2l-4.35-1.05
		l-1.45-0.65l-1.2-0.75l-1.55-1.4l-0.85-1.3l-0.3-0.95v-0.4l-0.05-0.3v-0.3l0.05-0.1v-0.25l0.1-0.1v-0.4L168.1,59l0.05-0.2l0.25-0.5
		l0.1-0.15l0.05-0.1l0.15-0.1v-0.1l0.15-0.15l0.05-0.15l0.85-0.85l0.15-0.1l0.15-0.15l-0.1-0.15l0.1-0.05l0.2-0.15l0.25-0.1
		l-0.3-0.5l-0.35,0.35l0.1-0.2l1.8-1.55l3.45-1.5l3.7-0.55l1.3,0.05v0.95h0.35v-0.9l2.25,0.05l3.05,0.75l2.45,1.15l1.35,1.05
		l0.4,0.5L189.85,55.5z M192.2,65.95l0.95-1.05l0.55-0.8v2.6h0.05l-0.3,0.9l-0.5,1.05l-0.85,1.05l-0.3,0.3l-1.55,1.2l-3.65,1.6
		l-3.1,0.7l-2.75,0.2l-4.15-0.2l-3.1-0.7l-3.15-1.35L168.3,70l-0.35-0.3l-0.75-1.05l-0.55-1.05l-0.2-0.75v-2.7l0.2,0.4l0.55,0.75
		l2.3,1.95l3.2,1.55l2.5,0.65l4.85,0.5l4.85-0.5l3.1-0.9l2.55-1.3L192.2,65.95z M186.75,73.3l2.25-0.9l1.5-0.8l1.25-0.9l1.05-1
		l0.55-0.75l0.55-1.2l0.25-0.8l0.1-0.85v-0.15h-0.05V65.1h-0.05v-1.15L194.2,64l0.05,0.1l0.1,0.1l0.15,0.25l0.15,0.35l0.15,0.1
		l0.1,0.2l0.05,0.2l0.25,0.4l0.05,0.2v0.2l0.1,0.1l0.05,0.15v0.35l0.1,0.15v0.3l0.05,0.15v0.15h-0.15v1.35l-0.35,0.9l-0.4,0.75
		l-0.3,0.4l-1.8,1.85l-0.9,0.6l-2.8,1.45l-5.55,1.35l-2.25,0.15l-4.65-0.3l-2.8-0.6l-4.25-1.7l-2.25-1.7l-1.5-1.9l-0.45-1.25
		l-0.2-0.85v-0.9l0.05-0.1V66.7l0.1-0.05V66.5l0.05-0.15v-0.3l0.75-1.45v2.65h0.15l0.45,1.3l0.5,0.75l1.35,1.4l1.7,1.2l3.3,1.4
		l3.85,0.75h5.7L186.75,73.3z M195.4,70.15v1.65l-0.15,1.2l-0.35,0.85l-0.55,0.95h-0.25v0.3l-1.25,1.2h-0.35v0.35l-0.55,0.5
		l-0.8,0.5V77.6h-0.55v0.35l-1.85,0.85h-0.1v0.05l-1.65,0.5V79.3h-0.5v0.2l-0.4,0.1l-2.85,0.45h-5.45v-0.2h-0.5v0.2h-0.2l-2.9-0.45
		l-2.3-0.7v-0.35h-0.5v0.15l-1.9-0.85V77.5H169v0.05l-1.6-1.15v-0.1h-0.05l-0.25-0.2l-1.5-1.85l-0.6-1.6l-0.05-2.9l0.2,0.55
		l0.55,0.9l1.1,1.15l1.35,1.1l3.3,1.75l2,0.65l3.65,0.7l1.55,0.15h3.25l5.1-0.85l2.65-0.9l2.25-1.2l1.4-1.05l0.8-0.75l1.25-1.65
		L195.4,70.15z M179.35,80.8l1.2-0.05v89.45l-2.75-0.05v-89.5L179.35,80.8z M177.3,80.6v89.5l-2.5-0.35h-0.1V80.1l1.6,0.4
		L177.3,80.6z M169,78.1v89.45l-0.85-0.5l-0.75-0.6V77l1.2,0.9L169,78.1z M171.4,79.3v89.35l-1.7-0.7l-0.2-0.1v-89.5L171.4,79.3z
		 M166.85,76.55v89.4l-0.95-1.1v-89.3l0.15,0.2L166.85,76.55z M165.4,74.85v89.3l-0.4-0.8l-0.05-0.25v-0.05l-0.2-1v-88.6l0.4,1.05
		L165.4,74.85z M174.2,80v89.6l-1.45-0.4l-0.85-0.35V79.4L174.2,80z M193.15,76.85l0.95-0.9v89.15l-0.1,0.15l-1.05,1.05V77
		L193.15,76.85z M195.2,74.5l0.15-0.4v88.1h0.05l-0.2,1.15l-0.25,0.35l-0.15,0.45l-0.15,0.2V75.3L195.2,74.5z M191.75,77.9
		l0.75-0.55v89.3l-1,0.7l-0.35,0.15V78.2L191.75,77.9z M190.6,78.5v89.25l-1.4,0.65V79.15L190.6,78.5z M188.65,79.35v89.3l-1.2,0.55
		l-0.45,0.15V79.8L188.65,79.35z M186.5,79.9v89.55l-1.1,0.3l-1.1,0.15V80.45L186.5,79.9z M183.8,80.55v89.4l-2.15,0.25h-0.55V80.7
		L183.8,80.55z M187,169.95v-0.2l2.55-0.75l1.4-0.75h0.2v-0.1l0.65-0.35l1-0.85h0.15v-0.1l1.4-1.2l0.75-1.2v0.05h0.1v0.2l0.05,0.1
		v2.45l-0.75,1.65l-0.3,0.4l-1.4,1.5l-1.9,1.25l-2.85,1.3l-3.4,0.95l-3.75,0.35l-5.35-0.35l-3.45-0.95l-2.8-1.3l-1.9-1.25
		l-1.15-1.15l-0.8-1.2l-0.5-1.2v-2.55H165v-0.2l0.15,0.3l0.25,0.3h0.05l1.15,1.3l1.35,1.1l2.1,1.2l1.35,0.45v0.05h0.2l2.6,0.85v0.25
		h0.5v-0.1l3.8,0.5h2.05v0.1h0.55v-0.1l2.7-0.3v0.4h0.5v-0.45l1.2-0.15l1-0.3v0.05H187z M195.25,164.25h-0.05l0.05-0.1V164.25z
		 M195.25,169.9l-0.75,1.65l-1.7,1.85l-1.9,1.3l-2.25,1.1l-4,1.1l-3.75,0.4l-5.35-0.4l-4-1.1l-2.25-1.1l-1.9-1.3l-1.15-1.1l-0.8-1.2
		l-0.5-1.2v-1.35l0.6,1.05l1.95,1.95l2,1.25l3.75,1.5l5.25,0.85l3.95-0.1l4.45-0.75l3.75-1.5l2.05-1.25l0.85-0.75l1.1-1.2l0.6-1.05
		V169.9L195.25,169.9z"/>
</g>
<g>
	<path fill="#0099FF" d="M217.25,85.85V85.2l1.7,0.05l2.2,0.55l1.8,0.85l1,0.75l0.2,0.2l0.15,0.2l-0.2-0.15l-0.2,0.4l0.5,0.25
		l0.05,0.05l-0.1,0.1l0.75,0.75l0.05,0.1l0.05,0.05l0.05,0.15l0.1,0.05l0.05,0.2l0.1,0.05l0.05,0.1V90l0.2,0.35v0.1l0.05,0.15v0.1
		l0.05,0.1v0.15l0.05,0.1v0.55l-0.05,0.2l-0.1,0.25v0.3l-0.4,0.7l-0.55,0.65l-1.2,1l-0.95,0.5l-1.8,0.7l-1.7,0.35l-2.25,0.15
		l-1.85-0.1l-3.25-0.8l-1.9-1.05l-0.55-0.4l-0.6-0.6l-0.5-0.7l-0.35-0.95v-0.3l-0.05-0.25v-0.2L207.9,91v-0.2l0.05-0.1v-0.1
		l0.05-0.1v-0.05l0.05-0.1v-0.1l0.1-0.15l0.05-0.15l0.1-0.2l0.1-0.15l0.05-0.05l0.1-0.2l0.05-0.05l0.05-0.1l0.75-0.75l0.15-0.1
		l-0.05-0.05l0.2-0.2l0.15-0.05l-0.2-0.4l-0.2,0.2V87.8l0.85-0.8l1.35-0.85l1.65-0.6l2.75-0.45l0.95,0.05v0.7H217.25z M208,89.55
		l-0.05,0.05l-0.05,0.15l-0.05,0.05l-0.05,0.15L207.75,90l-0.05,0.25l-0.05,0.05v0.15l-0.05,0.05l-0.05,0.15v0.2l-0.05,0.1v0.6
		l0.2,0.8l0.25,0.6l0.3,0.5l1.15,1.15l0.9,0.6l0.35,0.15l0.3,0.2l0.35,0.15l0.4,0.1l0.35,0.15l1.65,0.5l0.85,0.15l4.2,0.1l3.7-0.95
		L223.8,95l1.05-0.8l0.85-0.95l0.1-0.3l0.15-0.2l0.2-0.55l0.1-0.6v-0.7l-0.05-0.1v-0.1l-0.05-0.1v-0.1l-0.05-0.1v-0.2L226,90
		l-0.05-0.05l-0.3-0.6l-0.15-0.15l-0.05-0.1l0.1,0.1l0.2,0.15l0.15,0.25l0.25,0.25l0.1,0.15l0.05,0.1l0.15,0.15l0.05,0.15l0.1,0.1
		l0.1,0.3l0.05,0.1l0.1,0.15l0.1,0.4v0.15l0.05,0.15v0.15h-0.1V93l-0.2,0.55l-0.65,1.1L224.4,96l-1.45,0.75l-2.1,0.7l-2.95,0.45
		l-2.55-0.05l-2.9-0.5l-1.65-0.6l-1.1-0.55l-2-1.55l-0.75-1.35l-0.1-0.35v-0.8h-0.1v-0.4l0.35-1.1l0.2-0.25l0.05-0.15l0.35-0.5
		l0.25-0.25l0.1-0.15l0.15-0.1l-0.1,0.1L208,89.55z M207.05,94.3l0.4,0.55l1.35,1.25l2.65,1.35l1.85,0.5l3.6,0.35l3.55-0.35l2.3-0.7
		l1.85-0.95l1.25-0.9l0.7-0.8l0.35-0.6v1.95l-0.15,0.6l-0.4,0.8l-0.8,1l-1.15,0.85l-2.7,1.2l-2.3,0.5l-2,0.15l-3.05-0.15l-2.3-0.5
		l-2.3-1l-1.5-1.05L208,98.1l-0.6-0.75l-0.4-0.8L206.85,96v-2.1L207.05,94.3z M205.9,95.55l0.05-0.05v-0.1l0.05-0.15l0.45-0.9v1.95
		h0.1l0.1,0.4l0.65,1.15l0.4,0.5l0.55,0.5l2.05,1.25l3,1l1.5,0.25h4.15l2.85-0.6l1.7-0.65l1.1-0.6l0.9-0.65l0.8-0.75l0.4-0.55
		l0.4-0.85l0.25-1.25V95.4h-0.05v-0.65h-0.05v-0.9l0.05,0.05l0.05,0.1l0.1,0.05v0.1l0.1,0.1l0.05,0.1l0.05,0.15l0.1,0.1l0.05,0.15
		l0.3,0.65v0.05l0.1,0.2v0.25l0.05,0.1v0.25l0.05,0.1v0.15h-0.1v0.95l-0.25,0.65l-0.5,0.85l-0.75,0.85l-1.3,1l-2.05,1l-1.4,0.5
		l-2.65,0.5l-1.65,0.1l-3.45-0.2l-2.05-0.4l-0.5-0.15L209,101l-1.65-1.2l-0.5-0.55l-0.6-0.85l-0.35-0.95l-0.1-0.6v-0.9l0.05-0.1
		v-0.1l0.05-0.1V95.55z M205.95,98.6l0.4,0.6l0.75,0.9l1,0.75l2.45,1.3l1.45,0.5l3.85,0.65h2.35l2.25-0.3l3.5-1.05l1.65-0.85
		l1.05-0.75l0.6-0.55l0.9-1.2l0.05-0.15v1.2l-0.15,0.9l-0.25,0.65l-0.4,0.7h-0.15v0.15L226.4,103h-0.35v0.3l-1,0.7v-0.05h-0.4v0.25
		l-1.35,0.6h-0.05v0.05L222,105.2h-0.4v0.15l-2.35,0.4h-4.05v-0.2h-0.35v0.2h-0.15l-2.15-0.35l-1.65-0.6v-0.15h-0.3l-1.45-0.55
		v-0.25h-0.4v0.05l-0.8-0.55l-0.25-0.25l-0.15-0.1v-0.05h-0.05l-0.15-0.1l-0.5-0.55l-0.6-0.85l-0.45-1.2v-0.9h-0.05v-1.3
		L205.95,98.6z M224.65,104.6v65.8l-1,0.5v-65.85L224.65,104.6z M227.25,102.7v65.65l-0.1,0.15l-0.75,0.65V103.4L227.25,102.7z
		 M226.05,103.7v65.75l-0.7,0.6l-0.3,0.15v-65.8l0.45-0.25L226.05,103.7z M228.15,101.45v64.8h0.05l-0.2,0.8l-0.15,0.3l-0.1,0.3
		l-0.15,0.2v-65.6L228.15,101.45z M214.85,106.1V172l-1.85-0.25h-0.05V105.8L214.85,106.1z M216.35,106.3l0.9-0.05v65.85h-1.5
		l-0.55-0.05v-65.9L216.35,106.3z M221.6,105.65v65.9l-0.75,0.2l-0.85,0.1v-65.8L221.6,105.65z M219.65,106.1v65.8l-1.6,0.2h-0.4
		v-65.85L219.65,106.1z M208.75,104.3v65.85l-1.2-0.8V103.5l0.9,0.65L208.75,104.3z M210.5,105.15v65.8l-1.25-0.5l-0.1-0.05v-65.9
		L210.5,105.15z M205.8,101.35l0.3,0.55v65.75l-0.3-0.6v-0.2h-0.05l-0.15-0.75v-65.35L205.8,101.35z M207.15,103.15V169l-0.7-0.8
		v-65.8l0.1,0.15L207.15,103.15z M212.55,105.75v65.9l-1.05-0.3l-0.6-0.25v-65.85l1.6,0.5H212.55z M223.25,105.2V171l-1.25,0.4
		v-65.85L223.25,105.2z M227.45,168.75l0.55-0.9v0.25l0.05,0.05v0.1l0.05,0.05v1.35l-0.05,0.3l-0.25,0.65l-0.5,0.85l-1,1.1
		l-1.4,0.95l-2.15,0.95l-2.45,0.65l-2.8,0.3l-3.95-0.3l-2.95-0.8l-1.65-0.8l-1.4-0.95l-0.8-0.8l-0.6-0.9l-0.35-0.9v-2l0.05-0.05
		l0.1,0.25l0.45,0.6l0.55,0.55l1,0.8l1.6,0.9l1.85,0.75l1.15,0.2v0.25h0.4v-0.15l2.8,0.45h1.5v0.05h0.4v-0.05l2-0.25v0.3H220v-0.35
		l0.9-0.1l0.7-0.2v0.05h0.4v-0.15l1.55-0.5h0.1v-0.05l0.2-0.05l1.1-0.55h0.1v-0.05l0.5-0.25l0.75-0.6h0.1v-0.1L227.45,168.75z
		 M226.85,172.55l0.75-0.85l0.5-0.8v0.7l-0.05,0.3l-0.55,1.2l-1.2,1.4l-1.4,0.95l-1.65,0.8l-2.95,0.8l-2.8,0.3l-3.95-0.3l-2.95-0.8
		l-1.65-0.8l-1.4-0.95l-0.8-0.85l-0.6-0.85l-0.35-0.9V171l0.4,0.7l1.45,1.4l1.5,0.95l2.75,1.05l3.85,0.65l2.9-0.05l3.3-0.6
		l2.75-1.05l1.5-0.95L226.85,172.55z M228.05,167.75l0.05-0.1v0.05L228.05,167.75z"/>
</g>
<g>
	<g>
		<polygon fill="none" stroke="#000000" stroke-linecap="round" stroke-linejoin="round" stroke-miterlimit="3" points="
			188.25,54.05 185.8,52.9 182.75,52.15 178.85,52 175.15,52.55 171.7,54.05 169.9,55.6 169.25,56.55 169.1,56.9 168.8,58.2 
			168.8,58.9 168.9,59.6 169.1,60.25 169.25,60.55 170.15,61.8 171.05,62.6 172.45,63.5 174.2,64.25 174.7,64.4 178.35,65.15 
			182.25,65.05 184.35,64.7 187.5,63.5 188.95,62.6 189.85,61.8 190.35,61.2 190.55,60.9 191.2,59.3 191.2,58.9 191.25,58.55 
			191.2,58.2 191.2,57.9 190.85,56.9 190.55,56.3 189.6,55.1 		"/>
	</g>
	<g>
		<polygon points="195.2,64.6 195.2,64.75 195.35,64.85 195.35,64.95 195.65,65.6 195.7,65.75 195.7,65.9 195.75,66.05 195.8,66.15 
			195.8,66.3 195.9,66.4 195.95,66.6 195.95,68.45 195.3,70.25 194.05,71.9 193.25,72.65 191.85,73.7 189.6,74.9 186.95,75.8 
			181.85,76.65 178.6,76.65 177.05,76.5 173.4,75.8 171.4,75.15 168.1,73.4 166.75,72.3 165.65,71.15 165.1,70.25 164.6,68.9 
			164.35,67.5 164.35,67.4 164.45,67.2 164.45,66.75 164.5,66.6 164.5,66.45 164.55,66.3 164.55,66.2 164.65,65.9 164.65,65.85 
			164.75,65.55 164.9,65.35 164.9,65.15 165.1,64.85 165.1,64.7 165.25,64.6 165.35,64.4 165.4,64.2 165.5,64.1 165.55,64 
			165.65,63.9 165.7,63.8 165.95,63.55 166.1,63.35 166.45,63.65 166.2,63.95 166.1,64.15 166,64.25 165.95,64.4 165.85,64.55 
			165.1,66 165.1,66.3 165.05,66.45 165.05,66.6 164.95,66.65 164.95,66.9 164.9,67 164.9,67.9 165.1,68.75 165.55,70 167.05,71.9 
			169.3,73.6 173.55,75.3 176.35,75.9 181,76.2 183.25,76.05 188.8,74.7 191.6,73.25 192.5,72.65 194.3,70.8 194.6,70.4 195,69.65 
			195.35,68.75 195.5,67.5 195.5,67.25 195.45,67.1 195.45,66.8 195.35,66.65 195.35,66.3 195.3,66.15 195.2,66.05 195.2,65.85 
			195.15,65.65 194.9,65.25 194.85,65.05 194.75,64.85 194.6,64.75 194.45,64.4 194.3,64.15 194.2,64.05 194.15,63.95 193.95,63.75 
			193.8,63.5 194.2,63.2 194.4,63.4 194.45,63.5 194.7,63.9 194.8,64 194.95,64.2 195,64.4 195.15,64.5 		"/>
	</g>
	<g>
		<polygon points="192.55,59.15 192.6,59.3 192.6,59.45 192.65,59.6 192.65,59.7 192.7,59.9 192.6,61.6 192.35,62.35 191.95,63.05 
			190.85,64.3 189.35,65.45 187.55,66.4 184.95,67.25 182.5,67.7 179.35,67.8 175.65,67.4 173.45,66.75 173,66.5 171.95,66.15 
			169.85,64.85 168.85,63.95 168.3,63.3 167.9,62.6 167.35,61.1 167.3,60.7 167.3,59.9 167.35,59.75 167.35,59.3 167.45,59.2 
			167.45,59.05 167.5,58.95 167.7,58.4 167.9,58.1 167.9,58 168.05,57.9 168.1,57.7 168.2,57.65 168.25,57.45 168.45,57.25 
			168.55,57.05 168.8,56.9 169.1,56.5 169.25,56.4 169.7,55.95 170,56.4 169.85,56.55 169.7,56.65 168.85,57.5 168.8,57.65 
			168.65,57.8 168.65,57.9 168.5,58 168.45,58.1 168.35,58.25 168.1,58.75 168.05,58.95 167.9,59.2 167.9,59.6 167.8,59.7 
			167.8,59.95 167.75,60.05 167.75,60.35 167.8,60.65 167.8,61.05 168.1,62 168.95,63.3 170.5,64.7 171.7,65.45 173.15,66.1 
			177.5,67.15 180,67.35 183.05,67.1 185.35,66.65 187.85,65.7 189.1,65 190.8,63.65 191.55,62.75 192,61.8 192.05,61.4 
			192.15,61.1 192.2,60.8 192.2,60.05 192.15,59.9 192.15,59.45 192,59.2 192,59.15 191.8,58.65 191.75,58.45 191.7,58.4 
			191.45,58.05 191.35,57.95 191.3,57.8 191.2,57.65 191.15,57.55 190.1,56.55 190.45,56.15 190.65,56.3 191.1,56.75 191.2,56.9 
			191.55,57.25 191.6,57.4 191.9,57.8 191.95,57.9 192.05,58 192.15,58.15 192.2,58.4 192.35,58.55 192.35,58.65 192.5,58.9 
			192.5,59.05 		"/>
	</g>
	<g>
		<polygon points="193.1,58.3 193.25,58.55 193.4,58.7 193.65,59.05 193.85,59.5 193.85,59.7 194,59.9 194.2,60.7 194.2,60.95 
			194.25,61.15 194.25,62 194.1,62.9 193.65,64.05 193.1,64.85 192.15,65.9 190.5,67.2 187.95,68.5 184.85,69.4 180,69.9 
			175.15,69.4 172.65,68.75 169.45,67.2 167.15,65.25 166.6,64.5 165.85,62.9 165.7,61.55 165.7,61.4 165.8,61.15 165.8,60.95 
			165.85,60.7 165.85,60.5 165.95,60.05 166.05,59.9 166.1,59.7 166.2,59.5 166.25,59.3 166.75,58.55 166.85,58.3 167,58.1 
			167.35,57.8 167.5,57.55 169.45,55.9 169.75,55.8 170.15,55.45 170.45,55.95 170.2,56.05 170,56.2 169.75,56.3 168.5,57.25 
			168.05,57.7 167.9,57.95 167.55,58.25 167.05,58.95 166.75,59.5 166.6,59.7 166.25,61 166.25,61.95 166.3,62.35 166.55,63.1 
			167.05,64.2 167.55,64.9 168.95,66.2 170.2,67.05 171.7,67.8 175.85,69.05 177.9,69.3 181.4,69.35 185.35,68.75 187.2,68.25 
			190.25,66.8 191.05,66.2 192.45,64.9 193.35,63.45 193.45,63.1 193.65,62.7 193.7,60.65 193.5,60.05 193.4,59.9 193.35,59.7 
			193.25,59.5 193.2,59.3 192.95,58.95 192.8,58.8 192.7,58.65 192.6,58.4 192.3,58.1 192,57.7 191.8,57.55 191.1,56.9 190.85,56.8 
			190.25,56.3 189.55,55.95 189.8,55.45 190.3,55.8 190.5,55.9 192,57.05 192.15,57.25 192.55,57.55 		"/>
	</g>
	<g>
		<polygon points="191.7,70.65 190.45,71.55 188.95,72.35 186.7,73.25 182.85,74 177.15,74 173.3,73.25 170,71.85 168.3,70.65 
			166.95,69.25 166.45,68.5 165.85,66.9 165.85,65.4 166.3,65.4 166.3,66.05 166.4,66.4 166.4,66.8 166.6,67.55 167.15,68.6 
			167.9,69.65 168.25,69.95 170.3,71.4 173.45,72.75 176.55,73.45 180.7,73.65 183.45,73.45 186.55,72.75 190.2,71.15 191.75,69.95 
			192.05,69.65 192.9,68.6 193.4,67.55 193.65,66.8 193.7,66.4 193.7,65.65 193.65,65.65 193.65,65.05 194.15,65.05 194.15,65.9 
			194.2,65.9 194.2,66.05 194.1,66.9 193.85,67.7 193.3,68.9 192.75,69.65 		"/>
	</g>
	<g>
		<polygon points="195.35,71.45 195.8,71.45 195.8,72.2 195.65,73.1 195.15,74.45 194.25,75.7 193.1,76.8 191.7,77.85 188.85,79.25 
			184,80.45 179.3,80.75 176.25,80.45 171.4,79.25 168.55,77.85 167.15,76.8 166,75.7 165.1,74.45 164.6,73.1 164.35,71.75 
			164.35,71.35 164.9,71.35 164.95,72.6 165.55,74.2 167.05,76.05 167.9,76.8 169.3,77.7 171.55,78.75 174.15,79.55 177.05,80 
			183.2,80 186.05,79.55 188.7,78.75 190.95,77.7 191.9,77.1 194.15,74.95 194.85,73.8 195.2,72.95 195.35,71.75 		"/>
	</g>
	<g>
		<polygon points="191.75,167.75 189.5,168.95 185.45,170.15 180.85,170.65 178.45,170.65 174.65,170.15 170,168.65 167.9,167.45 
			166.55,166.35 165.1,164.75 164.5,163.45 164.15,162.05 164.15,161.3 164.7,161.3 164.7,162 164.95,163.3 165.55,164.45 
			166.85,165.95 168.1,167 169.65,167.9 172.7,169.15 174.75,169.7 178.45,170.15 181.6,170.15 185.35,169.7 187.4,169.15 
			191.45,167.3 192.8,166.35 193.95,165.2 194.75,164.1 194.9,163.65 195.15,163.3 195.35,162 195.35,161 195.95,161 195.8,162.55 
			195.6,163.45 194.3,165.6 		"/>
	</g>
	<g>
		<polygon points="195.6,164.5 195.65,164.5 195.65,164.75 195.7,164.8 195.7,165 195.75,165.05 195.75,165.35 195.8,165.4 
			195.8,166.4 195.65,167.35 195.35,168.25 194.6,169.55 193.5,170.75 192.65,171.5 190.6,172.75 186.85,174.25 182.4,175 
			178.45,175.1 173.2,174.25 169.45,172.75 167.45,171.5 165.5,169.55 164.75,168.25 164.45,167.35 164.2,165.9 164.2,165.85 
			164.3,165.8 164.3,165.25 164.35,165.2 164.35,164.65 164.45,164.65 164.45,164.45 164.5,164.4 164.5,164.3 164.55,164.1 
			165.1,164.2 164.95,164.45 164.95,164.65 164.9,164.65 164.9,165.1 164.8,165.1 164.8,165.5 164.75,165.55 164.75,166.35 
			164.9,167.2 165.4,168.4 166.2,169.6 167.35,170.75 169.25,172 172.05,173.3 175.5,174.25 180.85,174.6 184.6,174.25 188,173.3 
			190.85,172 192.75,170.75 194.15,169.25 194.45,168.85 195.2,167.2 195.35,165.9 195.35,165.65 195.3,165.6 195.3,165.2 
			195.2,165.15 195.2,164.75 195.15,164.65 195.15,164.45 195.05,164.45 195,164.2 195.5,164.1 195.6,164.3 		"/>
	</g>
	<g>
		<polygon points="195.7,167.45 195.7,167.6 195.75,167.65 195.75,167.95 195.8,167.95 195.8,169 195.65,170 195.35,170.9 
			194.6,172.15 193.5,173.35 192.65,174.1 190.6,175.4 186.85,176.85 182.4,177.65 178.45,177.7 173.2,176.85 169.45,175.4 
			167.45,174.1 166.2,173 164.95,171.35 164.45,170 164.2,168.55 164.2,168.5 164.3,168.4 164.3,167.75 164.35,167.65 
			164.35,167.25 164.45,167 164.9,167.1 164.9,167.5 164.8,167.6 164.8,167.95 164.75,168 164.75,168.95 164.9,169.85 165.4,171.05 
			166.2,172.25 167.35,173.35 169.25,174.65 171.5,175.75 175.5,176.85 180.85,177.25 184.6,176.85 188.6,175.75 190.85,174.65 
			192.75,173.35 194.45,171.5 195.2,169.85 195.35,168.55 195.35,168.25 195.3,168.2 195.3,167.85 195.2,167.8 195.2,167.25 
			195.65,167.15 		"/>
	</g>
	<g>
		<rect x="164.15" y="71.35" width="0.55" height="90.8"/>
	</g>
	<g>
		<rect x="195.3" y="72.45" width="0.5" height="89.7"/>
	</g>
	<g>
		<rect x="165.35" y="74.6" width="0.5" height="90.45"/>
	</g>
	<g>
		<rect x="166.8" y="76.25" width="0.55" height="90.2"/>
	</g>
	<g>
		<rect x="168.95" y="77.45" width="0.5" height="90.4"/>
	</g>
	<g>
		<rect x="171.35" y="78.5" width="0.5" height="90.65"/>
	</g>
	<g>
		<rect x="174.15" y="79.65" width="0.5" height="90.6"/>
	</g>
	<g>
		<rect x="177.25" y="79.8" width="0.5" height="90.65"/>
	</g>
	<g>
		<rect x="180.5" y="80.45" width="0.55" height="90.3"/>
	</g>
	<g>
		<rect x="183.75" y="80.15" width="0.5" height="90.6"/>
	</g>
	<g>
		<rect x="186.45" y="79.25" width="0.5" height="90.65"/>
	</g>
	<g>
		<rect x="188.6" y="78.75" width="0.55" height="90.25"/>
	</g>
	<g>
		<rect x="190.55" y="77.55" width="0.55" height="90.65"/>
	</g>
	<g>
		<rect x="192.45" y="76.25" width="0.45" height="90.65"/>
	</g>
	<g>
		<rect x="194.05" y="74.75" width="0.55" height="90.3"/>
	</g>
	<g>
		<rect x="164.35" y="67" width="0.55" height="5.25"/>
	</g>
	<g>
		<rect x="195.35" y="67.4" width="0.55" height="5.05"/>
	</g>
	<g>
		<rect x="165.85" y="61.55" width="0.55" height="5.65"/>
	</g>
	<g>
		<rect x="193.65" y="61.2" width="0.45" height="5.45"/>
	</g>
	<g>
		<rect x="164.35" y="163" width="0.55" height="6.85"/>
	</g>
	<g>
		<rect x="195.2" y="163.15" width="0.5" height="7.15"/>
	</g>
	<g>
		<rect x="180.15" y="51.65" width="0.35" height="1.35"/>
	</g>
</g>
<g>
	<g>
		<polygon fill="none" stroke="#000000" stroke-linecap="round" stroke-linejoin="round" stroke-miterlimit="3" points="213.4,85.6 
			211.75,86.2 210.4,87.05 209.55,87.85 208.95,88.75 208.7,89.75 208.7,90.25 208.95,91.25 209.1,91.5 209.75,92.4 210.4,93 
			211.45,93.65 212.7,94.2 213.05,94.3 215.75,94.85 218.65,94.8 221.25,94.2 223.6,93 224.25,92.4 224.4,92.15 224.6,91.95 
			225,91.25 225.25,90.55 225.25,89.5 225,88.75 224.75,88.3 224.25,87.65 224.05,87.45 223.05,86.7 221.25,85.85 219.05,85.3 
			216.15,85.15 		"/>
	</g>
	<g>
		<polygon points="206.75,94.1 206.65,94.2 206.65,94.3 206.55,94.4 206.1,95.3 206.05,95.45 206.05,95.55 206,95.6 206,95.7 
			205.95,95.8 205.95,95.9 205.9,96 205.9,96.9 206,97.5 206.35,98.45 206.95,99.3 207.45,99.85 209.1,101.05 211.75,102.2 
			212.25,102.35 214.3,102.75 217.75,102.95 219.4,102.85 222.05,102.35 223.45,101.85 225.5,100.85 226.8,99.85 227.55,99 
			228.05,98.15 228.3,97.5 228.4,96.55 228.4,96.4 228.35,96.3 228.35,96.05 228.3,95.95 228.3,95.7 228.2,95.5 228.2,95.45 
			227.9,94.8 227.85,94.65 227.75,94.55 227.7,94.4 227.65,94.3 227.55,94.2 227.55,94.1 227.45,94.05 227.4,93.95 227.25,93.8 
			227.15,93.65 227.45,93.4 227.55,93.55 227.6,93.65 227.75,93.8 227.8,93.95 227.9,94 227.9,94.1 228,94.15 228.05,94.3 
			228.1,94.35 228.2,94.55 228.3,94.65 228.3,94.7 228.35,94.85 228.4,94.9 228.5,95.2 228.55,95.3 228.55,95.4 228.65,95.6 
			228.65,95.8 228.7,95.9 228.7,96.1 228.75,96.2 228.75,96.95 228.7,97.3 228.25,98.65 227.35,99.85 226.75,100.4 225.7,101.15 
			224.05,102 220.55,103.05 218.3,103.35 215.95,103.35 212.1,102.7 210.65,102.2 208.2,100.9 207.2,100.15 206.45,99.25 
			206.05,98.65 205.55,97.3 205.5,96 205.55,95.9 205.55,95.8 205.6,95.7 205.6,95.6 205.65,95.55 205.7,95.45 205.7,95.25 
			205.75,95.15 205.85,95 205.9,94.85 206,94.65 206.05,94.5 206.1,94.45 206.2,94.3 206.25,94.15 206.3,94.1 206.35,94 
			206.45,93.95 206.45,93.85 206.65,93.7 206.75,93.55 207.05,93.75 206.85,93.95 		"/>
	</g>
	<g>
		<polygon points="208.55,88.9 208.8,88.65 208.95,88.45 209.1,88.4 209.4,88.1 209.65,88.4 209.5,88.5 208.75,89.25 208.7,89.35 
			208.65,89.4 208.55,89.6 208.5,89.65 208.4,89.8 208.3,90 208.25,90.15 208.15,90.3 208.15,90.4 208.1,90.5 208.1,90.55 
			208.05,90.65 208.05,90.75 208,90.85 208,91.05 207.95,91.1 207.95,91.3 208,91.55 208,91.85 208.35,92.8 208.85,93.5 
			209.45,94.1 210,94.5 211.9,95.55 215.15,96.35 217,96.45 219.25,96.3 220.95,95.95 222.75,95.25 223.7,94.75 224.9,93.75 
			225.45,93.1 225.85,92.4 225.85,92.1 225.95,91.85 226,91.65 226,91.1 225.95,91 225.95,90.85 225.9,90.75 225.9,90.65 
			225.85,90.5 225.85,90.4 225.65,90.05 225.65,89.95 225.6,89.85 225.5,89.8 225.45,89.6 225.35,89.55 225.3,89.4 225.25,89.35 
			225.2,89.25 224.45,88.5 224.7,88.25 224.85,88.35 225.15,88.65 225.45,89.05 225.55,89.15 225.6,89.25 225.75,89.4 226.05,90 
			226.1,90.05 226.2,90.25 226.2,90.45 226.25,90.55 226.25,90.65 226.3,90.75 226.3,90.85 226.35,90.95 226.35,91.65 226.25,92.25 
			226.05,92.8 225.9,93 225.8,93.3 224.95,94.25 223.9,95.05 222.55,95.8 218.85,96.75 214.65,96.65 213.8,96.5 212.15,96 
			211.8,95.85 211.4,95.75 211.05,95.6 210.75,95.4 210.4,95.25 209.5,94.65 208.35,93.5 208.05,93 207.8,92.4 207.6,91.6 207.6,91 
			207.65,90.9 207.65,90.7 207.7,90.55 207.75,90.5 207.75,90.35 207.8,90.3 207.85,90.05 207.9,90 207.95,89.85 208,89.8 
			208.05,89.65 208.1,89.6 208.2,89.4 208.3,89.3 208.35,89.2 208.5,89.05 		"/>
	</g>
	<g>
		<polygon points="209.95,88.1 209.8,88.15 209.65,88.3 209.45,88.35 208.15,89.4 208.05,89.55 207.8,89.8 207.45,90.3 207.4,90.45 
			207.2,90.7 206.85,91.8 206.85,92.5 206.9,92.8 207.05,93.35 207.8,94.7 209.8,96.25 210.9,96.8 212.55,97.4 215.45,97.9 
			218,97.95 220.95,97.5 223.05,96.8 224.5,96.05 226.15,94.7 226.8,93.6 227,93.05 227.1,92.5 227.1,91.8 227.05,91.65 
			227.05,91.5 226.95,91.1 226.85,90.95 226.8,90.85 226.7,90.55 226.6,90.45 226.55,90.3 226.4,90.15 226.35,90.05 226.25,89.9 
			226,89.65 225.85,89.4 225.65,89.25 225.45,89.05 225.25,88.9 225.15,88.8 224.5,88.35 224,88.1 224.2,87.7 225.4,88.5 
			225.5,88.65 225.85,88.85 225.95,89.05 226.05,89.15 226.2,89.25 226.4,89.55 226.55,89.65 226.65,89.8 226.75,90 226.85,90.1 
			226.95,90.25 227.15,90.7 227.2,90.85 227.3,90.95 227.45,91.6 227.45,91.75 227.5,91.9 227.5,92.55 227.35,93.15 227,94.05 
			226.65,94.65 225.95,95.45 224.7,96.35 222.85,97.3 220.55,98 217,98.35 213.4,98 211.55,97.5 208.9,96.15 207.55,94.9 
			207.15,94.35 206.6,93.15 206.45,92.2 206.45,92.05 206.5,91.9 206.5,91.75 206.55,91.6 206.55,91.45 206.7,90.95 206.75,90.85 
			206.85,90.7 206.85,90.55 206.95,90.35 207.2,90 207.3,89.8 207.4,89.65 208.3,88.75 209.25,88.05 209.45,87.95 209.75,87.7 		"/>
	</g>
	<g>
		<polygon points="206.9,95.5 206.95,95.8 206.95,96.05 207.1,96.6 207.5,97.4 208.1,98.15 208.35,98.4 209.85,99.45 212.15,100.45 
			214.45,100.95 217.5,101.1 219.5,100.95 221.8,100.45 224.5,99.25 225.65,98.4 226.45,97.4 226.85,96.6 227.05,95.8 227.05,95.25 
			227,95.25 227,94.8 227.4,94.8 227.4,95.45 227.45,95.45 227.45,95.5 227.2,96.75 226.8,97.6 226.4,98.15 225.6,98.9 224.7,99.55 
			223.6,100.15 221.9,100.8 219.05,101.4 214.9,101.4 213.4,101.15 210.4,100.15 208.35,98.9 207.8,98.4 207.4,97.9 206.75,96.75 
			206.6,96.15 206.55,95.8 206.55,95.05 206.9,95.05 		"/>
	</g>
	<g>
		<polygon points="228.3,99.7 228.3,99.5 228.65,99.5 228.65,100.05 228.3,101.4 227.5,102.6 225.6,104.2 223.5,105.2 
			219.95,106.15 216.45,106.35 212.6,105.8 210.65,105.2 208.55,104.2 207.5,103.45 206.65,102.6 206.05,101.7 205.9,101.4 
			205.55,100.35 205.5,99.4 205.9,99.4 205.9,100.3 206.35,101.5 206.95,102.35 207.45,102.9 207.8,103.15 208.05,103.4 
			209.1,104.1 212.65,105.45 214.8,105.8 219.35,105.8 221.45,105.45 223.4,104.85 225.05,104.1 225.75,103.65 226.65,102.9 
			227.4,102.05 227.9,101.25 228.15,100.6 		"/>
	</g>
	<g>
		<polygon points="228.7,165.4 228.65,166.55 228.45,167.25 227.55,168.8 225.65,170.4 223.95,171.25 221,172.15 217.6,172.55 
			215.85,172.55 211.5,171.8 209.65,171.05 208.05,170.15 207.05,169.35 206.5,168.8 206.05,168.2 205.55,167.25 205.35,166.2 
			205.35,165.65 205.7,165.65 205.7,166.15 205.9,167.1 206.35,168 207.3,169.1 208.25,169.85 209.35,170.5 211.6,171.4 
			213.1,171.8 215.85,172.15 218.15,172.15 220.95,171.8 223.8,170.9 225.45,170.1 227.25,168.55 227.85,167.7 227.95,167.4 
			228.1,167.1 228.3,166.15 228.3,165.4 		"/>
	</g>
	<g>
		<polygon points="227.7,171.75 226.95,172.6 226.3,173.15 224.8,174.1 222.05,175.15 218.75,175.75 215.85,175.8 212,175.15 
			209.25,174.1 207.75,173.15 206.3,171.75 205.75,170.8 205.5,170.1 205.35,169.05 205.35,169 205.4,168.95 205.4,168.6 
			205.45,168.55 205.45,168.35 205.5,168.3 205.5,168 205.55,167.95 205.55,167.85 205.6,167.7 206,167.8 205.9,168 205.9,168.25 
			205.85,168.3 205.85,168.45 205.8,168.45 205.8,168.75 205.75,168.8 205.75,169.35 205.9,170 206.25,170.9 206.85,171.8 
			207.65,172.6 209.05,173.55 210.7,174.35 213.65,175.15 217.6,175.45 220.4,175.15 222.85,174.5 225,173.55 226.4,172.6 
			227.4,171.5 227.9,170.65 228.15,170 228.3,169.05 228.3,168.85 228.25,168.8 228.25,168.55 228.2,168.5 228.2,168.35 
			228.15,168.3 228.15,168.2 228.1,168.15 228.1,168 228.05,167.8 228.4,167.7 228.45,167.85 228.45,168.05 228.5,168.05 
			228.5,168.2 228.55,168.2 228.55,168.4 228.6,168.4 228.6,168.6 228.65,168.65 228.65,169.4 228.3,170.8 		"/>
	</g>
	<g>
		<polygon points="228.5,169.95 228.55,170.15 228.55,170.3 228.6,170.3 228.6,170.55 228.65,170.55 228.65,171.35 228.3,172.75 
			226.95,174.55 226.3,175.1 224.8,176.05 222.05,177.1 218.75,177.7 215.85,177.75 212,177.1 209.25,176.05 207.75,175.1 
			206.3,173.65 205.9,173.05 205.75,172.75 205.5,172.05 205.35,171 205.35,170.95 205.4,170.9 205.4,170.4 205.45,170.35 
			205.45,170.1 205.5,170.1 205.5,169.85 205.9,169.9 205.85,170.1 205.85,170.25 205.8,170.3 205.8,170.55 205.75,170.6 
			205.75,171.3 205.9,171.95 206.25,172.85 206.85,173.7 207.65,174.55 209.05,175.5 210.7,176.3 213.65,177.1 217.6,177.4 
			220.4,177.1 223.35,176.3 225,175.5 226.4,174.55 227.6,173.15 228.15,171.95 228.3,171 228.3,170.8 228.25,170.75 228.25,170.45 
			228.2,170.45 228.2,170.25 228.15,170.05 		"/>
	</g>
	<g>
		<rect x="205.35" y="99.4" width="0.35" height="66.9"/>
	</g>
	<g>
		<rect x="228.25" y="100.2" width="0.4" height="66.1"/>
	</g>
	<g>
		<rect x="206.2" y="101.85" width="0.35" height="66.55"/>
	</g>
	<g>
		<rect x="207.25" y="103" width="0.4" height="66.45"/>
	</g>
	<g>
		<rect x="208.85" y="103.9" width="0.4" height="66.55"/>
	</g>
	<g>
		<rect x="210.6" y="104.7" width="0.4" height="66.7"/>
	</g>
	<g>
		<rect x="212.65" y="105.55" width="0.4" height="66.7"/>
	</g>
	<g>
		<rect x="214.95" y="105.6" width="0.35" height="66.75"/>
	</g>
	<g>
		<rect x="217.35" y="106.15" width="0.4" height="66.45"/>
	</g>
	<g>
		<rect x="219.75" y="105.9" width="0.35" height="66.7"/>
	</g>
	<g>
		<rect x="221.7" y="105.25" width="0.4" height="66.75"/>
	</g>
	<g>
		<rect x="223.35" y="104.85" width="0.4" height="66.5"/>
	</g>
	<g>
		<rect x="224.75" y="104" width="0.4" height="66.7"/>
	</g>
	<g>
		<rect x="226.15" y="103.05" width="0.35" height="66.75"/>
	</g>
	<g>
		<rect x="227.35" y="101.95" width="0.35" height="66.45"/>
	</g>
	<g>
		<rect x="205.5" y="96.2" width="0.35" height="3.9"/>
	</g>
	<g>
		<rect x="228.3" y="96.55" width="0.35" height="3.65"/>
	</g>
	<g>
		<rect x="206.55" y="92.2" width="0.4" height="4.15"/>
	</g>
	<g>
		<rect x="227" y="91.95" width="0.35" height="4.05"/>
	</g>
	<g>
		<rect x="205.5" y="166.9" width="0.4" height="5.05"/>
	</g>
	<g>
		<rect x="228.2" y="167.05" width="0.35" height="5.25"/>
	</g>
	<g>
		<rect x="217.1" y="84.9" width="0.25" height="1"/>
	</g>
</g>
<g>
	<g>
		<path fill="#57A0CA" d="M376.75,45.15H350.1V20h26.65V45.15z M361.55,32.5L357,37.2c-0.3,0.267-0.45,0.583-0.45,0.95
			c0,0.333,0.15,0.633,0.45,0.9c0.2,0.3,0.5,0.45,0.9,0.45c0.367,0,0.667-0.15,0.9-0.45l4.6-4.6l4.65,4.6
			c0.267,0.3,0.583,0.45,0.95,0.45s0.667-0.15,0.9-0.45c0.267-0.267,0.4-0.566,0.4-0.9c0-0.367-0.133-0.683-0.4-0.95l-4.55-4.7
			l4.55-4.5c0.267-0.3,0.4-0.633,0.4-1s-0.133-0.683-0.4-0.95c-0.233-0.267-0.533-0.4-0.9-0.4s-0.683,0.133-0.95,0.4l-4.65,4.6
			l-4.6-4.6c-0.233-0.267-0.55-0.4-0.95-0.4c-0.367,0-0.684,0.133-0.95,0.4c-0.233,0.267-0.35,0.583-0.35,0.95s0.117,0.7,0.35,1
			L361.55,32.5z"/>
		<path fill="#FFFFFF" d="M361.55,32.5L356.9,28c-0.233-0.3-0.35-0.633-0.35-1s0.117-0.683,0.35-0.95
			c0.267-0.267,0.583-0.4,0.95-0.4c0.4,0,0.717,0.133,0.95,0.4l4.6,4.6l4.65-4.6c0.267-0.267,0.583-0.4,0.95-0.4
			s0.667,0.133,0.9,0.4c0.267,0.267,0.4,0.583,0.4,0.95s-0.133,0.7-0.4,1l-4.55,4.5l4.55,4.7c0.267,0.267,0.4,0.583,0.4,0.95
			c0,0.333-0.133,0.633-0.4,0.9c-0.233,0.3-0.533,0.45-0.9,0.45s-0.683-0.15-0.95-0.45l-4.65-4.6l-4.6,4.6
			c-0.233,0.3-0.533,0.45-0.9,0.45c-0.4,0-0.7-0.15-0.9-0.45c-0.3-0.267-0.45-0.566-0.45-0.9c0-0.367,0.15-0.683,0.45-0.95
			L361.55,32.5z"/>
	</g>
</g>
</svg>
