<?xml version="1.0" encoding="utf-8"?>
<!-- Generator: Adobe Illustrator 24.1.0, SVG Export Plug-In . SVG Version: 6.00 Build 0)  -->
<svg version="1.1" id="Ebene_1" xmlns="http://www.w3.org/2000/svg" xmlns:xlink="http://www.w3.org/1999/xlink" x="0px" y="0px"
	 viewBox="0 0 18.3 17.9" style="enable-background:new 0 0 18.3 17.9;" xml:space="preserve">
<style type="text/css">
	.st0{fill-rule:evenodd;clip-rule:evenodd;fill:#E5E5E5;}
</style>
<path class="st0" d="M12.1,3.5l3.3-3.2L16.2,0c0.6,0,1.1,0.2,1.5,0.6c0.7,0.7,0.8,1.5,0.4,2.2l-3.3,3.3c1.7,5.3,2.4,8.2,2.2,8.8
	c-0.1,0.5-1,1.4-2.5,2.5L11,9.8l-3.8,3.8v1c0,0.7,0,1.1,0,1.4c-0.1,0.5-0.8,1.1-2,1.9l-1.3-3.7L0,12.9L0.7,12c0.5-0.6,0.9-1,1.2-1.1
	c0.5-0.1,1.4-0.1,2.8,0l3.8-3.8L0.8,3.6l1-1.2C2.5,1.6,3,1.2,3.3,1.1c0.3,0,1.9,0.3,4.6,1.1C9.3,2.7,10.7,3.1,12.1,3.5z"/>
</svg>
