<?xml version="1.0" encoding="utf-8"?>
<!-- Generator: Adobe Illustrator 24.1.0, SVG Export Plug-In . SVG Version: 6.00 Build 0)  -->
<svg version="1.1" id="Ebene_1" xmlns="http://www.w3.org/2000/svg" xmlns:xlink="http://www.w3.org/1999/xlink" x="0px" y="0px"
	 viewBox="0 0 16.7 20.6" style="enable-background:new 0 0 16.7 20.6;" xml:space="preserve">
<style type="text/css">
	.st0{fill-rule:evenodd;clip-rule:evenodd;fill:#E5E5E5;}
</style>
<path class="st0" d="M3.8,1.1C3.8,1.1,3.9,1,4,1s0.2,0,0.3,0.1c0.2,0.2,0.2,0.4,0,0.5C2.9,3,2.2,4.6,2.2,6.5s0.7,3.6,2.1,4.9
	c0.2,0.2,0.2,0.4,0,0.5C4.2,12,4.1,12,4,12c-0.1,0-0.2,0-0.3-0.1c-1.5-1.5-2.3-3.3-2.3-5.5C1.5,4.5,2.2,2.7,3.8,1.1z M5.3,2.2
	c0.2,0.2,0.2,0.4,0,0.5c-1,1.1-1.6,2.4-1.6,3.9s0.5,2.8,1.6,3.9c0.2,0.2,0.2,0.4,0,0.5c-0.1,0.1-0.2,0.1-0.3,0.1s-0.2,0-0.3-0.1
	C3.6,9.9,3,8.4,3,6.6c0-1.7,0.6-3.2,1.8-4.5c0.1,0,0.2,0,0.3,0S5.3,2.1,5.3,2.2z M3.3,0.1c0.2,0.2,0.2,0.4,0,0.5
	c-1.6,1.6-2.5,3.7-2.5,6s0.8,4.4,2.5,6c0.2,0.2,0.2,0.3,0,0.5c-0.1,0.1-0.2,0.1-0.3,0.1s-0.2,0-0.3-0.1c-0.9-0.9-1.6-1.9-2.1-3
	C0.2,9,0,7.9,0,6.6s0.2-2.4,0.7-3.5c0.4-1.1,1.1-2.1,2-3C2.8,0,2.9,0,3,0S3.2,0,3.3,0.1z M8.4,3.7c0.8,0,1.5,0.3,2.1,0.9
	s0.9,1.3,0.9,2.1c0,0.7-0.2,1.3-0.6,1.8c-0.4,0.5-1,0.9-1.6,1.1v10.3c0,0.2-0.1,0.4-0.2,0.5c-0.2,0.1-0.3,0.2-0.5,0.2
	S8.1,20.5,8,20.4c-0.2-0.2-0.2-0.3-0.2-0.5V9.6C7,9.4,6.4,9.1,6,8.5C5.6,8,5.4,7.4,5.4,6.7c0-0.9,0.3-1.6,0.9-2.1
	C6.8,4,7.6,3.7,8.4,3.7z M12.5,1.1c0,0,0.1-0.1,0.2-0.1s0.2,0,0.3,0.1c1.5,1.5,2.3,3.4,2.3,5.5c0,2.2-0.8,4-2.3,5.5
	c-0.1,0.1-0.2,0.1-0.3,0.1s-0.2,0-0.3-0.1c-0.2-0.2-0.2-0.4,0-0.5c1.4-1.4,2.1-3,2.1-4.9s-0.7-3.6-2.1-4.9
	C12.3,1.5,12.3,1.3,12.5,1.1z M11.4,2.7c-0.2-0.2-0.2-0.4,0-0.5C11.6,2,11.8,2,12,2.2c1.2,1.2,1.8,2.7,1.8,4.5
	c0,1.7-0.6,3.2-1.8,4.5c-0.1,0.1-0.2,0.1-0.3,0.1s-0.2,0-0.3-0.1c-0.2-0.2-0.2-0.4,0-0.5C12.5,9.5,13,8.2,13,6.6S12.5,3.8,11.4,2.7z
	 M13.8,0C13.9,0,14,0,14,0.1c0.9,0.9,1.6,1.9,2,3c0.5,1.1,0.7,2.3,0.7,3.5c0,2.6-0.9,4.8-2.7,6.5c-0.1,0.1-0.1,0.1-0.3,0.1
	c-0.1,0-0.2,0-0.3-0.1s-0.1-0.2-0.1-0.3s0-0.2,0.1-0.3C15.2,11,16,9,16,6.6s-0.8-4.4-2.5-6c-0.1-0.1-0.1-0.2-0.1-0.3s0-0.2,0.1-0.3
	C13.6,0,13.7,0,13.8,0z"/>
</svg>
