<?xml version="1.0" encoding="utf-8"?>
<!-- Generator: Adobe Illustrator 24.1.0, SVG Export Plug-In . SVG Version: 6.00 Build 0)  -->
<svg version="1.1" id="Ebene_1" xmlns="http://www.w3.org/2000/svg" xmlns:xlink="http://www.w3.org/1999/xlink" x="0px" y="0px"
	 viewBox="0 0 20.1 20.1" style="enable-background:new 0 0 20.1 20.1;" xml:space="preserve">
<style type="text/css">
	.st0{fill-rule:evenodd;clip-rule:evenodd;fill:#E5E5E5;}
</style>
<g>
	<g>
		<path class="st0" d="M12.7,11.6l-4-4L11.2,5c0.5-0.5,1-0.5,1.5,0l2.5,2.5c0.5,0.5,0.5,1,0,1.5L12.7,11.6z"/>
		<path class="st0" d="M16.3,3.5l3-3c0.2-0.2,0.4-0.2,0.6,0S20.1,0.8,20,1l-0.1,0.2l-3,3L16.3,3.5z"/>
		<path class="st0" d="M12.4,4.3l1.5-1.5c0.4-0.4,0.8-0.5,1.2-0.2l0,0L17,4.4c0.5,0.5,0.5,1,0,1.5l-1.5,1.5L12.4,4.3z"/>
	</g>
	<g>
		<path class="st0" d="M7.7,9l4,4l-2.5,2.5c-0.5,0.5-1,0.5-1.5,0L5.2,13c-0.5-0.5-0.5-1,0-1.5L7.7,9z"/>
		<path class="st0" d="M4.3,17l-3,3c-0.2,0.2-0.4,0.2-0.6,0c-0.1-0.1-0.2-0.3-0.1-0.4l0.1-0.2l3-3L4.3,17z"/>
		<path class="st0" d="M7.5,16.1L6,17.5c-0.4,0.4-0.8,0.5-1.2,0.2l0,0L3,15.9c-0.5-0.5-0.5-1,0-1.5L4.4,13L7.5,16.1z"/>
		<path class="st0" d="M9.3,9.4L9.3,9.4l1.9,1.8c0.4,0.4,0.5,0.8,0.2,1.1l-3-3C8.7,9.2,9,9.2,9.3,9.4z"/>
	</g>
	<path class="st0" d="M10.4,0c0.1,0,0.2,0,0.3,0.1l0.8,0.8c0.2,0.1,0.2,0.3-0.1,0.6L9.2,3.6L10,4.4c0,0.1,0.1,0.2,0,0.3
		c0,0.2,0,0.3-0.1,0.4C9.8,5.2,9.7,5.3,9.5,5.3l-3,0.2C6.2,5.4,6.1,5.3,6.1,5l0.2-3c0-0.3,0.2-0.5,0.5-0.5h0.1c0.1,0,0.2,0,0.3,0.1
		l0.7,0.7l2.2-2.2C10.2,0.1,10.3,0,10.4,0z M5.4,6.1L5.3,9c0,0.3-0.2,0.5-0.5,0.5c-0.1,0-0.3,0-0.4-0.1L3.7,8.7l-2.2,2.1
		C1.4,11,1.3,11,1.2,11c-0.1,0-0.2,0-0.3,0l-0.8-0.8C-0.1,10,0,9.8,0.2,9.6l2.2-2.2L1.6,6.7L1.5,6.3C1.5,6,1.7,5.8,2,5.8l3-0.2
		C5.3,5.6,5.4,5.8,5.4,6.1z"/>
</g>
</svg>
