<?xml version="1.0" encoding="utf-8"?>
<!-- Generator: Adobe Illustrator 24.1.0, SVG Export Plug-In . SVG Version: 6.00 Build 0)  -->
<svg version="1.1" id="Ebene_1" xmlns="http://www.w3.org/2000/svg" xmlns:xlink="http://www.w3.org/1999/xlink" x="0px" y="0px"
	 viewBox="0 0 11.6 19.4" style="enable-background:new 0 0 11.6 19.4;" xml:space="preserve">
<style type="text/css">
	.st0{fill-rule:evenodd;clip-rule:evenodd;fill:#E5E5E5;}
</style>
<path class="st0" d="M7.5,15.9c0,0.3,0.1,0.6,0.3,0.8C8,17,8.3,17.1,8.6,17.1s0.6-0.1,0.8-0.3c0.2-0.2,0.3-0.5,0.3-0.8
	c0-0.3-0.1-0.6-0.3-0.8s-0.5-0.3-0.8-0.3s-0.6,0-0.8,0.2C7.6,15.3,7.5,15.6,7.5,15.9z M4.9,15.1c-0.2,0.2-0.3,0.5-0.3,0.8
	c0,0.3,0.1,0.6,0.3,0.8C5.1,16.9,5.4,17,5.7,17s0.6-0.1,0.8-0.3c0.2-0.2,0.3-0.5,0.3-0.8c0-0.3-0.1-0.6-0.3-0.8
	c-0.2-0.2-0.5-0.3-0.8-0.3C5.5,14.8,5.2,14.9,4.9,15.1z M6.9,12.9c0-0.3-0.1-0.6-0.3-0.8c-0.2-0.2-0.5-0.3-0.8-0.3S5.2,11.9,5,12.1
	c-0.2,0.2-0.3,0.5-0.3,0.8s0.1,0.6,0.3,0.8C5.2,13.9,5.5,14,5.8,14s0.6-0.1,0.8-0.3S6.9,13.2,6.9,12.9z M7.8,12.1
	c-0.2,0.2-0.3,0.5-0.3,0.8s0.1,0.6,0.3,0.8C8,14,8.3,14.1,8.6,14.1s0.6-0.1,0.8-0.3s0.3-0.5,0.3-0.8s-0.1-0.6-0.3-0.8
	s-0.5-0.3-0.8-0.3S8,11.9,7.8,12.1z M4.9,9.4c-0.2,0.2-0.3,0.5-0.3,0.8s0.1,0.6,0.3,0.8c0.2,0.2,0.5,0.3,0.8,0.3s0.6-0.1,0.8-0.3
	c0.2-0.2,0.3-0.5,0.3-0.8S6.7,9.6,6.5,9.4C6.4,9.2,6.1,9.1,5.8,9.1C5.5,9.1,5.2,9.2,4.9,9.4z M9.4,9.4C9.2,9.2,8.9,9.1,8.6,9.1
	S8,9.2,7.8,9.4s-0.3,0.5-0.3,0.8s0.1,0.6,0.3,0.8c0.2,0.2,0.5,0.3,0.8,0.3s0.6-0.1,0.8-0.3s0.3-0.5,0.3-0.8C9.7,9.9,9.6,9.6,9.4,9.4
	z M9.6,7.6V7c0-0.3-0.1-0.5-0.4-0.5H6.9C6.6,6.5,6.5,6.7,6.5,7v0.7c0,0.3,0.1,0.5,0.4,0.5h2.3C9.5,8.1,9.6,8,9.6,7.6z M2.1,12.1
	c-0.2,0.2-0.3,0.5-0.3,0.8s0.1,0.6,0.3,0.8S2.6,14,2.9,14s0.6-0.1,0.8-0.3C3.9,13.5,4,13.2,4,12.9s-0.1-0.6-0.3-0.8
	s-0.5-0.3-0.8-0.3S2.3,11.9,2.1,12.1z M2.9,14.8c-0.3,0-0.6,0.1-0.8,0.3s-0.3,0.5-0.3,0.8c0,0.3,0.1,0.6,0.3,0.8S2.6,17,2.9,17
	s0.6-0.1,0.8-0.3C3.9,16.5,4,16.2,4,15.9c0-0.3-0.1-0.6-0.3-0.8C3.5,14.9,3.2,14.8,2.9,14.8z M1.8,10.2c0,0.3,0.1,0.6,0.3,0.8
	s0.5,0.3,0.8,0.3s0.6-0.1,0.8-0.3C3.9,10.8,4,10.5,4,10.2S3.9,9.6,3.7,9.4S3.2,9.1,2.9,9.1S2.3,9.2,2.1,9.4
	C1.9,9.6,1.8,9.9,1.8,10.2z M2.4,6.5C2.1,6.5,2,6.7,2,7v0.7C2,8,2.1,8.1,2.4,8.1h2.4c0.3,0,0.4-0.2,0.4-0.5V7c0-0.3-0.1-0.5-0.4-0.5
	H2.4z M9.6,0c0.6,0,1,0.2,1.4,0.6s0.6,0.8,0.6,1.4v15.4c0,0.6-0.2,1-0.6,1.4c-0.4,0.4-0.9,0.6-1.4,0.6H2c-0.5,0-1-0.2-1.4-0.6
	S0,17.9,0,17.4V2c0-0.5,0.2-1,0.6-1.4S1.4,0,2,0H9.6z M10.2,4.9c0.3-0.2,0.4-0.6,0.4-1V2.8c0-0.4-0.1-0.7-0.4-1
	c-0.3-0.3-0.6-0.4-1-0.4H2.4c-0.4,0-0.7,0.1-1,0.4C1.1,2,1,2.4,1,2.8v1.1c0,0.4,0.1,0.7,0.4,1s0.6,0.4,1,0.4h6.8
	C9.6,5.3,9.9,5.2,10.2,4.9z"/>
</svg>
