<?xml version="1.0" encoding="utf-8"?>
<!-- Generator: Adobe Illustrator 24.1.0, SVG Export Plug-In . SVG Version: 6.00 Build 0)  -->
<svg version="1.1" id="Selected_Items" xmlns="http://www.w3.org/2000/svg" xmlns:xlink="http://www.w3.org/1999/xlink" x="0px"
	 y="0px" viewBox="0 0 34.4 16.7" style="enable-background:new 0 0 34.4 16.7;" xml:space="preserve">
<style type="text/css">
	.st0{fill-rule:evenodd;clip-rule:evenodd;fill:#E5E5E5;}
</style>
<path class="st0" d="M5.6,1V0h2.5v0.2h0.6v0c0,0,0.1,0,0.1,0s0.1,0,0.1,0v0h0.2v0.1h0.4v2.4h1.4v0.1h0.1v0.2l0.1,0.1v0.1h-0.1
	l-0.1,0.1l-0.1,0.1v0.4h-0.2v0.7H9.9V4.4H9.6v0.2H9.6L9.5,4.6H9.4V4.3H9.2L9.1,3.5v3.1h0.2V6.4l0.1-0.1h0.1v0.1h0.1v0.2h0.3V6.3h0.2
	v0.2h0.3V6.1h0.2v0.8h0.4v0.1L11.2,7l0.1-0.1h0.1V6.9H12v-1h0.8v1H13V7h0.2V6.9h1.3l0,0.1l1,0.1V6.6h0.3V5.9l0-0.1V5.7h-0.1V5.5H16
	V5.2h-0.1V4.6h-0.1V4.2h0.1V3.7h-0.5V2.3h3.2v0.9h-0.9v1.2h0.6l0.2-0.3l0-0.1l0.1,0.1l0.1-0.1h0.5l0.1,0.1l0.4,0.3h0L20,4.6l0.2-0.3
	l0.1-0.1l0.4-0.1H21l0,0.1h0.1l0.5,0.4v0.1h0.2v0.2H22v0.1h1l1.5-0.3h0.2V4.5h0.6c0.3,0,0.5,0,0.8,0c0.1,0,0.3,0,0.4,0h0.8v0h0.2
	v0.1h0.7l1.2-0.3l1.7-0.1l1.5,0.1h0l0,0.2C32.9,4.6,33,4.9,33,5l0,0.3c0,0.1,0.1,0.1,0.2,0.2l-0.2,0.1h0.2c0.1,0.1,0.2,0.2,0.4,0.3
	c0.1,0,0.2,0,0.3,0c0.1,0,0.2,0,0.3,0v7.8H34l-0.1,0.1c-0.1,0-0.2,0.1-0.3,0.2L33.5,14l-0.2,0.1l-0.1,0.1c0,0-0.1,0.1-0.1,0.1
	l-0.2,0.1v0.5c0,0,0,0.1,0,0.1l0,0l-0.1,0.1l0,0h-0.1l0,0h-0.2l0,0h-0.2L28.8,15h-0.2l-0.1,0.1l-0.1,0.1l-0.1,0h0l0,0h0l0,0H28
	l-0.5,0.1h-0.6l0,0.4h-0.7l-0.3-0.1h-1.2L24.5,15L24.4,15v0l0,0.1l-0.1,0.1v0.1h-0.4l-0.1-0.1v0l-0.1,0v0h-0.4l-0.6,0.4l0,0v0.1h0v0
	h0l0,0l-0.1,0.1l0.1,0l-0.1,0.1v-0.1h0v0l0,0h0l-0.1-0.1h0v0.7l0,0v-0.1h-0.4v0.2l-0.1,0.1h-0.2v0.1h-0.8l0,0h0v-0.2l-0.2,0.1h0
	v-0.1h-0.1v-0.1l-0.1,0h0l0,0h-0.1l-0.1,0l-0.1-0.1h-0.1v0h-0.1v-0.5l-0.5-0.1h0l0,0L18,15.4h-0.5l-0.1,0h-0.1l0-0.1l-0.1-0.1h0V15
	l0,0v-1.1h0l-0.1-0.1v0.2l0,0.1h0v0l0,0.1l0,0.1l0.1,0v0.1h-0.1l-6.8-1.7v-0.1h0.4l0.1-0.1l0.3,0.1v-0.1l0.1-0.4h-0.3v0.1h-0.2v0
	h-0.1v-0.1h-0.1v-0.2H8.4l-0.6,0.8v0.4l0.1,0.1v0.4h0.1l-0.1,0.1v0.1H7.8v0.1L7.6,14v0H7.5l-0.1,0.1H7.2L7,14.1l-0.1-0.2l-0.1-1.1
	l-1-1.2H5.2v0.7H4.9v-0.7H4.8V11H4.1l0,0v-0.1h0v-0.2l-0.1-0.1v-0.1H3.9l-0.2-0.2H3.6V8.8l0.1-0.1l0.2-0.1L3.1,7.8H3L3,7.8H2.8V6.7
	H2.8v1.1H2.6L2.5,7.8H2.4V7.3L2.4,7.2H2.2v0.4h0.1v0.1H2.1v0.1L2,7.7H1.9V7H1.6V6.7H1.2L0.7,6.8L0.5,7L0.4,7.1h0v0.8H0.1V7.1l0-0.1
	H0V4.3l0.1-0.7V3.3h0.2V4l0,0.1l0.1,0.2l0.2,0.1l0.6,0.2h0.4V4.2H2V4h0.2V3.9h0.2l0.1-0.1V3.7L2.3,3.6H1.4v0.1H1.3v0.1H0.8V3H0.7
	V2.7H0.5V2.2h0.1V1.7h0.1v0H0.6V1.5h0.1v0h0.2v0.7h0.4v0.1h0.1l0.2-0.1h0.2l0.1,0.1L2,2.4L2,2.7v0.1h0.2l0.3,0.4h0.3V2.9h0.5
	l1.3-1.3h0.1V1H5.6z"/>
</svg>
