<?xml version="1.0" encoding="utf-8"?>
<!-- Generator: Adobe Illustrator 16.2.1, SVG Export Plug-In . SVG Version: 6.00 Build 0)  -->
<!DOCTYPE svg PUBLIC "-//W3C//DTD SVG 1.1//EN" "http://www.w3.org/Graphics/SVG/1.1/DTD/svg11.dtd">
<svg version="1.1" id="Ebene_1" xmlns="http://www.w3.org/2000/svg" xmlns:xlink="http://www.w3.org/1999/xlink" x="0px" y="0px"
	 width="595.28px" height="841.89px" viewBox="0 0 595.28 841.89" enable-background="new 0 0 595.28 841.89" xml:space="preserve">
<g>
	<path fill-rule="evenodd" clip-rule="evenodd" fill="#FF0000" d="M293.281,275.048c0.069-0.069,0.156-0.104,0.26-0.104
		c0.104,0,0.191,0.035,0.26,0.104c0.191,0.19,0.191,0.373,0,0.547c-1.371,1.371-2.057,3.02-2.057,4.946
		c0,1.926,0.686,3.575,2.057,4.946c0.191,0.19,0.191,0.373,0,0.546c-0.069,0.07-0.156,0.104-0.26,0.104
		c-0.122,0-0.208-0.034-0.26-0.104c-1.527-1.492-2.291-3.323-2.291-5.492C290.99,278.389,291.754,276.558,293.281,275.048z
		 M294.843,276.089c0.191,0.191,0.191,0.373,0,0.547c-1.076,1.076-1.614,2.378-1.614,3.905s0.538,2.828,1.614,3.904
		c0.191,0.191,0.191,0.374,0,0.547c-0.069,0.069-0.156,0.104-0.26,0.104c-0.104,0-0.191-0.035-0.26-0.104
		c-1.232-1.232-1.848-2.716-1.848-4.451c0-1.736,0.616-3.22,1.848-4.452c0.069-0.069,0.156-0.104,0.26-0.104
		C294.687,275.985,294.773,276.02,294.843,276.089z M292.76,274.006c0.191,0.191,0.191,0.365,0,0.521
		c-1.648,1.648-2.473,3.653-2.473,6.014s0.825,4.364,2.473,6.014c0.191,0.156,0.191,0.329,0,0.521
		c-0.069,0.069-0.156,0.104-0.26,0.104c-0.122,0-0.208-0.034-0.26-0.104c-0.903-0.885-1.588-1.9-2.057-3.046
		c-0.451-1.111-0.677-2.273-0.677-3.488s0.226-2.378,0.677-3.489c0.469-1.145,1.154-2.16,2.057-3.046
		c0.069-0.069,0.156-0.104,0.26-0.104C292.604,273.902,292.691,273.937,292.76,274.006z M297.889,277.573
		c0.833,0,1.545,0.295,2.135,0.885c0.59,0.573,0.885,1.284,0.885,2.135c0,0.694-0.217,1.311-0.65,1.849
		c-0.416,0.538-0.955,0.894-1.614,1.067v10.282c0,0.209-0.069,0.391-0.208,0.547c-0.156,0.139-0.338,0.209-0.547,0.209
		c-0.208,0-0.382-0.07-0.521-0.209c-0.156-0.156-0.234-0.338-0.234-0.547v-10.282c-0.659-0.174-1.197-0.529-1.614-1.067
		c-0.434-0.538-0.65-1.154-0.65-1.849c0-0.851,0.295-1.562,0.885-2.135C296.344,277.868,297.056,277.573,297.889,277.573z
		 M301.977,275.048c0.068-0.069,0.156-0.104,0.26-0.104s0.191,0.035,0.261,0.104c1.526,1.527,2.29,3.358,2.29,5.493
		c0,2.169-0.764,4-2.29,5.492c-0.069,0.07-0.157,0.104-0.261,0.104s-0.191-0.034-0.26-0.104c-0.174-0.173-0.174-0.355,0-0.546
		c1.371-1.371,2.057-3.021,2.057-4.946c0-1.927-0.686-3.575-2.057-4.946C301.803,275.421,301.803,275.238,301.977,275.048z
		 M300.935,276.636c-0.173-0.174-0.173-0.355,0-0.547c0.156-0.156,0.33-0.156,0.521,0c1.232,1.232,1.849,2.716,1.849,4.452
		c0,1.735-0.616,3.219-1.849,4.451c-0.068,0.069-0.156,0.104-0.26,0.104c-0.121,0-0.209-0.035-0.261-0.104
		c-0.173-0.173-0.173-0.355,0-0.547c1.076-1.076,1.614-2.377,1.614-3.904S302.011,277.712,300.935,276.636z M303.277,273.902
		c0.104,0,0.191,0.034,0.261,0.104c0.885,0.886,1.562,1.901,2.03,3.046c0.451,1.111,0.678,2.274,0.678,3.489
		c0,2.586-0.903,4.764-2.708,6.534c-0.052,0.069-0.14,0.104-0.261,0.104c-0.104,0-0.19-0.034-0.26-0.104s-0.104-0.156-0.104-0.261
		c0-0.104,0.035-0.19,0.104-0.26c1.648-1.649,2.473-3.653,2.473-6.014s-0.824-4.365-2.473-6.014
		c-0.069-0.069-0.104-0.156-0.104-0.261c0-0.087,0.035-0.173,0.104-0.261C303.104,273.937,303.191,273.902,303.277,273.902z"/>
</g>
<path fill-rule="evenodd" clip-rule="evenodd" fill="#FF0000" d="M299.299,444.04c0,0.342,0.109,0.622,0.326,0.84
	c0.248,0.218,0.529,0.326,0.84,0.326s0.574-0.108,0.792-0.326c0.218-0.249,0.326-0.529,0.326-0.84c0-0.31-0.108-0.574-0.326-0.792
	c-0.218-0.217-0.481-0.326-0.792-0.326s-0.592,0.109-0.84,0.326C299.408,443.466,299.299,443.73,299.299,444.04z M296.782,443.248
	c-0.217,0.218-0.326,0.482-0.326,0.792c0,0.342,0.109,0.622,0.326,0.84c0.249,0.218,0.528,0.326,0.839,0.326
	c0.311,0,0.575-0.108,0.792-0.326c0.217-0.249,0.326-0.529,0.326-0.84c0-0.31-0.109-0.574-0.326-0.792
	c-0.218-0.217-0.482-0.326-0.792-0.326C297.31,442.922,297.03,443.031,296.782,443.248z M298.74,441.057
	c0-0.311-0.109-0.574-0.326-0.792c-0.218-0.218-0.482-0.327-0.792-0.327c-0.311,0-0.591,0.109-0.839,0.327
	c-0.217,0.218-0.326,0.481-0.326,0.792c0,0.343,0.109,0.622,0.326,0.84c0.249,0.218,0.528,0.326,0.839,0.326
	c0.311,0,0.575-0.108,0.792-0.326C298.631,441.647,298.74,441.368,298.74,441.057z M299.625,440.265
	c-0.217,0.218-0.326,0.481-0.326,0.792c0,0.343,0.109,0.622,0.326,0.84c0.248,0.218,0.529,0.326,0.84,0.326s0.574-0.108,0.792-0.326
	c0.218-0.249,0.326-0.528,0.326-0.84c0-0.311-0.108-0.574-0.326-0.792s-0.481-0.327-0.792-0.327S299.873,440.047,299.625,440.265z
	 M296.782,437.561c-0.217,0.218-0.326,0.481-0.326,0.793c0,0.342,0.109,0.621,0.326,0.839c0.249,0.218,0.528,0.327,0.839,0.327
	c0.311,0,0.575-0.109,0.792-0.327c0.217-0.249,0.326-0.528,0.326-0.839c0-0.312-0.109-0.575-0.326-0.793
	c-0.218-0.218-0.482-0.326-0.792-0.326C297.31,437.234,297.03,437.343,296.782,437.561z M301.257,437.561
	c-0.218-0.218-0.481-0.326-0.792-0.326s-0.592,0.108-0.84,0.326c-0.217,0.218-0.326,0.481-0.326,0.793
	c0,0.342,0.109,0.621,0.326,0.839c0.248,0.218,0.529,0.327,0.84,0.327s0.574-0.109,0.792-0.327c0.218-0.249,0.326-0.528,0.326-0.839
	C301.583,438.042,301.475,437.778,301.257,437.561z M301.49,435.79v-0.653c0-0.311-0.141-0.466-0.42-0.466h-2.331
	c-0.28,0-0.419,0.155-0.419,0.466v0.653c0,0.311,0.14,0.466,0.419,0.466h2.331C301.35,436.256,301.49,436.101,301.49,435.79z
	 M293.938,440.265c-0.217,0.218-0.326,0.481-0.326,0.792c0,0.343,0.108,0.622,0.326,0.84c0.249,0.218,0.529,0.326,0.839,0.326
	s0.575-0.108,0.792-0.326c0.217-0.249,0.326-0.528,0.326-0.84c0-0.311-0.109-0.574-0.326-0.792s-0.482-0.327-0.792-0.327
	S294.187,440.047,293.938,440.265z M294.777,442.922c-0.311,0-0.59,0.109-0.839,0.326c-0.217,0.218-0.326,0.482-0.326,0.792
	c0,0.342,0.108,0.622,0.326,0.84c0.249,0.218,0.529,0.326,0.839,0.326s0.575-0.108,0.792-0.326c0.217-0.249,0.326-0.529,0.326-0.84
	c0-0.31-0.109-0.574-0.326-0.792C295.353,443.031,295.088,442.922,294.777,442.922z M293.612,438.354
	c0,0.342,0.108,0.621,0.326,0.839c0.249,0.218,0.529,0.327,0.839,0.327s0.575-0.109,0.792-0.327
	c0.217-0.249,0.326-0.528,0.326-0.839c0-0.312-0.109-0.575-0.326-0.793s-0.482-0.326-0.792-0.326s-0.59,0.108-0.839,0.326
	C293.721,437.778,293.612,438.042,293.612,438.354z M294.265,434.671c-0.28,0-0.419,0.155-0.419,0.466v0.653
	c0,0.311,0.14,0.466,0.419,0.466h2.424c0.28,0,0.42-0.155,0.42-0.466v-0.653c0-0.311-0.14-0.466-0.42-0.466H294.265z
	 M301.396,428.145c0.56,0,1.041,0.188,1.445,0.56c0.373,0.404,0.56,0.87,0.56,1.398v15.429c0,0.561-0.187,1.042-0.56,1.446
	c-0.404,0.372-0.886,0.559-1.445,0.559h-7.598c-0.528,0-0.994-0.187-1.398-0.559c-0.373-0.404-0.56-0.886-0.56-1.446v-15.429
	c0-0.528,0.187-0.994,0.56-1.398c0.404-0.372,0.871-0.56,1.398-0.56H301.396z M302.003,433.039c0.279-0.248,0.419-0.575,0.419-0.979
	v-1.119c0-0.404-0.14-0.729-0.419-0.979c-0.28-0.28-0.606-0.42-0.979-0.42h-6.805c-0.404,0-0.747,0.14-1.026,0.42
	c-0.279,0.249-0.42,0.574-0.42,0.979v1.119c0,0.403,0.141,0.73,0.42,0.979c0.279,0.28,0.622,0.42,1.026,0.42h6.805
	C301.396,433.459,301.723,433.319,302.003,433.039z"/>
<g>
	<path fill-rule="evenodd" clip-rule="evenodd" fill="#FF0000" d="M299.343,464.449c0,0.206,0.064,0.373,0.193,0.502
		c0.155,0.155,0.322,0.232,0.503,0.232h2.203l-2.899-2.9V464.449z M302.861,466.498h-2.822c-0.541,0-1.006-0.206-1.392-0.618
		c-0.413-0.387-0.619-0.864-0.619-1.431v-2.784h-4.911c-0.18,0-0.335,0.064-0.464,0.193c-0.129,0.154-0.193,0.322-0.193,0.503
		v13.455c0,0.181,0.064,0.335,0.193,0.465c0.129,0.128,0.284,0.192,0.464,0.192h9.086c0.181,0,0.335-0.064,0.464-0.192
		c0.129-0.13,0.193-0.284,0.193-0.465V466.498z M298.763,460.351l0.039,0.038c0.412,0.052,0.773,0.232,1.083,0.542l3.75,3.75
		c0.258,0.232,0.438,0.567,0.541,1.006l0.039,0.077v10.053c0,0.541-0.193,1.006-0.58,1.393c-0.412,0.386-0.889,0.579-1.431,0.579
		h-9.086c-0.515,0-0.967-0.18-1.353-0.541c-0.387-0.387-0.606-0.838-0.658-1.353v-13.533c0-0.567,0.206-1.044,0.619-1.431
		c0.387-0.387,0.85-0.58,1.392-0.58H298.763z"/>
	<path fill-rule="evenodd" clip-rule="evenodd" fill="#FF0000" d="M301.082,472.801c0.439,0,0.658,0.219,0.658,0.657
		c0,0.181-0.064,0.335-0.193,0.464s-0.283,0.193-0.465,0.193h-6.843c-0.181,0-0.335-0.064-0.464-0.193
		c-0.129-0.129-0.193-0.283-0.193-0.464c0-0.438,0.219-0.657,0.657-0.657H301.082z"/>
	<path fill-rule="evenodd" clip-rule="evenodd" fill="#FF0000" d="M301.082,470.094c0.182,0,0.336,0.064,0.465,0.193
		c0.129,0.155,0.193,0.322,0.193,0.503s-0.064,0.335-0.193,0.464s-0.283,0.193-0.465,0.193h-6.843c-0.181,0-0.335-0.064-0.464-0.193
		c-0.129-0.129-0.193-0.283-0.193-0.464s0.064-0.348,0.193-0.503c0.128-0.129,0.283-0.193,0.464-0.193H301.082z"/>
</g>
<g>
	
		<path fill-rule="evenodd" clip-rule="evenodd" fill="#FF0000" stroke="#FFFFFF" stroke-linecap="round" stroke-linejoin="round" stroke-miterlimit="3" d="
		M287.75,317.7c0-0.267,0-0.55,0-0.851c0-2.767,0.967-5.133,2.9-7.1c1.967-1.967,4.35-2.95,7.15-2.95
		c2.767,0,5.134,0.983,7.101,2.95s2.949,4.333,2.949,7.1c0,0.301-0.016,0.584-0.05,0.851"/>
	<g>
		<polygon fill-rule="evenodd" clip-rule="evenodd" fill="#FF0000" points="295,318.6 300.05,318.6 301.3,322.45 293.95,322.45 
			294.4,320.75 294.4,320.7 294.5,320.5 		"/>
	</g>
	<g>
		<path fill-rule="evenodd" clip-rule="evenodd" fill="#FF0000" d="M292.9,314.35h9.35c1.2,0.034,2.3,0.384,3.3,1.051l0.3,0.149
			v3.05h-16.5v-3.05l0.25-0.149C290.6,314.733,291.7,314.384,292.9,314.35z"/>
	</g>
	<g>
		<polygon fill-rule="evenodd" clip-rule="evenodd" fill="#FF0000" points="294.2,308.7 294.2,308.65 301.15,308.65 300.55,311.45 
			299.4,311.45 299.4,312 295.85,312 295.85,311.45 294.65,311.45 294.05,308.7 		"/>
	</g>
</g>
<g>
	<g>
		<path fill-rule="evenodd" clip-rule="evenodd" fill="#FF0000" d="M300.589,535.293h1.705c0,0.901-0.044,1.658-0.131,2.271
			c-0.088,0.612-0.204,0.919-0.351,0.919h-0.742c-0.117,0-0.234-0.307-0.35-0.919C300.633,536.951,300.589,536.194,300.589,535.293z
			"/>
		<rect x="286.692" y="533.8" fill-rule="evenodd" clip-rule="evenodd" fill="#FF0000" width="21.974" height="1.101"/>
		<path fill-rule="evenodd" clip-rule="evenodd" fill="#FF0000" d="M305.4,524.6v8.95h-15.3v-8.95c0-0.633,0.183-1.183,0.55-1.649
			s0.8-0.7,1.3-0.7h11.6c0.5,0,0.95,0.233,1.351,0.7C305.233,523.417,305.4,523.967,305.4,524.6z M294.85,532.15v-0.7h-2.8v0.7
			H294.85z M298.3,528.6l-1,4.15l3.45-5.3h-3.45l1.75-4.2l-4.25,5.35H298.3z M304.15,532.15v-0.7H303.1v-1.05h-0.75v1.05h-1.05v0.7
			h1.05v1.05h0.75v-1.05H304.15z"/>
		<path fill-rule="evenodd" clip-rule="evenodd" fill="#FF0000" d="M293.139,535.293h1.705c0,0.901-0.044,1.658-0.131,2.271
			c-0.088,0.612-0.204,0.919-0.35,0.919h-0.743c-0.117,0-0.234-0.307-0.35-0.919C293.183,536.951,293.139,536.194,293.139,535.293z"
			/>
	</g>
</g>
<g>
	<g>
		<path fill-rule="evenodd" clip-rule="evenodd" fill="#FF0000" d="M294.954,499.137l-2.885,2.786
			c0.597,1.028,1.393,1.841,2.388,2.438c1.029,0.597,2.139,0.896,3.333,0.896c1.493,0,2.836-0.465,4.03-1.394
			c1.193-0.896,1.99-2.057,2.388-3.482l1.94,0.597c-0.531,1.857-1.559,3.366-3.085,4.527c-1.559,1.194-3.316,1.791-5.273,1.791
			c-1.459,0-2.836-0.349-4.129-1.044c-1.261-0.697-2.289-1.643-3.085-2.836l-2.736,2.687v-7.016L294.954,499.137z"/>
		<path fill-rule="evenodd" clip-rule="evenodd" fill="#FF0000" d="M305.004,493.564l2.736-2.736v7.016h-7.114l2.886-2.836
			c-0.564-0.995-1.359-1.791-2.389-2.389c-1.027-0.597-2.139-0.896-3.333-0.896c-1.492,0-2.836,0.465-4.029,1.394
			c-1.194,0.896-1.974,2.04-2.339,3.433l-1.99-0.597c0.53-1.824,1.559-3.317,3.084-4.478c1.559-1.194,3.316-1.791,5.273-1.791
			c1.493,0,2.886,0.348,4.18,1.044C303.197,491.426,304.208,492.371,305.004,493.564z"/>
	</g>
</g>
<g>
	<g>
		<path fill-rule="evenodd" clip-rule="evenodd" fill="#FF0000" d="M300.49,408.07l-4.003-4.002l2.524-2.524
			c0.485-0.485,0.971-0.485,1.455-0.001l2.548,2.548c0.485,0.485,0.485,0.97,0,1.455L300.49,408.07z"/>
		<path fill-rule="evenodd" clip-rule="evenodd" fill="#FF0000" d="M304.113,400.048l2.979-2.978c0.227-0.197,0.439-0.197,0.637,0
			c0.121,0.121,0.15,0.257,0.09,0.408l-0.113,0.205l-2.977,2.979L304.113,400.048z"/>
		<path fill-rule="evenodd" clip-rule="evenodd" fill="#FF0000" d="M300.185,400.796l1.479-1.479
			c0.401-0.402,0.804-0.47,1.205-0.204l0.022-0.023l1.865,1.865c0.485,0.485,0.485,0.971,0,1.455l-1.479,1.479L300.185,400.796z"/>
	</g>
	<g>
		<path fill-rule="evenodd" clip-rule="evenodd" fill="#FF0000" d="M295.513,405.551l4.003,4.003l-2.525,2.524
			c-0.485,0.486-0.97,0.486-1.456,0.001l-2.547-2.547c-0.485-0.485-0.485-0.971,0-1.456L295.513,405.551z"/>
		<path fill-rule="evenodd" clip-rule="evenodd" fill="#FF0000" d="M292.082,413.476l-2.979,2.979c-0.227,0.197-0.439,0.197-0.637,0
			c-0.122-0.122-0.152-0.258-0.091-0.41l0.114-0.204l2.979-2.979L292.082,413.476z"/>
		<path fill-rule="evenodd" clip-rule="evenodd" fill="#FF0000" d="M295.32,412.576l-1.479,1.479
			c-0.402,0.402-0.804,0.471-1.205,0.205l-0.022,0.022l-1.865-1.865c-0.485-0.485-0.485-0.97,0-1.455l1.479-1.479L295.32,412.576z"
			/>
		<path fill-rule="evenodd" clip-rule="evenodd" fill="#FF0000" d="M297.083,405.892l0.022-0.022l1.865,1.865
			c0.383,0.384,0.463,0.766,0.238,1.148l-3.025-3.024C296.487,405.676,296.787,405.687,297.083,405.892z"/>
	</g>
	<path fill-rule="evenodd" clip-rule="evenodd" fill="#FF0000" d="M298.179,396.523c0.142-0.028,0.241,0,0.298,0.085l0.766,0.767
		c0.198,0.143,0.171,0.342-0.085,0.597l-2.171,2.129l0.766,0.766c0.085,0.114,0.114,0.242,0.085,0.384
		c0,0.114-0.057,0.227-0.17,0.341c-0.085,0.113-0.199,0.171-0.341,0.171l-2.98,0.169c-0.341,0-0.482-0.141-0.426-0.426l0.17-2.98
		c0-0.312,0.156-0.468,0.468-0.468l0.127-0.043c0.114,0,0.199,0.043,0.256,0.129l0.724,0.723l2.214-2.171
		C297.966,396.58,298.065,396.523,298.179,396.523z M293.24,402.613l-0.17,2.938c0,0.284-0.17,0.454-0.511,0.511
		c-0.142,0.028-0.27,0-0.383-0.085l-0.724-0.724l-2.171,2.129c-0.085,0.113-0.185,0.17-0.298,0.17
		c-0.143,0.028-0.241,0.015-0.298-0.042l-0.809-0.767c-0.142-0.199-0.1-0.397,0.128-0.597l2.171-2.171l-0.766-0.768l-0.085-0.382
		c0-0.312,0.156-0.47,0.468-0.47l2.98-0.169C293.083,402.13,293.24,402.271,293.24,402.613z"/>
</g>
<g>
	<path fill-rule="evenodd" clip-rule="evenodd" fill="#FF0000" d="M290.15,564.1h0.6v3.051c0,0.199,0.017,0.383,0.05,0.55
		c0.034,0.166,0.1,0.3,0.2,0.399c0.067,0.134,0.183,0.233,0.35,0.301c0.133,0.066,0.316,0.1,0.55,0.1c0.2,0,0.367-0.033,0.5-0.1
		c0.167-0.067,0.3-0.167,0.4-0.301c0.1-0.1,0.15-0.233,0.15-0.399c0.033-0.167,0.05-0.351,0.05-0.55V564.1h0.65v3.051
		c0,0.333-0.033,0.616-0.1,0.85c-0.066,0.233-0.183,0.434-0.35,0.6c-0.167,0.134-0.35,0.25-0.55,0.351c-0.2,0.066-0.45,0.1-0.75,0.1
		c-0.267,0-0.517-0.033-0.75-0.1c-0.233-0.101-0.417-0.217-0.55-0.351c-0.167-0.166-0.283-0.366-0.35-0.6s-0.1-0.517-0.1-0.85V564.1
		z M301.75,554.4c0,1-0.3,1.883-0.9,2.649l-3.399,6.2l-3.45-6.2c-0.633-0.833-0.95-1.717-0.95-2.649c0-1.2,0.434-2.217,1.3-3.051
		c0.867-0.833,1.9-1.25,3.1-1.25c1.167,0,2.183,0.417,3.05,1.25C301.334,552.184,301.75,553.2,301.75,554.4z M299.6,552.25
		c-0.633-0.566-1.35-0.85-2.149-0.85c-0.833,0-1.534,0.283-2.1,0.85c-0.633,0.634-0.95,1.35-0.95,2.15c0,0.833,0.317,1.533,0.95,2.1
		c0.566,0.6,1.267,0.9,2.1,0.9c0.8,0,1.517-0.301,2.149-0.9c0.601-0.566,0.9-1.267,0.9-2.1C300.5,553.6,300.2,552.884,299.6,552.25z
		 M296.95,553.9V552.8h1v1.101h1.149v1.05h-1.149v1.1h-1v-1.1h-1.15v-1.05H296.95z M297.4,564.1h0.65v4.851h-0.75l-2.15-4.2v4.2
		h-0.6V564.1h0.9l1.95,3.851V564.1z M301.05,564.7V564.1h3.851v0.601H303.3v4.25h-0.649v-4.25H301.05z M300.75,564.1v0.5h-0.65
		v3.851h0.65v0.5h-1.9v-0.5h0.6V564.6h-0.6v-0.5H300.75z"/>
</g>
<path fill-rule="evenodd" clip-rule="evenodd" fill="#FF0000" d="M300.5,341.25l3.3-3.25l0.8-0.2c0.566,0,1.066,0.217,1.5,0.65
	c0.7,0.7,0.834,1.45,0.4,2.25l-3.3,3.3c1.667,5.3,2.417,8.233,2.25,8.8c-0.134,0.533-0.95,1.367-2.45,2.5l-3.45-7.649l-3.75,3.8
	l0.05,0.95c0.033,0.666,0.017,1.149-0.05,1.449c-0.1,0.467-0.75,1.101-1.95,1.9L292.5,352l-4.1-1.35l0.7-0.851
	c0.533-0.633,0.933-1,1.2-1.1c0.5-0.134,1.434-0.134,2.8,0l3.75-3.8l-7.7-3.45l1-1.2c0.667-0.8,1.167-1.233,1.5-1.3
	c0.3-0.033,1.85,0.333,4.65,1.1C297.733,340.45,299.133,340.85,300.5,341.25z"/>
<g>
	<path fill-rule="evenodd" clip-rule="evenodd" fill="#FF0000" d="M296.8,374.8v-2.149h3.351v-0.95h-4.4v4.149l0.7-0.149
		c0.3-0.033,0.6-0.05,0.9-0.05c0.267,0,0.517,0.017,0.75,0.05c0.2,0.1,0.383,0.2,0.55,0.3c0.167,0.134,0.283,0.3,0.35,0.5
		c0.1,0.167,0.15,0.4,0.15,0.7s-0.051,0.533-0.15,0.7c-0.067,0.233-0.167,0.433-0.3,0.6s-0.317,0.283-0.55,0.35
		c-0.2,0.101-0.4,0.15-0.6,0.15c-0.2,0-0.4-0.033-0.6-0.1l-1.1-0.4l-0.35-0.2h-0.05v1.15c0.267,0.133,0.583,0.25,0.95,0.35
		c0.367,0.066,0.733,0.101,1.1,0.101c0.433,0,0.817-0.067,1.15-0.2c0.333-0.134,0.617-0.316,0.85-0.55
		c0.233-0.267,0.416-0.567,0.55-0.9c0.101-0.333,0.15-0.684,0.15-1.05c0-0.5-0.067-0.9-0.2-1.2c-0.166-0.3-0.367-0.55-0.6-0.75
		c-0.268-0.2-0.55-0.333-0.851-0.4c-0.3-0.066-0.65-0.1-1.05-0.1L296.8,374.8z M297.8,369.95c1.534,0,2.833,0.533,3.9,1.6
		c1.066,1.101,1.6,2.4,1.6,3.9c0,1.533-0.533,2.833-1.6,3.899c-1.067,1.067-2.366,1.601-3.9,1.601c-1.533,0-2.816-0.533-3.85-1.601
		c-1.1-1.066-1.65-2.366-1.65-3.899c0-1.5,0.55-2.8,1.65-3.9C294.983,370.483,296.267,369.95,297.8,369.95z M302.55,370.65
		c-1.3-1.301-2.884-1.95-4.75-1.95c-1.867,0-3.45,0.649-4.75,1.95c-1.333,1.333-2,2.933-2,4.8c0,1.866,0.667,3.45,2,4.75
		c1.3,1.333,2.883,2,4.75,2c1.866,0,3.45-0.667,4.75-2c1.333-1.3,2-2.884,2-4.75C304.55,373.583,303.883,371.983,302.55,370.65z
		 M305.8,370.6v9.7l-8,4.55l-7.95-4.55v-9.7l7.95-4.55L305.8,370.6z"/>
</g>
</svg>
