<?xml version="1.0" encoding="utf-8"?>
<!-- Generator: Adobe Illustrator 24.1.0, SVG Export Plug-In . SVG Version: 6.00 Build 0)  -->
<svg version="1.1" id="Ebene_1" xmlns="http://www.w3.org/2000/svg" xmlns:xlink="http://www.w3.org/1999/xlink" x="0px" y="0px"
	 viewBox="0 0 14.8 19" style="enable-background:new 0 0 14.8 19;" xml:space="preserve">
<style type="text/css">
	.st0{fill-rule:evenodd;clip-rule:evenodd;fill:#E5E4E4;}
</style>
<g>
	<path class="st0" d="M0,14h0.6v3.1c0,0.2,0,0.4,0,0.5c0,0.2,0.1,0.3,0.2,0.4c0.1,0.1,0.2,0.2,0.4,0.3c0.1,0.1,0.3,0.1,0.5,0.1
		c0.2,0,0.4,0,0.5-0.1c0.2-0.1,0.3-0.2,0.4-0.3c0.1-0.1,0.1-0.2,0.1-0.4c0-0.2,0-0.4,0-0.5V14h0.6v3.1c0,0.3,0,0.6-0.1,0.8
		c-0.1,0.2-0.2,0.4-0.4,0.6c-0.2,0.1-0.4,0.2-0.5,0.4C2.3,18.9,2,19,1.8,19c-0.3,0-0.5,0-0.8-0.1c-0.2-0.1-0.4-0.2-0.5-0.4
		c-0.2-0.2-0.3-0.4-0.4-0.6S0,17.4,0,17.1L0,14L0,14z M11.6,4.3c0,1-0.3,1.9-0.9,2.6l-3.4,6.2L3.9,7c-0.6-0.8-1-1.7-1-2.6
		c0-1.2,0.4-2.2,1.3-3.1C5.1,0.4,6.1,0,7.3,0c1.2,0,2.2,0.4,3,1.2C11.2,2.1,11.6,3.1,11.6,4.3z M9.5,2.2C8.8,1.6,8.1,1.3,7.3,1.3
		c-0.8,0-1.5,0.3-2.1,0.8c-0.6,0.6-1,1.3-1,2.2c0,0.8,0.3,1.5,1,2.1C5.8,7,6.5,7.3,7.3,7.3c0.8,0,1.5-0.3,2.1-0.9
		c0.6-0.6,0.9-1.3,0.9-2.1C10.4,3.5,10.1,2.8,9.5,2.2z M6.8,3.8V2.7h1v1.1h1.1v1H7.8V6h-1V4.9H5.7v-1L6.8,3.8L6.8,3.8z M7.3,14h0.6
		v4.9H7.2L5,14.7v4.2H4.4V14h0.9l2,3.9V14z M10.9,14.6V14h3.9v0.6h-1.6v4.2h-0.6v-4.2L10.9,14.6L10.9,14.6z M10.6,14v0.5H10v3.9h0.6
		v0.5H8.7v-0.5h0.6v-3.9H8.7V14H10.6z"/>
</g>
</svg>
