<?xml version="1.0" encoding="utf-8"?>
<!-- Generator: Adobe Illustrator 19.0.0, SVG Export Plug-In . SVG Version: 6.00 Build 0)  -->
<svg version="1.1" id="Layer_1" xmlns="http://www.w3.org/2000/svg" xmlns:xlink="http://www.w3.org/1999/xlink" x="0px" y="0px"
	 viewBox="282 375 44 35" style="enable-background:new 282 375 44 35;" xml:space="preserve">
<style type="text/css">
	.st0{fill:#fff;}
</style>
<path class="st0" d="M309.5,390.3l3.3-3.3l0.8-0.2c0.6,0,1.1,0.2,1.5,0.6c0.7,0.7,0.8,1.5,0.4,2.3l-3.3,3.3c1.7,5.3,2.4,8.2,2.3,8.8
	c-0.1,0.5-1,1.4-2.5,2.5l-3.5-7.6l-3.8,3.8v1c0,0.7,0,1.1,0,1.4c-0.1,0.5-0.8,1.1-2,1.9l-1.3-3.7l-4.1-1.4l0.7-0.9
	c0.5-0.6,0.9-1,1.2-1.1c0.5-0.1,1.4-0.1,2.8,0l3.8-3.8l-7.7-3.5l1-1.2c0.7-0.8,1.2-1.2,1.5-1.3c0.3,0,1.9,0.3,4.6,1.1
	C306.7,389.5,308.1,389.9,309.5,390.3z"/>
</svg>
