<?xml version="1.0" encoding="utf-8"?>
<!-- Generator: Adobe Illustrator 19.0.0, SVG Export Plug-In . SVG Version: 6.00 Build 0)  -->
<svg version="1.1" id="Layer_1" xmlns="http://www.w3.org/2000/svg" xmlns:xlink="http://www.w3.org/1999/xlink" x="0px" y="0px"
	 viewBox="286 379 43 33.5" style="enable-background:new 286 379 43 33.5;" xml:space="preserve">
<style type="text/css">
	.st0{fill:#fff;}
</style>
<g>
	<path class="st0" d="M301.6,387c0.1-0.1,0.2-0.1,0.3-0.1s0.2,0,0.3,0.1c0.2,0.2,0.2,0.4,0,0.5c-1.4,1.4-2.1,3-2.1,4.9
		s0.7,3.6,2.1,4.9c0.2,0.2,0.2,0.4,0,0.5c-0.1,0.1-0.2,0.1-0.3,0.1c-0.1,0-0.2,0-0.3-0.1c-1.5-1.5-2.3-3.3-2.3-5.5
		C299.3,390.3,300.1,388.5,301.6,387z M303.2,388c0.2,0.2,0.2,0.4,0,0.5c-1.1,1.1-1.6,2.4-1.6,3.9s0.5,2.8,1.6,3.9
		c0.2,0.2,0.2,0.4,0,0.5c-0.1,0.1-0.2,0.1-0.3,0.1s-0.2,0-0.3-0.1c-1.2-1.2-1.8-2.7-1.8-4.5c0-1.7,0.6-3.2,1.8-4.5
		c0.1-0.1,0.2-0.1,0.3-0.1C303,387.9,303.1,388,303.2,388z M301.1,386c0.2,0.2,0.2,0.4,0,0.5c-1.6,1.6-2.5,3.7-2.5,6s0.8,4.4,2.5,6
		c0.2,0.2,0.2,0.3,0,0.5c-0.1,0.1-0.2,0.1-0.3,0.1c-0.1,0-0.2,0-0.3-0.1c-0.9-0.9-1.6-1.9-2.1-3s-0.7-2.3-0.7-3.5s0.2-2.4,0.7-3.5
		s1.2-2.2,2.1-3c0.1-0.1,0.2-0.1,0.3-0.1C301,385.9,301,385.9,301.1,386z M306.2,389.5c0.8,0,1.5,0.3,2.1,0.9s0.9,1.3,0.9,2.1
		c0,0.7-0.2,1.3-0.6,1.8s-1,0.9-1.6,1.1v10.3c0,0.2-0.1,0.4-0.2,0.5c-0.2,0.1-0.3,0.2-0.5,0.2s-0.4-0.1-0.5-0.2
		c-0.2-0.2-0.2-0.3-0.2-0.5v-10.3c-0.7-0.2-1.2-0.5-1.6-1.1c-0.4-0.5-0.6-1.2-0.6-1.8c0-0.9,0.3-1.6,0.9-2.1
		C304.7,389.8,305.4,389.5,306.2,389.5z M310.3,387c0.1-0.1,0.2-0.1,0.3-0.1s0.2,0,0.3,0.1c1.5,1.5,2.3,3.4,2.3,5.5
		c0,2.2-0.8,4-2.3,5.5c-0.1,0.1-0.2,0.1-0.3,0.1s-0.2,0-0.3-0.1c-0.2-0.2-0.2-0.4,0-0.5c1.4-1.4,2.1-3,2.1-4.9s-0.7-3.6-2.1-4.9
		C310.2,387.4,310.2,387.2,310.3,387z M309.3,388.6c-0.2-0.2-0.2-0.4,0-0.5c0.2-0.2,0.3-0.2,0.5,0c1.2,1.2,1.8,2.7,1.8,4.5
		c0,1.7-0.6,3.2-1.8,4.5c-0.1,0.1-0.2,0.1-0.3,0.1c-0.1,0-0.2,0-0.3-0.1c-0.2-0.2-0.2-0.4,0-0.5c1.1-1.1,1.6-2.4,1.6-3.9
		S310.4,389.7,309.3,388.6z M311.6,385.9c0.1,0,0.2,0,0.3,0.1c0.9,0.9,1.6,1.9,2,3c0.5,1.1,0.7,2.3,0.7,3.5c0,2.6-0.9,4.8-2.7,6.5
		c-0.1,0.1-0.1,0.1-0.3,0.1c-0.1,0-0.2,0-0.3-0.1s-0.1-0.2-0.1-0.3c0-0.1,0-0.2,0.1-0.3c1.6-1.6,2.5-3.7,2.5-6s-0.8-4.4-2.5-6
		c-0.1-0.1-0.1-0.2-0.1-0.3c0-0.1,0-0.2,0.1-0.3C311.5,385.9,311.5,385.9,311.6,385.9z"/>
</g>
</svg>
