<?xml version="1.0" encoding="utf-8"?>
<!-- Generator: Adobe Illustrator 19.0.0, SVG Export Plug-In . SVG Version: 6.00 Build 0)  -->
<svg version="1.1" id="Layer_1" xmlns="http://www.w3.org/2000/svg" xmlns:xlink="http://www.w3.org/1999/xlink" x="0px" y="0px"
	 viewBox="281 370 48 44" style="enable-background:new 281 370 48 44;" xml:space="preserve">
<style type="text/css">
	.st0{fill:#fff;}
</style>
<g>
	<g>
		<path class="st0" d="M309.5,397.1l-4-4l2.5-2.5c0.5-0.5,1-0.5,1.5,0l2.5,2.5c0.5,0.5,0.5,1,0,1.5L309.5,397.1z"/>
		<path class="st0" d="M313.1,389l3-3c0.2-0.2,0.4-0.2,0.6,0c0.1,0.1,0.1,0.3,0.1,0.4l-0.1,0.2l-3,3L313.1,389z"/>
		<path class="st0" d="M309.2,389.8l1.5-1.5c0.4-0.4,0.8-0.5,1.2-0.2l0,0l1.9,1.9c0.5,0.5,0.5,1,0,1.5l-1.5,1.5L309.2,389.8z"/>
	</g>
	<g>
		<path class="st0" d="M304.5,394.6l4,4l-2.5,2.5c-0.5,0.5-1,0.5-1.5,0l-2.5-2.5c-0.5-0.5-0.5-1,0-1.5L304.5,394.6z"/>
		<path class="st0" d="M301.1,402.5l-3,3c-0.2,0.2-0.4,0.2-0.6,0c-0.1-0.1-0.2-0.3-0.1-0.4l0.1-0.2l3-3L301.1,402.5z"/>
		<path class="st0" d="M304.3,401.6l-1.5,1.5c-0.4,0.4-0.8,0.5-1.2,0.2l0,0l-1.9-1.9c-0.5-0.5-0.5-1,0-1.5l1.5-1.5L304.3,401.6z"/>
		<path class="st0" d="M306.1,394.9L306.1,394.9l1.9,1.8c0.4,0.4,0.5,0.8,0.2,1.1l-3-3C305.5,394.7,305.8,394.7,306.1,394.9z"/>
	</g>
	<path class="st0" d="M307.2,385.5c0.1,0,0.2,0,0.3,0.1l0.8,0.8c0.2,0.1,0.2,0.3-0.1,0.6l-2.2,2.1l0.8,0.8c0.1,0.1,0.1,0.2,0.1,0.4
		c0,0.1-0.1,0.2-0.2,0.3c-0.1,0.1-0.2,0.2-0.3,0.2l-3,0.2c-0.3,0-0.5-0.1-0.4-0.4l0.2-3c0-0.3,0.2-0.5,0.5-0.5h0.1
		c0.1,0,0.2,0,0.3,0.1l0.7,0.7l2.2-2.2C307,385.6,307.1,385.5,307.2,385.5z M302.2,391.6l-0.2,2.9c0,0.3-0.2,0.5-0.5,0.5
		c-0.1,0-0.3,0-0.4-0.1l-0.7-0.7l-2.2,2.1c-0.1,0.1-0.2,0.2-0.3,0.2c-0.1,0-0.2,0-0.3,0l-0.8-0.8c-0.1-0.2-0.1-0.4,0.1-0.6l2.2-2.2
		l-0.8-0.8l-0.1-0.4c0-0.3,0.2-0.5,0.5-0.5l3-0.2C302.1,391.1,302.2,391.3,302.2,391.6z"/>
</g>
</svg>
