<?xml version="1.0" encoding="utf-8"?>
<!-- Generator: Adobe Illustrator 19.0.0, SVG Export Plug-In . SVG Version: 6.00 Build 0)  -->
<svg version="1.1" id="Layer_1" xmlns="http://www.w3.org/2000/svg" xmlns:xlink="http://www.w3.org/1999/xlink" x="0px" y="0px"
	 viewBox="286 372 42 42" style="enable-background:new 286 372 42 42;" xml:space="preserve">
<style type="text/css">
	.st0{fill:#fff;}
</style>
<path class="st0" d="M308.3,402c0,0.3,0.1,0.6,0.3,0.8c0.2,0.2,0.5,0.3,0.8,0.3s0.6-0.1,0.8-0.3c0.2-0.2,0.3-0.5,0.3-0.8
	s-0.1-0.6-0.3-0.8c-0.2-0.2-0.5-0.3-0.8-0.3s-0.6,0.1-0.8,0.3C308.4,401.5,308.3,401.7,308.3,402z M305.8,401.2
	c-0.2,0.2-0.3,0.5-0.3,0.8s0.1,0.6,0.3,0.8c0.2,0.2,0.5,0.3,0.8,0.3s0.6-0.1,0.8-0.3c0.2-0.2,0.3-0.5,0.3-0.8s-0.1-0.6-0.3-0.8
	c-0.2-0.2-0.5-0.3-0.8-0.3C306.3,400.9,306,401,305.8,401.2z M307.7,399.1c0-0.3-0.1-0.6-0.3-0.8c-0.2-0.2-0.5-0.3-0.8-0.3
	s-0.6,0.1-0.8,0.3c-0.2,0.2-0.3,0.5-0.3,0.8s0.1,0.6,0.3,0.8c0.2,0.2,0.5,0.3,0.8,0.3s0.6-0.1,0.8-0.3
	C307.6,399.6,307.7,399.4,307.7,399.1z M308.6,398.3c-0.2,0.2-0.3,0.5-0.3,0.8s0.1,0.6,0.3,0.8c0.2,0.2,0.5,0.3,0.8,0.3
	s0.6-0.1,0.8-0.3c0.2-0.2,0.3-0.5,0.3-0.8s-0.1-0.6-0.3-0.8s-0.5-0.3-0.8-0.3S308.9,398,308.6,398.3z M305.8,395.6
	c-0.2,0.2-0.3,0.5-0.3,0.8s0.1,0.6,0.3,0.8c0.2,0.2,0.5,0.3,0.8,0.3s0.6-0.1,0.8-0.3c0.2-0.2,0.3-0.5,0.3-0.8s-0.1-0.6-0.3-0.8
	c-0.2-0.2-0.5-0.3-0.8-0.3C306.3,395.2,306,395.3,305.8,395.6z M310.3,395.6c-0.2-0.2-0.5-0.3-0.8-0.3s-0.6,0.1-0.8,0.3
	c-0.2,0.2-0.3,0.5-0.3,0.8s0.1,0.6,0.3,0.8c0.2,0.2,0.5,0.3,0.8,0.3s0.6-0.1,0.8-0.3c0.2-0.2,0.3-0.5,0.3-0.8
	C310.6,396,310.5,395.8,310.3,395.6z M310.5,393.8v-0.7c0-0.3-0.1-0.5-0.4-0.5h-2.3c-0.3,0-0.4,0.2-0.4,0.5v0.7
	c0,0.3,0.1,0.5,0.4,0.5h2.3C310.4,394.3,310.5,394.1,310.5,393.8z M302.9,398.3c-0.2,0.2-0.3,0.5-0.3,0.8s0.1,0.6,0.3,0.8
	c0.2,0.2,0.5,0.3,0.8,0.3s0.6-0.1,0.8-0.3c0.2-0.2,0.3-0.5,0.3-0.8s-0.1-0.6-0.3-0.8s-0.5-0.3-0.8-0.3S303.2,398,302.9,398.3z
	 M303.8,400.9c-0.3,0-0.6,0.1-0.8,0.3c-0.2,0.2-0.3,0.5-0.3,0.8s0.1,0.6,0.3,0.8c0.2,0.2,0.5,0.3,0.8,0.3s0.6-0.1,0.8-0.3
	c0.2-0.2,0.3-0.5,0.3-0.8s-0.1-0.6-0.3-0.8S304.1,400.9,303.8,400.9z M302.6,396.4c0,0.3,0.1,0.6,0.3,0.8c0.2,0.2,0.5,0.3,0.8,0.3
	s0.6-0.1,0.8-0.3c0.2-0.2,0.3-0.5,0.3-0.8s-0.1-0.6-0.3-0.8s-0.5-0.3-0.8-0.3s-0.6,0.1-0.8,0.3S302.6,396,302.6,396.4z M303.3,392.7
	c-0.3,0-0.4,0.2-0.4,0.5v0.7c0,0.3,0.1,0.5,0.4,0.5h2.4c0.3,0,0.4-0.2,0.4-0.5v-0.7c0-0.3-0.1-0.5-0.4-0.5H303.3z M310.4,386.1
	c0.6,0,1,0.2,1.4,0.6s0.6,0.9,0.6,1.4v15.4c0,0.6-0.2,1-0.6,1.4s-0.9,0.6-1.4,0.6h-7.6c-0.5,0-1-0.2-1.4-0.6s-0.6-0.9-0.6-1.4v-15.4
	c0-0.5,0.2-1,0.6-1.4s0.9-0.6,1.4-0.6H310.4z M311,391c0.3-0.2,0.4-0.6,0.4-1v-1.1c0-0.4-0.1-0.7-0.4-1s-0.6-0.4-1-0.4h-6.8
	c-0.4,0-0.7,0.1-1,0.4c-0.3,0.2-0.4,0.6-0.4,1v1.1c0,0.4,0.1,0.7,0.4,1s0.6,0.4,1,0.4h6.8C310.4,391.5,310.7,391.3,311,391z"/>
</svg>
