<?xml version="1.0" encoding="utf-8"?>
<!-- Generator: Adobe Illustrator 19.0.0, SVG Export Plug-In . SVG Version: 6.00 Build 0)  -->
<svg version="1.1" id="Layer_1" xmlns="http://www.w3.org/2000/svg" xmlns:xlink="http://www.w3.org/1999/xlink" x="0px" y="0px"
	 viewBox="288 374 37 38" style="enable-background:new 288 374 37 38;" xml:space="preserve">
<style type="text/css">
	.st0{fill:#fff;}
</style>
<g>
	<path class="st0" d="M307.7,391.6c0,0.2,0.1,0.4,0.2,0.5c0.2,0.2,0.3,0.2,0.5,0.2h2.2l-2.9-2.9L307.7,391.6L307.7,391.6z
		 M311.2,393.6h-2.8c-0.5,0-1-0.2-1.4-0.6s-0.6-0.9-0.6-1.4v-2.8h-4.9c-0.2,0-0.3,0.1-0.5,0.2c-0.1,0.2-0.2,0.3-0.2,0.5V403
		c0,0.2,0.1,0.3,0.2,0.5c0.1,0.1,0.3,0.2,0.5,0.2h9.1c0.2,0,0.3-0.1,0.5-0.2c0.1-0.1,0.2-0.3,0.2-0.5L311.2,393.6L311.2,393.6z
		 M307.1,387.5L307.1,387.5c0.5,0.1,0.8,0.3,1.1,0.6l3.8,3.8c0.3,0.2,0.4,0.6,0.5,1v0.1v10.1c0,0.5-0.2,1-0.6,1.4s-0.9,0.6-1.4,0.6
		h-9.1c-0.5,0-1-0.2-1.4-0.5c-0.4-0.4-0.6-0.8-0.7-1.4v-13.5c0-0.6,0.2-1,0.6-1.4s0.9-0.6,1.4-0.6L307.1,387.5L307.1,387.5z"/>
	<path class="st0" d="M309.4,399.9c0.4,0,0.7,0.2,0.7,0.7c0,0.2-0.1,0.3-0.2,0.5s-0.3,0.2-0.5,0.2h-6.8c-0.2,0-0.3-0.1-0.5-0.2
		s-0.2-0.3-0.2-0.5c0-0.4,0.2-0.7,0.7-0.7H309.4z"/>
	<path class="st0" d="M309.4,397.2c0.2,0,0.3,0.1,0.5,0.2c0.1,0.2,0.2,0.3,0.2,0.5s-0.1,0.3-0.2,0.5s-0.3,0.2-0.5,0.2h-6.8
		c-0.2,0-0.3-0.1-0.5-0.2s-0.2-0.3-0.2-0.5s0.1-0.3,0.2-0.5c0.1-0.1,0.3-0.2,0.5-0.2H309.4z"/>
</g>
</svg>
