<?xml version="1.0" encoding="utf-8"?>
<!-- Generator: Adobe Illustrator 19.0.0, SVG Export Plug-In . SVG Version: 6.00 Build 0)  -->
<svg version="1.1" id="Layer_1" xmlns="http://www.w3.org/2000/svg" xmlns:xlink="http://www.w3.org/1999/xlink" x="0px" y="0px"
	 viewBox="285 360 42 48" style="enable-background:new 285 360 42 48;" xml:space="preserve">
<style type="text/css">
	.st0{fill:#fff;}
</style>
<g>
	<g>
		<path class="st0" d="M309.8,395.7h1.7c0,0.9,0,1.7-0.1,2.3c-0.1,0.6-0.2,0.9-0.4,0.9h-0.7c-0.1,0-0.2-0.3-0.4-0.9
			C309.8,397.4,309.8,396.6,309.8,395.7z"/>
		<rect x="295.9" y="394.2" class="st0" width="22" height="1.1"/>
		<path class="st0" d="M314.6,385v9h-15.3v-9c0-0.6,0.2-1.2,0.5-1.6s0.8-0.7,1.3-0.7h11.6c0.5,0,1,0.2,1.4,0.7
			C314.4,383.8,314.6,384.4,314.6,385z M304.1,392.6v-0.7h-2.8v0.7H304.1z M307.5,389l-1,4.2l3.5-5.3h-3.5l1.8-4.2L304,389H307.5z
			 M313.4,392.6v-0.7h-1v-1h-0.8v1h-1v0.7h1v1h0.8v-1H313.4z"/>
		<path class="st0" d="M302.3,395.7h1.7c0,0.9,0,1.7-0.1,2.3c-0.1,0.6-0.2,0.9-0.4,0.9h-0.7c-0.1,0-0.2-0.3-0.4-0.9
			C302.4,397.4,302.3,396.6,302.3,395.7z"/>
	</g>
</g>
</svg>
