<?xml version="1.0" encoding="utf-8"?>
<!-- Generator: Adobe Illustrator 19.0.0, SVG Export Plug-In . SVG Version: 6.00 Build 0)  -->
<svg version="1.1" id="Ebene_1" xmlns="http://www.w3.org/2000/svg" xmlns:xlink="http://www.w3.org/1999/xlink" x="0px" y="0px"
	 viewBox="-284 375 42 44" style="enable-background:new -284 375 42 44;" xml:space="preserve">
<style type="text/css">
	.st0{fill:#fff;}
</style>
<g>
	<path class="st0" d="M-268,401.5h0.6v3.1c0,0.2,0,0.4,0,0.5c0,0.2,0.1,0.3,0.2,0.4c0.1,0.1,0.2,0.2,0.4,0.3
		c0.1,0.1,0.3,0.1,0.5,0.1c0.2,0,0.4,0,0.5-0.1c0.2-0.1,0.3-0.2,0.4-0.3s0.1-0.2,0.1-0.4c0-0.2,0-0.4,0-0.5v-3.1h0.6v3.1
		c0,0.3,0,0.6-0.1,0.8c-0.1,0.2-0.2,0.4-0.4,0.6c-0.2,0.1-0.4,0.3-0.5,0.4c-0.2,0.1-0.5,0.1-0.8,0.1s-0.5,0-0.8-0.1
		c-0.2-0.1-0.4-0.2-0.5-0.4c-0.2-0.2-0.3-0.4-0.4-0.6c-0.1-0.2-0.1-0.5-0.1-0.8L-268,401.5L-268,401.5z M-256.4,391.8
		c0,1-0.3,1.9-0.9,2.6l-3.4,6.3l-3.5-6.2c-0.6-0.8-1-1.7-1-2.6c0-1.2,0.4-2.2,1.3-3.1c0.9-0.8,1.9-1.3,3.1-1.3c1.2,0,2.2,0.4,3,1.3
		C-256.8,389.6-256.4,390.6-256.4,391.8z M-258.6,389.7c-0.6-0.6-1.4-0.8-2.1-0.8c-0.8,0-1.5,0.3-2.1,0.8c-0.6,0.6-1,1.3-1,2.2
		c0,0.8,0.3,1.5,1,2.1c0.6,0.6,1.3,0.9,2.1,0.9c0.8,0,1.5-0.3,2.1-0.9s0.9-1.3,0.9-2.1C-257.7,391-258,390.3-258.6,389.7z
		 M-261.2,391.3v-1.1h1v1.1h1.1v1h-1.1v1.1h-1v-1.1h-1.1v-1H-261.2L-261.2,391.3z M-260.8,401.5h0.6v4.9h-0.8l-2.1-4.2v4.2h-0.6
		v-4.9h0.9l2,3.9V401.5z M-257.1,402.1v-0.6h3.9v0.6h-1.6v4.3h-0.6v-4.3H-257.1L-257.1,402.1z M-257.4,401.5v0.5h-0.6v3.9h0.6v0.5
		h-1.9v-0.5h0.6V402h-0.6v-0.5H-257.4z"/>
</g>
</svg>
